<svg width="134" height="24" viewBox="0 0 134 24" fill="none" xmlns="http://www.w3.org/2000/svg">
<path fill-rule="evenodd" clip-rule="evenodd" d="M30.0266 9.29071V18.5814H34.5707V15.0394C34.5707 12.6971 34.5849 11.4116 34.6062 11.2403C34.6559 10.8761 34.7837 10.5261 34.9541 10.2619C35.2665 9.79059 35.7138 9.57636 36.3316 9.61206C37.1268 9.65491 37.5954 10.1262 37.7303 11.026C37.7516 11.1617 37.7658 12.5685 37.7658 14.9108V18.5814H42.3099V14.3038C42.3099 10.6975 42.3028 9.95484 42.2602 9.59778C42.1111 8.31236 41.678 7.31974 40.9467 6.57705C40.3147 5.94148 39.5337 5.563 38.5681 5.43446C38.1918 5.38447 37.2475 5.41303 36.9138 5.48445C36.0902 5.66298 35.444 6.01289 34.8618 6.59847L34.5423 6.91983V0H30.0337V9.29071H30.0266ZM78.329 0.142824C78.2083 0.428472 73.5861 11.6616 73.5861 11.6759C73.5861 11.683 74.7932 11.6902 76.2771 11.683H78.9681L81.3608 5.86293C82.6814 2.66367 83.7607 0.035706 83.7607 0.0214236C83.7607 0.00714121 82.5536 0 81.0768 0H78.3929L78.329 0.142824ZM20.0651 5.42017C19.0639 5.57014 18.3042 5.84865 17.5445 6.35567C16.018 7.36972 14.9743 9.09075 14.6831 11.076C14.5482 11.9901 14.605 13.147 14.8322 14.0325C15.3932 16.2605 16.8771 17.9601 18.8367 18.6171C19.5468 18.8528 19.8095 18.8956 20.6828 18.8956C21.3147 18.8956 21.5064 18.8885 21.7336 18.8385C22.6495 18.6385 23.324 18.2886 23.885 17.7245L24.1761 17.4317V18.5886H28.5569V5.69868H24.1761V6.88412L23.9702 6.66989C23.4447 6.11287 22.7276 5.72725 21.8401 5.51301C21.5419 5.4416 21.3999 5.42732 20.839 5.42017C20.4769 5.42017 20.1361 5.42017 20.0793 5.42017H20.0651ZM49.0764 5.45588C47.8338 5.62013 46.5771 6.16286 45.6541 6.91983C43.8435 8.39806 42.9631 10.7761 43.3181 13.2184C43.7086 15.9106 45.6044 18.0173 48.2527 18.7028C48.8491 18.8528 49.3817 18.9171 50.0917 18.9171C51.3342 18.9171 52.2785 18.7028 53.3152 18.1886C55.2677 17.2174 56.567 15.3893 56.8865 13.1684C56.9646 12.6328 56.9646 11.683 56.8865 11.1546C56.7232 10.0548 56.3185 9.02648 55.6937 8.15526C55.4452 7.80534 54.8204 7.14835 54.4796 6.88412C53.4927 6.11287 52.3353 5.62727 51.0786 5.46302C50.5745 5.39875 49.5805 5.39875 49.0835 5.46302L49.0764 5.45588ZM63.5323 5.45588C62.304 5.62013 61.1466 6.11287 60.1739 6.87698C59.8331 7.1412 59.2083 7.7982 58.9598 8.14812C58.335 9.01934 57.9303 10.0477 57.767 11.1474C57.6889 11.6759 57.6889 12.6257 57.767 13.1612C58.1788 16.0249 60.2378 18.2101 63.0566 18.7742C63.5962 18.8813 63.9086 18.9099 64.5547 18.9099C65.7831 18.9099 66.841 18.6671 67.8421 18.1458C70.5047 16.7675 71.875 13.8039 71.2644 10.7332C70.7035 7.89817 68.4598 5.84151 65.5132 5.45588C65.0304 5.39161 64.0293 5.39161 63.5323 5.45588ZM0 5.71296C0 5.71296 1.22833 8.64086 2.71936 12.19C4.2175 15.7464 5.43873 18.6671 5.43873 18.6885C5.43873 18.71 4.99852 19.7669 4.4589 21.038C3.91929 22.3091 3.48618 23.3589 3.48618 23.366C3.48618 23.3732 4.57251 23.3732 5.90024 23.366H8.3143L11.9425 14.5681C13.9376 9.73346 15.5707 5.75581 15.5707 5.73439C15.5707 5.69868 15.0879 5.69154 13.185 5.69868H10.7923L9.32252 9.45496C8.5131 11.5188 7.84568 13.1969 7.83858 13.1827C7.83148 13.1755 7.17117 11.4902 6.36885 9.43353L4.92042 5.70582H2.46376C1.10763 5.69154 0.00710017 5.69868 0.00710017 5.70582L0 5.71296ZM22.2874 9.60492C23.1962 9.81201 23.9205 10.5333 24.169 11.4688C24.2684 11.8401 24.2684 12.4543 24.169 12.8256C23.9205 13.7611 23.2317 14.4538 22.3016 14.7037C21.9324 14.8037 21.3218 14.8037 20.9526 14.7037C20.1574 14.4966 19.4758 13.9039 19.1847 13.1684C18.8651 12.3614 18.9645 11.3474 19.4261 10.669C20.0651 9.7406 21.1372 9.3407 22.2874 9.60492ZM50.5745 9.61206C51.5614 9.79059 52.3282 10.5261 52.5696 11.5402C52.6477 11.8758 52.6406 12.4828 52.5554 12.8256C52.3211 13.7254 51.6537 14.411 50.7733 14.6538C50.468 14.7394 49.7225 14.7394 49.4243 14.6538C48.7 14.4538 48.1249 13.9682 47.8125 13.2898C47.6279 12.8899 47.5711 12.6328 47.5711 12.1472C47.5711 11.7116 47.6137 11.4902 47.7628 11.1189C47.9403 10.669 48.2811 10.2476 48.6858 9.9834C49.2113 9.63348 49.9284 9.4978 50.5816 9.61206H50.5745ZM65.0304 9.61206C65.8753 9.76203 66.5783 10.3262 66.8907 11.1189C67.0398 11.4902 67.0824 11.7116 67.0824 12.1472C67.0824 12.6256 67.0256 12.8899 66.841 13.2898C66.5286 13.9611 65.9535 14.4538 65.2292 14.6538C64.931 14.7394 64.1784 14.7323 63.8802 14.6538C63.0069 14.411 62.3324 13.7254 62.0981 12.8256C61.9987 12.4543 61.9987 11.8401 62.0981 11.4688C62.4034 10.3262 63.3619 9.57636 64.5405 9.56207C64.6754 9.56207 64.8955 9.5835 65.0375 9.60492L65.0304 9.61206ZM74.6583 12.797C73.3447 12.9613 72.301 13.9111 72.017 15.2036C71.9389 15.5607 71.946 16.1963 72.0383 16.5605C72.3152 17.6816 73.1743 18.5171 74.289 18.7528C74.4311 18.7814 74.7009 18.8028 74.9068 18.8028C75.7659 18.8028 76.4475 18.5243 77.051 17.9101C77.6616 17.296 77.9385 16.6247 77.9385 15.7392C77.9385 14.6609 77.4486 13.7611 76.554 13.2112C76.0286 12.8827 75.2689 12.7185 74.6583 12.797ZM90.9602 7.64109C90.0443 7.94816 89.6467 8.98364 90.1224 9.80487C90.2502 10.0191 90.5484 10.2833 90.7969 10.4047C91.0099 10.5047 91.0383 10.5119 91.4146 10.5119C91.791 10.5119 91.8194 10.5119 92.0324 10.4047C92.3164 10.2691 92.6359 9.96198 92.7637 9.68347C93.1116 8.94079 92.7921 8.08384 92.0395 7.71964C91.8123 7.61252 91.7555 7.59824 91.4715 7.5911C91.2229 7.58396 91.1094 7.5911 90.9673 7.64109H90.9602ZM87.1688 7.7125C85.9546 7.9553 85.1523 8.73369 84.847 9.96912C84.8044 10.1548 84.7689 10.4047 84.7618 10.7189L84.7405 11.1903H83.7607V12.2757L83.7749 13.3612H84.2577L84.7405 13.3826V18.5171H87.3747V13.3826H88.2693L89.1639 13.3683V12.2829L89.1781 11.1974H87.3605L87.3818 10.9546C87.4315 10.419 87.6445 10.1262 88.0634 9.99769C88.3474 9.91199 88.7521 9.92628 89.0574 10.0334C89.1639 10.0691 89.2562 10.1048 89.2633 10.1048C89.2704 10.1048 89.2775 9.60492 89.2775 8.99792V7.89103L89.0858 7.81962C88.7663 7.69822 88.4468 7.65537 87.9285 7.65537C87.6019 7.65537 87.3463 7.67679 87.1475 7.71964L87.1688 7.7125ZM97.9539 11.0403C97.4001 11.1617 96.9457 11.4331 96.6546 11.8258L96.5055 12.0258V11.1903H93.8358V18.51H96.5055V16.5176C96.5055 15.3679 96.5197 14.4395 96.541 14.3253C96.5836 14.061 96.7398 13.7397 96.8889 13.6326C97.2723 13.3398 97.8829 13.404 98.1385 13.7754C98.3373 14.0682 98.3373 14.0253 98.3515 16.3748L98.3657 18.5171H101.028V16.1177C101.028 13.5683 101.014 13.2755 100.879 12.797C100.744 12.3329 100.567 12.0258 100.24 11.6973C99.9278 11.3831 99.658 11.2188 99.2532 11.1046C98.9337 11.0117 98.2805 10.9832 97.9681 11.0546L97.9539 11.0403ZM104.685 11.0189C104.252 11.076 103.613 11.3331 103.272 11.583C102.498 12.1472 101.965 13.0327 101.774 14.061C101.703 14.4681 101.703 15.2893 101.774 15.6821C101.902 16.3462 102.157 16.9389 102.519 17.4174C103.002 18.0601 103.691 18.4957 104.458 18.6528C104.877 18.7385 105.572 18.7242 105.927 18.6171C106.332 18.4957 106.673 18.3029 106.964 18.0315L107.227 17.7816V18.5171H109.861V11.1974H107.227V11.9544L107.056 11.7687C106.708 11.3974 106.218 11.1474 105.658 11.0474C105.395 11.0046 104.912 10.9903 104.678 11.0189H104.685ZM115.023 11.0474C114.554 11.1474 114.014 11.4759 113.738 11.8473L113.624 11.9972V11.1903H112.282L110.94 11.2046V14.8537L110.926 18.5029H113.624V16.4248C113.624 14.2253 113.624 14.1824 113.78 13.8825C113.922 13.604 114.199 13.4397 114.526 13.4397C114.81 13.4397 114.966 13.4969 115.143 13.6683C115.427 13.9539 115.42 13.8468 115.427 16.3248V18.5029H118.104L118.09 15.8463C118.076 13.2184 118.076 13.1827 118.005 12.9042C117.962 12.7471 117.856 12.4685 117.763 12.2829C117.628 12.0044 117.557 11.8972 117.344 11.6902C117.068 11.4116 116.833 11.2545 116.528 11.1474C116.074 10.9832 115.477 10.9403 115.016 11.0403L115.023 11.0474ZM122.052 11.0474C120.88 11.2331 119.922 11.8687 119.347 12.8327C119.176 13.1255 119.041 13.4612 118.935 13.8682C118.85 14.1967 118.843 14.2753 118.843 14.8394C118.843 15.5036 118.871 15.7249 119.027 16.2034C119.432 17.4531 120.44 18.3386 121.789 18.6385C122.009 18.6885 122.208 18.7028 122.698 18.7028C123.394 18.7028 123.664 18.6528 124.182 18.4457L124.445 18.3386V17.1103L124.459 15.882L124.239 16.0106C123.919 16.2034 123.649 16.2748 123.245 16.2962C122.826 16.3177 122.599 16.2748 122.293 16.1177C122.016 15.9749 121.796 15.7464 121.654 15.4464C121.555 15.2393 121.548 15.1965 121.548 14.8751C121.548 14.5895 121.562 14.4895 121.626 14.3395C121.846 13.7897 122.357 13.4612 123.046 13.4326C123.536 13.4112 123.735 13.4612 124.438 13.8111C124.452 13.8111 124.459 13.2755 124.459 12.5971V11.3759L124.246 11.2902C123.607 11.0332 122.762 10.9403 122.052 11.0546V11.0474ZM128.115 11.0474C126.085 11.4045 124.75 13.1898 124.949 15.2893C125.02 16.032 125.211 16.6104 125.566 17.146C126.071 17.9101 126.83 18.4029 127.853 18.6314C128.293 18.7314 129.422 18.7171 129.898 18.6171C130.629 18.4529 131.282 18.1101 131.751 17.6388C131.971 17.4174 132.326 16.9389 132.297 16.9104C132.29 16.9032 131.779 16.7033 131.161 16.4676L130.04 16.032L129.876 16.2034C129.67 16.4105 129.507 16.5105 129.251 16.5747C128.47 16.7818 127.682 16.3676 127.555 15.6821L127.526 15.5321H130.032L132.539 15.5178V14.9037C132.539 14.4467 132.518 14.2181 132.475 14.011C132.297 13.1827 131.978 12.5542 131.452 12.0401C130.955 11.5473 130.395 11.2474 129.642 11.076C129.308 11.0046 128.456 10.9832 128.115 11.0474ZM90.0869 14.8537V18.51H92.7566V11.1903H90.0869V14.8466V14.8537ZM129.188 13.0898C129.372 13.1398 129.486 13.2041 129.656 13.3612C129.819 13.5112 129.912 13.6754 129.954 13.8754L129.983 14.011H128.769C127.398 14.011 127.505 14.0396 127.626 13.7254C127.824 13.1898 128.492 12.9184 129.188 13.0898ZM106.24 13.454C106.602 13.5469 107 13.8754 107.156 14.2181C107.532 15.018 107.156 15.9392 106.332 16.2391C106.084 16.3319 105.622 16.3391 105.366 16.2605C104.926 16.1248 104.543 15.7392 104.408 15.3036C104.351 15.1179 104.344 15.0108 104.351 14.7823C104.365 14.5252 104.38 14.4609 104.486 14.2467C104.806 13.5969 105.516 13.2826 106.24 13.4683V13.454Z" fill="white" fill-opacity="0.3"/>
</svg>
