<svg width="210" height="24" viewBox="0 0 210 24" fill="none" xmlns="http://www.w3.org/2000/svg">
  <path d="M12.0471 0.331329H0V18.9881H12.0471V0.331329Z" fill="white" fill-opacity="0.5" />
  <path fill-rule="evenodd" clip-rule="evenodd"
    d="M120.851 0.76401C121.743 0.313732 122.262 0.15231 123.145 0.0588558C124.377 -0.0600855 125.592 -0.000614597 126.586 0.25426C127.945 0.585596 129.245 1.50314 129.95 2.62459C130.324 3.2108 130.885 4.39172 130.944 4.73155C130.97 4.85049 131.029 5.05439 131.072 5.19882C131.42 6.19283 131.471 6.77055 131.471 9.57416C131.471 11.9445 131.446 12.4288 131.31 13.015C130.936 14.6547 130.46 15.8526 129.84 16.7106C129.551 17.1014 128.6 18.0275 128.336 18.1719C126.858 18.9705 126 19.1744 124.377 19.1744C122.754 19.1744 122.194 19.047 120.851 18.4013C119.738 17.8576 118.583 16.4898 118.048 15.0964C117.742 14.3063 117.682 14.1024 117.555 13.4822C117.003 10.8995 117.003 8.24882 117.546 5.66609C117.852 4.2303 118.608 2.65858 119.407 1.82599C119.704 1.51164 120.435 0.967909 120.851 0.76401ZM127.104 2.89646C126.943 2.53114 126.195 1.85147 125.677 1.5966C125.201 1.35872 125.074 1.33323 124.309 1.33323C123.706 1.33323 123.426 1.36721 123.307 1.46066C123.222 1.52863 123.086 1.5881 123.009 1.5881C122.737 1.5881 121.794 2.56512 121.514 3.12584C121.089 3.99242 120.724 5.09687 120.724 5.52166C120.724 5.6406 120.664 5.99743 120.588 6.32027C120.393 7.16135 120.393 11.902 120.588 12.7431C120.664 13.0659 120.724 13.4567 120.724 13.6182C120.724 13.7796 120.783 14.0515 120.851 14.2214C120.919 14.3828 120.979 14.5952 120.979 14.6801C120.979 14.8586 121.132 15.2409 121.522 16.014C122.415 17.8151 124.42 18.4183 126.042 17.3733C126.408 17.1439 126.968 16.5407 127.104 16.2434C127.147 16.1499 127.215 16.014 127.257 15.946C127.954 14.7141 128.285 12.6836 128.285 9.59116C128.285 7.16985 128.09 5.35175 127.724 4.36623C127.402 3.49116 127.325 3.32125 127.257 3.20231C127.215 3.13434 127.147 2.98991 127.104 2.89646ZM110.444 1.36721C110.325 1.06986 110.342 0.534621 110.461 0.41568C110.537 0.339217 111.277 0.31373 113.46 0.330721L116.349 0.356208L116.374 0.848966C116.408 1.51164 116.332 1.5881 115.66 1.5881C115.219 1.5881 115.108 1.61359 115.032 1.74952C114.972 1.85997 114.947 4.57013 114.947 9.93099C114.938 17.5772 114.904 19.2254 114.709 19.8626C114.301 21.2219 114.004 21.8251 113.426 22.4963C113.035 22.9551 112.296 23.4308 111.676 23.6262C110.019 24.1445 109.917 24.136 109.569 23.5243C109.331 23.091 109.323 23.0655 109.467 22.9126C109.552 22.8191 109.713 22.7427 109.824 22.7427C110.13 22.7427 110.733 22.131 111.022 21.5278C111.37 20.8141 111.463 20.4998 111.548 19.8541C111.57 19.7012 111.599 19.5015 111.629 19.3019C111.659 19.1022 111.689 18.9026 111.71 18.7496C111.829 18.019 111.837 2.10635 111.718 1.80899C111.642 1.60509 111.599 1.5881 111.081 1.5881C110.563 1.5881 110.52 1.57111 110.444 1.36721ZM131.989 0.44965C131.904 0.662045 131.93 1.23976 132.023 1.42667C132.1 1.5626 132.21 1.58809 132.661 1.58809C133 1.58809 133.23 1.63057 133.272 1.69004C133.306 1.74951 133.366 4.45967 133.391 7.70507C133.442 13.2528 133.459 13.6521 133.621 14.3318C133.986 15.8526 134.385 16.6512 135.184 17.4668C136.008 18.3078 136.908 18.7921 137.97 18.962C139.381 19.1829 139.687 19.2084 140.375 19.1065C141.581 18.9365 141.912 18.8686 142.091 18.7751C142.184 18.7326 142.414 18.6222 142.601 18.5287C143.816 17.9595 144.784 16.7531 145.268 15.1729L145.318 15.0135L145.318 15.013L145.318 15.0118L145.319 15.0109C145.406 14.7305 145.475 14.5085 145.53 14.283C145.739 13.4276 145.743 12.5225 145.766 8.19535V8.19452L145.77 7.62011C145.787 3.78001 145.829 1.7665 145.888 1.69004C145.939 1.63057 146.177 1.58809 146.475 1.58809C146.874 1.58809 146.984 1.55411 147.061 1.42667C147.188 1.18879 147.163 0.526112 147.027 0.407171C146.95 0.339204 146.322 0.313717 144.928 0.330709L142.94 0.356195V1.54561L143.535 1.58809L144.13 1.63057L144.155 7.22081C144.172 12.4202 144.164 12.879 144.011 13.7201C143.824 14.7651 143.756 14.986 143.34 15.861C142.643 17.3223 141.369 17.985 139.721 17.7471C138.769 17.6112 138.361 17.4073 137.8 16.8211C137.257 16.2519 137.18 16.1244 136.959 15.4617C136.603 14.3828 136.569 13.6521 136.569 7.49268V1.63057L137.163 1.58809L137.758 1.54561V0.356195L134.903 0.330709C132.346 0.313717 132.04 0.322213 131.989 0.44965ZM148.522 1.04437C148.505 0.7725 148.514 0.492139 148.539 0.432668C148.607 0.254256 157.485 0.262751 157.978 0.441163C158.165 0.50913 158.386 0.5686 158.462 0.5686C158.709 0.5686 159.66 1.00189 160.229 1.36721C160.688 1.66456 161.402 2.32723 161.512 2.56512C161.555 2.65857 161.665 2.86247 161.759 3.02389C162.175 3.69506 162.285 4.23879 162.251 5.39422C162.226 6.43921 162.217 6.49018 161.912 7.12737C161.733 7.48419 161.427 7.96845 161.223 8.20633C160.884 8.59714 159.941 9.37876 159.635 9.51469L159.38 9.64213C158.998 9.85452 158.675 9.99895 158.564 9.99895C158.403 9.99895 158.411 10.5002 158.581 10.908C158.904 11.6726 158.981 11.834 159.04 11.953C159.082 12.021 159.269 12.3778 159.456 12.7431C159.796 13.3973 160.009 13.7201 160.867 14.969C161.555 15.9715 162.617 17.2884 162.855 17.4328C162.931 17.4753 163.279 17.5347 163.628 17.5602L164.265 17.6027V18.8771L162.243 18.9026L160.221 18.9196L160.026 18.7072C159.907 18.5797 159.669 18.2654 159.49 18.002C159.312 17.7386 159.015 17.3053 158.828 17.0505C158.641 16.7871 158.445 16.5067 158.386 16.4133C158.361 16.3743 158.304 16.2779 158.227 16.1484C158.12 15.9673 157.974 15.7216 157.825 15.4787C157.256 14.5357 157.103 14.2638 156.508 13.1424C156.253 12.6496 156.016 12.2079 155.982 12.1654C155.956 12.1144 155.778 11.7321 155.608 11.3158L155.565 11.2146C155.355 10.7165 155.253 10.4743 155.07 10.3597C154.898 10.2513 154.653 10.2571 154.177 10.2685L154.078 10.2708L153.135 10.2963L153.11 13.8136C153.101 16.2689 153.118 17.3648 153.186 17.4413C153.237 17.5008 153.501 17.5602 153.798 17.5772L154.325 17.6027V18.8771H148.548L148.522 18.2569L148.497 17.6452H149.04C149.397 17.6452 149.618 17.6027 149.686 17.5262C149.754 17.4413 149.771 15.2833 149.763 9.52318L149.737 1.63058L149.142 1.5881L148.548 1.54562L148.522 1.04437ZM158.675 3.45718C158.335 2.73503 157.545 1.94492 156.959 1.73253C156.61 1.61359 156.236 1.5881 154.818 1.5881H153.093V8.8775L153.824 8.93697C154.223 8.97096 155.038 8.97096 155.625 8.93697C157.171 8.86051 157.57 8.64812 158.386 7.45021C158.556 7.19533 158.7 6.92347 158.7 6.847C158.7 6.77904 158.76 6.6431 158.828 6.54965C158.896 6.46469 158.955 6.28628 158.955 6.16734C158.955 6.0484 158.998 5.81901 159.057 5.66609C159.193 5.26678 159.006 4.16233 158.675 3.45718ZM165.276 0.432662C165.25 0.492133 165.242 0.772494 165.259 1.04436L165.284 1.54561L165.794 1.5711C166.151 1.58809 166.338 1.63907 166.414 1.73252C166.491 1.84297 166.516 3.55062 166.516 9.57415C166.516 10.3314 166.517 11.0175 166.517 11.6389C166.521 16.5514 166.522 17.4285 166.211 17.5581C166.144 17.5862 166.062 17.5791 165.961 17.5704C165.906 17.5655 165.844 17.5602 165.777 17.5602C165.531 17.5602 165.318 17.6027 165.267 17.6707C165.148 17.8321 165.199 18.7581 165.335 18.8431C165.522 18.962 169.209 18.9365 169.286 18.8261C169.379 18.6647 169.32 17.6961 169.209 17.6282C169.15 17.5942 168.938 17.5602 168.725 17.5602C168.513 17.5602 168.292 17.5262 168.232 17.4922C168.088 17.3988 168.071 4.6041 168.215 4.6041C168.275 4.6041 168.453 4.87597 168.623 5.19881C168.802 5.53015 169.014 5.91246 169.116 6.04839C169.218 6.19282 169.456 6.60912 169.66 6.98293C169.864 7.35675 170.178 7.90048 170.356 8.19783C170.535 8.48669 170.679 8.74156 170.679 8.76705C170.679 8.80953 171.614 10.4237 171.784 10.6786C171.835 10.7466 171.894 10.8655 171.928 10.9335C171.949 10.9753 172.028 11.1135 172.129 11.2908C172.192 11.4018 172.264 11.5281 172.336 11.6556C172.531 11.9785 172.71 12.3098 172.744 12.3778C172.778 12.4457 172.88 12.6157 172.973 12.7601C173.067 12.896 173.177 13.0914 173.22 13.1849C173.262 13.2783 173.398 13.4992 173.517 13.6776C173.636 13.856 173.738 14.0514 173.738 14.1194C173.738 14.1874 173.78 14.2638 173.831 14.2893C173.874 14.3233 173.959 14.4338 174.001 14.5272C174.044 14.6292 174.154 14.8246 174.247 14.969C174.341 15.1049 174.451 15.3003 174.502 15.3938C174.553 15.4872 174.723 15.7931 174.885 16.0734L174.956 16.1967L174.957 16.1983L174.957 16.1992L174.959 16.2017C175.097 16.4415 175.231 16.6738 175.267 16.7531C175.313 16.8375 175.408 16.9981 175.488 17.1348L175.513 17.1779C175.662 17.4005 175.946 17.9189 176.227 18.4306L176.227 18.4319L176.253 18.4778C176.439 18.8346 176.626 18.911 177.348 18.9195C177.722 18.9195 178.079 18.8856 178.13 18.8516C178.215 18.8006 178.241 16.94 178.258 10.2028L178.283 1.63057L178.708 1.60508L178.739 1.60347C179.162 1.58147 179.355 1.57147 179.442 1.47053C179.515 1.38649 179.515 1.23942 179.515 0.969919V0.950906C179.515 0.449653 179.498 0.398678 179.328 0.356199C179.218 0.330712 178.309 0.322217 177.306 0.330713L175.479 0.356199L175.454 0.772493C175.403 1.53712 175.445 1.58809 176.074 1.58809C176.601 1.58809 176.635 1.60508 176.72 1.81748C176.822 2.08935 176.813 12.3778 176.711 12.5477C176.643 12.6581 176.303 12.1994 175.862 11.3923C175.76 11.2053 175.607 10.942 175.513 10.806L175.461 10.7175C175.39 10.5978 175.32 10.4781 175.292 10.4237C175.225 10.2793 174.035 8.24031 173.908 8.04491C173.857 7.97694 173.78 7.84101 173.738 7.74755C173.687 7.6541 173.576 7.4587 173.483 7.32276C173.389 7.17833 173.287 7.00842 173.253 6.94045C173.22 6.87249 172.982 6.44769 172.718 6.00591C172.455 5.56413 172.217 5.13934 172.183 5.07137C172.149 5.00341 172.047 4.825 171.954 4.68906C171.86 4.54463 171.75 4.35773 171.699 4.26427C171.656 4.17082 171.58 4.03488 171.529 3.96692C171.41 3.78851 170.22 1.74102 170.144 1.58809C170.051 1.40968 169.898 1.15481 169.617 0.704528L169.371 0.31372H167.349C165.718 0.31372 165.31 0.339208 165.276 0.432662ZM186.728 0.814975C186.762 0.653555 186.821 0.466648 186.855 0.407177C186.898 0.339211 187.136 0.313724 187.611 0.330716C187.671 0.333166 187.725 0.334689 187.776 0.336093C187.982 0.341856 188.117 0.345621 188.222 0.403325C188.421 0.512032 188.515 0.812168 188.785 1.67772L188.785 1.67782C188.821 1.7933 188.86 1.91886 188.903 2.05536C189.124 2.75202 189.353 3.46567 189.413 3.62709C189.472 3.78851 189.642 4.32375 189.795 4.8165C189.948 5.30926 190.118 5.8445 190.177 6.00592C190.237 6.16734 190.356 6.53266 190.432 6.81302C190.517 7.09338 190.636 7.45021 190.695 7.60313C190.763 7.75605 190.814 7.93446 190.814 7.99394C190.814 8.0619 190.874 8.22332 190.942 8.35076C191.01 8.48669 191.069 8.66511 191.069 8.74157C191.069 8.82653 191.12 9.01343 191.188 9.16636C191.333 9.52318 191.485 9.96496 191.579 10.2963C191.621 10.4322 191.689 10.6616 191.732 10.806C191.783 10.942 192.004 11.6301 192.225 12.3353C192.446 13.032 192.717 13.873 192.828 14.2044C192.938 14.5272 193.091 14.986 193.159 15.2239L193.201 15.3648L193.202 15.3658C193.41 16.0642 193.452 16.2049 193.652 16.7956C193.779 17.1439 193.941 17.4838 194.017 17.5347C194.094 17.5942 194.4 17.6452 194.688 17.6452C195.088 17.6452 195.224 17.6792 195.266 17.7811C195.351 18.0105 195.317 18.7157 195.215 18.8176C195.139 18.8941 194.408 18.9195 192.454 18.9195L191.999 18.9198C190.295 18.9211 189.809 18.9215 189.674 18.7039C189.62 18.6171 189.621 18.4957 189.624 18.3259C189.624 18.2883 189.625 18.2484 189.625 18.2059C189.625 17.7556 189.803 17.5262 190.101 17.5942C190.347 17.6622 190.559 17.5772 190.559 17.4243C190.559 17.3563 190.39 16.7956 190.194 16.1754C189.812 15.02 189.328 13.4992 189.243 13.1679C189.124 12.7261 189.09 12.7176 186.855 12.7176C184.816 12.7176 184.442 12.7601 184.442 12.998C184.442 13.1339 183.95 14.7396 183.797 15.0794C183.729 15.2324 183.678 15.4278 183.678 15.5212C183.678 15.6147 183.627 15.8101 183.559 15.963C183.313 16.5492 183.16 17.1354 183.185 17.3648C183.211 17.5772 183.245 17.6027 183.508 17.6027C183.669 17.6027 183.856 17.6367 183.916 17.6707C184.052 17.7641 184.052 18.6817 183.916 18.8176C183.805 18.928 180.509 18.9705 180.246 18.8686C180.144 18.8261 180.11 18.6902 180.11 18.2314V17.6452H180.679C181.146 17.6452 181.282 17.6112 181.443 17.4583C181.554 17.3563 181.639 17.2204 181.639 17.1439C181.639 17.025 181.715 16.7616 181.979 16.031C182.03 15.8696 182.115 15.5977 182.149 15.4363C182.183 15.2748 182.268 15.003 182.319 14.8416C182.573 14.1419 182.634 13.9407 182.759 13.5278L182.786 13.4397C182.862 13.1594 182.981 12.8026 183.049 12.6496C183.117 12.4967 183.168 12.3013 183.168 12.2079C183.168 12.1144 183.219 11.919 183.287 11.7661C183.347 11.6132 183.465 11.2733 183.542 11.0184C183.695 10.4917 184.094 9.20884 184.442 8.12987C184.57 7.73057 184.74 7.17834 184.825 6.89798L184.831 6.87795C184.915 6.60045 185.022 6.24848 185.08 6.09087C185.137 5.93427 185.243 5.58577 185.327 5.3091L185.328 5.3069L185.328 5.30596L185.328 5.30375L185.335 5.28377C185.419 5.00341 185.589 4.45118 185.717 4.05188C185.844 3.65258 186.014 3.10035 186.099 2.81999C186.176 2.53963 186.295 2.17431 186.354 2.01289C186.384 1.93217 186.422 1.82385 186.46 1.71553C186.498 1.60721 186.537 1.49889 186.566 1.41818C186.617 1.25676 186.694 0.984891 186.728 0.814975ZM187.144 6.72806C187.093 6.58363 187.034 6.37124 187.017 6.2353C186.991 6.10787 186.94 5.98043 186.898 5.95494C186.804 5.89547 186.481 6.42221 186.481 6.6431C186.473 6.73656 186.422 6.90647 186.354 7.02541C186.286 7.14435 186.235 7.31427 186.227 7.40772C186.227 7.50118 186.167 7.68809 186.099 7.82402C186.031 7.95146 185.972 8.12137 185.972 8.18934C185.972 8.25731 185.861 8.64811 185.725 9.04742L185.621 9.36289C185.098 10.9499 185.023 11.1764 185.104 11.2758C185.118 11.2923 185.136 11.3053 185.156 11.3205L185.173 11.3328C185.292 11.4177 185.691 11.4432 186.906 11.4262L188.478 11.4008L188.503 11.1544C188.52 11.0184 188.478 10.7721 188.41 10.6021C188.342 10.4322 188.215 10.0669 188.138 9.78655L188.133 9.76912L188.133 9.76806L188.132 9.76772L188.132 9.76639C188.048 9.48891 187.941 9.13703 187.883 8.97945C187.824 8.81803 187.73 8.54616 187.679 8.38474C187.631 8.2546 187.572 8.06371 187.529 7.92338L187.529 7.92314L187.528 7.92074L187.528 7.92023L187.501 7.83252C187.433 7.59463 187.382 7.43321 187.144 6.72806ZM196.201 0.424165C196.175 0.492132 196.167 0.772494 196.184 1.04436L196.209 1.54561L196.804 1.58809L197.399 1.63057V17.5177L196.804 17.5602L196.209 17.6027V18.8771H209.123L209.199 18.5542C209.242 18.3843 209.327 18.2399 209.395 18.2399C209.48 18.2399 209.505 17.951 209.505 16.8806V15.5212H208.961C208.486 15.5212 208.392 15.5467 208.282 15.7081C208.205 15.8101 208.146 15.98 208.146 16.0819C208.146 16.3453 207.848 16.9825 207.619 17.1949C207.254 17.5432 207.05 17.5602 203.949 17.5602C201.519 17.5602 200.924 17.5347 200.848 17.4413C200.78 17.3563 200.763 15.2069 200.771 9.4807L200.797 1.63057L201.349 1.58809L201.901 1.54561V0.356199L199.072 0.330712C196.736 0.313721 196.243 0.330711 196.201 0.424165ZM38.4096 2.35334C39.3441 1.13844 40.525 0.492755 42.5215 0.127436C43.3201 -0.0169932 44.9853 -0.0424806 45.5376 0.0849565C45.7499 0.135931 46.1153 0.203898 46.3447 0.246377C47.1263 0.390806 47.6275 0.594705 48.647 1.19791C49.4541 1.67367 49.5051 1.78412 49.624 3.20292C49.658 3.68718 49.7345 4.21392 49.7855 4.37534C49.8364 4.52827 49.8619 4.74066 49.8279 4.83412C49.777 4.99554 49.7175 5.01253 49.0803 4.98704L48.3921 4.96155L48.3412 4.70668C48.0353 3.33036 47.9164 3.08398 47.2962 2.40431C46.5655 1.60571 45.665 1.26587 44.2887 1.26587C43.1077 1.26587 42.5045 1.51225 41.7654 2.28537C41.3576 2.71016 40.6949 3.71267 40.6949 3.89958C40.6949 3.94205 40.644 4.10348 40.576 4.2564C39.9133 5.81113 39.5905 9.05653 39.8454 11.6308C40.1682 14.8847 41.1452 16.9152 42.7084 17.6373C43.1332 17.8242 43.3116 17.8497 44.0593 17.8497C45.2487 17.8497 45.9538 17.6033 46.7609 16.8897L47.0668 16.6263V14.3069C47.0668 12.5058 47.0413 11.9706 46.9564 11.9026C46.8969 11.8517 46.5061 11.8007 46.0813 11.7837L45.3252 11.7582L45.2487 11.4354C45.1977 11.24 45.1977 11.0021 45.2487 10.7982L45.3252 10.4838L48.2562 10.4583L48.6173 10.4555C50.6887 10.4388 51.222 10.4346 51.3566 10.6641C51.4033 10.7437 51.402 10.8514 51.4003 10.9964C51.4 11.0252 51.3997 11.0553 51.3997 11.087C51.3997 11.6732 51.3572 11.7157 50.805 11.7157C50.5076 11.7157 50.2782 11.7582 50.2442 11.8177C50.2103 11.8686 50.1933 12.7267 50.2018 13.7207L50.2034 13.882V13.882C50.2193 15.4009 50.2246 15.9111 50.016 16.3092C49.9104 16.5106 49.7501 16.6832 49.5087 16.9433L49.4796 16.9746C49.1313 17.3484 48.6215 17.8072 48.3412 17.9941C47.738 18.3934 46.7949 18.8522 46.5655 18.8522C46.4806 18.8522 46.2597 18.9202 46.0813 18.9966C45.5885 19.2005 42.8614 19.2005 41.9693 18.9796C41.621 18.8947 41.2302 18.7757 41.1027 18.7163C40.9838 18.6483 40.8054 18.5973 40.7119 18.5973C40.6185 18.5973 40.4995 18.5379 40.4401 18.4699C40.3806 18.4019 40.2701 18.3425 40.1852 18.3425C40.1002 18.3425 39.9898 18.283 39.9303 18.215C39.8708 18.147 39.7774 18.0876 39.7179 18.0876C39.4715 18.0876 38.2481 16.8047 37.8488 16.125C37.4241 15.3944 36.8718 13.9246 36.8718 13.4998C36.8718 13.3809 36.8039 13.092 36.7359 12.8627C36.5235 12.2085 36.515 7.39135 36.7274 6.36336C37.1097 4.51127 37.5345 3.50877 38.4096 2.35334ZM14.4344 0.433281C14.3494 0.594702 14.3324 1.18091 14.4089 1.38481C14.4514 1.48676 14.5788 1.52075 14.9441 1.52075C15.2075 1.52075 15.4709 1.55473 15.5304 1.58871C15.6153 1.64818 15.6323 3.29637 15.6153 9.55778L15.5898 17.4504L15.0631 17.4759C14.7572 17.4929 14.5024 17.5438 14.4429 17.6203C14.3919 17.6883 14.3579 17.9601 14.3749 18.2745L14.4004 18.8097H18.7333C23.1936 18.8097 23.6184 18.7842 24.5104 18.4529C25.8103 17.9686 26.5834 17.4164 27.314 16.4734C27.6709 15.9976 28.0872 15.199 28.2146 14.7317C28.7668 12.7352 28.9282 11.5118 28.9282 9.46433C28.9282 4.42631 27.5349 1.71615 24.4255 0.688156C23.5079 0.382307 22.7433 0.331332 18.5803 0.305844C14.8252 0.288853 14.5109 0.297349 14.4344 0.433281ZM22.3015 1.68217C23.8223 2.07297 24.5869 2.93105 25.2326 4.96155C25.6404 6.2699 25.6913 6.77965 25.6913 9.46433C25.6913 11.7412 25.6744 12.1065 25.5044 12.9051C25.1731 14.5193 24.8588 15.3179 24.2471 16.1335C23.6778 16.8812 23.3635 17.1275 22.5989 17.4079C22.1826 17.5608 19.1581 17.6288 18.9881 17.4929C18.8777 17.3994 18.8607 16.3289 18.8607 9.55778C18.8607 3.40681 18.8862 1.69916 18.9712 1.6142C19.1071 1.47827 21.6898 1.52924 22.3015 1.68217ZM29.4975 1.0025C29.4805 0.671164 29.5145 0.484256 29.5994 0.399298C29.7014 0.297348 30.1941 0.280356 32.7174 0.297348C34.3571 0.314339 35.7419 0.356819 35.7844 0.399298C35.8268 0.441777 35.8523 0.705147 35.8353 0.977013L35.8099 1.47827L35.1727 1.50375C34.8243 1.52074 34.493 1.57172 34.4335 1.62269C34.3486 1.69066 34.3231 3.2284 34.3231 9.49831C34.3231 13.9161 34.3571 17.3314 34.3995 17.3994C34.4505 17.4844 34.7054 17.5353 35.1642 17.5608L35.8608 17.6033L35.8353 18.2065L35.8099 18.8097H29.523L29.4975 18.232C29.472 17.6798 29.4805 17.6628 29.7099 17.5693C29.8373 17.5269 30.1601 17.4929 30.4235 17.5099C30.4943 17.5135 30.5585 17.5226 30.6168 17.5309C30.7215 17.5458 30.8069 17.558 30.8766 17.5304C31.1854 17.408 31.1847 16.5044 31.1807 11.5956V11.5956V11.5955V11.5955V11.5935V11.5913V11.5889C31.1802 10.9762 31.1796 10.3013 31.1796 9.55778C31.1796 3.49177 31.1541 1.77562 31.0777 1.66517C30.9927 1.55473 30.7973 1.52074 30.2451 1.50375L29.523 1.47827L29.4975 1.0025ZM51.5101 0.305843C51.4336 0.331331 51.3997 0.53523 51.3997 0.926038V1.51225L52.1473 1.53774L52.8864 1.56322L52.9119 9.5238L52.9289 17.4929L52.742 17.5014C52.6316 17.5099 52.3342 17.5099 52.0793 17.5014C51.4251 17.4844 51.3827 17.5269 51.4167 18.2235L51.4421 18.8097H57.6441L57.6696 18.266C57.6866 17.9686 57.6526 17.6798 57.6101 17.6373C57.5591 17.5863 57.3382 17.5608 57.1173 17.5693C56.8965 17.5778 56.6076 17.5608 56.4717 17.5269L56.2423 17.4759L56.2593 9.5238L56.2848 1.56322L56.9644 1.52074L57.6441 1.47827L57.6696 0.943029C57.6866 0.569214 57.6611 0.399297 57.5846 0.37381C57.4402 0.322835 51.6375 0.263364 51.5101 0.305843ZM58.5361 2.01351C58.5361 1.63969 58.791 0.390808 58.8845 0.331337C58.9184 0.305849 61.9175 0.297354 65.5537 0.314345C70.5917 0.331337 72.1804 0.36532 72.2314 0.441782C72.2654 0.501253 72.2994 0.679665 72.2994 0.841085C72.2994 1.00251 72.3588 1.36783 72.4268 1.64819C72.4948 1.92855 72.5542 2.31086 72.5542 2.48927C72.5542 2.66768 72.5967 2.96504 72.6562 3.15195C72.7836 3.56824 72.6987 3.6447 72.0615 3.6447C71.4753 3.6447 71.3138 3.55125 71.2459 3.16044C71.1524 2.58273 70.7616 1.92855 70.3878 1.71615C70.0735 1.53774 69.946 1.52075 68.6377 1.52075C67.4228 1.52075 67.2104 1.53774 67.1679 1.65668C67.1424 1.73315 67.1169 5.28439 67.1169 9.54929C67.1169 16.4904 67.1339 17.323 67.2528 17.4419C67.3378 17.5354 67.5417 17.5778 67.89 17.5778C68.1619 17.5778 68.3913 17.6033 68.3913 17.6373C68.3963 17.6626 68.4014 17.757 68.4082 17.8847L68.4083 17.8852C68.4129 17.9721 68.4184 18.0745 68.4253 18.181C68.4423 18.4444 68.4338 18.6993 68.3998 18.7587C68.3573 18.8267 67.6012 18.8522 65.4942 18.8352L62.6566 18.8097L62.6311 18.198L62.6296 18.1557C62.6184 17.8551 62.6125 17.696 62.6887 17.6078C62.7743 17.5086 62.9637 17.499 63.3661 17.4787L63.4212 17.4759L63.846 17.4504V1.56323L62.4442 1.53774C61.6711 1.52925 60.9574 1.53774 60.8555 1.56323C60.4222 1.66518 59.8105 2.59122 59.8105 3.14345C59.8105 3.48328 59.5386 3.6447 58.9524 3.6447C58.3068 3.6447 58.2473 3.55974 58.4087 2.87158C58.4767 2.57423 58.5361 2.18342 58.5361 2.01351ZM77.8216 0.416291C77.7282 0.509745 77.6517 0.654174 77.6517 0.730636C77.6517 0.858074 77.3034 1.99651 77.0145 2.79512C76.9211 3.06698 76.5473 4.23941 76.2329 5.30138C76.2042 5.38739 76.172 5.48773 76.1397 5.58807L76.1397 5.58812L76.1396 5.58852C76.0859 5.75565 76.0322 5.92272 75.995 6.02353C75.9369 6.18125 75.8301 6.53366 75.746 6.81126L75.7402 6.83063C75.5193 7.57826 75.3918 7.98606 75.2729 8.3174C75.2219 8.47882 75.137 8.75068 75.103 8.9121C75.069 9.07352 74.984 9.34539 74.9331 9.50681C74.6786 10.2064 74.6177 10.4076 74.4925 10.8204L74.4658 10.9086C74.3893 11.189 74.2704 11.5458 74.2024 11.6987C74.1344 11.8517 74.0835 12.0471 74.0835 12.1405C74.0835 12.234 74.0325 12.4294 73.9645 12.5823C73.9051 12.7352 73.7861 13.092 73.7012 13.3724C73.6247 13.6528 73.5058 14.0096 73.4378 14.1625C73.3698 14.3154 73.3188 14.5108 73.3188 14.6043C73.3188 14.6977 73.2679 14.8932 73.1999 15.0461C73.1319 15.199 73.013 15.5558 72.9365 15.8362C72.8516 16.1165 72.7326 16.4734 72.6732 16.6263C72.6052 16.7792 72.5542 16.9746 72.5542 17.0596C72.5542 17.4164 72.2909 17.5693 71.6622 17.5948L71.0675 17.6203V18.8097H74.8906L74.9161 18.3934C74.9585 17.6798 74.9076 17.5778 74.4573 17.5778C74.2109 17.5778 74.058 17.5354 74.0325 17.4589C74.007 17.3994 74.126 16.9321 74.2874 16.4224C74.4573 15.9127 74.6527 15.284 74.7292 15.0291C74.8056 14.7742 74.9161 14.4344 74.984 14.2815C75.052 14.1285 75.103 13.9416 75.103 13.8652C75.103 13.7887 75.1879 13.5083 75.2814 13.2365C75.4173 12.8712 75.5108 12.7352 75.6467 12.7182C75.7402 12.7012 76.7512 12.7012 77.8896 12.7182L79.9541 12.7437L80.0645 13.0156C80.1325 13.1685 80.4213 14.0351 80.7102 14.9441C80.9991 15.8532 81.2964 16.7622 81.3644 16.9661C81.5343 17.4504 81.4748 17.5778 81.067 17.5778C80.8886 17.5778 80.7017 17.6203 80.6422 17.6798C80.4808 17.8412 80.5063 18.7333 80.6762 18.8012C80.8801 18.8777 86.0031 18.8607 86.139 18.7757C86.224 18.7163 86.2325 18.5888 86.1815 18.164L86.105 17.6203L85.4848 17.5948C84.8816 17.5693 84.8647 17.5608 84.7457 17.2975C84.5928 16.9406 84.117 15.4964 84.0236 15.114C83.9896 14.9526 83.8791 14.5873 83.7772 14.3069C83.6073 13.8397 83.4628 13.3894 83.2589 12.6927C83.225 12.5483 83.14 12.3019 83.0805 12.1405C83.0296 11.9791 82.9361 11.7072 82.8766 11.5458C82.8186 11.3882 82.7119 11.0362 82.6278 10.7587L82.6218 10.7387C82.5453 10.4583 82.4264 10.1015 82.3584 9.94859C82.2904 9.79567 82.2394 9.61725 82.2394 9.54929C82.2394 9.48132 82.1885 9.30291 82.1205 9.14998C82.061 8.99706 81.9421 8.64024 81.8571 8.35987C81.7807 8.07951 81.6617 7.71419 81.6023 7.55277C81.548 7.42382 81.3961 6.94242 81.2245 6.3988C81.1814 6.26195 81.1369 6.12115 81.0925 5.98105C80.8716 5.2759 80.6422 4.57924 80.5743 4.42631C80.5063 4.27339 80.4553 4.09498 80.4553 4.02701C80.4553 3.95904 80.4044 3.78063 80.3364 3.62771C80.141 3.16044 79.4358 0.968519 79.4358 0.807099C79.4358 0.730636 79.3424 0.569216 79.2234 0.45877C79.0535 0.280358 78.9346 0.246375 78.5013 0.246375C78.102 0.246375 77.9576 0.280358 77.8216 0.416291ZM77.9066 6.17645C77.9151 6.30389 77.9661 6.49929 78.034 6.61823C78.102 6.73717 78.153 6.91559 78.1615 7.00904C78.1615 7.11099 78.2209 7.30639 78.2889 7.43383C78.3569 7.56976 78.4163 7.75667 78.4163 7.85013C78.4163 7.95208 78.4588 8.07102 78.5098 8.12199C78.5608 8.17297 78.6372 8.36837 78.6712 8.54678C78.7137 8.72519 78.7902 9.00556 78.8411 9.16698C79.0945 9.86808 79.1632 10.0821 79.3059 10.5271L79.3084 10.5348C79.3849 10.7897 79.4358 11.0955 79.4188 11.1975L79.3934 11.4014L77.7367 11.3844C76.8276 11.3759 76.046 11.3334 76.0035 11.2824C75.9525 11.24 76.0035 10.9596 76.1395 10.5518C76.2584 10.1865 76.4793 9.48982 76.6322 8.99706L76.6651 8.89211L76.6651 8.89191C76.9011 8.13812 76.9668 7.92838 77.2269 7.21294C77.2779 7.05152 77.3544 6.77965 77.3883 6.61823C77.4648 6.26141 77.7282 5.83662 77.8301 5.90458C77.8726 5.93007 77.9066 6.04901 77.9066 6.17645ZM87.3539 0.968525C87.3369 0.586213 87.3624 0.441785 87.4559 0.365322C87.6258 0.246381 92.9102 0.263373 93.0376 0.39081C93.0886 0.441785 93.1141 0.705155 93.0971 0.977021L93.0716 1.47827L92.5194 1.52075L91.9672 1.56323L91.9417 9.45584C91.9332 14.9102 91.9502 17.3824 92.0096 17.4419C92.1116 17.5439 97.6848 17.6203 98.1776 17.5354C98.6788 17.4504 99.3075 16.6348 99.316 16.0656C99.316 15.6238 99.4435 15.5388 100.123 15.5388C100.463 15.5388 100.769 15.5728 100.794 15.6153C100.82 15.6578 100.786 15.9891 100.718 16.3544C100.65 16.7283 100.556 17.3654 100.505 17.7817C100.454 18.198 100.378 18.6143 100.327 18.6993C100.251 18.8437 99.9872 18.8522 93.8107 18.8352L87.3794 18.8097L87.3539 18.266C87.3369 17.9517 87.3709 17.6798 87.4219 17.6288C87.4729 17.5778 87.7532 17.5184 88.0421 17.4929L88.5688 17.4504V1.56323L87.9741 1.52075L87.3794 1.47827L87.3539 0.968525Z"
    fill="white" fill-opacity="0.3" />
</svg>