<svg width="263" height="30" viewBox="0 0 263 30" fill="none" xmlns="http://www.w3.org/2000/svg">
<g clip-path="url(#clip0_133_4437)">
<path d="M15.0589 0.414185H0V23.7351H15.0589V0.414185Z" fill="white" fill-opacity="0.5"/>
<path fill-rule="evenodd" clip-rule="evenodd" d="M151.064 0.955013C152.179 0.392165 152.828 0.190387 153.931 0.0735697C155.471 -0.0751069 156.99 -0.000768267 158.233 0.317825C159.931 0.731995 161.556 1.87892 162.438 3.28074C162.905 4.0135 163.606 5.48965 163.68 5.91444C163.713 6.06311 163.786 6.31799 163.84 6.49853C164.275 7.74104 164.339 8.46319 164.339 11.9677C164.339 14.9306 164.308 15.536 164.138 16.2688C163.67 18.3184 163.075 19.8157 162.3 20.8882C161.939 21.3767 160.75 22.5344 160.42 22.7149C158.573 23.7131 157.5 23.968 155.471 23.968C153.443 23.968 152.743 23.8088 151.064 23.0016C149.673 22.322 148.229 20.6123 147.56 18.8705C147.178 17.8829 147.103 17.628 146.944 16.8527C146.254 13.6244 146.254 10.311 146.933 7.08261C147.315 5.28788 148.26 3.32322 149.259 2.28249C149.63 1.88955 150.544 1.20989 151.064 0.955013ZM158.88 3.62058C158.679 3.16393 157.744 2.31434 157.096 1.99575C156.501 1.6984 156.343 1.66654 155.386 1.66654C154.633 1.66654 154.283 1.70901 154.134 1.82582C154.028 1.91079 153.858 1.98512 153.761 1.98512C153.421 1.98512 152.243 3.2064 151.893 3.9073C151.361 4.99052 150.905 6.37109 150.905 6.90207C150.905 7.05075 150.83 7.49679 150.735 7.90034C150.491 8.95169 150.491 14.8775 150.735 15.9289C150.83 16.3324 150.905 16.8209 150.905 17.0228C150.905 17.2245 150.979 17.5644 151.064 17.7768C151.149 17.9785 151.224 18.244 151.224 18.3501C151.224 18.5733 151.415 19.0511 151.903 20.0175C153.019 22.2689 155.525 23.0229 157.553 21.7166C158.01 21.4299 158.71 20.6759 158.88 20.3043C158.934 20.1874 159.019 20.0175 159.071 19.9325C159.943 18.3926 160.356 15.8545 160.356 11.9889C160.356 8.96231 160.113 6.68969 159.655 5.45779C159.253 4.36395 159.156 4.15156 159.071 4.00289C159.019 3.91793 158.934 3.73739 158.88 3.62058ZM138.055 1.70901C137.906 1.33733 137.928 0.668276 138.076 0.5196C138.171 0.424021 139.096 0.392162 141.825 0.413401L145.436 0.44526L145.468 1.06121C145.51 1.88955 145.415 1.98512 144.575 1.98512C144.024 1.98512 143.885 2.01699 143.79 2.1869C143.715 2.32496 143.684 5.71266 143.684 12.4137C143.673 21.9715 143.63 24.0318 143.386 24.8283C142.876 26.5274 142.505 27.2814 141.783 28.1204C141.294 28.6939 140.37 29.2885 139.595 29.5327C137.524 30.1806 137.396 30.17 136.961 29.4054C136.664 28.8637 136.654 28.8319 136.834 28.6407C136.94 28.5239 137.141 28.4284 137.28 28.4284C137.663 28.4284 138.416 27.6637 138.778 26.9097C139.213 26.0176 139.329 25.6247 139.435 24.8176C139.463 24.6265 139.499 24.3769 139.536 24.1274C139.574 23.8778 139.611 23.6282 139.638 23.437C139.786 22.5237 139.796 2.63294 139.648 2.26124C139.553 2.00636 139.499 1.98512 138.851 1.98512C138.204 1.98512 138.15 1.96389 138.055 1.70901ZM164.986 0.562062C164.88 0.827556 164.913 1.5497 165.029 1.78334C165.125 1.95325 165.263 1.98511 165.826 1.98511C166.25 1.98511 166.538 2.03821 166.59 2.11255C166.633 2.18689 166.708 5.57459 166.739 9.63134C166.803 16.566 166.824 17.0651 167.026 17.9148C167.483 19.8158 167.981 20.814 168.98 21.8335C170.01 22.8848 171.135 23.4901 172.463 23.7025C174.226 23.9786 174.609 24.0105 175.469 23.8831C176.976 23.6706 177.39 23.5858 177.614 23.4689C177.73 23.4158 178.018 23.2777 178.251 23.1609C179.77 22.4494 180.98 20.9414 181.585 18.9661L181.648 18.7669V18.7647L181.649 18.7636C181.758 18.4131 181.844 18.1356 181.913 17.8537C182.174 16.7845 182.179 15.6531 182.208 10.2442L182.213 9.52514C182.234 4.72501 182.286 2.20812 182.36 2.11255C182.424 2.03821 182.721 1.98511 183.094 1.98511C183.593 1.98511 183.73 1.94264 183.826 1.78334C183.985 1.48599 183.954 0.65764 183.784 0.508964C183.688 0.424005 182.903 0.392146 181.16 0.413386L178.675 0.445244V1.93201L179.419 1.98511L180.163 2.03821L180.194 9.02601C180.215 15.5252 180.205 16.0988 180.014 17.1501C179.78 18.4564 179.695 18.7325 179.175 19.8263C178.304 21.6529 176.711 22.4813 174.651 22.1839C173.461 22.014 172.951 21.7591 172.25 21.0264C171.571 20.3149 171.475 20.1555 171.199 19.3271C170.754 17.9785 170.711 17.0651 170.711 9.36585V2.03821L171.454 1.98511L172.198 1.93201V0.445244L168.629 0.413386C165.433 0.392146 165.05 0.402766 164.986 0.562062ZM185.653 1.30546C185.631 0.965625 185.643 0.615174 185.674 0.540835C185.759 0.31782 196.856 0.328439 197.473 0.551454C197.706 0.636412 197.983 0.71075 198.078 0.71075C198.386 0.71075 199.575 1.25236 200.286 1.70901C200.86 2.0807 201.753 2.90904 201.89 3.2064C201.944 3.32321 202.081 3.57809 202.199 3.77986C202.719 4.61883 202.856 5.29849 202.814 6.74277C202.783 8.04901 202.771 8.11272 202.39 8.90921C202.166 9.35524 201.784 9.96056 201.529 10.2579C201.105 10.7464 199.926 11.7235 199.544 11.8934L199.225 12.0527C198.748 12.3181 198.344 12.4987 198.205 12.4987C198.004 12.4987 198.014 13.1253 198.226 13.635C198.63 14.5907 198.726 14.7925 198.8 14.9413C198.853 15.0263 199.086 15.4723 199.32 15.9289C199.745 16.7466 200.011 17.1501 201.084 18.7112C201.944 19.9644 203.271 21.6105 203.569 21.791C203.664 21.8441 204.099 21.9184 204.535 21.9502L205.331 22.0034V23.5964L202.804 23.6282L200.276 23.6495L200.033 23.384C199.884 23.2246 199.586 22.8318 199.363 22.5025C199.14 22.1733 198.769 21.6316 198.535 21.3131C198.301 20.9839 198.056 20.6334 197.983 20.5166C197.951 20.4679 197.88 20.3474 197.784 20.1855C197.65 19.9591 197.468 19.652 197.281 19.3484C196.57 18.1696 196.379 17.8297 195.635 16.428C195.316 15.812 195.02 15.2599 194.978 15.2067C194.945 15.143 194.723 14.6651 194.51 14.1447L194.456 14.0182C194.194 13.3956 194.066 13.0929 193.838 12.9496C193.623 12.8141 193.316 12.8214 192.721 12.8356L192.598 12.8385L191.419 12.8704L191.388 17.267C191.376 20.3361 191.398 21.706 191.483 21.8016C191.546 21.876 191.876 21.9502 192.248 21.9715L192.906 22.0034V23.5964H185.685L185.653 22.8211L185.621 22.0565H186.3C186.746 22.0565 187.023 22.0034 187.108 21.9077C187.193 21.8016 187.214 19.1041 187.204 11.904L187.171 2.03822L186.428 1.98512L185.685 1.93202L185.653 1.30546ZM198.344 4.32148C197.919 3.41879 196.931 2.43115 196.199 2.16566C195.763 2.01699 195.295 1.98512 193.523 1.98512H191.366V11.0969L192.28 11.1712C192.779 11.2137 193.798 11.2137 194.531 11.1712C196.464 11.0756 196.963 10.8102 197.983 9.31276C198.195 8.99416 198.375 8.65434 198.375 8.55875C198.375 8.4738 198.45 8.30388 198.535 8.18706C198.62 8.08086 198.694 7.85785 198.694 7.70917C198.694 7.5605 198.748 7.27376 198.821 7.08261C198.991 6.58348 198.758 5.20291 198.344 4.32148ZM206.595 0.540827C206.563 0.615166 206.553 0.965618 206.574 1.30545L206.605 1.93201L207.243 1.96387C207.689 1.98511 207.923 2.04884 208.018 2.16565C208.114 2.30371 208.145 4.43828 208.145 11.9677C208.145 12.9143 208.146 13.7719 208.146 14.5486C208.151 20.6892 208.153 21.7856 207.764 21.9476C207.68 21.9827 207.578 21.9739 207.451 21.963C207.383 21.9569 207.305 21.9502 207.221 21.9502C206.914 21.9502 206.648 22.0034 206.584 22.0884C206.435 22.2901 206.499 23.4476 206.669 23.5539C206.903 23.7025 211.511 23.6706 211.608 23.5326C211.724 23.3309 211.65 22.1201 211.511 22.0353C211.438 21.9928 211.173 21.9502 210.906 21.9502C210.641 21.9502 210.365 21.9078 210.29 21.8653C210.11 21.7485 210.089 5.75513 210.269 5.75513C210.344 5.75513 210.566 6.09496 210.779 6.49851C211.003 6.91269 211.268 7.39057 211.395 7.56049C211.523 7.74102 211.82 8.2614 212.075 8.72866C212.33 9.19594 212.723 9.8756 212.945 10.2473C213.169 10.6084 213.349 10.9269 213.349 10.9588C213.349 11.0119 214.518 13.0296 214.73 13.3483C214.794 13.4333 214.868 13.5819 214.91 13.6669C214.936 13.7191 215.035 13.8919 215.161 14.1135C215.24 14.2523 215.33 14.4101 215.42 14.5695C215.664 14.9731 215.888 15.3872 215.93 15.4722C215.973 15.5571 216.1 15.7696 216.216 15.9501C216.334 16.12 216.471 16.3643 216.525 16.4811C216.578 16.5979 216.748 16.874 216.896 17.097C217.045 17.32 217.173 17.5643 217.173 17.6493C217.173 17.7343 217.225 17.8297 217.289 17.8616C217.343 17.9041 217.449 18.0422 217.501 18.159C217.555 18.2865 217.693 18.5307 217.809 18.7112C217.926 18.8811 218.064 19.1254 218.128 19.2422C218.191 19.359 218.404 19.7414 218.606 20.0918L218.695 20.2459L218.696 20.2479L218.699 20.2521C218.871 20.5519 219.039 20.8422 219.084 20.9414C219.141 21.0469 219.26 21.2476 219.36 21.4185L219.391 21.4724C219.578 21.7506 219.933 22.3986 220.284 23.0382V23.0399L220.316 23.0973C220.549 23.5433 220.783 23.6388 221.685 23.6494C222.153 23.6494 222.599 23.607 222.663 23.5645C222.769 23.5008 222.801 21.175 222.823 12.7535L222.854 2.03821L223.385 2.00635L223.424 2.00434C223.953 1.97684 224.194 1.96434 224.303 1.83816C224.394 1.73311 224.394 1.54928 224.394 1.2124V1.18863C224.394 0.562066 224.373 0.498347 224.16 0.445249C224.023 0.41339 222.886 0.402771 221.633 0.413391L219.349 0.445249L219.318 0.965616C219.254 1.9214 219.306 1.98511 220.093 1.98511C220.751 1.98511 220.794 2.00635 220.9 2.27185C221.028 2.61169 221.016 15.4722 220.889 15.6846C220.804 15.8226 220.379 15.2492 219.828 14.2404C219.7 14.0066 219.509 13.6775 219.391 13.5075L219.326 13.3969C219.238 13.2472 219.15 13.0976 219.115 13.0296C219.031 12.8491 217.544 10.3004 217.385 10.0561C217.321 9.97118 217.225 9.80126 217.173 9.68444C217.109 9.56763 216.97 9.32338 216.854 9.15345C216.736 8.97291 216.609 8.76053 216.566 8.67556C216.525 8.59061 216.228 8.05961 215.898 7.50739C215.569 6.95516 215.271 6.42418 215.229 6.33921C215.186 6.25426 215.059 6.03125 214.943 5.86133C214.825 5.68079 214.688 5.44716 214.624 5.33034C214.57 5.21352 214.475 5.0436 214.411 4.95865C214.263 4.73564 212.775 2.17627 212.68 1.98511C212.564 1.7621 212.373 1.44351 212.021 0.88066L211.714 0.39215H209.186C207.148 0.39215 206.638 0.42401 206.595 0.540827ZM233.41 1.01872C233.453 0.816944 233.526 0.58331 233.569 0.508971C233.623 0.424014 233.92 0.392155 234.514 0.413395C234.589 0.416457 234.656 0.418361 234.72 0.420116C234.978 0.42732 235.146 0.432026 235.278 0.504156C235.526 0.64004 235.644 1.01521 235.981 2.09715C236.026 2.2415 236.075 2.39858 236.129 2.5692C236.405 3.44003 236.691 4.33209 236.766 4.53386C236.84 4.73564 237.053 5.40469 237.244 6.02063C237.435 6.63658 237.648 7.30562 237.721 7.5074C237.796 7.70917 237.945 8.16583 238.04 8.51628C238.146 8.86673 238.295 9.31276 238.369 9.50391C238.454 9.69506 238.518 9.91807 238.518 9.99242C238.518 10.0774 238.593 10.2792 238.678 10.4385C238.763 10.6084 238.836 10.8314 238.836 10.927C238.836 11.0332 238.9 11.2668 238.985 11.4579C239.166 11.904 239.356 12.4562 239.474 12.8704C239.526 13.0402 239.611 13.327 239.665 13.5075C239.729 13.6775 240.005 14.5376 240.281 15.4191C240.558 16.29 240.896 17.3413 241.035 17.7555C241.173 18.159 241.364 18.7325 241.449 19.0299L241.501 19.206L241.503 19.2072C241.763 20.0802 241.815 20.2561 242.065 20.9945C242.224 21.4299 242.426 21.8548 242.521 21.9184C242.618 21.9928 243 22.0565 243.36 22.0565C243.86 22.0565 244.03 22.099 244.083 22.2264C244.189 22.5131 244.146 23.3946 244.019 23.522C243.924 23.6176 243.01 23.6494 240.568 23.6494L239.999 23.6497C237.869 23.6514 237.261 23.6519 237.093 23.3799C237.025 23.2714 237.026 23.1196 237.03 22.9074C237.03 22.8604 237.031 22.8105 237.031 22.7574C237.031 22.1945 237.254 21.9078 237.626 21.9928C237.934 22.0778 238.199 21.9715 238.199 21.7804C238.199 21.6954 237.988 20.9945 237.743 20.2192C237.265 18.775 236.66 16.874 236.554 16.4599C236.405 15.9076 236.363 15.897 233.569 15.897C231.02 15.897 230.553 15.9501 230.553 16.2475C230.553 16.4174 229.938 18.4245 229.746 18.8493C229.661 19.0405 229.598 19.2848 229.598 19.4015C229.598 19.5184 229.534 19.7626 229.449 19.9538C229.141 20.6865 228.95 21.4192 228.981 21.706C229.014 21.9715 229.056 22.0034 229.385 22.0034C229.586 22.0034 229.82 22.0459 229.895 22.0884C230.065 22.2051 230.065 23.3521 229.895 23.522C229.756 23.66 225.636 23.7131 225.308 23.5858C225.18 23.5326 225.138 23.3627 225.138 22.7892V22.0565H225.849C226.433 22.0565 226.603 22.014 226.804 21.8229C226.943 21.6954 227.049 21.5255 227.049 21.4299C227.049 21.2812 227.144 20.952 227.474 20.0388C227.538 19.837 227.644 19.4971 227.686 19.2954C227.729 19.0935 227.835 18.7538 227.899 18.552C228.216 17.6774 228.293 17.4259 228.449 16.9097L228.483 16.7996C228.578 16.4493 228.726 16.0033 228.811 15.812C228.896 15.6209 228.96 15.3766 228.96 15.2599C228.96 15.143 229.024 14.8987 229.109 14.7076C229.184 14.5165 229.331 14.0916 229.428 13.773C229.619 13.1146 230.118 11.5111 230.553 10.1623C230.713 9.66321 230.925 8.97293 231.031 8.62248L231.039 8.59744C231.144 8.25056 231.278 7.8106 231.35 7.61359C231.421 7.41784 231.554 6.98221 231.659 6.63638L231.66 6.63363V6.62969L231.669 6.60471C231.774 6.25426 231.986 5.56397 232.146 5.06485C232.305 4.56572 232.518 3.87544 232.624 3.52499C232.72 3.17454 232.869 2.71789 232.943 2.51611C232.98 2.41521 233.028 2.27981 233.075 2.14441C233.123 2.00901 233.171 1.87361 233.208 1.77272C233.271 1.57095 233.368 1.23111 233.41 1.01872ZM233.93 8.41007C233.866 8.22954 233.793 7.96405 233.771 7.79413C233.739 7.63484 233.675 7.47554 233.623 7.44367C233.505 7.36934 233.101 8.02776 233.101 8.30387C233.091 8.4207 233.028 8.63309 232.943 8.78176C232.858 8.93044 232.794 9.14284 232.784 9.25965C232.784 9.37648 232.709 9.61011 232.624 9.78002C232.539 9.93932 232.465 10.1517 232.465 10.2367C232.465 10.3216 232.326 10.8101 232.156 11.3093L232.026 11.7036C231.373 13.6874 231.279 13.9705 231.38 14.0947C231.398 14.1154 231.42 14.1316 231.445 14.1506L231.466 14.166C231.615 14.2721 232.114 14.304 233.633 14.2827L235.598 14.251L235.629 13.943C235.65 13.773 235.598 13.4651 235.513 13.2526C235.428 13.0403 235.269 12.5836 235.173 12.2332L235.166 12.2114V12.2101L235.165 12.2097V12.208C235.06 11.8611 234.926 11.4213 234.854 11.2243C234.78 11.0225 234.663 10.6827 234.599 10.4809C234.539 10.3182 234.465 10.0796 234.411 9.90422L234.41 9.90093L234.376 9.79065C234.291 9.49329 234.228 9.29151 233.93 8.41007ZM245.251 0.530206C245.219 0.615165 245.209 0.965618 245.23 1.30545L245.261 1.93201L246.005 1.98511L246.749 2.03821V21.8971L246.005 21.9502L245.261 22.0034V23.5964H261.404L261.499 23.1927C261.553 22.9804 261.659 22.7999 261.744 22.7999C261.85 22.7999 261.881 22.4387 261.881 21.1007V19.4015H261.201C260.608 19.4015 260.49 19.4334 260.353 19.6351C260.256 19.7626 260.183 19.975 260.183 20.1024C260.183 20.4316 259.81 21.2281 259.524 21.4936C259.068 21.929 258.813 21.9502 254.936 21.9502C251.899 21.9502 251.155 21.9184 251.06 21.8016C250.975 21.6954 250.954 19.0086 250.964 11.8509L250.996 2.03821L251.686 1.98511L252.376 1.93201V0.445249L248.84 0.41339C245.92 0.392151 245.304 0.413389 245.251 0.530206ZM48.0121 2.94167C49.1803 1.42305 50.6564 0.615944 53.152 0.159295C54.1503 -0.0212415 56.2318 -0.0531008 56.9221 0.106196C57.1875 0.169914 57.6443 0.254872 57.931 0.307971C58.908 0.488507 59.5345 0.743381 60.8089 1.49739C61.8178 2.09209 61.8815 2.23015 62.0301 4.00365C62.0726 4.60897 62.1683 5.2674 62.232 5.46917C62.2956 5.66034 62.3275 5.92582 62.285 6.04265C62.2214 6.24442 62.147 6.26566 61.3505 6.2338L60.4903 6.20194L60.4266 5.88335C60.0443 4.16295 59.8956 3.85497 59.1204 3.00539C58.207 2.00714 57.0814 1.58234 55.361 1.58234C53.8848 1.58234 53.1308 1.89031 52.2069 2.85671C51.6971 3.3877 50.8688 4.64084 50.8688 4.87448C50.8688 4.92756 50.8051 5.12935 50.7201 5.3205C49.8918 7.26391 49.4883 11.3207 49.8069 14.5385C50.2104 18.6059 51.4316 21.144 53.3856 22.0466C53.9166 22.2803 54.1396 22.3121 55.0743 22.3121C56.561 22.3121 57.4424 22.0041 58.4513 21.1121L58.8336 20.7829V17.8836C58.8336 15.6323 58.8018 14.9633 58.6956 14.8783C58.6213 14.8146 58.1328 14.7509 57.6018 14.7296L56.6566 14.6977L56.561 14.2943C56.4973 14.05 56.4973 13.7526 56.561 13.4977L56.6566 13.1047L60.3204 13.0729L60.7718 13.0694C63.361 13.0485 64.0276 13.0432 64.1959 13.3301C64.2543 13.4296 64.2526 13.5642 64.2505 13.7455C64.2501 13.7815 64.2498 13.8191 64.2498 13.8587C64.2498 14.5915 64.1966 14.6446 63.5064 14.6446C63.1346 14.6446 62.8479 14.6978 62.8054 14.7721C62.763 14.8358 62.7418 15.9084 62.7524 17.1509L62.7544 17.3525C62.7743 19.2511 62.7809 19.8889 62.5201 20.3865C62.3881 20.6383 62.1878 20.854 61.886 21.1791L61.8496 21.2182C61.4143 21.6855 60.777 22.259 60.4266 22.4926C59.6726 22.9918 58.4938 23.5652 58.207 23.5652C58.1009 23.5652 57.8248 23.6502 57.6018 23.7457C56.9858 24.0006 53.5769 24.0006 52.4618 23.7245C52.0264 23.6184 51.5379 23.4696 51.3785 23.3954C51.2299 23.3104 51.0069 23.2466 50.89 23.2466C50.7733 23.2466 50.6245 23.1724 50.5503 23.0874C50.4759 23.0024 50.3378 22.9281 50.2316 22.9281C50.1254 22.9281 49.9874 22.8538 49.913 22.7688C49.8386 22.6838 49.7219 22.6095 49.6475 22.6095C49.3395 22.6095 47.8103 21.0059 47.3111 20.1562C46.7803 19.243 46.0899 17.4057 46.0899 16.8747C46.0899 16.7261 46.005 16.365 45.92 16.0784C45.6545 15.2606 45.6439 9.23919 45.9094 7.9542C46.3873 5.63909 46.9183 4.38596 48.0121 2.94167ZM18.0431 0.541601C17.9369 0.743377 17.9156 1.47614 18.0113 1.73101C18.0644 1.85845 18.2236 1.90094 18.6803 1.90094C19.0095 1.90094 19.3388 1.94341 19.4131 1.98589C19.5193 2.06022 19.5405 4.12046 19.5193 11.9472L19.4874 21.813L18.829 21.8449C18.4466 21.8661 18.1281 21.9298 18.0538 22.0254C17.99 22.1104 17.9475 22.4501 17.9688 22.8431L18.0006 23.5121H23.4168C28.9921 23.5121 29.5231 23.4802 30.6381 23.0661C32.263 22.4607 33.2294 21.7705 34.1426 20.5918C34.5888 19.997 35.1091 18.9987 35.2684 18.4146C35.9586 15.919 36.1604 14.3897 36.1604 11.8304C36.1604 5.53289 34.4188 2.14519 30.532 0.860195C29.385 0.477884 28.4293 0.414165 23.2255 0.382305C18.5316 0.361066 18.1388 0.371686 18.0431 0.541601ZM27.877 2.10271C29.778 2.59121 30.7338 3.66381 31.5409 6.20194C32.0506 7.83738 32.1143 8.47456 32.1143 11.8304C32.1143 14.6765 32.0931 15.1331 31.8806 16.1314C31.4665 18.1491 31.0736 19.1474 30.309 20.1669C29.5974 21.1015 29.2045 21.4094 28.2488 21.7599C27.7284 21.951 23.9478 22.036 23.7353 21.8661C23.5973 21.7493 23.576 20.4111 23.576 11.9472C23.576 4.25851 23.6079 2.12395 23.7141 2.01775C23.884 1.84784 27.1124 1.91155 27.877 2.10271ZM36.872 1.25313C36.8508 0.838955 36.8933 0.60532 36.9994 0.499122C37.1269 0.371685 37.7428 0.350445 40.8969 0.371685C42.9465 0.392924 44.6775 0.446024 44.7306 0.499122C44.7836 0.552221 44.8155 0.881434 44.7943 1.22127L44.7625 1.84784L43.966 1.87969C43.5305 1.90092 43.1164 1.96465 43.042 2.02836C42.9359 2.11332 42.904 4.0355 42.904 11.8729C42.904 17.3951 42.9465 21.6643 42.9995 21.7493C43.0633 21.8555 43.3819 21.9191 43.9554 21.951L44.8261 22.0041L44.7943 22.7581L44.7625 23.5121H36.9039L36.872 22.79C36.8401 22.0998 36.8508 22.0785 37.1375 21.9616C37.2968 21.9086 37.7003 21.8661 38.0295 21.8874C38.118 21.8919 38.1983 21.9032 38.2711 21.9136C38.402 21.9322 38.5088 21.9475 38.5959 21.913C38.9819 21.76 38.981 20.6305 38.976 14.4945V14.4919V14.4891V14.4861C38.9754 13.7202 38.9746 12.8766 38.9746 11.9472C38.9746 4.36471 38.9428 2.21952 38.8473 2.08146C38.741 1.94341 38.4968 1.90092 37.8065 1.87969L36.9039 1.84784L36.872 1.25313ZM64.3878 0.382304C64.2921 0.414164 64.2498 0.669038 64.2498 1.15755V1.89031L65.1843 1.92217L66.1081 1.95403L66.14 11.9047L66.1613 21.8661L65.9276 21.8767C65.7896 21.8874 65.4179 21.8874 65.0993 21.8767C64.2815 21.8555 64.2285 21.9086 64.271 22.7794L64.3028 23.5121H72.0553L72.0871 22.8325C72.1084 22.4608 72.0659 22.0998 72.0128 22.0466C71.949 21.9829 71.6729 21.951 71.3968 21.9616C71.1208 21.9722 70.7596 21.951 70.5898 21.9086L70.303 21.8449L70.3243 11.9047L70.3561 1.95403L71.2056 1.90093L72.0553 1.84784L72.0871 1.17879C72.1084 0.711517 72.0765 0.499121 71.9809 0.467262C71.8004 0.403544 64.547 0.329205 64.3878 0.382304ZM73.1703 2.51689C73.1703 2.04961 73.4889 0.48851 73.6058 0.414171C73.6481 0.382311 77.397 0.371692 81.9423 0.392931C88.2398 0.414171 90.2256 0.45665 90.2894 0.552227C90.3319 0.626566 90.3744 0.849581 90.3744 1.05136C90.3744 1.25314 90.4486 1.70979 90.5336 2.06024C90.6186 2.41069 90.6929 2.88857 90.6929 3.11159C90.6929 3.3346 90.746 3.7063 90.8204 3.93994C90.9796 4.4603 90.8735 4.55588 90.077 4.55588C89.3443 4.55588 89.1424 4.43906 89.0575 3.95055C88.9406 3.22841 88.4521 2.41069 87.9849 2.14519C87.592 1.92218 87.4326 1.90094 85.7973 1.90094C84.2786 1.90094 84.0131 1.92217 83.96 2.07085C83.9281 2.16644 83.8963 6.60549 83.8963 11.9366C83.8963 20.613 83.9175 21.6538 84.0661 21.8024C84.1724 21.9193 84.4273 21.9723 84.8626 21.9723C85.2025 21.9723 85.4893 22.0041 85.4893 22.0466C85.4955 22.0783 85.5019 22.1963 85.5104 22.3559C85.5161 22.4645 85.5231 22.5931 85.5318 22.7262C85.553 23.0555 85.5424 23.3741 85.4999 23.4484C85.4468 23.5334 84.5016 23.5652 81.8679 23.544L78.3209 23.5121L78.289 22.7475L78.2871 22.6946C78.2731 22.3189 78.2658 22.12 78.361 22.0097C78.468 21.8857 78.7048 21.8738 79.2078 21.8484L79.2766 21.8449L79.8076 21.813V1.95404L78.0554 1.92217C77.089 1.91156 76.1969 1.92218 76.0695 1.95404C75.5279 2.08148 74.7633 3.23903 74.7633 3.92931C74.7633 4.3541 74.4234 4.55588 73.6906 4.55588C72.8836 4.55588 72.8093 4.44967 73.011 3.58947C73.096 3.21779 73.1703 2.72927 73.1703 2.51689ZM97.2771 0.520364C97.1604 0.637181 97.0648 0.817718 97.0648 0.913295C97.0648 1.07259 96.6294 2.49564 96.2683 3.4939C96.1515 3.83373 95.6843 5.29926 95.2913 6.62673C95.2554 6.73424 95.2151 6.85966 95.1748 6.98509C95.1076 7.194 95.0404 7.4034 94.9939 7.52941C94.9213 7.72656 94.7878 8.16708 94.6826 8.51408L94.6754 8.53829C94.3993 9.47282 94.2399 9.98257 94.0913 10.3967C94.0275 10.5985 93.9214 10.9383 93.8789 11.1401C93.8364 11.3419 93.7301 11.6817 93.6665 11.8835C93.3484 12.758 93.2723 13.0095 93.1158 13.5255L93.0824 13.6357C92.9868 13.9862 92.8381 14.4322 92.7531 14.6234C92.6681 14.8146 92.6045 15.0589 92.6045 15.1756C92.6045 15.2925 92.5408 15.5368 92.4558 15.7279C92.3815 15.919 92.2328 16.365 92.1266 16.7155C92.031 17.066 91.8824 17.512 91.7974 17.7031C91.7124 17.8943 91.6486 18.1385 91.6486 18.2554C91.6486 18.3721 91.585 18.6165 91.5 18.8076C91.415 18.9987 91.2664 19.4447 91.1708 19.7952C91.0646 20.1456 90.9159 20.5918 90.8416 20.7829C90.7566 20.974 90.6929 21.2183 90.6929 21.3245C90.6929 21.7705 90.3638 21.9616 89.5779 21.9935L88.8345 22.0254V23.5121H93.6134L93.6453 22.9918C93.6983 22.0998 93.6346 21.9723 93.0718 21.9723C92.7638 21.9723 92.5726 21.9193 92.5408 21.8236C92.5089 21.7493 92.6576 21.1651 92.8594 20.528C93.0718 19.8909 93.316 19.105 93.4116 18.7864C93.5071 18.4678 93.6453 18.043 93.7301 17.8519C93.8151 17.6606 93.8789 17.427 93.8789 17.3315C93.8789 17.2359 93.985 16.8854 94.1019 16.5456C94.2718 16.089 94.3886 15.919 94.5585 15.8977C94.6754 15.8765 95.9391 15.8765 97.3621 15.8977L99.9428 15.9296L100.081 16.2695C100.166 16.4606 100.527 17.5439 100.888 18.6801C101.249 19.8165 101.621 20.9528 101.706 21.2076C101.918 21.813 101.844 21.9723 101.334 21.9723C101.111 21.9723 100.877 22.0254 100.803 22.0998C100.601 22.3015 100.633 23.4166 100.845 23.5015C101.1 23.5971 107.504 23.5759 107.674 23.4696C107.78 23.3954 107.791 23.236 107.727 22.705L107.631 22.0254L106.856 21.9935C106.102 21.9616 106.081 21.951 105.932 21.6219C105.741 21.1758 105.146 19.3705 105.03 18.8925C104.987 18.6908 104.849 18.2341 104.722 17.8836C104.509 17.2996 104.329 16.7368 104.074 15.8659C104.031 15.6854 103.925 15.3774 103.851 15.1756C103.787 14.9739 103.67 14.634 103.596 14.4323C103.523 14.2353 103.39 13.7953 103.285 13.4484L103.277 13.4234C103.182 13.0729 103.033 12.6269 102.948 12.4357C102.863 12.2446 102.799 12.0216 102.799 11.9366C102.799 11.8516 102.736 11.6286 102.651 11.4375C102.576 11.2463 102.428 10.8003 102.322 10.4498C102.226 10.0994 102.077 9.64274 102.003 9.44096C101.935 9.27978 101.745 8.67802 101.531 7.9985C101.477 7.82744 101.421 7.65144 101.366 7.47631C101.09 6.59488 100.803 5.72405 100.718 5.53289C100.633 5.34174 100.569 5.11872 100.569 5.03376C100.569 4.9488 100.506 4.72579 100.421 4.53464C100.176 3.95055 99.2949 1.21065 99.2949 1.00887C99.2949 0.913295 99.1781 0.71152 99.0294 0.573462C98.817 0.350447 98.6684 0.307969 98.1268 0.307969C97.6276 0.307969 97.4471 0.350447 97.2771 0.520364ZM97.3834 7.72056C97.394 7.87986 97.4578 8.12411 97.5426 8.27279C97.6276 8.42146 97.6914 8.64449 97.702 8.7613C97.702 8.88874 97.7763 9.13299 97.8613 9.29229C97.9463 9.4622 98.0205 9.69584 98.0205 9.81266C98.0205 9.9401 98.0736 10.0888 98.1374 10.1525C98.2011 10.2162 98.2966 10.4605 98.3391 10.6835C98.3923 10.9065 98.4879 11.2569 98.5515 11.4587C98.8683 12.3351 98.9541 12.6026 99.1325 13.1589L99.1356 13.1685C99.2313 13.4871 99.2949 13.8694 99.2736 13.9969L99.2419 14.2517L97.171 14.2305C96.0346 14.2199 95.0576 14.1668 95.0045 14.103C94.9408 14.05 95.0045 13.6995 95.1745 13.1897C95.3231 12.7331 95.5993 11.8623 95.7904 11.2463L95.8315 11.1151C96.1265 10.1729 96.2086 9.91048 96.5338 9.01618C96.5975 8.8144 96.6931 8.47456 96.7355 8.27279C96.8311 7.82676 97.1604 7.29578 97.2878 7.38073C97.3409 7.41259 97.3834 7.56126 97.3834 7.72056ZM109.193 1.21066C109.171 0.732766 109.203 0.552231 109.32 0.456652C109.532 0.307976 116.138 0.329216 116.297 0.488512C116.361 0.552231 116.393 0.881444 116.372 1.22128L116.34 1.84784L115.649 1.90094L114.959 1.95404L114.927 11.8198C114.917 18.6378 114.938 21.728 115.012 21.8024C115.14 21.9299 122.106 22.0254 122.722 21.9193C123.349 21.813 124.135 20.7935 124.145 20.082C124.145 19.5297 124.305 19.4235 125.154 19.4235C125.579 19.4235 125.961 19.466 125.993 19.5191C126.025 19.5723 125.983 19.9864 125.898 20.443C125.813 20.9104 125.695 21.7068 125.631 22.2271C125.568 22.7475 125.473 23.2679 125.409 23.3741C125.314 23.5546 124.984 23.5652 117.264 23.544L109.224 23.5121L109.193 22.8325C109.171 22.4396 109.214 22.0997 109.278 22.036C109.341 21.9722 109.692 21.898 110.053 21.8661L110.711 21.813V1.95404L109.968 1.90094L109.224 1.84784L109.193 1.21066Z" fill="white" fill-opacity="0.3"/>
</g>
<defs>
<clipPath id="clip0_133_4437">
<rect width="262.5" height="30" fill="white"/>
</clipPath>
</defs>
</svg>
