<svg width="120" height="27" viewBox="0 0 120 27" fill="none" xmlns="http://www.w3.org/2000/svg">
<path d="M3.1343 5.76746H5.72207C8.08719 5.76746 9.12944 6.51482 9.12944 8.03296C9.12944 9.35224 8.08719 10.248 5.99514 10.248H3.1343V5.76746ZM0 20.6948H6.34242C9.67557 20.6948 13.0087 19.5041 13.0087 15.6712C13.0087 13.4058 11.4203 11.6666 9.20683 11.4149V11.3625C11.0179 10.82 12.2669 9.50108 12.2669 7.51024C12.2669 4.30013 9.52713 3.08206 6.86514 3.08206H0V20.6948ZM3.1343 12.9335H6.14358C8.68055 12.9335 9.87878 13.5812 9.87878 15.4236C9.87878 17.7339 7.63472 18.0094 6.01856 18.0094H3.1343V12.9335Z" fill="white" fill-opacity="0.3"/>
<path fill-rule="evenodd" clip-rule="evenodd" d="M18.0414 2.6665V20.6948H15.0646V2.6665H18.0414Z" fill="white" fill-opacity="0.3"/>
<path d="M23.0244 14.725C23.0244 12.8592 24.3437 11.1442 26.5334 11.1442C28.7231 11.1442 30.0384 12.8596 30.0384 14.725C30.0384 16.5905 28.7231 18.3063 26.5334 18.3063C24.3433 18.3063 23.0244 16.5909 23.0244 14.725ZM20.0386 14.725C20.0386 18.4817 22.9228 20.9917 26.5334 20.9917C30.1396 20.9917 33.0282 18.4821 33.0282 14.725C33.0282 10.968 30.14 8.45486 26.5334 8.45486C22.9228 8.45446 20.0386 10.9684 20.0386 14.725Z" fill="white" fill-opacity="0.3"/>
<path d="M37.3604 14.725C37.3604 12.8592 38.6797 11.1442 40.8693 11.1442C43.059 11.1442 44.3743 12.8596 44.3743 14.725C44.3743 16.5905 43.059 18.3063 40.8693 18.3063C38.6797 18.3063 37.3604 16.5909 37.3604 14.725ZM34.3745 14.725C34.3745 18.4817 37.2592 20.9917 40.8693 20.9917C44.4756 20.9917 47.3642 18.4821 47.3642 14.725C47.3642 10.968 44.4759 8.45486 40.8693 8.45486C37.2588 8.45446 34.3745 10.9684 34.3745 14.725Z" fill="white" fill-opacity="0.3"/>
<path d="M49.1828 8.75333H52.0202V10.6211H52.067C52.5901 9.50108 53.7336 8.45287 55.724 8.45287C57.5664 8.45287 58.8389 9.17285 59.4592 10.668C60.3296 9.1534 61.5981 8.45287 63.3857 8.45287C66.5704 8.45287 67.6913 10.7203 67.6913 13.5816V20.6952H64.7054V13.9289C64.7054 12.4377 64.2605 11.1438 62.4923 11.1438C60.6269 11.1438 59.928 12.6854 59.928 14.2254V20.6948H56.9461V13.5812C56.9461 12.1095 56.3487 11.1438 54.9048 11.1438C52.9414 11.1438 52.1686 12.5822 52.1686 14.1765V20.6948H49.1828V8.75333Z" fill="white" fill-opacity="0.3"/>
<path d="M80.0134 14.725C80.0134 16.5928 78.6981 18.3063 76.5044 18.3063C74.3143 18.3063 72.9954 16.5928 72.9954 14.725C72.9954 12.8592 74.3143 11.1399 76.5044 11.1399C78.6981 11.1399 80.0134 12.8592 80.0134 14.725ZM70.1112 20.6948H72.9486V18.9048H72.9954C73.8694 20.3431 75.4348 20.9913 77.1049 20.9913C80.7818 20.9913 82.9988 18.2551 82.9988 14.7246C82.9988 11.1923 80.6337 8.45446 77.2263 8.45446C74.9894 8.45446 73.7916 9.49671 73.1709 10.2734H73.0966V2.6665H70.1108L70.1112 20.6948Z" fill="white" fill-opacity="0.3"/>
<path d="M87.3353 13.5308C87.558 11.8114 88.6546 10.6934 90.4188 10.6934C92.2846 10.6934 93.4281 11.7884 93.4555 13.5308H87.3353ZM96.4414 15.7693V14.9497C96.4414 10.793 94.1778 8.45486 90.8443 8.45486C87.2302 8.45486 84.3495 10.9684 84.3495 14.725C84.3495 18.4817 87.2302 20.9917 90.8443 20.9917C92.7296 20.9917 94.5013 20.3205 95.8909 18.6067L93.752 16.9929C93.0066 17.9086 92.0346 18.6067 90.5435 18.6067C88.8773 18.6067 87.5302 17.5355 87.3353 15.7693H96.4414Z" fill="white" fill-opacity="0.3"/>
<path d="M98.385 8.75333H101.371V10.6445H101.422C102.069 9.27644 103.385 8.45287 104.954 8.45287C105.328 8.45287 105.676 8.52908 106.023 8.63029V11.5149C105.527 11.3919 105.051 11.2923 104.579 11.2923C101.769 11.2923 101.37 13.6574 101.37 14.3055V20.6952H98.3846L98.385 8.75333Z" fill="white" fill-opacity="0.3"/>
<path d="M112.702 11.1438C114.864 11.1438 116.234 12.5822 116.234 14.6524C116.234 16.6393 114.891 18.1574 112.678 18.1574C110.664 18.1574 109.169 16.5905 109.169 14.6992C109.169 12.5822 110.609 11.1438 112.702 11.1438ZM116.234 8.75333V10.5449H116.187C115.313 9.10061 113.744 8.45287 112.078 8.45287C108.397 8.45287 106.184 11.1907 106.184 14.725C106.184 18.105 108.549 20.8432 112.128 20.8432C113.623 20.8432 115.165 20.2733 116.039 19.1044H116.082V19.9768C116.082 22.3379 115.192 23.9815 112.304 23.9815C110.637 23.9815 109.392 23.3568 108.197 22.2562L106.41 24.6991C108.096 26.1978 110.114 26.6665 112.331 26.6665C116.984 26.6665 119.071 23.9267 119.071 19.6251V8.75333H116.234Z" fill="white" fill-opacity="0.3"/>
</svg>
