<svg width="127" height="24" viewBox="0 0 127 24" fill="none" xmlns="http://www.w3.org/2000/svg">
<g clip-path="url(#clip0_5317_69560)">
<path d="M35.4462 16.9748C33.1092 16.9748 31.661 14.8773 31.661 11.9754C31.661 9.10214 32.8798 6.96156 35.4318 6.96156C37.1092 6.96156 38.2132 8.03904 38.4142 9.46128H42.314C42.113 7.69424 41.3246 6.14272 39.9482 5.10835C38.8298 4.24636 37.2814 3.71484 35.4462 3.71484C30.7434 3.71484 27.6895 7.27763 27.6895 11.9754C27.6895 16.7018 30.8438 20.1641 35.475 20.1641C37.697 20.1641 39.3172 19.5463 40.5217 18.3683C41.5969 17.3339 42.314 15.8973 42.4142 14.3314H38.5143C38.3425 15.8686 37.1953 16.9748 35.4462 16.9748Z" fill="white" fill-opacity="0.3"/>
<path d="M49.6114 8.21143C45.9982 8.21143 43.5752 10.7973 43.5752 14.2021C43.5752 17.6069 45.9982 20.1928 49.6114 20.1928C53.253 20.1928 55.6331 17.6069 55.6331 14.2021C55.6331 10.7973 53.253 8.21143 49.6114 8.21143ZM49.597 17.6212C48.0341 17.6212 47.2168 16.2565 47.2168 14.2021C47.2168 12.1477 48.0341 10.7542 49.597 10.7542C51.1598 10.7542 52.0056 12.1477 52.0056 14.2021C51.9915 16.2565 51.1598 17.6212 49.597 17.6212Z" fill="white" fill-opacity="0.3"/>
<path d="M60.735 7.00923C61.5021 6.24062 61.5021 4.99448 60.735 4.22587C59.9677 3.45726 58.7242 3.45726 57.9571 4.22587C57.1901 4.99448 57.1901 6.24062 57.9571 7.00923C58.7242 7.77784 59.9677 7.77784 60.735 7.00923Z" fill="white" fill-opacity="0.3"/>
<path d="M56.2217 11.056H57.727V19.8337H61.3116V8.51318H56.2217V11.056Z" fill="white" fill-opacity="0.3"/>
<path d="M70.129 8.18262C68.5665 8.18262 67.4766 8.84345 66.6452 10.0646H66.5735V8.51305H63.1182V19.8192H66.7169V13.5699C66.7169 12.1764 67.5054 11.1851 68.6954 11.1851C69.8711 11.1851 70.459 12.004 70.459 13.1964V19.8192H74.0577V12.4637C74.0577 9.94966 72.5953 8.18262 70.129 8.18262Z" fill="white" fill-opacity="0.3"/>
<path d="M82.4878 4.03076H75.7637V19.8192H82.2443C84.2229 19.8192 85.8142 19.3164 87.0475 18.3825C88.811 17.0321 89.7858 14.8054 89.7858 12.0183C89.7858 7.19131 86.8466 4.03076 82.4878 4.03076ZM81.9576 16.5437H79.6635V7.30625H82.0005C84.4523 7.30625 85.843 9.15947 85.843 12.0327C85.8286 14.9203 84.5096 16.5437 81.9576 16.5437Z" fill="white" fill-opacity="0.3"/>
<path d="M100.438 9.67692C99.4636 8.8006 98.1875 8.26904 96.5817 8.26904C93.1404 8.26904 90.7891 10.8549 90.7891 14.231C90.7891 17.6501 93.0831 20.2361 96.8111 20.2361C98.2447 20.2361 99.3916 19.8625 100.338 19.2017C101.327 18.5121 101.987 17.5496 102.231 16.5296H98.7321C98.4169 17.2335 97.8003 17.6501 96.854 17.6501C95.3772 17.6501 94.5455 16.702 94.3161 15.1792H102.431C102.446 12.8662 101.786 10.9124 100.438 9.67692ZM94.3305 13.0242C94.5743 11.6738 95.2767 10.8119 96.639 10.8119C97.8003 10.8119 98.6463 11.6738 98.7753 13.0242H94.3305Z" fill="white" fill-opacity="0.3"/>
<path d="M109.515 12.7515C108.081 12.4929 106.805 12.378 106.805 11.5878C106.805 10.8839 107.493 10.5534 108.367 10.5534C109.357 10.5534 110.045 10.8695 110.174 11.8751H113.486C113.314 9.64839 111.594 8.25488 108.396 8.25488C105.729 8.25488 103.521 9.49037 103.521 11.8751C103.521 14.5329 105.615 15.0501 107.579 15.3805C109.084 15.6391 110.446 15.754 110.446 16.774C110.446 17.5067 109.758 17.8946 108.683 17.8946C107.493 17.8946 106.747 17.3486 106.604 16.2137H103.206C103.321 18.7134 105.385 20.2362 108.697 20.2362C111.651 20.2362 113.83 18.9577 113.83 16.4867C113.844 13.5991 111.507 13.0819 109.515 12.7515Z" fill="white" fill-opacity="0.3"/>
<path d="M122.289 12.7654L126.261 8.513H122.117L118.762 12.3344V4.03076H115.221V19.8335H118.762V16.3569L119.852 15.2076L122.562 19.8335H126.72L122.289 12.7654Z" fill="white" fill-opacity="0.3"/>
<path d="M11.8895 13.0245C12.4913 13.0245 12.9791 12.5356 12.9791 11.9326C12.9791 11.3296 12.4913 10.8408 11.8895 10.8408C11.2877 10.8408 10.7998 11.3296 10.7998 11.9326C10.7998 12.5356 11.2877 13.0245 11.8895 13.0245Z" fill="white" fill-opacity="0.3"/>
<path d="M20.5779 13.0245C21.1797 13.0245 21.6676 12.5356 21.6676 11.9326C21.6676 11.3296 21.1797 10.8408 20.5779 10.8408C19.9761 10.8408 19.4883 11.3296 19.4883 11.9326C19.4883 12.5356 19.9761 13.0245 20.5779 13.0245Z" fill="white" fill-opacity="0.3"/>
<path d="M20.5779 21.7447C21.1797 21.7447 21.6676 21.2558 21.6676 20.6528C21.6676 20.0499 21.1797 19.561 20.5779 19.561C19.9761 19.561 19.4883 20.0499 19.4883 20.6528C19.4883 21.2558 19.9761 21.7447 20.5779 21.7447Z" fill="white" fill-opacity="0.3"/>
<path d="M23.7753 3.01103C23.6606 1.41639 22.3845 0.123438 20.7931 0.00850894C19.7751 -0.0633219 18.8574 0.324563 18.2123 0.985408C17.7248 1.48822 17.0652 1.78991 16.3627 1.78991H16.1046C15.3877 1.78991 14.7139 1.48822 14.212 0.97104C13.6242 0.367661 12.8069 0.00850894 11.9037 0.00850894C11.0004 0.00850894 10.1831 0.382029 9.5953 0.97104C9.09347 1.48822 8.41962 1.78991 7.70272 1.78991H7.45898C6.75645 1.78991 6.08256 1.51695 5.59507 1.01414C5.49472 0.913578 5.39434 0.813015 5.29398 0.726816C4.0753 -0.264448 2.28307 -0.235716 1.10738 0.813014C-0.312054 2.06287 -0.369405 4.24653 0.949664 5.56819C0.964003 5.58256 0.978339 5.59693 0.992678 5.6113C1.50884 6.09974 1.78125 6.78934 1.78125 7.49328V7.7375C1.78125 8.45581 1.48016 9.13101 0.964 9.63382C0.361818 10.2228 0.00337582 11.0417 0.00337582 11.9468C0.00337582 12.8518 0.376157 13.6707 0.964 14.2597C1.48016 14.7626 1.78125 15.4378 1.78125 16.1561V16.4865C1.78125 17.1904 1.48016 17.8513 0.978339 18.3397C0.347482 18.9575 -0.0396371 19.8338 0.00337582 20.7963C0.0750643 22.4915 1.45148 23.8563 3.12899 23.9138C4.10397 23.9425 4.97856 23.5546 5.59507 22.9082C6.08256 22.4053 6.74208 22.0893 7.44464 22.0893H7.71706C8.41962 22.0893 9.07914 22.391 9.56662 22.9082C10.2118 23.5834 11.1438 23.9712 12.1618 23.8994C13.7532 23.7845 15.0436 22.4915 15.1583 20.8825C15.2874 18.9718 13.7963 17.3916 11.918 17.3916C11.0291 17.3916 10.2118 17.7507 9.62397 18.3397C9.12214 18.8425 8.44829 19.1442 7.74573 19.1442H7.44464C6.74208 19.1442 6.05389 18.8713 5.55206 18.3541C5.53773 18.3397 5.53773 18.3397 5.52339 18.3253C5.00723 17.8225 4.70614 17.1473 4.70614 16.429V16.1417C4.70614 15.4234 5.00723 14.7482 5.52339 14.2454C6.12557 13.6564 6.48403 12.8375 6.48403 11.9324C6.48403 11.0274 6.11123 10.2085 5.52339 9.61946C5.00723 9.11664 4.70614 8.44144 4.70614 7.72314V7.46454C4.70614 6.74624 5.00723 6.07101 5.50906 5.56819C5.52339 5.55386 5.52339 5.55386 5.53773 5.53949C5.55206 5.52512 5.55206 5.52512 5.5664 5.51075C6.06822 5.00794 6.74208 4.70624 7.45898 4.70624H7.71706C8.43395 4.70624 9.10781 5.00794 9.60963 5.52512C10.1975 6.12848 11.0147 6.48765 11.918 6.48765C12.8213 6.48765 13.6385 6.11411 14.2264 5.52512C14.7282 5.00794 15.4021 4.70624 16.1189 4.70624H16.3484C17.0652 4.70624 17.7391 5.00794 18.2409 5.52512C18.8288 6.12848 19.646 6.48765 20.5493 6.48765C22.4132 6.50202 23.9043 4.92173 23.7753 3.01103Z" fill="white" fill-opacity="0.3"/>
</g>
<defs>
<clipPath id="clip0_5317_69560">
<rect width="126.72" height="24" fill="white"/>
</clipPath>
</defs>
</svg>
