<svg width="156" height="24" viewBox="0 0 156 24" fill="none" xmlns="http://www.w3.org/2000/svg">
<g clip-path="url(#clip0_5317_69575)">
<path d="M14.9674 17.4493L10.7303 19.2985V19.1214C9.88678 19.3378 9.02367 19.4559 8.14094 19.4952C4.15885 19.4559 1.00064 17.3706 0.961406 14.8919V13.9673C2.25608 15.8755 4.94349 17.1542 8.14094 17.0952C9.20021 17.1346 10.2399 16.9969 11.2599 16.7214L11.6326 15.7969C10.4949 16.151 9.31791 16.3477 8.14094 16.3477C4.15885 16.3673 1.00064 14.2821 0.961406 11.7444V10.9969C2.25608 12.7673 4.92388 14.0264 8.14094 13.9673C9.53369 14.046 10.9264 13.7903 12.1819 13.2198L12.3584 12.2952C11.0441 12.9444 9.59254 13.2788 8.12132 13.2198C4.13923 13.2788 0.981022 11.1936 0.94179 8.61652V7.86898C2.23646 9.67882 4.92388 10.9378 8.12132 10.9969C9.84755 10.9378 11.5542 10.505 13.1038 9.71816L13.2804 8.61652C12.0053 9.56079 10.1222 10.1903 8.14094 10.269C4.13923 10.1706 0.981022 8.08538 0.94179 5.46898C0.981022 2.99029 4.13923 0.885375 8.12132 0.865703C10.4949 0.905047 12.6919 1.75095 14.0062 3.08865L14.1435 3.28538H15.0655L14.9281 3.06898C13.6139 1.29849 11.0049 0.118164 8.1017 0.118164C3.70767 0.118164 0.176758 2.55751 0.176758 5.46898V15.069C0.333687 17.9214 3.76652 20.2428 8.1017 20.2428C11.0049 20.2231 13.5746 19.0821 14.9674 17.4493Z" fill="white" fill-opacity="0.3"/>
<path d="M13.2413 23.9605L14.7321 17.6261L10.4558 19.4949L13.0647 8.49822H8.04297L9.33764 3.08838H25.3248L24.0302 8.49822H18.8319L17.7138 11.4884L23.4809 9.06871L13.2413 23.9605ZM15.8502 16.3081L15.1048 20.0261L21.2447 10.7015L16.2229 12.9441L18.4592 7.731H23.4809L24.4029 3.81625H9.90651L8.98455 7.731H14.0063L11.5935 18.1572L15.8502 16.3081Z" fill="white" fill-opacity="0.3"/>
<path d="M39.229 13.7774C39.229 14.3405 39.0686 14.8633 38.868 15.3459C38.6274 15.8285 38.3066 16.2709 37.9055 16.6329C36.9831 17.3568 35.8602 17.759 34.6972 17.6786C34.0555 17.7188 33.4139 17.5982 32.8123 17.3568C32.2108 17.1155 31.6894 16.7133 31.2483 16.2307C30.4061 15.2655 30.005 13.8981 30.005 12.1687V11.4849C29.9649 10.4795 30.1655 9.51424 30.5665 8.58922C30.9274 7.78485 31.4889 7.14136 32.2108 6.65873C33.0931 6.17611 34.0957 5.93481 35.0983 6.01524C36.1009 6.09568 37.0634 6.45764 37.8654 7.06092C38.7076 7.82507 39.1889 8.91097 39.2691 10.0371H36.943C36.943 9.43381 36.7425 8.87075 36.3415 8.42835C35.9003 8.06638 35.2988 7.90551 34.7373 7.94573C34.4165 7.90551 34.0556 7.98595 33.7347 8.14682C33.4139 8.3077 33.1733 8.50878 32.9727 8.79031C32.5717 9.35337 32.3712 10.2382 32.3712 11.4045V12.2491C32.3712 13.4959 32.5717 14.3807 32.9326 14.9437C33.1332 15.2253 33.3738 15.4666 33.6946 15.5872C34.0154 15.7481 34.3363 15.7883 34.6972 15.7883C35.2988 15.8285 35.8602 15.6677 36.3014 15.3057C36.7024 14.9035 36.9029 14.3405 36.9029 13.7774H39.229Z" fill="white" fill-opacity="0.3"/>
<path d="M50.0972 12.1283C50.1373 13.1338 49.9367 14.1393 49.4956 15.0643C49.1347 15.8687 48.5331 16.5524 47.8112 17.035C47.0493 17.4774 46.167 17.7187 45.2847 17.7187C44.4024 17.7187 43.5201 17.4774 42.7581 17.035C41.9961 16.5524 41.3946 15.9089 41.0336 15.1045C40.6326 14.1795 40.392 13.2142 40.4321 12.2088V11.6457C40.392 10.6403 40.6326 9.63479 41.0336 8.66955C41.3946 7.86518 41.9961 7.18147 42.7581 6.69885C43.5201 6.25645 44.4024 6.01514 45.2847 6.01514C46.167 6.01514 47.0493 6.25645 47.8112 6.69885C48.5732 7.18147 49.1347 7.86518 49.5357 8.66955C49.9367 9.59457 50.1774 10.6 50.1373 11.6055V12.1283H50.0972ZM47.731 11.6055C47.731 10.3989 47.5305 9.51414 47.0894 8.87064C46.8888 8.58911 46.6081 8.3478 46.2873 8.18693C45.9664 8.02606 45.6055 7.94562 45.2847 7.94562C44.9237 7.94562 44.5628 8.02606 44.2821 8.18693C43.9612 8.3478 43.6805 8.58911 43.48 8.87064C43.0388 9.47392 42.8383 10.3989 42.8383 11.5653V12.1283C42.7982 13.0534 42.9987 14.0186 43.48 14.823C43.6805 15.1045 43.9612 15.3458 44.2821 15.5067C44.6029 15.6676 44.9638 15.748 45.3248 15.748C45.6857 15.748 46.0467 15.6676 46.3675 15.5067C46.6883 15.3458 46.969 15.1045 47.1696 14.823C47.5706 14.2197 47.8112 13.2947 47.8112 12.1283V11.6055H47.731Z" fill="white" fill-opacity="0.3"/>
<path d="M54.2675 17.5176H51.9414V6.13574H54.2675V17.5176Z" fill="white" fill-opacity="0.3"/>
<path d="M65.6575 17.5176H63.3314L58.7997 10.0369V17.5176H56.4736V6.13574H58.7997L63.3715 13.6164V6.13574H65.6976V17.5176H65.6575Z" fill="white" fill-opacity="0.3"/>
<path d="M76.0041 8.06605H72.5151V17.5576H70.2292V8.06605H66.8203V6.17578H76.0443V8.06605H76.0041Z" fill="white" fill-opacity="0.3"/>
<path d="M84.1859 12.6107H79.6943V15.6673H84.9479V17.5576H77.3281V6.17578H84.9078V8.06605H79.6542V10.7607H84.1458V12.6107H84.1859Z" fill="white" fill-opacity="0.3"/>
<path d="M88.6771 15.6273H93.65V17.5176H86.3511V6.13574H88.6771V15.6273Z" fill="white" fill-opacity="0.3"/>
<path d="M101.791 12.6107H97.2997V15.6673H102.553V17.5576H94.9336V6.17578H102.513V8.06605H97.2596V10.7607H101.751V12.6107H101.791Z" fill="white" fill-opacity="0.3"/>
<path d="M112.94 16.1099C112.459 16.673 111.857 17.0752 111.175 17.2762C110.373 17.5578 109.491 17.7186 108.609 17.6784C107.686 17.7186 106.804 17.4773 106.042 17.0349C105.28 16.5925 104.678 15.949 104.318 15.1447C103.876 14.2599 103.676 13.2544 103.716 12.2489V11.4848C103.676 10.4793 103.876 9.47387 104.277 8.54884C104.638 7.74448 105.2 7.10098 105.922 6.65857C106.684 6.21617 107.566 5.97486 108.448 6.01508C109.812 6.01508 110.855 6.33683 111.616 6.98032C112.419 7.70425 112.9 8.70971 112.98 9.79561H110.694C110.654 9.23255 110.413 8.74994 110.012 8.34775C109.611 8.026 109.09 7.86513 108.528 7.90535C108.168 7.90535 107.807 7.94556 107.486 8.10644C107.165 8.26731 106.884 8.50862 106.684 8.79015C106.283 9.39343 106.042 10.2782 106.042 11.4446V12.1685C106.042 13.3751 106.283 14.2599 106.724 14.8631C106.964 15.1849 107.245 15.4262 107.606 15.5871C107.967 15.7479 108.328 15.8284 108.729 15.7882C109.611 15.7882 110.213 15.5871 110.614 15.2251V13.2544H108.488V11.525H112.94V16.1099Z" fill="white" fill-opacity="0.3"/>
<path d="M118.996 13.3749H117.151V17.5576H114.825V6.17578H119.036C120.36 6.17578 121.402 6.45731 122.124 7.06059C122.485 7.38233 122.766 7.7443 122.966 8.1867C123.167 8.62911 123.247 9.11173 123.207 9.59435C123.247 10.2781 123.047 10.9618 122.686 11.5248C122.325 12.0879 121.763 12.4901 121.162 12.7716L123.608 17.4369V17.5576H121.081L118.996 13.3749ZM117.151 11.4444H119.036C119.517 11.4846 120.039 11.3237 120.4 11.002C120.56 10.8411 120.68 10.64 120.761 10.4389C120.841 10.2378 120.881 9.99654 120.881 9.75523C120.881 9.51392 120.841 9.31282 120.801 9.07151C120.72 8.87042 120.6 8.66932 120.44 8.46823C120.239 8.30736 120.039 8.1867 119.798 8.10627C119.557 8.02583 119.317 7.98561 119.036 8.02583H117.151V11.4444Z" fill="white" fill-opacity="0.3"/>
<path d="M131.388 15.1849H127.298L126.536 17.5176H124.049L128.26 6.13574H130.426L134.677 17.5176H132.19L131.388 15.1849ZM127.939 13.2946H130.787L129.343 9.03147L127.939 13.2946Z" fill="white" fill-opacity="0.3"/>
<path d="M138.086 13.5358V17.5576H135.76V6.17578H140.171C140.933 6.17578 141.695 6.33665 142.417 6.6584C143.019 6.93993 143.54 7.42255 143.901 7.98561C144.262 8.58889 144.422 9.2726 144.422 9.95632C144.462 10.4389 144.342 10.9618 144.142 11.4042C143.941 11.8466 143.66 12.2488 143.259 12.5705C142.497 13.214 141.455 13.5358 140.091 13.5358H138.086ZM138.086 11.6053H140.171C140.693 11.6455 141.174 11.4846 141.575 11.1629C141.735 11.002 141.856 10.8009 141.976 10.5998C142.056 10.3987 142.096 10.1574 142.096 9.9161C142.096 9.67479 142.056 9.43347 141.976 9.19216C141.896 8.95085 141.775 8.74977 141.615 8.54867C141.455 8.3878 141.214 8.22693 140.973 8.14649C140.733 8.06605 140.492 8.02583 140.251 8.02583H138.126V11.6053H138.086Z" fill="white" fill-opacity="0.3"/>
<path d="M155.25 17.5176H152.924V12.6511H148.352V17.5176H146.026V6.13574H148.352V10.7609H152.924V6.13574H155.25V17.5176Z" fill="white" fill-opacity="0.3"/>
</g>
<defs>
<clipPath id="clip0_5317_69575">
<rect width="155.25" height="24" fill="white"/>
</clipPath>
</defs>
</svg>
