<svg width="116" height="24" viewBox="0 0 116 24" fill="none" xmlns="http://www.w3.org/2000/svg">
  <g opacity="0.3">
    <path fill-rule="evenodd" clip-rule="evenodd"
      d="M17.295 1.8327V18.8385H13.1274V8.2959L10.5024 12.5649H12.4452V16.4337H7.9962L6.6336 18.6975H1.884L13.2576 1.8327H17.295Z"
      fill="#CDCDCD" />
    <path fill-rule="evenodd" clip-rule="evenodd"
      d="M17.9568 5.2293L17.937 21.8643H22.1058V8.8371H23.6892C23.6892 8.8371 25.6338 8.7975 25.6338 10.8225C25.6338 12.8451 23.8896 12.7467 23.8896 12.7467H22.7676V16.4337H25.3932C25.3932 16.4337 30.0624 16.6731 29.862 10.7019C29.67 5.0127 23.469 5.2293 23.469 5.2293H17.9568Z"
      fill="#CDCDCD" />
    <path fill-rule="evenodd" clip-rule="evenodd"
      d="M108.657 14.7255L110.142 14.4993C110.206 14.7867 110.333 15.0063 110.528 15.1557C110.72 15.3051 110.99 15.3807 111.339 15.3807C111.722 15.3807 112.01 15.3105 112.203 15.1683C112.334 15.0711 112.398 14.9379 112.398 14.7747C112.398 14.6613 112.362 14.5677 112.292 14.4939C112.218 14.4237 112.053 14.3589 111.797 14.2995C110.603 14.0367 109.846 13.7961 109.526 13.5783C109.083 13.2759 108.862 12.8553 108.862 12.3171C108.862 11.8335 109.053 11.4249 109.436 11.0961C109.819 10.7649 110.412 10.5993 111.216 10.5993C111.983 10.5993 112.553 10.7253 112.926 10.9737C113.298 11.2239 113.553 11.5923 113.693 12.0819L112.298 12.3387C112.238 12.1215 112.125 11.9541 111.958 11.8389C111.791 11.7219 111.553 11.6643 111.243 11.6643C110.853 11.6643 110.574 11.7183 110.405 11.8281C110.294 11.9055 110.238 12.0063 110.238 12.1281C110.238 12.2349 110.287 12.3225 110.385 12.3969C110.519 12.4953 110.979 12.6339 111.768 12.8139C112.556 12.9921 113.107 13.2117 113.42 13.4721C113.729 13.7367 113.884 14.1039 113.884 14.5725C113.884 15.0855 113.67 15.5277 113.24 15.8967C112.812 16.2657 112.179 16.4487 111.339 16.4487C110.576 16.4487 109.974 16.2939 109.527 15.9849C109.083 15.6777 108.794 15.2565 108.657 14.7255ZM40.2681 16.3227H38.5701L37.8951 14.5677H34.8069L34.1703 16.3227H32.5155L35.5245 8.5977H37.1739L40.2681 16.3227ZM37.3953 13.2669L36.3303 10.4001L35.2869 13.2669H37.3953ZM40.0245 14.7255L41.5095 14.4993C41.5731 14.7867 41.7003 15.0063 41.8947 15.1557C42.0873 15.3051 42.3573 15.3807 42.7065 15.3807C43.0893 15.3807 43.3773 15.3105 43.5699 15.1683C43.7007 15.0711 43.7655 14.9379 43.7655 14.7747C43.7655 14.6613 43.7295 14.5677 43.6593 14.4939C43.5855 14.4237 43.4199 14.3589 43.1643 14.2995C41.9703 14.0367 41.2131 13.7961 40.8927 13.5783C40.4505 13.2759 40.2291 12.8553 40.2291 12.3171C40.2291 11.8335 40.4199 11.4249 40.8033 11.0961C41.1861 10.7649 41.7795 10.5993 42.5835 10.5993C43.3497 10.5993 43.9203 10.7253 44.2929 10.9737C44.6649 11.2239 44.9205 11.5923 45.0603 12.0819L43.6647 12.3387C43.6053 12.1215 43.4919 11.9541 43.3251 11.8389C43.1577 11.7219 42.9201 11.6643 42.6105 11.6643C42.2205 11.6643 41.9415 11.7183 41.7723 11.8281C41.6607 11.9055 41.6055 12.0063 41.6055 12.1281C41.6055 12.2349 41.6541 12.3225 41.7525 12.3969C41.8857 12.4953 42.3465 12.6339 43.1361 12.8139C43.9233 12.9921 44.4741 13.2117 44.7873 13.4721C45.0969 13.7367 45.2511 14.1039 45.2511 14.5725C45.2511 15.0855 45.0369 15.5277 44.6073 15.8967C44.1789 16.2657 43.5465 16.4487 42.7065 16.4487C41.9433 16.4487 41.3409 16.2939 40.8945 15.9849C40.4505 15.6777 40.1613 15.2565 40.0245 14.7255ZM45.4881 14.7255L46.9737 14.4993C47.0367 14.7867 47.1639 15.0063 47.3583 15.1557C47.5515 15.3051 47.8209 15.3807 48.1701 15.3807C48.5529 15.3807 48.8409 15.3105 49.0335 15.1683C49.1649 15.0711 49.2291 14.9379 49.2291 14.7747C49.2291 14.6613 49.1931 14.5677 49.1229 14.4939C49.0491 14.4237 48.8841 14.3589 48.6285 14.2995C47.4345 14.0367 46.6773 13.7961 46.3569 13.5783C45.9141 13.2759 45.6933 12.8553 45.6933 12.3171C45.6933 11.8335 45.8835 11.4249 46.2669 11.0961C46.6497 10.7649 47.2437 10.5993 48.0477 10.5993C48.8133 10.5993 49.3839 10.7253 49.7565 10.9737C50.1285 11.2239 50.3841 11.5923 50.5245 12.0819L49.1283 12.3387C49.0689 12.1215 48.9561 11.9541 48.7887 11.8389C48.6213 11.7219 48.3837 11.6643 48.0741 11.6643C47.6841 11.6643 47.4057 11.7183 47.2365 11.8281C47.1249 11.9055 47.0691 12.0063 47.0691 12.1281C47.0691 12.2349 47.1177 12.3225 47.2161 12.3969C47.3493 12.4953 47.8101 12.6339 48.5997 12.8139C49.3875 12.9921 49.9377 13.2117 50.2509 13.4721C50.5605 13.7367 50.7153 14.1039 50.7153 14.5725C50.7153 15.0855 50.5011 15.5277 50.0709 15.8967C49.6425 16.2657 49.0101 16.4487 48.1701 16.4487C47.4075 16.4487 46.8045 16.2939 46.3587 15.9849C45.9141 15.6777 45.6249 15.2565 45.4881 14.7255ZM51.1299 13.4451C51.1299 12.9543 51.2523 12.4779 51.4929 12.0171C51.7365 11.5581 52.0791 11.2059 52.5237 10.9647C52.9683 10.7217 53.4645 10.5993 54.0129 10.5993C54.8583 10.5993 55.5525 10.8747 56.0943 11.4249C56.6355 11.9757 56.9049 12.6699 56.9049 13.5099C56.9049 14.3553 56.6325 15.0567 56.0871 15.6141C55.5399 16.1721 54.8529 16.4487 54.0237 16.4487C53.5095 16.4487 53.0217 16.3335 52.5561 16.1019C52.0899 15.8697 51.7365 15.5295 51.4929 15.0819C51.2523 14.6343 51.1299 14.0889 51.1299 13.4451ZM52.6479 13.5243C52.6479 14.0805 52.7793 14.5047 53.0439 14.7993C53.3061 15.0945 53.6319 15.2421 54.0183 15.2421C54.4053 15.2421 54.7287 15.0945 54.9897 14.7993C55.2525 14.5047 55.3833 14.0763 55.3833 13.5135C55.3833 12.9669 55.2525 12.5439 54.9897 12.2493C54.7287 11.9541 54.4053 11.8071 54.0183 11.8071C53.6319 11.8071 53.3061 11.9541 53.0439 12.2493C52.7793 12.5439 52.6479 12.9705 52.6479 13.5243ZM62.4069 12.3819L60.9465 12.6447C60.8979 12.3531 60.7863 12.1341 60.6117 11.9865C60.4371 11.8389 60.2127 11.7651 59.9355 11.7651C59.5653 11.7651 59.2719 11.8929 59.0523 12.1467C58.8327 12.4017 58.7229 12.8283 58.7229 13.4253C58.7229 14.0889 58.8345 14.5587 59.0577 14.8323C59.2809 15.1053 59.5791 15.2421 59.9553 15.2421C60.2379 15.2421 60.4665 15.1629 60.6459 15.0027C60.8259 14.8425 60.9519 14.5677 61.0257 14.1789L62.4807 14.4255C62.3295 15.0927 62.0379 15.5979 61.6101 15.9381C61.1817 16.2801 60.6081 16.4487 59.8869 16.4487C59.0685 16.4487 58.4157 16.1919 57.9297 15.6753C57.4425 15.1593 57.1995 14.4435 57.1995 13.5297C57.1995 12.6069 57.4443 11.8875 57.9315 11.3727C58.4211 10.8567 59.0811 10.5993 59.9139 10.5993C60.5961 10.5993 61.1373 10.7475 61.5399 11.0403C61.9407 11.3331 62.2305 11.7813 62.4069 12.3819ZM62.9907 9.9681V8.5977H64.4715V9.9681H62.9907ZM62.9907 16.3227V10.7271H64.4715V16.3227H62.9907ZM66.5571 12.4341L65.2131 12.1917C65.3643 11.6505 65.6235 11.2509 65.9919 10.9905C66.3627 10.7307 66.9099 10.5993 67.6359 10.5993C68.2983 10.5993 68.7891 10.6785 69.1125 10.8351C69.4353 10.9917 69.6633 11.1897 69.7941 11.4303C69.9261 11.6715 69.9927 12.1125 69.9927 12.7563L69.9765 14.4849C69.9765 14.9763 69.9999 15.3393 70.0485 15.5727C70.0947 15.8055 70.1853 16.0569 70.3149 16.3227H68.8485C68.8107 16.2243 68.7621 16.0785 68.7063 15.8859C68.6829 15.7983 68.6649 15.7401 68.6541 15.7113C68.4003 15.9579 68.1309 16.1409 67.8429 16.2657C67.5549 16.3881 67.2477 16.4487 66.9201 16.4487C66.3447 16.4487 65.8899 16.2921 65.5587 15.9813C65.2257 15.6681 65.0601 15.2727 65.0601 14.7939C65.0601 14.4795 65.1357 14.1969 65.2869 13.9485C65.4381 13.7007 65.6505 13.5117 65.9223 13.3809C66.1935 13.2489 66.5877 13.1343 67.1001 13.0347C67.7907 12.9057 68.2713 12.7833 68.5377 12.6717V12.5241C68.5377 12.2385 68.4675 12.0369 68.3271 11.9145C68.1867 11.7939 67.9221 11.7327 67.5315 11.7327C67.2675 11.7327 67.0629 11.7849 66.9147 11.8893C66.7677 11.9913 66.6483 12.1731 66.5571 12.4341ZM68.5377 13.6359C68.3481 13.6989 68.0481 13.7739 67.6359 13.8621C67.2261 13.9509 66.9579 14.0367 66.8307 14.1201C66.6381 14.2581 66.5409 14.4309 66.5409 14.6415C66.5409 14.8503 66.6183 15.0279 66.7731 15.1791C66.9279 15.3303 67.1235 15.4059 67.3629 15.4059C67.6305 15.4059 67.8843 15.3177 68.1273 15.1431C68.3073 15.0099 68.4237 14.8461 68.4801 14.6523C68.5191 14.5263 68.5377 14.2851 68.5377 13.9305V13.6359ZM73.4799 10.7271V11.9073H72.4683V14.1627C72.4683 14.6193 72.4779 14.8857 72.4971 14.9613C72.5169 15.0369 72.5607 15.0981 72.6291 15.1485C72.6969 15.1971 72.7815 15.2223 72.8787 15.2223C73.0173 15.2223 73.2147 15.1737 73.4757 15.0801L73.6017 16.2279C73.2561 16.3755 72.8679 16.4487 72.4311 16.4487C72.1647 16.4487 71.9235 16.4037 71.7099 16.3155C71.4957 16.2261 71.3391 16.1091 71.2383 15.9675C71.1375 15.8247 71.0691 15.6321 71.0295 15.3897C70.9989 15.2187 70.9827 14.8695 70.9827 14.3463V11.9073H70.3029V10.7271H70.9827V9.6135L72.4683 8.75069V10.7271H73.4799ZM77.2095 14.5425L78.6861 14.7885C78.4953 15.3303 78.1971 15.7419 77.7867 16.0245C77.3781 16.3083 76.8657 16.4487 76.2507 16.4487C75.2775 16.4487 74.5581 16.1325 74.0901 15.4959C73.7217 14.9865 73.5363 14.3427 73.5363 13.5675C73.5363 12.6393 73.7787 11.9127 74.2647 11.3877C74.7483 10.8627 75.3615 10.5993 76.1025 10.5993C76.9359 10.5993 77.5923 10.8747 78.0747 11.4249C78.5547 11.9757 78.7845 12.8175 78.7647 13.9527H75.0543C75.0657 14.3913 75.1839 14.7327 75.4125 14.9763C75.6411 15.2205 75.9267 15.3429 76.2669 15.3429C76.4991 15.3429 76.6929 15.2799 76.8513 15.1539C77.0097 15.0261 77.1303 14.8227 77.2095 14.5425ZM77.2941 13.0455C77.2827 12.6159 77.1729 12.2901 76.9629 12.0675C76.7523 11.8443 76.4949 11.7327 76.1931 11.7327C75.8691 11.7327 75.6033 11.8515 75.3927 12.0873C75.1821 12.3213 75.0777 12.6411 75.0813 13.0455H77.2941ZM84.5649 16.3227H83.1909V15.5013C82.9623 15.8211 82.6929 16.0587 82.3815 16.2153C82.0701 16.3719 81.7575 16.4487 81.4407 16.4487C80.7969 16.4487 80.2467 16.1901 79.7877 15.6723C79.3311 15.1539 79.1007 14.4309 79.1007 13.5045C79.1007 12.5547 79.3239 11.8335 79.7697 11.3409C80.2161 10.8477 80.7807 10.5993 81.4623 10.5993C82.0869 10.5993 82.6281 10.8603 83.0847 11.3805V8.5977H84.5649V16.3227ZM80.6133 13.4037C80.6133 14.0007 80.6961 14.4327 80.8617 14.7003C81.0987 15.0855 81.4335 15.2799 81.8619 15.2799C82.2033 15.2799 82.4931 15.1341 82.7325 14.8443C82.9695 14.5551 83.0901 14.1213 83.0901 13.5459C83.0901 12.9039 82.9731 12.4395 82.7433 12.1575C82.5111 11.8749 82.2141 11.7327 81.8511 11.7327C81.5001 11.7327 81.2073 11.8731 80.9697 12.1521C80.7327 12.4311 80.6133 12.8481 80.6133 13.4037ZM88.4955 16.3227V8.5977H90.9975C91.9455 8.5977 92.5641 8.63729 92.8515 8.71469C93.2943 8.82989 93.6669 9.08129 93.9651 9.47009C94.2633 9.85829 94.4133 10.3605 94.4133 10.9737C94.4133 11.4483 94.3269 11.8479 94.1541 12.1701C93.9813 12.4935 93.7641 12.7473 93.4977 12.9327C93.2331 13.1163 92.9631 13.2381 92.6895 13.2975C92.3181 13.3713 91.7781 13.4091 91.0713 13.4091H90.0549V16.3227H88.4955ZM90.0549 9.9051V12.0963H90.9075C91.5225 12.0963 91.9341 12.0567 92.1411 11.9757C92.3481 11.8947 92.5095 11.7687 92.6289 11.5959C92.7459 11.4237 92.8047 11.2239 92.8047 10.9953C92.8047 10.7145 92.7225 10.4829 92.5569 10.2993C92.3931 10.1175 92.1825 10.0023 91.9305 9.9573C91.7439 9.9213 91.3695 9.9051 90.8085 9.9051H90.0549ZM96.5619 16.3227H95.0811V10.7271H96.4557V11.5227C96.6915 11.1465 96.9033 10.8981 97.0911 10.7793C97.2795 10.6611 97.4913 10.5993 97.7307 10.5993C98.0691 10.5993 98.3925 10.6935 98.7057 10.8807L98.2473 12.1701C97.9989 12.0093 97.7673 11.9289 97.5525 11.9289C97.3443 11.9289 97.1697 11.9847 97.0257 12.0999C96.8799 12.2127 96.7683 12.4197 96.6861 12.7185C96.6033 13.0167 96.5619 13.6431 96.5619 14.5947V16.3227ZM102.045 14.5425L103.522 14.7885C103.331 15.3303 103.033 15.7419 102.623 16.0245C102.215 16.3083 101.702 16.4487 101.087 16.4487C100.113 16.4487 99.3939 16.1325 98.9259 15.4959C98.5575 14.9865 98.3721 14.3427 98.3721 13.5675C98.3721 12.6393 98.6151 11.9127 99.1005 11.3877C99.5841 10.8627 100.198 10.5993 100.939 10.5993C101.772 10.5993 102.428 10.8747 102.911 11.4249C103.391 11.9757 103.621 12.8175 103.601 13.9527H99.8907C99.9009 14.3913 100.02 14.7327 100.248 14.9763C100.476 15.2205 100.763 15.3429 101.103 15.3429C101.335 15.3429 101.529 15.2799 101.687 15.1539C101.846 15.0261 101.966 14.8227 102.045 14.5425ZM102.13 13.0455C102.119 12.6159 102.009 12.2901 101.799 12.0675C101.588 11.8443 101.331 11.7327 101.029 11.7327C100.705 11.7327 100.439 11.8515 100.229 12.0873C100.018 12.3213 99.9141 12.6411 99.9171 13.0455H102.13ZM103.748 14.7255L105.234 14.4993C105.297 14.7867 105.424 15.0063 105.618 15.1557C105.811 15.3051 106.081 15.3807 106.43 15.3807C106.813 15.3807 107.101 15.3105 107.293 15.1683C107.424 15.0711 107.489 14.9379 107.489 14.7747C107.489 14.6613 107.453 14.5677 107.383 14.4939C107.309 14.4237 107.144 14.3589 106.888 14.2995C105.694 14.0367 104.937 13.7961 104.617 13.5783C104.174 13.2759 103.953 12.8553 103.953 12.3171C103.953 11.8335 104.144 11.4249 104.527 11.0961C104.91 10.7649 105.504 10.5993 106.308 10.5993C107.073 10.5993 107.644 10.7253 108.017 10.9737C108.389 11.2239 108.644 11.5923 108.784 12.0819L107.388 12.3387C107.329 12.1215 107.216 11.9541 107.049 11.8389C106.881 11.7219 106.644 11.6643 106.334 11.6643C105.944 11.6643 105.665 11.7183 105.497 11.8281C105.384 11.9055 105.329 12.0063 105.329 12.1281C105.329 12.2349 105.378 12.3225 105.476 12.3969C105.609 12.4953 106.07 12.6339 106.859 12.8139C107.648 12.9921 108.198 13.2117 108.511 13.4721C108.82 13.7367 108.975 14.1039 108.975 14.5725C108.975 15.0855 108.761 15.5277 108.331 15.8967C107.903 16.2657 107.27 16.4487 106.43 16.4487C105.668 16.4487 105.065 16.2939 104.619 15.9849C104.174 15.6777 103.885 15.2565 103.748 14.7255Z"
      fill="white" />
  </g>
</svg>