<svg width="78" height="24" viewBox="0 0 78 24" fill="none" xmlns="http://www.w3.org/2000/svg">
  <g opacity="0.3" clip-path="url(#clip0_2_2)">
    <path fill-rule="evenodd" clip-rule="evenodd"
      d="M5.988 24H7.785V14.4H5.988V24ZM12.5753 23.856H14.1847V17.799L20.9595 24V14.544H19.3545V20.4975L12.5753 14.4V23.856ZM24.6338 21.531C25.5098 22.2135 26.5612 22.608 27.6885 22.608C28.7865 22.608 29.5568 22.23 29.5568 21.3953C29.5568 20.6678 29.0655 20.3828 28.2052 20.064L26.8125 19.5802C25.5285 19.1242 24.552 18.4582 24.552 16.9275C24.552 15.2902 26.0303 14.4 27.798 14.4C28.881 14.4 29.868 14.6722 30.639 15.1545V16.7782C29.8372 16.1857 28.9598 15.7778 27.8325 15.7778C26.862 15.7778 26.1367 16.14 26.1367 16.8953C26.1367 17.5778 26.592 17.8507 27.3938 18.1252L28.9455 18.6698C30.4493 19.1985 31.1393 20.0183 31.1393 21.3668C31.1393 23.0633 29.6467 24 27.6885 24C26.4015 24 25.3073 23.64 24.6338 23.1855V21.531ZM35.3317 24H37.128V14.4H35.3317V24ZM45.555 22.5472C47.58 22.5472 48.6623 21.2483 48.6623 19.1978C48.6623 17.1323 47.5793 15.8378 45.555 15.8378H43.5525V22.5472H45.555ZM41.9175 14.4H45.615C48.4612 14.4 50.3018 16.275 50.3018 19.1978C50.3018 22.1228 48.4612 24 45.615 24H41.9175V14.4ZM59.2852 14.4V15.8378H54.9375V18.1478H58.8367V19.569H54.9368V22.5472H59.2852V24H53.2965V14.4H59.2852ZM65.6618 18.747H67.4445C68.4998 18.747 69.0945 18.168 69.0945 17.2778C69.0945 16.3875 68.4998 15.8077 67.4445 15.8077H65.6618V18.747ZM65.6618 20.1045V24H64.0755V14.4H67.4745C69.4125 14.4 70.6665 15.3982 70.6665 17.2778C70.6665 18.885 69.9705 19.8082 68.4877 20.0452L71.8605 24H70.056L66.7905 20.1052H65.6625L65.6618 20.1045ZM5.36025 4.9425C6.063 4.68525 6.6105 3.9135 6.6105 2.85225C6.6105 1.08375 5.36025 0.16725 3.36 0.16725H0V10.0395H3.672C5.67225 10.0395 6.9225 9.0585 6.9225 7.20975C6.9225 6.16425 6.26625 5.24775 5.36025 4.9425ZM1.578 4.3155V1.61475H3.345C4.455 1.61475 5.04825 2.01675 5.04825 2.949C5.04825 3.88125 4.45425 4.3155 3.345 4.3155H1.578ZM1.578 5.6985H3.6405C4.7355 5.6985 5.32875 6.2445 5.32875 7.14525C5.32875 8.0295 4.73475 8.59275 3.64125 8.59275H1.57875V5.69775L1.578 5.6985ZM14.2537 10.2C16.551 10.2 18.0983 8.817 18.0983 6.11625V0.16725H16.473V5.92275C16.473 7.82025 15.6915 8.70525 14.2537 8.70525C12.816 8.70525 12.0353 7.82025 12.0353 5.92275V0.16725H10.41V6.09975C10.41 8.817 11.9722 10.2 14.2537 10.2ZM21.9247 9.3315C22.5967 9.8145 23.691 10.2 24.972 10.2C26.9258 10.2 28.41 9.2025 28.41 7.4025C28.41 5.9715 27.723 5.103 26.2223 4.5405L24.6758 3.9615C23.8785 3.67275 23.4255 3.38325 23.4255 2.6595C23.4255 1.8555 24.144 1.47 25.113 1.47C26.238 1.47 27.1132 1.9035 27.9105 2.53125V0.81C27.1447 0.29625 26.16 0.00675 25.0815 0.00675C23.316 0.00675 21.8468 0.9555 21.8468 2.69175C21.8468 4.3155 22.8158 5.02275 24.0968 5.505L25.488 6.0195C26.3475 6.357 26.832 6.663 26.832 7.43475C26.832 8.319 26.0663 8.721 24.972 8.721C23.847 8.721 22.8 8.3025 21.9247 7.5795V9.3315ZM34.2173 0.16725H32.5928V10.0387H34.2173V0.16725ZM38.8538 10.0268H40.4198V3.6045L47.0107 10.1798V0.15225H45.4492V6.465L38.8538 0V10.0268ZM57.1665 0.1695V1.64775H52.947V4.02375H56.7308V5.4855H52.947V8.54775H57.1665V10.0417H51.354V0.1695H57.1665ZM60.9502 9.32475C61.6222 9.80775 62.7158 10.1932 63.9975 10.1932C65.9505 10.1932 67.4355 9.1965 67.4355 7.39575C67.4355 5.96475 66.7477 5.097 65.2477 4.53375L63.7005 3.9555C62.9033 3.666 62.4502 3.3765 62.4502 2.65275C62.4502 1.84875 63.1687 1.46325 64.1377 1.46325C65.2627 1.46325 66.138 1.8975 66.9352 2.5245V0.804C66.1695 0.2895 65.1847 0 64.1062 0C62.3407 0 60.8715 0.94875 60.8715 2.685C60.8715 4.30875 61.8405 5.016 63.1215 5.49825L64.5127 6.01275C65.3722 6.35025 65.8568 6.65625 65.8568 7.428C65.8568 8.31225 65.0917 8.71425 63.9967 8.71425C62.8717 8.71425 61.8247 8.2965 60.9502 7.57275V9.32475ZM70.7647 9.32475C71.4367 9.80775 72.531 10.1932 73.812 10.1932C75.7657 10.1932 77.25 9.1965 77.25 7.39575C77.25 5.96475 76.5622 5.097 75.0622 4.53375L73.515 3.9555C72.7185 3.666 72.2647 3.3765 72.2647 2.65275C72.2647 1.84875 72.984 1.46325 73.9522 1.46325C75.0772 1.46325 75.9532 1.8975 76.7497 2.5245V0.804C75.9847 0.2895 75 0 73.9215 0C72.1552 0 70.6868 0.94875 70.6868 2.685C70.6868 4.30875 71.6558 5.016 72.9368 5.49825L74.328 6.01275C75.1875 6.35025 75.672 6.65625 75.672 7.428C75.672 8.31225 74.9062 8.71425 73.812 8.71425C72.687 8.71425 71.64 8.2965 70.7647 7.57275V9.32475Z"
      fill="white" />
  </g>
  <defs>
    <clipPath id="clip0_2_2">
      <rect width="77.25" height="24" fill="white" />
    </clipPath>
  </defs>
</svg>