<svg width="32" height="33" viewBox="0 0 32 33" fill="none" xmlns="http://www.w3.org/2000/svg">
<circle cx="16" cy="16.791" r="16" fill="url(#paint0_linear_4533_25225)"/>
<path d="M21.3334 14.9192C21.3334 14.6834 21.2398 14.4573 21.0731 14.2906C20.9064 14.1239 20.6803 14.0303 20.4445 14.0303H10.1423L12.1867 11.9947C12.3541 11.8273 12.4482 11.6003 12.4482 11.3636C12.4482 11.1269 12.3541 10.8999 12.1867 10.7325C12.0194 10.5651 11.7923 10.4711 11.5556 10.4711C11.3189 10.4711 11.0919 10.5651 10.9245 10.7325L7.36896 14.288C7.24562 14.413 7.16207 14.5718 7.12884 14.7442C7.09562 14.9166 7.11422 15.0951 7.18229 15.2569C7.24898 15.4193 7.36222 15.5582 7.50775 15.6563C7.65328 15.7544 7.82458 15.8072 8.00007 15.808H20.4445C20.6803 15.808 20.9064 15.7144 21.0731 15.5477C21.2398 15.381 21.3334 15.1549 21.3334 14.9192ZM24.8178 18.1369C24.7512 17.9746 24.6379 17.8356 24.4924 17.7376C24.3469 17.6395 24.1756 17.5867 24.0001 17.5858H11.5556C11.3199 17.5858 11.0938 17.6795 10.9271 17.8462C10.7604 18.0129 10.6667 18.239 10.6667 18.4747C10.6667 18.7105 10.7604 18.9365 10.9271 19.1032C11.0938 19.2699 11.3199 19.3636 11.5556 19.3636H21.8578L19.8134 21.3992C19.7301 21.4818 19.664 21.5801 19.6188 21.6884C19.5737 21.7967 19.5505 21.9129 19.5505 22.0303C19.5505 22.1476 19.5737 22.2638 19.6188 22.3721C19.664 22.4804 19.7301 22.5787 19.8134 22.6614C19.896 22.7447 19.9943 22.8108 20.1027 22.8559C20.211 22.9011 20.3272 22.9243 20.4445 22.9243C20.5619 22.9243 20.678 22.9011 20.7864 22.8559C20.8947 22.8108 20.993 22.7447 21.0756 22.6614L24.6312 19.1058C24.7545 18.9808 24.8381 18.8221 24.8713 18.6497C24.9045 18.4772 24.8859 18.2988 24.8178 18.1369Z" fill="white"/>
<defs>
<linearGradient id="paint0_linear_4533_25225" x1="16" y1="0.791016" x2="16" y2="32.791" gradientUnits="userSpaceOnUse">
<stop stop-color="#DA567E"/>
<stop offset="1" stop-color="#DA567E" stop-opacity="0.7"/>
</linearGradient>
</defs>
</svg>
