<svg width="40" height="40" viewBox="0 0 40 40" fill="none" xmlns="http://www.w3.org/2000/svg">
<rect width="40" height="40" rx="20" fill="#E1527D"/>
<path d="M22.9081 27.3C22.7497 27.3 22.5914 27.2417 22.4664 27.1167C22.2247 26.875 22.2247 26.475 22.4664 26.2333L26.6414 22.0583C26.8831 21.8167 27.2831 21.8167 27.5247 22.0583C27.7664 22.3 27.7664 22.7 27.5247 22.9417L23.3497 27.1167C23.2247 27.2333 23.0664 27.3 22.9081 27.3Z" fill="white"/>
<path d="M27.0837 23.1167H12.917C12.5753 23.1167 12.292 22.8334 12.292 22.4917C12.292 22.15 12.5753 21.8667 12.917 21.8667H27.0837C27.4253 21.8667 27.7087 22.15 27.7087 22.4917C27.7087 22.8334 27.4253 23.1167 27.0837 23.1167Z" fill="white"/>
<path d="M12.9169 18.1334C12.7585 18.1334 12.6002 18.075 12.4752 17.95C12.2335 17.7084 12.2335 17.3084 12.4752 17.0667L16.6502 12.8917C16.8919 12.65 17.2919 12.65 17.5335 12.8917C17.7752 13.1334 17.7752 13.5334 17.5335 13.775L13.3585 17.95C13.2419 18.0667 13.0752 18.1334 12.9169 18.1334Z" fill="white"/>
<path d="M27.0837 18.1333H12.917C12.5753 18.1333 12.292 17.85 12.292 17.5083C12.292 17.1666 12.5753 16.8833 12.917 16.8833H27.0837C27.4253 16.8833 27.7087 17.1666 27.7087 17.5083C27.7087 17.85 27.4253 18.1333 27.0837 18.1333Z" fill="white"/>
</svg>
