<svg width="78" height="25" viewBox="0 0 78 25" fill="none" xmlns="http://www.w3.org/2000/svg">
<g clip-path="url(#clip0_4491_44632)">
<path fill-rule="evenodd" clip-rule="evenodd" d="M6.21896 24.291H8.01596V14.691H6.21896V24.291ZM12.8062 24.147H14.4157V18.09L21.1905 24.291V14.835H19.5855V20.7885L12.8062 14.691V24.147ZM24.8647 21.822C25.7407 22.5045 26.7922 22.899 27.9195 22.899C29.0175 22.899 29.7877 22.521 29.7877 21.6863C29.7877 20.9588 29.2965 20.6738 28.4362 20.355L27.0435 19.8713C25.7595 19.4153 24.783 18.7493 24.783 17.2185C24.783 15.5813 26.2612 14.691 28.029 14.691C29.112 14.691 30.099 14.9633 30.87 15.4455V17.0693C30.0682 16.4768 29.1907 16.0688 28.0635 16.0688C27.093 16.0688 26.3677 16.431 26.3677 17.1863C26.3677 17.8688 26.823 18.1418 27.6247 18.4163L29.1765 18.9608C30.6802 19.4895 31.3702 20.3093 31.3702 21.6578C31.3702 23.3543 29.8777 24.291 27.9195 24.291C26.6325 24.291 25.5382 23.931 24.8647 23.4765V21.822ZM35.5627 24.291H37.359V14.691H35.5627V24.291ZM45.786 22.8383C47.811 22.8383 48.8932 21.5393 48.8932 19.4888C48.8932 17.4233 47.8102 16.1288 45.786 16.1288H43.7835V22.8383H45.786ZM42.1485 14.691H45.846C48.6922 14.691 50.5327 16.566 50.5327 19.4888C50.5327 22.4138 48.6922 24.291 45.846 24.291H42.1485V14.691ZM59.5162 14.691V16.1288H55.1685V18.4388H59.0677V19.86H55.1677V22.8383H59.5162V24.291H53.5275V14.691H59.5162ZM65.8927 19.038H67.6755C68.7307 19.038 69.3255 18.459 69.3255 17.5688C69.3255 16.6785 68.7307 16.0988 67.6755 16.0988H65.8927V19.038ZM65.8927 20.3955V24.291H64.3065V14.691H67.7055C69.6435 14.691 70.8975 15.6893 70.8975 17.5688C70.8975 19.176 70.2015 20.0993 68.7187 20.3363L72.0915 24.291H70.287L67.0215 20.3963H65.8935L65.8927 20.3955ZM5.59121 5.23352C6.29396 4.97627 6.84146 4.20452 6.84146 3.14327C6.84146 1.37477 5.59121 0.458266 3.59096 0.458266H0.230957V10.3305H3.90296C5.90321 10.3305 7.15346 9.34952 7.15346 7.50077C7.15346 6.45527 6.49721 5.53877 5.59121 5.23352ZM1.80896 4.60652V1.90577H3.57596C4.68596 1.90577 5.27921 2.30777 5.27921 3.24002C5.27921 4.17227 4.68521 4.60652 3.57596 4.60652H1.80896ZM1.80896 5.98952H3.87146C4.96646 5.98952 5.55971 6.53552 5.55971 7.43627C5.55971 8.32052 4.96571 8.88377 3.87221 8.88377H1.80971V5.98877L1.80896 5.98952ZM14.4847 10.491C16.782 10.491 18.3292 9.10802 18.3292 6.40727V0.458266H16.704V6.21377C16.704 8.11127 15.9225 8.99627 14.4847 8.99627C13.047 8.99627 12.2662 8.11127 12.2662 6.21377V0.458266H10.641V6.39077C10.641 9.10802 12.2032 10.491 14.4847 10.491ZM22.1557 9.62252C22.8277 10.1055 23.922 10.491 25.203 10.491C27.1567 10.491 28.641 9.49352 28.641 7.69352C28.641 6.26252 27.954 5.39402 26.4532 4.83152L24.9067 4.25252C24.1095 3.96377 23.6565 3.67427 23.6565 2.95052C23.6565 2.14652 24.375 1.76102 25.344 1.76102C26.469 1.76102 27.3442 2.19452 28.1415 2.82227V1.10102C27.3757 0.587266 26.391 0.297766 25.3125 0.297766C23.547 0.297766 22.0777 1.24652 22.0777 2.98277C22.0777 4.60652 23.0467 5.31377 24.3277 5.79602L25.719 6.31052C26.5785 6.64802 27.063 6.95402 27.063 7.72577C27.063 8.61002 26.2972 9.01202 25.203 9.01202C24.078 9.01202 23.031 8.59352 22.1557 7.87052V9.62252ZM34.4482 0.458266H32.8237V10.3298H34.4482V0.458266ZM39.0847 10.3178H40.6507V3.89552L47.2417 10.4708V0.443266H45.6802V6.75602L39.0847 0.291016V10.3178ZM57.3975 0.460516V1.93877H53.178V4.31477H56.9617V5.77652H53.178V8.83877H57.3975V10.3328H51.585V0.460516H57.3975ZM61.1812 9.61577C61.8532 10.0988 62.9467 10.4843 64.2285 10.4843C66.1815 10.4843 67.6665 9.48752 67.6665 7.68677C67.6665 6.25577 66.9787 5.38802 65.4787 4.82477L63.9315 4.24652C63.1342 3.95702 62.6812 3.66752 62.6812 2.94377C62.6812 2.13977 63.3997 1.75427 64.3687 1.75427C65.4937 1.75427 66.369 2.18852 67.1662 2.81552V1.09502C66.4005 0.580516 65.4157 0.291016 64.3372 0.291016C62.5717 0.291016 61.1025 1.23977 61.1025 2.97602C61.1025 4.59977 62.0715 5.30702 63.3525 5.78927L64.7437 6.30377C65.6032 6.64127 66.0877 6.94727 66.0877 7.71902C66.0877 8.60327 65.3227 9.00527 64.2277 9.00527C63.1027 9.00527 62.0557 8.58752 61.1812 7.86377V9.61577ZM70.9957 9.61577C71.6677 10.0988 72.762 10.4843 74.043 10.4843C75.9967 10.4843 77.481 9.48752 77.481 7.68677C77.481 6.25577 76.7932 5.38802 75.2932 4.82477L73.746 4.24652C72.9495 3.95702 72.4957 3.66752 72.4957 2.94377C72.4957 2.13977 73.215 1.75427 74.1832 1.75427C75.3082 1.75427 76.1842 2.18852 76.9807 2.81552V1.09502C76.2157 0.580516 75.231 0.291016 74.1525 0.291016C72.3862 0.291016 70.9177 1.23977 70.9177 2.97602C70.9177 4.59977 71.8867 5.30702 73.1677 5.78927L74.559 6.30377C75.4185 6.64127 75.903 6.94727 75.903 7.71902C75.903 8.60327 75.1372 9.00527 74.043 9.00527C72.918 9.00527 71.871 8.58752 70.9957 7.86377V9.61577Z" fill="#888CA0"/>
</g>
<defs>
<clipPath id="clip0_4491_44632">
<rect width="77.25" height="24" fill="white" transform="translate(0.230957 0.291016)"/>
</clipPath>
</defs>
</svg>
