<svg width="78" height="24" viewBox="0 0 78 24" fill="none" xmlns="http://www.w3.org/2000/svg">
<path fill-rule="evenodd" clip-rule="evenodd" d="M6.55245 24H8.34945V14.4H6.55245V24ZM13.1397 23.856H14.7492V17.799L21.524 24V14.544H19.919V20.4975L13.1397 14.4V23.856ZM25.1982 21.531C26.0742 22.2135 27.1257 22.608 28.253 22.608C29.351 22.608 30.1212 22.23 30.1212 21.3953C30.1212 20.6677 29.63 20.3828 28.7697 20.064L27.377 19.5802C26.093 19.1243 25.1165 18.4583 25.1165 16.9275C25.1165 15.2902 26.5947 14.4 28.3625 14.4C29.4455 14.4 30.4325 14.6722 31.2035 15.1545V16.7782C30.4017 16.1858 29.5242 15.7778 28.397 15.7778C27.4265 15.7778 26.7012 16.14 26.7012 16.8953C26.7012 17.5778 27.1565 17.8507 27.9582 18.1252L29.51 18.6698C31.0137 19.1985 31.7037 20.0182 31.7037 21.3668C31.7037 23.0632 30.2112 24 28.253 24C26.966 24 25.8717 23.64 25.1982 23.1855V21.531ZM35.8962 24H37.6925V14.4H35.8962V24ZM46.1195 22.5472C48.1445 22.5472 49.2267 21.2483 49.2267 19.1978C49.2267 17.1322 48.1437 15.8378 46.1195 15.8378H44.117V22.5472H46.1195ZM42.482 14.4H46.1795C49.0257 14.4 50.8662 16.275 50.8662 19.1978C50.8662 22.1227 49.0257 24 46.1795 24H42.482V14.4ZM59.8497 14.4V15.8378H55.502V18.1478H59.4012V19.569H55.5012V22.5472H59.8497V24H53.861V14.4H59.8497ZM66.2262 18.747H68.009C69.0642 18.747 69.659 18.168 69.659 17.2778C69.659 16.3875 69.0642 15.8077 68.009 15.8077H66.2262V18.747ZM66.2262 20.1045V24H64.64V14.4H68.039C69.977 14.4 71.231 15.3983 71.231 17.2778C71.231 18.885 70.535 19.8082 69.0522 20.0452L72.425 24H70.6205L67.3549 20.1052H66.227L66.2262 20.1045ZM5.9247 4.9425C6.62745 4.68525 7.17495 3.9135 7.17495 2.85225C7.17495 1.08375 5.9247 0.16725 3.92445 0.16725H0.564453V10.0395H4.23645C6.2367 10.0395 7.48695 9.0585 7.48695 7.20975C7.48695 6.16425 6.8307 5.24775 5.9247 4.9425ZM2.14245 4.3155V1.61475H3.90945C5.01945 1.61475 5.6127 2.01675 5.6127 2.949C5.6127 3.88125 5.0187 4.3155 3.90945 4.3155H2.14245ZM2.14245 5.6985H4.20495C5.29995 5.6985 5.8932 6.2445 5.8932 7.14525C5.8932 8.0295 5.2992 8.59275 4.2057 8.59275H2.1432V5.69775L2.14245 5.6985ZM14.8182 10.2C17.1155 10.2 18.6627 8.817 18.6627 6.11625V0.16725H17.0375V5.92275C17.0375 7.82025 16.256 8.70525 14.8182 8.70525C13.3805 8.70525 12.5997 7.82025 12.5997 5.92275V0.16725H10.9745V6.09975C10.9745 8.817 12.5367 10.2 14.8182 10.2ZM22.4892 9.3315C23.1612 9.8145 24.2555 10.2 25.5365 10.2C27.4902 10.2 28.9745 9.2025 28.9745 7.4025C28.9745 5.9715 28.2875 5.103 26.7867 4.5405L25.2402 3.9615C24.443 3.67275 23.99 3.38325 23.99 2.6595C23.99 1.8555 24.7085 1.47 25.6775 1.47C26.8025 1.47 27.6777 1.9035 28.475 2.53125V0.81C27.7092 0.29625 26.7245 0.00675 25.646 0.00675C23.8805 0.00675 22.4112 0.9555 22.4112 2.69175C22.4112 4.3155 23.3802 5.02275 24.6612 5.505L26.0525 6.0195C26.912 6.357 27.3965 6.663 27.3965 7.43475C27.3965 8.319 26.6307 8.721 25.5365 8.721C24.4115 8.721 23.3645 8.3025 22.4892 7.5795V9.3315ZM34.7817 0.16725H33.1572V10.0387H34.7817V0.16725ZM39.4182 10.0268H40.9842V3.6045L47.5752 10.1798V0.15225H46.0137V6.465L39.4182 0V10.0268ZM57.731 0.1695V1.64775H53.5115V4.02375H57.2952V5.4855H53.5115V8.54775H57.731V10.0417H51.9185V0.1695H57.731ZM61.5147 9.32475C62.1867 9.80775 63.2802 10.1932 64.562 10.1932C66.515 10.1932 68 9.1965 68 7.39575C68 5.96475 67.3122 5.097 65.8122 4.53375L64.265 3.9555C63.4677 3.666 63.0147 3.3765 63.0147 2.65275C63.0147 1.84875 63.7332 1.46325 64.7022 1.46325C65.8272 1.46325 66.7025 1.8975 67.4997 2.5245V0.804C66.734 0.2895 65.7492 0 64.6707 0C62.9052 0 61.436 0.94875 61.436 2.685C61.436 4.30875 62.405 5.016 63.686 5.49825L65.0772 6.01275C65.9367 6.35025 66.4212 6.65625 66.4212 7.428C66.4212 8.31225 65.6562 8.71425 64.5612 8.71425C63.4362 8.71425 62.3892 8.2965 61.5147 7.57275V9.32475ZM71.3292 9.32475C72.0012 9.80775 73.0955 10.1932 74.3764 10.1932C76.3302 10.1932 77.8145 9.1965 77.8145 7.39575C77.8145 5.96475 77.1267 5.097 75.6267 4.53375L74.0795 3.9555C73.283 3.666 72.8292 3.3765 72.8292 2.65275C72.8292 1.84875 73.5485 1.46325 74.5167 1.46325C75.6417 1.46325 76.5177 1.8975 77.3142 2.5245V0.804C76.5492 0.2895 75.5645 0 74.4859 0C72.7197 0 71.2512 0.94875 71.2512 2.685C71.2512 4.30875 72.2202 5.016 73.5012 5.49825L74.8924 6.01275C75.752 6.35025 76.2365 6.65625 76.2365 7.428C76.2365 8.31225 75.4707 8.71425 74.3764 8.71425C73.2514 8.71425 72.2045 8.2965 71.3292 7.57275V9.32475Z" fill="white"/>
</svg>
