<svg width="127" height="24" viewBox="0 0 127 24" fill="none" xmlns="http://www.w3.org/2000/svg">
<g clip-path="url(#clip0_3121_83813)">
<path d="M35.7262 16.9748C33.3892 16.9748 31.941 14.8773 31.941 11.9754C31.941 9.10214 33.1598 6.96156 35.7118 6.96156C37.3892 6.96156 38.4932 8.03904 38.6942 9.46128H42.594C42.3931 7.69424 41.6046 6.14272 40.2283 5.10835C39.1099 4.24636 37.5614 3.71484 35.7262 3.71484C31.0234 3.71484 27.9695 7.27763 27.9695 11.9754C27.9695 16.7018 31.1238 20.1641 35.755 20.1641C37.9771 20.1641 39.5972 19.5463 40.8017 18.3683C41.8769 17.3339 42.594 15.8973 42.6942 14.3314H38.7943C38.6225 15.8686 37.4753 16.9748 35.7262 16.9748Z" fill="white"/>
<path d="M49.8919 8.21191C46.2788 8.21191 43.8557 10.7978 43.8557 14.2026C43.8557 17.6074 46.2788 20.1933 49.8919 20.1933C53.5335 20.1933 55.9136 17.6074 55.9136 14.2026C55.9136 10.7978 53.5335 8.21191 49.8919 8.21191ZM49.8775 17.6217C48.3146 17.6217 47.4973 16.257 47.4973 14.2026C47.4973 12.1482 48.3146 10.7547 49.8775 10.7547C51.4404 10.7547 52.2861 12.1482 52.2861 14.2026C52.272 16.257 51.4404 17.6217 49.8775 17.6217Z" fill="white"/>
<path d="M61.0151 7.00923C61.7821 6.24062 61.7821 4.99448 61.0151 4.22587C60.2477 3.45726 59.0042 3.45726 58.2371 4.22587C57.4701 4.99448 57.4701 6.24062 58.2371 7.00923C59.0042 7.77784 60.2477 7.77784 61.0151 7.00923Z" fill="white"/>
<path d="M56.5015 11.0565H58.0067V19.8342H61.5914V8.51367H56.5015V11.0565Z" fill="white"/>
<path d="M70.4091 8.18262C68.8465 8.18262 67.7566 8.84345 66.9252 10.0646H66.8536V8.51305H63.3982V19.8192H66.9969V13.5699C66.9969 12.1764 67.7854 11.1851 68.9755 11.1851C70.1512 11.1851 70.739 12.004 70.739 13.1964V19.8192H74.3377V12.4637C74.3377 9.94966 72.8753 8.18262 70.4091 8.18262Z" fill="white"/>
<path d="M82.7681 4.03125H76.0439V19.8197H82.5246C84.5032 19.8197 86.0945 19.3168 87.3278 18.383C89.0913 17.0326 90.066 14.8059 90.066 12.0188C90.066 7.19179 87.1268 4.03125 82.7681 4.03125ZM82.2379 16.5442H79.9438V7.30674H82.2808C84.7326 7.30674 86.1233 9.15995 86.1233 12.0332C86.1089 14.9208 84.7899 16.5442 82.2379 16.5442Z" fill="white"/>
<path d="M100.719 9.67643C99.7441 8.80011 98.468 8.26855 96.8622 8.26855C93.4209 8.26855 91.0696 10.8544 91.0696 14.2305C91.0696 17.6496 93.3637 20.2356 97.0917 20.2356C98.5253 20.2356 99.6721 19.862 100.619 19.2012C101.608 18.5116 102.267 17.5491 102.511 16.5291H99.0126C98.6974 17.233 98.0808 17.6496 97.1345 17.6496C95.6577 17.6496 94.8261 16.7015 94.5966 15.1787H102.712C102.726 12.8657 102.067 10.9119 100.719 9.67643ZM94.611 13.0238C94.8549 11.6733 95.5573 10.8114 96.9195 10.8114C98.0808 10.8114 98.9269 11.6733 99.0558 13.0238H94.611Z" fill="white"/>
<path d="M109.795 12.7515C108.361 12.4929 107.085 12.378 107.085 11.5878C107.085 10.8839 107.773 10.5534 108.647 10.5534C109.637 10.5534 110.325 10.8695 110.454 11.8751H113.766C113.594 9.64839 111.874 8.25488 108.676 8.25488C106.009 8.25488 103.801 9.49037 103.801 11.8751C103.801 14.5329 105.895 15.0501 107.859 15.3805C109.364 15.6391 110.726 15.754 110.726 16.774C110.726 17.5067 110.038 17.8946 108.963 17.8946C107.773 17.8946 107.027 17.3486 106.884 16.2137H103.486C103.601 18.7134 105.665 20.2362 108.977 20.2362C111.931 20.2362 114.11 18.9577 114.11 16.4867C114.124 13.5991 111.788 13.0819 109.795 12.7515Z" fill="white"/>
<path d="M122.57 12.7659L126.541 8.51349H122.397L119.043 12.3349V4.03125H115.501V19.834H119.043V16.3574L120.132 15.2081L122.842 19.834H127L122.57 12.7659Z" fill="white"/>
<path d="M12.1693 13.0245C12.7711 13.0245 13.2589 12.5356 13.2589 11.9326C13.2589 11.3296 12.7711 10.8408 12.1693 10.8408C11.5675 10.8408 11.0796 11.3296 11.0796 11.9326C11.0796 12.5356 11.5675 13.0245 12.1693 13.0245Z" fill="white"/>
<path d="M20.8582 13.0245C21.46 13.0245 21.9479 12.5356 21.9479 11.9326C21.9479 11.3296 21.46 10.8408 20.8582 10.8408C20.2564 10.8408 19.7686 11.3296 19.7686 11.9326C19.7686 12.5356 20.2564 13.0245 20.8582 13.0245Z" fill="white"/>
<path d="M20.8582 21.7442C21.46 21.7442 21.9479 21.2554 21.9479 20.6524C21.9479 20.0494 21.46 19.5605 20.8582 19.5605C20.2564 19.5605 19.7686 20.0494 19.7686 20.6524C19.7686 21.2554 20.2564 21.7442 20.8582 21.7442Z" fill="white"/>
<path d="M24.0553 3.01103C23.9406 1.41639 22.6646 0.123438 21.0731 0.00850894C20.0551 -0.0633219 19.1375 0.324563 18.4923 0.985408C18.0048 1.48822 17.3453 1.78991 16.6427 1.78991H16.3846C15.6678 1.78991 14.9939 1.48822 14.4921 0.97104C13.9042 0.367661 13.087 0.00850894 12.1837 0.00850894C11.2804 0.00850894 10.4632 0.382029 9.87533 0.97104C9.3735 1.48822 8.69965 1.78991 7.98275 1.78991H7.73901C7.03648 1.78991 6.36259 1.51695 5.8751 1.01414C5.77475 0.913578 5.67437 0.813015 5.57401 0.726816C4.35533 -0.264448 2.5631 -0.235716 1.38741 0.813014C-0.0320248 2.06287 -0.0893754 4.24653 1.22969 5.56819C1.24403 5.58256 1.25837 5.59693 1.27271 5.6113C1.78886 6.09974 2.06128 6.78934 2.06128 7.49328V7.7375C2.06128 8.45581 1.76019 9.13101 1.24403 9.63382C0.641847 10.2228 0.283405 11.0417 0.283405 11.9468C0.283405 12.8518 0.656186 13.6707 1.24403 14.2597C1.76019 14.7626 2.06128 15.4378 2.06128 16.1561V16.4865C2.06128 17.1904 1.76019 17.8513 1.25837 18.3397C0.627511 18.9575 0.240392 19.8338 0.283405 20.7963C0.355094 22.4915 1.73151 23.8563 3.40902 23.9138C4.384 23.9425 5.25859 23.5546 5.8751 22.9082C6.36259 22.4053 7.02211 22.0893 7.72467 22.0893H7.99709C8.69965 22.0893 9.35917 22.391 9.84665 22.9082C10.4918 23.5834 11.4238 23.9712 12.4418 23.8994C14.0332 23.7845 15.3236 22.4915 15.4384 20.8825C15.5674 18.9718 14.0763 17.3916 12.198 17.3916C11.3091 17.3916 10.4918 17.7507 9.904 18.3397C9.40217 18.8425 8.72832 19.1442 8.02576 19.1442H7.72467C7.02211 19.1442 6.33392 18.8713 5.83209 18.3541C5.81776 18.3397 5.81776 18.3397 5.80342 18.3253C5.28726 17.8225 4.98617 17.1473 4.98617 16.429V16.1417C4.98617 15.4234 5.28726 14.7482 5.80342 14.2454C6.4056 13.6564 6.76406 12.8375 6.76406 11.9324C6.76406 11.0274 6.39126 10.2085 5.80342 9.61946C5.28726 9.11664 4.98617 8.44144 4.98617 7.72314V7.46454C4.98617 6.74624 5.28726 6.07101 5.78908 5.56819C5.80342 5.55386 5.80342 5.55386 5.81776 5.53949C5.83209 5.52512 5.83209 5.52512 5.84643 5.51075C6.34825 5.00794 7.02211 4.70624 7.73901 4.70624H7.99709C8.71398 4.70624 9.38784 5.00794 9.88966 5.52512C10.4775 6.12848 11.2947 6.48765 12.198 6.48765C13.1013 6.48765 13.9186 6.11411 14.5064 5.52512C15.0082 5.00794 15.6821 4.70624 16.399 4.70624H16.6284C17.3453 4.70624 18.0191 5.00794 18.521 5.52512C19.1088 6.12848 19.926 6.48765 20.8293 6.48765C22.6932 6.50202 24.1843 4.92173 24.0553 3.01103Z" fill="white"/>
</g>
<defs>
<clipPath id="clip0_3121_83813">
<rect width="126.72" height="24" fill="white" transform="translate(0.280029)"/>
</clipPath>
</defs>
</svg>
