<svg width="169" height="32" viewBox="0 0 169 32" fill="none" xmlns="http://www.w3.org/2000/svg">
<g clip-path="url(#clip0_3229_28484)">
<path d="M47.3013 22.6335C44.1853 22.6335 42.2544 19.8369 42.2544 15.9676C42.2544 12.1367 43.8794 9.28257 47.2821 9.28257C49.5186 9.28257 50.9906 10.7192 51.2586 12.6155H56.4584C56.1904 10.2595 55.1391 8.19078 53.304 6.81162C51.8128 5.66231 49.7482 4.95361 47.3013 4.95361C41.0309 4.95361 36.959 9.70399 36.959 15.9676C36.959 22.2696 41.1647 26.8859 47.3397 26.8859C50.3024 26.8859 52.4626 26.0623 54.0686 24.4915C55.5022 23.1124 56.4584 21.1969 56.5919 19.109H51.3921C51.163 21.1586 49.6334 22.6335 47.3013 22.6335Z" fill="#888CA0"/>
<path d="M66.1888 10.9487C61.3713 10.9487 58.1406 14.3966 58.1406 18.9363C58.1406 23.476 61.3713 26.9239 66.1888 26.9239C71.0443 26.9239 74.2179 23.476 74.2179 18.9363C74.2179 14.3966 71.0443 10.9487 66.1888 10.9487ZM66.1696 23.4952C64.0858 23.4952 62.9961 21.6755 62.9961 18.9363C62.9961 16.1972 64.0858 14.3392 66.1696 14.3392C68.2535 14.3392 69.3812 16.1972 69.3812 18.9363C69.3624 21.6755 68.2535 23.4952 66.1696 23.4952Z" fill="#888CA0"/>
<path d="M81.0198 9.34548C82.0425 8.32067 82.0425 6.65914 81.0198 5.63433C79.9966 4.60952 78.3386 4.60952 77.3159 5.63433C76.2931 6.65914 76.2931 8.32067 77.3159 9.34548C78.3386 10.3703 79.9966 10.3703 81.0198 9.34548Z" fill="#888CA0"/>
<path d="M75.0016 14.7415H77.0086V26.4451H81.7881V11.3511H75.0016V14.7415Z" fill="#888CA0"/>
<path d="M93.5451 10.9106C91.4617 10.9106 90.0085 11.7918 88.9 13.4199H88.8044V11.3512H84.1973V26.4261H88.9956V18.0937C88.9956 16.2357 90.0469 14.914 91.6336 14.914C93.2012 14.914 93.985 16.0058 93.985 17.5957V26.4261H98.7833V16.6188C98.7833 13.2667 96.8334 10.9106 93.5451 10.9106Z" fill="#888CA0"/>
<path d="M110.024 5.37451H101.058V26.4257H109.699C112.337 26.4257 114.459 25.7553 116.103 24.5102C118.455 22.7097 119.754 19.7407 119.754 16.0246C119.754 9.58857 115.835 5.37451 110.024 5.37451ZM109.317 22.0584H106.258V9.74183H109.374C112.643 9.74183 114.497 12.2128 114.497 16.0438C114.478 19.8939 112.719 22.0584 109.317 22.0584Z" fill="#888CA0"/>
<path d="M133.958 12.9026C132.658 11.7341 130.957 11.0254 128.816 11.0254C124.228 11.0254 121.092 14.4732 121.092 18.9747C121.092 23.5335 124.151 26.9814 129.122 26.9814C131.033 26.9814 132.562 26.4834 133.825 25.6022C135.143 24.6828 136.023 23.3994 136.348 22.0394H131.683C131.263 22.978 130.441 23.5335 129.179 23.5335C127.21 23.5335 126.101 22.2693 125.795 20.2389H136.615C136.635 17.1549 135.755 14.5499 133.958 12.9026ZM125.814 17.3657C126.139 15.5651 127.076 14.4158 128.892 14.4158C130.441 14.4158 131.569 15.5651 131.741 17.3657H125.814Z" fill="#888CA0"/>
<path d="M146.059 17.0018C144.147 16.657 142.446 16.5038 142.446 15.4503C142.446 14.5117 143.363 14.0711 144.53 14.0711C145.849 14.0711 146.767 14.4925 146.938 15.8334H151.354C151.125 12.8644 148.831 11.0063 144.568 11.0063C141.012 11.0063 138.068 12.6537 138.068 15.8334C138.068 19.377 140.859 20.0666 143.478 20.5071C145.486 20.8519 147.302 21.0052 147.302 22.3652C147.302 23.342 146.384 23.8593 144.95 23.8593C143.363 23.8593 142.369 23.1314 142.178 21.6181H137.648C137.801 24.9511 140.553 26.9815 144.969 26.9815C148.908 26.9815 151.813 25.2767 151.813 21.9821C151.832 18.1319 148.716 17.4424 146.059 17.0018Z" fill="#888CA0"/>
<path d="M163.093 17.0207L168.388 11.3508H162.863L158.39 16.446V5.37451H153.668V26.4448H158.39V21.8094L159.843 20.277L163.456 26.4448H169L163.093 17.0207Z" fill="#888CA0"/>
<path d="M15.892 17.3656C16.6944 17.3656 17.3449 16.7139 17.3449 15.9098C17.3449 15.1058 16.6944 14.4541 15.892 14.4541C15.0896 14.4541 14.4391 15.1058 14.4391 15.9098C14.4391 16.7139 15.0896 17.3656 15.892 17.3656Z" fill="#888CA0"/>
<path d="M27.4773 17.3656C28.2797 17.3656 28.9302 16.7139 28.9302 15.9098C28.9302 15.1058 28.2797 14.4541 27.4773 14.4541C26.6749 14.4541 26.0244 15.1058 26.0244 15.9098C26.0244 16.7139 26.6749 17.3656 27.4773 17.3656Z" fill="#888CA0"/>
<path d="M27.4773 28.9926C28.2797 28.9926 28.9302 28.3408 28.9302 27.5368C28.9302 26.7328 28.2797 26.0811 27.4773 26.0811C26.6749 26.0811 26.0244 26.7328 26.0244 27.5368C26.0244 28.3408 26.6749 28.9926 27.4773 28.9926Z" fill="#888CA0"/>
<path d="M31.7401 4.01471C31.5872 1.88852 29.8858 0.164584 27.7638 0.0113453C26.4065 -0.0844292 25.183 0.432751 24.3227 1.31388C23.6728 1.98429 22.7934 2.38655 21.8566 2.38655H21.5125C20.5567 2.38655 19.6582 1.98429 18.9891 1.29472C18.2053 0.490214 17.1157 0.0113453 15.9113 0.0113453C14.7069 0.0113453 13.6172 0.509372 12.8335 1.29472C12.1644 1.98429 11.2659 2.38655 10.31 2.38655H9.98503C9.04833 2.38655 8.14981 2.0226 7.49983 1.35219C7.36603 1.2181 7.23218 1.08402 7.09838 0.969088C5.47346 -0.352597 3.08383 -0.314288 1.51624 1.08402C-0.376338 2.75049 -0.452806 5.66204 1.30595 7.42426C1.32507 7.44341 1.34419 7.46257 1.3633 7.48173C2.05151 8.13299 2.41474 9.05246 2.41474 9.99104V10.3167C2.41474 11.2744 2.01328 12.1747 1.32507 12.8451C0.522157 13.6305 0.044235 14.7223 0.044235 15.929C0.044235 17.1358 0.541276 18.2276 1.32507 19.013C2.01328 19.6834 2.41474 20.5837 2.41474 21.5414V21.982C2.41474 22.9206 2.01328 23.8017 1.34419 24.4529C0.503043 25.2766 -0.0131156 26.4451 0.044235 27.7284C0.13982 29.9887 1.97504 31.8084 4.21173 31.8851C5.51169 31.9234 6.67781 31.4062 7.49983 30.5442C8.14981 29.8738 9.02917 29.4524 9.96592 29.4524H10.3291C11.2659 29.4524 12.1452 29.8546 12.7952 30.5442C13.6555 31.4445 14.8981 31.9616 16.2554 31.8659C18.3774 31.7126 20.0979 29.9887 20.2508 27.8434C20.4229 25.2958 18.4347 23.1887 15.9304 23.1887C14.7451 23.1887 13.6555 23.6676 12.8717 24.4529C12.2026 25.1234 11.3041 25.5256 10.3674 25.5256H9.96592C9.02917 25.5256 8.11158 25.1617 7.44249 24.4721C7.42337 24.4529 7.42337 24.4529 7.40426 24.4338C6.71604 23.7634 6.31459 22.8631 6.31459 21.9054V21.5223C6.31459 20.5645 6.71604 19.6643 7.40426 18.9938C8.20716 18.2085 8.68511 17.1166 8.68511 15.9099C8.68511 14.7031 8.18804 13.6113 7.40426 12.8259C6.71604 12.1555 6.31459 11.2553 6.31459 10.2975V9.95273C6.31459 8.99499 6.71604 8.09468 7.38514 7.42426C7.40426 7.40514 7.40426 7.40514 7.42337 7.38598C7.44249 7.36683 7.44249 7.36683 7.4616 7.34767C8.1307 6.67725 9.02917 6.27499 9.98503 6.27499H10.3291C11.285 6.27499 12.1835 6.67725 12.8526 7.36683C13.6364 8.17131 14.726 8.6502 15.9304 8.6502C17.1348 8.6502 18.2244 8.15215 19.0082 7.36683C19.6773 6.67725 20.5758 6.27499 21.5317 6.27499H21.8375C22.7934 6.27499 23.6919 6.67725 24.361 7.36683C25.1448 8.17131 26.2344 8.6502 27.4388 8.6502C29.924 8.66935 31.9122 6.5623 31.7401 4.01471Z" fill="#888CA0"/>
</g>
<defs>
<clipPath id="clip0_3229_28484">
<rect width="168.96" height="32" fill="white" transform="translate(0.0400391)"/>
</clipPath>
</defs>
</svg>
