<svg width="92" height="24" viewBox="0 0 92 24" fill="none" xmlns="http://www.w3.org/2000/svg">
<path d="M8.8218 2.23624H10.8291C12.0516 2.05615 13.3 2.21449 14.4388 2.69406C15.8675 3.55361 16.9038 4.93741 17.3266 6.55026C17.6259 7.39545 17.6259 7.39545 18.3478 7.09611H18.9113V0.404989H0.0176935V1.58474H0.792455C1.12913 1.58241 1.46206 1.65553 1.76676 1.79875C2.07147 1.94196 2.34023 2.15162 2.55328 2.41233C3.27521 3.57447 3.39847 4.87748 3.39847 11.6566C3.39847 18.8584 3.24 20.6192 2.55328 21.5172C2.38374 21.7481 2.16425 21.9377 1.91119 22.0718C1.65812 22.206 1.37802 22.2813 1.09179 22.292C0.0176936 22.4857 0.0176935 22.4681 0.0176935 22.9435C-0.0417051 23.1025 -0.0417051 23.2776 0.0176935 23.4365H11.9385C12.0173 23.281 12.0585 23.1091 12.0585 22.9347C12.0585 22.7603 12.0173 22.5884 11.9385 22.4329C11.6497 22.3525 11.3555 22.2937 11.058 22.2568C10.7363 22.2185 10.4183 22.1537 10.1072 22.0631C9.66174 21.7379 9.30886 21.3021 9.08342 20.7987C8.85799 20.2953 8.76781 19.7418 8.8218 19.193C8.64572 18.0308 8.55768 15.9002 8.55768 14.1394V12.7483H9.26201C10.1395 12.7215 11.0165 12.8163 11.868 13.0301C12.2759 13.2822 12.6232 13.6212 12.885 14.023C13.1467 14.4248 13.3166 14.8794 13.3823 15.3544L13.5408 15.9002H14.6149V8.09978H13.6288L13.4704 8.85693C13.4037 9.34269 13.224 9.80602 12.9457 10.2097C12.6674 10.6134 12.2983 10.9461 11.868 11.1812C11.4513 11.3052 11.0123 11.3353 10.5826 11.2693H8.55768V9.36757C8.55768 7.39545 8.66333 3.23991 8.73376 2.58841L8.8218 2.23624ZM91.2282 16.1996C90.3959 14.8599 89.0978 13.8753 87.5833 13.4351C86.4224 13.0722 85.3492 12.4726 84.4315 11.6742C84.225 11.4745 84.0705 11.2273 83.9815 10.9541C83.8925 10.681 83.8717 10.3902 83.9208 10.1071C83.9222 9.55191 84.1439 9.01994 84.5371 8.62803C84.8037 8.34886 85.141 8.14735 85.5132 8.045C85.8853 7.94266 86.2783 7.94334 86.6501 8.04696C87.4199 8.26634 88.116 8.68985 88.6646 9.27262C89.2133 9.85539 89.5941 10.5757 89.7668 11.3573C90.0485 12.1497 90.0837 12.1497 90.5943 11.9384L90.9113 11.8151V7.43067L90.6824 7.32502C88.9489 6.71618 87.11 6.46461 85.2767 6.58547C83.6978 6.62548 82.1908 7.25341 81.0507 8.3463C80.5336 8.83033 80.1286 9.42153 79.864 10.0785C79.5994 10.7355 79.4816 11.4424 79.5188 12.1497C79.5287 13.231 79.9579 14.2663 80.7161 15.0374C81.554 15.8615 82.5822 16.4663 83.7095 16.7982C86.4388 17.8723 87.2312 18.5591 87.2312 19.8092C87.2429 20.3365 87.075 20.852 86.755 21.2711C86.435 21.6903 85.982 21.9882 85.4704 22.1159C84.8555 22.251 84.2187 22.251 83.6039 22.1159C82.7989 21.8035 82.0802 21.3034 81.5074 20.6571C80.9347 20.0109 80.5246 19.2373 80.3111 18.4006L80.0822 17.8371H79.7653C79.6138 17.8484 79.4652 17.8841 79.3251 17.9428H79.149V22.9435H79.4483C80.6379 23.3392 81.8653 23.6107 83.1109 23.7535H84.8717C85.6353 23.8095 86.4029 23.7381 87.1431 23.5422C88.0828 23.3688 88.9608 22.9525 89.6898 22.3347C90.4188 21.7169 90.9735 20.9191 91.2987 20.0205C91.5088 19.5187 91.6166 18.9799 91.6156 18.4358C91.685 17.6693 91.5514 16.8981 91.2282 16.1996ZM74.6413 7.09611C73.5862 6.65311 72.4493 6.43821 71.3052 6.46552C70.1612 6.49283 69.0358 6.76174 68.003 7.25459C67.0322 7.72945 66.1718 8.4026 65.4772 9.2306C64.7827 10.0586 64.2695 11.023 63.9707 12.0616C63.5899 13.1946 63.4285 14.3898 63.4953 15.5833C63.4827 16.2326 63.5358 16.8815 63.6538 17.5202C63.9381 19.0905 64.6962 20.5362 65.8262 21.663C66.9562 22.7899 68.404 23.5439 69.9751 23.8239C70.9982 23.9528 72.0335 23.9528 73.0566 23.8239C74.1182 23.6368 75.1343 23.2483 76.05 22.6794C76.8074 22.2548 77.4485 21.65 77.9164 20.9186C77.8864 20.8038 77.8335 20.6963 77.7609 20.6025C77.6882 20.5087 77.5974 20.4305 77.4938 20.3727C77.2929 20.4455 77.1032 20.5463 76.9304 20.672C76.0546 21.2492 75.0204 21.5386 73.9722 21.4996C73.2765 21.5467 72.579 21.4383 71.9303 21.1825C71.2816 20.9267 70.698 20.5298 70.2216 20.0205C69.8532 19.6783 69.549 19.2728 69.3236 18.8232C68.7765 17.7285 68.4816 16.5251 68.4608 15.3015V14.6148H78.2158V14.2627C78.2373 13.9108 78.2373 13.558 78.2158 13.2062C78.2123 11.9629 77.8797 10.7426 77.2519 9.66946C76.6241 8.59629 75.7234 7.70844 74.6413 7.09611ZM69.7286 13.1886H68.496V12.1497C68.901 9.49083 69.9047 7.90609 71.1373 7.90609C72.3698 7.90609 72.8981 9.47322 73.127 12.3434V13.1533H72.0705L69.7286 13.1886ZM44.408 6.51504C43.7996 6.49144 43.1947 6.61846 42.6472 6.88481C41.4571 7.46276 40.4959 8.424 39.9179 9.61409L39.689 10.0367V6.51504H39.601C39.3897 6.51504 32.8746 7.81805 32.6633 7.90609C32.452 7.99413 32.5225 8.01174 32.5225 8.32869C32.5225 8.64563 32.5225 8.69846 32.6633 8.71607L33.35 8.85693C33.5424 8.86165 33.7311 8.91008 33.902 8.99855C34.0728 9.08702 34.2213 9.21322 34.3361 9.36757C34.7763 9.94864 34.8644 10.9699 34.8644 15.3191C34.9513 17.2771 34.8688 19.2389 34.6178 21.1827C34.5587 21.4758 34.4101 21.7433 34.1925 21.9483C33.9749 22.1533 33.699 22.2857 33.4029 22.3272L32.8042 22.4505H32.5753V22.9435C32.5114 23.1077 32.5114 23.2899 32.5753 23.4541H42.4183V22.9435C42.4524 22.775 42.4524 22.6014 42.4183 22.4329C41.8256 22.4098 41.2363 22.3332 40.6575 22.204C40.3422 22.0391 40.0844 21.7826 39.9178 21.4683C39.7512 21.154 39.6837 20.7966 39.7242 20.4431C39.5834 19.4219 39.5129 16.4285 39.5481 14.1394C39.5834 11.8503 39.5481 11.7095 39.7418 11.551C40.331 11.0992 41.0602 10.8686 41.802 10.8995C42.5012 10.9147 43.1878 11.0894 43.8093 11.4101C44.0248 11.5298 44.2559 11.6187 44.496 11.6742C44.496 11.6742 46.2569 7.41306 46.2569 7.21937C46.0315 6.95753 45.7445 6.756 45.4216 6.63302C45.0988 6.51004 44.7504 6.46949 44.408 6.51504ZM32.5401 13.9105C32.4786 12.6522 32.1174 11.4268 31.4864 10.3365C30.8555 9.24608 29.9731 8.32226 28.9128 7.64197C27.6527 6.9622 26.2508 6.58738 24.8197 6.54763C23.3885 6.50788 21.968 6.80429 20.6721 7.41306C18.84 8.37919 17.4566 10.0215 16.8159 11.9912C16.1542 14.1965 16.1542 16.5475 16.8159 18.7528C17.1629 19.958 17.8113 21.0549 18.7 21.9398C19.8068 23.0198 21.2341 23.7118 22.7675 23.912C23.7518 23.9943 24.7413 23.9943 25.7257 23.912C26.0879 23.8568 26.4466 23.7804 26.7998 23.6831C28.233 23.2821 29.5225 22.4813 30.5172 21.3743C31.5119 20.2673 32.1708 18.8999 32.4168 17.4321C32.5926 16.2668 32.634 15.0852 32.5401 13.9105ZM25.215 22.7146C23.4542 23.2428 22.1336 21.5348 21.6934 17.9428C21.5317 16.0622 21.5317 14.1711 21.6934 12.2905C22.0456 9.40279 22.9436 7.94131 24.3346 7.94131C24.6153 7.92391 24.896 7.97398 25.1533 8.08733C25.4107 8.20068 25.6371 8.37401 25.8137 8.59281C26.9935 9.77256 27.5745 12.1145 27.5745 15.6361C27.7211 17.6291 27.4078 19.6292 26.6589 21.482C26.3283 22.0224 25.8166 22.428 25.215 22.6266V22.7146ZM56.9098 6.8672C56.413 6.80327 55.91 6.80327 55.4131 6.8672C54.4594 6.86639 53.5166 7.07056 52.6486 7.46588L52.1028 7.69479V3.87381C52.1982 2.5843 52.1982 1.28951 52.1028 0C51.8915 0 45.1652 1.2854 45.0595 1.33822C45.0076 1.46823 45.0076 1.61321 45.0595 1.74321C45.0595 2.11299 45.0595 2.09538 45.8519 2.27146C46.0744 2.32135 46.288 2.40446 46.4858 2.51797C46.8295 2.84119 47.0582 3.2678 47.1373 3.73294C47.3378 5.07297 47.4027 6.42979 47.331 7.78283V23.2428L47.8064 23.3485C48.5107 23.507 50.5004 23.8415 51.152 23.912C52.4529 24.0154 53.76 24.0154 55.061 23.912C56.505 23.7645 57.8813 23.2257 59.0418 22.3538C60.2023 21.4819 61.1028 20.3099 61.6464 18.964C61.9705 18.1002 62.195 17.2023 62.3156 16.2876C62.4204 15.0486 62.379 13.8016 62.1923 12.5723C62.0034 11.1943 61.3952 9.90774 60.4502 8.88717C59.5053 7.8666 58.2692 7.16139 56.9098 6.8672ZM52.2965 22.4153C52.2965 22.1864 52.1204 14.474 52.1556 11.3925V8.98019L52.6663 8.85693C53.0108 8.80757 53.3606 8.80757 53.7051 8.85693C54.0862 8.81819 54.4694 8.90474 54.7969 9.10345C55.4544 9.55728 56.0005 10.1544 56.3939 10.8498C56.7874 11.5451 57.018 12.3207 57.0683 13.1181C57.1966 14.4003 57.1966 15.6921 57.0683 16.9743C56.9629 18.8379 56.2449 20.6145 55.0258 22.0279C54.6797 22.3565 54.2452 22.5769 53.7756 22.6618C53.4202 22.7236 53.0568 22.7236 52.7015 22.6618C52.3669 22.6618 52.3669 22.5561 52.3669 22.4153H52.2965Z" fill="white"/>
</svg>
