<svg width="123" height="32" viewBox="0 0 123 32" fill="none" xmlns="http://www.w3.org/2000/svg">
<g clip-path="url(#clip0_3229_28475)">
<path d="M11.7624 2.98166H14.4388C16.0688 2.74154 17.7334 2.95265 19.2518 3.59208C21.1567 4.73815 22.5384 6.58322 23.1021 8.73368C23.5012 9.8606 23.5012 9.8606 24.4638 9.46148H25.2151V0.539985H0.0235863V2.11299H1.0566C1.50551 2.10988 1.9494 2.20738 2.35568 2.39833C2.76196 2.58928 3.1203 2.86883 3.40436 3.21643C4.36695 4.76596 4.53129 6.5033 4.53129 15.5422C4.53129 25.1445 4.31999 27.4923 3.40436 28.6897C3.17832 28.9975 2.88566 29.2503 2.54824 29.4291C2.21082 29.608 1.83735 29.7083 1.45572 29.7227C0.0235863 29.9809 0.0235863 29.9574 0.0235863 30.5913C-0.0556119 30.8033 -0.0556119 31.0367 0.0235863 31.2487H15.9179C16.0231 31.0414 16.0779 30.8121 16.0779 30.5796C16.0779 30.3471 16.0231 30.1178 15.9179 29.9105C15.533 29.8034 15.1406 29.7249 14.7441 29.6757C14.3151 29.6247 13.891 29.5383 13.4763 29.4175C12.8823 28.9838 12.4118 28.4027 12.1112 27.7316C11.8106 27.0604 11.6904 26.3225 11.7624 25.5906C11.5276 24.0411 11.4102 21.2003 11.4102 18.8525V16.9978H12.3493C13.5194 16.962 14.6887 17.0884 15.824 17.3734C16.3679 17.7095 16.8309 18.1616 17.1799 18.6973C17.529 19.233 17.7554 19.8392 17.8431 20.4725L18.0544 21.2003H19.4865V10.7997H18.1718L17.9605 11.8092C17.8716 12.4569 17.632 13.0747 17.2609 13.6129C16.8899 14.1512 16.3977 14.5948 15.824 14.9083C15.2684 15.0736 14.6831 15.1137 14.1102 15.0257H11.4102V12.4901C11.4102 9.8606 11.5511 4.31988 11.645 3.45121L11.7624 2.98166ZM121.638 21.5994C120.528 19.8133 118.797 18.5004 116.778 17.9134C115.23 17.4296 113.799 16.6302 112.575 15.5657C112.3 15.2993 112.094 14.9697 111.975 14.6055C111.857 14.2413 111.829 13.8536 111.894 13.4762C111.896 12.7359 112.192 12.0266 112.716 11.504C113.072 11.1318 113.521 10.8631 114.018 10.7267C114.514 10.5902 115.038 10.5911 115.533 10.7293C116.56 11.0218 117.488 11.5865 118.22 12.3635C118.951 13.1405 119.459 14.101 119.689 15.1431C120.065 16.1996 120.112 16.1996 120.792 15.9178L121.215 15.7535V9.90756L120.91 9.76669C118.598 8.9549 116.147 8.61948 113.702 8.78063C111.597 8.83397 109.588 9.67121 108.068 11.1284C107.378 11.7738 106.838 12.562 106.485 13.438C106.132 14.314 105.975 15.2565 106.025 16.1996C106.038 17.6414 106.611 19.0218 107.622 20.0499C108.739 21.1486 110.11 21.955 111.613 22.3976C115.252 23.8298 116.308 24.7454 116.308 26.4123C116.324 27.1153 116.1 27.8026 115.673 28.3615C115.247 28.9204 114.643 29.3176 113.96 29.4879C113.141 29.668 112.292 29.668 111.472 29.4879C110.399 29.0713 109.44 28.4045 108.677 27.5428C107.913 26.6812 107.366 25.6497 107.082 24.5341L106.776 23.7828H106.354C106.152 23.7978 105.954 23.8454 105.767 23.9237H105.532V30.5913H105.931C107.517 31.119 109.154 31.4809 110.814 31.6713H113.162C114.18 31.746 115.204 31.6508 116.191 31.3896C117.444 31.1584 118.614 30.6033 119.586 29.7796C120.558 28.9559 121.298 27.8921 121.732 26.6941C122.012 26.0249 122.155 25.3065 122.154 24.5811C122.247 23.5591 122.069 22.5307 121.638 21.5994ZM99.5217 9.46148C98.1149 8.87081 96.599 8.58428 95.0736 8.62069C93.5482 8.65711 92.0477 9.01565 90.6707 9.67278C89.3763 10.3059 88.229 11.2035 87.3029 12.3075C86.3769 13.4115 85.6926 14.6974 85.2943 16.0822C84.7865 17.5928 84.5713 19.1865 84.6604 20.7777C84.6436 21.6435 84.7144 22.5087 84.8717 23.3602C85.2508 25.454 86.2616 27.3816 87.7683 28.884C89.275 30.3865 91.2054 31.3919 93.3002 31.7652C94.6643 31.9371 96.0446 31.9371 97.4087 31.7652C98.8243 31.5157 100.179 30.9977 101.4 30.2392C102.41 29.673 103.265 28.8666 103.889 27.8914C103.849 27.7384 103.778 27.595 103.681 27.47C103.584 27.3449 103.463 27.2407 103.325 27.1636C103.057 27.2606 102.804 27.395 102.574 27.5627C101.406 28.3323 100.027 28.7181 98.6296 28.6662C97.702 28.7289 96.772 28.5845 95.9071 28.2434C95.0422 27.9023 94.264 27.3731 93.6288 26.6941C93.1375 26.2377 92.732 25.697 92.4315 25.0976C91.7019 23.638 91.3088 22.0335 91.2811 20.4021V19.4864H104.288V19.0169C104.316 18.5478 104.316 18.0773 104.288 17.6082C104.283 15.9505 103.84 14.3235 103.003 12.8926C102.165 11.4617 100.965 10.2779 99.5217 9.46148ZM92.9715 17.5847H91.328V16.1996C91.868 12.6544 93.2063 10.5415 94.8497 10.5415C96.4931 10.5415 97.1974 12.631 97.5027 16.4578V17.5378H96.094L92.9715 17.5847ZM59.2107 8.68672C58.3994 8.65526 57.593 8.82461 56.8629 9.17975C55.2761 9.95035 53.9945 11.232 53.2239 12.8188L52.9187 13.3822V8.68672H52.8013C52.5195 8.68672 43.8328 10.4241 43.5511 10.5415C43.2694 10.6588 43.3633 10.6823 43.3633 11.1049C43.3633 11.5275 43.3633 11.5979 43.5511 11.6214L44.4667 11.8092C44.7232 11.8155 44.9748 11.8801 45.2026 11.9981C45.4304 12.116 45.6283 12.2843 45.7815 12.4901C46.3684 13.2649 46.4858 14.6266 46.4858 20.4255C46.6018 23.0361 46.4918 25.6519 46.1571 28.2436C46.0783 28.6344 45.8802 28.9911 45.59 29.2644C45.2998 29.5378 44.9319 29.7143 44.5372 29.7696L43.7389 29.934H43.4337V30.5913C43.3485 30.8103 43.3485 31.0532 43.4337 31.2722H56.5577V30.5913C56.6032 30.3667 56.6032 30.1352 56.5577 29.9105C55.7675 29.8797 54.9817 29.7775 54.2099 29.6053C53.7896 29.3854 53.4458 29.0435 53.2237 28.6244C53.0016 28.2053 52.9116 27.7287 52.9656 27.2575C52.7778 25.8958 52.6839 21.9046 52.7308 18.8525C52.7778 15.8004 52.7308 15.6126 52.9891 15.4013C53.7747 14.799 54.7469 14.4915 55.736 14.5326C56.6683 14.553 57.5837 14.7858 58.4124 15.2135C58.6997 15.373 59.0079 15.4916 59.3281 15.5657C59.3281 15.5657 61.6758 9.88408 61.6758 9.62583C61.3754 9.2767 60.9926 9.008 60.5622 8.84402C60.1318 8.68005 59.6672 8.62599 59.2107 8.68672ZM43.3867 18.5473C43.3048 16.8696 42.8231 15.2358 41.9819 13.7819C41.1406 12.3281 39.9641 11.0963 38.5504 10.1893C36.8703 9.28293 35.0011 8.78318 33.0929 8.73017C31.1847 8.67717 29.2906 9.07238 27.5628 9.88408C25.12 11.1722 23.2755 13.362 22.4212 15.9883C21.5389 18.9286 21.5389 22.0633 22.4212 25.0037C22.8838 26.6106 23.7484 28.0732 24.9333 29.2531C26.4091 30.6931 28.3121 31.6158 30.3567 31.8826C31.6691 31.9924 32.9885 31.9924 34.3009 31.8826C34.7839 31.8091 35.2621 31.7072 35.733 31.5774C37.644 31.0428 39.3633 29.9751 40.6896 28.4991C42.0159 27.0231 42.8944 25.1999 43.2224 23.2428C43.4568 21.6891 43.5119 20.1136 43.3867 18.5473ZM33.6201 30.2861C31.2723 30.9905 29.5115 28.7131 28.9245 23.9237C28.709 21.4162 28.709 18.8949 28.9245 16.3874C29.3941 12.537 30.5914 10.5884 32.4462 10.5884C32.8204 10.5652 33.1947 10.632 33.5378 10.7831C33.8809 10.9342 34.1828 11.1653 34.4183 11.4571C35.9913 13.0301 36.7661 16.1526 36.7661 20.8481C36.9614 23.5055 36.5437 26.1723 35.5452 28.6427C35.1043 29.3632 34.4222 29.9039 33.6201 30.1687V30.2861ZM75.8798 9.15627C75.2173 9.07103 74.5466 9.07103 73.8842 9.15627C72.6125 9.15519 71.3555 9.42742 70.1982 9.95451L69.4704 10.2597V5.16508C69.5976 3.44573 69.5976 1.71934 69.4704 0C69.1887 0 60.2202 1.71387 60.0793 1.7843C60.0101 1.95763 60.0101 2.15095 60.0793 2.32428C60.0793 2.81731 60.0793 2.79384 61.1358 3.02861C61.4325 3.09514 61.7174 3.20594 61.981 3.3573C62.4393 3.78825 62.7443 4.35707 62.8497 4.97726C63.117 6.76396 63.2035 8.57305 63.108 10.3771V30.9905L63.7418 31.1313C64.6809 31.3426 67.3339 31.7887 68.2026 31.8826C69.9372 32.0206 71.68 32.0206 73.4146 31.8826C75.34 31.686 77.1751 30.9677 78.7224 29.8051C80.2697 28.6426 81.4704 27.0799 82.1953 25.2854C82.6274 24.1337 82.9267 22.9364 83.0874 21.7168C83.2271 20.0648 83.172 18.4021 82.9231 16.763C82.6712 14.9257 81.8603 13.2103 80.6003 11.8496C79.3403 10.4888 77.6923 9.54852 75.8798 9.15627ZM69.7286 29.887C69.7286 29.5818 69.4939 19.2986 69.5408 15.19V11.9736L70.2217 11.8092C70.681 11.7434 71.1475 11.7434 71.6068 11.8092C72.1149 11.7576 72.6259 11.873 73.0625 12.1379C73.9392 12.743 74.6673 13.5392 75.1919 14.4663C75.7165 15.3935 76.0239 16.4276 76.0911 17.4908C76.2621 19.2004 76.2621 20.9228 76.0911 22.6324C75.9506 25.1172 74.9931 27.4859 73.3677 29.3705C72.9063 29.8087 72.3269 30.1025 71.7008 30.2157C71.2269 30.2981 70.7424 30.2981 70.2686 30.2157C69.8225 30.2157 69.8225 30.0748 69.8225 29.887H69.7286Z" fill="#888CA0"/>
</g>
<defs>
<clipPath id="clip0_3229_28475">
<rect width="122.178" height="32" fill="white"/>
</clipPath>
</defs>
</svg>
