<svg width="104" height="32" viewBox="0 0 104 32" fill="none" xmlns="http://www.w3.org/2000/svg">
<g clip-path="url(#clip0_3229_28481)">
<path fill-rule="evenodd" clip-rule="evenodd" d="M8.40319 32H10.7992V19.2H8.40319V32ZM17.1862 31.808H19.3322V23.732L28.3652 32V19.392H26.2252V27.33L17.1862 19.2V31.808ZM33.2642 28.708C34.4322 29.618 35.8342 30.144 37.3372 30.144C38.8012 30.144 39.8282 29.64 39.8282 28.527C39.8282 27.557 39.1732 27.177 38.0262 26.752L36.1692 26.107C34.4572 25.499 33.1552 24.611 33.1552 22.57C33.1552 20.387 35.1262 19.2 37.4832 19.2C38.9272 19.2 40.2432 19.563 41.2712 20.206V22.371C40.2022 21.581 39.0322 21.037 37.5292 21.037C36.2352 21.037 35.2682 21.52 35.2682 22.527C35.2682 23.437 35.8752 23.801 36.9442 24.167L39.0132 24.893C41.0182 25.598 41.9382 26.691 41.9382 28.489C41.9382 30.751 39.9482 32 37.3372 32C35.6212 32 34.1622 31.52 33.2642 30.914V28.708ZM47.5282 32H49.9232V19.2H47.5282V32ZM61.1592 30.063C63.8592 30.063 65.3022 28.331 65.3022 25.597C65.3022 22.843 63.8582 21.117 61.1592 21.117H58.4892V30.063H61.1592ZM56.3092 19.2H61.2392C65.0342 19.2 67.4882 21.7 67.4882 25.597C67.4882 29.497 65.0342 32 61.2392 32H56.3092V19.2ZM79.4662 19.2V21.117H73.6692V24.197H78.8682V26.092H73.6682V30.063H79.4662V32H71.4812V19.2H79.4662ZM87.9682 24.996H90.3452C91.7522 24.996 92.5452 24.224 92.5452 23.037C92.5452 21.85 91.7522 21.077 90.3452 21.077H87.9682V24.996ZM87.9682 26.806V32H85.8532V19.2H90.3852C92.9692 19.2 94.6412 20.531 94.6412 23.037C94.6412 25.18 93.7132 26.411 91.7362 26.727L96.2332 32H93.8272L89.4732 26.807H87.9692L87.9682 26.806ZM7.56619 6.59C8.50319 6.247 9.23319 5.218 9.23319 3.803C9.23319 1.445 7.56619 0.223 4.89919 0.223H0.419189V13.386H5.31519C7.98219 13.386 9.64919 12.078 9.64919 9.613C9.64919 8.219 8.77419 6.997 7.56619 6.59ZM2.52319 5.754V2.153H4.87919C6.35919 2.153 7.15019 2.689 7.15019 3.932C7.15019 5.175 6.35819 5.754 4.87919 5.754H2.52319ZM2.52319 7.598H5.27319C6.73319 7.598 7.52419 8.326 7.52419 9.527C7.52419 10.706 6.73219 11.457 5.27419 11.457H2.52419V7.597L2.52319 7.598ZM19.4242 13.6C22.4872 13.6 24.5502 11.756 24.5502 8.155V0.223H22.3832V7.897C22.3832 10.427 21.3412 11.607 19.4242 11.607C17.5072 11.607 16.4662 10.427 16.4662 7.897V0.223H14.2992V8.133C14.2992 11.756 16.3822 13.6 19.4242 13.6ZM29.6522 12.442C30.5482 13.086 32.0072 13.6 33.7152 13.6C36.3202 13.6 38.2992 12.27 38.2992 9.87C38.2992 7.962 37.3832 6.804 35.3822 6.054L33.3202 5.282C32.2572 4.897 31.6532 4.511 31.6532 3.546C31.6532 2.474 32.6112 1.96 33.9032 1.96C35.4032 1.96 36.5702 2.538 37.6332 3.375V1.08C36.6122 0.395 35.2992 0.009 33.8612 0.009C31.5072 0.009 29.5482 1.274 29.5482 3.589C29.5482 5.754 30.8402 6.697 32.5482 7.34L34.4032 8.026C35.5492 8.476 36.1952 8.884 36.1952 9.913C36.1952 11.092 35.1742 11.628 33.7152 11.628C32.2152 11.628 30.8192 11.07 29.6522 10.106V12.442ZM46.0422 0.223H43.8762V13.385H46.0422V0.223ZM52.2242 13.369H54.3122V4.806L63.1002 13.573V0.203H61.0182V8.62L52.2242 0V13.369ZM76.6412 0.226V2.197H71.0152V5.365H76.0602V7.314H71.0152V11.397H76.6412V13.389H68.8912V0.226H76.6412ZM81.6862 12.433C82.5822 13.077 84.0402 13.591 85.7492 13.591C88.3532 13.591 90.3332 12.262 90.3332 9.861C90.3332 7.953 89.4162 6.796 87.4162 6.045L85.3532 5.274C84.2902 4.888 83.6862 4.502 83.6862 3.537C83.6862 2.465 84.6442 1.951 85.9362 1.951C87.4362 1.951 88.6032 2.53 89.6662 3.366V1.072C88.6452 0.386 87.3322 0 85.8942 0C83.5402 0 81.5812 1.265 81.5812 3.58C81.5812 5.745 82.8732 6.688 84.5812 7.331L86.4362 8.017C87.5822 8.467 88.2282 8.875 88.2282 9.904C88.2282 11.083 87.2082 11.619 85.7482 11.619C84.2482 11.619 82.8522 11.062 81.6862 10.097V12.433ZM94.7722 12.433C95.6682 13.077 97.1272 13.591 98.8352 13.591C101.44 13.591 103.419 12.262 103.419 9.861C103.419 7.953 102.502 6.796 100.502 6.045L98.4392 5.274C97.3772 4.888 96.7722 4.502 96.7722 3.537C96.7722 2.465 97.7312 1.951 99.0222 1.951C100.522 1.951 101.69 2.53 102.752 3.366V1.072C101.732 0.386 100.419 0 98.9812 0C96.6262 0 94.6682 1.265 94.6682 3.58C94.6682 5.745 95.9602 6.688 97.6682 7.331L99.5232 8.017C100.669 8.467 101.315 8.875 101.315 9.904C101.315 11.083 100.294 11.619 98.8352 11.619C97.3352 11.619 95.9392 11.062 94.7722 10.097V12.433Z" fill="#888CA0"/>
</g>
<defs>
<clipPath id="clip0_3229_28481">
<rect width="103" height="32" fill="white" transform="translate(0.419189)"/>
</clipPath>
</defs>
</svg>
