<svg width="56" height="56" viewBox="0 0 56 56" fill="none" xmlns="http://www.w3.org/2000/svg">
<g filter="url(#filter0_d_6030_30401)">
<circle cx="28" cy="26" r="16" fill="#EDCD5C"/>
<path d="M26.8335 14.8702C24.3943 14.8702 22.2274 16.4384 21.4722 18.7543C19.904 19.0771 18.5501 20.0577 17.7568 21.4472C16.5335 23.5587 16.8131 26.2134 18.4516 28.0231C17.9453 29.5395 18.119 31.1977 18.9271 32.5712C20.143 34.6901 22.5896 35.7766 24.9832 35.2715C26.0438 36.4665 27.5677 37.1477 29.1667 37.1415C31.6059 37.1415 33.7729 35.5733 34.5293 33.2574C36.0999 32.9334 37.4514 31.9528 38.2373 30.5657C39.468 28.4542 39.1884 25.7995 37.5499 23.9886V23.9812C38.0562 22.4648 37.8825 20.8054 37.0744 19.4257C35.8585 17.3143 33.4119 16.2277 31.0257 16.7328C29.9589 15.5403 28.4325 14.8628 26.8335 14.8702ZM26.8335 16.3176L26.8261 16.325C27.8079 16.325 28.7516 16.6638 29.5068 17.2908C29.476 17.3056 29.4156 17.3438 29.3712 17.366L24.9302 19.9234C24.7035 20.0515 24.568 20.293 24.568 20.5566V26.5596L22.6573 25.4583V20.4962C22.6561 18.1914 24.5249 16.3213 26.8335 16.3176ZM32.1825 18.0657C33.6805 18.0632 35.0651 18.8603 35.8129 20.1575C36.2958 21.0025 36.4769 21.9905 36.3106 22.9477C36.2798 22.9255 36.2207 22.8947 36.1825 22.8725L31.7427 20.3077C31.516 20.1796 31.2376 20.1796 31.0109 20.3077L25.8073 23.3099V21.1072L30.103 18.6262C30.735 18.2603 31.4519 18.0669 32.1825 18.0657ZM21.2 20.3447V25.616C21.2 25.8796 21.3355 26.1137 21.5621 26.2492L26.7571 29.2427L24.839 30.3514L20.5495 27.8777C18.5538 26.7222 17.8713 24.171 19.0244 22.1765C19.5135 21.3314 20.2822 20.6835 21.2 20.3447ZM31.1526 21.6505L35.4495 24.1241C37.4514 25.2784 38.1301 27.8272 36.9746 29.8253L36.982 29.8327C36.4917 30.6778 35.7205 31.3258 34.8077 31.6584V26.3859C34.8077 26.1223 34.6722 25.8808 34.4455 25.7527L29.2431 22.7506L31.1526 21.6505ZM27.9964 23.4675L30.1868 24.7339V27.2605L27.9964 28.5269L25.8061 27.2605V24.7339L27.9964 23.4675ZM31.4396 25.4583L33.3503 26.5596V31.5143C33.3503 33.8216 31.4778 35.6928 29.1741 35.6928V35.6855C28.1997 35.6855 27.2487 35.3454 26.5009 34.7196C26.5317 34.7049 26.5994 34.6667 26.6364 34.6445L31.0762 32.0883C31.3029 31.9602 31.4458 31.7188 31.4384 31.4551L31.4396 25.4583ZM30.1929 28.7019V30.9045L25.896 33.3781C23.8942 34.525 21.3429 33.8462 20.1873 31.8543H20.1947C19.7044 31.0166 19.5295 30.0212 19.6958 29.064C19.7266 29.0862 19.787 29.117 19.8239 29.1392L24.2637 31.704C24.4904 31.8321 24.7688 31.8321 24.9955 31.704L30.1929 28.7019Z" fill="white"/>
</g>
<defs>
<filter id="filter0_d_6030_30401" x="0" y="0" width="56" height="56" filterUnits="userSpaceOnUse" color-interpolation-filters="sRGB">
<feFlood flood-opacity="0" result="BackgroundImageFix"/>
<feColorMatrix in="SourceAlpha" type="matrix" values="0 0 0 0 0 0 0 0 0 0 0 0 0 0 0 0 0 0 127 0" result="hardAlpha"/>
<feOffset dy="2"/>
<feGaussianBlur stdDeviation="6"/>
<feComposite in2="hardAlpha" operator="out"/>
<feColorMatrix type="matrix" values="0 0 0 0 0 0 0 0 0 0 0 0 0 0 0 0 0 0 0.4 0"/>
<feBlend mode="normal" in2="BackgroundImageFix" result="effect1_dropShadow_6030_30401"/>
<feBlend mode="normal" in="SourceGraphic" in2="effect1_dropShadow_6030_30401" result="shape"/>
</filter>
</defs>
</svg>
