<svg width="56" height="56" viewBox="0 0 56 56" fill="none" xmlns="http://www.w3.org/2000/svg">
<g filter="url(#filter0_d_6030_30378)">
<circle cx="28" cy="26" r="16" fill="#C75DD0"/>
<g clip-path="url(#clip0_6030_30378)">
<path d="M34.1155 32.0103H26.6487C26.4539 32.0115 26.2664 31.9364 26.1261 31.8012L23.6017 29.3313C23.4441 29.1771 23.2324 29.0908 23.012 29.0908H22.9154C22.503 29.0908 22.1687 28.7565 22.1687 28.3441C22.1687 27.9318 22.503 27.5975 22.9154 27.5975H23.662C23.8543 27.5982 24.0388 27.6731 24.1772 27.8065L26.5587 30.1366C26.8079 30.3804 27.1426 30.5169 27.4912 30.5169H34.1155C34.3135 30.5169 34.5034 30.4382 34.6434 30.2982C34.7834 30.1582 34.8621 29.9683 34.8621 29.7703C34.8621 29.5723 34.7834 29.3823 34.6434 29.2423C34.5034 29.1023 34.3135 29.0236 34.1155 29.0236H30.3821V27.5303H34.1155C34.7096 27.5303 35.2793 27.7663 35.6994 28.1864C36.1194 28.6064 36.3555 29.1762 36.3555 29.7703C36.3555 30.3643 36.1194 30.9341 35.6994 31.3542C35.2793 31.7743 34.7096 32.0103 34.1155 32.0103Z" fill="white"/>
<path d="M28.8887 29.77C28.5934 29.7707 28.3009 29.713 28.0279 29.6003C27.755 29.4875 27.507 29.3219 27.2983 29.1129L26.7085 28.5231C26.416 28.2306 26.4168 27.7561 26.7103 27.4647C27.0024 27.1747 27.474 27.1755 27.765 27.4665L28.3586 28.0601C28.4282 28.1293 28.5108 28.184 28.6016 28.2212C28.6923 28.2584 28.7895 28.2774 28.8876 28.277C28.9857 28.2767 29.0829 28.257 29.1734 28.2192C29.2639 28.1813 29.346 28.126 29.4152 28.0564C29.4843 27.9867 29.539 27.9042 29.5762 27.8134C29.6135 27.7226 29.6324 27.6254 29.6321 27.5273C29.6318 27.4292 29.612 27.3321 29.5742 27.2416C29.5363 27.1511 29.4811 27.069 29.4114 26.9999L27.4126 25.0011C27.1625 24.751 26.8234 24.6105 26.4698 24.6105H22.9154C22.503 24.6105 22.1687 24.2762 22.1687 23.8639C22.1687 23.4515 22.503 23.1172 22.9154 23.1172H27.3282C27.4265 23.1166 27.5238 23.1354 27.6149 23.1726C27.7058 23.2098 27.7886 23.2645 27.8583 23.3337L30.4717 25.9471C30.7845 26.2603 30.9976 26.6593 31.0838 27.0935C31.1701 27.5278 31.1258 27.9779 30.9564 28.387C30.787 28.796 30.5002 29.1457 30.1322 29.3918C29.7642 29.638 29.3315 29.7696 28.8887 29.77Z" fill="white"/>
<path d="M21.4146 29.4566C21.4146 30.0752 20.9131 30.5766 20.2946 30.5766H19.9212C19.5089 30.5766 19.1746 30.2423 19.1746 29.8299V29.4566C19.1746 29.2504 19.3417 29.0833 19.5479 29.0833C19.7541 29.0833 19.9212 28.9161 19.9212 28.7099V24.2299C19.9212 24.0238 19.7541 23.8566 19.5479 23.8566C19.3417 23.8566 19.1746 23.6895 19.1746 23.4833V23.1099C19.1746 22.6976 19.5089 22.3633 19.9212 22.3633H20.2946C20.9131 22.3633 21.4146 22.8647 21.4146 23.4833V29.4566Z" fill="white"/>
<path d="M32.6219 25.2897C32.0313 25.2897 31.4538 25.1146 30.9626 24.7864C30.4715 24.4582 30.0886 23.9917 29.8626 23.446C29.6365 22.9003 29.5774 22.2997 29.6927 21.7204C29.8079 21.141 30.0924 20.6089 30.5101 20.1912C30.9277 19.7735 31.4599 19.489 32.0392 19.3738C32.6187 19.2586 33.2191 19.3177 33.7649 19.5437C34.3106 19.7698 34.7771 20.1526 35.1053 20.6438C35.4335 21.1349 35.6086 21.7124 35.6086 22.3031C35.6086 23.0952 35.294 23.8549 34.7339 24.4149C34.1738 24.9751 33.4141 25.2897 32.6219 25.2897ZM32.6219 20.8097C32.3266 20.8097 32.0379 20.8973 31.7923 21.0614C31.5467 21.2255 31.3553 21.4587 31.2422 21.7316C31.1293 22.0045 31.0996 22.3047 31.1573 22.5944C31.2149 22.8841 31.3572 23.1502 31.566 23.359C31.7748 23.5679 32.041 23.7101 32.3306 23.7677C32.6203 23.8253 32.9206 23.7957 33.1934 23.6827C33.4664 23.5697 33.6995 23.3783 33.8636 23.1327C34.0277 22.8871 34.1153 22.5985 34.1153 22.3031C34.1153 21.907 33.958 21.5271 33.6779 21.2471C33.3978 20.9671 33.0181 20.8097 32.6219 20.8097Z" fill="white"/>
</g>
</g>
<defs>
<filter id="filter0_d_6030_30378" x="0" y="0" width="56" height="56" filterUnits="userSpaceOnUse" color-interpolation-filters="sRGB">
<feFlood flood-opacity="0" result="BackgroundImageFix"/>
<feColorMatrix in="SourceAlpha" type="matrix" values="0 0 0 0 0 0 0 0 0 0 0 0 0 0 0 0 0 0 127 0" result="hardAlpha"/>
<feOffset dy="2"/>
<feGaussianBlur stdDeviation="6"/>
<feComposite in2="hardAlpha" operator="out"/>
<feColorMatrix type="matrix" values="0 0 0 0 0 0 0 0 0 0 0 0 0 0 0 0 0 0 0.4 0"/>
<feBlend mode="normal" in2="BackgroundImageFix" result="effect1_dropShadow_6030_30378"/>
<feBlend mode="normal" in="SourceGraphic" in2="effect1_dropShadow_6030_30378" result="shape"/>
</filter>
<clipPath id="clip0_6030_30378">
<rect width="17.9201" height="18.6667" fill="white" transform="translate(18.6667 14)"/>
</clipPath>
</defs>
</svg>
