<svg width="56" height="56" viewBox="0 0 56 56" fill="none" xmlns="http://www.w3.org/2000/svg">
<g filter="url(#filter0_d_6030_30406)">
<circle cx="28" cy="26" r="16" fill="#E99C55"/>
<path d="M35.0548 23.7207C35.3733 21.5917 33.7523 20.4472 31.5358 19.6837L32.2548 16.7997L30.4993 16.3622L29.7993 19.1702C29.3378 19.0552 28.8638 18.9467 28.3928 18.8392L29.0978 16.0127L27.3433 15.5752L26.6238 18.4582C26.2418 18.3712 25.8668 18.2852 25.5028 18.1947L25.5048 18.1857L23.0838 17.5812L22.6168 19.4562C22.6168 19.4562 23.9193 19.7547 23.8918 19.7732C24.6028 19.9507 24.7313 20.4212 24.7098 20.7942L23.8908 24.0797C23.9398 24.0922 24.0033 24.1102 24.0733 24.1382C24.0148 24.1237 23.9523 24.1077 23.8878 24.0922L22.7398 28.6947C22.6528 28.9107 22.4323 29.2347 21.9353 29.1117C21.9528 29.1372 20.6593 28.7932 20.6593 28.7932L19.7878 30.8027L22.0723 31.3722C22.4973 31.4787 22.9138 31.5902 23.3238 31.6952L22.5973 34.6122L24.3508 35.0497L25.0703 32.1637C25.5493 32.2937 26.0143 32.4137 26.4693 32.5267L25.7523 35.3992L27.5078 35.8367L28.2343 32.9252C31.2278 33.4917 33.4788 33.2632 34.4263 30.5557C35.1898 28.3757 34.3883 27.1182 32.8133 26.2982C33.9603 26.0337 34.8243 25.2792 35.0548 23.7207ZM31.0438 29.3452C30.5013 31.5252 26.8308 30.3467 25.6408 30.0512L26.6048 26.1867C27.7948 26.4837 31.6108 27.0717 31.0438 29.3452ZM31.5868 23.6892C31.0918 25.6722 28.0368 24.6647 27.0458 24.4177L27.9198 20.9127C28.9108 21.1597 32.1023 21.6207 31.5868 23.6892Z" fill="white"/>
</g>
<defs>
<filter id="filter0_d_6030_30406" x="0" y="0" width="56" height="56" filterUnits="userSpaceOnUse" color-interpolation-filters="sRGB">
<feFlood flood-opacity="0" result="BackgroundImageFix"/>
<feColorMatrix in="SourceAlpha" type="matrix" values="0 0 0 0 0 0 0 0 0 0 0 0 0 0 0 0 0 0 127 0" result="hardAlpha"/>
<feOffset dy="2"/>
<feGaussianBlur stdDeviation="6"/>
<feComposite in2="hardAlpha" operator="out"/>
<feColorMatrix type="matrix" values="0 0 0 0 0 0 0 0 0 0 0 0 0 0 0 0 0 0 0.4 0"/>
<feBlend mode="normal" in2="BackgroundImageFix" result="effect1_dropShadow_6030_30406"/>
<feBlend mode="normal" in="SourceGraphic" in2="effect1_dropShadow_6030_30406" result="shape"/>
</filter>
</defs>
</svg>
