<svg width="56" height="56" viewBox="0 0 56 56" fill="none" xmlns="http://www.w3.org/2000/svg">
<g filter="url(#filter0_d_6030_30371)">
<circle cx="28" cy="26" r="16" fill="#5478D4"/>
<path d="M28 17.1104C26.2419 17.1104 24.5233 17.6317 23.0616 18.6084C21.5998 19.5851 20.4605 20.9734 19.7877 22.5976C19.1149 24.2218 18.9389 26.0091 19.2819 27.7334C19.6249 29.4577 20.4714 31.0415 21.7146 32.2846C22.9577 33.5278 24.5416 34.3744 26.2658 34.7173C27.9901 35.0603 29.7774 34.8843 31.4016 34.2115C33.0258 33.5387 34.4141 32.3994 35.3908 30.9376C36.3675 29.4759 36.8889 27.7573 36.8889 25.9992C36.8862 23.6426 35.9488 21.3832 34.2824 19.7168C32.616 18.0504 30.3566 17.113 28 17.1104ZM28 33.1104C26.5935 33.1104 25.2187 32.6933 24.0493 31.9119C22.8798 31.1305 21.9684 30.0199 21.4302 28.7205C20.8919 27.4212 20.7511 25.9914 21.0255 24.6119C21.2999 23.2325 21.9772 21.9654 22.9717 20.9709C23.9662 19.9764 25.2332 19.2992 26.6127 19.0248C27.9921 18.7504 29.4219 18.8912 30.7213 19.4294C32.0207 19.9677 33.1313 20.8791 33.9126 22.0485C34.694 23.2179 35.1111 24.5928 35.1111 25.9992C35.1089 27.8846 34.359 29.692 33.0259 31.0252C31.6928 32.3583 29.8853 33.1082 28 33.1104ZM28 20.6659C27.8832 20.6659 27.7676 20.6888 27.6598 20.7335C27.5519 20.7782 27.4539 20.8436 27.3714 20.9262C27.2888 21.0087 27.2233 21.1067 27.1787 21.2146C27.134 21.3225 27.1111 21.4381 27.1111 21.5548V25.7761L25.8828 28.0674C25.7715 28.2753 25.7473 28.5189 25.8156 28.7446C25.8839 28.9703 26.039 29.1596 26.2469 29.2709C26.4548 29.3823 26.6984 29.4064 26.9241 29.3381C27.1498 29.2698 27.3392 29.1147 27.4505 28.9068L28.7838 26.4189C28.8527 26.2898 28.8887 26.1456 28.8889 25.9992V21.5548C28.8889 21.4381 28.8659 21.3225 28.8213 21.2146C28.7766 21.1067 28.7111 21.0087 28.6286 20.9262C28.546 20.8436 28.448 20.7782 28.3402 20.7335C28.2323 20.6888 28.1167 20.6659 28 20.6659Z" fill="white"/>
</g>
<defs>
<filter id="filter0_d_6030_30371" x="0" y="0" width="56" height="56" filterUnits="userSpaceOnUse" color-interpolation-filters="sRGB">
<feFlood flood-opacity="0" result="BackgroundImageFix"/>
<feColorMatrix in="SourceAlpha" type="matrix" values="0 0 0 0 0 0 0 0 0 0 0 0 0 0 0 0 0 0 127 0" result="hardAlpha"/>
<feOffset dy="2"/>
<feGaussianBlur stdDeviation="6"/>
<feComposite in2="hardAlpha" operator="out"/>
<feColorMatrix type="matrix" values="0 0 0 0 0 0 0 0 0 0 0 0 0 0 0 0 0 0 0.4 0"/>
<feBlend mode="normal" in2="BackgroundImageFix" result="effect1_dropShadow_6030_30371"/>
<feBlend mode="normal" in="SourceGraphic" in2="effect1_dropShadow_6030_30371" result="shape"/>
</filter>
</defs>
</svg>
