<svg width="56" height="56" viewBox="0 0 56 56" fill="none" xmlns="http://www.w3.org/2000/svg">
<g filter="url(#filter0_d_6030_30430)">
<circle cx="28" cy="26" r="16" fill="#DA567E"/>
<path d="M33.3334 24.1278C33.3334 23.892 33.2398 23.6659 33.0731 23.4992C32.9064 23.3325 32.6803 23.2389 32.4445 23.2389H22.1423L24.1867 21.2033C24.3541 21.0359 24.4482 20.8089 24.4482 20.5722C24.4482 20.3355 24.3541 20.1085 24.1867 19.9411C24.0194 19.7737 23.7923 19.6797 23.5556 19.6797C23.3189 19.6797 23.0919 19.7737 22.9245 19.9411L19.369 23.4967C19.2456 23.6217 19.1621 23.7804 19.1288 23.9528C19.0956 24.1253 19.1142 24.3037 19.1823 24.4655C19.249 24.6279 19.3622 24.7668 19.5077 24.8649C19.6533 24.963 19.8246 25.0158 20.0001 25.0167H32.4445C32.6803 25.0167 32.9064 24.923 33.0731 24.7563C33.2398 24.5896 33.3334 24.3635 33.3334 24.1278ZM36.8178 27.3455C36.7512 27.1832 36.6379 27.0443 36.4924 26.9462C36.3469 26.8481 36.1756 26.7953 36.0001 26.7944H23.5556C23.3199 26.7944 23.0938 26.8881 22.9271 27.0548C22.7604 27.2215 22.6667 27.4476 22.6667 27.6833C22.6667 27.9191 22.7604 28.1452 22.9271 28.3119C23.0938 28.4786 23.3199 28.5722 23.5556 28.5722H33.8578L31.8134 30.6078C31.7301 30.6904 31.664 30.7887 31.6188 30.897C31.5737 31.0054 31.5505 31.1215 31.5505 31.2389C31.5505 31.3562 31.5737 31.4724 31.6188 31.5807C31.664 31.689 31.7301 31.7874 31.8134 31.87C31.896 31.9533 31.9943 32.0194 32.1027 32.0646C32.211 32.1097 32.3272 32.1329 32.4445 32.1329C32.5619 32.1329 32.678 32.1097 32.7864 32.0646C32.8947 32.0194 32.993 31.9533 33.0756 31.87L36.6312 28.3144C36.7545 28.1894 36.8381 28.0307 36.8713 27.8583C36.9045 27.6858 36.8859 27.5074 36.8178 27.3455Z" fill="white"/>
</g>
<defs>
<filter id="filter0_d_6030_30430" x="0" y="0" width="56" height="56" filterUnits="userSpaceOnUse" color-interpolation-filters="sRGB">
<feFlood flood-opacity="0" result="BackgroundImageFix"/>
<feColorMatrix in="SourceAlpha" type="matrix" values="0 0 0 0 0 0 0 0 0 0 0 0 0 0 0 0 0 0 127 0" result="hardAlpha"/>
<feOffset dy="2"/>
<feGaussianBlur stdDeviation="6"/>
<feComposite in2="hardAlpha" operator="out"/>
<feColorMatrix type="matrix" values="0 0 0 0 0 0 0 0 0 0 0 0 0 0 0 0 0 0 0.4 0"/>
<feBlend mode="normal" in2="BackgroundImageFix" result="effect1_dropShadow_6030_30430"/>
<feBlend mode="normal" in="SourceGraphic" in2="effect1_dropShadow_6030_30430" result="shape"/>
</filter>
</defs>
</svg>
