<svg width="56" height="56" viewBox="0 0 56 56" fill="none" xmlns="http://www.w3.org/2000/svg">
<g filter="url(#filter0_d_6030_30392)">
<circle cx="28" cy="26" r="16" fill="#1BA27A"/>
<path d="M33.6537 19.2305H22.291V21.9736H26.6008V26.0056H29.344V21.9736H33.6537V19.2305Z" fill="white"/>
<path d="M27.9987 26.4352C24.4335 26.4352 21.5431 25.8709 21.5431 25.1748C21.5431 24.4788 24.4334 23.9145 27.9987 23.9145C31.5639 23.9145 34.4542 24.4788 34.4542 25.1748C34.4542 25.8709 31.5639 26.4352 27.9987 26.4352ZM35.2472 25.3849C35.2472 24.4873 32.002 23.7598 27.9987 23.7598C23.9955 23.7598 20.75 24.4873 20.75 25.3849C20.75 26.1754 23.2665 26.8339 26.6012 26.9798V32.7678H29.3441V26.9821C32.7045 26.8408 35.2472 26.1794 35.2472 25.3849Z" fill="white"/>
</g>
<defs>
<filter id="filter0_d_6030_30392" x="0" y="0" width="56" height="56" filterUnits="userSpaceOnUse" color-interpolation-filters="sRGB">
<feFlood flood-opacity="0" result="BackgroundImageFix"/>
<feColorMatrix in="SourceAlpha" type="matrix" values="0 0 0 0 0 0 0 0 0 0 0 0 0 0 0 0 0 0 127 0" result="hardAlpha"/>
<feOffset dy="2"/>
<feGaussianBlur stdDeviation="6"/>
<feComposite in2="hardAlpha" operator="out"/>
<feColorMatrix type="matrix" values="0 0 0 0 0 0 0 0 0 0 0 0 0 0 0 0 0 0 0.4 0"/>
<feBlend mode="normal" in2="BackgroundImageFix" result="effect1_dropShadow_6030_30392"/>
<feBlend mode="normal" in="SourceGraphic" in2="effect1_dropShadow_6030_30392" result="shape"/>
</filter>
</defs>
</svg>
