<svg width="56" height="56" viewBox="0 0 56 56" fill="none" xmlns="http://www.w3.org/2000/svg">
<g filter="url(#filter0_d_6030_30411)">
<circle cx="28" cy="26" r="16" fill="url(#paint0_linear_6030_30411)"/>
<path d="M33.9343 19.5047C33.8439 19.4316 33.7383 19.3797 33.6252 19.3528C33.5122 19.3259 33.3945 19.3246 33.2809 19.3492C32.4498 19.5233 31.5919 19.5256 30.7599 19.3557C29.9279 19.1858 29.1394 18.8474 28.4431 18.3614C28.313 18.2711 28.1583 18.2227 27.9998 18.2227C27.8414 18.2227 27.6867 18.2711 27.5565 18.3614C26.8602 18.8474 26.0718 19.1858 25.2398 19.3557C24.4078 19.5256 23.5498 19.5233 22.7187 19.3492C22.6051 19.3246 22.4874 19.3259 22.3744 19.3528C22.2613 19.3797 22.1557 19.4316 22.0654 19.5047C21.9751 19.5779 21.9024 19.6704 21.8526 19.7754C21.8028 19.8804 21.7772 19.9952 21.7776 20.1114V25.9058C21.7769 27.021 22.0426 28.1201 22.5527 29.1118C23.0627 30.1035 23.8023 30.9589 24.7098 31.6069L27.5487 33.6292C27.6804 33.7229 27.8381 33.7733 27.9998 33.7733C28.1615 33.7733 28.3192 33.7229 28.4509 33.6292L31.2898 31.6069C32.1973 30.9589 32.9369 30.1035 33.447 29.1118C33.957 28.1201 34.2227 27.021 34.222 25.9058V20.1114C34.2224 19.9952 34.1968 19.8804 34.147 19.7754C34.0972 19.6704 34.0245 19.5779 33.9343 19.5047ZM32.6665 25.9058C32.6671 26.7729 32.4606 27.6275 32.0642 28.3986C31.6678 29.1697 31.093 29.835 30.3876 30.3392L27.9998 32.0425L25.612 30.3392C24.9066 29.835 24.3318 29.1697 23.9354 28.3986C23.539 27.6275 23.3326 26.7729 23.3331 25.9058V21.0058C24.9637 21.1454 26.5967 20.7671 27.9998 19.9247C29.4029 20.7671 31.0359 21.1454 32.6665 21.0058V25.9058Z" fill="white"/>
</g>
<defs>
<filter id="filter0_d_6030_30411" x="0" y="0" width="56" height="56" filterUnits="userSpaceOnUse" color-interpolation-filters="sRGB">
<feFlood flood-opacity="0" result="BackgroundImageFix"/>
<feColorMatrix in="SourceAlpha" type="matrix" values="0 0 0 0 0 0 0 0 0 0 0 0 0 0 0 0 0 0 127 0" result="hardAlpha"/>
<feOffset dy="2"/>
<feGaussianBlur stdDeviation="6"/>
<feComposite in2="hardAlpha" operator="out"/>
<feColorMatrix type="matrix" values="0 0 0 0 0 0 0 0 0 0 0 0 0 0 0 0 0 0 0.4 0"/>
<feBlend mode="normal" in2="BackgroundImageFix" result="effect1_dropShadow_6030_30411"/>
<feBlend mode="normal" in="SourceGraphic" in2="effect1_dropShadow_6030_30411" result="shape"/>
</filter>
<linearGradient id="paint0_linear_6030_30411" x1="28" y1="9" x2="28" y2="42" gradientUnits="userSpaceOnUse">
<stop stop-color="#5CCED6"/>
<stop offset="1" stop-color="#5CCED6" stop-opacity="0.7"/>
</linearGradient>
</defs>
</svg>
