<svg width="18" height="18" viewBox="0 0 18 18" fill="none" xmlns="http://www.w3.org/2000/svg">
<circle cx="9" cy="9" r="9" fill="url(#paint0_linear_2120_11913)"/>
<path d="M8.34384 2.73929C6.9718 2.73929 5.7529 3.6214 5.32812 4.92413C4.446 5.10568 3.68444 5.65726 3.23818 6.43889C2.55008 7.62659 2.70738 9.11987 3.62901 10.1378C3.3442 10.9908 3.44191 11.9235 3.89649 12.6961C4.58043 13.888 5.95663 14.4992 7.30303 14.2151C7.89966 14.8872 8.75684 15.2704 9.65629 15.2669C11.0283 15.2669 12.2472 14.3848 12.6727 13.0821C13.5562 12.8999 14.3164 12.3483 14.7585 11.568C15.4507 10.3803 15.2934 8.88705 14.3718 7.86843V7.86427C14.6566 7.01126 14.5589 6.07787 14.1043 5.30178C13.4204 4.11408 12.0442 3.50291 10.702 3.78702C10.1019 3.11625 9.24329 2.73513 8.34384 2.73929ZM8.34384 3.55349L8.33969 3.55765C8.89197 3.55765 9.42277 3.74821 9.84755 4.10092C9.83022 4.10923 9.79627 4.13071 9.77132 4.14319L7.27323 5.58173C7.14573 5.65379 7.06951 5.78961 7.06951 5.9379V9.31459L5.99474 8.6951V5.90394C5.99405 4.60746 7.04525 3.55557 8.34384 3.55349ZM11.3526 4.53678C12.1953 4.53539 12.9741 4.98372 13.3948 5.71339C13.6664 6.18874 13.7683 6.74448 13.6747 7.28289C13.6574 7.27042 13.6241 7.2531 13.6026 7.24062L11.1053 5.79792C10.9778 5.72586 10.8211 5.72586 10.6936 5.79792L7.76662 7.48662V6.24764L10.1829 4.85206C10.5384 4.64626 10.9417 4.53747 11.3526 4.53678ZM5.17498 5.81871V8.7838C5.17498 8.93209 5.2512 9.06375 5.37871 9.13997L8.30088 10.8238L7.22196 11.4475L4.8091 10.056C3.68652 9.40606 3.30263 7.97098 3.95123 6.84911C4.22633 6.37376 4.65873 6.00927 5.17498 5.81871ZM10.7733 6.55323L13.1903 7.94465C14.3164 8.59393 14.6982 10.0276 14.0482 11.1516L14.0524 11.1557C13.7766 11.6311 13.3428 11.9956 12.8293 12.1827V9.21689C12.8293 9.0686 12.7531 8.93278 12.6256 8.86071L9.69926 7.17202L10.7733 6.55323ZM8.99799 7.57531L10.2301 8.28765V9.70887L8.99799 10.4212L7.76592 9.70887V8.28765L8.99799 7.57531ZM10.9348 8.6951L12.0096 9.31459V12.1016C12.0096 13.3995 10.9563 14.452 9.66045 14.452V14.4479C9.11233 14.4479 8.57737 14.2566 8.15675 13.9046C8.17407 13.8963 8.21218 13.8748 8.23297 13.8623L10.7304 12.4245C10.8579 12.3524 10.9383 12.2166 10.9341 12.0683L10.9348 8.6951ZM10.2335 10.5196V11.7586L7.81651 13.15C6.69046 13.7951 5.25536 13.4133 4.60537 12.2928H4.60953C4.33374 11.8216 4.23534 11.2617 4.32889 10.7233C4.34621 10.7358 4.38017 10.7531 4.40095 10.7656L6.89835 12.2083C7.02585 12.2804 7.18246 12.2804 7.30996 12.2083L10.2335 10.5196Z" fill="white"/>
<defs>
<linearGradient id="paint0_linear_2120_11913" x1="9" y1="0" x2="9" y2="18" gradientUnits="userSpaceOnUse">
<stop stop-color="#EDCD5C"/>
<stop offset="1" stop-color="#EDCD5C" stop-opacity="0.7"/>
</linearGradient>
</defs>
</svg>
