<svg width="18" height="18" viewBox="0 0 18 18" fill="none" xmlns="http://www.w3.org/2000/svg">
<circle cx="9" cy="9" r="9" fill="url(#paint0_linear_2120_11892)"/>
<path d="M9 3.99976C8.0111 3.99976 7.0444 4.293 6.22215 4.84241C5.39991 5.39181 4.75904 6.17271 4.3806 7.08634C4.00217 7.99997 3.90315 9.0053 4.09608 9.97521C4.289 10.9451 4.76521 11.836 5.46447 12.5353C6.16373 13.2346 7.05465 13.7108 8.02455 13.9037C8.99446 14.0966 9.99979 13.9976 10.9134 13.6192C11.8271 13.2407 12.6079 12.5999 13.1573 11.7776C13.7068 10.9554 14 9.98866 14 8.99976C13.9985 7.67414 13.4712 6.40325 12.5339 5.4659C11.5965 4.52854 10.3256 4.00127 9 3.99976ZM9 12.9998C8.20888 12.9998 7.43552 12.7652 6.77772 12.3256C6.11992 11.8861 5.60723 11.2614 5.30448 10.5305C5.00173 9.79958 4.92252 8.99532 5.07686 8.21939C5.2312 7.44347 5.61216 6.73074 6.17158 6.17133C6.73099 5.61192 7.44372 5.23096 8.21964 5.07661C8.99557 4.92227 9.79983 5.00149 10.5307 5.30424C11.2616 5.60699 11.8864 6.11968 12.3259 6.77747C12.7654 7.43527 13 8.20863 13 8.99976C12.9988 10.0602 12.577 11.077 11.8271 11.8268C11.0772 12.5767 10.0605 12.9985 9 12.9998ZM9 5.99976C8.93434 5.99974 8.86931 6.01266 8.80864 6.03778C8.74797 6.0629 8.69284 6.09973 8.64641 6.14616C8.59998 6.1926 8.56315 6.24772 8.53803 6.30839C8.51291 6.36906 8.49999 6.43409 8.5 6.49976V8.87426L7.80908 10.1631C7.74647 10.28 7.73287 10.417 7.77129 10.544C7.8097 10.671 7.89698 10.7775 8.01392 10.8401C8.13086 10.9027 8.26788 10.9163 8.39484 10.8779C8.52181 10.8395 8.62831 10.7522 8.69092 10.6353L9.44092 9.23584C9.47965 9.16317 9.49993 9.0821 9.5 8.99976V6.49976C9.50002 6.43409 9.4871 6.36906 9.46198 6.30839C9.43686 6.24772 9.40003 6.1926 9.35359 6.14616C9.30716 6.09973 9.25203 6.0629 9.19136 6.03778C9.13069 6.01266 9.06567 5.99974 9 5.99976Z" fill="white"/>
<defs>
<linearGradient id="paint0_linear_2120_11892" x1="9" y1="0" x2="9" y2="18" gradientUnits="userSpaceOnUse">
<stop stop-color="#5478D4"/>
<stop offset="1" stop-color="#5478D4" stop-opacity="0.7"/>
</linearGradient>
</defs>
</svg>
