<svg width="18" height="18" viewBox="0 0 18 18" fill="none" xmlns="http://www.w3.org/2000/svg">
<circle cx="9" cy="9" r="9" fill="url(#paint0_linear_2120_11899)"/>
<g clip-path="url(#clip0_2120_11899)">
<path d="M12.4399 12.3806H8.23987C8.13029 12.3813 8.02478 12.3391 7.94586 12.263L6.52592 10.8737C6.43728 10.787 6.3182 10.7384 6.19419 10.7384H6.13985C5.90789 10.7384 5.71985 10.5504 5.71985 10.3184C5.71985 10.0864 5.90789 9.89839 6.13985 9.89839H6.55985C6.66799 9.89881 6.7718 9.94094 6.84966 10.016L8.18923 11.3267C8.32939 11.4638 8.51767 11.5406 8.71375 11.5406H12.4399C12.5513 11.5406 12.6581 11.4963 12.7369 11.4176C12.8156 11.3388 12.8599 11.232 12.8599 11.1206C12.8599 11.0092 12.8156 10.9024 12.7369 10.8236C12.6581 10.7449 12.5513 10.7006 12.4399 10.7006H10.3399V9.8606H12.4399C12.7741 9.8606 13.0946 9.99336 13.3308 10.2296C13.5671 10.4659 13.6999 10.7864 13.6999 11.1206C13.6999 11.4547 13.5671 11.7752 13.3308 12.0115C13.0946 12.2478 12.7741 12.3806 12.4399 12.3806Z" fill="white"/>
<path d="M9.49988 11.1206C9.33376 11.121 9.16921 11.0886 9.01565 11.0252C8.86214 10.9617 8.72266 10.8685 8.60527 10.751L8.27347 10.4192C8.10895 10.2547 8.10942 9.98782 8.27452 9.82388C8.4388 9.66076 8.70407 9.66122 8.86777 9.82493L9.20167 10.1588C9.24082 10.1977 9.28727 10.2285 9.33834 10.2494C9.38937 10.2704 9.44406 10.281 9.49925 10.2808C9.55443 10.2807 9.60908 10.2696 9.65998 10.2483C9.71088 10.227 9.75708 10.1959 9.79598 10.1567C9.83487 10.1175 9.86566 10.0711 9.88657 10.0201C9.90753 9.96899 9.9182 9.9143 9.91799 9.85911C9.91782 9.80393 9.90673 9.74933 9.88544 9.69842C9.86414 9.64752 9.83306 9.60132 9.79388 9.56243L8.66954 8.43809C8.52888 8.29744 8.33812 8.21843 8.13921 8.21843H6.13985C5.90789 8.21843 5.71985 8.03039 5.71985 7.79843C5.71985 7.56647 5.90789 7.37843 6.13985 7.37843H8.62207C8.67734 7.37809 8.73211 7.38867 8.78331 7.40959C8.83446 7.43051 8.88104 7.46129 8.92027 7.50023L10.3903 8.97023C10.5663 9.14642 10.6861 9.37086 10.7346 9.61509C10.7832 9.85937 10.7582 10.1125 10.6629 10.3427C10.5676 10.5727 10.4063 10.7695 10.1993 10.9079C9.99233 11.0464 9.74894 11.1204 9.49988 11.1206Z" fill="white"/>
<path d="M5.29565 10.9443C5.29565 11.2923 5.01359 11.5743 4.66565 11.5743H4.45564C4.22369 11.5743 4.03564 11.3863 4.03564 11.1543V10.9443C4.03564 10.8284 4.12967 10.7343 4.24565 10.7343C4.36163 10.7343 4.45565 10.6403 4.45565 10.5243V8.00435C4.45565 7.88837 4.36163 7.79435 4.24565 7.79435C4.12967 7.79435 4.03564 7.70033 4.03564 7.58434V7.37435C4.03564 7.14239 4.22368 6.95435 4.45564 6.95435H4.66565C5.01359 6.95435 5.29565 7.23641 5.29565 7.58435V10.9443Z" fill="white"/>
<path d="M11.5998 8.6004C11.2675 8.6004 10.9427 8.50187 10.6664 8.31728C10.3902 8.13265 10.1748 7.87028 10.0477 7.5633C9.92052 7.25632 9.88725 6.91851 9.9521 6.59264C10.0169 6.26676 10.1769 5.96741 10.4119 5.73246C10.6468 5.49751 10.9462 5.33751 11.272 5.27269C11.598 5.20786 11.9357 5.24112 12.2427 5.36828C12.5497 5.49543 12.8121 5.71076 12.9967 5.98704C13.1813 6.26331 13.2798 6.58814 13.2798 6.9204C13.2798 7.36598 13.1028 7.79329 12.7878 8.10833C12.4727 8.42342 12.0454 8.6004 11.5998 8.6004ZM11.5998 6.0804C11.4337 6.0804 11.2713 6.12967 11.1331 6.22197C10.995 6.31427 10.8873 6.44545 10.8237 6.59894C10.7602 6.75245 10.7435 6.92133 10.7759 7.08429C10.8084 7.24721 10.8884 7.39689 11.0058 7.51437C11.1233 7.63184 11.273 7.71185 11.4359 7.74428C11.5989 7.77666 11.7678 7.76003 11.9213 7.69644C12.0748 7.63289 12.206 7.5252 12.2982 7.38707C12.3906 7.24893 12.4398 7.08656 12.4398 6.9204C12.4398 6.69764 12.3513 6.48394 12.1938 6.32643C12.0362 6.1689 11.8226 6.0804 11.5998 6.0804Z" fill="white"/>
</g>
<defs>
<linearGradient id="paint0_linear_2120_11899" x1="9" y1="0" x2="9" y2="18" gradientUnits="userSpaceOnUse">
<stop stop-color="#C75DD0"/>
<stop offset="1" stop-color="#C75DD0" stop-opacity="0.7"/>
</linearGradient>
<clipPath id="clip0_2120_11899">
<rect width="10.0801" height="10.5" fill="white" transform="translate(3.75 2.25)"/>
</clipPath>
</defs>
</svg>
