<svg width="18" height="18" viewBox="0 0 18 18" fill="none" xmlns="http://www.w3.org/2000/svg">
<circle cx="9" cy="9" r="9" fill="url(#paint0_linear_2120_11920)"/>
<path d="M12.9683 7.71856C13.1475 6.521 12.2356 5.87722 10.9889 5.44775L11.3933 3.8255L10.4058 3.57941L10.0121 5.15891C9.75249 5.09422 9.48586 5.03319 9.22093 4.97272L9.61749 3.38281L8.63058 3.13672L8.22586 4.75841C8.01099 4.70947 7.80005 4.66109 7.5953 4.61019L7.59643 4.60513L6.23461 4.26509L5.97193 5.31978C5.97193 5.31978 6.70458 5.48769 6.68912 5.49809C7.08905 5.59794 7.16133 5.86259 7.14924 6.07241L6.68855 7.9205C6.71611 7.92753 6.75183 7.93766 6.79121 7.95341C6.7583 7.94525 6.72315 7.93625 6.68686 7.92753L6.04111 10.5164C5.99218 10.6379 5.86815 10.8202 5.58858 10.751C5.59843 10.7653 4.87083 10.5718 4.87083 10.5718L4.38062 11.7022L5.66565 12.0225C5.90471 12.0824 6.13899 12.1452 6.36962 12.2042L5.96096 13.845L6.9473 14.0911L7.35202 12.4678C7.62146 12.5409 7.88302 12.6084 8.13896 12.6719L7.73565 14.2877L8.72311 14.5338L9.13177 12.8961C10.8156 13.2148 12.0818 13.0862 12.6148 11.5632C13.0442 10.337 12.5934 9.62966 11.7075 9.16841C12.3526 9.01962 12.8386 8.59522 12.9683 7.71856ZM10.7121 10.8823C10.407 12.1086 8.3423 11.4457 7.67293 11.2795L8.21518 9.10569C8.88455 9.27275 11.0311 9.6035 10.7121 10.8823ZM11.0176 7.70084C10.7391 8.81628 9.02068 8.24956 8.46324 8.11062L8.95486 6.13906C9.5123 6.278 11.3075 6.53731 11.0176 7.70084Z" fill="white"/>
<defs>
<linearGradient id="paint0_linear_2120_11920" x1="9" y1="0" x2="9" y2="18" gradientUnits="userSpaceOnUse">
<stop stop-color="#E99C55"/>
<stop offset="1" stop-color="#E99C55" stop-opacity="0.7"/>
</linearGradient>
</defs>
</svg>
