<svg width="18" height="18" viewBox="0 0 18 18" fill="none" xmlns="http://www.w3.org/2000/svg">
<circle cx="9" cy="9" r="9" fill="url(#paint0_linear_2120_11885)"/>
<path d="M11.9999 7.94684C11.9999 7.81423 11.9473 7.68705 11.8535 7.59329C11.7597 7.49952 11.6326 7.44684 11.4999 7.44684H5.70495L6.85495 6.30184C6.9491 6.20769 7.00199 6.07999 7.00199 5.94684C7.00199 5.81369 6.9491 5.68599 6.85495 5.59184C6.7608 5.49769 6.6331 5.44479 6.49995 5.44479C6.3668 5.44479 6.2391 5.49769 6.14495 5.59184L4.14495 7.59184C4.07557 7.66215 4.02857 7.75144 4.00988 7.84843C3.9912 7.94543 4.00166 8.04578 4.03995 8.13684C4.07746 8.22815 4.14116 8.30631 4.22302 8.36148C4.30488 8.41665 4.40124 8.44635 4.49995 8.44684H11.4999C11.6326 8.44684 11.7597 8.39416 11.8535 8.30039C11.9473 8.20662 11.9999 8.07945 11.9999 7.94684ZM13.9599 9.75684C13.9224 9.66553 13.8587 9.58737 13.7769 9.5322C13.695 9.47703 13.5987 9.44733 13.4999 9.44684H6.49995C6.36734 9.44684 6.24016 9.49952 6.14639 9.59329C6.05263 9.68705 5.99995 9.81423 5.99995 9.94684C5.99995 10.0794 6.05263 10.2066 6.14639 10.3004C6.24016 10.3942 6.36734 10.4468 6.49995 10.4468H12.2949L11.1449 11.5918C11.0981 11.6383 11.0609 11.6936 11.0355 11.7546C11.0101 11.8155 10.997 11.8808 10.997 11.9468C10.997 12.0128 11.0101 12.0782 11.0355 12.1391C11.0609 12.2001 11.0981 12.2554 11.1449 12.3018C11.1914 12.3487 11.2467 12.3859 11.3077 12.4113C11.3686 12.4367 11.4339 12.4497 11.4999 12.4497C11.566 12.4497 11.6313 12.4367 11.6922 12.4113C11.7532 12.3859 11.8085 12.3487 11.8549 12.3018L13.8549 10.3018C13.9243 10.2315 13.9713 10.1422 13.99 10.0452C14.0087 9.94825 13.9982 9.8479 13.9599 9.75684Z" fill="white"/>
<defs>
<linearGradient id="paint0_linear_2120_11885" x1="9" y1="0" x2="9" y2="18" gradientUnits="userSpaceOnUse">
<stop stop-color="#DA567E"/>
<stop offset="1" stop-color="#DA567E" stop-opacity="0.7"/>
</linearGradient>
</defs>
</svg>
