<svg width="18" height="18" viewBox="0 0 18 18" fill="none" xmlns="http://www.w3.org/2000/svg">
<circle cx="9" cy="9" r="9" fill="url(#paint0_linear_2120_11906)"/>
<path d="M12.1802 5.19186H5.7887V6.7349H8.21295V9.0029H9.75598V6.7349H12.1802V5.19186Z" fill="white"/>
<path d="M8.99926 9.2445C6.99385 9.2445 5.36798 8.92712 5.36798 8.53555C5.36798 8.14405 6.99378 7.8266 8.99926 7.8266C11.0047 7.8266 12.6305 8.14405 12.6305 8.53555C12.6305 8.92712 11.0047 9.2445 8.99926 9.2445ZM13.0766 8.65374C13.0766 8.14885 11.2511 7.73959 8.99926 7.73959C6.74747 7.73959 4.92188 8.14885 4.92188 8.65374C4.92188 9.09837 6.33741 9.4688 8.21316 9.55088V12.8066H9.75607V9.55217C11.6463 9.47265 13.0766 9.10066 13.0766 8.65374Z" fill="white"/>
<defs>
<linearGradient id="paint0_linear_2120_11906" x1="9" y1="0" x2="9" y2="18" gradientUnits="userSpaceOnUse">
<stop stop-color="#1BA27A"/>
<stop offset="1" stop-color="#1BA27A" stop-opacity="0.7"/>
</linearGradient>
</defs>
</svg>
