<svg width="18" height="18" viewBox="0 0 18 18" fill="none" xmlns="http://www.w3.org/2000/svg">
<circle cx="9" cy="9" r="9" fill="url(#paint0_linear_2120_11965)"/>
<path d="M12.3381 5.34701C12.2873 5.30589 12.2279 5.27669 12.1643 5.26155C12.1007 5.24641 12.0345 5.24571 11.9706 5.25951C11.5031 5.35749 11.0205 5.35873 10.5525 5.26318C10.0845 5.16762 9.64105 4.97728 9.24938 4.70389C9.17614 4.65308 9.08914 4.62585 9 4.62585C8.91087 4.62585 8.82386 4.65308 8.75063 4.70389C8.35896 4.97728 7.91547 5.16762 7.44748 5.26318C6.97948 5.35873 6.49687 5.35749 6.02938 5.25951C5.96548 5.24571 5.89929 5.24641 5.8357 5.26155C5.7721 5.27669 5.7127 5.30589 5.66188 5.34701C5.61112 5.38819 5.57023 5.44021 5.54222 5.49927C5.51421 5.55832 5.49978 5.6229 5.5 5.68826V8.94763C5.49961 9.5749 5.64909 10.1932 5.93599 10.751C6.22288 11.3088 6.63889 11.79 7.14938 12.1545L8.74625 13.292C8.82035 13.3448 8.90904 13.3731 9 13.3731C9.09096 13.3731 9.17966 13.3448 9.25375 13.292L10.8506 12.1545C11.3611 11.79 11.7771 11.3088 12.064 10.751C12.3509 10.1932 12.5004 9.5749 12.5 8.94763V5.68826C12.5002 5.6229 12.4858 5.55832 12.4578 5.49927C12.4298 5.44021 12.3889 5.38819 12.3381 5.34701ZM11.625 8.94763C11.6253 9.43534 11.5092 9.91608 11.2862 10.3498C11.0633 10.7836 10.7399 11.1578 10.3431 11.4414L9 12.3995L7.65688 11.4414C7.26008 11.1578 6.93675 10.7836 6.71378 10.3498C6.49081 9.91608 6.37467 9.43534 6.375 8.94763V6.19138C7.29219 6.26989 8.21077 6.05708 9 5.58326C9.78923 6.05708 10.7078 6.26989 11.625 6.19138V8.94763Z" fill="white"/>
<defs>
<linearGradient id="paint0_linear_2120_11965" x1="9" y1="-0.5625" x2="9" y2="18" gradientUnits="userSpaceOnUse">
<stop stop-color="#5CCED6"/>
<stop offset="1" stop-color="#5CCED6" stop-opacity="0.7"/>
</linearGradient>
</defs>
</svg>
