<svg width="243" height="36" viewBox="0 0 243 36" fill="none" xmlns="http://www.w3.org/2000/svg">
<g clip-path="url(#clip0_5399_22705)">
<path d="M35.4594 22.3547C33.0553 31.9976 23.2886 37.8661 13.6445 35.4615C4.0044 33.0573 -1.86416 23.2901 0.541087 13.6477C2.94409 4.00365 12.7108 -1.86548 22.352 0.538648C31.9955 2.94277 37.8635 12.7112 35.4594 22.3547Z" fill="#F7931A"/>
<path d="M25.9361 15.4361C26.2944 13.041 24.4708 11.7535 21.9772 10.8945L22.7861 7.65002L20.8112 7.15784L20.0237 10.3168C19.5045 10.1875 18.9712 10.0654 18.4414 9.94446L19.2345 6.76465L17.2607 6.27246L16.4512 9.51584C16.0215 9.41796 15.5996 9.32121 15.1901 9.2194L15.1924 9.20927L12.4687 8.52921L11.9434 10.6386C11.9434 10.6386 13.4087 10.9744 13.3777 10.9952C14.1776 11.1949 14.3222 11.7242 14.298 12.1438L13.3766 15.84C13.4317 15.8541 13.5032 15.8743 13.5819 15.9058C13.5161 15.8895 13.4458 15.8715 13.3732 15.8541L12.0817 21.0319C11.9839 21.2749 11.7358 21.6394 11.1767 21.501C11.1964 21.5297 9.74118 21.1427 9.74118 21.1427L8.76074 23.4034L11.3308 24.0441C11.8089 24.1639 12.2775 24.2893 12.7387 24.4075L11.9214 27.6891L13.8941 28.1813L14.7036 24.9345C15.2424 25.0808 15.7656 25.2158 16.2774 25.3429L15.4708 28.5745L17.4457 29.0667L18.2631 25.7912C21.6307 26.4285 24.1631 26.1715 25.2291 23.1255C26.088 20.673 25.1863 19.2583 23.4144 18.3358C24.7048 18.0383 25.6768 17.1895 25.9361 15.4361ZM21.4237 21.7637C20.8134 24.2162 16.6841 22.8904 15.3454 22.558L16.4299 18.2104C17.7686 18.5445 22.0616 19.206 21.4237 21.7637ZM22.0346 15.4007C21.4777 17.6316 18.0409 16.4981 16.926 16.2203L17.9092 12.2771C19.0241 12.555 22.6146 13.0736 22.0346 15.4007Z" fill="white"/>
</g>
<path d="M53.6057 26.7463C52.4346 26.7463 51.2343 26.6974 50.0046 26.5996C48.775 26.5017 47.6624 26.3452 46.667 26.13L51.3514 6.46541C52.4639 6.25017 53.6253 6.10342 54.8354 6.02516C56.065 5.94689 57.1873 5.90776 58.2023 5.90776C59.3734 5.90776 60.3786 6.03494 61.2179 6.28931C62.0767 6.52411 62.7696 6.84696 63.2966 7.25786C63.8431 7.66876 64.2432 8.15793 64.4969 8.72537C64.7702 9.27324 64.9068 9.86024 64.9068 10.4864C64.9068 10.9168 64.858 11.3669 64.7604 11.8365C64.6824 12.3061 64.5067 12.7757 64.2334 13.2453C63.9797 13.6953 63.6186 14.1258 63.1502 14.5367C62.7013 14.9476 62.106 15.3194 61.3643 15.652C62.2426 16.0433 62.8867 16.5814 63.2966 17.2662C63.7065 17.9315 63.9114 18.6751 63.9114 19.4969C63.9114 20.4361 63.726 21.3459 63.3551 22.2264C62.9843 23.0874 62.389 23.8602 61.5692 24.5451C60.7494 25.2103 59.6857 25.7484 58.378 26.1593C57.0702 26.5507 55.4795 26.7463 53.6057 26.7463ZM53.1959 17.5891L51.9369 22.8721C52.2492 22.9308 52.6396 22.9797 53.108 23.0189C53.596 23.0384 54.0449 23.0482 54.4548 23.0482C55.0403 23.0482 55.6161 23.0091 56.1822 22.9308C56.7677 22.833 57.2849 22.6667 57.7339 22.4319C58.2023 22.1971 58.5829 21.8742 58.8757 21.4633C59.1685 21.0524 59.3148 20.5241 59.3148 19.8784C59.3148 19.6045 59.2563 19.3305 59.1392 19.0566C59.0416 18.7827 58.8757 18.5381 58.6415 18.3229C58.4072 18.1076 58.0949 17.9315 57.7046 17.7945C57.3337 17.6576 56.8848 17.5891 56.3578 17.5891H53.1959ZM54.0449 14.1551H56.9141C58.0852 14.1551 58.9538 13.9008 59.5198 13.392C60.1053 12.8833 60.3981 12.2767 60.3981 11.5723C60.3981 11.2006 60.3103 10.8875 60.1346 10.6331C59.9785 10.3592 59.7638 10.144 59.4905 9.98742C59.2172 9.83089 58.905 9.72327 58.5536 9.66457C58.2023 9.5863 57.8412 9.54717 57.4704 9.54717C57.0605 9.54717 56.6213 9.56674 56.1529 9.60587C55.6844 9.62544 55.3331 9.65479 55.0989 9.69392L54.0449 14.1551Z" fill="white"/>
<path d="M70.1242 26.4822H65.7911L69.4508 11.044H73.8131L70.1242 26.4822ZM72.2321 9.16562C71.6271 9.16562 71.0806 8.98952 70.5926 8.63732C70.1046 8.26555 69.8607 7.7079 69.8607 6.96436C69.8607 6.55346 69.9387 6.17191 70.0949 5.81971C70.2705 5.44794 70.495 5.13487 70.7683 4.8805C71.0415 4.60657 71.3538 4.39133 71.7051 4.2348C72.076 4.07827 72.4663 4 72.8762 4C73.4813 4 74.0278 4.18588 74.5158 4.55765C75.0037 4.90985 75.2477 5.45772 75.2477 6.20126C75.2477 6.61216 75.1599 7.00349 74.9842 7.37526C74.8281 7.72746 74.6134 8.04053 74.3401 8.31447C74.0668 8.56883 73.7448 8.77428 73.3739 8.93082C73.0226 9.08735 72.642 9.16562 72.2321 9.16562Z" fill="white"/>
<path d="M78.2692 7.19916L82.8072 6.49476L81.6947 11.044H86.5547L85.6764 14.6247H80.8456L79.5574 20.0252C79.4403 20.4752 79.3623 20.8959 79.3232 21.2872C79.3037 21.6785 79.3525 22.021 79.4696 22.3145C79.6062 22.5884 79.8307 22.8036 80.143 22.9602C80.4553 23.1167 80.8847 23.195 81.4312 23.195C81.8996 23.195 82.3485 23.1558 82.778 23.0776C83.2269 22.9797 83.6758 22.8526 84.1247 22.696L84.4468 26.0419C83.8612 26.2572 83.2269 26.443 82.5437 26.5996C81.8606 26.7561 81.0506 26.8344 80.1137 26.8344C78.7669 26.8344 77.7227 26.6387 76.981 26.2474C76.2393 25.8365 75.7123 25.2886 75.4 24.6038C75.0877 23.8994 74.9511 23.0971 74.9902 22.1971C75.0292 21.297 75.1658 20.348 75.4 19.3501L78.2692 7.19916Z" fill="white"/>
<path d="M86.7119 20.3187C86.7119 18.9881 86.9266 17.7358 87.356 16.5618C87.7854 15.3878 88.4002 14.3606 89.2005 13.4801C90.0007 12.5996 90.9669 11.905 92.0989 11.3962C93.2505 10.8875 94.5289 10.6331 95.9343 10.6331C96.8126 10.6331 97.5933 10.7212 98.2765 10.8973C98.9791 11.0538 99.6135 11.269 100.179 11.543L98.6863 14.9476C98.296 14.7911 97.8861 14.6541 97.4567 14.5367C97.0468 14.3997 96.5393 14.3312 95.9343 14.3312C94.4704 14.3312 93.3188 14.8302 92.4795 15.8281C91.6402 16.8064 91.2206 18.1468 91.2206 19.8491C91.2206 20.847 91.4353 21.659 91.8647 22.2851C92.2941 22.8917 93.0846 23.195 94.2362 23.195C94.8022 23.195 95.3487 23.1363 95.8757 23.0189C96.4027 22.9015 96.8711 22.7547 97.281 22.5786L97.6031 26.0713C97.0566 26.2865 96.4515 26.4724 95.7879 26.6289C95.1438 26.805 94.3533 26.8931 93.4164 26.8931C92.2063 26.8931 91.1816 26.717 90.3423 26.3648C89.503 26.0126 88.8101 25.543 88.2636 24.956C87.7171 24.3494 87.3169 23.645 87.0632 22.8428C86.829 22.0405 86.7119 21.1992 86.7119 20.3187Z" fill="white"/>
<path d="M106.125 26.8931C105.091 26.8931 104.193 26.7365 103.432 26.4235C102.67 26.1104 102.036 25.6702 101.529 25.1027C101.041 24.5353 100.67 23.87 100.416 23.1069C100.162 22.3242 100.035 21.4633 100.035 20.5241C100.035 19.3501 100.221 18.1761 100.592 17.0021C100.982 15.8281 101.548 14.7715 102.29 13.8323C103.031 12.8931 103.939 12.13 105.013 11.543C106.086 10.9364 107.316 10.6331 108.702 10.6331C109.716 10.6331 110.605 10.7897 111.366 11.1027C112.146 11.4158 112.781 11.856 113.269 12.4235C113.776 12.9909 114.157 13.666 114.411 14.4486C114.664 15.2117 114.791 16.0629 114.791 17.0021C114.791 18.1761 114.606 19.3501 114.235 20.5241C113.864 21.6981 113.318 22.7547 112.595 23.6939C111.873 24.6331 110.966 25.406 109.873 26.0126C108.799 26.5996 107.55 26.8931 106.125 26.8931ZM108.292 14.3312C107.648 14.3312 107.081 14.5171 106.594 14.8889C106.106 15.2607 105.696 15.7303 105.364 16.2977C105.032 16.8651 104.778 17.4913 104.603 18.1761C104.447 18.8414 104.368 19.4773 104.368 20.0839C104.368 21.0818 104.525 21.8546 104.837 22.4025C105.149 22.9308 105.715 23.195 106.535 23.195C107.179 23.195 107.745 23.0091 108.233 22.6373C108.721 22.2655 109.131 21.7959 109.463 21.2285C109.795 20.6611 110.039 20.0447 110.195 19.3795C110.37 18.6946 110.458 18.0489 110.458 17.4423C110.458 16.4444 110.302 15.6813 109.99 15.153C109.677 14.6052 109.111 14.3312 108.292 14.3312Z" fill="white"/>
<path d="M120.302 26.4822H115.969L119.628 11.044H123.991L120.302 26.4822ZM122.41 9.16562C121.805 9.16562 121.258 8.98952 120.77 8.63732C120.282 8.26555 120.038 7.7079 120.038 6.96436C120.038 6.55346 120.116 6.17191 120.272 5.81971C120.448 5.44794 120.673 5.13487 120.946 4.8805C121.219 4.60657 121.531 4.39133 121.883 4.2348C122.254 4.07827 122.644 4 123.054 4C123.659 4 124.205 4.18588 124.693 4.55765C125.181 4.90985 125.425 5.45772 125.425 6.20126C125.425 6.61216 125.337 7.00349 125.162 7.37526C125.006 7.72746 124.791 8.04053 124.518 8.31447C124.244 8.56883 123.922 8.77428 123.552 8.93082C123.2 9.08735 122.82 9.16562 122.41 9.16562Z" fill="white"/>
<path d="M127.803 11.7484C128.135 11.6506 128.496 11.543 128.886 11.4256C129.296 11.2886 129.745 11.1712 130.233 11.0734C130.74 10.956 131.297 10.8679 131.902 10.8092C132.526 10.731 133.229 10.6918 134.01 10.6918C136.313 10.6918 137.894 11.3571 138.752 12.6876C139.611 14.0182 139.758 15.8379 139.192 18.1468L137.201 26.4822H132.838L134.771 18.3229C134.888 17.8141 134.976 17.3249 135.034 16.8553C135.112 16.3662 135.112 15.9455 135.034 15.5933C134.956 15.2215 134.771 14.928 134.478 14.7128C134.205 14.478 133.775 14.3606 133.19 14.3606C132.624 14.3606 132.048 14.4193 131.462 14.5367L128.623 26.4822H124.26L127.803 11.7484Z" fill="white"/>
<path d="M141.018 26.4822L145.878 6.14256H159.141L158.204 9.89937H149.509L148.572 14.0084H156.242L155.335 17.7065H147.664L146.493 22.696H155.862L154.925 26.4822H141.018Z" fill="white"/>
<path d="M177.842 6.14256L176.905 9.98742H170.962L167.009 26.4822H162.442L166.394 9.98742H160.451L161.388 6.14256H177.842Z" fill="white"/>
<path d="M175.785 26.4822L180.645 6.14256H193.791L192.854 9.92872H184.275L183.251 14.2725H190.834L189.926 18.0587H182.343L180.323 26.4822H175.785Z" fill="white"/>
<path d="M193.37 21.4633C194.053 21.4633 194.619 21.659 195.068 22.0503C195.536 22.4221 195.771 23.0189 195.771 23.8407C195.771 24.2907 195.683 24.7016 195.507 25.0734C195.351 25.4451 195.136 25.768 194.863 26.0419C194.59 26.2963 194.277 26.492 193.926 26.6289C193.575 26.7855 193.214 26.8637 192.843 26.8637C192.16 26.8637 191.584 26.6778 191.115 26.3061C190.666 25.9147 190.442 25.3082 190.442 24.4864C190.442 24.0363 190.52 23.6254 190.676 23.2537C190.852 22.8819 191.076 22.5688 191.35 22.3145C191.623 22.0405 191.935 21.8351 192.286 21.6981C192.638 21.5416 192.999 21.4633 193.37 21.4633Z" fill="white"/>
<path d="M204.508 26.8931C203.473 26.8931 202.575 26.7365 201.814 26.4235C201.053 26.1104 200.418 25.6702 199.911 25.1027C199.423 24.5353 199.052 23.87 198.798 23.1069C198.545 22.3242 198.418 21.4633 198.418 20.5241C198.418 19.3501 198.603 18.1761 198.974 17.0021C199.364 15.8281 199.93 14.7715 200.672 13.8323C201.414 12.8931 202.321 12.13 203.395 11.543C204.469 10.9364 205.698 10.6331 207.084 10.6331C208.099 10.6331 208.987 10.7897 209.748 11.1027C210.529 11.4158 211.163 11.856 211.651 12.4235C212.159 12.9909 212.539 13.666 212.793 14.4486C213.047 15.2117 213.174 16.0629 213.174 17.0021C213.174 18.1761 212.988 19.3501 212.617 20.5241C212.247 21.6981 211.7 22.7547 210.978 23.6939C210.256 24.6331 209.348 25.406 208.255 26.0126C207.182 26.5996 205.932 26.8931 204.508 26.8931ZM206.674 14.3312C206.03 14.3312 205.464 14.5171 204.976 14.8889C204.488 15.2607 204.078 15.7303 203.746 16.2977C203.415 16.8651 203.161 17.4913 202.985 18.1761C202.829 18.8414 202.751 19.4773 202.751 20.0839C202.751 21.0818 202.907 21.8546 203.219 22.4025C203.532 22.9308 204.098 23.195 204.917 23.195C205.562 23.195 206.128 23.0091 206.615 22.6373C207.103 22.2655 207.513 21.7959 207.845 21.2285C208.177 20.6611 208.421 20.0447 208.577 19.3795C208.753 18.6946 208.841 18.0489 208.841 17.4423C208.841 16.4444 208.684 15.6813 208.372 15.153C208.06 14.6052 207.494 14.3312 206.674 14.3312Z" fill="white"/>
<path d="M226.121 14.8008C225.73 14.703 225.34 14.615 224.95 14.5367C224.579 14.4389 224.022 14.3899 223.281 14.3899C223.008 14.3899 222.705 14.4193 222.373 14.478C222.041 14.5171 221.768 14.566 221.553 14.6247L218.713 26.4822H214.351L217.864 11.8658C218.704 11.5919 219.641 11.3375 220.675 11.1027C221.729 10.8484 222.91 10.7212 224.218 10.7212C224.706 10.7212 225.242 10.7701 225.828 10.8679C226.433 10.9462 226.96 11.0832 227.409 11.2788L226.121 14.8008Z" fill="white"/>
<path d="M239.651 24.5451C239.359 25.8169 238.968 26.9126 238.48 27.8323C238.012 28.7715 237.417 29.5444 236.694 30.1509C235.992 30.7771 235.143 31.2369 234.147 31.5304C233.152 31.8435 231.99 32 230.663 32C229.434 32 228.399 31.8826 227.56 31.6478C226.721 31.4326 225.959 31.1586 225.276 30.826L226.74 27.3627C227.345 27.6366 227.97 27.8714 228.614 28.0671C229.277 28.2628 230.087 28.3606 231.044 28.3606C232.293 28.3606 233.23 28.0769 233.854 27.5094C234.499 26.9616 234.918 26.2474 235.113 25.3669L235.231 24.8092C234.84 25.0049 234.421 25.1614 233.972 25.2788C233.542 25.3962 233.084 25.4549 232.596 25.4549C231.678 25.4549 230.888 25.318 230.224 25.044C229.56 24.7505 229.014 24.3494 228.585 23.8407C228.175 23.3319 227.862 22.7351 227.648 22.0503C227.452 21.3459 227.355 20.5828 227.355 19.761C227.355 18.2739 227.628 16.963 228.175 15.8281C228.721 14.6737 229.443 13.7149 230.341 12.9518C231.259 12.1887 232.303 11.6115 233.474 11.2201C234.664 10.8288 235.904 10.6331 237.192 10.6331C238.129 10.6331 239.056 10.731 239.973 10.9266C240.891 11.1223 241.789 11.4256 242.667 11.8365L239.651 24.5451ZM237.719 14.4193C237.387 14.341 236.977 14.3019 236.489 14.3019C235.748 14.3019 235.084 14.4389 234.499 14.7128C233.913 14.9672 233.406 15.3194 232.976 15.7694C232.566 16.2194 232.244 16.7673 232.01 17.413C231.795 18.0391 231.688 18.7142 231.688 19.4382C231.688 19.7904 231.717 20.123 231.776 20.4361C231.834 20.7296 231.942 20.9937 232.098 21.2285C232.254 21.4437 232.469 21.6198 232.742 21.7568C233.015 21.8938 233.357 21.9623 233.767 21.9623C234.04 21.9623 234.401 21.9133 234.85 21.8155C235.318 21.7177 235.738 21.4927 236.109 21.1405L237.719 14.4193Z" fill="white"/>
<defs>
<clipPath id="clip0_5399_22705">
<rect width="36" height="36" fill="white"/>
</clipPath>
</defs>
</svg>
