<svg width="28" height="28" viewBox="0 0 28 28" fill="none" xmlns="http://www.w3.org/2000/svg">
<path fill-rule="evenodd" clip-rule="evenodd" d="M27.2425 2.48314C27.4342 1.99037 27.3165 1.43093 26.9427 1.05707C26.5688 0.683208 26.0094 0.565572 25.5166 0.757203L1.51659 10.0905C1.03755 10.2768 0.708246 10.7219 0.67018 11.2345C0.632114 11.747 0.892066 12.2359 1.33833 12.4909L9.15602 16.9581L9.18304 16.9311L9.50405 17.1237C10.0671 17.4615 10.5382 17.9327 10.876 18.4957L11.0687 18.8167L11.0416 18.8437L15.5089 26.6614C15.7639 27.1077 16.2527 27.3676 16.7653 27.3295C17.2778 27.2915 17.7229 26.9622 17.9092 26.4831L27.2425 2.48314ZM13.0077 16.8777L17.6094 12.276C18.1301 11.7553 18.1301 10.9111 17.6094 10.3904C17.0887 9.8697 16.2444 9.8697 15.7237 10.3904L11.1221 14.9921C11.8712 15.4872 12.5126 16.1286 13.0077 16.8777Z" fill="#074DFF"/>
</svg>
