<svg width="232" height="180" viewBox="0 0 232 180" fill="none" xmlns="http://www.w3.org/2000/svg">
<g filter="url(#filter0_d_7579_96367)">
<g clip-path="url(#clip0_7579_96367)">
<path d="M280 137C280 181.184 244.184 216.999 200 216.999C155.818 216.999 120 181.184 120 137C120 92.8166 155.818 57 200 57C244.184 57 280 92.8166 280 137Z" fill="#1BA27A"/>
<path d="M237.548 97.3401H161.797V115.628H190.529V142.508H208.817V115.628H237.548V97.3401Z" fill="white"/>
<path d="M199.848 145.371C176.08 145.371 156.811 141.61 156.811 136.969C156.811 132.329 176.079 128.567 199.848 128.567C223.616 128.567 242.885 132.329 242.885 136.969C242.885 141.61 223.616 145.371 199.848 145.371ZM248.172 138.37C248.172 132.386 226.537 127.535 199.848 127.535C173.16 127.535 151.523 132.386 151.523 138.37C151.523 143.639 168.3 148.03 190.531 149.003V187.589H208.818V149.018C231.22 148.075 248.172 143.667 248.172 138.37Z" fill="white"/>
</g>
</g>
<defs>
<filter id="filter0_d_7579_96367" x="-7.62939e-06" y="-63" width="400" height="400" filterUnits="userSpaceOnUse" color-interpolation-filters="sRGB">
<feFlood flood-opacity="0" result="BackgroundImageFix"/>
<feColorMatrix in="SourceAlpha" type="matrix" values="0 0 0 0 0 0 0 0 0 0 0 0 0 0 0 0 0 0 127 0" result="hardAlpha"/>
<feOffset/>
<feGaussianBlur stdDeviation="60"/>
<feComposite in2="hardAlpha" operator="out"/>
<feColorMatrix type="matrix" values="0 0 0 0 0 0 0 0 0 0 0 0 0 0 0 0 0 0 0.16 0"/>
<feBlend mode="normal" in2="BackgroundImageFix" result="effect1_dropShadow_7579_96367"/>
<feBlend mode="normal" in="SourceGraphic" in2="effect1_dropShadow_7579_96367" result="shape"/>
</filter>
<clipPath id="clip0_7579_96367">
<rect x="120" y="57" width="160" height="160" rx="80" fill="white"/>
</clipPath>
</defs>
</svg>
