<svg width="232" height="180" viewBox="0 0 232 180" fill="none" xmlns="http://www.w3.org/2000/svg">
<g filter="url(#filter0_d_7579_96373)">
<g clip-path="url(#clip0_7579_96373)">
<path d="M277.6 156.353C266.915 199.21 223.508 225.293 180.645 214.605C137.8 203.92 111.718 160.51 122.408 117.655C133.088 74.7925 176.495 48.7075 219.345 59.3925C262.205 70.0775 288.285 113.493 277.6 156.353Z" fill="#F7931A"/>
<path d="M235.278 125.602C236.871 114.957 228.766 109.235 217.683 105.417L221.278 90.997L212.501 88.8095L209.001 102.85C206.693 102.275 204.323 101.732 201.968 101.195L205.493 87.062L196.721 84.8745L193.123 99.2895C191.213 98.8545 189.338 98.4245 187.518 97.972L187.528 97.927L175.423 94.9045L173.088 104.28C173.088 104.28 179.601 105.772 179.463 105.865C183.018 106.752 183.661 109.105 183.553 110.97L179.458 127.397C179.703 127.46 180.021 127.55 180.371 127.69C180.078 127.617 179.766 127.537 179.443 127.46L173.703 150.472C173.268 151.552 172.166 153.172 169.681 152.557C169.768 152.685 163.301 150.965 163.301 150.965L158.943 161.012L170.366 163.86C172.491 164.392 174.573 164.95 176.623 165.475L172.991 180.06L181.758 182.247L185.356 167.817C187.751 168.467 190.076 169.067 192.351 169.632L188.766 183.995L197.543 186.182L201.176 171.625C216.143 174.457 227.398 173.315 232.136 159.777C235.953 148.877 231.946 142.59 224.071 138.49C229.806 137.167 234.126 133.395 235.278 125.602ZM215.223 153.725C212.511 164.625 194.158 158.732 188.208 157.255L193.028 137.932C198.978 139.417 218.058 142.357 215.223 153.725ZM217.938 125.445C215.463 135.36 200.188 130.322 195.233 129.087L199.603 111.562C204.558 112.797 220.516 115.102 217.938 125.445Z" fill="white"/>
</g>
</g>
<defs>
<filter id="filter0_d_7579_96373" x="-7.62939e-06" y="-63" width="400" height="400" filterUnits="userSpaceOnUse" color-interpolation-filters="sRGB">
<feFlood flood-opacity="0" result="BackgroundImageFix"/>
<feColorMatrix in="SourceAlpha" type="matrix" values="0 0 0 0 0 0 0 0 0 0 0 0 0 0 0 0 0 0 127 0" result="hardAlpha"/>
<feOffset/>
<feGaussianBlur stdDeviation="60"/>
<feComposite in2="hardAlpha" operator="out"/>
<feColorMatrix type="matrix" values="0 0 0 0 0 0 0 0 0 0 0 0 0 0 0 0 0 0 0.16 0"/>
<feBlend mode="normal" in2="BackgroundImageFix" result="effect1_dropShadow_7579_96373"/>
<feBlend mode="normal" in="SourceGraphic" in2="effect1_dropShadow_7579_96373" result="shape"/>
</filter>
<clipPath id="clip0_7579_96373">
<rect x="120" y="57" width="160" height="160" rx="80" fill="white"/>
</clipPath>
</defs>
</svg>
