<svg width="24" height="25" viewBox="0 0 24 25" fill="none" xmlns="http://www.w3.org/2000/svg">
<path d="M3.50035 22.2499C3.00035 22.2499 2.50035 22.1499 2.00035 21.8499C0.600353 21.0499 0.100353 19.1499 0.900353 17.7499L9.40035 3.5499C9.70035 3.1499 10.0004 2.7499 10.4004 2.5499C11.1004 2.1499 11.9004 2.0499 12.7004 2.2499C13.5004 2.4499 14.1004 2.9499 14.6004 3.6499L23.0004 17.7499C23.3004 18.2499 23.4004 18.7499 23.4004 19.2499C23.4004 20.0499 23.1004 20.8499 22.5004 21.3499C22.0004 21.9499 21.3004 22.2499 20.5004 22.2499H3.50035ZM11.1004 4.6499L2.70035 18.7499C2.40035 19.2499 2.60035 19.8499 3.10035 20.1499C3.20035 20.2499 3.40035 20.2499 3.50035 20.2499H20.4004C20.7004 20.2499 20.9004 20.1499 21.1004 19.9499C21.3004 19.7499 21.4004 19.5499 21.4004 19.2499C21.4004 19.0499 21.4004 18.9499 21.3004 18.7499L12.9004 4.6499C12.6004 4.1499 12.0004 4.0499 11.5004 4.2499C11.3004 4.3499 11.2004 4.4499 11.1004 4.6499ZM12.0004 18.2499C11.4004 18.2499 11.0004 17.8499 11.0004 17.2499C11.0004 16.6499 11.4004 16.2499 12.0004 16.2499C12.6004 16.2499 13.0004 16.6499 13.0004 17.2499C13.0004 17.8499 12.6004 18.2499 12.0004 18.2499ZM12.0004 14.2499C11.4004 14.2499 11.0004 13.8499 11.0004 13.2499V9.2499C11.0004 8.6499 11.4004 8.2499 12.0004 8.2499C12.6004 8.2499 13.0004 8.6499 13.0004 9.2499V13.2499C13.0004 13.8499 12.6004 14.2499 12.0004 14.2499Z" fill="#FFB445"/>
</svg>
