<svg width="24" height="24" viewBox="0 0 24 24" fill="none" xmlns="http://www.w3.org/2000/svg">
<path d="M12.0019 1C13.4999 1 13.9706 2.07306 14.364 3.14595C14.5311 3.60057 18.422 14.2552 18.5379 14.5749C18.5705 14.6633 18.5491 14.8106 18.4115 14.863C18.2737 14.9148 16.252 15.7015 16.1404 15.7436C16.0286 15.7854 15.9028 15.7232 15.8617 15.6121C15.8202 15.5017 14.9821 13.1788 14.8876 12.9192C14.6089 12.9192 9.40129 12.9192 9.12308 12.9192C9.02807 13.1788 8.18133 15.5063 8.14237 15.6121C8.1039 15.7191 7.98221 15.7902 7.86416 15.7436C7.74561 15.6967 5.71472 14.9098 5.59469 14.863C5.47863 14.8186 5.42507 14.6863 5.46669 14.5749C5.60928 14.1753 9.44092 3.69242 9.63706 3.14595C10.0164 2.09013 10.5044 1 12.0019 1ZM5.1583 20.063C5.03743 20.063 4.93994 20.1637 4.93994 20.2872V22.7765C4.93994 22.9009 5.0376 23 5.1583 23H18.8456C18.9655 23 19.0621 22.9009 19.0621 22.7765V20.2872C19.0621 20.1638 18.9655 20.063 18.8456 20.063H5.1583ZM11.9904 4.47899L10.0408 10.3317H13.9706L12.0143 4.47899H11.9904Z" fill="#EE3424"/>
</svg>
