<svg width="33" height="32" viewBox="0 0 33 32" fill="none" xmlns="http://www.w3.org/2000/svg">
<g clip-path="url(#clip0_8155_50183)">
<path d="M22.444 0C22.5185 0 22.593 0 22.6716 0C22.8543 2.25671 21.9929 3.94291 20.9461 5.16401C19.9189 6.37667 18.5123 7.5528 16.2374 7.37435C16.0856 5.14996 16.9484 3.58881 17.9938 2.37053C18.9634 1.23515 20.7409 0.224828 22.444 0Z" fill="white"/>
<path d="M29.3306 23.4892C29.3306 23.5116 29.3306 23.5313 29.3306 23.5524C28.6913 25.4887 27.7793 27.1482 26.6664 28.6883C25.6505 30.0864 24.4055 31.968 22.1825 31.968C20.2616 31.968 18.9857 30.7328 17.0171 30.6991C14.9346 30.6654 13.7894 31.7319 11.8854 32.0003C11.6676 32.0003 11.4498 32.0003 11.2362 32.0003C9.83807 31.798 8.70971 30.6907 7.88769 29.693C5.46377 26.7449 3.59067 22.9369 3.24219 18.0638C3.24219 17.586 3.24219 17.1097 3.24219 16.6319C3.38973 13.1443 5.08437 10.3086 7.33686 8.93438C8.52564 8.20369 10.1599 7.5812 11.9796 7.85943C12.7594 7.98027 13.5562 8.24725 14.2545 8.51143C14.9164 8.76576 15.744 9.21682 16.5281 9.19293C17.0593 9.17748 17.5876 8.90066 18.123 8.70534C19.6911 8.13905 21.2284 7.48986 23.2547 7.79479C25.6898 8.16294 27.4182 9.24493 28.4861 10.9143C26.4261 12.2253 24.7975 14.201 25.0758 17.5748C25.3231 20.6395 27.1048 22.4325 29.3306 23.4892Z" fill="white"/>
</g>
<defs>
<clipPath id="clip0_8155_50183">
<rect width="32" height="32" fill="white" transform="translate(0.285645)"/>
</clipPath>
</defs>
</svg>
