<svg width="32" height="32" viewBox="0 0 32 32" fill="none" xmlns="http://www.w3.org/2000/svg">
<circle cx="16" cy="16" r="16" fill="url(#paint0_linear_2120_11902)"/>
<path d="M21.6537 9.23001H10.291V11.9732H14.6008V16.0052H17.344V11.9732H21.6537V9.23001Z" fill="white"/>
<path d="M15.9987 16.4347C12.4335 16.4347 9.54307 15.8705 9.54307 15.1743C9.54307 14.4783 12.4334 13.914 15.9987 13.914C19.5639 13.914 22.4542 14.4783 22.4542 15.1743C22.4542 15.8705 19.5639 16.4347 15.9987 16.4347ZM23.2472 15.3845C23.2472 14.4869 20.002 13.7593 15.9987 13.7593C11.9955 13.7593 8.75 14.4869 8.75 15.3845C8.75 16.1749 11.2665 16.8334 14.6012 16.9794V22.7673H17.3441V16.9817C20.7045 16.8403 23.2472 16.179 23.2472 15.3845Z" fill="white"/>
<defs>
<linearGradient id="paint0_linear_2120_11902" x1="16" y1="0" x2="16" y2="32" gradientUnits="userSpaceOnUse">
<stop stop-color="#1BA27A"/>
<stop offset="1" stop-color="#1BA27A" stop-opacity="0.7"/>
</linearGradient>
</defs>
</svg>
