<svg width="32" height="32" viewBox="0 0 32 32" fill="none" xmlns="http://www.w3.org/2000/svg">
<circle cx="16" cy="16" r="16" fill="url(#paint0_linear_2120_11888)"/>
<path d="M15.9999 7.11069C14.2418 7.11069 12.5232 7.63201 11.0615 8.60874C9.59968 9.58546 8.46037 10.9737 7.78759 12.5979C7.11481 14.2222 6.93878 16.0094 7.28176 17.7337C7.62474 19.458 8.47133 21.0418 9.71446 22.285C10.9576 23.5281 12.5414 24.3747 14.2657 24.7177C15.99 25.0606 17.7773 24.8846 19.4015 24.2118C21.0257 23.5391 22.414 22.3997 23.3907 20.938C24.3674 19.4762 24.8887 17.7576 24.8887 15.9996C24.886 13.6429 23.9487 11.3836 22.2823 9.71716C20.6159 8.05075 18.3565 7.11338 15.9999 7.11069ZM15.9999 23.1107C14.5934 23.1107 13.2185 22.6936 12.0491 21.9122C10.8797 21.1309 9.96827 20.0203 9.43004 18.7209C8.89182 17.4215 8.751 15.9917 9.02538 14.6123C9.29977 13.2328 9.97703 11.9658 10.9715 10.9713C11.966 9.97675 13.2331 9.29949 14.6125 9.0251C15.992 8.75072 17.4218 8.89154 18.7212 9.42977C20.0205 9.96799 21.1311 10.8794 21.9125 12.0489C22.6939 13.2183 23.111 14.5931 23.111 15.9996C23.1088 17.8849 22.3589 19.6924 21.0258 21.0255C19.6927 22.3586 17.8852 23.1085 15.9999 23.1107ZM15.9999 10.6662C15.8831 10.6662 15.7675 10.6892 15.6597 10.7338C15.5518 10.7785 15.4538 10.844 15.3712 10.9265C15.2887 11.0091 15.2232 11.1071 15.1786 11.2149C15.1339 11.3228 15.1109 11.4384 15.111 11.5551V15.7765L13.8827 18.0677C13.7714 18.2756 13.7472 18.5192 13.8155 18.7449C13.8838 18.9706 14.0389 19.16 14.2468 19.2713C14.4547 19.3826 14.6983 19.4068 14.924 19.3385C15.1497 19.2702 15.3391 19.115 15.4504 18.9071L16.7837 16.4193C16.8526 16.2901 16.8886 16.146 16.8887 15.9996V11.5551C16.8888 11.4384 16.8658 11.3228 16.8211 11.2149C16.7765 11.1071 16.711 11.0091 16.6285 10.9265C16.5459 10.844 16.4479 10.7785 16.3401 10.7338C16.2322 10.6892 16.1166 10.6662 15.9999 10.6662Z" fill="white"/>
<defs>
<linearGradient id="paint0_linear_2120_11888" x1="16" y1="0" x2="16" y2="32" gradientUnits="userSpaceOnUse">
<stop stop-color="#5478D4"/>
<stop offset="1" stop-color="#5478D4" stop-opacity="0.7"/>
</linearGradient>
</defs>
</svg>
