<svg width="32" height="32" viewBox="0 0 32 32" fill="none" xmlns="http://www.w3.org/2000/svg">
<circle cx="16" cy="16" r="16" fill="url(#paint0_linear_2120_11909)"/>
<path d="M14.8335 4.87018C12.3943 4.87018 10.2274 6.43838 9.47222 8.75433C7.90399 9.07709 6.55012 10.0577 5.75677 11.4472C4.53348 13.5587 4.81312 16.2134 6.45157 18.0231C5.94525 19.5395 6.11895 21.1977 6.92709 22.5712C8.14298 24.6901 10.5896 25.7766 12.9832 25.2715C14.0438 26.4665 15.5677 27.1477 17.1667 27.1415C19.6059 27.1415 21.7729 25.5733 22.5293 23.2574C24.0999 22.9334 25.4514 21.9528 26.2373 20.5657C27.468 18.4542 27.1884 15.7995 25.5499 13.9886V13.9812C26.0562 12.4648 25.8825 10.8054 25.0744 9.42571C23.8585 7.31425 21.4119 6.22772 19.0257 6.7328C17.9589 5.54033 16.4325 4.86279 14.8335 4.87018ZM14.8335 6.31765L14.8261 6.32504C15.8079 6.32504 16.7516 6.66381 17.5068 7.29084C17.476 7.30563 17.4156 7.34382 17.3712 7.36599L12.9302 9.9234C12.7035 10.0515 12.568 10.293 12.568 10.5566V16.5596L10.6573 15.4583V10.4962C10.6561 8.19136 12.5249 6.32135 14.8335 6.31765ZM20.1825 8.0657C21.6805 8.06324 23.0651 8.86027 23.8129 10.1575C24.2958 11.0025 24.4769 11.9905 24.3106 12.9477C24.2798 12.9255 24.2207 12.8947 24.1825 12.8725L19.7427 10.3077C19.516 10.1796 19.2376 10.1796 19.0109 10.3077L13.8073 13.3099V11.1072L18.103 8.62621C18.735 8.26034 19.4519 8.06694 20.1825 8.0657ZM9.19996 10.3447V15.616C9.19996 15.8796 9.33548 16.1137 9.56215 16.2492L14.7571 19.2427L12.839 20.3514L8.54951 17.8777C6.55382 16.7222 5.87134 14.171 7.02441 12.1765C7.51348 11.3314 8.28219 10.6835 9.19996 10.3447ZM19.1526 11.6505L23.4495 14.1241C25.4514 15.2784 26.1301 17.8272 24.9746 19.8253L24.982 19.8327C24.4917 20.6778 23.7205 21.3258 22.8077 21.6584V16.3859C22.8077 16.1223 22.6722 15.8808 22.4455 15.7527L17.2431 12.7506L19.1526 11.6505ZM15.9964 13.4675L18.1868 14.7339V17.2605L15.9964 18.5269L13.8061 17.2605V14.7339L15.9964 13.4675ZM19.4396 15.4583L21.3503 16.5596V21.5143C21.3503 23.8216 19.4778 25.6928 17.1741 25.6928V25.6855C16.1997 25.6855 15.2487 25.3454 14.5009 24.7196C14.5317 24.7049 14.5994 24.6667 14.6364 24.6445L19.0762 22.0883C19.3029 21.9602 19.4458 21.7188 19.4384 21.4551L19.4396 15.4583ZM18.1929 18.7019V20.9045L13.896 23.3781C11.8942 24.525 9.34287 23.8462 8.18733 21.8543H8.19472C7.70442 21.0166 7.52949 20.0212 7.6958 19.064C7.7266 19.0862 7.78696 19.117 7.82392 19.1392L12.2637 21.704C12.4904 21.8321 12.7688 21.8321 12.9955 21.704L18.1929 18.7019Z" fill="white"/>
<defs>
<linearGradient id="paint0_linear_2120_11909" x1="16" y1="0" x2="16" y2="32" gradientUnits="userSpaceOnUse">
<stop stop-color="#EDCD5C"/>
<stop offset="1" stop-color="#EDCD5C" stop-opacity="0.7"/>
</linearGradient>
</defs>
</svg>
