<svg width="32" height="32" viewBox="0 0 32 32" fill="none" xmlns="http://www.w3.org/2000/svg">
<circle cx="16" cy="16" r="16" fill="url(#paint0_linear_2120_11895)"/>
<g clip-path="url(#clip0_2120_11895)">
<path d="M22.1155 22.0099H14.6487C14.4539 22.0111 14.2664 21.9361 14.1261 21.8009L11.6017 19.331C11.4441 19.1768 11.2324 19.0905 11.012 19.0905H10.9154C10.503 19.0905 10.1687 18.7562 10.1687 18.3438C10.1687 17.9314 10.503 17.5971 10.9154 17.5971H11.662C11.8543 17.5979 12.0388 17.6728 12.1772 17.8062L14.5587 20.1363C14.8079 20.3801 15.1426 20.5166 15.4912 20.5166H22.1155C22.3135 20.5166 22.5034 20.4379 22.6434 20.2979C22.7834 20.1579 22.8621 19.968 22.8621 19.7699C22.8621 19.5719 22.7834 19.382 22.6434 19.242C22.5034 19.102 22.3135 19.0233 22.1155 19.0233H18.3821V17.5299H22.1155C22.7096 17.5299 23.2793 17.766 23.6994 18.186C24.1194 18.6061 24.3555 19.1758 24.3555 19.7699C24.3555 20.364 24.1194 20.9338 23.6994 21.3538C23.2793 21.7739 22.7096 22.0099 22.1155 22.0099Z" fill="white"/>
<path d="M16.8887 19.77C16.5934 19.7707 16.3009 19.713 16.0279 19.6003C15.755 19.4875 15.507 19.3219 15.2983 19.1129L14.7085 18.5231C14.416 18.2306 14.4168 17.7561 14.7103 17.4647C15.0024 17.1747 15.474 17.1755 15.765 17.4665L16.3586 18.0601C16.4282 18.1293 16.5108 18.184 16.6016 18.2212C16.6923 18.2584 16.7895 18.2774 16.8876 18.277C16.9857 18.2767 17.0829 18.257 17.1734 18.2192C17.2639 18.1813 17.346 18.126 17.4152 18.0564C17.4843 17.9867 17.539 17.9042 17.5762 17.8134C17.6135 17.7226 17.6324 17.6254 17.6321 17.5273C17.6318 17.4292 17.612 17.3321 17.5742 17.2416C17.5363 17.1511 17.4811 17.069 17.4114 16.9999L15.4126 15.0011C15.1625 14.751 14.8234 14.6105 14.4698 14.6105H10.9154C10.503 14.6105 10.1687 14.2762 10.1687 13.8639C10.1687 13.4515 10.503 13.1172 10.9154 13.1172H15.3282C15.4265 13.1166 15.5238 13.1354 15.6149 13.1726C15.7058 13.2098 15.7886 13.2645 15.8583 13.3337L18.4717 15.9471C18.7845 16.2603 18.9976 16.6593 19.0838 17.0935C19.1701 17.5278 19.1258 17.9779 18.9564 18.387C18.787 18.796 18.5002 19.1457 18.1322 19.3918C17.7642 19.638 17.3315 19.7696 16.8887 19.77Z" fill="white"/>
<path d="M9.41457 19.4566C9.41457 20.0752 8.91313 20.5766 8.29457 20.5766H7.92123C7.50885 20.5766 7.17456 20.2423 7.17456 19.8299V19.4566C7.17456 19.2504 7.34171 19.0833 7.5479 19.0833C7.75408 19.0833 7.92123 18.9161 7.92123 18.7099V14.2299C7.92123 14.0238 7.75408 13.8566 7.5479 13.8566C7.34171 13.8566 7.17456 13.6895 7.17456 13.4833V13.1099C7.17456 12.6976 7.50885 12.3633 7.92123 12.3633H8.29457C8.91313 12.3633 9.41457 12.8647 9.41457 13.4833V19.4566Z" fill="white"/>
<path d="M20.6221 15.2896C20.0314 15.2896 19.4539 15.1144 18.9627 14.7863C18.4716 14.458 18.0888 13.9916 17.8627 13.4458C17.6366 12.9001 17.5775 12.2996 17.6928 11.7202C17.808 11.1409 18.0925 10.6087 18.5102 10.191C18.9279 9.77333 19.46 9.48889 20.0394 9.37365C20.6188 9.25841 21.2193 9.31754 21.765 9.54359C22.3107 9.76964 22.7773 10.1525 23.1054 10.6436C23.4336 11.1348 23.6088 11.7122 23.6088 12.3029C23.6088 13.0951 23.2941 13.8547 22.734 14.4148C22.1739 14.9749 21.4142 15.2896 20.6221 15.2896ZM20.6221 10.8096C20.3268 10.8096 20.038 10.8972 19.7924 11.0613C19.5469 11.2254 19.3554 11.4586 19.2424 11.7314C19.1294 12.0043 19.0998 12.3046 19.1574 12.5943C19.215 12.8839 19.3573 13.15 19.5661 13.3589C19.775 13.5677 20.0411 13.7099 20.3307 13.7676C20.6204 13.8252 20.9207 13.7956 21.1936 13.6825C21.4665 13.5696 21.6997 13.3781 21.8637 13.1325C22.0278 12.887 22.1154 12.5983 22.1154 12.3029C22.1154 11.9069 21.9581 11.527 21.678 11.247C21.3979 10.9669 21.0182 10.8096 20.6221 10.8096Z" fill="white"/>
</g>
<defs>
<linearGradient id="paint0_linear_2120_11895" x1="16" y1="0" x2="16" y2="32" gradientUnits="userSpaceOnUse">
<stop stop-color="#C75DD0"/>
<stop offset="1" stop-color="#C75DD0" stop-opacity="0.7"/>
</linearGradient>
<clipPath id="clip0_2120_11895">
<rect width="17.9201" height="18.6667" fill="white" transform="translate(6.66675 4)"/>
</clipPath>
</defs>
</svg>
