<svg width="32" height="32" viewBox="0 0 32 32" fill="none" xmlns="http://www.w3.org/2000/svg">
<circle cx="16" cy="16" r="16" fill="url(#paint0_linear_2120_11916)"/>
<path d="M23.0548 13.7207C23.3733 11.5917 21.7523 10.4472 19.5358 9.6837L20.2548 6.7997L18.4993 6.3622L17.7993 9.1702C17.3378 9.0552 16.8638 8.9467 16.3928 8.8392L17.0978 6.0127L15.3433 5.5752L14.6238 8.4582C14.2418 8.3712 13.8668 8.2852 13.5028 8.1947L13.5048 8.1857L11.0838 7.5812L10.6168 9.4562C10.6168 9.4562 11.9193 9.7547 11.8918 9.7732C12.6028 9.9507 12.7313 10.4212 12.7098 10.7942L11.8908 14.0797C11.9398 14.0922 12.0033 14.1102 12.0733 14.1382C12.0148 14.1237 11.9523 14.1077 11.8878 14.0922L10.7398 18.6947C10.6528 18.9107 10.4323 19.2347 9.93534 19.1117C9.95284 19.1372 8.65934 18.7932 8.65934 18.7932L7.78784 20.8027L10.0723 21.3722C10.4973 21.4787 10.9138 21.5902 11.3238 21.6952L10.5973 24.6122L12.3508 25.0497L13.0703 22.1637C13.5493 22.2937 14.0143 22.4137 14.4693 22.5267L13.7523 25.3992L15.5078 25.8367L16.2343 22.9252C19.2278 23.4917 21.4788 23.2632 22.4263 20.5557C23.1898 18.3757 22.3883 17.1182 20.8133 16.2982C21.9603 16.0337 22.8243 15.2792 23.0548 13.7207ZM19.0438 19.3452C18.5013 21.5252 14.8308 20.3467 13.6408 20.0512L14.6048 16.1867C15.7948 16.4837 19.6108 17.0717 19.0438 19.3452ZM19.5868 13.6892C19.0918 15.6722 16.0368 14.6647 15.0458 14.4177L15.9198 10.9127C16.9108 11.1597 20.1023 11.6207 19.5868 13.6892Z" fill="white"/>
<defs>
<linearGradient id="paint0_linear_2120_11916" x1="16" y1="0" x2="16" y2="32" gradientUnits="userSpaceOnUse">
<stop stop-color="#E99C55"/>
<stop offset="1" stop-color="#E99C55" stop-opacity="0.7"/>
</linearGradient>
</defs>
</svg>
