<svg width="32" height="32" viewBox="0 0 32 32" fill="none" xmlns="http://www.w3.org/2000/svg">
<circle cx="16" cy="16" r="16" fill="url(#paint0_linear_2120_11877)"/>
<path d="M21.3334 14.1281C21.3334 13.8924 21.2398 13.6663 21.0731 13.4996C20.9064 13.3329 20.6803 13.2392 20.4445 13.2392H10.1423L12.1867 11.2037C12.3541 11.0363 12.4482 10.8093 12.4482 10.5726C12.4482 10.3359 12.3541 10.1088 12.1867 9.94147C12.0194 9.77409 11.7923 9.68005 11.5556 9.68005C11.3189 9.68005 11.0919 9.77409 10.9245 9.94147L7.36896 13.497C7.24562 13.622 7.16207 13.7808 7.12884 13.9532C7.09562 14.1256 7.11422 14.304 7.18229 14.4659C7.24898 14.6282 7.36222 14.7672 7.50775 14.8653C7.65328 14.9633 7.82458 15.0161 8.00007 15.017H20.4445C20.6803 15.017 20.9064 14.9234 21.0731 14.7567C21.2398 14.59 21.3334 14.3639 21.3334 14.1281ZM24.8178 17.3459C24.7512 17.1836 24.6379 17.0446 24.4924 16.9466C24.3469 16.8485 24.1756 16.7957 24.0001 16.7948H11.5556C11.3199 16.7948 11.0938 16.8885 10.9271 17.0552C10.7604 17.2219 10.6667 17.4479 10.6667 17.6837C10.6667 17.9194 10.7604 18.1455 10.9271 18.3122C11.0938 18.4789 11.3199 18.5726 11.5556 18.5726H21.8578L19.8134 20.6081C19.7301 20.6908 19.664 20.7891 19.6188 20.8974C19.5737 21.0057 19.5505 21.1219 19.5505 21.2392C19.5505 21.3566 19.5737 21.4728 19.6188 21.5811C19.664 21.6894 19.7301 21.7877 19.8134 21.8704C19.896 21.9537 19.9943 22.0198 20.1027 22.0649C20.211 22.1101 20.3272 22.1333 20.4445 22.1333C20.5619 22.1333 20.678 22.1101 20.7864 22.0649C20.8947 22.0198 20.993 21.9537 21.0756 21.8704L24.6312 18.3148C24.7545 18.1898 24.8381 18.0311 24.8713 17.8586C24.9045 17.6862 24.8859 17.5078 24.8178 17.3459Z" fill="white"/>
<defs>
<linearGradient id="paint0_linear_2120_11877" x1="16" y1="0" x2="16" y2="32" gradientUnits="userSpaceOnUse">
<stop stop-color="#DA567E"/>
<stop offset="1" stop-color="#DA567E" stop-opacity="0.7"/>
</linearGradient>
</defs>
</svg>
