<svg width="32" height="32" viewBox="0 0 32 32" fill="none" xmlns="http://www.w3.org/2000/svg">
<circle cx="16" cy="16" r="16" fill="url(#paint0_linear_2120_11961)"/>
<path d="M21.9343 9.50483C21.8439 9.43174 21.7383 9.37982 21.6252 9.3529C21.5122 9.32598 21.3945 9.32475 21.2809 9.34928C20.4498 9.52346 19.5919 9.52567 18.7599 9.3558C17.9279 9.18592 17.1394 8.84754 16.4431 8.3615C16.313 8.27118 16.1583 8.22278 15.9998 8.22278C15.8414 8.22278 15.6867 8.27118 15.5565 8.3615C14.8602 8.84754 14.0718 9.18592 13.2398 9.3558C12.4078 9.52567 11.5498 9.52346 10.7187 9.34928C10.6051 9.32475 10.4874 9.32598 10.3744 9.3529C10.2613 9.37982 10.1557 9.43174 10.0654 9.50483C9.97513 9.57804 9.90244 9.67053 9.85264 9.77551C9.80284 9.8805 9.7772 9.9953 9.77759 10.1115V15.9059C9.7769 17.0211 10.0426 18.1202 10.5527 19.1119C11.0627 20.1036 11.8023 20.959 12.7098 21.6071L15.5487 23.6293C15.6804 23.7231 15.8381 23.7735 15.9998 23.7735C16.1615 23.7735 16.3192 23.7231 16.4509 23.6293L19.2898 21.6071C20.1973 20.959 20.9369 20.1036 21.447 19.1119C21.957 18.1202 22.2227 17.0211 22.222 15.9059V10.1115C22.2224 9.9953 22.1968 9.8805 22.147 9.77551C22.0972 9.67053 22.0245 9.57804 21.9343 9.50483ZM20.6665 15.9059C20.6671 16.773 20.4606 17.6276 20.0642 18.3987C19.6678 19.1699 19.093 19.8352 18.3876 20.3393L15.9998 22.0426L13.612 20.3393C12.9066 19.8352 12.3318 19.1699 11.9354 18.3987C11.539 17.6276 11.3326 16.773 11.3331 15.9059V11.0059C12.9637 11.1455 14.5967 10.7672 15.9998 9.92483C17.4029 10.7672 19.0359 11.1455 20.6665 11.0059V15.9059Z" fill="white"/>
<defs>
<linearGradient id="paint0_linear_2120_11961" x1="16" y1="-1" x2="16" y2="32" gradientUnits="userSpaceOnUse">
<stop stop-color="#5CCED6"/>
<stop offset="1" stop-color="#5CCED6" stop-opacity="0.7"/>
</linearGradient>
</defs>
</svg>
