<svg width="143" height="24" viewBox="0 0 143 24" fill="none" xmlns="http://www.w3.org/2000/svg">
<g clip-path="url(#clip0_4514_49124)">
<path d="M23.6398 14.9029C22.037 21.3315 15.5259 25.2439 9.09651 23.6407C2.66976 22.038 -1.24261 15.5265 0.360888 9.09824C1.96289 2.66887 8.47401 -1.24388 14.9015 0.35887C21.3305 1.96162 25.2425 8.47387 23.6398 14.9029Z" fill="#F7931A"/>
<path d="M17.2911 10.2904C17.5299 8.69362 16.3142 7.83524 14.6518 7.26262L15.1911 5.09962L13.8744 4.77149L13.3494 6.87749C13.0033 6.79124 12.6478 6.70987 12.2946 6.62924L12.8233 4.50937L11.5074 4.18124L10.9678 6.34349C10.6813 6.27824 10.4001 6.21374 10.1271 6.14587L10.1286 6.13912L8.31282 5.68574L7.96257 7.09199C7.96257 7.09199 8.93945 7.31587 8.91882 7.32974C9.45207 7.46287 9.54844 7.81574 9.53232 8.09549L8.91807 10.5596C8.95482 10.569 9.00244 10.5825 9.05494 10.6035C9.01107 10.5926 8.96419 10.5806 8.91582 10.569L8.05482 14.0209C7.98957 14.1829 7.8242 14.4259 7.45145 14.3336C7.46457 14.3527 6.49445 14.0947 6.49445 14.0947L5.84082 15.6019L7.5542 16.029C7.87295 16.1089 8.18532 16.1925 8.49282 16.2712L7.94794 18.459L9.26307 18.7871L9.8027 16.6226C10.1619 16.7201 10.5107 16.8101 10.8519 16.8949L10.3142 19.0492L11.6308 19.3774L12.1757 17.1937C14.4208 17.6186 16.1091 17.4472 16.8197 15.4166C17.3923 13.7816 16.7912 12.8385 15.6099 12.2235C16.4702 12.0251 17.1182 11.4592 17.2911 10.2904ZM14.2828 14.5087C13.8759 16.1437 11.1231 15.2599 10.2306 15.0382L10.9536 12.1399C11.8461 12.3626 14.7081 12.8036 14.2828 14.5087ZM14.6901 10.2667C14.3188 11.754 12.0276 10.9984 11.2843 10.8131L11.9398 8.18437C12.6831 8.36962 15.0767 8.71537 14.6901 10.2667Z" fill="white"/>
</g>
<path d="M35.792 16.768C35.152 16.768 34.496 16.7413 33.824 16.688C33.152 16.6347 32.544 16.5493 32 16.432L34.56 5.712C35.168 5.59467 35.8027 5.51467 36.464 5.472C37.136 5.42933 37.7493 5.408 38.304 5.408C38.944 5.408 39.4933 5.47733 39.952 5.616C40.4213 5.744 40.8 5.92 41.088 6.144C41.3867 6.368 41.6053 6.63467 41.744 6.944C41.8933 7.24267 41.968 7.56267 41.968 7.904C41.968 8.13867 41.9413 8.384 41.888 8.64C41.8453 8.896 41.7493 9.152 41.6 9.408C41.4613 9.65333 41.264 9.888 41.008 10.112C40.7627 10.336 40.4373 10.5387 40.032 10.72C40.512 10.9333 40.864 11.2267 41.088 11.6C41.312 11.9627 41.424 12.368 41.424 12.816C41.424 13.328 41.3227 13.824 41.12 14.304C40.9173 14.7733 40.592 15.1947 40.144 15.568C39.696 15.9307 39.1147 16.224 38.4 16.448C37.6853 16.6613 36.816 16.768 35.792 16.768ZM35.568 11.776L34.88 14.656C35.0507 14.688 35.264 14.7147 35.52 14.736C35.7867 14.7467 36.032 14.752 36.256 14.752C36.576 14.752 36.8907 14.7307 37.2 14.688C37.52 14.6347 37.8027 14.544 38.048 14.416C38.304 14.288 38.512 14.112 38.672 13.888C38.832 13.664 38.912 13.376 38.912 13.024C38.912 12.8747 38.88 12.7253 38.816 12.576C38.7627 12.4267 38.672 12.2933 38.544 12.176C38.416 12.0587 38.2453 11.9627 38.032 11.888C37.8293 11.8133 37.584 11.776 37.296 11.776H35.568ZM36.032 9.904H37.6C38.24 9.904 38.7147 9.76533 39.024 9.488C39.344 9.21067 39.504 8.88 39.504 8.496C39.504 8.29333 39.456 8.12267 39.36 7.984C39.2747 7.83467 39.1573 7.71733 39.008 7.632C38.8587 7.54667 38.688 7.488 38.496 7.456C38.304 7.41333 38.1067 7.392 37.904 7.392C37.68 7.392 37.44 7.40267 37.184 7.424C36.928 7.43467 36.736 7.45067 36.608 7.472L36.032 9.904Z" fill="#22242B"/>
<path d="M44.8193 16.624H42.4513L44.4513 8.208H46.8352L44.8193 16.624ZM45.9713 7.184C45.6406 7.184 45.3419 7.088 45.0753 6.896C44.8086 6.69333 44.6753 6.38933 44.6753 5.984C44.6753 5.76 44.7179 5.552 44.8033 5.36C44.8993 5.15733 45.0219 4.98667 45.1713 4.848C45.3206 4.69867 45.4913 4.58133 45.6833 4.496C45.8859 4.41067 46.0992 4.368 46.3232 4.368C46.6539 4.368 46.9526 4.46933 47.2193 4.672C47.4859 4.864 47.6193 5.16267 47.6193 5.568C47.6193 5.792 47.5712 6.00533 47.4753 6.208C47.3899 6.4 47.2726 6.57067 47.1233 6.72C46.9739 6.85867 46.7979 6.97067 46.5953 7.056C46.4032 7.14133 46.1953 7.184 45.9713 7.184Z" fill="#22242B"/>
<path d="M49.2705 6.112L51.7505 5.728L51.1425 8.208H53.7985L53.3185 10.16H50.6785L49.9745 13.104C49.9105 13.3493 49.8678 13.5787 49.8465 13.792C49.8358 14.0053 49.8625 14.192 49.9265 14.352C50.0012 14.5013 50.1238 14.6187 50.2945 14.704C50.4652 14.7893 50.6998 14.832 50.9985 14.832C51.2545 14.832 51.4998 14.8107 51.7345 14.768C51.9798 14.7147 52.2252 14.6453 52.4705 14.56L52.6465 16.384C52.3265 16.5013 51.9798 16.6027 51.6065 16.688C51.2332 16.7733 50.7905 16.816 50.2785 16.816C49.5425 16.816 48.9718 16.7093 48.5665 16.496C48.1612 16.272 47.8732 15.9733 47.7025 15.6C47.5318 15.216 47.4572 14.7787 47.4785 14.288C47.4998 13.7973 47.5745 13.28 47.7025 12.736L49.2705 6.112Z" fill="#22242B"/>
<path d="M53.8844 13.264C53.8844 12.5387 54.0017 11.856 54.2364 11.216C54.471 10.576 54.807 10.016 55.2444 9.536C55.6817 9.056 56.2097 8.67733 56.8284 8.4C57.4577 8.12267 58.1564 7.984 58.9244 7.984C59.4044 7.984 59.831 8.032 60.2044 8.128C60.5884 8.21333 60.935 8.33067 61.2444 8.48L60.4284 10.336C60.215 10.2507 59.991 10.176 59.7564 10.112C59.5324 10.0373 59.255 10 58.9244 10C58.1244 10 57.495 10.272 57.0364 10.816C56.5777 11.3493 56.3484 12.08 56.3484 13.008C56.3484 13.552 56.4657 13.9947 56.7004 14.336C56.935 14.6667 57.367 14.832 57.9964 14.832C58.3057 14.832 58.6044 14.8 58.8924 14.736C59.1804 14.672 59.4364 14.592 59.6604 14.496L59.8364 16.4C59.5377 16.5173 59.207 16.6187 58.8444 16.704C58.4924 16.8 58.0604 16.848 57.5484 16.848C56.887 16.848 56.327 16.752 55.8684 16.56C55.4097 16.368 55.031 16.112 54.7324 15.792C54.4337 15.4613 54.215 15.0773 54.0764 14.64C53.9484 14.2027 53.8844 13.744 53.8844 13.264Z" fill="#22242B"/>
<path d="M64.4936 16.848C63.9283 16.848 63.4376 16.7627 63.0216 16.592C62.6056 16.4213 62.259 16.1813 61.9816 15.872C61.715 15.5627 61.5123 15.2 61.3736 14.784C61.235 14.3573 61.1656 13.888 61.1656 13.376C61.1656 12.736 61.267 12.096 61.4696 11.456C61.683 10.816 61.9923 10.24 62.3976 9.728C62.803 9.216 63.299 8.8 63.8856 8.48C64.4723 8.14933 65.1443 7.984 65.9016 7.984C66.4563 7.984 66.9416 8.06933 67.3576 8.24C67.7843 8.41067 68.131 8.65067 68.3976 8.96C68.675 9.26933 68.883 9.63733 69.0216 10.064C69.1603 10.48 69.2296 10.944 69.2296 11.456C69.2296 12.096 69.1283 12.736 68.9256 13.376C68.723 14.016 68.4243 14.592 68.0296 15.104C67.635 15.616 67.139 16.0373 66.5416 16.368C65.955 16.688 65.2723 16.848 64.4936 16.848ZM65.6776 10C65.3256 10 65.0163 10.1013 64.7496 10.304C64.483 10.5067 64.259 10.7627 64.0776 11.072C63.8963 11.3813 63.7576 11.7227 63.6616 12.096C63.5763 12.4587 63.5336 12.8053 63.5336 13.136C63.5336 13.68 63.619 14.1013 63.7896 14.4C63.9603 14.688 64.2696 14.832 64.7176 14.832C65.0696 14.832 65.379 14.7307 65.6456 14.528C65.9123 14.3253 66.1363 14.0693 66.3176 13.76C66.499 13.4507 66.6323 13.1147 66.7176 12.752C66.8136 12.3787 66.8616 12.0267 66.8616 11.696C66.8616 11.152 66.7763 10.736 66.6056 10.448C66.435 10.1493 66.1256 10 65.6776 10Z" fill="#22242B"/>
<path d="M72.2411 16.624H69.8731L71.8731 8.208H74.2571L72.2411 16.624ZM73.3931 7.184C73.0625 7.184 72.7638 7.088 72.4971 6.896C72.2305 6.69333 72.0971 6.38933 72.0971 5.984C72.0971 5.76 72.1398 5.552 72.2251 5.36C72.3211 5.15733 72.4438 4.98667 72.5931 4.848C72.7425 4.69867 72.9131 4.58133 73.1051 4.496C73.3078 4.41067 73.5211 4.368 73.7451 4.368C74.0758 4.368 74.3745 4.46933 74.6411 4.672C74.9078 4.864 75.0411 5.16267 75.0411 5.568C75.0411 5.792 74.9931 6.00533 74.8971 6.208C74.8118 6.4 74.6945 6.57067 74.5451 6.72C74.3958 6.85867 74.2198 6.97067 74.0171 7.056C73.8251 7.14133 73.6171 7.184 73.3931 7.184Z" fill="#22242B"/>
<path d="M76.3404 8.592C76.5217 8.53867 76.719 8.48 76.9324 8.416C77.1564 8.34133 77.4017 8.27733 77.6684 8.224C77.9457 8.16 78.2497 8.112 78.5804 8.08C78.9217 8.03733 79.3057 8.016 79.7324 8.016C80.991 8.016 81.855 8.37867 82.3244 9.104C82.7937 9.82933 82.8737 10.8213 82.5644 12.08L81.4764 16.624H79.0924L80.1484 12.176C80.2124 11.8987 80.2604 11.632 80.2924 11.376C80.335 11.1093 80.335 10.88 80.2924 10.688C80.2497 10.4853 80.1484 10.3253 79.9884 10.208C79.839 10.08 79.6044 10.016 79.2844 10.016C78.975 10.016 78.6604 10.048 78.3404 10.112L76.7884 16.624H74.4044L76.3404 8.592Z" fill="#22242B"/>
<path d="M83.5625 16.624L86.2185 5.536H93.4665L92.9545 7.584H88.2025L87.6905 9.824H91.8825L91.3865 11.84H87.1945L86.5545 14.56H91.6745L91.1625 16.624H83.5625Z" fill="#22242B"/>
<path d="M103.687 5.536L103.174 7.632H99.9265L97.7665 16.624H95.2705L97.4305 7.632H94.1825L94.6945 5.536H103.687Z" fill="#22242B"/>
<path d="M102.562 16.624L105.218 5.536H112.403L111.891 7.6H107.202L106.643 9.968H110.786L110.29 12.032H106.146L105.043 16.624H102.562Z" fill="#22242B"/>
<path d="M112.173 13.888C112.546 13.888 112.855 13.9947 113.101 14.208C113.356 14.4107 113.484 14.736 113.484 15.184C113.484 15.4293 113.437 15.6533 113.34 15.856C113.255 16.0587 113.138 16.2347 112.989 16.384C112.839 16.5227 112.669 16.6293 112.477 16.704C112.285 16.7893 112.087 16.832 111.884 16.832C111.511 16.832 111.196 16.7307 110.94 16.528C110.695 16.3147 110.573 15.984 110.573 15.536C110.573 15.2907 110.615 15.0667 110.701 14.864C110.797 14.6613 110.919 14.4907 111.068 14.352C111.218 14.2027 111.388 14.0907 111.58 14.016C111.772 13.9307 111.97 13.888 112.173 13.888Z" fill="#22242B"/>
<path d="M118.259 16.848C117.694 16.848 117.203 16.7627 116.787 16.592C116.371 16.4213 116.025 16.1813 115.747 15.872C115.481 15.5627 115.278 15.2 115.139 14.784C115.001 14.3573 114.931 13.888 114.931 13.376C114.931 12.736 115.033 12.096 115.235 11.456C115.449 10.816 115.758 10.24 116.163 9.728C116.569 9.216 117.065 8.8 117.651 8.48C118.238 8.14933 118.91 7.984 119.667 7.984C120.222 7.984 120.707 8.06933 121.123 8.24C121.55 8.41067 121.897 8.65067 122.163 8.96C122.441 9.26933 122.649 9.63733 122.787 10.064C122.926 10.48 122.995 10.944 122.995 11.456C122.995 12.096 122.894 12.736 122.691 13.376C122.489 14.016 122.19 14.592 121.795 15.104C121.401 15.616 120.905 16.0373 120.307 16.368C119.721 16.688 119.038 16.848 118.259 16.848ZM119.443 10C119.091 10 118.782 10.1013 118.515 10.304C118.249 10.5067 118.025 10.7627 117.843 11.072C117.662 11.3813 117.523 11.7227 117.427 12.096C117.342 12.4587 117.299 12.8053 117.299 13.136C117.299 13.68 117.385 14.1013 117.555 14.4C117.726 14.688 118.035 14.832 118.483 14.832C118.835 14.832 119.145 14.7307 119.411 14.528C119.678 14.3253 119.902 14.0693 120.083 13.76C120.265 13.4507 120.398 13.1147 120.483 12.752C120.579 12.3787 120.627 12.0267 120.627 11.696C120.627 11.152 120.542 10.736 120.371 10.448C120.201 10.1493 119.891 10 119.443 10Z" fill="#22242B"/>
<path d="M130.071 10.256C129.857 10.2027 129.644 10.1547 129.431 10.112C129.228 10.0587 128.924 10.032 128.519 10.032C128.369 10.032 128.204 10.048 128.023 10.08C127.841 10.1013 127.692 10.128 127.575 10.16L126.023 16.624H123.639L125.559 8.656C126.017 8.50667 126.529 8.368 127.095 8.24C127.671 8.10133 128.316 8.032 129.031 8.032C129.297 8.032 129.591 8.05867 129.911 8.112C130.241 8.15467 130.529 8.22933 130.775 8.336L130.071 10.256Z" fill="#22242B"/>
<path d="M137.465 15.568C137.305 16.2613 137.092 16.8587 136.825 17.36C136.569 17.872 136.244 18.2933 135.849 18.624C135.465 18.9653 135.001 19.216 134.457 19.376C133.913 19.5467 133.279 19.632 132.553 19.632C131.881 19.632 131.316 19.568 130.857 19.44C130.399 19.3227 129.983 19.1733 129.609 18.992L130.409 17.104C130.74 17.2533 131.081 17.3813 131.433 17.488C131.796 17.5947 132.239 17.648 132.761 17.648C133.444 17.648 133.956 17.4933 134.297 17.184C134.649 16.8853 134.879 16.496 134.985 16.016L135.049 15.712C134.836 15.8187 134.607 15.904 134.361 15.968C134.127 16.032 133.876 16.064 133.609 16.064C133.108 16.064 132.676 15.9893 132.313 15.84C131.951 15.68 131.652 15.4613 131.417 15.184C131.193 14.9067 131.023 14.5813 130.905 14.208C130.799 13.824 130.745 13.408 130.745 12.96C130.745 12.1493 130.895 11.4347 131.193 10.816C131.492 10.1867 131.887 9.664 132.377 9.248C132.879 8.832 133.449 8.51733 134.089 8.304C134.74 8.09067 135.417 7.984 136.121 7.984C136.633 7.984 137.14 8.03733 137.641 8.144C138.143 8.25067 138.633 8.416 139.113 8.64L137.465 15.568ZM136.409 10.048C136.228 10.0053 136.004 9.984 135.737 9.984C135.332 9.984 134.969 10.0587 134.649 10.208C134.329 10.3467 134.052 10.5387 133.817 10.784C133.593 11.0293 133.417 11.328 133.289 11.68C133.172 12.0213 133.113 12.3893 133.113 12.784C133.113 12.976 133.129 13.1573 133.161 13.328C133.193 13.488 133.252 13.632 133.337 13.76C133.423 13.8773 133.54 13.9733 133.689 14.048C133.839 14.1227 134.025 14.16 134.249 14.16C134.399 14.16 134.596 14.1333 134.841 14.08C135.097 14.0267 135.327 13.904 135.529 13.712L136.409 10.048Z" fill="#22242B"/>
<defs>
<clipPath id="clip0_4514_49124">
<rect width="24" height="24" fill="white"/>
</clipPath>
</defs>
</svg>
