<svg width="5" height="10" viewBox="0 0 5 10" fill="none" xmlns="http://www.w3.org/2000/svg">
<path d="M2.76 2.58V0.849999H3.43V2.58H2.76ZM1.43 2.58V0.849999H2.1V2.58H1.43ZM2.76 9.98V8.25H3.43V9.98H2.76ZM1.43 9.98V8.25H2.1V9.98H1.43ZM0.4 9V1.86H2.12C2.69333 1.86 3.17 1.92 3.55 2.04C3.93667 2.15333 4.22667 2.34333 4.42 2.61C4.62 2.87 4.72 3.22333 4.72 3.67C4.72 3.93667 4.68667 4.18 4.62 4.4C4.55333 4.62 4.45667 4.8 4.33 4.94C4.20333 5.08 4.05 5.17 3.87 5.21V5.26C4.06333 5.30667 4.23667 5.39 4.39 5.51C4.54333 5.63 4.66667 5.80333 4.76 6.03C4.85333 6.25667 4.9 6.55667 4.9 6.93C4.9 7.36333 4.80667 7.73667 4.62 8.05C4.43333 8.35667 4.16333 8.59333 3.81 8.76C3.46333 8.92 3.05 9 2.57 9H0.4ZM2.29 4.69C2.62333 4.69 2.85333 4.62 2.98 4.48C3.10667 4.34 3.17 4.13667 3.17 3.87C3.17 3.59667 3.09333 3.4 2.94 3.28C2.78667 3.16 2.54333 3.1 2.21 3.1H1.91V4.69H2.29ZM1.91 5.89V7.75H2.4C2.74667 7.75 2.98667 7.66333 3.12 7.49C3.26 7.31 3.33 7.07333 3.33 6.78C3.33 6.6 3.3 6.44333 3.24 6.31C3.18 6.17667 3.07667 6.07333 2.93 6C2.79 5.92667 2.59667 5.89 2.35 5.89H1.91Z" fill="#FF8D07"/>
</svg>
