<svg width="24" height="24" viewBox="0 0 24 24" fill="none" xmlns="http://www.w3.org/2000/svg">
<g clip-path="url(#clip0_4564_1076)">
<path d="M23.6398 14.9029C22.037 21.3315 15.5259 25.2439 9.09651 23.6407C2.66976 22.038 -1.24261 15.5265 0.360888 9.09824C1.96289 2.66887 8.47401 -1.24388 14.9015 0.35887C21.3305 1.96162 25.2425 8.47387 23.6398 14.9029Z" fill="#F7931A"/>
<path d="M17.2911 10.2904C17.5299 8.69362 16.3142 7.83524 14.6518 7.26262L15.1911 5.09962L13.8744 4.77149L13.3494 6.87749C13.0033 6.79124 12.6478 6.70987 12.2946 6.62924L12.8233 4.50937L11.5074 4.18124L10.9678 6.34349C10.6813 6.27824 10.4001 6.21374 10.1271 6.14587L10.1286 6.13912L8.31282 5.68574L7.96257 7.09199C7.96257 7.09199 8.93945 7.31587 8.91882 7.32974C9.45207 7.46287 9.54844 7.81574 9.53232 8.09549L8.91807 10.5596C8.95482 10.569 9.00244 10.5825 9.05494 10.6035C9.01107 10.5926 8.96419 10.5806 8.91582 10.569L8.05482 14.0209C7.98957 14.1829 7.8242 14.4259 7.45145 14.3336C7.46457 14.3527 6.49445 14.0947 6.49445 14.0947L5.84082 15.6019L7.5542 16.029C7.87295 16.1089 8.18532 16.1925 8.49282 16.2712L7.94794 18.459L9.26307 18.7871L9.8027 16.6226C10.1619 16.7201 10.5107 16.8101 10.8519 16.8949L10.3142 19.0492L11.6308 19.3774L12.1757 17.1937C14.4208 17.6186 16.1091 17.4472 16.8197 15.4166C17.3923 13.7816 16.7912 12.8385 15.6099 12.2235C16.4702 12.0251 17.1182 11.4592 17.2911 10.2904ZM14.2828 14.5087C13.8759 16.1437 11.1231 15.2599 10.2306 15.0382L10.9536 12.1399C11.8461 12.3626 14.7081 12.8036 14.2828 14.5087ZM14.6901 10.2667C14.3188 11.754 12.0276 10.9984 11.2843 10.8131L11.9398 8.18437C12.6831 8.36962 15.0767 8.71537 14.6901 10.2667Z" fill="white"/>
</g>
<defs>
<clipPath id="clip0_4564_1076">
<rect width="24" height="24" fill="white"/>
</clipPath>
</defs>
</svg>
