<svg width="120" height="27" viewBox="0 0 120 27" fill="none" xmlns="http://www.w3.org/2000/svg">
<path d="M3.1343 5.76763H5.72207C8.08719 5.76763 9.12944 6.51498 9.12944 8.03312C9.12944 9.3524 8.08719 10.2482 5.99514 10.2482H3.1343V5.76763ZM0 20.6949H6.34242C9.67557 20.6949 13.0087 19.5042 13.0087 15.6714C13.0087 13.4059 11.4203 11.6667 9.20683 11.4151V11.3627C11.0179 10.8201 12.2669 9.50124 12.2669 7.5104C12.2669 4.30029 9.52713 3.08222 6.86514 3.08222H0V20.6949ZM3.1343 12.9336H6.14358C8.68055 12.9336 9.87878 13.5813 9.87878 15.4237C9.87878 17.7341 7.63472 18.0095 6.01856 18.0095H3.1343V12.9336Z" fill="white" fill-opacity="0.3"/>
<path fill-rule="evenodd" clip-rule="evenodd" d="M18.0414 2.66666V20.6949H15.0646V2.66666H18.0414Z" fill="white" fill-opacity="0.3"/>
<path d="M23.0244 14.7252C23.0244 12.8594 24.3437 11.1444 26.5334 11.1444C28.7231 11.1444 30.0384 12.8598 30.0384 14.7252C30.0384 16.5906 28.7231 18.3064 26.5334 18.3064C24.3433 18.3064 23.0244 16.591 23.0244 14.7252ZM20.0386 14.7252C20.0386 18.4818 22.9228 20.9918 26.5334 20.9918C30.1396 20.9918 33.0282 18.4822 33.0282 14.7252C33.0282 10.9682 30.14 8.45502 26.5334 8.45502C22.9228 8.45462 20.0386 10.9686 20.0386 14.7252Z" fill="white" fill-opacity="0.3"/>
<path d="M37.3604 14.7252C37.3604 12.8594 38.6797 11.1444 40.8693 11.1444C43.059 11.1444 44.3743 12.8598 44.3743 14.7252C44.3743 16.5906 43.059 18.3064 40.8693 18.3064C38.6797 18.3064 37.3604 16.591 37.3604 14.7252ZM34.3745 14.7252C34.3745 18.4818 37.2592 20.9918 40.8693 20.9918C44.4756 20.9918 47.3642 18.4822 47.3642 14.7252C47.3642 10.9682 44.4759 8.45502 40.8693 8.45502C37.2588 8.45462 34.3745 10.9686 34.3745 14.7252Z" fill="white" fill-opacity="0.3"/>
<path d="M49.1828 8.75349H52.0202V10.6213H52.067C52.5901 9.50124 53.7336 8.45303 55.724 8.45303C57.5664 8.45303 58.8389 9.17301 59.4592 10.6681C60.3296 9.15356 61.5981 8.45303 63.3857 8.45303C66.5704 8.45303 67.6913 10.7205 67.6913 13.5817V20.6953H64.7054V13.929C64.7054 12.4379 64.2605 11.144 62.4923 11.144C60.6269 11.144 59.928 12.6855 59.928 14.2255V20.6949H56.9461V13.5813C56.9461 12.1097 56.3487 11.144 54.9048 11.144C52.9414 11.144 52.1686 12.5824 52.1686 14.1767V20.6949H49.1828V8.75349Z" fill="white" fill-opacity="0.3"/>
<path d="M80.0134 14.7252C80.0134 16.593 78.6981 18.3064 76.5044 18.3064C74.3143 18.3064 72.9954 16.593 72.9954 14.7252C72.9954 12.8594 74.3143 11.14 76.5044 11.14C78.6981 11.14 80.0134 12.8594 80.0134 14.7252ZM70.1112 20.6949H72.9486V18.9049H72.9954C73.8694 20.3433 75.4348 20.9914 77.1049 20.9914C80.7818 20.9914 82.9988 18.2552 82.9988 14.7248C82.9988 11.1924 80.6337 8.45462 77.2263 8.45462C74.9894 8.45462 73.7916 9.49687 73.1709 10.2736H73.0966V2.66666H70.1108L70.1112 20.6949Z" fill="white" fill-opacity="0.3"/>
<path d="M87.3353 13.5309C87.558 11.8116 88.6546 10.6935 90.4188 10.6935C92.2846 10.6935 93.4281 11.7886 93.4555 13.5309H87.3353ZM96.4414 15.7694V14.9499C96.4414 10.7931 94.1778 8.45502 90.8443 8.45502C87.2302 8.45502 84.3495 10.9686 84.3495 14.7252C84.3495 18.4818 87.2302 20.9918 90.8443 20.9918C92.7296 20.9918 94.5013 20.3207 95.8909 18.6069L93.752 16.9931C93.0066 17.9087 92.0346 18.6069 90.5435 18.6069C88.8773 18.6069 87.5302 17.5356 87.3353 15.7694H96.4414Z" fill="white" fill-opacity="0.3"/>
<path d="M98.385 8.75349H101.371V10.6447H101.422C102.069 9.2766 103.385 8.45303 104.954 8.45303C105.328 8.45303 105.676 8.52924 106.023 8.63045V11.5151C105.527 11.3921 105.051 11.2924 104.579 11.2924C101.769 11.2924 101.37 13.6576 101.37 14.3057V20.6953H98.3846L98.385 8.75349Z" fill="white" fill-opacity="0.3"/>
<path d="M112.702 11.144C114.864 11.144 116.234 12.5824 116.234 14.6526C116.234 16.6394 114.891 18.1576 112.678 18.1576C110.664 18.1576 109.169 16.5906 109.169 14.6994C109.169 12.5824 110.609 11.144 112.702 11.144ZM116.234 8.75349V10.5451H116.187C115.313 9.10077 113.744 8.45303 112.078 8.45303C108.397 8.45303 106.184 11.1908 106.184 14.7252C106.184 18.1052 108.549 20.8434 112.128 20.8434C113.623 20.8434 115.165 20.2734 116.039 19.1046H116.082V19.977C116.082 22.3381 115.192 23.9817 112.304 23.9817C110.637 23.9817 109.392 23.3569 108.197 22.2563L106.41 24.6992C108.096 26.1979 110.114 26.6667 112.331 26.6667C116.984 26.6667 119.071 23.9269 119.071 19.6253V8.75349H116.234Z" fill="white" fill-opacity="0.3"/>
</svg>
