<svg width="143" height="24" viewBox="0 0 143 24" fill="none" xmlns="http://www.w3.org/2000/svg">
<g clip-path="url(#clip0_5195_26304)">
<path d="M23.6393 14.9031C22.0365 21.3317 15.5254 25.2441 9.09602 23.641C2.66927 22.0382 -1.2431 15.5267 0.360399 9.09847C1.9624 2.6691 8.47352 -1.24365 14.901 0.359098C21.33 1.96185 25.242 8.4741 23.6393 14.9031Z" fill="#F7931A"/>
<path d="M17.2901 10.2908C17.529 8.69402 16.3132 7.83564 14.6508 7.26302L15.1901 5.10002L13.8735 4.77189L13.3485 6.87789C13.0023 6.79164 12.6468 6.71027 12.2936 6.62964L12.8223 4.50977L11.5065 4.18164L10.9668 6.34389C10.6803 6.27864 10.3991 6.21414 10.1261 6.14627L10.1276 6.13952L8.31184 5.68614L7.96159 7.09239C7.96159 7.09239 8.93847 7.31627 8.91784 7.33014C9.45109 7.46327 9.54747 7.81614 9.53134 8.09589L8.91709 10.56C8.95384 10.5694 9.00147 10.5829 9.05397 10.6039C9.01009 10.593 8.96322 10.581 8.91484 10.5694L8.05384 14.0213C7.98859 14.1833 7.82322 14.4263 7.45047 14.334C7.46359 14.3531 6.49347 14.0951 6.49347 14.0951L5.83984 15.6023L7.55322 16.0294C7.87197 16.1093 8.18434 16.1929 8.49184 16.2716L7.94697 18.4594L9.26209 18.7875L9.80172 16.623C10.161 16.7205 10.5097 16.8105 10.851 16.8953L10.3132 19.0496L11.6298 19.3778L12.1747 17.1941C14.4198 17.619 16.1081 17.4476 16.8187 15.417C17.3913 13.782 16.7902 12.8389 15.609 12.2239C16.4692 12.0255 17.1172 11.4596 17.2901 10.2908ZM14.2818 14.5091C13.875 16.1441 11.1221 15.2603 10.2296 15.0386L10.9526 12.1403C11.8451 12.363 14.7071 12.804 14.2818 14.5091ZM14.6891 10.2671C14.3178 11.7544 12.0266 10.9988 11.2833 10.8135L11.9388 8.18477C12.6821 8.37002 15.0757 8.71577 14.6891 10.2671Z" fill="white"/>
</g>
<path d="M35.792 16.7682C35.152 16.7682 34.496 16.7415 33.824 16.6882C33.152 16.6348 32.544 16.5495 32 16.4322L34.56 5.71216C35.168 5.59483 35.8027 5.51483 36.464 5.47216C37.136 5.4295 37.7493 5.40816 38.304 5.40816C38.944 5.40816 39.4933 5.4775 39.952 5.61616C40.4213 5.74416 40.8 5.92016 41.088 6.14416C41.3867 6.36816 41.6053 6.63483 41.744 6.94416C41.8933 7.24283 41.968 7.56283 41.968 7.90416C41.968 8.13883 41.9413 8.38416 41.888 8.64016C41.8453 8.89616 41.7493 9.15216 41.6 9.40816C41.4613 9.6535 41.264 9.88816 41.008 10.1122C40.7627 10.3362 40.4373 10.5388 40.032 10.7202C40.512 10.9335 40.864 11.2268 41.088 11.6002C41.312 11.9628 41.424 12.3682 41.424 12.8162C41.424 13.3282 41.3227 13.8242 41.12 14.3042C40.9173 14.7735 40.592 15.1948 40.144 15.5682C39.696 15.9308 39.1147 16.2242 38.4 16.4482C37.6853 16.6615 36.816 16.7682 35.792 16.7682ZM35.568 11.7762L34.88 14.6562C35.0507 14.6882 35.264 14.7148 35.52 14.7362C35.7867 14.7468 36.032 14.7522 36.256 14.7522C36.576 14.7522 36.8907 14.7308 37.2 14.6882C37.52 14.6348 37.8027 14.5442 38.048 14.4162C38.304 14.2882 38.512 14.1122 38.672 13.8882C38.832 13.6642 38.912 13.3762 38.912 13.0242C38.912 12.8748 38.88 12.7255 38.816 12.5762C38.7627 12.4268 38.672 12.2935 38.544 12.1762C38.416 12.0588 38.2453 11.9628 38.032 11.8882C37.8293 11.8135 37.584 11.7762 37.296 11.7762H35.568ZM36.032 9.90416H37.6C38.24 9.90416 38.7147 9.7655 39.024 9.48816C39.344 9.21083 39.504 8.88016 39.504 8.49616C39.504 8.2935 39.456 8.12283 39.36 7.98416C39.2747 7.83483 39.1573 7.7175 39.008 7.63216C38.8587 7.54683 38.688 7.48816 38.496 7.45616C38.304 7.4135 38.1067 7.39216 37.904 7.39216C37.68 7.39216 37.44 7.40283 37.184 7.42416C36.928 7.43483 36.736 7.45083 36.608 7.47216L36.032 9.90416Z" fill="#F1F2F4"/>
<path d="M44.8193 16.6242H42.4513L44.4513 8.20816H46.8352L44.8193 16.6242ZM45.9713 7.18416C45.6406 7.18416 45.3419 7.08816 45.0753 6.89616C44.8086 6.6935 44.6753 6.3895 44.6753 5.98416C44.6753 5.76016 44.7179 5.55216 44.8033 5.36016C44.8993 5.1575 45.0219 4.98683 45.1713 4.84816C45.3206 4.69883 45.4913 4.5815 45.6833 4.49616C45.8859 4.41083 46.0992 4.36816 46.3232 4.36816C46.6539 4.36816 46.9526 4.4695 47.2193 4.67216C47.4859 4.86416 47.6193 5.16283 47.6193 5.56816C47.6193 5.79216 47.5712 6.0055 47.4753 6.20816C47.3899 6.40016 47.2726 6.57083 47.1233 6.72016C46.9739 6.85883 46.7979 6.97083 46.5953 7.05616C46.4032 7.1415 46.1953 7.18416 45.9713 7.18416Z" fill="#F1F2F4"/>
<path d="M49.2705 6.11216L51.7505 5.72816L51.1425 8.20816H53.7985L53.3185 10.1602H50.6785L49.9745 13.1042C49.9105 13.3495 49.8678 13.5788 49.8465 13.7922C49.8358 14.0055 49.8625 14.1922 49.9265 14.3522C50.0012 14.5015 50.1238 14.6188 50.2945 14.7042C50.4652 14.7895 50.6998 14.8322 50.9985 14.8322C51.2545 14.8322 51.4998 14.8108 51.7345 14.7682C51.9798 14.7148 52.2252 14.6455 52.4705 14.5602L52.6465 16.3842C52.3265 16.5015 51.9798 16.6028 51.6065 16.6882C51.2332 16.7735 50.7905 16.8162 50.2785 16.8162C49.5425 16.8162 48.9718 16.7095 48.5665 16.4962C48.1612 16.2722 47.8732 15.9735 47.7025 15.6002C47.5318 15.2162 47.4572 14.7788 47.4785 14.2882C47.4998 13.7975 47.5745 13.2802 47.7025 12.7362L49.2705 6.11216Z" fill="#F1F2F4"/>
<path d="M53.8844 13.2642C53.8844 12.5388 54.0017 11.8562 54.2364 11.2162C54.471 10.5762 54.807 10.0162 55.2444 9.53616C55.6817 9.05616 56.2097 8.6775 56.8284 8.40016C57.4577 8.12283 58.1564 7.98416 58.9244 7.98416C59.4044 7.98416 59.831 8.03216 60.2044 8.12816C60.5884 8.2135 60.935 8.33083 61.2444 8.48016L60.4284 10.3362C60.215 10.2508 59.991 10.1762 59.7564 10.1122C59.5324 10.0375 59.255 10.0002 58.9244 10.0002C58.1244 10.0002 57.495 10.2722 57.0364 10.8162C56.5777 11.3495 56.3484 12.0802 56.3484 13.0082C56.3484 13.5522 56.4657 13.9948 56.7004 14.3362C56.935 14.6668 57.367 14.8322 57.9964 14.8322C58.3057 14.8322 58.6044 14.8002 58.8924 14.7362C59.1804 14.6722 59.4364 14.5922 59.6604 14.4962L59.8364 16.4002C59.5377 16.5175 59.207 16.6188 58.8444 16.7042C58.4924 16.8002 58.0604 16.8482 57.5484 16.8482C56.887 16.8482 56.327 16.7522 55.8684 16.5602C55.4097 16.3682 55.031 16.1122 54.7324 15.7922C54.4337 15.4615 54.215 15.0775 54.0764 14.6402C53.9484 14.2028 53.8844 13.7442 53.8844 13.2642Z" fill="#F1F2F4"/>
<path d="M64.4936 16.8482C63.9283 16.8482 63.4376 16.7628 63.0216 16.5922C62.6056 16.4215 62.259 16.1815 61.9816 15.8722C61.715 15.5628 61.5123 15.2002 61.3736 14.7842C61.235 14.3575 61.1656 13.8882 61.1656 13.3762C61.1656 12.7362 61.267 12.0962 61.4696 11.4562C61.683 10.8162 61.9923 10.2402 62.3976 9.72816C62.803 9.21616 63.299 8.80016 63.8856 8.48016C64.4723 8.1495 65.1443 7.98416 65.9016 7.98416C66.4563 7.98416 66.9416 8.0695 67.3576 8.24016C67.7843 8.41083 68.131 8.65083 68.3976 8.96016C68.675 9.2695 68.883 9.6375 69.0216 10.0642C69.1603 10.4802 69.2296 10.9442 69.2296 11.4562C69.2296 12.0962 69.1283 12.7362 68.9256 13.3762C68.723 14.0162 68.4243 14.5922 68.0296 15.1042C67.635 15.6162 67.139 16.0375 66.5416 16.3682C65.955 16.6882 65.2723 16.8482 64.4936 16.8482ZM65.6776 10.0002C65.3256 10.0002 65.0163 10.1015 64.7496 10.3042C64.483 10.5068 64.259 10.7628 64.0776 11.0722C63.8963 11.3815 63.7576 11.7228 63.6616 12.0962C63.5763 12.4588 63.5336 12.8055 63.5336 13.1362C63.5336 13.6802 63.619 14.1015 63.7896 14.4002C63.9603 14.6882 64.2696 14.8322 64.7176 14.8322C65.0696 14.8322 65.379 14.7308 65.6456 14.5282C65.9123 14.3255 66.1363 14.0695 66.3176 13.7602C66.499 13.4508 66.6323 13.1148 66.7176 12.7522C66.8136 12.3788 66.8616 12.0268 66.8616 11.6962C66.8616 11.1522 66.7763 10.7362 66.6056 10.4482C66.435 10.1495 66.1256 10.0002 65.6776 10.0002Z" fill="#F1F2F4"/>
<path d="M72.2411 16.6242H69.8731L71.8731 8.20816H74.2571L72.2411 16.6242ZM73.3931 7.18416C73.0625 7.18416 72.7638 7.08816 72.4971 6.89616C72.2305 6.6935 72.0971 6.3895 72.0971 5.98416C72.0971 5.76016 72.1398 5.55216 72.2251 5.36016C72.3211 5.1575 72.4438 4.98683 72.5931 4.84816C72.7425 4.69883 72.9131 4.5815 73.1051 4.49616C73.3078 4.41083 73.5211 4.36816 73.7451 4.36816C74.0758 4.36816 74.3745 4.4695 74.6411 4.67216C74.9078 4.86416 75.0411 5.16283 75.0411 5.56816C75.0411 5.79216 74.9931 6.0055 74.8971 6.20816C74.8118 6.40016 74.6945 6.57083 74.5451 6.72016C74.3958 6.85883 74.2198 6.97083 74.0171 7.05616C73.8251 7.1415 73.6171 7.18416 73.3931 7.18416Z" fill="#F1F2F4"/>
<path d="M76.3404 8.59216C76.5217 8.53883 76.719 8.48016 76.9324 8.41616C77.1564 8.3415 77.4017 8.2775 77.6684 8.22416C77.9457 8.16016 78.2497 8.11216 78.5804 8.08016C78.9217 8.0375 79.3057 8.01616 79.7324 8.01616C80.991 8.01616 81.855 8.37883 82.3244 9.10416C82.7937 9.8295 82.8737 10.8215 82.5644 12.0802L81.4764 16.6242H79.0924L80.1484 12.1762C80.2124 11.8988 80.2604 11.6322 80.2924 11.3762C80.335 11.1095 80.335 10.8802 80.2924 10.6882C80.2497 10.4855 80.1484 10.3255 79.9884 10.2082C79.839 10.0802 79.6044 10.0162 79.2844 10.0162C78.975 10.0162 78.6604 10.0482 78.3404 10.1122L76.7884 16.6242H74.4044L76.3404 8.59216Z" fill="#F1F2F4"/>
<path d="M83.5625 16.6242L86.2185 5.53616H93.4665L92.9545 7.58416H88.2025L87.6905 9.82416H91.8825L91.3865 11.8402H87.1945L86.5545 14.5602H91.6745L91.1625 16.6242H83.5625Z" fill="#F1F2F4"/>
<path d="M103.687 5.53616L103.174 7.63216H99.9265L97.7665 16.6242H95.2705L97.4305 7.63216H94.1825L94.6945 5.53616H103.687Z" fill="#F1F2F4"/>
<path d="M102.562 16.6242L105.218 5.53616H112.403L111.891 7.60016H107.202L106.643 9.96816H110.786L110.29 12.0322H106.146L105.043 16.6242H102.562Z" fill="#F1F2F4"/>
<path d="M112.173 13.8882C112.546 13.8882 112.855 13.9948 113.101 14.2082C113.356 14.4108 113.484 14.7362 113.484 15.1842C113.484 15.4295 113.437 15.6535 113.34 15.8562C113.255 16.0588 113.138 16.2348 112.989 16.3842C112.839 16.5228 112.669 16.6295 112.477 16.7042C112.285 16.7895 112.087 16.8322 111.884 16.8322C111.511 16.8322 111.196 16.7308 110.94 16.5282C110.695 16.3148 110.573 15.9842 110.573 15.5362C110.573 15.2908 110.615 15.0668 110.701 14.8642C110.797 14.6615 110.919 14.4908 111.068 14.3522C111.218 14.2028 111.388 14.0908 111.58 14.0162C111.772 13.9308 111.97 13.8882 112.173 13.8882Z" fill="#F1F2F4"/>
<path d="M118.259 16.8482C117.694 16.8482 117.203 16.7628 116.787 16.5922C116.371 16.4215 116.025 16.1815 115.747 15.8722C115.481 15.5628 115.278 15.2002 115.139 14.7842C115.001 14.3575 114.931 13.8882 114.931 13.3762C114.931 12.7362 115.033 12.0962 115.235 11.4562C115.449 10.8162 115.758 10.2402 116.163 9.72816C116.569 9.21616 117.065 8.80016 117.651 8.48016C118.238 8.1495 118.91 7.98416 119.667 7.98416C120.222 7.98416 120.707 8.0695 121.123 8.24016C121.55 8.41083 121.897 8.65083 122.163 8.96016C122.441 9.2695 122.649 9.6375 122.787 10.0642C122.926 10.4802 122.995 10.9442 122.995 11.4562C122.995 12.0962 122.894 12.7362 122.691 13.3762C122.489 14.0162 122.19 14.5922 121.795 15.1042C121.401 15.6162 120.905 16.0375 120.307 16.3682C119.721 16.6882 119.038 16.8482 118.259 16.8482ZM119.443 10.0002C119.091 10.0002 118.782 10.1015 118.515 10.3042C118.249 10.5068 118.025 10.7628 117.843 11.0722C117.662 11.3815 117.523 11.7228 117.427 12.0962C117.342 12.4588 117.299 12.8055 117.299 13.1362C117.299 13.6802 117.385 14.1015 117.555 14.4002C117.726 14.6882 118.035 14.8322 118.483 14.8322C118.835 14.8322 119.145 14.7308 119.411 14.5282C119.678 14.3255 119.902 14.0695 120.083 13.7602C120.265 13.4508 120.398 13.1148 120.483 12.7522C120.579 12.3788 120.627 12.0268 120.627 11.6962C120.627 11.1522 120.542 10.7362 120.371 10.4482C120.201 10.1495 119.891 10.0002 119.443 10.0002Z" fill="#F1F2F4"/>
<path d="M130.071 10.2562C129.857 10.2028 129.644 10.1548 129.431 10.1122C129.228 10.0588 128.924 10.0322 128.519 10.0322C128.369 10.0322 128.204 10.0482 128.023 10.0802C127.841 10.1015 127.692 10.1282 127.575 10.1602L126.023 16.6242H123.639L125.559 8.65616C126.017 8.50683 126.529 8.36816 127.095 8.24016C127.671 8.1015 128.316 8.03216 129.031 8.03216C129.297 8.03216 129.591 8.05883 129.911 8.11216C130.241 8.15483 130.529 8.2295 130.775 8.33616L130.071 10.2562Z" fill="#F1F2F4"/>
<path d="M137.465 15.5682C137.305 16.2615 137.092 16.8588 136.825 17.3602C136.569 17.8722 136.244 18.2935 135.849 18.6242C135.465 18.9655 135.001 19.2162 134.457 19.3762C133.913 19.5468 133.279 19.6322 132.553 19.6322C131.881 19.6322 131.316 19.5682 130.857 19.4402C130.399 19.3228 129.983 19.1735 129.609 18.9922L130.409 17.1042C130.74 17.2535 131.081 17.3815 131.433 17.4882C131.796 17.5948 132.239 17.6482 132.761 17.6482C133.444 17.6482 133.956 17.4935 134.297 17.1842C134.649 16.8855 134.879 16.4962 134.985 16.0162L135.049 15.7122C134.836 15.8188 134.607 15.9042 134.361 15.9682C134.127 16.0322 133.876 16.0642 133.609 16.0642C133.108 16.0642 132.676 15.9895 132.313 15.8402C131.951 15.6802 131.652 15.4615 131.417 15.1842C131.193 14.9068 131.023 14.5815 130.905 14.2082C130.799 13.8242 130.745 13.4082 130.745 12.9602C130.745 12.1495 130.895 11.4348 131.193 10.8162C131.492 10.1868 131.887 9.66416 132.377 9.24816C132.879 8.83216 133.449 8.5175 134.089 8.30416C134.74 8.09083 135.417 7.98416 136.121 7.98416C136.633 7.98416 137.14 8.0375 137.641 8.14416C138.143 8.25083 138.633 8.41616 139.113 8.64016L137.465 15.5682ZM136.409 10.0482C136.228 10.0055 136.004 9.98416 135.737 9.98416C135.332 9.98416 134.969 10.0588 134.649 10.2082C134.329 10.3468 134.052 10.5388 133.817 10.7842C133.593 11.0295 133.417 11.3282 133.289 11.6802C133.172 12.0215 133.113 12.3895 133.113 12.7842C133.113 12.9762 133.129 13.1575 133.161 13.3282C133.193 13.4882 133.252 13.6322 133.337 13.7602C133.423 13.8775 133.54 13.9735 133.689 14.0482C133.839 14.1228 134.025 14.1602 134.249 14.1602C134.399 14.1602 134.596 14.1335 134.841 14.0802C135.097 14.0268 135.327 13.9042 135.529 13.7122L136.409 10.0482Z" fill="#F1F2F4"/>
<defs>
<clipPath id="clip0_5195_26304">
<rect width="24" height="24" fill="white"/>
</clipPath>
</defs>
</svg>
