<svg width="33" height="33" viewBox="0 0 33 33" fill="none" xmlns="http://www.w3.org/2000/svg">
<path d="M0.0571899 16.0571C0.0571899 7.22045 7.22051 0.0571289 16.0572 0.0571289C24.8938 0.0571289 32.0571 7.22045 32.0571 16.0571C32.0571 24.8938 24.8938 32.0571 16.0572 32.0571C7.22051 32.0571 0.0571899 24.8938 0.0571899 16.0571Z" fill="#F7931A"/>
<path d="M18.5374 5.39044C17.5834 7.86663 16.6295 10.5333 15.4848 13.2C15.4848 13.2 15.4848 13.5809 15.8664 13.5809H23.6886C23.6886 13.5809 23.6886 13.7714 23.8794 13.9619L12.4322 26.7238C12.2414 26.5333 12.2414 26.3428 12.2414 26.1523L16.2479 17.5809V16.819H8.23492V16.0571L17.965 5.39044H18.5374Z" fill="white"/>
</svg>
