<svg width="19" height="18" viewBox="0 0 19 18" fill="none" xmlns="http://www.w3.org/2000/svg">
<path d="M5.76304 5.87502L5.77606 5.8757C5.83058 5.87854 5.88453 5.86346 5.92967 5.83277L6.19218 6.21881L5.92967 5.83277C5.97449 5.80229 6.00818 5.75808 6.02569 5.70681L6.43008 4.47864L6.43128 4.47501L6.43129 4.47502C6.51515 4.22674 6.67491 4.0111 6.88801 3.85857C7.1009 3.70618 7.35626 3.62449 7.61806 3.62502M5.76304 5.87502L7.61879 3.62502C7.61855 3.62502 7.61831 3.62502 7.61806 3.62502M5.76304 5.87502H5.75H4.25C3.91848 5.87502 3.60054 6.00671 3.36612 6.24113C3.1317 6.47555 3 6.7935 3 7.12502L3 13.125C3 13.4565 3.1317 13.7745 3.36612 14.0089C3.60054 14.2433 3.91848 14.375 4.25 14.375L14.75 14.375C15.0815 14.375 15.3995 14.2433 15.6339 14.0089C15.8683 13.7745 16 13.4565 16 13.125V7.12502C16 6.7935 15.8683 6.47555 15.6339 6.24113C15.3995 6.00671 15.0815 5.87502 14.75 5.87502H13.2652C13.2181 5.8711 13.173 5.85391 13.1351 5.82534C13.0953 5.79524 13.0654 5.75391 13.0493 5.70667C13.0491 5.70631 13.049 5.70595 13.0489 5.70559L12.6449 4.47864L12.6449 4.47864L12.6437 4.47502C12.5599 4.22674 12.4001 4.0111 12.187 3.85857C11.9741 3.70618 11.7187 3.62449 11.4569 3.62502M5.76304 5.87502L11.4569 3.62502M7.61806 3.62502L11.4569 3.62502M7.61806 3.62502L11.4569 3.62502M14.75 5.37502H14.7501C14.9824 5.37498 15.2123 5.4212 15.4266 5.51096C15.6408 5.60073 15.835 5.73224 15.9979 5.89785C16.1608 6.06345 16.2891 6.25983 16.3753 6.47553L16.8396 6.28996L16.3753 6.47553C16.4615 6.69122 16.5039 6.92193 16.5001 7.15418L16.5 7.15418V7.16252V13.1625C16.5 13.6266 16.3156 14.0718 15.9874 14.4C15.6593 14.7281 15.2141 14.9125 14.75 14.9125L4.25 14.9125C3.78587 14.9125 3.34075 14.7281 3.01256 14.4C2.68437 14.0718 2.5 13.6266 2.5 13.1625L2.5 7.16252C2.5 6.69839 2.68437 6.25327 3.01256 5.92508C3.34075 5.59689 3.78587 5.41252 4.25 5.41252H5.21H5.57498L5.68621 5.0649L5.9252 4.31807C6.04154 3.97151 6.26351 3.67005 6.55997 3.45606C6.85709 3.24158 7.21405 3.1258 7.58049 3.12502L11.42 3.12502L11.4219 3.12501C11.785 3.12361 12.1395 3.23516 12.4363 3.44419C12.7312 3.65187 12.9547 3.94555 13.0762 4.28502L13.3138 5.0274L13.425 5.37502H13.79H14.75ZM8.11107 7.29634C8.5222 7.02164 9.00555 6.87502 9.5 6.87502C10.163 6.87502 10.7989 7.13841 11.2678 7.60725C11.7366 8.07609 12 8.71198 12 9.37502C12 9.86947 11.8534 10.3528 11.5787 10.7639C11.304 11.1751 10.9135 11.4955 10.4567 11.6847C9.99989 11.8739 9.49723 11.9234 9.01228 11.827C8.52732 11.7305 8.08186 11.4924 7.73223 11.1428C7.3826 10.7932 7.1445 10.3477 7.04804 9.86274C6.95157 9.37779 7.00108 8.87512 7.1903 8.41831C7.37952 7.96149 7.69995 7.57105 8.11107 7.29634ZM8.38886 11.038C8.71776 11.2577 9.10444 11.375 9.5 11.375C10.0304 11.375 10.5391 11.1643 10.9142 10.7892C11.2893 10.4142 11.5 9.90545 11.5 9.37502C11.5 8.97945 11.3827 8.59277 11.1629 8.26388C10.9432 7.93498 10.6308 7.67863 10.2654 7.52726C9.89991 7.37588 9.49778 7.33628 9.10982 7.41345C8.72186 7.49062 8.36549 7.6811 8.08579 7.9608C7.80608 8.24051 7.6156 8.59687 7.53843 8.98483C7.46126 9.3728 7.50087 9.77493 7.65224 10.1404C7.80362 10.5058 8.05996 10.8182 8.38886 11.038Z" fill="#22242B" stroke="#0066FF"/>
</svg>
