<svg width="24" height="25" viewBox="0 0 24 25" fill="none" xmlns="http://www.w3.org/2000/svg">
<path d="M12 23.25C5.9 23.25 1 18.35 1 12.25C1 6.15 5.9 1.25 12 1.25C13.6 1.25 15.1 1.55 16.5 2.25C17 2.45 17.2 3.05 17 3.55C16.8 4.05 16.2 4.25 15.7 4.05C14.5 3.55 13.3 3.25 12 3.25C7 3.25 3 7.25 3 12.25C3 17.25 7 21.25 12 21.25C17 21.25 21 17.25 21 12.25V11.35C21 10.75 21.4 10.35 22 10.35C22.6 10.35 23 10.75 23 11.35V12.25C23 18.35 18.1 23.25 12 23.25ZM12 15.25C11.7 15.25 11.5 15.15 11.3 14.95L8.3 11.95C7.9 11.55 7.9 10.95 8.3 10.55C8.7 10.15 9.3 10.15 9.7 10.55L12 12.85L21.3 3.55C21.7 3.15 22.3 3.15 22.7 3.55C23.1 3.95 23.1 4.55 22.7 4.95L12.7 14.95C12.5 15.15 12.3 15.25 12 15.25Z" fill="#12DF00"/>
</svg>
