<svg width="156" height="24" viewBox="0 0 156 24" fill="none" xmlns="http://www.w3.org/2000/svg">
<g clip-path="url(#clip0_7684_115615)">
<path d="M14.9674 17.4492L10.7303 19.2984V19.1213C9.88678 19.3377 9.02367 19.4557 8.14094 19.4951C4.15885 19.4557 1.00064 17.3705 0.961406 14.8918V13.9672C2.25608 15.8754 4.94349 17.1541 8.14094 17.0951C9.20021 17.1344 10.2399 16.9967 11.2599 16.7213L11.6326 15.7967C10.4949 16.1508 9.31791 16.3475 8.14094 16.3475C4.15885 16.3672 1.00064 14.282 0.961406 11.7443V10.9967C2.25608 12.7672 4.92388 14.0262 8.14094 13.9672C9.53369 14.0459 10.9264 13.7902 12.1819 13.2197L12.3584 12.2951C11.0441 12.9443 9.59254 13.2787 8.12132 13.2197C4.13923 13.2787 0.981022 11.1934 0.94179 8.61639V7.86885C2.23646 9.67869 4.92388 10.9377 8.12132 10.9967C9.84755 10.9377 11.5542 10.5049 13.1038 9.71803L13.2804 8.61639C12.0053 9.56066 10.1222 10.1902 8.14094 10.2689C4.13923 10.1705 0.981022 8.08525 0.94179 5.46885C0.981022 2.99016 4.13923 0.885245 8.12132 0.865573C10.4949 0.904917 12.6919 1.75082 14.0062 3.08852L14.1435 3.28525H15.0655L14.9281 3.06885C13.6139 1.29836 11.0049 0.118034 8.1017 0.118034C3.70767 0.118034 0.176758 2.55738 0.176758 5.46885V15.0689C0.333687 17.9213 3.76652 20.2426 8.1017 20.2426C11.0049 20.2229 13.5746 19.082 14.9674 17.4492Z" fill="white" fill-opacity="0.3"/>
<path d="M13.2413 23.9607L14.7321 17.6262L10.4558 19.4951L13.0647 8.49836H8.04297L9.33764 3.08852H25.3248L24.0302 8.49836H18.8319L17.7138 11.4885L23.4809 9.06885L13.2413 23.9607ZM15.8502 16.3082L15.1048 20.0262L21.2447 10.7016L16.2229 12.9443L18.4592 7.73115H23.4809L24.4029 3.81639H9.90651L8.98455 7.73115H14.0063L11.5935 18.1574L15.8502 16.3082Z" fill="white" fill-opacity="0.3"/>
<path d="M39.229 13.7774C39.229 14.3405 39.0686 14.8633 38.868 15.3459C38.6274 15.8285 38.3066 16.2709 37.9055 16.6329C36.9831 17.3568 35.8602 17.759 34.6972 17.6786C34.0555 17.7188 33.4139 17.5982 32.8123 17.3568C32.2108 17.1155 31.6894 16.7134 31.2483 16.2307C30.4061 15.2655 30.005 13.8981 30.005 12.1687V11.485C29.9649 10.4795 30.1655 9.51425 30.5665 8.58923C30.9274 7.78486 31.4889 7.14136 32.2108 6.65874C33.0931 6.17612 34.0957 5.93481 35.0983 6.01525C36.1009 6.09569 37.0634 6.45765 37.8654 7.06093C38.7076 7.82508 39.1889 8.91098 39.2691 10.0371H36.943C36.943 9.43382 36.7425 8.87076 36.3415 8.42836C35.9003 8.06639 35.2988 7.90552 34.7373 7.94574C34.4165 7.90552 34.0556 7.98596 33.7347 8.14683C33.4139 8.3077 33.1733 8.50879 32.9727 8.79032C32.5717 9.35338 32.3712 10.2382 32.3712 11.4045V12.2491C32.3712 13.4959 32.5717 14.3807 32.9326 14.9437C33.1332 15.2253 33.3738 15.4666 33.6946 15.5872C34.0154 15.7481 34.3363 15.7883 34.6972 15.7883C35.2988 15.8286 35.8602 15.6677 36.3014 15.3057C36.7024 14.9035 36.9029 14.3405 36.9029 13.7774H39.229Z" fill="white" fill-opacity="0.3"/>
<path d="M50.0972 12.1284C50.1373 13.1339 49.9367 14.1393 49.4956 15.0643C49.1347 15.8687 48.5331 16.5524 47.8112 17.035C47.0493 17.4774 46.167 17.7188 45.2847 17.7188C44.4024 17.7188 43.5201 17.4774 42.7581 17.035C41.9961 16.5524 41.3946 15.9089 41.0336 15.1046C40.6326 14.1795 40.392 13.2143 40.4321 12.2088V11.6458C40.392 10.6403 40.6326 9.63485 41.0336 8.6696C41.3946 7.86523 41.9961 7.18152 42.7581 6.6989C43.5201 6.2565 44.4024 6.01519 45.2847 6.01519C46.167 6.01519 47.0493 6.2565 47.8112 6.6989C48.5732 7.18152 49.1347 7.86523 49.5357 8.6696C49.9367 9.59463 50.1774 10.6001 50.1373 11.6056V12.1284H50.0972ZM47.731 11.6056C47.731 10.399 47.5305 9.51419 47.0894 8.8707C46.8888 8.58917 46.6081 8.34786 46.2873 8.18698C45.9664 8.02611 45.6055 7.94568 45.2847 7.94568C44.9237 7.94568 44.5628 8.02611 44.2821 8.18698C43.9612 8.34786 43.6805 8.58917 43.48 8.8707C43.0388 9.47397 42.8383 10.399 42.8383 11.5653V12.1284C42.7982 13.0534 42.9987 14.0187 43.48 14.823C43.6805 15.1046 43.9612 15.3459 44.2821 15.5067C44.6029 15.6676 44.9638 15.7481 45.3248 15.7481C45.6857 15.7481 46.0467 15.6676 46.3675 15.5067C46.6883 15.3459 46.969 15.1046 47.1696 14.823C47.5706 14.2198 47.8112 13.2947 47.8112 12.1284V11.6056H47.731Z" fill="white" fill-opacity="0.3"/>
<path d="M54.2675 17.5175H51.9414V6.13573H54.2675V17.5175Z" fill="white" fill-opacity="0.3"/>
<path d="M65.6575 17.5175H63.3314L58.7997 10.0369V17.5175H56.4736V6.13573H58.7997L63.3715 13.6164V6.13573H65.6976V17.5175H65.6575Z" fill="white" fill-opacity="0.3"/>
<path d="M76.0041 8.0663H72.5151V17.5579H70.2292V8.0663H66.8203V6.17603H76.0443V8.0663H76.0041Z" fill="white" fill-opacity="0.3"/>
<path d="M84.1859 12.611H79.6943V15.6676H84.9479V17.5579H77.3281V6.17603H84.9078V8.0663H79.6542V10.7609H84.1458V12.611H84.1859Z" fill="white" fill-opacity="0.3"/>
<path d="M88.6776 15.6273H93.6505V17.5175H86.3516V6.13573H88.6776V15.6273Z" fill="white" fill-opacity="0.3"/>
<path d="M101.791 12.611H97.2997V15.6676H102.553V17.5579H94.9336V6.17603H102.513V8.0663H97.2596V10.7609H101.751V12.611H101.791Z" fill="white" fill-opacity="0.3"/>
<path d="M112.94 16.11C112.459 16.6731 111.857 17.0752 111.175 17.2763C110.373 17.5579 109.491 17.7187 108.609 17.6785C107.686 17.7187 106.804 17.4774 106.042 17.035C105.28 16.5926 104.678 15.9491 104.318 15.1448C103.876 14.26 103.676 13.2545 103.716 12.249V11.4849C103.676 10.4794 103.876 9.47396 104.277 8.54894C104.638 7.74457 105.2 7.10107 105.922 6.65866C106.684 6.21626 107.566 5.97495 108.448 6.01517C109.812 6.01517 110.855 6.33692 111.616 6.98041C112.419 7.70434 112.9 8.70981 112.98 9.7957H110.694C110.654 9.23265 110.413 8.75003 110.012 8.34784C109.611 8.0261 109.09 7.86522 108.528 7.90544C108.168 7.90544 107.807 7.94566 107.486 8.10653C107.165 8.2674 106.884 8.50871 106.684 8.79024C106.283 9.39352 106.042 10.2783 106.042 11.4447V12.1686C106.042 13.3751 106.283 14.26 106.724 14.8632C106.964 15.185 107.245 15.4263 107.606 15.5872C107.967 15.748 108.328 15.8285 108.729 15.7883C109.611 15.7883 110.213 15.5872 110.614 15.2252V13.2545H108.488V11.5251H112.94V16.11Z" fill="white" fill-opacity="0.3"/>
<path d="M118.996 13.3751H117.151V17.5579H114.825V6.17603H119.036C120.36 6.17603 121.402 6.45756 122.124 7.06084C122.485 7.38258 122.766 7.74455 122.966 8.18695C123.167 8.62936 123.247 9.11198 123.207 9.5946C123.247 10.2783 123.047 10.962 122.686 11.5251C122.325 12.0881 121.763 12.4903 121.162 12.7719L123.608 17.4372V17.5579H121.081L118.996 13.3751ZM117.151 11.4447H119.036C119.517 11.4849 120.039 11.324 120.4 11.0022C120.56 10.8414 120.68 10.6403 120.761 10.4392C120.841 10.2381 120.881 9.99679 120.881 9.75548C120.881 9.51417 120.841 9.31307 120.801 9.07176C120.72 8.87067 120.6 8.66957 120.44 8.46848C120.239 8.30761 120.039 8.18696 119.798 8.10652C119.557 8.02608 119.317 7.98587 119.036 8.02608H117.151V11.4447Z" fill="white" fill-opacity="0.3"/>
<path d="M131.388 15.1849H127.297L126.535 17.5175H124.049L128.26 6.13573H130.425L134.676 17.5175H132.19L131.388 15.1849ZM127.939 13.2946H130.786L129.343 9.03145L127.939 13.2946Z" fill="white" fill-opacity="0.3"/>
<path d="M138.086 13.536V17.5579H135.76V6.17603H140.171C140.933 6.17603 141.695 6.33691 142.417 6.65865C143.019 6.94018 143.54 7.4228 143.901 7.98586C144.262 8.58914 144.422 9.27286 144.422 9.95657C144.462 10.4392 144.342 10.962 144.142 11.4044C143.941 11.8468 143.66 12.249 143.259 12.5708C142.497 13.2143 141.455 13.536 140.091 13.536H138.086ZM138.086 11.6055H140.171C140.693 11.6457 141.174 11.4849 141.575 11.1631C141.735 11.0022 141.856 10.8012 141.976 10.6001C142.056 10.399 142.096 10.1577 142.096 9.91635C142.096 9.67504 142.056 9.43373 141.976 9.19242C141.896 8.95111 141.775 8.75002 141.615 8.54892C141.455 8.38805 141.214 8.22718 140.973 8.14674C140.733 8.0663 140.492 8.02608 140.251 8.02608H138.126V11.6055H138.086Z" fill="white" fill-opacity="0.3"/>
<path d="M155.25 17.5175H152.924V12.6511H148.352V17.5175H146.026V6.13573H148.352V10.7608H152.924V6.13573H155.25V17.5175Z" fill="white" fill-opacity="0.3"/>
</g>
<defs>
<clipPath id="clip0_7684_115615">
<rect width="155.25" height="24" fill="white"/>
</clipPath>
</defs>
</svg>
