<svg width="127" height="24" viewBox="0 0 127 24" fill="none" xmlns="http://www.w3.org/2000/svg">
<g clip-path="url(#clip0_7684_115600)">
<path d="M35.4462 16.9749C33.1092 16.9749 31.661 14.8775 31.661 11.9755C31.661 9.10227 32.8798 6.96169 35.4318 6.96169C37.1092 6.96169 38.2132 8.03917 38.4142 9.46141H42.314C42.113 7.69437 41.3246 6.14285 39.9482 5.10848C38.8298 4.24649 37.2814 3.71497 35.4462 3.71497C30.7434 3.71497 27.6895 7.27776 27.6895 11.9755C27.6895 16.702 30.8438 20.1642 35.475 20.1642C37.697 20.1642 39.3172 19.5465 40.5217 18.3684C41.5969 17.3341 42.314 15.8974 42.4142 14.3316H38.5143C38.3425 15.8687 37.1953 16.9749 35.4462 16.9749Z" fill="white" fill-opacity="0.3"/>
<path d="M49.6114 8.21155C45.9982 8.21155 43.5752 10.7975 43.5752 14.2022C43.5752 17.607 45.9982 20.1929 49.6114 20.1929C53.253 20.1929 55.6331 17.607 55.6331 14.2022C55.6331 10.7975 53.253 8.21155 49.6114 8.21155ZM49.597 17.6214C48.0341 17.6214 47.2168 16.2566 47.2168 14.2022C47.2168 12.1479 48.0341 10.7544 49.597 10.7544C51.1598 10.7544 52.0056 12.1479 52.0056 14.2022C51.9915 16.2566 51.1598 17.6214 49.597 17.6214Z" fill="white" fill-opacity="0.3"/>
<path d="M60.735 7.00918C61.5021 6.24058 61.5021 4.99443 60.735 4.22582C59.9677 3.45722 58.7242 3.45722 57.9571 4.22582C57.1901 4.99443 57.1901 6.24058 57.9571 7.00918C58.7242 7.77779 59.9677 7.77779 60.735 7.00918Z" fill="white" fill-opacity="0.3"/>
<path d="M56.2217 11.0561H57.727V19.8338H61.3116V8.51328H56.2217V11.0561Z" fill="white" fill-opacity="0.3"/>
<path d="M70.129 8.18282C68.5665 8.18282 67.4766 8.84365 66.6452 10.0648H66.5735V8.51325H63.1182V19.8194H66.7169V13.5701C66.7169 12.1766 67.5054 11.1853 68.6954 11.1853C69.8711 11.1853 70.459 12.0042 70.459 13.1966V19.8194H74.0577V12.4639C74.0577 9.94985 72.5953 8.18282 70.129 8.18282Z" fill="white" fill-opacity="0.3"/>
<path d="M82.4878 4.03098H75.7637V19.8194H82.2443C84.2229 19.8194 85.8142 19.3166 87.0475 18.3827C88.811 17.0323 89.7858 14.8056 89.7858 12.0186C89.7858 7.19152 86.8466 4.03098 82.4878 4.03098ZM81.9576 16.5439H79.6635V7.30646H82.0005C84.4523 7.30646 85.843 9.15968 85.843 12.0329C85.8286 14.9205 84.5096 16.5439 81.9576 16.5439Z" fill="white" fill-opacity="0.3"/>
<path d="M100.438 9.67686C99.4636 8.80054 98.1875 8.26899 96.5817 8.26899C93.1404 8.26899 90.7891 10.8549 90.7891 14.2309C90.7891 17.6501 93.0831 20.236 96.8111 20.236C98.2447 20.236 99.3916 19.8625 100.338 19.2016C101.327 18.5121 101.987 17.5495 102.231 16.5295H98.7321C98.4169 17.2335 97.8003 17.6501 96.854 17.6501C95.3772 17.6501 94.5455 16.7019 94.3161 15.1791H102.431C102.446 12.8661 101.786 10.9123 100.438 9.67686ZM94.3305 13.0242C94.5743 11.6738 95.2767 10.8118 96.639 10.8118C97.8003 10.8118 98.6463 11.6738 98.7753 13.0242H94.3305Z" fill="white" fill-opacity="0.3"/>
<path d="M109.515 12.7513C108.081 12.4927 106.805 12.3777 106.805 11.5876C106.805 10.8836 107.493 10.5532 108.367 10.5532C109.357 10.5532 110.045 10.8693 110.174 11.8749H113.486C113.314 9.64816 111.594 8.25465 108.396 8.25465C105.729 8.25465 103.521 9.49014 103.521 11.8749C103.521 14.5326 105.615 15.0498 107.579 15.3803C109.084 15.6388 110.446 15.7538 110.446 16.7738C110.446 17.5064 109.758 17.8943 108.683 17.8943C107.493 17.8943 106.747 17.3484 106.604 16.2135H103.206C103.321 18.7132 105.385 20.236 108.697 20.236C111.651 20.236 113.83 18.9574 113.83 16.4865C113.844 13.5988 111.507 13.0817 109.515 12.7513Z" fill="white" fill-opacity="0.3"/>
<path d="M122.289 12.7656L126.261 8.51322H122.117L118.762 12.3346V4.03098H115.221V19.8337H118.762V16.3571L119.852 15.2078L122.562 19.8337H126.72L122.289 12.7656Z" fill="white" fill-opacity="0.3"/>
<path d="M11.8895 13.0243C12.4913 13.0243 12.9791 12.5355 12.9791 11.9324C12.9791 11.3294 12.4913 10.8406 11.8895 10.8406C11.2877 10.8406 10.7998 11.3294 10.7998 11.9324C10.7998 12.5355 11.2877 13.0243 11.8895 13.0243Z" fill="white" fill-opacity="0.3"/>
<path d="M20.5779 13.0243C21.1797 13.0243 21.6676 12.5355 21.6676 11.9324C21.6676 11.3294 21.1797 10.8406 20.5779 10.8406C19.9761 10.8406 19.4883 11.3294 19.4883 11.9324C19.4883 12.5355 19.9761 13.0243 20.5779 13.0243Z" fill="white" fill-opacity="0.3"/>
<path d="M20.5779 21.7445C21.1797 21.7445 21.6676 21.2557 21.6676 20.6526C21.6676 20.0497 21.1797 19.5608 20.5779 19.5608C19.9761 19.5608 19.4883 20.0497 19.4883 20.6526C19.4883 21.2557 19.9761 21.7445 20.5779 21.7445Z" fill="white" fill-opacity="0.3"/>
<path d="M23.7753 3.01103C23.6606 1.41639 22.3845 0.123438 20.7931 0.00850894C19.7751 -0.0633219 18.8574 0.324563 18.2123 0.985408C17.7248 1.48822 17.0652 1.78991 16.3627 1.78991H16.1046C15.3877 1.78991 14.7139 1.48822 14.212 0.97104C13.6242 0.367661 12.8069 0.00850894 11.9037 0.00850894C11.0004 0.00850894 10.1831 0.382029 9.5953 0.97104C9.09347 1.48822 8.41962 1.78991 7.70272 1.78991H7.45898C6.75645 1.78991 6.08256 1.51695 5.59507 1.01414C5.49472 0.913578 5.39434 0.813015 5.29398 0.726816C4.0753 -0.264448 2.28307 -0.235716 1.10738 0.813014C-0.312054 2.06287 -0.369405 4.24653 0.949664 5.56819C0.964003 5.58256 0.978339 5.59693 0.992678 5.6113C1.50884 6.09974 1.78125 6.78934 1.78125 7.49328V7.7375C1.78125 8.45581 1.48016 9.13101 0.964 9.63382C0.361818 10.2228 0.00337582 11.0417 0.00337582 11.9468C0.00337582 12.8518 0.376157 13.6707 0.964 14.2597C1.48016 14.7626 1.78125 15.4378 1.78125 16.1561V16.4865C1.78125 17.1904 1.48016 17.8513 0.978339 18.3397C0.347482 18.9575 -0.0396371 19.8338 0.00337582 20.7963C0.0750643 22.4915 1.45148 23.8563 3.12899 23.9138C4.10397 23.9425 4.97856 23.5546 5.59507 22.9082C6.08256 22.4053 6.74208 22.0893 7.44464 22.0893H7.71706C8.41962 22.0893 9.07914 22.391 9.56662 22.9082C10.2118 23.5834 11.1438 23.9712 12.1618 23.8994C13.7532 23.7845 15.0436 22.4915 15.1583 20.8825C15.2874 18.9718 13.7963 17.3916 11.918 17.3916C11.0291 17.3916 10.2118 17.7507 9.62397 18.3397C9.12214 18.8425 8.44829 19.1442 7.74573 19.1442H7.44464C6.74208 19.1442 6.05389 18.8713 5.55206 18.3541C5.53773 18.3397 5.53773 18.3397 5.52339 18.3253C5.00723 17.8225 4.70614 17.1473 4.70614 16.429V16.1417C4.70614 15.4234 5.00723 14.7482 5.52339 14.2454C6.12557 13.6564 6.48403 12.8375 6.48403 11.9324C6.48403 11.0274 6.11123 10.2085 5.52339 9.61946C5.00723 9.11664 4.70614 8.44144 4.70614 7.72314V7.46454C4.70614 6.74624 5.00723 6.07101 5.50906 5.56819C5.52339 5.55386 5.52339 5.55386 5.53773 5.53949C5.55206 5.52512 5.55206 5.52512 5.5664 5.51075C6.06822 5.00794 6.74208 4.70624 7.45898 4.70624H7.71706C8.43395 4.70624 9.10781 5.00794 9.60963 5.52512C10.1975 6.12848 11.0147 6.48765 11.918 6.48765C12.8213 6.48765 13.6385 6.11411 14.2264 5.52512C14.7282 5.00794 15.4021 4.70624 16.1189 4.70624H16.3484C17.0652 4.70624 17.7391 5.00794 18.2409 5.52512C18.8288 6.12848 19.646 6.48765 20.5493 6.48765C22.4132 6.50202 23.9043 4.92173 23.7753 3.01103Z" fill="white" fill-opacity="0.3"/>
</g>
<defs>
<clipPath id="clip0_7684_115600">
<rect width="126.72" height="24" fill="white"/>
</clipPath>
</defs>
</svg>
