<svg width="22" height="23" viewBox="0 0 22 23" fill="none" xmlns="http://www.w3.org/2000/svg">
<path d="M19 22.4706H10C8.3 22.4706 7 21.1706 7 19.4706V10.4706C7 8.77058 8.3 7.47058 10 7.47058H19C20.7 7.47058 22 8.77058 22 10.4706V19.4706C22 21.1706 20.7 22.4706 19 22.4706ZM10 9.47058C9.4 9.47058 9 9.87058 9 10.4706V19.4706C9 20.0706 9.4 20.4706 10 20.4706H19C19.6 20.4706 20 20.0706 20 19.4706V10.4706C20 9.87058 19.6 9.47058 19 9.47058H10ZM4 15.4706H3C1.3 15.4706 0 14.1706 0 12.4706V3.47058C0 1.77058 1.3 0.470581 3 0.470581H12C13.7 0.470581 15 1.77058 15 3.47058V4.47058C15 5.07058 14.6 5.47058 14 5.47058C13.4 5.47058 13 5.07058 13 4.47058V3.47058C13 2.87058 12.6 2.47058 12 2.47058H3C2.4 2.47058 2 2.87058 2 3.47058V12.4706C2 13.0706 2.4 13.4706 3 13.4706H4C4.6 13.4706 5 13.8706 5 14.4706C5 15.0706 4.6 15.4706 4 15.4706Z" fill="#4D94FF"/>
</svg>
