<svg width="19" height="18" viewBox="0 0 19 18" fill="none" xmlns="http://www.w3.org/2000/svg">
<path d="M14 8.115C13.8011 8.115 13.6103 8.19402 13.4697 8.33467C13.329 8.47532 13.25 8.66609 13.25 8.865V14.25C13.25 14.4489 13.171 14.6397 13.0303 14.7803C12.8897 14.921 12.6989 15 12.5 15L4.25 15C4.05109 15 3.86032 14.921 3.71967 14.7803C3.57902 14.6397 3.5 14.4489 3.5 14.25L3.5 6C3.5 5.80109 3.57902 5.61032 3.71967 5.46967C3.86032 5.32902 4.05109 5.25 4.25 5.25L9.635 5.25C9.83391 5.25 10.0247 5.17098 10.1653 5.03033C10.306 4.88968 10.385 4.69891 10.385 4.5C10.385 4.30109 10.306 4.11032 10.1653 3.96967C10.0247 3.82902 9.83391 3.75 9.635 3.75L4.25 3.75C3.65326 3.75 3.08097 3.98705 2.65901 4.40901C2.23705 4.83097 2 5.40326 2 6L2 14.25C2 14.8467 2.23705 15.419 2.65901 15.841C3.08097 16.2629 3.65326 16.5 4.25 16.5H12.5C13.0967 16.5 13.669 16.2629 14.091 15.841C14.5129 15.419 14.75 14.8467 14.75 14.25V8.865C14.75 8.66609 14.671 8.47532 14.5303 8.33467C14.3897 8.19402 14.1989 8.115 14 8.115ZM16.94 1.965C16.8639 1.78174 16.7183 1.63611 16.535 1.56C16.4448 1.52157 16.348 1.50118 16.25 1.5L11.75 1.5C11.5511 1.5 11.3603 1.57902 11.2197 1.71967C11.079 1.86032 11 2.05109 11 2.25C11 2.44891 11.079 2.63968 11.2197 2.78033C11.3603 2.92098 11.5511 3 11.75 3H14.4425L6.7175 10.7175C6.6472 10.7872 6.59141 10.8702 6.55333 10.9616C6.51525 11.053 6.49565 11.151 6.49565 11.25C6.49565 11.349 6.51525 11.447 6.55333 11.5384C6.59141 11.6298 6.6472 11.7128 6.7175 11.7825C6.78722 11.8528 6.87017 11.9086 6.96157 11.9467C7.05296 11.9847 7.15099 12.0043 7.25 12.0043C7.34901 12.0043 7.44704 11.9847 7.53843 11.9467C7.62983 11.9086 7.71278 11.8528 7.7825 11.7825L15.5 4.0575V6.75C15.5 6.94891 15.579 7.13968 15.7197 7.28033C15.8603 7.42098 16.0511 7.5 16.25 7.5C16.4489 7.5 16.6397 7.42098 16.7803 7.28033C16.921 7.13968 17 6.94891 17 6.75V2.25C16.9988 2.15199 16.9784 2.05517 16.94 1.965Z" fill="white"/>
</svg>
