<svg width="25" height="24" viewBox="0 0 25 24" fill="none" xmlns="http://www.w3.org/2000/svg">
<path d="M21.3004 2H3.50039C3.20865 2 2.92886 2.11589 2.72257 2.32218C2.51628 2.52847 2.40039 2.80826 2.40039 3.1V20.9C2.40039 21.0445 2.42884 21.1875 2.48412 21.321C2.5394 21.4544 2.62043 21.5757 2.72257 21.6778C2.82472 21.78 2.94598 21.861 3.07944 21.9163C3.2129 21.9715 3.35594 22 3.50039 22H13.0804V14.25H10.4804V11.25H13.0804V9C13.0265 8.47176 13.0889 7.93813 13.2631 7.43654C13.4373 6.93495 13.7192 6.47755 14.0889 6.09641C14.4586 5.71528 14.9072 5.41964 15.4032 5.23024C15.8993 5.04083 16.4308 4.96225 16.9604 5C17.7387 4.99521 18.5167 5.03528 19.2904 5.12V7.82H17.7004C16.4404 7.82 16.2004 8.42 16.2004 9.29V11.22H19.2004L18.8104 14.22H16.2004V22H21.3004C21.4448 22 21.5879 21.9715 21.7213 21.9163C21.8548 21.861 21.9761 21.78 22.0782 21.6778C22.1804 21.5757 22.2614 21.4544 22.3167 21.321C22.3719 21.1875 22.4004 21.0445 22.4004 20.9V3.1C22.4004 2.95555 22.3719 2.81251 22.3167 2.67905C22.2614 2.54559 22.1804 2.42433 22.0782 2.32218C21.9761 2.22004 21.8548 2.13901 21.7213 2.08373C21.5879 2.02845 21.4448 2 21.3004 2Z" fill="#0066FF"/>
</svg>
