<svg width="19" height="18" viewBox="0 0 19 18" fill="none" xmlns="http://www.w3.org/2000/svg">
<path d="M18.5 9C18.5 4.02981 14.4702 0 9.5 0C4.52981 0 0.5 4.02981 0.5 9C0.5 13.4918 3.79068 17.2153 8.09387 17.8912L8.09387 11.6022L5.80811 11.6022V9L8.09387 9L8.09387 7.01673C8.09387 4.76136 9.43798 3.5147 11.4934 3.5147C12.4781 3.5147 13.5083 3.69062 13.5083 3.69062L13.5083 5.9055H12.373C11.2554 5.9055 10.9061 6.59907 10.9061 7.31163V9H13.402L13.0033 11.6022H10.9061L10.9061 17.8912C15.2093 17.2166 18.5 13.493 18.5 9Z" fill="#0066FF"/>
<path d="M13.0033 11.6022L13.402 9.00001H10.9061V7.31164C10.9061 6.60035 11.2542 5.90551 12.373 5.90551L13.5083 5.90551V3.69063C13.5083 3.69063 12.4781 3.51471 11.4934 3.51471C9.43797 3.51471 8.09386 4.7601 8.09386 7.01675V9.00001H5.80811V11.6022H8.09386V17.8912C8.55202 17.9633 9.02158 18 9.49999 18C9.9784 18 10.448 17.962 10.9061 17.8912L10.9061 11.6022L13.0033 11.6022Z" fill="#FEFEFE"/>
</svg>
