<svg width="24" height="24" viewBox="0 0 24 24" fill="none" xmlns="http://www.w3.org/2000/svg">
<path fill-rule="evenodd" clip-rule="evenodd" d="M2.29495 12.5679C3.28023 11.1322 3.67435 10.7803 4.49072 10.6396C4.87076 10.5692 5.87012 10.527 6.71465 10.5551C8.48817 10.5974 8.62892 10.6818 8.62892 11.7656C8.62892 12.9057 8.54447 12.962 6.10941 13.0043L3.98401 13.0465V17.4803V21.9H2.492H1L1.0563 18.3389C1.14076 14.2992 1.16891 14.1866 2.29495 12.5679ZM19.6641 2.25059C19.087 2.50395 18.5381 3.17957 16.5816 6.02283C15.6667 7.36 14.245 9.40095 13.4146 10.5692C12.5841 11.7234 11.7959 12.8917 11.6551 13.1591C11.3314 13.8066 11.1766 15.6786 11.1625 19.0427V21.9H12.4293H13.6961L13.7242 17.6492L13.7665 13.3843L14.4139 14.2992C14.5555 14.5031 14.8201 14.8801 15.1509 15.3515L15.151 15.3516C15.6424 16.0518 16.2799 16.9601 16.8772 17.8181C18.8618 20.6754 19.5515 21.5059 20.1427 21.7452C20.3679 21.8437 21.0576 21.9 21.7614 21.8718L23 21.8296L20.5931 18.3107C16.6801 12.6102 16.0186 11.4419 16.3986 10.907C19.0448 7.23332 22.1414 2.81361 22.4792 2.22244C22.62 1.98316 20.2553 1.99723 19.6641 2.25059ZM6.5035 2.1943C5.36338 2.2506 4.12474 2.34913 3.75878 2.39136C2.14009 2.63064 1.40817 3.6863 1.16888 6.07914C1.01405 7.74005 0.985903 10.9211 1.14073 10.907C1.35187 10.893 3.16761 8.5705 3.50542 7.8808C3.70247 7.47261 3.91361 6.79699 3.96991 6.37472C4.18104 4.77011 4.3781 4.71381 9.75494 4.57306C12.1196 4.51676 14.2732 4.41823 14.5406 4.376C15.2022 4.24932 15.6948 3.86928 16.2156 3.08105C16.6097 2.48988 16.6238 2.40543 16.4267 2.29283C16.1171 2.12392 9.10747 2.05354 6.5035 2.1943Z" fill="url(#paint0_linear_2837_66085)"/>
<defs>
<linearGradient id="paint0_linear_2837_66085" x1="0.99299" y1="2.01838" x2="22.9508" y2="21.8648" gradientUnits="userSpaceOnUse">
<stop stop-color="#1B77FE"/>
<stop offset="1" stop-color="#9617FF"/>
</linearGradient>
</defs>
</svg>
