<svg width="65" height="48" viewBox="0 0 65 48" fill="none" xmlns="http://www.w3.org/2000/svg">
<path d="M6.5 3C6.5 1.34315 7.84315 0 9.5 0H25.4352C26.4657 0 27.4834 0.227504 28.4158 0.666269L34.0842 3.33373C35.0166 3.7725 36.0343 4 37.0648 4H55.5C57.1569 4 58.5 5.34315 58.5 7V17H6.5V3Z" fill="#0066FF"/>
<path d="M0.936634 20.3839C0.705099 18.5895 2.1027 17 3.91197 17H61.088C62.8973 17 64.2949 18.5895 64.0634 20.3839L60.8376 45.3839C60.6445 46.8799 59.3707 48 57.8622 48H7.13777C5.62934 48 4.35548 46.8799 4.16244 45.3839L0.936634 20.3839Z" fill="#4D94FF"/>
</svg>
