<svg width="18" height="18" viewBox="0 0 18 18" fill="none" xmlns="http://www.w3.org/2000/svg">
<path d="M16.92 9.1875C16.92 8.6025 16.8675 8.04 16.77 7.5L9 7.5V10.695H13.44C13.245 11.7225 12.66 12.5925 11.7825 13.1775L11.7825 15.255H14.46C16.02 13.815 16.92 11.7 16.92 9.1875Z" fill="#0066FF"/>
<path d="M8.99977 17.25C11.2273 17.25 13.0948 16.515 14.4598 15.255L11.7823 13.1775C11.0473 13.6725 10.1098 13.9725 8.99977 13.9725C6.85477 13.9725 5.03227 12.525 4.37977 10.575H1.63477L1.63477 12.705C2.99227 15.3975 5.77477 17.25 8.99977 17.25Z" fill="#34A853"/>
<path d="M4.38 10.5675C4.215 10.0725 4.1175 9.54749 4.1175 8.99999C4.1175 8.45249 4.215 7.92749 4.38 7.43249V5.30249L1.635 5.30249C1.0725 6.41249 0.75 7.66499 0.75 8.99999C0.75 10.335 1.0725 11.5875 1.635 12.6975L3.7725 11.0325L4.38 10.5675Z" fill="#FBBC05"/>
<path d="M8.99977 4.035C10.2148 4.035 11.2948 4.455 12.1573 5.265L14.5198 2.9025C13.0873 1.5675 11.2273 0.75 8.99977 0.75C5.77477 0.75 2.99227 2.6025 1.63477 5.3025L4.37977 7.4325C5.03227 5.4825 6.85477 4.035 8.99977 4.035Z" fill="#EA4335"/>
</svg>
