<svg width="47" height="19" viewBox="0 0 47 19" fill="none" xmlns="http://www.w3.org/2000/svg">
<path d="M21.7793 9.25332V14.5603H20.0837V1.45508H24.5789C25.7181 1.45508 26.6896 1.83227 27.4844 2.58666C28.2969 3.34104 28.7031 4.2621 28.7031 5.34982C28.7031 6.46385 28.2969 7.3849 27.4844 8.13052C26.6984 8.87613 25.7269 9.24455 24.5789 9.24455H21.7793V9.25332ZM21.7793 3.06911V7.63929H24.6142C25.2854 7.63929 25.8506 7.41122 26.2922 6.96385C26.7425 6.51648 26.9722 5.97262 26.9722 5.35859C26.9722 4.75332 26.7425 4.21824 26.2922 3.77087C25.8506 3.30596 25.2942 3.07788 24.6142 3.07788H21.7793V3.06911Z" fill="#22242B"/>
<path d="M33.1368 5.29688C34.3908 5.29688 35.3799 5.63021 36.1041 6.29687C36.8283 6.96354 37.1903 7.87582 37.1903 9.03372V14.56H35.5742V13.3144H35.5036C34.8059 14.3407 33.8698 14.8495 32.704 14.8495C31.7061 14.8495 30.876 14.56 30.2048 13.9723C29.5336 13.3846 29.198 12.6565 29.198 11.7793C29.198 10.8495 29.5513 10.1127 30.2578 9.5688C30.9643 9.01617 31.9092 8.74424 33.0838 8.74424C34.0906 8.74424 34.9207 8.92845 35.5654 9.29688V8.91091C35.5654 8.32319 35.3358 7.83196 34.8677 7.41968C34.3996 7.0074 33.8521 6.80565 33.2251 6.80565C32.2801 6.80565 31.5295 7.20038 30.9819 7.99863L29.4894 7.0688C30.3107 5.88459 31.5295 5.29688 33.1368 5.29688ZM30.9466 11.8056C30.9466 12.2442 31.1321 12.6127 31.5118 12.9021C31.8827 13.1916 32.3243 13.3407 32.8277 13.3407C33.543 13.3407 34.1789 13.0776 34.7352 12.5513C35.2916 12.0249 35.5742 11.4109 35.5742 10.7004C35.0443 10.2881 34.3113 10.0776 33.3664 10.0776C32.6775 10.0776 32.1035 10.2442 31.6443 10.5688C31.1762 10.9109 30.9466 11.3232 30.9466 11.8056Z" fill="#22242B"/>
<path d="M46.4099 5.58691L40.7578 18.4992H39.0092L41.1111 13.9817L37.3843 5.58691H39.23L41.9147 12.0255H41.9501L44.5641 5.58691H46.4099Z" fill="#22242B"/>
<path d="M15.0339 8.18432C15.0339 7.63519 14.9844 7.10976 14.8926 6.60449H7.78516V9.49923L11.8785 9.50011C11.7124 10.4633 11.1781 11.2843 10.3595 11.8317V13.7098H12.796C14.2188 12.4019 15.0339 10.4685 15.0339 8.18432Z" fill="#4285F4"/>
<path d="M10.3603 11.8318C9.68209 12.2862 8.80867 12.552 7.78689 12.552C5.81309 12.552 4.13867 11.2309 3.53903 9.4502H1.02563V11.387C2.27085 13.8414 4.83016 15.5256 7.78689 15.5256C9.83045 15.5256 11.5473 14.8581 12.7969 13.709L10.3603 11.8318Z" fill="#34A853"/>
<path d="M3.30268 8.01323C3.30268 7.51323 3.38658 7.0299 3.53936 6.57552V4.63867H1.02597C0.511101 5.65358 0.221436 6.7992 0.221436 8.01323C0.221436 9.22727 0.511984 10.3729 1.02597 11.3878L3.53936 9.45095C3.38658 8.99657 3.30268 8.51323 3.30268 8.01323Z" fill="#FABB05"/>
<path d="M7.78689 3.47368C8.90228 3.47368 9.9011 3.85526 10.6897 4.60088L12.849 2.4579C11.5375 1.24474 9.8278 0.5 7.78689 0.5C4.83105 0.5 2.27085 2.18421 1.02563 4.6386L3.53903 6.57544C4.13867 4.79474 5.81309 3.47368 7.78689 3.47368Z" fill="#E94235"/>
</svg>
