<svg width="32" height="32" viewBox="0 0 32 32" fill="none" xmlns="http://www.w3.org/2000/svg">
<g clip-path="url(#clip0_8155_52651)">
<path d="M16 32C24.8366 32 32 24.8366 32 16C32 7.16344 24.8366 0 16 0C7.16344 0 0 7.16344 0 16C0 24.8366 7.16344 32 16 32Z" fill="#267CB5"/>
<path d="M16 18.1L25.5499 9.925C25.3999 9.825 25.2 9.75 25 9.75H6.99995C6.79995 9.75 6.59995 9.825 6.44995 9.925L16 18.1Z" fill="white"/>
<path d="M16.65 18.8501C16.275 19.1751 15.725 19.1751 15.35 18.8501L6 10.8751V21.2501C6 21.8001 6.45 22.2501 7 22.2501H25C25.55 22.2501 26 21.8001 26 21.2501V10.8501L16.65 18.8501Z" fill="white"/>
</g>
<defs>
<clipPath id="clip0_8155_52651">
<rect width="32" height="32" fill="white"/>
</clipPath>
</defs>
</svg>
