<svg width="35" height="21" viewBox="0 0 35 21" fill="none" xmlns="http://www.w3.org/2000/svg">
<path d="M22.134 2.24512H12.9465V18.7553H22.134V2.24512Z" fill="#FF5F00"/>
<path d="M13.5301 10.5C13.5286 8.90995 13.8889 7.34041 14.5837 5.91019C15.2785 4.47998 16.2896 3.22659 17.5405 2.2449C15.9915 1.02738 14.1312 0.270223 12.1723 0.0599684C10.2133 -0.150286 8.23477 0.19484 6.46271 1.05591C4.69065 1.91699 3.1966 3.25927 2.15133 4.92932C1.10606 6.59937 0.551758 8.52981 0.551758 10.5C0.551758 12.4702 1.10606 14.4006 2.15133 16.0707C3.1966 17.7407 4.69065 19.083 6.46271 19.9441C8.23477 20.8052 10.2133 21.1503 12.1723 20.94C14.1312 20.7298 15.9915 19.9726 17.5405 18.7551C16.2896 17.7734 15.2786 16.52 14.5838 15.0898C13.889 13.6596 13.5286 12.09 13.5301 10.5Z" fill="#EB001B"/>
<path d="M34.5285 10.5C34.5285 12.4702 33.9743 14.4006 32.9291 16.0706C31.8839 17.7407 30.3899 19.083 28.6178 19.9441C26.8458 20.8051 24.8673 21.1503 22.9084 20.94C20.9494 20.7298 19.0892 19.9726 17.5403 18.7551C18.79 17.7724 19.8003 16.5188 20.495 15.0888C21.1897 13.6588 21.5506 12.0898 21.5506 10.5C21.5506 8.9102 21.1897 7.34115 20.495 5.91116C19.8003 4.48118 18.79 3.22758 17.5403 2.2449C19.0892 1.02738 20.9494 0.270218 22.9084 0.0599657C24.8673 -0.150286 26.8458 0.194855 28.6178 1.05594C30.3899 1.91702 31.8839 3.2593 32.9291 4.92935C33.9743 6.5994 34.5285 8.52984 34.5285 10.5Z" fill="#F79E1B"/>
<path d="M33.5267 17.0062V16.6682H33.663V16.5993H33.3159V16.6682H33.4523V17.0062H33.5267ZM34.2006 17.0062V16.5986H34.0942L33.9719 16.879L33.8494 16.5986H33.743V17.0062H33.8181V16.6988L33.9329 16.9638H34.0108L34.1256 16.6981V17.0062H34.2006Z" fill="#F79E1B"/>
</svg>
