<svg width="18" height="18" viewBox="0 0 18 18" fill="none" xmlns="http://www.w3.org/2000/svg">
<path d="M15.4857 2.00568L9.86426 6.18082L10.9038 3.71754L15.4857 2.00568Z" fill="#0066FF" stroke="#E2761B" stroke-width="0.0753296" stroke-linecap="round" stroke-linejoin="round"/>
<path d="M2.50826 2.00568L8.08453 6.22037L7.09583 3.71754L2.50826 2.00568ZM13.4631 11.6836L11.9659 13.9774L15.1693 14.8588L16.0902 11.7345L13.4631 11.6836ZM1.91504 11.7345L2.83029 14.8588L6.03368 13.9774L4.53651 11.6836L1.91504 11.7345Z" fill="#E4761B" stroke="#E4761B" stroke-width="0.0753296" stroke-linecap="round" stroke-linejoin="round"/>
<path d="M5.8531 7.8079L4.96045 9.15818L8.14124 9.29942L8.02825 5.88134L5.8531 7.8079ZM12.1412 7.8079L9.93785 5.8418L9.8644 9.29942L13.0395 9.15818L12.1412 7.8079ZM6.0339 13.9774L7.9435 13.0452L6.29378 11.7571L6.0339 13.9774ZM10.0508 13.0452L11.9661 13.9774L11.7006 11.7571L10.0508 13.0452Z" fill="#E4761B" stroke="#E4761B" stroke-width="0.0753296" stroke-linecap="round" stroke-linejoin="round"/>
<path d="M11.9659 13.9774L10.0506 13.0452L10.2032 14.2938L10.1862 14.8192L11.9659 13.9774ZM6.03369 13.9774L7.81335 14.8192L7.80205 14.2938L7.9433 13.0452L6.03369 13.9774Z" fill="#D7C1B3" stroke="#D7C1B3" stroke-width="0.0753296" stroke-linecap="round" stroke-linejoin="round"/>
<path d="M7.84176 10.9322L6.24854 10.4633L7.37283 9.94916L7.84176 10.9322ZM10.1525 10.9322L10.6214 9.94916L11.7514 10.4633L10.1525 10.9322Z" fill="#233447" stroke="#233447" stroke-width="0.0753296" stroke-linecap="round" stroke-linejoin="round"/>
<path d="M6.0338 13.9774L6.30498 11.6836L4.53662 11.7345L6.0338 13.9774ZM11.6948 11.6836L11.966 13.9774L13.4632 11.7345L11.6948 11.6836ZM13.0394 9.1582L9.8643 9.29945L10.1581 10.9322L10.627 9.94916L11.757 10.4633L13.0394 9.1582ZM6.24849 10.4633L7.37843 9.94916L7.84171 10.9322L8.14114 9.29945L4.96035 9.1582L6.24849 10.4633Z" fill="#CD6116" stroke="#CD6116" stroke-width="0.0753296" stroke-linecap="round" stroke-linejoin="round"/>
<path d="M4.96045 9.1582L6.29378 11.7571L6.24858 10.4633L4.96045 9.1582ZM11.7571 10.4633L11.7006 11.7571L13.0395 9.1582L11.7571 10.4633ZM8.14124 9.29945L7.84181 10.9322L8.21469 12.8588L8.29943 10.322L8.14124 9.29945ZM9.8644 9.29945L9.71186 10.3164L9.77966 12.8588L10.1582 10.9322L9.8644 9.29945Z" fill="#E4751F" stroke="#E4751F" stroke-width="0.0753296" stroke-linecap="round" stroke-linejoin="round"/>
<path d="M10.1581 10.9322L9.77961 12.8587L10.0508 13.0452L11.7005 11.757L11.757 10.4633L10.1581 10.9322ZM6.24854 10.4633L6.29373 11.757L7.94345 13.0452L8.21464 12.8587L7.84176 10.9322L6.24854 10.4633Z" fill="#F6851B" stroke="#F6851B" stroke-width="0.0753296" stroke-linecap="round" stroke-linejoin="round"/>
<path d="M10.1862 14.8192L10.2032 14.2938L10.0619 14.1695H7.932L7.80205 14.2938L7.81335 14.8192L6.03369 13.9774L6.65516 14.4859L7.91505 15.3616H10.0789L11.3444 14.4859L11.9659 13.9774L10.1862 14.8192Z" fill="#C0AD9E" stroke="#C0AD9E" stroke-width="0.0753296" stroke-linecap="round" stroke-linejoin="round"/>
<path d="M10.0508 13.0452L9.77965 12.8588H8.21467L7.94349 13.0452L7.80225 14.2938L7.93219 14.1695H10.0621L10.2034 14.2938L10.0508 13.0452Z" fill="#161616" stroke="#161616" stroke-width="0.0753296" stroke-linecap="round" stroke-linejoin="round"/>
<path d="M15.7229 6.452L16.2032 4.14692L15.4857 2.00568L10.0506 6.03957L12.141 7.80794L15.0958 8.67234L15.7512 7.90963L15.4687 7.70624L15.9207 7.29381L15.5704 7.02263L16.0224 6.67799L15.7229 6.452ZM1.79639 4.14692L2.27661 6.452L1.97153 6.67799L2.42351 7.02263L2.07887 7.29381L2.53085 7.70624L2.24836 7.90963L2.89808 8.67234L5.85288 7.80794L7.94328 6.03957L2.50825 2.00568L1.79639 4.14692Z" fill="#763D16" stroke="#763D16" stroke-width="0.0753296" stroke-linecap="round" stroke-linejoin="round"/>
<path d="M15.0958 8.67233L12.141 7.80792L13.0393 9.15821L11.7003 11.7571L13.4631 11.7345H16.0902L15.0958 8.67233ZM5.85289 7.80792L2.89809 8.67233L1.91504 11.7345H4.53651L6.29357 11.7571L4.96024 9.15821L5.85289 7.80792ZM9.86419 9.29945L10.0506 6.03956L10.9094 3.71753L7.09583 3.71753L7.94329 6.03956L8.14103 9.29945L8.20882 10.3277L8.21447 12.8588H9.77945L9.79074 10.3277L9.86419 9.29945Z" fill="#F6851B" stroke="#F6851B" stroke-width="0.0753296" stroke-linecap="round" stroke-linejoin="round"/>
</svg>
