<svg width="60" height="19" viewBox="0 0 60 19" fill="none" xmlns="http://www.w3.org/2000/svg">
<path fill-rule="evenodd" clip-rule="evenodd" d="M9.53249 2.45168C10.0042 2.44885 11.4061 2.32259 11.9999 4.32672C12.3999 5.67672 13.0371 7.88808 13.9114 10.9608H14.2675C15.2052 7.72132 15.8493 5.50996 16.1999 4.32672C16.7999 2.30172 18.2999 2.45172 18.8999 2.45172L23.529 2.45172V16.8517H18.8109V8.36555H18.4945L15.8644 16.8517H12.3146L9.68444 8.35926H9.36805V16.8517H4.6499V2.45172L9.53249 2.45168ZM30.3042 2.45172V10.9442H30.6806L33.8799 3.96089C34.501 2.5712 35.8246 2.45172 35.8246 2.45172H40.3904V16.8517H35.5737V8.35926H35.1973L32.0607 15.3425C31.4397 16.726 30.0533 16.8517 30.0533 16.8517H25.4875V2.45172H30.3042ZM57.039 9.29469C56.3671 11.1986 54.2571 12.5622 51.9211 12.5622H46.8699V16.8517H42.2895V9.29469H57.039Z" fill="#0F754E"/>
<path fill-rule="evenodd" clip-rule="evenodd" d="M52.1421 2.45117H42.0493C42.2895 5.6571 45.0504 8.40158 47.9084 8.40158H57.3573C57.9025 5.73708 56.0254 2.45117 52.1421 2.45117Z" fill="url(#paint0_linear_3212_1970)"/>
<defs>
<linearGradient id="paint0_linear_3212_1970" x1="1582.11" y1="376.758" x2="42.0493" y2="376.758" gradientUnits="userSpaceOnUse">
<stop stop-color="#1F5CD7"/>
<stop offset="1" stop-color="#02AEFF"/>
</linearGradient>
</defs>
</svg>
