<svg width="24" height="25" viewBox="0 0 24 25" fill="none" xmlns="http://www.w3.org/2000/svg">
<path d="M16.1 23.25H7.9C7.6 23.25 7.4 23.15 7.2 22.95L1.3 17.05C1.1 16.95 1 16.65 1 16.35V8.15C1 7.85 1.1 7.65 1.3 7.45L7.2 1.55C7.3 1.35 7.6 1.25 7.9 1.25H16.2C16.5 1.25 16.7 1.35 16.9 1.55L22.8 7.45C22.9 7.55 23 7.85 23 8.15V16.45C23 16.75 22.9 16.95 22.7 17.15L16.8 23.05C16.7 23.15 16.4 23.25 16.1 23.25ZM8.3 21.25H15.8L21.1 15.95V8.55L15.7 3.25H8.3L3 8.55V16.05L8.3 21.25ZM15 16.25C14.7 16.25 14.5 16.15 14.3 15.95L12 13.65L9.7 15.95C9.3 16.35 8.7 16.35 8.3 15.95C7.9 15.55 7.9 14.95 8.3 14.55L10.6 12.25L8.3 9.95C7.9 9.55 7.9 8.95 8.3 8.55C8.7 8.15 9.3 8.15 9.7 8.55L12 10.85L14.3 8.55C14.7 8.15 15.3 8.15 15.7 8.55C16.1 8.95 16.1 9.55 15.7 9.95L13.4 12.25L15.7 14.55C16.1 14.95 16.1 15.55 15.7 15.95C15.5 16.15 15.3 16.25 15 16.25Z" fill="white" fill-opacity="0.6"/>
</svg>
