<svg width="24" height="24" viewBox="0 0 24 24" fill="none" xmlns="http://www.w3.org/2000/svg">
<path d="M13.1751 9.50597C13.1398 9.51784 13.1026 9.52708 13.0682 9.54262C12.6347 9.72178 12.2754 10.0467 12.0508 10.4627C11.8262 10.8787 11.7501 11.3603 11.8352 11.8265C11.8461 11.8879 11.857 11.9494 11.8724 12.0099C11.8878 12.0704 11.9068 12.1319 11.9276 12.1933C12.0756 12.6044 12.3423 12.9607 12.6932 13.2161C12.723 13.2362 12.752 13.2564 12.7837 13.2757C12.8498 13.3171 12.9182 13.3547 12.9885 13.3884C13.0374 13.4132 13.0872 13.4371 13.1389 13.4582C13.381 13.5557 13.6391 13.6065 13.8998 13.6077C13.9243 13.6077 13.9469 13.6012 13.9705 13.6003V13.593C14.2458 13.5803 14.5166 13.5183 14.7704 13.4096C15.2421 13.2012 15.621 12.8235 15.834 12.3491C16.0471 11.8748 16.0791 11.3374 15.9241 10.8405C15.7691 10.3436 15.4379 9.92244 14.9944 9.65807C14.5509 9.39371 14.0264 9.30492 13.522 9.40873C13.4921 9.41516 13.4631 9.41973 13.4315 9.42707C13.3444 9.4477 13.2588 9.47403 13.1751 9.50597Z" fill="#FFD833"/>
<mask id="mask0_2837_66179" style="mask-type:alpha" maskUnits="userSpaceOnUse" x="3" y="0" width="14" height="23">
<path d="M12.0166 9.40417C11.2804 8.22774 10.8516 7.00721 10.7302 5.74273C9.65941 4.86222 7.95205 4.4299 5.60811 4.4458C5.55032 5.40736 5.69292 6.37048 6.02665 7.27261H6.00309C6.24613 7.85336 6.58494 8.38809 7.00505 8.85386C7.00571 8.86288 7.00813 8.87164 7.01217 8.87967C7.01621 8.88769 7.0218 8.89482 7.02859 8.90069C7.17694 9.06552 7.34079 9.21547 7.51779 9.34823C8.54876 10.148 9.77025 10.6433 11.1823 10.8341C11.3125 10.2836 11.6032 9.78538 12.0166 9.40417Z" fill="url(#paint0_linear_2837_66179)"/>
<path d="M7.51683 14.9597H7.49322C6.82589 15.9815 6.3989 17.4432 6.21228 19.3448C7.23899 19.502 8.18597 19.4549 9.05327 19.2036C9.80049 18.977 10.4912 18.5911 11.0789 18.0718V18.0479L11.2184 17.9067H11.2438C12.172 16.9125 12.7911 15.6754 13.1009 14.1957C12.6765 14.0676 12.2884 13.839 11.9685 13.5289C10.545 14.4687 9.06113 14.9457 7.51683 14.9597Z" fill="url(#paint1_linear_2837_66179)"/>
<path d="M7.05129 9.93883C6.89672 9.81361 6.74913 9.67981 6.6092 9.53802C5.52209 9.8364 4.31902 10.52 3 11.5889C3.53846 12.3891 4.24661 13.0575 5.07275 13.5452C5.75601 13.9404 6.52174 14.1667 7.30767 14.2057H7.51696C8.90604 14.1922 10.2347 13.77 11.503 12.939C11.2601 12.5306 11.1242 12.0662 11.108 11.5898C9.55524 11.3801 8.20302 10.8297 7.05129 9.93883Z" fill="url(#paint2_linear_2837_66179)"/>
<path d="M15.3764 9.09782C16.1102 7.95316 16.5251 6.77181 16.6212 5.55373V5.50699C16.6371 5.3583 16.645 5.20891 16.6447 5.0594C16.6351 4.1887 16.4025 3.33543 15.9698 2.58293C15.5368 1.79903 14.8942 1.09982 14.042 0.485291H14.0366C13.1826 1.09676 12.5384 1.79628 12.1042 2.58385C11.6715 3.33635 11.439 4.18961 11.4293 5.0603C11.429 5.20982 11.4369 5.35925 11.4529 5.5079V5.55464C11.5453 6.7293 11.9354 7.86999 12.6233 8.97675C13.0529 8.75166 13.5332 8.64449 14.0164 8.6659C14.4996 8.6873 14.9688 8.83656 15.3773 9.09873L15.3764 9.09782Z" fill="url(#paint3_linear_2837_66179)"/>
<path d="M16.3647 17.4352V17.4113C16.2197 16.2532 15.8178 15.1174 15.1589 14.0039C14.7665 14.208 14.3317 14.3143 13.8906 14.3139C13.8725 14.3139 13.8544 14.3139 13.8362 14.3139C13.4968 15.9398 12.8108 17.3025 11.778 18.4019C11.7748 18.4014 11.7715 18.4017 11.7685 18.4028C11.7654 18.4038 11.7626 18.4056 11.7603 18.4079C11.758 18.4102 11.7563 18.413 11.7553 18.4161C11.7542 18.4192 11.754 18.4225 11.7544 18.4258C11.7549 18.429 11.7546 18.4323 11.7535 18.4354C11.7525 18.4385 11.7508 18.4413 11.7485 18.4436C11.7462 18.446 11.7434 18.4477 11.7404 18.4487C11.7374 18.4498 11.7341 18.45 11.7308 18.4496C11.964 19.6597 12.6857 21.0049 13.896 22.4853C14.6737 21.9229 15.3246 21.1998 15.8057 20.3638C16.1469 19.7543 16.3609 19.0802 16.4344 18.3836C16.4054 18.3422 16.3893 18.293 16.3882 18.2423C16.4197 17.9736 16.4118 17.7016 16.3647 17.4352Z" fill="url(#paint4_linear_2837_66179)"/>
</mask>
<g mask="url(#mask0_2837_66179)">
<path d="M16.8989 0.485291H3V22.4807H16.8989V0.485291Z" fill="url(#paint5_radial_2837_66179)"/>
</g>
<defs>
<linearGradient id="paint0_linear_2837_66179" x1="5.69007" y1="4.52524" x2="11.0767" y2="9.90545" gradientUnits="userSpaceOnUse">
<stop stop-color="#FF4081"/>
<stop offset="1" stop-color="#FFA73F"/>
</linearGradient>
<linearGradient id="paint1_linear_2837_66179" x1="13.3121" y1="13.503" x2="6.13164" y2="19.3301" gradientUnits="userSpaceOnUse">
<stop stop-color="#FFA73F"/>
<stop offset="1" stop-color="#FF4081"/>
</linearGradient>
<linearGradient id="paint2_linear_2837_66179" x1="11.5186" y1="12.8297" x2="2.99965" y2="11.7101" gradientUnits="userSpaceOnUse">
<stop stop-color="#FFA73F"/>
<stop offset="1" stop-color="#FF4081"/>
</linearGradient>
<linearGradient id="paint3_linear_2837_66179" x1="14.037" y1="0.485291" x2="14.037" y2="9.09873" gradientUnits="userSpaceOnUse">
<stop stop-color="#FF4081"/>
<stop offset="1" stop-color="#FFA73F"/>
</linearGradient>
<linearGradient id="paint4_linear_2837_66179" x1="14.0826" y1="14.0039" x2="14.0826" y2="22.4853" gradientUnits="userSpaceOnUse">
<stop stop-color="#FFA73F"/>
<stop offset="1" stop-color="#FF4081"/>
</linearGradient>
<radialGradient id="paint5_radial_2837_66179" cx="0" cy="0" r="1" gradientUnits="userSpaceOnUse" gradientTransform="translate(13.3121 11.7074) rotate(-180) scale(15.2439 9.65563)">
<stop stop-color="#FFA73F"/>
<stop offset="0.756906" stop-color="#FF4081"/>
</radialGradient>
</defs>
</svg>
