<svg width="24" height="24" viewBox="0 0 24 24" fill="none" xmlns="http://www.w3.org/2000/svg">
<path fill-rule="evenodd" clip-rule="evenodd" d="M1 1H23V23H1V1Z" fill="black"/>
<path fill-rule="evenodd" clip-rule="evenodd" d="M1.63635 1.63583H22.3637V22.3637H1.63635V1.63583Z" fill="#FFF200"/>
<path fill-rule="evenodd" clip-rule="evenodd" d="M2.73605 18.1757L5.43991 20.932L11.775 14.5045L18.322 21.0644L21.0653 18.3477L14.5841 11.8673L15.83 10.6614V8.09042L16.6121 7.42791V9.44211L17.6194 10.2637L20.6276 7.25549L21.595 7.99754C22.1651 5.89047 18.8649 1.1062 16.1349 3.75672L12.9538 6.91067L13.6034 7.69272L11.9864 9.2697L10.4228 7.73225L11.2444 6.98973L7.75893 3.62383C5.13509 1.46341 2.44456 4.75072 2.35168 7.95754L3.30568 7.16262L6.23435 10.317L7.28122 9.44259V7.50745L7.9304 7.99754V10.529L9.20255 11.8011L2.73605 18.1757Z" fill="black"/>
</svg>
