<svg width="24" height="24" viewBox="0 0 24 24" fill="none" xmlns="http://www.w3.org/2000/svg">
<path d="M23 11.6486C22.9545 14.536 21.7756 17.2898 19.7176 19.3156C17.6597 21.3414 14.8877 22.4768 12 22.4768C9.11225 22.4768 6.34029 21.3414 4.28234 19.3156C2.22439 17.2898 1.04546 14.536 1 11.6486C1 11.4005 1 11.155 1.02727 10.915L7.68426 14.733L21.7918 6.61976C22.5898 8.17571 23.0041 9.89998 23 11.6486ZM7.68426 11.9813L1.48543 8.41151C1.36364 8.80921 1.26439 9.21347 1.18817 9.62236L7.68426 13.3586L21.1864 5.59435C20.9637 5.25917 20.7233 4.93601 20.4664 4.62621L7.68426 11.9813ZM19.6292 3.72898C19.3231 3.43829 19.0008 3.16514 18.6638 2.91083L7.68426 9.22692L2.44539 6.19433C2.24568 6.54312 2.06364 6.90174 1.89996 7.26883L7.67881 10.5932L19.6292 3.72898ZM7.68426 7.81971L17.5511 2.16359C17.1373 1.92148 16.7083 1.70649 16.2666 1.51999L7.68426 6.45613L3.86624 4.25805C3.5929 4.55834 3.33617 4.87335 3.09718 5.20165L7.68426 7.81971Z" fill="#28AB62"/>
</svg>
