<svg width="24" height="24" viewBox="0 0 24 24" fill="none" xmlns="http://www.w3.org/2000/svg">
<path d="M3.07996 5.78879L5.74418 10.5508V13.4555L3.08307 18.2081L3.07996 5.78879Z" fill="#5B57A2"/>
<path d="M13.3097 8.81764L15.8062 7.28757L20.9153 7.28281L13.3097 11.942V8.81764Z" fill="#D90751"/>
<path d="M13.2954 5.76052L13.3095 12.0652L10.639 10.4244V1L13.2954 5.76052Z" fill="#FAB718"/>
<path d="M20.9151 7.2829L15.8058 7.28766L13.2954 5.76053L10.639 1L20.9151 7.2829Z" fill="#ED6F26"/>
<path d="M13.3095 18.2341V15.1752L10.639 13.5656L10.6405 22.9994L13.3095 18.2341Z" fill="#63B22F"/>
<path d="M15.7997 16.7184L5.74399 10.5508L3.07996 5.78879L20.9043 16.7121L15.7997 16.7184Z" fill="#1487C9"/>
<path d="M10.641 23L13.3096 18.2347L15.7998 16.7186L20.9044 16.7123L10.641 23Z" fill="#017F36"/>
<path d="M3.08289 18.2079L10.6607 13.566L8.11304 12.0029L5.74399 13.4552L3.08289 18.2079Z" fill="#984995"/>
</svg>
