<svg width="18" height="18" viewBox="0 0 18 18" fill="none" xmlns="http://www.w3.org/2000/svg">
<defs>
  <linearGradient id="grad">
    <stop offset="70%" stop-color="#FFC32A"/>
    <stop offset="30%" stop-color="#22242B80"/>
  </linearGradient>
</defs>
<path  d="M8.33289 2.04851C8.61187 1.50548 9.38813 1.50548 9.66711 2.04851L11.5353 5.68495C11.6442 5.89692 11.8474 6.04452 12.0826 6.08259L16.1184 6.73565C16.7211 6.83317 16.9609 7.57144 16.5307 8.00457L13.6496 10.9051C13.4816 11.0741 13.404 11.313 13.4405 11.5485L14.0665 15.5885C14.16 16.1918 13.532 16.6481 12.9871 16.3728L9.33825 14.5289C9.12556 14.4214 8.87444 14.4214 8.66175 14.5289L5.01288 16.3728C4.468 16.6481 3.83999 16.1918 3.93348 15.5885L4.5595 11.5485C4.59599 11.313 4.51839 11.0741 4.35045 10.9051L1.4693 8.00457C1.03906 7.57144 1.27894 6.83317 1.8816 6.73565L5.91737 6.08259C6.15261 6.04452 6.35577 5.89692 6.46467 5.68495L8.33289 2.04851Z" fill="url(#grad)"/>
</svg>
