<svg width="18" height="18" viewBox="0 0 18 18" fill="none" xmlns="http://www.w3.org/2000/svg">
<g clip-path="url(#clip0_7916_7997)">
<path d="M8.33289 2.04851C8.61187 1.50548 9.38813 1.50548 9.66711 2.04851L11.5353 5.68495C11.6442 5.89692 11.8474 6.04452 12.0826 6.08259L16.1184 6.73565C16.7211 6.83317 16.9609 7.57144 16.5307 8.00457L13.6496 10.9051C13.4816 11.0741 13.404 11.313 13.4405 11.5485L14.0665 15.5885C14.16 16.1918 13.532 16.6481 12.9871 16.3728L9.33825 14.5289C9.12556 14.4214 8.87444 14.4214 8.66175 14.5289L5.01288 16.3728C4.468 16.6481 3.83999 16.1918 3.93348 15.5885L4.5595 11.5485C4.59599 11.313 4.51839 11.0741 4.35045 10.9051L1.4693 8.00457C1.03906 7.57144 1.27894 6.83317 1.8816 6.73565L5.91737 6.08259C6.15261 6.04452 6.35577 5.89692 6.46467 5.68495L8.33289 2.04851Z" fill="white" fill-opacity="0.32"/>
<g filter="url(#filter0_d_7916_7997)">
<path fill-rule="evenodd" clip-rule="evenodd" d="M8.99985 1.64063C8.73604 1.64062 8.47223 1.77638 8.33274 2.0479L6.46452 5.68433C6.35562 5.8963 6.15246 6.0439 5.91722 6.08197L1.88145 6.73503C1.27879 6.83255 1.03891 7.57082 1.46915 8.00395L4.3503 10.9045C4.51824 11.0735 4.59584 11.3124 4.55935 11.5479L3.93333 15.5879C3.83984 16.1912 4.46785 16.6475 5.01273 16.3721L8.6616 14.5283C8.76794 14.4746 8.8839 14.4477 8.99985 14.4477V1.64063Z" fill="#FFC32A"/>
</g>
</g>
<defs>
<filter id="filter0_d_7916_7997" x="-3.24951" y="-2.85938" width="16.7495" height="23.8145" filterUnits="userSpaceOnUse" color-interpolation-filters="sRGB">
<feFlood flood-opacity="0" result="BackgroundImageFix"/>
<feColorMatrix in="SourceAlpha" type="matrix" values="0 0 0 0 0 0 0 0 0 0 0 0 0 0 0 0 0 0 127 0" result="hardAlpha"/>
<feOffset/>
<feGaussianBlur stdDeviation="2.25"/>
<feComposite in2="hardAlpha" operator="out"/>
<feColorMatrix type="matrix" values="0 0 0 0 0 0 0 0 0 0 0 0 0 0 0 0 0 0 0.06 0"/>
<feBlend mode="normal" in2="BackgroundImageFix" result="effect1_dropShadow_7916_7997"/>
<feBlend mode="normal" in="SourceGraphic" in2="effect1_dropShadow_7916_7997" result="shape"/>
</filter>
<clipPath id="clip0_7916_7997">
<rect width="18" height="18" fill="white"/>
</clipPath>
</defs>
</svg>
