<svg width="32" height="32" viewBox="0 0 32 32" fill="none" xmlns="http://www.w3.org/2000/svg">
<g clip-path="url(#clip0_8155_52665)">
<path d="M16 32C24.8366 32 32 24.8366 32 16C32 7.16344 24.8366 0 16 0C7.16344 0 0 7.16344 0 16C0 24.8366 7.16344 32 16 32Z" fill="url(#paint0_linear_8155_52665)"/>
<path d="M10.8303 17.1696L12.7286 22.4237C12.7286 22.4237 12.9659 22.9153 13.2201 22.9153C13.4742 22.9153 17.2541 18.983 17.2541 18.983L21.4574 10.8644L10.8981 15.8133L10.8303 17.1696Z" fill="#C8DAEA"/>
<path d="M13.3473 18.5171L12.9829 22.3899C12.9829 22.3899 12.8304 23.5766 14.0168 22.3899C15.2032 21.2032 16.3388 20.2882 16.3388 20.2882" fill="#A9C6D8"/>
<path d="M10.865 17.357L6.96023 16.0847C6.96023 16.0847 6.49356 15.8954 6.64383 15.4661C6.67476 15.3775 6.73716 15.3022 6.92383 15.1727C7.78903 14.5697 22.938 9.12475 22.938 9.12475C22.938 9.12475 23.3657 8.98061 23.618 9.07648C23.6804 9.0958 23.7365 9.13135 23.7807 9.17949C23.8248 9.22763 23.8554 9.28664 23.8693 9.35048C23.8966 9.46324 23.908 9.57924 23.9032 9.69515C23.902 9.79541 23.8898 9.88835 23.8806 10.0341C23.7884 11.5227 21.0273 22.6331 21.0273 22.6331C21.0273 22.6331 20.8621 23.2833 20.2702 23.3055C20.1248 23.3102 19.9799 23.2856 19.8441 23.2331C19.7084 23.1806 19.5847 23.1013 19.4802 22.9999C18.3188 22.0009 14.3044 19.303 13.4173 18.7097C13.3973 18.696 13.3804 18.6783 13.3679 18.6576C13.3553 18.6369 13.3473 18.6137 13.3445 18.5897C13.3321 18.5271 13.4001 18.4497 13.4001 18.4497C13.4001 18.4497 20.3902 12.2363 20.5762 11.5841C20.5906 11.5335 20.5362 11.5086 20.4632 11.5307C19.9989 11.7015 11.9506 16.7841 11.0624 17.345C10.9984 17.3644 10.9308 17.3685 10.865 17.357Z" fill="white"/>
</g>
<defs>
<linearGradient id="paint0_linear_8155_52665" x1="16" y1="32" x2="16" y2="0" gradientUnits="userSpaceOnUse">
<stop stop-color="#1D93D2"/>
<stop offset="1" stop-color="#38B0E3"/>
</linearGradient>
<clipPath id="clip0_8155_52665">
<rect width="32" height="32" fill="white"/>
</clipPath>
</defs>
</svg>
