<svg width="18" height="18" viewBox="0 0 18 18" fill="none" xmlns="http://www.w3.org/2000/svg">
<g clip-path="url(#clip0_7498_1961)">
<path d="M9 18C13.9706 18 18 13.9706 18 9C18 4.02944 13.9706 0 9 0C4.02944 0 0 4.02944 0 9C0 13.9706 4.02944 18 9 18Z" fill="#0066FF"/>
<path d="M6.09229 9.65791L7.16006 12.6134C7.16006 12.6134 7.29356 12.8899 7.43651 12.8899C7.57946 12.8899 9.70564 10.678 9.70564 10.678L12.07 6.11124L6.13039 8.89501L6.09229 9.65791Z" fill="#C8DAEA"/>
<path d="M7.50788 10.4159L7.30291 12.5943C7.30291 12.5943 7.21711 13.2618 7.88446 12.5943C8.55181 11.9268 9.19058 11.4121 9.19058 11.4121" fill="#A9C6D8"/>
<path d="M6.11141 9.76334L3.91496 9.04769C3.91496 9.04769 3.65246 8.94119 3.73698 8.69969C3.75438 8.64989 3.78948 8.60752 3.89448 8.53469C4.38116 8.19547 12.9024 5.13269 12.9024 5.13269C12.9024 5.13269 13.143 5.05162 13.2849 5.10554C13.32 5.11641 13.3516 5.13641 13.3765 5.16349C13.4013 5.19057 13.4185 5.22376 13.4263 5.25967C13.4416 5.32309 13.4481 5.38835 13.4454 5.45354C13.4447 5.50994 13.4379 5.56222 13.4327 5.64419C13.3808 6.48157 11.8277 12.7312 11.8277 12.7312C11.8277 12.7312 11.7348 13.0969 11.4018 13.1094C11.32 13.112 11.2385 13.0982 11.1622 13.0686C11.0858 13.0391 11.0162 12.9945 10.9575 12.9375C10.3041 12.3755 8.04603 10.858 7.54706 10.5242C7.5358 10.5165 7.52633 10.5066 7.51926 10.4949C7.5122 10.4833 7.50771 10.4702 7.50611 10.4567C7.49913 10.4215 7.53738 10.378 7.53738 10.378C7.53738 10.378 11.4693 6.88297 11.574 6.51607C11.5821 6.48764 11.5515 6.47362 11.5104 6.48607C11.2492 6.58214 6.72206 9.44107 6.22241 9.75659C6.18644 9.76747 6.14843 9.76979 6.11141 9.76334Z" fill="white"/>
</g>
<defs>
<clipPath id="clip0_7498_1961">
<rect width="18" height="18" fill="white"/>
</clipPath>
</defs>
</svg>
