<svg width="24" height="24" viewBox="0 0 24 24" fill="none" xmlns="http://www.w3.org/2000/svg">
<path d="M9.64917 17.3483C9.64917 17.3483 9.91793 17.2384 9.94237 17.159L9.90572 17.0698C9.88068 17.0112 9.88373 16.9476 9.9332 16.9134L10.2227 16.7125L10.7071 16.8059C10.7071 16.8059 10.6191 16.696 10.6277 16.5494L10.1659 16.4517L9.7298 16.7174C9.6537 16.7738 9.5987 16.8541 9.57357 16.9454C9.54844 17.0367 9.55463 17.1339 9.59115 17.2213L9.64917 17.3489L9.64917 17.3483ZM13.0739 18.614C13.16 18.6103 13.2565 18.6091 13.361 18.6091C13.361 18.6091 13.6102 17.8791 13.6242 17.8559C13.4391 17.7696 13.2585 17.674 13.083 17.5694C13.1569 17.6806 13.3365 17.807 13.3011 17.9048L13.0739 18.614ZM13.2223 10.0983C12.8522 10.466 12.4973 10.6023 12.1802 10.634C12.1222 10.6403 12.0639 10.6436 12.0055 10.6438H11.9976C11.881 10.6438 11.7647 10.6315 11.6506 10.6072C11.6299 10.6896 11.6036 10.8625 11.6787 11.0262C11.7459 11.1746 11.8822 11.2852 12.0813 11.3591L12.1485 11.3853L12.1491 11.4574C12.1491 11.4788 12.165 11.9467 12.6744 12.0768C12.7575 11.9913 12.8332 11.9137 12.8882 11.8484C12.7844 11.6034 12.8393 11.353 12.9902 11.2302C12.9841 11.2565 12.9169 11.8703 13.4086 12.0988L13.4898 12.1373L13.4654 12.2234C13.4575 12.2497 13.2938 12.844 13.8893 13.0651L13.9944 13.1054L13.9473 13.2074C13.9369 13.23 13.7036 13.7694 14.2533 14.076H15.445V13.1274C15.0212 13.0755 14.8422 12.734 14.7957 12.4921C14.5984 12.4586 14.4463 12.3736 14.3419 12.235C14.0915 11.9051 14.3065 11.6028 14.3095 11.5863C14.3089 11.5887 14.3095 11.91 14.5074 12.1092C14.6058 12.2044 14.7218 12.279 14.8984 12.2955L14.9845 12.3034L14.9918 12.392C14.9937 12.4109 15.0407 12.8464 15.4451 12.9148L15.4445 10.9785C15.4445 10.678 15.5318 10.3762 15.6369 10.0977H13.2222L13.2223 10.0983ZM10.0138 10.9859L9.98199 12.2185L10.1225 12.2405L10.4646 11.0573L10.2905 10.6933L10.0144 10.9859H10.0138ZM10.7553 15.5511C10.7459 15.5509 10.7367 15.5486 10.7281 15.5447C10.7196 15.5407 10.712 15.535 10.7058 15.5279C10.6996 15.5209 10.6948 15.5127 10.6919 15.5037C10.689 15.4948 10.6879 15.4854 10.6887 15.476C10.6892 15.4668 10.6916 15.4577 10.6957 15.4494C10.6998 15.441 10.7055 15.4336 10.7125 15.4275C10.7195 15.4214 10.7277 15.4168 10.7365 15.4139C10.7453 15.411 10.7546 15.4099 10.7638 15.4107C10.8041 15.4125 10.8322 15.4473 10.831 15.4852C10.8296 15.5039 10.8209 15.5214 10.8067 15.5337C10.7925 15.5461 10.774 15.5523 10.7553 15.5511ZM13.786 16.6427C13.7964 16.6427 13.8086 16.6439 13.8196 16.647C14.0334 16.708 14.0865 17.4764 14.4597 17.5449C14.4964 17.5528 14.5306 17.5546 14.5599 17.5546C14.668 17.5546 14.7322 17.5088 14.8018 17.4264C14.8018 17.4264 14.6137 17.1313 14.4732 16.9316C14.2869 16.6702 14.1421 16.3544 13.7946 16.3544C13.786 16.3544 13.7762 16.3544 13.7671 16.3556C13.7009 16.3583 13.6369 16.3799 13.5826 16.4179C13.4666 16.3412 13.3308 16.2998 13.1917 16.2988C12.9748 16.2988 12.805 16.399 12.7201 16.399H12.7171L11.9413 16.322C11.8198 16.3098 11.7239 16.1876 11.6891 16.14L11.6756 16.1192C11.6756 16.0978 11.6756 16.0765 11.6744 16.0575C11.6481 15.4217 11.157 15.1498 10.9817 15.145C10.9817 15.145 11.0025 15.024 10.9555 14.9782L10.7844 15.1859L10.2225 14.9037L10.6232 15.3728L10.2842 15.7546C10.2414 15.7979 10.2469 15.8566 10.2646 15.8816L10.4112 16.0111L10.5969 15.8981C10.6061 15.8914 10.6232 15.8889 10.6439 15.8889C10.6953 15.8889 10.7722 15.9024 10.8412 15.9024C10.9176 15.9024 10.983 15.8865 10.9909 15.815C10.9677 16.0508 10.749 16.4607 10.8925 16.7826L10.9988 17.0257L10.3129 16.9267L9.99159 17.4698C9.89264 17.6506 9.87675 17.846 9.97204 17.9523L10.0924 18.1032C10.0924 18.1032 10.261 17.9242 10.2982 17.8063L10.2439 17.7465C10.1981 17.6958 10.2005 17.6506 10.2286 17.5962L10.4302 17.2615L11.2395 17.4526L11.2823 17.3793C11.3372 17.2877 11.4166 17.2608 11.5034 17.2608C11.5394 17.2608 11.5761 17.2651 11.6139 17.2712C11.7642 17.3012 12.0116 17.3409 12.259 17.3409C12.5308 17.3409 12.8001 17.292 12.9437 17.1313C13.2369 17.5669 13.8318 17.6359 13.7848 17.8576L13.6284 18.604C13.7323 18.5991 13.8318 18.5924 13.9265 18.5796L14.0755 17.8032C14.0876 17.7373 14.0982 17.6711 14.1073 17.6047C14.0499 17.5461 13.9112 17.4233 13.8324 17.2737C13.728 17.0715 13.7848 16.9658 13.6871 16.7032C13.6871 16.7032 13.7176 16.6421 13.786 16.6421L13.786 16.6427ZM20.9698 14.1016C20.3407 13.7901 19.9437 12.9655 19.8472 12.6686C19.7433 14.3044 18.9462 15.4392 18.0147 16.5313C17.5309 17.0982 17.3624 17.6492 17.3624 17.6492C17.3624 17.6492 17.4558 17.0249 17.8736 16.5167C18.7428 15.471 19.5686 14.1686 19.6303 12.6623C19.6725 11.6117 19.4031 10.7596 18.9816 10.0573C19.2174 10.7885 19.1838 11.6845 18.3842 12.5206C18.3842 12.5206 19.9767 10.61 17.7508 8.65045C16.8603 7.90526 15.8854 7.44468 15.3839 7.1185C17.1962 7.711 18.0817 7.05864 18.0817 7.05864C17.5027 7.56133 16.7532 7.55279 16.2884 7.4801C16.4148 7.5418 16.5461 7.60654 16.6866 7.68168C18.2155 8.51362 19.5888 9.88241 19.8234 11.7772V11.7625C20.1782 13.6237 20.9699 14.1012 20.9699 14.1012L20.9698 14.1016ZM21.4353 11.9331C21.4494 11.9344 21.4616 11.9344 21.4756 11.9344C22.3277 11.9344 22.616 11.0199 22.616 11.0199H22.5995C22.4431 11.0199 21.1763 10.9833 20.2808 9.84288C19.6919 9.09342 19.2088 8.43432 18.2546 8.17533L18.1605 8.15823L18.1404 8.06233C18.1141 7.91634 18.2136 7.77951 18.4409 7.63232C19.7572 6.76863 18.8623 5.6667 18.8623 5.6667C18.8623 5.6667 18.4873 6.5475 17.6462 6.5475L17.5833 6.54628C17.488 6.54139 17.3957 6.53833 17.3029 6.51818L17.1478 6.48764C17.1478 6.48764 17.3878 5.83405 16.8087 5.23484C16.3732 4.7816 15.8424 4.70464 15.5364 4.70464C15.3819 4.70464 15.2841 4.7248 15.2841 4.7248C15.5749 5.10534 15.785 5.73755 15.4491 6.12726C15.1589 6.462 14.4504 6.47849 14.4504 6.97814C14.4504 7.18949 14.6477 7.43627 15.002 7.65798C16.0672 8.3299 17.1245 9.22169 17.5642 10.4169C18.114 11.9074 17.4946 12.8969 16.6114 13.4643C16.6114 13.4643 16.8887 13.7197 17.29 13.7527C17.3718 13.7606 17.4519 13.7643 17.5264 13.7643C18.3748 13.7643 18.8134 13.3654 18.8134 13.3654C18.8134 13.3654 18.7407 13.9164 18.3003 14.4276C17.8922 14.8992 17.3578 15.1777 16.5423 15.1893C16.5423 15.1893 16.5167 15.568 16.8777 15.8966C17.1092 16.1037 17.6424 16.1715 17.6424 16.1715C17.6424 16.1715 16.6431 16.3737 16.5326 17.8525C16.4727 18.6539 16.2687 18.9318 16.2687 18.9318H16.2864C18.6052 18.9318 18.5458 16.9393 18.5458 16.9393C18.5458 16.9393 18.7071 17.5294 19.3539 17.6833C19.4321 17.704 19.5158 17.712 19.5952 17.712C19.8029 17.712 19.9843 17.6631 19.9843 17.6631C19.9843 17.6631 19.6453 16.9472 19.9812 15.9461C20.2604 15.1148 20.2152 14.4991 20.2152 14.4991C20.2152 14.4991 20.5273 14.9724 21.3024 14.9767H21.3104C21.4935 14.9796 21.6743 14.9362 21.8362 14.8505C21.9981 14.7649 22.1357 14.6398 22.2364 14.4869C20.6904 13.8437 20.8431 11.7686 20.8431 11.7686C20.8431 11.7686 21.0435 11.9189 21.435 11.9336L21.4353 11.9331ZM5.9882 16.5315C5.05671 15.4393 4.25957 14.3045 4.15452 12.6688C4.05862 12.9662 3.66221 13.7908 3.03368 14.1018C3.03368 14.1018 3.82409 13.6241 4.17896 11.7631V11.7777C4.41412 9.88295 5.78725 8.51417 7.31612 7.68285C7.45661 7.6065 7.58856 7.54236 7.71378 7.48127C7.24955 7.55335 6.49947 7.5619 5.92103 7.05981C5.92103 7.05981 6.80671 7.71155 8.61822 7.11906C8.11735 7.44524 7.14248 7.9058 6.25238 8.65101C4.02603 10.6105 5.61835 12.5212 5.61835 12.5212C4.81817 11.6844 4.78519 10.7895 5.02097 10.0579C4.5995 10.7603 4.32952 11.6124 4.3735 12.6638C4.43397 14.1694 5.25917 15.4716 6.12656 16.5182C6.5468 17.0251 6.64147 17.6494 6.64147 17.6494C6.64147 17.6494 6.47044 17.0991 5.98789 16.5322L5.9882 16.5315ZM6.3608 16.1711C6.3608 16.1711 6.89407 16.1039 7.12555 15.8962C7.48593 15.5682 7.4609 15.1895 7.4609 15.1895C6.64485 15.1779 6.11099 14.8994 5.70111 14.4278C5.26255 13.9166 5.18925 13.3656 5.18925 13.3656C5.18925 13.3656 5.62781 13.7645 6.47503 13.7645C6.55139 13.7645 6.63079 13.7608 6.71203 13.7529C6.96271 13.7275 7.19988 13.627 7.39249 13.4646C6.50801 12.8971 5.88866 11.9076 6.43778 10.4165C6.87758 9.22237 7.93429 8.33001 9.00095 7.65755C9.35461 7.43642 9.55129 7.18965 9.55129 6.97832C9.55129 6.47867 8.84397 6.46218 8.55384 6.12744C8.21789 5.73773 8.42862 5.10554 8.71876 4.72498C8.71876 4.72498 8.62164 4.70482 8.4665 4.70482C8.16108 4.70482 7.63029 4.78179 7.19415 5.23502C6.61387 5.83487 6.85514 6.48843 6.85514 6.48843L6.7 6.51897C6.60776 6.5379 6.51431 6.54157 6.41902 6.54707L6.35794 6.54768C5.51501 6.54768 5.14057 5.6675 5.14057 5.6675C5.14057 5.6675 4.24694 6.76881 5.56324 7.6325C5.78922 7.77971 5.8888 7.91716 5.86252 8.06251L5.84236 8.15779L5.74646 8.17489C4.79419 8.4345 4.31103 9.09358 3.72107 9.84306C2.82561 10.9835 1.56008 11.0201 1.40297 11.0201H1.38586C1.38586 11.0201 1.67477 11.9345 2.52748 11.9345C2.54092 11.9345 2.55314 11.9345 2.5678 11.9333C2.95933 11.9193 3.1603 11.769 3.1603 11.769C3.1603 11.769 3.31178 13.8439 1.76642 14.4872C1.76642 14.4872 2.04801 14.9777 2.69305 14.9777H2.70038C3.47611 14.9728 3.78764 14.4994 3.78764 14.4994C3.78764 14.4994 3.74244 15.1157 4.02035 15.9465C4.35629 16.9482 4.01912 17.6629 4.01912 17.6629C4.01912 17.6629 4.19931 17.7117 4.4076 17.7117C4.48823 17.7117 4.57069 17.7044 4.64826 17.6836C5.29451 17.5297 5.45637 16.9397 5.45637 16.9397C5.45637 16.9397 5.39712 18.9322 7.71622 18.9322H7.73332C7.73332 18.9322 7.52992 18.6542 7.47068 17.8528C7.36073 16.3746 6.3602 16.1712 6.3602 16.1712L6.3608 16.1711ZM11.4777 8.82889H12.5711V9.20454C12.4428 9.04695 12.1924 9.07932 12.1924 9.07932V9.62113C12.1924 9.62113 12.2009 9.88746 12.295 10.0029H11.7538C11.8485 9.88745 11.8564 9.62113 11.8564 9.62113V9.07932C11.8564 9.07932 11.6072 9.04695 11.4777 9.20454L11.4777 8.82889ZM10.2866 8.88509C10.3245 8.92601 10.3618 8.9706 10.3978 9.01519C10.4063 9.02557 10.4143 9.03474 10.4228 9.04696C10.4564 9.09094 10.49 9.13858 10.5224 9.18622L10.5444 9.2186C10.5829 9.27724 10.6195 9.33771 10.6562 9.40062C10.9909 9.97907 11.526 10.3248 12.0006 10.3254C12.4764 10.3248 13.0109 9.97907 13.3462 9.40062C13.3835 9.33649 13.4207 9.27418 13.4598 9.21554C13.5044 9.14722 13.5521 9.08098 13.6028 9.01702C13.64 8.9706 13.6785 8.9254 13.7176 8.88386C13.7243 8.87776 13.7298 8.87104 13.7365 8.86554C13.9076 8.69084 14.1098 8.55769 14.3761 8.48378L14.2576 8.41476H14.2514L13.7799 8.14109L13.2967 7.86316L12.0043 8.56806L12.0006 8.565L11.9988 8.56806L10.7063 7.86316L10.2225 8.14109L9.75095 8.41476H9.74545L9.62634 8.48378C9.89205 8.55708 10.0948 8.68902 10.2659 8.86431C10.2732 8.87042 10.2781 8.87898 10.2866 8.88509ZM12.0006 4.4799C11.2004 4.48051 10.6 4.74316 10.4692 5.05284L12.0006 5.65757L13.5325 5.05284C13.403 4.74316 12.8026 4.48051 12.0006 4.4799ZM12.0171 20.5072H11.9865C11.5016 20.5103 10.8327 20.4107 10.5114 20.316L10.1241 21.366C10.3795 21.4571 11.2444 21.6318 12.0024 21.6318C12.7592 21.6318 13.6247 21.4571 13.8795 21.366L13.4928 20.3166C13.1697 20.4107 12.5021 20.5103 12.0171 20.5072ZM14.9471 19.4627C14.6587 19.6264 14.0156 19.872 13.6411 19.9856L13.9551 20.8529C14.5341 20.6941 15.0124 20.509 15.407 20.3105L14.7546 20.0936L14.9471 19.4627ZM9.05576 19.4627L9.24878 20.0937L8.59581 20.3105C8.98979 20.509 9.46988 20.6941 10.0471 20.8523L10.3617 19.985C9.98788 19.8714 9.34346 19.6264 9.05576 19.4627ZM12.0004 3.47633C12.6045 3.47633 13.1958 3.62109 13.6515 3.87458C13.693 3.73531 13.751 3.5655 13.8298 3.38776L13.6576 3.40853L13.4774 3.42686L13.401 3.26254L13.1701 2.77573L12.7511 2.99441L12.5874 3.07748L12.4567 2.94921L12.0004 2.49719L11.5454 2.94921L11.4153 3.07748L11.2522 2.99441L10.8307 2.77573L10.6029 3.26254L10.5253 3.42747L10.3445 3.40853L10.1735 3.38776C10.2523 3.56551 10.3097 3.73534 10.3518 3.87458C10.8087 3.62109 11.4 3.47633 12.001 3.47633H12.0004ZM21.2146 9.10639C21.2934 9.13326 21.3728 9.14548 21.4516 9.14548C21.7937 9.14548 22.1235 8.92374 22.2365 8.67086C22.2365 8.67086 21.6104 8.63299 20.9373 7.94825C20.7235 7.72712 20.4963 7.66055 20.302 7.66055C19.9997 7.66055 19.7725 7.81997 19.7725 7.81997C20.5861 8.25366 20.7516 8.95002 21.2146 9.10639ZM2.55105 9.14487C2.63046 9.14487 2.70987 9.13326 2.78621 9.10577C3.25045 8.9494 3.41781 8.25367 4.22957 7.82059C4.22957 7.82059 4.00236 7.66056 3.70183 7.66056C3.50637 7.66056 3.27975 7.72653 3.06474 7.94887C2.39223 8.63298 1.76673 8.67148 1.76673 8.67148C1.87912 8.92375 2.20957 9.14549 2.55103 9.14549L2.55105 9.14487ZM11.5894 6.44087V6.79515L11.5216 6.76339C11.5185 6.76094 11.4183 6.73895 11.2455 6.6009C10.959 6.37855 10.9535 6.17333 10.9535 6.17333L11.5888 6.44088L11.5894 6.44087ZM11.8886 8.10048V5.90018L10.4911 5.42495L10.86 7.55679L11.8893 8.10043L11.8886 8.10048ZM12.414 6.44087L13.0492 6.17332C13.0492 6.17332 13.0443 6.37856 12.7566 6.6009C12.5838 6.73833 12.4842 6.76093 12.4811 6.76338L12.414 6.79453L12.414 6.44087ZM13.1427 7.55747L13.5098 5.42563L12.1128 5.90025V8.10054L13.1427 7.5569L13.1427 7.55747ZM9.912 13.2009C10.0482 13.2498 10.2131 13.2601 10.298 13.2601C10.3011 13.2498 10.306 13.2369 10.3103 13.221C10.317 13.1966 10.3243 13.171 10.3298 13.1441C10.3536 13.0219 10.3616 12.8845 10.364 12.7953C10.2859 12.7489 10.2222 12.6816 10.1801 12.6011C10.1282 12.4917 10.0543 12.4404 9.94621 12.4404C9.80572 12.4404 9.65486 12.5259 9.58951 12.565C9.5382 12.8692 9.76237 13.1453 9.91203 13.2003L9.912 13.2009ZM13.0038 12.0336C12.7448 12.3164 12.236 12.8093 12.2116 12.8338L12.181 12.8643L10.5746 12.8393C10.5733 12.9722 10.556 13.1044 10.5233 13.2332L10.5105 13.2839L12.4205 13.6284C12.619 13.4892 13.1657 13.0891 13.3783 12.9321C13.2237 12.7061 13.2091 12.438 13.2439 12.2498C13.1522 12.1919 13.071 12.1188 13.0038 12.0336Z" fill="#FFFFFE"/>
<path d="M15.4446 14.2848H8.55747V16.8802C8.55747 17.9418 9.32406 18.6057 10.4559 18.6057C11.4008 18.6057 11.65 18.6424 12.0013 18.9924C12.2438 18.7499 12.4441 18.6601 12.8564 18.6259L12.8656 18.5862L13.0824 17.9137C13.0702 17.8984 12.7159 17.4947 12.7159 17.4947C12.5754 17.5417 12.4569 17.5496 12.2578 17.5496C12.0544 17.5496 11.8241 17.5252 11.5743 17.4788C11.5509 17.4732 11.5269 17.4703 11.5028 17.4702C11.4723 17.4702 11.4705 17.4727 11.4619 17.4879L11.4191 17.5594L11.3397 17.6901L11.1913 17.6553L10.5304 17.4995L10.4394 17.6492L10.4534 17.6657L10.5334 17.7542L10.498 17.8703C10.4492 18.0212 10.2916 18.1977 10.2433 18.2466L10.0784 18.4237L9.92751 18.2337L9.81451 18.0914C9.6954 17.9583 9.66791 17.7542 9.7351 17.5405C9.73314 17.5419 9.73081 17.5427 9.72838 17.5429L9.54208 17.6205L9.4584 17.4372L9.39915 17.3083C9.34228 17.1765 9.33204 17.0292 9.37013 16.8907C9.40822 16.7522 9.49236 16.6309 9.60867 16.5467L10.1401 16.2455L10.6471 16.3451C10.6593 16.2962 10.6776 16.1228 10.6917 16.0782C10.6819 16.0769 10.6727 16.0751 10.663 16.0751L10.371 16.1838L10.09 15.9896C10.09 15.9896 9.98006 15.8833 10.0796 15.777L10.3514 15.3635L9.66123 14.4961L10.7222 14.9323L10.7931 14.8449L10.936 14.6727L11.0985 14.8278C11.1412 14.8696 11.1709 14.9228 11.184 14.9811C11.476 15.0953 12.0001 15.4319 12.0465 15.9792L11.8828 16.0445V16.0488C11.92 16.0934 11.9512 16.1117 11.961 16.1136L12.7184 16.1881C12.7379 16.1844 12.7611 16.1759 12.788 16.1685C12.8827 16.1362 13.0238 16.0891 13.1912 16.0891C13.328 16.0891 13.4599 16.1209 13.5864 16.1808C13.6334 16.1624 13.6902 16.1496 13.7574 16.1453L13.794 16.1441C14.199 16.1441 14.4006 16.4477 14.5624 16.6902C14.5893 16.7323 14.6162 16.7714 14.6443 16.8105C14.786 17.0108 14.9711 17.3034 14.9784 17.3162L15.0621 17.4464L14.9595 17.5661C14.8813 17.6577 14.7622 17.7646 14.5594 17.7646C14.5135 17.7642 14.4676 17.7595 14.4226 17.7505C14.381 17.7426 14.3405 17.7301 14.3016 17.7133C14.2954 17.7564 14.2883 17.7994 14.2803 17.8422L14.1477 18.5367C14.9418 18.3412 15.4463 17.7401 15.4463 16.8801L15.4446 14.2848ZM8.55747 14.0759H13.9144C13.6469 13.7986 13.6511 13.4486 13.7189 13.2207C13.6467 13.186 13.5795 13.1416 13.5192 13.0888C13.3097 13.2433 12.6708 13.7094 12.504 13.8266L12.468 13.8511L10.3655 13.4699H10.3228C10.2727 13.4699 10.1988 13.4681 10.1182 13.4577C10.1095 13.4963 10.0899 13.5316 10.0616 13.5593C10.0334 13.587 9.99768 13.6059 9.9589 13.6137C9.92012 13.6215 9.87991 13.6179 9.84313 13.6033C9.80635 13.5888 9.77457 13.5639 9.75166 13.5316C9.73556 13.5096 9.72402 13.4846 9.71773 13.4581C9.71143 13.4315 9.71051 13.404 9.71501 13.3771L9.72295 13.3313C9.50671 13.1786 9.30578 12.8365 9.39493 12.4761L9.40348 12.4382L9.43403 12.4163C9.46485 12.3952 9.49664 12.3757 9.52931 12.3576L9.37661 12.3332C9.34949 12.3285 9.32525 12.3135 9.30906 12.2912C9.29286 12.269 9.28598 12.2413 9.28987 12.2141C9.29965 12.1567 9.35279 12.1163 9.40959 12.1267L9.77302 12.1841L9.80662 10.9008L10.3478 10.3266L10.6862 11.0395L10.3295 12.2746L10.6508 12.3252C10.6782 12.3297 10.7028 12.3449 10.719 12.3675C10.7353 12.39 10.7419 12.4181 10.7375 12.4456C10.7336 12.4699 10.7211 12.492 10.7023 12.5079C10.6834 12.5238 10.6596 12.5325 10.6349 12.5323L10.6184 12.5317L10.3564 12.4889C10.36 12.4975 10.3649 12.5018 10.3686 12.5103C10.3977 12.5609 10.4416 12.6014 10.4944 12.6264L12.0966 12.6526C12.1644 12.5861 12.3324 12.4212 12.5058 12.2464C12.3549 12.191 12.2223 12.0946 12.123 11.9681C12.0238 11.8415 11.9617 11.6898 11.9439 11.5299C11.724 11.4359 11.5713 11.2954 11.487 11.1122C11.3844 10.8849 11.421 10.6577 11.4485 10.5472C11.2347 10.4696 11.0099 10.3266 10.7803 10.0982H8.36646C8.4703 10.3768 8.55764 10.6785 8.55764 10.9784V14.0753L8.55747 14.0759Z" fill="#FFE52B"/>
<path d="M12.0011 5.65855L10.4698 5.0526C10.5999 4.74353 11.2004 4.48088 12.0011 4.48026C12.8025 4.48088 13.403 4.74353 13.5331 5.0526L12.0011 5.65855ZM13.1428 7.55759L12.1135 8.10124V5.89985L13.5105 5.42462L13.1428 7.55645L13.1428 7.55759ZM13.7805 8.14153L14.2508 8.4152H14.2575L14.376 8.48422C14.1103 8.55752 13.9069 8.69129 13.7365 8.86598L13.7182 8.8843C13.678 8.92718 13.6395 8.9716 13.6027 9.01746L13.5814 9.04556C13.5447 9.09259 13.5099 9.14085 13.4775 9.19093L13.4598 9.21598C13.4202 9.27646 13.3825 9.33818 13.3468 9.40106C13.0109 9.9795 12.4764 10.3252 12.0012 10.3265C11.5259 10.3252 10.9909 9.9795 10.6561 9.40106C10.6206 9.33937 10.5833 9.27867 10.5444 9.21903L10.5224 9.18666C10.4905 9.13949 10.4575 9.09306 10.4234 9.04739C10.4149 9.03518 10.4069 9.02601 10.3984 9.01563C10.3625 8.97108 10.3252 8.92769 10.2866 8.88552C10.2787 8.87941 10.2732 8.87147 10.2658 8.86475C10.0913 8.682 9.87018 8.55042 9.62631 8.48422L9.74603 8.4152H9.75092L10.2231 8.14153L10.7062 7.8636L11.9987 8.5685L12.0012 8.56605L12.0048 8.5685L13.2967 7.8636L13.7805 8.14153ZM15.6374 10.0986C15.5317 10.3772 15.4443 10.6789 15.4443 10.9788L15.4456 12.9151C15.0418 12.8479 14.9936 12.4118 14.9923 12.3929L14.985 12.3043L14.8977 12.2963C14.7495 12.2833 14.6111 12.2171 14.5079 12.11C14.3094 11.9115 14.3094 11.5902 14.3094 11.5872C14.307 11.6037 14.092 11.9048 14.3412 12.2347C14.4463 12.3739 14.599 12.46 14.7956 12.4936C14.8421 12.7349 15.0216 13.0764 15.4456 13.1289V14.0757H14.2539C13.7041 13.7697 13.9368 13.2309 13.9478 13.2077L13.9943 13.1051L13.8892 13.0654C13.2937 12.8443 13.458 12.2493 13.4659 12.2237L13.4904 12.137L13.4085 12.0991C12.9174 11.8706 12.984 11.2561 12.9907 11.2305C12.8392 11.3533 12.7849 11.6031 12.8887 11.8493C12.8325 11.914 12.7568 11.9916 12.6743 12.0771C12.5308 12.0458 12.4017 11.9681 12.3067 11.856C12.2118 11.744 12.1564 11.6038 12.149 11.4571L12.1484 11.385L12.0812 11.3594C11.8827 11.2861 11.7465 11.1749 11.6787 11.0265C11.6035 10.8622 11.6298 10.6905 11.6506 10.6068C11.7647 10.6305 11.8809 10.6428 11.9975 10.6435H12.0055C12.0647 10.6435 12.1227 10.6398 12.1802 10.6343C12.4978 10.6026 12.8521 10.4664 13.2222 10.0986L15.6374 10.0986ZM14.1482 18.5371L14.2813 17.8426L14.3027 17.7144C14.3849 17.7466 14.4722 17.7637 14.5605 17.7651C14.7633 17.7651 14.8818 17.6576 14.9606 17.5665L15.062 17.4474L14.9789 17.3167C14.9716 17.3039 14.7865 17.0113 14.6448 16.811C14.6166 16.7714 14.5895 16.731 14.5635 16.69C14.4017 16.4481 14.1995 16.1445 13.7939 16.1445L13.7579 16.1458C13.6994 16.1489 13.6418 16.1606 13.5868 16.1806C13.4634 16.1216 13.3284 16.0907 13.1916 16.0902C13.054 16.0935 12.9179 16.1199 12.7891 16.1684C12.7622 16.1763 12.7378 16.1849 12.7188 16.1885L11.9614 16.114C11.9517 16.1116 11.9211 16.0932 11.8832 16.0493V16.045L12.0469 15.9796C12.0011 15.4323 11.4764 15.0958 11.1845 14.9816C11.1715 14.923 11.1418 14.8695 11.0989 14.8276L10.9365 14.6731L10.7935 14.8447L10.7233 14.9327L9.66169 14.496L10.3519 15.3639L10.0801 15.7775C9.97991 15.8831 10.0905 15.99 10.0905 15.99L10.3714 16.1843L10.6634 16.0749C10.6732 16.0749 10.6817 16.0774 10.6921 16.0786C10.6781 16.1232 10.6597 16.2973 10.6475 16.3455L10.1412 16.246L9.60974 16.5471C9.33546 16.7487 9.29823 17.081 9.40022 17.3088L9.45886 17.4383L9.54254 17.6209L9.72884 17.544C9.7319 17.5427 9.73434 17.5421 9.73617 17.5403C9.66898 17.7547 9.69647 17.9581 9.81558 18.0919L9.92858 18.2342L10.0788 18.4248L10.2438 18.247C10.2926 18.1981 10.4502 18.0216 10.4985 17.8701L10.5339 17.7547L10.4539 17.6661L10.4405 17.6496L10.5309 17.5L11.1918 17.6564L11.3408 17.6906L11.4202 17.5592L11.463 17.4884C11.4709 17.4731 11.4727 17.4707 11.5033 17.4707C11.5271 17.4707 11.5503 17.4731 11.5754 17.4792C11.8007 17.5237 12.0298 17.5472 12.2595 17.5495C12.4568 17.5495 12.5759 17.5421 12.7164 17.4951C12.7164 17.4951 13.0712 17.8983 13.0835 17.9141L12.866 18.586L12.8562 18.6263C12.4451 18.6599 12.2448 18.7503 12.0023 18.9928C11.6505 18.6434 11.4019 18.6062 10.4569 18.6062C9.32511 18.6062 8.55791 17.9422 8.55791 16.88V14.2853H15.4454L15.4467 16.88C15.4467 17.7407 14.9422 18.3411 14.1482 18.5371ZM9.90594 17.0699L9.94198 17.1597C9.91755 17.2379 9.64878 17.3491 9.64878 17.3491L9.59137 17.2214C9.55469 17.1339 9.54842 17.0367 9.57356 16.9452C9.5987 16.8537 9.65379 16.7733 9.73002 16.7169L10.1655 16.4512L10.6279 16.5489C10.6188 16.6961 10.7067 16.806 10.7067 16.806L10.2229 16.7132L9.93281 16.9136C9.88395 16.9478 9.88028 17.0113 9.90594 17.0699ZM14.0748 17.8029L13.9264 18.5793C13.8311 18.5927 13.7309 18.6 13.6283 18.6037L13.7847 17.8585C13.8311 17.6362 13.2374 17.5672 12.9436 17.1316C12.8 17.2929 12.5306 17.3412 12.2594 17.3412C12.0115 17.3412 11.7647 17.3014 11.6138 17.2715C11.5775 17.2652 11.5407 17.2617 11.5039 17.2611C11.4165 17.2611 11.3377 17.288 11.2827 17.3802L11.24 17.4535L10.43 17.2624L10.2285 17.5965C10.2004 17.6509 10.1979 17.6961 10.2437 17.7467L10.2987 17.8066C10.2608 17.9245 10.0923 18.1035 10.0923 18.1035L9.97192 17.9526C9.87663 17.8463 9.89251 17.6509 9.99147 17.47L10.3128 16.9264L10.9987 17.026L10.8924 16.7823C10.7489 16.4604 10.9676 16.0511 10.9908 15.8153C10.9828 15.8868 10.9175 15.9027 10.8417 15.9027C10.7721 15.9027 10.6951 15.8899 10.6438 15.8899C10.6237 15.8899 10.606 15.8917 10.5968 15.8984L10.4111 16.0114L10.2645 15.8819C10.2468 15.8575 10.2413 15.7982 10.284 15.7542L10.6237 15.3731L10.223 14.904L10.7837 15.1868L10.9553 14.9785C11.0024 15.0249 10.9816 15.1453 10.9816 15.1453C11.1569 15.1501 11.6486 15.422 11.6743 16.0572C11.6761 16.0768 11.6761 16.0981 11.6761 16.1195L11.6889 16.1403C11.7238 16.1885 11.8197 16.3113 11.9412 16.3223L12.7169 16.3993H12.72C12.8055 16.3993 12.9747 16.2991 13.1915 16.2991C13.3107 16.2991 13.442 16.3296 13.5825 16.4182C13.5825 16.4182 13.6533 16.362 13.7676 16.3559C13.7761 16.3547 13.7859 16.3547 13.7938 16.3547C14.142 16.3547 14.2867 16.6699 14.4737 16.9319C14.6142 17.131 14.8017 17.4267 14.8017 17.4267C14.7327 17.5091 14.6679 17.5549 14.5598 17.5549C14.5262 17.5551 14.4926 17.5518 14.4596 17.5452C14.087 17.4761 14.0327 16.7083 13.8201 16.6473C13.8089 16.6443 13.7974 16.6429 13.7859 16.643C13.7175 16.643 13.6875 16.7041 13.6875 16.7041C13.7853 16.9661 13.7279 17.0718 13.8329 17.274C13.9111 17.4236 14.0498 17.5464 14.1072 17.605C14.1072 17.605 14.0919 17.7187 14.0748 17.8036L14.0748 17.8029ZM13.3608 18.6092C13.2569 18.6092 13.1604 18.6104 13.0737 18.6141L13.3009 17.9049C13.3363 17.8066 13.1567 17.6801 13.0828 17.569C13.1946 17.6398 13.4847 17.795 13.6246 17.8561C13.534 18.1062 13.446 18.3572 13.3608 18.6092ZM9.9816 12.2188L10.014 10.9861L10.2901 10.6935L10.4635 11.0576L10.1215 12.2408L9.98098 12.2194L9.9816 12.2188ZM10.1801 12.6011C10.2221 12.6814 10.2855 12.7485 10.3634 12.7948C10.3612 12.9119 10.35 13.0287 10.3298 13.1442C10.3237 13.171 10.3176 13.1961 10.3096 13.2211C10.306 13.237 10.3011 13.2498 10.298 13.2602C10.2131 13.2602 10.0476 13.2498 9.91257 13.2004C9.76231 13.1454 9.53815 12.8693 9.59005 12.5651C9.6548 12.5254 9.80507 12.4405 9.94615 12.4405C10.0543 12.4405 10.1282 12.4918 10.1801 12.6011ZM13.3784 12.9322C13.1664 13.0892 12.6191 13.4893 12.4206 13.6285L10.51 13.284L10.5234 13.2333C10.5478 13.1338 10.5741 12.9982 10.5753 12.8387L12.1812 12.8644L12.2117 12.8338C12.2362 12.8094 12.745 12.3165 13.004 12.0337C13.0657 12.1113 13.1426 12.1846 13.244 12.2493C13.2098 12.4387 13.2238 12.7062 13.3784 12.9322ZM10.7806 10.0988C11.0109 10.3272 11.2351 10.4695 11.4489 10.5477C11.4214 10.6577 11.3847 10.8861 11.4874 11.1127C11.5716 11.296 11.7244 11.4365 11.9449 11.5305C11.9693 11.7565 12.1116 12.0967 12.5068 12.247C12.3333 12.4217 12.1647 12.5866 12.0976 12.6526L10.4948 12.6276C10.4418 12.6023 10.3979 12.5613 10.3689 12.5103C10.3659 12.5023 10.3604 12.4981 10.3567 12.4895L10.6188 12.5323L10.6353 12.5329C10.6599 12.5331 10.6838 12.5244 10.7026 12.5085C10.7214 12.4926 10.7339 12.4705 10.7379 12.4462C10.7423 12.4188 10.7357 12.3908 10.7196 12.3683C10.7035 12.3457 10.6791 12.3305 10.6518 12.3258L10.3299 12.2745L10.6866 11.04L10.3488 10.3272L9.80697 10.9014L9.77398 12.1847L9.40994 12.1267C9.35375 12.1157 9.29999 12.1572 9.28961 12.214C9.28555 12.2415 9.29241 12.2695 9.30874 12.292C9.32507 12.3145 9.34956 12.3297 9.37696 12.3344L9.52966 12.3576C9.47469 12.3887 9.43865 12.4138 9.43437 12.4168L9.40383 12.4388L9.39528 12.4767C9.30671 12.8371 9.50706 13.1791 9.7233 13.3318L9.71536 13.3777C9.70681 13.4326 9.71902 13.4876 9.75201 13.5322C9.77078 13.5593 9.79591 13.5814 9.8252 13.5965C9.85448 13.6116 9.88703 13.6193 9.91998 13.6189C9.96627 13.6186 10.0111 13.6025 10.0471 13.5735C10.0831 13.5444 10.1083 13.5041 10.1185 13.4589C10.1991 13.4681 10.273 13.4705 10.3231 13.4705H10.3665L12.4684 13.851L12.5044 13.8272C12.6718 13.7099 13.3107 13.2439 13.5196 13.0894C13.5776 13.1388 13.6417 13.184 13.7193 13.2213C13.6515 13.4491 13.6472 13.7991 13.9148 14.0764H8.55784V10.9796C8.55784 10.6791 8.47049 10.3773 8.36665 10.0988L10.7806 10.0988ZM10.4911 5.42597L11.8893 5.90059V8.10089L10.86 7.55724L10.4911 5.4254V5.42597ZM13.9018 5.16026C13.9018 4.62334 12.9996 4.14018 12.004 4.14018H11.9979C11.0022 4.14018 10.1007 4.62334 10.1007 5.16026L10.1202 5.2922L10.5179 7.57856L10.1184 7.81066L9.08554 8.41538H9.0892C9.0892 8.41538 8.8571 8.5351 8.74896 8.6084C8.3556 8.88206 8.27189 9.28152 8.50035 9.44645C8.55655 9.12088 8.8137 8.78065 9.29442 8.78065C9.64138 8.78065 9.90523 8.96023 10.119 9.22837C10.174 9.29617 10.2259 9.36886 10.2742 9.44644C10.334 9.54479 10.3945 9.63152 10.4537 9.71458H7.79182C7.98728 10.1086 8.17357 10.5258 8.17357 10.979V16.8808C8.17357 18.3089 9.26999 18.9906 10.4562 18.9906C11.373 18.9906 11.4964 18.949 12.0022 19.4536C12.5055 18.9491 12.6295 18.9906 13.547 18.9906C14.7338 18.9906 15.8285 18.3089 15.8285 16.8808V10.979C15.8285 10.5257 16.0148 10.1086 16.2115 9.71458H13.5482C13.6081 9.63151 13.6679 9.54477 13.7278 9.44644C13.7767 9.36887 13.8286 9.29618 13.8823 9.22837C14.0974 8.959 14.3612 8.78065 14.7082 8.78065C15.1889 8.78065 15.4454 9.12088 15.5022 9.44645C15.7307 9.28153 15.6482 8.88204 15.2518 8.6084C15.1467 8.5351 14.9134 8.41538 14.9134 8.41538H14.9177L13.8824 7.81066L13.4853 7.57856L13.8824 5.2922L13.9018 5.16026ZM3.06462 7.94923C3.27964 7.72749 3.50624 7.66032 3.70171 7.66032C4.00223 7.66032 4.23007 7.82097 4.23007 7.82097C3.41769 8.25466 3.25031 8.94976 2.7861 9.10676C2.7105 9.13297 2.63095 9.14599 2.55094 9.14525C2.20948 9.14525 1.87903 8.92412 1.76664 8.67185C1.76664 8.67185 2.3921 8.63336 3.06462 7.94923ZM2.55092 9.42376C2.6627 9.42376 2.77204 9.40665 2.87587 9.37122C3.16661 9.27472 3.35232 9.04321 3.54778 8.80132C3.74752 8.55517 3.97229 8.27601 4.362 8.06833L4.7627 7.8527L4.39009 7.59005C4.35955 7.57112 4.08041 7.38237 3.70171 7.38237C3.39142 7.38237 3.1031 7.50881 2.86551 7.75191C2.28707 8.3438 1.76848 8.39143 1.74954 8.39205L1.34638 8.41587L1.5113 8.78663C1.67867 9.15618 2.11603 9.42376 2.55092 9.42376ZM4.37299 12.6634C4.33023 11.6122 4.59898 10.7601 5.02046 10.0575C4.78591 10.7893 4.81767 11.6848 5.61907 12.5217C5.61907 12.5217 4.02605 10.6099 6.25248 8.65156C7.14307 7.90576 8.11733 7.4452 8.61833 7.119C6.80664 7.7115 5.92158 7.05914 5.92158 7.05914C6.50002 7.56183 7.2495 7.5539 7.71432 7.4806C7.5885 7.5423 7.45656 7.60643 7.31608 7.68279C5.7872 8.51411 4.41478 9.88308 4.17891 11.7777V11.7636C3.82405 13.6242 3.03364 14.1019 3.03364 14.1019C3.66278 13.7904 4.0586 12.9657 4.15509 12.6689C4.26015 14.3046 5.05666 15.4394 5.98754 16.5322C6.47131 17.0985 6.64112 17.6488 6.64112 17.6488C6.64112 17.6488 6.54706 17.0252 6.12741 16.5176C5.26007 15.4713 4.43422 14.169 4.37314 12.6632L4.37299 12.6634ZM11.4773 8.82917V9.20544C11.6068 9.04723 11.856 9.07961 11.856 9.07961V9.62141C11.856 9.62141 11.8481 9.88774 11.7534 10.0032H12.2946C12.2005 9.88773 12.1914 9.62141 12.1914 9.62141V9.07961C12.1914 9.07961 12.4418 9.04723 12.5701 9.20544V8.82917H11.4767H11.4773ZM11.2452 6.60106C11.4181 6.7385 11.5183 6.76171 11.5213 6.76354L11.5885 6.79469V6.44103L10.9533 6.17348C10.9533 6.17348 10.9588 6.37873 11.2452 6.60106ZM12.7564 6.60106C13.0435 6.37871 13.0496 6.17349 13.0496 6.17349L12.4137 6.44104V6.79532L12.4809 6.76355C12.484 6.76171 12.5835 6.7385 12.7564 6.60106ZM20.302 7.66083C20.4962 7.66083 20.7235 7.72741 20.9372 7.94914C21.6104 8.63325 22.2365 8.67175 22.2365 8.67175C22.1228 8.92402 21.793 9.14576 21.4515 9.14576C21.3727 9.14576 21.2927 9.13354 21.2152 9.10605C20.7515 8.94968 20.586 8.25395 19.773 7.82087C19.773 7.82087 19.999 7.66083 20.302 7.66083ZM19.6405 8.06764C20.0296 8.27533 20.2568 8.55446 20.4559 8.80125C20.6514 9.04252 20.8364 9.27464 21.1278 9.37115C21.2304 9.40658 21.3398 9.42368 21.4515 9.42368C21.887 9.42368 22.325 9.15613 22.4912 8.78598L22.6579 8.41582L22.2542 8.39139C22.2352 8.39139 21.7154 8.34314 21.1376 7.75187C20.8994 7.50876 20.6116 7.38171 20.302 7.38171C19.9232 7.38171 19.6423 7.57107 19.6117 7.59062L19.2404 7.85268L19.6405 8.06764ZM19.8231 11.7637V11.7778C19.5886 9.88299 18.2154 8.51465 16.6864 7.68289C16.5459 7.60715 16.4146 7.5424 16.2881 7.48132C16.753 7.55339 17.5024 7.56194 18.0815 7.05985C18.0815 7.05985 17.1958 7.7116 15.3836 7.1191C15.8845 7.44528 16.86 7.90584 17.7506 8.65105C19.9758 10.6106 18.384 12.5212 18.384 12.5212C19.1842 11.685 19.2172 10.7895 18.9814 10.0579C19.4028 10.7604 19.6716 11.6125 19.6301 12.6638C19.569 14.1695 18.7426 15.4716 17.8734 16.5182C17.4556 17.0252 17.3627 17.6494 17.3627 17.6494C17.3627 17.6494 17.5313 17.0991 18.0145 16.5328C18.9459 15.4395 19.7431 14.3052 19.8469 12.6695C19.9434 12.9669 20.3404 13.7915 20.9696 14.1025C20.9696 14.1025 20.1786 13.6248 19.8231 11.7642L19.8231 11.7637ZM7.71662 18.9322C5.39742 18.9322 5.45676 16.9403 5.45676 16.9403C5.45676 16.9403 5.29428 17.5304 4.64866 17.6837C4.56979 17.7036 4.48871 17.7132 4.40739 17.7124C4.1997 17.7124 4.0189 17.6636 4.0189 17.6636C4.0189 17.6636 4.35669 16.9477 4.02013 15.9465C3.74281 15.1158 3.78804 14.4995 3.78804 14.4995C3.78804 14.4995 3.47592 14.9729 2.70077 14.9778H2.69283C2.0484 14.9778 1.76681 14.4873 1.76681 14.4873C3.31218 13.8441 3.1607 11.7691 3.1607 11.7691C3.1607 11.7691 2.95913 11.9193 2.5682 11.934H2.52727C1.67455 11.934 1.38565 11.0202 1.38565 11.0202H1.40336C1.56096 11.0202 2.82596 10.9836 3.72081 9.84315C4.31025 9.09369 4.79402 8.43458 5.7462 8.17559L5.8421 8.15849L5.86226 8.06259C5.88914 7.91722 5.78896 7.77977 5.56298 7.63258C4.24666 6.76889 5.14031 5.66758 5.14031 5.66758C5.14031 5.66758 5.51412 6.54777 6.35768 6.54777L6.41876 6.54715C6.51405 6.54227 6.6075 6.53799 6.69974 6.51845L6.85488 6.48852C6.85488 6.48852 6.61423 5.83493 7.19451 5.23511C7.63062 4.78187 8.16021 4.70491 8.46624 4.70491C8.62199 4.70491 8.71789 4.72507 8.71789 4.72507C8.42837 5.1056 8.21824 5.73781 8.55297 6.12753C8.84371 6.46288 9.55165 6.47876 9.55165 6.97779C9.55165 7.18976 9.35435 7.43653 9.00069 7.65825C7.93482 8.33016 6.87754 9.22195 6.43752 10.4172C5.88902 11.9076 6.50838 12.8972 7.39223 13.4653C7.39223 13.4653 7.1143 13.7206 6.71239 13.7529C6.63361 13.7605 6.55453 13.7644 6.47539 13.7645C5.62755 13.7645 5.18901 13.3663 5.18901 13.3663C5.18901 13.3663 5.26231 13.9166 5.70087 14.4285C6.11014 14.9001 6.64459 15.178 7.46005 15.1896C7.46005 15.1896 7.48631 15.5683 7.12531 15.8969C6.89383 16.1046 6.36057 16.1718 6.36057 16.1718C6.36057 16.1718 7.36047 16.3746 7.47043 17.8528C7.53029 18.6542 7.73308 18.9321 7.73308 18.9321L7.71662 18.9322ZM7.96277 18.7734C7.96216 18.7704 7.80029 18.5169 7.74837 17.8328C7.68729 17.0131 7.37821 16.5342 7.07221 16.2593C7.16077 16.2178 7.24324 16.1658 7.31164 16.1035C7.76059 15.6992 7.74164 15.224 7.7386 15.1714L7.7215 14.9149L7.46435 14.9112C6.77901 14.9002 6.30074 14.695 5.91287 14.2442C5.82926 14.1466 5.75482 14.0415 5.69052 13.9302C5.90432 13.9956 6.16575 14.0439 6.47544 14.0439C6.5579 14.0439 6.64464 14.039 6.73565 14.0329C7.04741 14.0017 7.34219 13.876 7.58042 13.6725L7.84736 13.4263L7.54317 13.2309C6.86151 12.7941 6.16457 11.9665 6.70024 10.5146C7.04659 9.57088 7.84736 8.71634 9.14952 7.89645C9.58932 7.61852 9.82998 7.2905 9.82998 6.97777C9.82998 6.49461 9.42682 6.30404 9.1312 6.16782C8.98704 6.09879 8.83679 6.03038 8.76411 5.94547C8.53506 5.67975 8.72746 5.17095 8.94063 4.89483L9.21307 4.53751L8.77146 4.45017C8.75924 4.44833 8.64319 4.42696 8.46604 4.42696C8.1368 4.42696 7.50704 4.50698 6.99397 5.04022C6.56579 5.48368 6.50959 5.95586 6.53158 6.26065C6.49004 6.26431 6.44851 6.26614 6.40453 6.26798H6.35749C5.71248 6.26798 5.40829 5.58386 5.39668 5.55758L5.21527 5.13001L4.92207 5.49039C4.90558 5.51238 4.47617 6.04747 4.58122 6.71877C4.65024 7.16467 4.93 7.54948 5.41011 7.86589C5.46264 7.89949 5.49868 7.92819 5.52494 7.95202C4.61848 8.24703 4.11334 8.89389 3.57949 9.57376L3.50252 9.67027C2.68647 10.7105 1.53134 10.7416 1.39337 10.7416L1 10.7294L1.11972 11.1045C1.13377 11.1497 1.48192 12.2143 2.52705 12.2143L2.57714 12.2125C2.6877 12.2094 2.78727 12.1942 2.87522 12.1771C2.83246 12.7573 2.61868 13.8306 1.65846 14.2295L1.36526 14.3516L1.52408 14.6283C1.53874 14.6534 1.89546 15.2563 2.70297 15.2563C2.99199 15.2591 3.27741 15.1921 3.53491 15.0608C3.56606 15.3234 3.63081 15.66 3.75664 16.0369C4.04861 16.9079 3.7768 17.5194 3.76642 17.5438L3.62226 17.848L3.94783 17.9341C3.96981 17.9402 4.17018 17.9903 4.40715 17.9903C4.73324 17.9911 5.0488 17.875 5.29651 17.6629C5.38508 17.936 5.53717 18.2444 5.80043 18.5174C6.24876 18.9786 6.89319 19.2113 7.73489 19.2113L8.24492 19.2046L7.96277 18.7734ZM10.7633 15.4109C10.754 15.4102 10.7447 15.4113 10.7358 15.4142C10.727 15.4171 10.7188 15.4218 10.7118 15.428C10.7048 15.4341 10.6991 15.4416 10.695 15.45C10.691 15.4584 10.6887 15.4676 10.6882 15.4769C10.6875 15.4862 10.6886 15.4956 10.6916 15.5044C10.6946 15.5133 10.6993 15.5214 10.7055 15.5284C10.7118 15.5354 10.7193 15.541 10.7278 15.5449C10.7363 15.5489 10.7454 15.5511 10.7548 15.5514C10.7734 15.5526 10.7918 15.5464 10.806 15.5342C10.8202 15.522 10.829 15.5047 10.8305 15.486C10.8315 15.4672 10.825 15.4487 10.8124 15.4346C10.7998 15.4205 10.7822 15.412 10.7633 15.4109ZM13.9555 20.8533L13.6409 19.9859C14.0153 19.8717 14.6585 19.6262 14.9474 19.4631L14.755 20.094L15.4068 20.3109C15.0122 20.5088 14.5345 20.6939 13.9555 20.8527L13.9555 20.8533ZM12.0021 21.6321C11.2441 21.6321 10.3791 21.4574 10.1238 21.3664L10.5111 20.317C10.8324 20.411 11.5006 20.5106 11.9862 20.5075H12.0167C12.5017 20.5106 13.1694 20.4104 13.4925 20.317L13.8791 21.3664C13.6238 21.458 12.7589 21.6321 12.0021 21.6321ZM8.5962 20.3109L9.24856 20.094L9.05554 19.463C9.34322 19.6261 9.98826 19.8723 10.3615 19.9859L10.0469 20.8533C9.46969 20.6944 8.99018 20.5088 8.5962 20.3109ZM15.4362 20.1185L15.0392 19.9658L15.1491 19.5553L15.2694 19.1076C15.2694 19.1076 14.567 19.4899 13.5756 19.7764C13.2947 19.8571 13.0821 19.8943 13.0821 19.8943V20.1991C13.0821 20.1991 12.5519 20.2908 12.0168 20.2908H11.9863C11.45 20.2908 10.921 20.1991 10.921 20.1991V19.8937C10.921 19.8937 10.7079 19.8571 10.4269 19.7764C9.43676 19.4893 8.73429 19.1076 8.73429 19.1076L8.85279 19.5553L8.96518 19.9658L8.56693 20.1185L8.12532 20.2834C8.63108 20.5283 9.33229 20.8845 9.97365 21.0604L9.82278 21.4745C9.82278 21.4745 10.6364 21.8459 11.9919 21.8495V21.8501H12.0102V21.8495C13.3674 21.8459 14.181 21.4745 14.181 21.4745L14.0283 21.0604C14.6703 20.8844 15.3727 20.5289 15.876 20.2834L15.4362 20.1185ZM10.3449 3.40809L10.5251 3.42764L10.6027 3.26271L10.8299 2.7759L11.2514 2.99458L11.4151 3.07826L12.0002 2.49675L12.4565 2.94877L12.5872 3.07826L12.7509 2.99458L13.1699 2.7759L13.4008 3.26271L13.4772 3.42764L13.6574 3.40809L13.8296 3.38793C13.7508 3.56568 13.6928 3.7349 13.6506 3.87536C13.1956 3.62064 12.6043 3.4765 12.0008 3.4765C11.3998 3.4765 10.8085 3.62065 10.3516 3.87536C10.3023 3.70934 10.2428 3.54655 10.1733 3.38793L10.3443 3.40809H10.3449ZM12.0002 3.73C12.8083 3.73 13.454 3.99876 13.8113 4.28401C13.8113 4.28401 13.9176 3.64448 14.2792 3.08069L13.6287 3.15399L13.2885 2.43015L12.6349 2.76793L12.0002 2.14001L11.368 2.76793L10.7132 2.43015L10.3736 3.1546L9.72309 3.08008C10.0853 3.64449 10.191 4.2834 10.191 4.2834C10.5501 3.99813 11.1939 3.73 12.0002 3.73ZM22.2365 14.4871C22.2365 14.4871 21.9555 14.9775 21.3105 14.9775H21.3025C20.528 14.9727 20.2153 14.4993 20.2153 14.4993C20.2153 14.4993 20.2605 15.115 19.9819 15.9463C19.646 16.948 19.9844 17.6627 19.9844 17.6627C19.9844 17.6627 19.8036 17.7122 19.5953 17.7122C19.5159 17.7122 19.4328 17.7042 19.354 17.6835C18.7071 17.5302 18.5459 16.9401 18.5459 16.9401C18.5459 16.9401 18.6058 18.932 16.2865 18.932H16.2682C16.2682 18.932 16.4728 18.6541 16.5333 17.8527C16.6432 16.3745 17.6425 16.1711 17.6425 16.1711C17.6425 16.1711 17.1092 16.1039 16.8778 15.8968C16.5168 15.5688 16.5418 15.1895 16.5418 15.1895C17.3579 15.1779 17.893 14.9 18.3004 14.4278C18.5629 14.1257 18.7401 13.759 18.8135 13.3656C18.8135 13.3656 18.3749 13.7644 17.5265 13.7644C17.452 13.7644 17.3726 13.7608 17.2907 13.7528C16.8888 13.7205 16.6115 13.4645 16.6115 13.4645C17.4947 12.8971 18.1141 11.9069 17.565 10.4165C17.1252 9.22234 16.0672 8.32998 15.0027 7.65795C14.6484 7.43622 14.4505 7.18945 14.4505 6.9775C14.4505 6.47846 15.159 6.46258 15.4498 6.12723C15.7857 5.73752 15.575 5.10533 15.2843 4.72477C15.2843 4.72477 15.382 4.70462 15.5365 4.70462C15.8431 4.70462 16.3733 4.78158 16.8095 5.23482C17.3879 5.83466 17.1479 6.48822 17.1479 6.48822L17.303 6.51876C17.3959 6.5377 17.4881 6.54197 17.584 6.54686L17.6463 6.54747C18.4874 6.54747 18.8631 5.66668 18.8631 5.66668C18.8631 5.66668 19.7573 6.7686 18.441 7.63229C18.2144 7.7795 18.1142 7.91695 18.1405 8.0623L18.1612 8.1582L18.2547 8.17469C19.2088 8.43429 19.692 9.09399 20.2815 9.84286C21.1769 10.9833 22.4438 11.0199 22.5996 11.0199H22.6167C22.6167 11.0199 22.3278 11.9343 21.4757 11.9343C21.4616 11.9343 21.4494 11.9343 21.4353 11.9331C21.0444 11.9191 20.8428 11.7688 20.8428 11.7688C20.8428 11.7688 20.6908 13.8437 22.2367 14.487L22.2365 14.4871ZM21.4754 12.2141C22.5199 12.2141 22.8693 11.1494 22.8839 11.1042L23 10.7285L22.6091 10.7408H22.608C22.4693 10.7408 21.3173 10.7102 20.5006 9.67001L20.423 9.5735C19.8892 8.89365 19.3828 8.24679 18.4776 7.95176C18.5137 7.92008 18.5523 7.89129 18.593 7.86563C19.0731 7.54922 19.3529 7.16503 19.4225 6.71851C19.5257 6.0472 19.0975 5.51214 19.0792 5.49013L18.7885 5.12975L18.6064 5.55732C18.5942 5.58359 18.2888 6.26772 17.6462 6.26772H17.5986C17.5546 6.26588 17.5125 6.26405 17.4709 6.26039C17.4935 5.95497 17.4379 5.48342 17.0104 5.03996C16.4967 4.5067 15.8663 4.4267 15.5365 4.4267C15.3605 4.4267 15.2433 4.44869 15.2305 4.44991L14.7913 4.53725L15.0619 4.89457C15.2744 5.17067 15.4675 5.67949 15.239 5.94521C15.1657 6.03072 15.0154 6.09852 14.8719 6.16756C14.5763 6.30377 14.1719 6.49435 14.1719 6.97751C14.1719 7.29024 14.4144 7.61826 14.8542 7.89619C16.154 8.7153 16.9566 9.57045 17.303 10.5143C17.8393 11.9657 17.1399 12.7939 16.4601 13.2299L16.1559 13.426L16.4228 13.6716C16.4589 13.7033 16.7844 13.991 17.2664 14.0326C17.358 14.0387 17.4454 14.0436 17.5272 14.0436C17.8357 14.0436 18.0989 13.9947 18.3127 13.9299C18.2488 14.0415 18.1744 14.1466 18.0904 14.2439C17.7025 14.6947 17.2248 14.8999 16.5376 14.9109L16.2823 14.9146L16.2628 15.1711C16.2603 15.2231 16.2414 15.6989 16.6903 16.1032C16.7594 16.1655 16.8424 16.2175 16.9298 16.259C16.6244 16.5339 16.3153 17.0128 16.2554 17.8325C16.2047 18.5166 16.0416 18.7701 16.0398 18.7731L15.7576 19.2044L16.2676 19.2111C17.1099 19.2111 17.755 18.979 18.2015 18.5172C18.4327 18.2746 18.6053 17.9823 18.706 17.6627C18.9541 17.8742 19.2694 17.9902 19.5954 17.9901C19.8336 17.9901 20.0327 17.9394 20.0547 17.9345L20.3803 17.8477L20.2367 17.5435C20.2257 17.5191 19.9545 16.9083 20.2465 16.0367C20.3723 15.6598 20.4365 15.3226 20.4676 15.0593C20.6729 15.1668 20.9471 15.2548 21.302 15.256C22.1083 15.256 22.4632 14.6531 22.4791 14.6281L22.6379 14.3508L22.3435 14.2298C21.3833 13.8304 21.1707 12.7578 21.1279 12.1774C21.2153 12.1939 21.3142 12.2092 21.426 12.2123L21.4754 12.2141Z" fill="black"/>
</svg>
