<svg width="35" height="35" viewBox="0 0 35 35" fill="none" xmlns="http://www.w3.org/2000/svg">
<g clip-path="url(#clip0_1716_17014)">
<path d="M32 18.9999C32 27.8368 24.8367 34.9998 15.9999 34.9998C7.16351 34.9998 0 27.8368 0 18.9999C0 10.1633 7.16351 3 15.9999 3C24.8367 3 32 10.1633 32 18.9999Z" fill="#1BA27A"/>
<path d="M23.5092 11.0681H8.35889V14.7257H14.1053V20.1016H17.7628V14.7257H23.5092V11.0681Z" fill="white"/>
<path d="M15.9688 20.6742C11.2152 20.6742 7.36132 19.9219 7.36132 18.9938C7.36132 18.0658 11.2151 17.3133 15.9688 17.3133C20.7224 17.3133 24.5761 18.0658 24.5761 18.9938C24.5761 19.9219 20.7224 20.6742 15.9688 20.6742ZM25.6336 19.2739C25.6336 18.0771 21.3065 17.1071 15.9688 17.1071C10.6312 17.1071 6.30389 18.0771 6.30389 19.2739C6.30389 20.3279 9.65924 21.2059 14.1055 21.4005V29.1178H17.7627V21.4035C22.2432 21.215 25.6336 20.3333 25.6336 19.2739Z" fill="white"/>
</g>
<g clip-path="url(#clip1_1716_17014)">
<path d="M26.6667 16.3333C31.085 16.3333 34.6667 12.7516 34.6667 8.33334C34.6667 3.91507 31.085 0.333344 26.6667 0.333344C22.2484 0.333344 18.6667 3.91507 18.6667 8.33334C18.6667 12.7516 22.2484 16.3333 26.6667 16.3333Z" fill="#FF060A"/>
<path d="M31.9999 6.88022C31.5 6.41855 30.8083 5.71355 30.2449 5.21355L30.2116 5.19022C30.1562 5.1457 30.0936 5.11077 30.0267 5.08688C28.6682 4.83355 22.3467 3.65188 22.2233 3.66689C22.1888 3.67173 22.1558 3.68425 22.1267 3.70355L22.095 3.72856C22.056 3.76815 22.0264 3.816 22.0083 3.86855L22 3.89023V4.00855V4.0269C22.7117 6.00855 25.5217 12.5002 26.075 14.0235C26.1084 14.1269 26.1717 14.3236 26.29 14.3335H26.3167C26.38 14.3335 26.65 13.9769 26.65 13.9769C26.65 13.9769 31.4766 8.12356 31.965 7.50021C32.0282 7.42343 32.0841 7.34084 32.1316 7.25356C32.1439 7.18527 32.1382 7.11498 32.1151 7.04954C32.092 6.98413 32.0524 6.92578 31.9999 6.88022ZM27.8884 7.56188L29.9482 5.85355L31.1566 6.9669L27.8884 7.56188ZM27.0884 7.45022L23.5417 4.54356L29.2799 5.60189L27.0884 7.45022ZM27.4084 8.21189L31.0383 7.6269L26.8883 12.627L27.4084 8.21189ZM23.06 4.83355L26.7918 8.00022L26.2517 12.6301L23.06 4.83355Z" fill="white"/>
</g>
<defs>
<clipPath id="clip0_1716_17014">
<rect width="32" height="32" fill="white" transform="translate(0 3)"/>
</clipPath>
<clipPath id="clip1_1716_17014">
<rect width="16" height="16" fill="white" transform="translate(18.6667 0.333344)"/>
</clipPath>
</defs>
</svg>
