<svg width="25" height="24" viewBox="0 0 25 24" fill="none" xmlns="http://www.w3.org/2000/svg">
<path d="M22.2002 5.80021C21.4485 6.1263 20.6536 6.34187 19.8402 6.44021C20.6984 5.92753 21.3415 5.12099 21.6502 4.17021C20.8437 4.65027 19.961 4.98851 19.0402 5.17021C18.4247 4.50278 17.6052 4.05851 16.71 3.90706C15.8148 3.75562 14.8947 3.90557 14.094 4.3334C13.2932 4.76123 12.6571 5.44274 12.2854 6.27105C11.9137 7.09935 11.8275 8.0276 12.0402 8.91021C10.4096 8.82774 8.81464 8.40316 7.35885 7.66407C5.90306 6.92498 4.61904 5.8879 3.5902 4.62021C3.22933 5.25038 3.03971 5.96403 3.0402 6.69021C3.03892 7.36459 3.20441 8.02883 3.52195 8.62377C3.83949 9.21872 4.29921 9.72592 4.8602 10.1002C4.20817 10.0825 3.57008 9.90751 3.0002 9.59021V9.64021C3.00508 10.5851 3.33619 11.4993 3.93751 12.2282C4.53883 12.957 5.37345 13.4559 6.3002 13.6402C5.94345 13.7488 5.57307 13.806 5.2002 13.8102C4.94209 13.8072 4.68462 13.7838 4.4302 13.7402C4.69411 14.553 5.20482 15.2634 5.89127 15.7724C6.57772 16.2814 7.40577 16.5638 8.2602 16.5802C6.8174 17.7155 5.03608 18.3351 3.2002 18.3402C2.86593 18.3413 2.53193 18.3213 2.2002 18.2802C4.07462 19.4905 6.25901 20.1329 8.4902 20.1302C10.0299 20.1462 11.5573 19.8552 12.9833 19.2743C14.4093 18.6934 15.7052 17.8341 16.7954 16.7467C17.8856 15.6593 18.7482 14.3656 19.3328 12.9411C19.9173 11.5166 20.2122 9.98994 20.2002 8.45021C20.2002 8.28021 20.2002 8.10021 20.2002 7.92021C20.9849 7.33502 21.6617 6.61763 22.2002 5.80021Z" fill="#0066FF"/>
</svg>
