<svg width="26" height="26" viewBox="0 0 26 26" fill="none" xmlns="http://www.w3.org/2000/svg">
<g clip-path="url(#clip0_7352_172664)">
<path d="M24 13.9999C24 20.6276 18.6275 25.9998 12 25.9998C5.37263 25.9998 0 20.6276 0 13.9999C0 7.3725 5.37263 2 12 2C18.6275 2 24 7.3725 24 13.9999Z" fill="#1BA27A"/>
<path d="M17.6323 8.05109H6.26953V10.7943H10.5793V14.8263H13.3225V10.7943H17.6323V8.05109Z" fill="white"/>
<path d="M11.9762 15.2556C8.41105 15.2556 5.52061 14.6914 5.52061 13.9953C5.52061 13.2993 8.41092 12.7349 11.9762 12.7349C15.5414 12.7349 18.4317 13.2993 18.4317 13.9953C18.4317 14.6914 15.5414 15.2556 11.9762 15.2556ZM19.2248 14.2054C19.2248 13.3078 15.9795 12.5803 11.9762 12.5803C7.97304 12.5803 4.72754 13.3078 4.72754 14.2054C4.72754 14.9959 7.24405 15.6544 10.5787 15.8003V21.5883H13.3217V15.8026C16.682 15.6613 19.2248 14.9999 19.2248 14.2054Z" fill="white"/>
</g>
<g clip-path="url(#clip1_7352_172664)">
<path d="M20 12C23.3137 12 26 9.31371 26 6C26 2.68629 23.3137 0 20 0C16.6863 0 14 2.68629 14 6C14 9.31371 16.6863 12 20 12Z" fill="#FF060A"/>
<path d="M23.9999 4.91016C23.625 4.56391 23.1062 4.03517 22.6837 3.66016L22.6587 3.64266C22.6172 3.60927 22.5702 3.58307 22.52 3.56516C21.5012 3.37517 16.76 2.48891 16.6675 2.50017C16.6416 2.5038 16.6168 2.51319 16.595 2.52766L16.5713 2.54642C16.542 2.57611 16.5198 2.612 16.5063 2.65141L16.5 2.66768V2.75641V2.77018C17.0338 4.25641 19.1413 9.12517 19.5563 10.2676C19.5813 10.3452 19.6288 10.4927 19.7175 10.5002H19.7375C19.785 10.5002 19.9875 10.2327 19.9875 10.2327C19.9875 10.2327 23.6075 5.84267 23.9738 5.37516C24.0212 5.31757 24.0631 5.25563 24.0987 5.19017C24.1079 5.13895 24.1036 5.08624 24.0863 5.03716C24.069 4.9881 24.0393 4.94434 23.9999 4.91016ZM20.9163 5.42141L22.4612 4.14016L23.3675 4.97517L20.9163 5.42141ZM20.3163 5.33767L17.6563 3.15767L21.9599 3.95142L20.3163 5.33767ZM20.5563 5.90891L23.2788 5.47018L20.1662 9.22023L20.5563 5.90891ZM17.295 3.37517L20.0938 5.75016L19.6888 9.22258L17.295 3.37517Z" fill="white"/>
</g>
<defs>
<clipPath id="clip0_7352_172664">
<rect width="24" height="24" fill="white" transform="translate(0 2)"/>
</clipPath>
<clipPath id="clip1_7352_172664">
<rect width="12" height="12" fill="white" transform="translate(14)"/>
</clipPath>
</defs>
</svg>
