<svg width="26" height="26" viewBox="0 0 26 26" fill="none" xmlns="http://www.w3.org/2000/svg">
<g clip-path="url(#clip0_11329_16079)">
<path d="M24 13.9999C24 20.6276 18.6275 25.9998 12 25.9998C5.37263 25.9998 0 20.6276 0 13.9999C0 7.3725 5.37263 2 12 2C18.6275 2 24 7.3725 24 13.9999Z" fill="#1BA27A"/>
<path d="M17.6323 8.05106H6.26953V10.7942H10.5793V14.8262H13.3225V10.7942H17.6323V8.05106Z" fill="white"/>
<path d="M11.9772 15.2557C8.41203 15.2557 5.52158 14.6914 5.52158 13.9953C5.52158 13.2993 8.41189 12.735 11.9772 12.735C15.5424 12.735 18.4327 13.2993 18.4327 13.9953C18.4327 14.6914 15.5424 15.2557 11.9772 15.2557ZM19.2258 14.2054C19.2258 13.3079 15.9805 12.5803 11.9772 12.5803C7.97402 12.5803 4.72852 13.3079 4.72852 14.2054C4.72852 14.9959 7.24502 15.6544 10.5797 15.8004V21.5883H13.3226V15.8026C16.683 15.6613 19.2258 15 19.2258 14.2054Z" fill="white"/>
</g>
<path d="M19.9976 0C23.3129 0 26 2.68713 26 6.00236C26 9.31759 23.3129 12.0024 20 12.0024C16.6848 12.0024 14 9.31523 14 6.00236C13.9976 2.68713 16.6848 0 19.9976 0Z" fill="#8247E5"/>
<mask id="mask0_11329_16079" style="mask-type:luminance" maskUnits="userSpaceOnUse" x="16" y="2" width="8" height="8">
<path d="M23.8888 2.59503H16.0234V9.48759H23.8888V2.59503Z" fill="white"/>
</mask>
<g mask="url(#mask0_11329_16079)">
<path d="M21.964 4.6942C21.82 4.61155 21.6358 4.61155 21.4729 4.6942L20.3253 5.37424L19.5461 5.80636L18.4197 6.48404C18.2757 6.56669 18.0915 6.56669 17.9286 6.48404L17.0478 5.94803C16.9038 5.86539 16.8022 5.7001 16.8022 5.51592V4.4864C16.8022 4.32111 16.8849 4.15819 17.0478 4.05429L17.9286 3.53953C18.0726 3.45689 18.2568 3.45689 18.4197 3.53953L19.3005 4.07554C19.4445 4.15819 19.5461 4.32348 19.5461 4.50766V5.1877L20.3253 4.73434V4.0354C20.3253 3.87011 20.2426 3.70718 20.0797 3.60329L18.441 2.63516C18.2969 2.55252 18.1128 2.55252 17.9498 2.63516L16.271 3.62454C16.108 3.70718 16.0254 3.87247 16.0254 4.0354V5.96928C16.0254 6.13457 16.108 6.2975 16.271 6.4014L17.9309 7.36952C18.075 7.45217 18.2592 7.45217 18.4221 7.36952L19.5484 6.71072L20.3276 6.25736L21.454 5.59856C21.598 5.51592 21.7822 5.51592 21.9451 5.59856L22.8259 6.11332C22.9699 6.19597 23.0714 6.36126 23.0714 6.54544V7.57495C23.0714 7.74024 22.9888 7.90317 22.8259 8.00706L21.9664 8.52182C21.8223 8.60447 21.6381 8.60447 21.4752 8.52182L20.5921 8.00706C20.4481 7.92442 20.3465 7.75913 20.3465 7.57495V6.91616L19.5673 7.36952V8.04957C19.5673 8.21486 19.6499 8.37778 19.8129 8.48168L21.4729 9.4498C21.6169 9.53245 21.8011 9.53245 21.964 9.4498L23.624 8.48168C23.768 8.39904 23.8695 8.23375 23.8695 8.04957V6.09443C23.8695 5.92914 23.7869 5.76622 23.624 5.66232L21.964 4.6942Z" fill="white"/>
</g>
<defs>
<clipPath id="clip0_11329_16079">
<rect width="24" height="24" fill="white" transform="translate(0 2)"/>
</clipPath>
</defs>
</svg>
