<svg width="26" height="26" viewBox="0 0 26 26" fill="none" xmlns="http://www.w3.org/2000/svg">
<g clip-path="url(#clip0_7579_97061)">
<path d="M24 13.9999C24 20.6276 18.6275 25.9998 12 25.9998C5.37263 25.9998 0 20.6276 0 13.9999C0 7.3725 5.37263 2 12 2C18.6275 2 24 7.3725 24 13.9999Z" fill="#1BA27A"/>
<path d="M17.6323 8.05106H6.26953V10.7942H10.5793V14.8262H13.3225V10.7942H17.6323V8.05106Z" fill="white"/>
<path d="M11.9762 15.2557C8.41105 15.2557 5.52061 14.6914 5.52061 13.9953C5.52061 13.2993 8.41092 12.735 11.9762 12.735C15.5414 12.735 18.4317 13.2993 18.4317 13.9953C18.4317 14.6914 15.5414 15.2557 11.9762 15.2557ZM19.2248 14.2054C19.2248 13.3079 15.9795 12.5803 11.9762 12.5803C7.97304 12.5803 4.72754 13.3079 4.72754 14.2054C4.72754 14.9959 7.24405 15.6544 10.5787 15.8004V21.5883H13.3217V15.8026C16.682 15.6613 19.2248 15 19.2248 14.2054Z" fill="white"/>
</g>
<rect x="14" width="12" height="12" rx="6" fill="#627EEA"/>
<g clip-path="url(#clip1_7579_97061)">
<path d="M20.0009 2.00006L19.9473 2.18237V7.47209L20.0009 7.52564L22.4563 6.07424L20.0009 2.00006Z" fill="#C0CCF7"/>
<path d="M20.0004 2.00006L17.5449 6.07424L20.0004 7.52564V4.95816V2.00006Z" fill="white"/>
<path d="M20.001 7.99056L19.9707 8.02745V9.91173L20.001 10L22.4578 6.53992L20.001 7.99056Z" fill="white"/>
<path d="M20.0004 10V7.99053L17.5449 6.53989L20.0004 10Z" fill="white"/>
<path d="M20 7.52568L22.4554 6.07428L20 4.95819V7.52568Z" fill="#8198EE"/>
<path d="M17.5449 6.07425L20.0004 7.52565V4.95816L17.5449 6.07425Z" fill="#C0CCF7"/>
</g>
<defs>
<clipPath id="clip0_7579_97061">
<rect width="24" height="24" fill="white" transform="translate(0 2)"/>
</clipPath>
<clipPath id="clip1_7579_97061">
<rect width="4.91233" height="8" fill="white" transform="translate(17.5439 2)"/>
</clipPath>
</defs>
</svg>
