<svg width="26" height="26" viewBox="0 0 26 26" fill="none" xmlns="http://www.w3.org/2000/svg">
<g clip-path="url(#clip0_7500_50607)">
<path d="M24 14C24 20.6276 18.6275 25.9999 12 25.9999C5.37263 25.9999 0 20.6276 0 14C0 7.37251 5.37263 2.00002 12 2.00002C18.6275 2.00002 24 7.37251 24 14Z" fill="#1BA27A"/>
<path d="M17.6319 8.05107H6.26917V10.7943H10.5789V14.8262H13.3221V10.7943H17.6319V8.05107Z" fill="white"/>
<path d="M11.9766 15.2557C8.41142 15.2557 5.52097 14.6915 5.52097 13.9953C5.52097 13.2993 8.41128 12.735 11.9766 12.735C15.5418 12.735 18.4321 13.2993 18.4321 13.9953C18.4321 14.6915 15.5418 15.2557 11.9766 15.2557ZM19.2252 14.2054C19.2252 13.3079 15.9799 12.5803 11.9766 12.5803C7.97341 12.5803 4.72791 13.3079 4.72791 14.2054C4.72791 14.9959 7.24441 15.6544 10.5791 15.8004V21.5883H13.322V15.8026C16.6824 15.6613 19.2252 15 19.2252 14.2054Z" fill="white"/>
</g>
<path d="M19.9976 0C23.3129 0 26 2.68713 26 6.00236C26 9.31759 23.3129 12.0024 20 12.0024C16.6848 12.0024 14 9.31523 14 6.00236C13.9976 2.68713 16.6848 0 19.9976 0Z" fill="#8247E5"/>
<mask id="mask0_7500_50607" style="mask-type:luminance" maskUnits="userSpaceOnUse" x="16" y="2" width="8" height="8">
<path d="M23.889 2.59504H16.0236V9.4876H23.889V2.59504Z" fill="white"/>
</mask>
<g mask="url(#mask0_7500_50607)">
<path d="M21.9646 4.69421C21.8206 4.61157 21.6364 4.61157 21.4735 4.69421L20.3259 5.37426L19.5467 5.80637L18.4203 6.48406C18.2763 6.5667 18.0921 6.5667 17.9292 6.48406L17.0484 5.94805C16.9044 5.8654 16.8029 5.70011 16.8029 5.51593V4.48642C16.8029 4.32113 16.8855 4.1582 17.0484 4.05431L17.9292 3.53955C18.0732 3.4569 18.2574 3.4569 18.4203 3.53955L19.3011 4.07556C19.4451 4.1582 19.5467 4.32349 19.5467 4.50767V5.18772L20.3259 4.73435V4.03542C20.3259 3.87013 20.2432 3.7072 20.0803 3.6033L18.4416 2.63518C18.2975 2.55254 18.1134 2.55254 17.9504 2.63518L16.2716 3.62455C16.1086 3.7072 16.026 3.87249 16.026 4.03542V5.9693C16.026 6.13459 16.1086 6.29752 16.2716 6.40141L17.9315 7.36954C18.0756 7.45218 18.2598 7.45218 18.4227 7.36954L19.549 6.71074L20.3282 6.25738L21.4546 5.59858C21.5986 5.51593 21.7828 5.51593 21.9457 5.59858L22.8265 6.11334C22.9705 6.19598 23.072 6.36127 23.072 6.54545V7.57497C23.072 7.74026 22.9894 7.90318 22.8265 8.00708L21.967 8.52184C21.8229 8.60448 21.6388 8.60448 21.4758 8.52184L20.5927 8.00708C20.4487 7.92444 20.3471 7.75915 20.3471 7.57497V6.91617L19.5679 7.36954V8.04958C19.5679 8.21487 19.6506 8.3778 19.8135 8.4817L21.4735 9.44982C21.6175 9.53246 21.8017 9.53246 21.9646 9.44982L23.6246 8.4817C23.7686 8.39905 23.8702 8.23376 23.8702 8.04958V6.09445C23.8702 5.92916 23.7875 5.76623 23.6246 5.66233L21.9646 4.69421Z" fill="white"/>
</g>
<defs>
<clipPath id="clip0_7500_50607">
<rect width="24" height="24" fill="white" transform="translate(0 2)"/>
</clipPath>
</defs>
</svg>
