<svg width="24" height="24" viewBox="0 0 24 24" fill="none" xmlns="http://www.w3.org/2000/svg">
<g clip-path="url(#clip0_7352_172578)">
<path d="M24 11.9999C24 18.6276 18.6275 23.9998 12 23.9998C5.37263 23.9998 0 18.6276 0 11.9999C0 5.3725 5.37263 0 12 0C18.6275 0 24 5.3725 24 11.9999Z" fill="#1BA27A"/>
<path d="M17.6318 6.05109H6.26904V8.79426H10.5788V12.8263H13.322V8.79426H17.6318V6.05109Z" fill="white"/>
<path d="M11.9767 13.2556C8.41154 13.2556 5.5211 12.6914 5.5211 11.9953C5.5211 11.2993 8.41141 10.7349 11.9767 10.7349C15.5419 10.7349 18.4322 11.2993 18.4322 11.9953C18.4322 12.6914 15.5419 13.2556 11.9767 13.2556ZM19.2253 12.2054C19.2253 11.3078 15.98 10.5803 11.9767 10.5803C7.97353 10.5803 4.72803 11.3078 4.72803 12.2054C4.72803 12.9959 7.24454 13.6544 10.5792 13.8003V19.5883H13.3221V13.8026C16.6825 13.6613 19.2253 12.9999 19.2253 12.2054Z" fill="white"/>
</g>
<defs>
<clipPath id="clip0_7352_172578">
<rect width="24" height="24" fill="white"/>
</clipPath>
</defs>
</svg>
