<svg width="18" height="18" viewBox="0 0 18 18" fill="none" xmlns="http://www.w3.org/2000/svg">
<g clip-path="url(#clip0_6502_55773)">
<path d="M18 8.99996C18 13.9707 13.9706 17.9999 8.99997 17.9999C4.02947 17.9999 0 13.9707 0 8.99996C0 4.02937 4.02947 0 8.99997 0C13.9706 0 18 4.02937 18 8.99996Z" fill="#1BA27A"/>
<path d="M13.2252 4.53833H4.70312V6.59571H7.93546V9.61971H9.99284V6.59571H13.2252V4.53833Z" fill="white"/>
<path d="M8.98339 9.94184C6.30951 9.94184 4.14168 9.51867 4.14168 8.99658C4.14168 8.47458 6.30941 8.05132 8.98339 8.05132C11.6573 8.05132 13.825 8.47458 13.825 8.99658C13.825 9.51867 11.6573 9.94184 8.98339 9.94184ZM14.4198 9.15417C14.4198 8.48097 11.9859 7.9353 8.98339 7.9353C5.981 7.9353 3.54688 8.48097 3.54688 9.15417C3.54688 9.747 5.43426 10.2409 7.93525 10.3504V14.6913H9.99246V10.3521C12.5127 10.246 14.4198 9.75006 14.4198 9.15417Z" fill="white"/>
</g>
<defs>
<clipPath id="clip0_6502_55773">
<rect width="18" height="18" fill="white"/>
</clipPath>
</defs>
</svg>
