<svg width="63" height="20" viewBox="0 0 63 20" fill="none" xmlns="http://www.w3.org/2000/svg">
<g clip-path="url(#clip0_6383_78604)">
<path d="M40.6613 0.03125C36.2919 0.03125 32.3873 2.29597 32.3873 6.48021C32.3873 11.2787 39.3123 11.6102 39.3123 14.0208C39.3123 15.0359 38.1491 15.9445 36.1624 15.9445C33.3428 15.9445 31.2355 14.6749 31.2355 14.6749L30.3338 18.8972C30.3338 18.8972 32.7614 19.9697 35.9845 19.9697C40.7615 19.9697 44.5205 17.5937 44.5205 13.3379C44.5205 8.26743 37.5666 7.94584 37.5666 5.70836C37.5666 4.91323 38.5215 4.04201 40.5026 4.04201C42.7378 4.04201 44.5614 4.96535 44.5614 4.96535L45.4439 0.887265C45.4439 0.887265 43.4596 0.03125 40.6613 0.03125ZM0.685878 0.339031L0.580078 0.954592C0.580078 0.954592 2.41827 1.29101 4.07387 1.96209C6.20558 2.73162 6.35744 3.1796 6.71645 4.57101L10.6286 19.6523H15.8729L23.9522 0.339031H18.7199L13.5285 13.4702L11.4101 2.3396C11.2158 1.06572 10.2318 0.339031 9.02721 0.339031H0.685878ZM26.0561 0.339031L21.9516 19.6523H26.941L31.0311 0.339031H26.0561ZM53.8838 0.339031C52.6807 0.339031 52.0432 0.983163 51.5755 2.10877L44.2657 19.6523H49.4979L50.5102 16.7283H56.8847L57.5002 19.6523H62.1169L58.0893 0.339031H53.8838ZM54.5643 5.55687L56.1152 12.8041H51.9602L54.5643 5.55687Z" fill="white"/>
</g>
<defs>
<clipPath id="clip0_6383_78604">
<rect width="61.5985" height="20" fill="white" transform="translate(0.549316 0.000488281)"/>
</clipPath>
</defs>
</svg>
