<svg width="48" height="15" viewBox="0 0 48 15" fill="none" xmlns="http://www.w3.org/2000/svg">
<g clip-path="url(#clip0_3212_1968)">
<path d="M30.9657 0.0234375C27.6887 0.0234375 24.7602 1.72198 24.7602 4.86016C24.7602 8.45906 29.954 8.70764 29.954 10.5156C29.954 11.2769 29.0816 11.9583 27.5915 11.9583C25.4769 11.9583 23.8963 11.0061 23.8963 11.0061L23.2201 14.1729C23.2201 14.1729 25.0408 14.9772 27.4581 14.9772C31.0409 14.9772 33.8601 13.1953 33.8601 10.0035C33.8601 6.20057 28.6447 5.95938 28.6447 4.28127C28.6447 3.68492 29.3609 3.03151 30.8467 3.03151C32.5231 3.03151 33.8908 3.72402 33.8908 3.72402L34.5526 0.665448C34.5526 0.665448 33.0644 0.0234375 30.9657 0.0234375ZM0.984135 0.254273L0.904785 0.715944C0.904785 0.715944 2.28343 0.968258 3.52513 1.47157C5.12391 2.04872 5.2378 2.3847 5.50707 3.42826L8.4412 14.7392H12.3744L18.4338 0.254273H14.5096L10.6161 10.1026L9.0273 1.7547C8.8816 0.799287 8.14355 0.254273 7.24013 0.254273H0.984135ZM20.0118 0.254273L16.9334 14.7392H20.6755L23.7431 0.254273H20.0118ZM40.8826 0.254273C39.9802 0.254273 39.5021 0.737372 39.1513 1.58158L33.669 14.7392H37.5932L38.3524 12.5463H43.1332L43.5949 14.7392H47.0574L44.0367 0.254273H40.8826ZM41.3929 4.16765L42.5561 9.6031H39.4399L41.3929 4.16765Z" fill="#1434CB"/>
</g>
<defs>
<clipPath id="clip0_3212_1968">
<rect width="46.1988" height="15" fill="white" transform="translate(0.881348)"/>
</clipPath>
</defs>
</svg>
