<svg width="51" height="10" viewBox="0 0 51 10" fill="none" xmlns="http://www.w3.org/2000/svg">
<path d="M10.2988 1.07031H5.92383V8.93231H10.2988V1.07031Z" fill="#FF5F00"/>
<path d="M6.20163 5C6.20094 4.24283 6.37252 3.49543 6.70338 2.81438C7.03424 2.13333 7.51571 1.53647 8.11134 1.069C7.37374 0.489229 6.4879 0.128678 5.55507 0.0285564C4.62224 -0.0715648 3.68006 0.0927809 2.83623 0.502816C1.99239 0.912852 1.28093 1.55203 0.783186 2.34729C0.285439 3.14256 0.0214844 4.06181 0.0214844 5C0.0214844 5.93819 0.285439 6.85744 0.783186 7.65271C1.28093 8.44797 1.99239 9.08715 2.83623 9.49718C3.68006 9.90722 4.62224 10.0716 5.55507 9.97144C6.4879 9.87132 7.37374 9.51077 8.11134 8.931C7.51571 8.46352 7.03425 7.86667 6.70339 7.18562C6.37253 6.50457 6.20095 5.75717 6.20163 5Z" fill="#EB001B"/>
<path d="M16.2009 5C16.201 5.93817 15.937 6.85743 15.4393 7.65269C14.9416 8.44795 14.2302 9.08713 13.3864 9.49717C12.5425 9.90721 11.6004 10.0716 10.6676 9.97144C9.73474 9.87132 8.84891 9.51077 8.11133 8.931C8.70643 8.46305 9.18753 7.86611 9.51833 7.18516C9.84914 6.50421 10.021 5.75705 10.021 5C10.021 4.24295 9.84914 3.49579 9.51833 2.81484C9.18753 2.13389 8.70643 1.53694 8.11133 1.069C8.84891 0.489227 9.73474 0.128675 10.6676 0.0285551C11.6004 -0.0715649 12.5425 0.092788 13.3864 0.502828C14.2302 0.912868 14.9416 1.55205 15.4393 2.34731C15.937 3.14257 16.201 4.06183 16.2009 5Z" fill="#F79E1B"/>
<path d="M15.7234 8.09837V7.93741H15.7883V7.90461H15.623V7.93741H15.688V8.09837H15.7234ZM16.0443 8.09837V7.9043H15.9937L15.9354 8.03778L15.8771 7.9043H15.8264V8.09837H15.8622V7.95198L15.9168 8.07819H15.9539L16.0086 7.95166V8.09837H16.0443Z" fill="#F79E1B"/>
<g clip-path="url(#clip0_9745_36463)">
<path d="M40.2574 0.015625C38.0727 0.015625 36.1204 1.14798 36.1204 3.24011C36.1204 5.63937 39.5829 5.80509 39.5829 7.01042C39.5829 7.51793 39.0013 7.97223 38.008 7.97223C36.5982 7.97223 35.5445 7.33743 35.5445 7.33743L35.0937 9.44861C35.0937 9.44861 36.3075 9.98483 37.919 9.98483C40.3075 9.98483 42.187 8.79687 42.187 6.66897C42.187 4.13371 38.7101 3.97292 38.7101 2.85418C38.7101 2.45662 39.1875 2.02101 40.178 2.02101C41.2956 2.02101 42.2075 2.48268 42.2075 2.48268L42.6487 0.443632C42.6487 0.443632 41.6566 0.015625 40.2574 0.015625ZM20.2697 0.169515L20.2168 0.477296C20.2168 0.477296 21.1359 0.645505 21.9637 0.981046C23.0295 1.36581 23.1055 1.5898 23.285 2.28551L25.2411 9.82613H27.8632L31.9028 0.169515H29.2867L26.691 6.7351L25.6318 1.1698C25.5347 0.532858 25.0426 0.169515 24.4404 0.169515H20.2697ZM32.9548 0.169515L30.9025 9.82613H33.3973L35.4423 0.169515H32.9548ZM46.8687 0.169515C46.2671 0.169515 45.9484 0.491581 45.7145 1.05438L42.0596 9.82613H44.6757L45.1819 8.36417H48.3691L48.6769 9.82613H50.9852L48.9714 0.169515H46.8687ZM47.2089 2.77844L47.9844 6.40207H45.9068L47.2089 2.77844Z" fill="#1434CB"/>
</g>
<defs>
<clipPath id="clip0_9745_36463">
<rect width="30.7992" height="10" fill="white" transform="translate(20.2012)"/>
</clipPath>
</defs>
</svg>
