<svg width="25" height="24" viewBox="0 0 25 24" fill="none" xmlns="http://www.w3.org/2000/svg">
<path d="M15.6725 2H9.53711C3.93292 2 2.59961 3.33331 2.59961 8.92706V15.0625C2.59961 20.6666 3.92255 22 9.52667 22H15.6621C21.2663 22 22.5996 20.6771 22.5996 15.0729V8.9375C22.5996 3.33331 21.2767 2 15.6725 2ZM18.7454 16.2708H17.2871C16.735 16.2708 16.5684 15.8229 15.5788 14.8333C14.7142 14 14.3496 13.8958 14.1309 13.8958C13.8288 13.8958 13.7454 13.9791 13.7454 14.3958V15.7083C13.7454 16.0625 13.6309 16.2708 12.7038 16.2708C11.8042 16.2104 10.9318 15.9371 10.1585 15.4735C9.38518 15.0098 8.73307 14.3691 8.25586 13.6041C7.12297 12.194 6.33472 10.5391 5.9538 8.77081C5.9538 8.55206 6.03711 8.35413 6.4538 8.35413H7.91211C8.28711 8.35413 8.42255 8.52081 8.56836 8.90625C9.27667 10.9896 10.485 12.8021 10.9746 12.8021C11.1621 12.8021 11.2454 12.7188 11.2454 12.25V10.1041C11.1829 9.125 10.6621 9.04163 10.6621 8.6875C10.669 8.59407 10.712 8.50699 10.782 8.44475C10.852 8.3825 10.9435 8.35 11.0371 8.35413H13.3288C13.6413 8.35413 13.7454 8.51038 13.7454 8.88538V11.7812C13.7454 12.0938 13.8809 12.1979 13.9746 12.1979C14.1621 12.1979 14.3079 12.0938 14.6517 11.75C15.3904 10.8492 15.9939 9.84559 16.4434 8.77081C16.4892 8.64149 16.5762 8.53074 16.6909 8.4555C16.8057 8.38025 16.9419 8.34465 17.0788 8.35413H18.5371C18.9746 8.35413 19.0684 8.57288 18.9746 8.88538C18.444 10.0737 17.7875 11.2017 17.0163 12.25C16.8601 12.4896 16.7976 12.6146 17.0163 12.8958C17.1621 13.1146 17.6726 13.5416 18.0163 13.9479C18.5163 14.4466 18.9315 15.0237 19.2454 15.6562C19.3704 16.0625 19.1621 16.2708 18.7454 16.2708Z" fill="#0066FF"/>
</svg>
