<svg width="19" height="18" viewBox="0 0 19 18" fill="none" xmlns="http://www.w3.org/2000/svg">
<path d="M9.50384 17.9928C14.4684 17.9928 18.493 13.9682 18.493 9.00359C18.493 4.039 14.4684 0.0144043 9.50384 0.0144043C4.53924 0.0144043 0.514648 4.039 0.514648 9.00359C0.514648 13.9682 4.53924 17.9928 9.50384 17.9928Z" fill="#0066FF" stroke="#66B1FF" stroke-width="0.0288346" stroke-miterlimit="22.9256"/>
<path d="M6.00771 6.70403C7.93242 4.82257 11.061 4.82257 12.9929 6.70403L13.2236 6.9275C13.3173 7.02121 13.3173 7.17259 13.2236 7.26631L12.4306 8.03763C12.3802 8.08809 12.3009 8.08809 12.2576 8.03763L11.9404 7.72766C10.5924 6.41569 8.4154 6.41569 7.06738 7.72766L6.72857 8.05926C6.67811 8.10972 6.59882 8.10972 6.55556 8.05926L5.76261 7.28793C5.6689 7.19422 5.6689 7.04284 5.76261 6.94913L6.01492 6.70403H6.00771ZM14.6293 8.30435L15.3357 8.99638C15.4294 9.0901 15.4294 9.24148 15.3357 9.33519L12.1495 12.4421C12.0558 12.5358 11.8972 12.5358 11.8035 12.4421L9.53995 10.2363C9.51832 10.2146 9.47507 10.2146 9.45344 10.2363L7.18993 12.4421C7.09621 12.5358 6.93762 12.5358 6.84391 12.4421L3.65769 9.33519C3.56397 9.24148 3.56397 9.0901 3.65769 8.99638L4.36413 8.30435C4.45785 8.21064 4.61644 8.21064 4.71015 8.30435L6.97367 10.5102C6.99529 10.5318 7.03854 10.5318 7.06017 10.5102L9.32369 8.30435C9.4174 8.21064 9.57599 8.21064 9.6697 8.30435L11.9332 10.5102C11.9548 10.5318 11.9981 10.5318 12.0197 10.5102L14.2832 8.30435C14.3769 8.21064 14.5355 8.21064 14.6293 8.30435Z" fill="white"/>
</svg>
