<svg width="18" height="18" viewBox="0 0 18 18" fill="none" xmlns="http://www.w3.org/2000/svg">
<g clip-path="url(#clip0_7498_450)">
<g filter="url(#filter0_f_7498_450)">
<path d="M5.6022 14.1958L5.8318 14.3315C6.79613 14.9027 7.90181 15.2049 9.02938 15.2054H9.03175C12.4945 15.2054 15.3126 12.3933 15.314 8.93703C15.3146 7.26214 14.6618 5.68712 13.4757 4.50234C12.8939 3.91804 12.2018 3.45472 11.4394 3.13919C10.677 2.82365 9.85953 2.66218 9.03421 2.66412C5.56881 2.66412 2.75061 5.4759 2.74937 8.93201C2.74767 10.1122 3.08064 11.2687 3.7098 12.2679L3.85927 12.505L3.2245 14.818L5.6022 14.1958ZM1.40967 16.6098L2.48207 12.7019C1.82069 11.5582 1.47274 10.2607 1.47316 8.93149C1.4749 4.77313 4.86541 1.39014 9.03185 1.39014C11.0537 1.39116 12.9514 2.17647 14.3787 3.60199C15.8059 5.02752 16.5912 6.92234 16.5904 8.93754C16.5886 13.0956 13.1976 16.4792 9.03175 16.4792H9.02846C7.76354 16.4787 6.5206 16.162 5.41656 15.5611L1.40967 16.6098Z" fill="#0066FF"/>
</g>
<path d="M1.33203 16.5323L2.40443 12.6243C1.74192 11.4779 1.39392 10.1774 1.39552 8.85398C1.39727 4.69562 4.78778 1.31262 8.95421 1.31262C10.976 1.31365 12.8738 2.09895 14.301 3.52448C15.7283 4.95001 16.5135 6.84483 16.5128 8.86003C16.511 13.0181 13.1199 16.4017 8.95411 16.4017H8.95082C7.6859 16.4012 6.44297 16.0845 5.33893 15.4836L1.33203 16.5323Z" fill="white"/>
<path d="M8.95623 2.58663C5.49083 2.58663 2.67263 5.39841 2.67139 8.85451C2.66969 10.0347 3.00266 11.1912 3.63182 12.1904L3.78129 12.4276L3.14652 14.7406L5.52432 14.1183L5.75392 14.254C6.71825 14.8253 7.82394 15.1273 8.9515 15.1279H8.95387C12.4166 15.1279 15.2348 12.3158 15.2361 8.85954C15.2388 8.03574 15.0776 7.21961 14.7621 6.45839C14.4465 5.69717 13.9828 5.00598 13.3978 4.42485C12.816 3.84054 12.1239 3.37721 11.3615 3.06167C10.5991 2.74614 9.78157 2.58468 8.95623 2.58663Z" fill="url(#paint0_linear_7498_450)"/>
<path fill-rule="evenodd" clip-rule="evenodd" d="M7.06495 5.70118C6.92339 5.38732 6.77443 5.38097 6.63996 5.37553L6.27794 5.37112C6.15199 5.37112 5.94735 5.41829 5.77435 5.60695C5.60135 5.79561 5.11328 6.25158 5.11328 7.179C5.11328 8.10642 5.79007 9.00256 5.88438 9.12847C5.97868 9.25438 7.1909 11.2182 9.11062 11.9738C10.7059 12.6017 11.0305 12.4768 11.377 12.4454C11.7234 12.4141 12.4944 11.9895 12.6516 11.5493C12.8089 11.1091 12.809 10.732 12.7619 10.6531C12.7147 10.5743 12.5888 10.5274 12.3997 10.4331C12.2107 10.3388 11.2823 9.88281 11.1092 9.81986C10.9361 9.7569 10.8103 9.72563 10.6842 9.91429C10.5582 10.103 10.1967 10.5273 10.0865 10.6531C9.97623 10.779 9.8662 10.7947 9.67718 10.7005C9.48816 10.6063 8.87999 10.4072 8.15841 9.765C7.59699 9.26536 7.21802 8.64831 7.10769 8.45975C6.99736 8.27119 7.09598 8.16906 7.19069 8.07514C7.27545 7.99066 7.37951 7.855 7.47413 7.74499C7.56874 7.63497 7.59987 7.55632 7.66274 7.43072C7.72561 7.30512 7.69428 7.19479 7.64702 7.10056C7.59977 7.00633 7.23281 6.07399 7.06495 5.70118Z" fill="white"/>
</g>
<defs>
<filter id="filter0_f_7498_450" x="0.442359" y="0.422828" width="17.1153" height="17.1543" filterUnits="userSpaceOnUse" color-interpolation-filters="sRGB">
<feFlood flood-opacity="0" result="BackgroundImageFix"/>
<feBlend mode="normal" in="SourceGraphic" in2="BackgroundImageFix" result="shape"/>
<feGaussianBlur stdDeviation="0.483654" result="effect1_foregroundBlur_7498_450"/>
</filter>
<linearGradient id="paint0_linear_7498_450" x1="8.82586" y1="3.33922" x2="8.88931" y2="14.0566" gradientUnits="userSpaceOnUse">
<stop stop-color="#57D163"/>
<stop offset="1" stop-color="#23B33A"/>
</linearGradient>
<clipPath id="clip0_7498_450">
<rect width="18" height="18" fill="white"/>
</clipPath>
</defs>
</svg>
