<svg width="24" height="24" viewBox="0 0 24 24" fill="none" xmlns="http://www.w3.org/2000/svg">
<path fill-rule="evenodd" clip-rule="evenodd" d="M7.35045 12.0006C7.35045 7.7872 10.8091 4.35001 15.1749 4.35001C19.484 4.35001 23.056 7.7872 22.9993 12.0006C22.9993 16.2139 19.484 19.6511 15.1749 19.6511C10.8658 19.6511 7.35045 16.2139 7.35045 12.0006ZM12.2266 12.0006C12.2266 13.5528 13.5873 14.8279 15.1749 14.8279C16.8192 14.8279 18.0665 13.5528 18.1233 12.0006C18.1233 10.4483 16.8192 9.17317 15.1749 9.17317C13.5306 9.17317 12.2266 10.4483 12.2266 12.0006ZM7.3503 17.7662V6.62304H1L4.57202 17.7662H7.3503Z" fill="#8B3FFD"/>
</svg>
