<svg width="24" height="24" viewBox="0 0 24 24" fill="none" xmlns="http://www.w3.org/2000/svg">
<rect width="24" height="24" rx="12" fill="#F3BA2F"/>
<g clip-path="url(#clip0_6218_30179)">
<path d="M8.82362 10.7233L11.9308 7.61624L15.0397 10.725L16.8477 8.91698L11.9308 4L7.01562 8.91534L8.82362 10.7233Z" fill="white"/>
<path d="M7.54673 11.9994L5.73877 10.1914L3.93072 11.9995L5.73868 13.8074L7.54673 11.9994Z" fill="white"/>
<path d="M8.82383 13.2769L11.9311 16.384L15.0398 13.2754L16.8488 15.0824L16.8479 15.0834L11.9311 20.0002L7.01571 15.085L7.01318 15.0825L8.82383 13.2769Z" fill="white"/>
<path d="M18.1231 13.809L19.9312 12.001L18.1232 10.193L16.3151 12.0011L18.1231 13.809Z" fill="white"/>
<path d="M13.7647 11.9997H13.7654L11.9308 10.165L10.5749 11.5209H10.5748L10.4191 11.6767L10.0977 11.9981L10.0952 12.0006L10.0977 12.0032L11.9308 13.8363L13.7654 12.0016L13.7663 12.0006L13.7647 11.9997Z" fill="white"/>
</g>
<defs>
<clipPath id="clip0_6218_30179">
<rect width="16" height="16" fill="white" transform="translate(4 4)"/>
</clipPath>
</defs>
</svg>
