<svg width="24" height="24" viewBox="0 0 24 24" fill="none" xmlns="http://www.w3.org/2000/svg">
<path d="M12 24C18.6274 24 24 18.6274 24 12C24 5.37258 18.6274 0 12 0C5.37258 0 0 5.37258 0 12C0 18.6274 5.37258 24 12 24Z" fill="#FFB11A"/>
<path d="M13.9879 10.6379H13.9551C13.6789 10.6406 13.4082 10.7172 13.1703 10.8594V9.01641H12.4211V12.2566C12.4211 13.1426 13.1211 13.8754 13.9906 13.8754C14.8602 13.8754 15.5602 13.1426 15.5602 12.2566C15.5547 11.3543 14.8738 10.6379 13.9879 10.6379ZM13.9523 13.0578C13.5203 13.0496 13.1676 12.6887 13.1676 12.2566C13.1676 11.8137 13.5094 11.4391 13.9523 11.4391C14.3953 11.4391 14.7371 11.8137 14.7371 12.2566C14.7371 12.6996 14.3953 13.0578 13.9523 13.0578ZM6.58594 10.6379C6.3043 10.6379 6.02539 10.7145 5.78477 10.8594V9.01641H5V12.2566C5 13.1426 5.71641 13.8754 6.58594 13.8754C7.43906 13.8754 8.15547 13.1426 8.15547 12.2566C8.15547 11.3543 7.45547 10.6379 6.58594 10.6379ZM6.58594 13.0578C6.1457 13.0578 5.78477 12.6969 5.78477 12.2566C5.78477 11.8137 6.14297 11.4391 6.58594 11.4391C7.0125 11.4391 7.3707 11.8137 7.3707 12.2566C7.3707 12.6996 7.0125 13.0578 6.58594 13.0578ZM16.4926 10.2277C16.5938 10.2277 16.6977 10.1949 16.766 10.1074C16.8508 10.0391 16.8863 9.93789 16.8863 9.81758C16.8863 9.71641 16.8535 9.6125 16.766 9.54414C16.6977 9.45937 16.5965 9.42383 16.4926 9.42383C16.3914 9.42383 16.2875 9.45664 16.2191 9.54414C16.1344 9.6125 16.0988 9.71367 16.0988 9.81758C16.1016 10.0582 16.2711 10.2277 16.4926 10.2277ZM11.8387 13.8945C11.8387 14.7805 11.1223 15.5133 10.2691 15.5133V14.6957C10.7121 14.6957 11.0539 14.3375 11.0539 13.8945V13.673C10.8164 13.814 10.5453 13.8884 10.2691 13.8884C9.99296 13.8884 9.72188 13.814 9.48438 13.673C8.99766 13.375 8.69961 12.8445 8.69961 12.2758V10.657H9.48438V12.2758C9.48438 12.634 9.72227 12.9566 10.0641 13.0605C10.1242 13.0742 10.1871 13.0824 10.2527 13.0824C10.693 13.0824 11.0539 12.7215 11.0539 12.2812V10.657H11.8387V13.8945ZM18.609 9V10.6187H19V11.4363H18.609V13.859H17.8406V11.4363H17.4496V10.6187H17.8406V9H18.609ZM16.0332 10.5859H16.818V13.8262H16.0332V10.5859Z" fill="white"/>
</svg>
