<svg width="24" height="24" viewBox="0 0 24 24" fill="none" xmlns="http://www.w3.org/2000/svg">
<rect width="24" height="24" rx="12" fill="#23AF91"/>
<path fill-rule="evenodd" clip-rule="evenodd" d="M9.31404 12.0021L14.0532 16.7419L17.0446 13.7506C17.5796 13.2693 18.3976 13.2904 18.9064 13.7992C19.4152 14.308 19.4369 15.1266 18.955 15.661L15.0075 19.6091C14.4769 20.1307 13.627 20.1307 13.0964 19.6091L7.40172 13.9125V17.2981C7.40172 18.0456 6.79628 18.651 6.04876 18.651C5.30124 18.651 4.6958 18.0456 4.6958 17.2981V6.70096C4.6958 5.95408 5.30124 5.348 6.04876 5.348C6.79628 5.348 7.40172 5.95408 7.40172 6.70096V10.0866L13.0958 4.3912C13.6257 3.8696 14.4769 3.8696 15.0068 4.3912L18.9569 8.33872C19.4382 8.87376 19.4171 9.69168 18.9083 10.2005C18.3995 10.7093 17.5809 10.731 17.0465 10.2491L14.0552 7.25776L9.31404 12.0021ZM14.0552 10.6472C13.5073 10.6472 13.0132 10.9768 12.8033 11.483C12.5934 11.9893 12.7092 12.5717 13.0964 12.9595C13.4836 13.3474 14.0667 13.4632 14.5729 13.2539C15.0792 13.044 15.4094 12.5506 15.4094 12.0021C15.4094 11.643 15.2673 11.2987 15.0132 11.044C14.7598 10.7899 14.4148 10.6472 14.0558 10.6472H14.0552Z" fill="white"/>
</svg>
