<svg width="24" height="24" viewBox="0 0 24 24" fill="none" xmlns="http://www.w3.org/2000/svg">
<rect width="24" height="24" rx="12" fill="#FAFAFA"/>
<path d="M14.0311 9.66309H9.98401C9.81221 9.66309 9.67139 9.80391 9.67139 9.9757V14.0227C9.67139 14.1945 9.81221 14.3353 9.98401 14.3353H14.0311C14.2029 14.3353 14.3437 14.1945 14.3437 14.0227V9.9757C14.3437 9.80391 14.2029 9.66309 14.0311 9.66309Z" fill="black"/>
<path d="M9.35971 5.00684H5.31262C5.14083 5.00684 5 5.14766 5 5.31945V9.36647C5 9.53826 5.14083 9.67909 5.31262 9.67909H9.35971C9.5315 9.67909 9.67233 9.53826 9.67233 9.36647V5.31945C9.67133 5.14766 9.5315 5.00684 9.35971 5.00684Z" fill="black"/>
<path d="M18.6873 5.00684H14.6403C14.4685 5.00684 14.3276 5.14766 14.3276 5.31945V9.36647C14.3276 9.53826 14.4685 9.67909 14.6403 9.67909H18.6873C18.8591 9.67909 19 9.53826 19 9.36647V5.31945C19 5.14766 18.8591 5.00684 18.6873 5.00684Z" fill="black"/>
<path d="M9.35971 14.3203H5.31262C5.14083 14.3203 5 14.4611 5 14.6329V18.6799C5 18.8517 5.14083 18.9926 5.31262 18.9926H9.35971C9.5315 18.9926 9.67233 18.8517 9.67233 18.6799V14.6329C9.67133 14.4611 9.5315 14.3203 9.35971 14.3203Z" fill="black"/>
<path d="M18.6873 14.3203H14.6403C14.4685 14.3203 14.3276 14.4611 14.3276 14.6329V18.6799C14.3276 18.8517 14.4685 18.9926 14.6403 18.9926H18.6873C18.8591 18.9926 19 18.8517 19 18.6799V14.6329C19 14.4611 18.8591 14.3203 18.6873 14.3203Z" fill="black"/>
</svg>
