<svg width="24" height="24" viewBox="0 0 24 24" fill="none" xmlns="http://www.w3.org/2000/svg">
<rect width="24" height="24" rx="12" fill="#0062DF"/>
<g clip-path="url(#clip0_6222_32289)">
<path d="M11.3855 15.6067L13.1813 10.1558L14.0447 10.4367L13.4258 8.39642H18.7647C19.733 8.39642 20.2392 9.26426 19.8898 10.3286L19.5525 11.3571C19.5487 11.3692 19.5442 11.3814 19.5365 11.3974L19.5205 11.4339C19.4284 11.6867 19.2997 11.9279 19.1391 12.1449C18.6328 12.8355 17.8578 13.2854 17.1666 13.2899H17.1141H14.4831L13.724 15.6079L11.3855 15.6067ZM14.8837 12.0841H16.3058C16.6636 12.0841 17.0572 11.7667 17.1813 11.3769L17.5308 10.3126C17.6594 9.92282 17.4744 9.60538 17.1173 9.60538H15.6952L14.8837 12.0841ZM5.22739 15.6067C5.16723 15.6028 5.10707 15.599 5.04691 15.5907C4.94643 15.5785 4.84595 15.5542 4.75379 15.5183C4.56499 15.446 4.40051 15.3494 4.27187 15.1887C4.19571 15.0921 4.13555 14.9801 4.09139 14.8636C4.07155 14.8035 4.05107 14.7433 4.03891 14.6831C3.97043 14.3702 3.99859 14.0566 4.08307 13.7513C4.09075 13.7231 4.12723 13.6105 4.12723 13.6105L5.83795 8.39642H8.20019L6.46067 13.6911C6.36403 13.9804 6.44083 14.2377 6.64563 14.3459C6.71411 14.3823 6.78643 14.4022 6.86259 14.3983H8.03187L10.0031 8.39258H12.6744L10.718 10.4335L11.7746 10.1526L9.97939 15.6028L5.22739 15.6067Z" fill="white"/>
</g>
<defs>
<clipPath id="clip0_6222_32289">
<rect width="16" height="16" fill="white" transform="translate(4 4)"/>
</clipPath>
</defs>
</svg>
