<svg width="24" height="24" viewBox="0 0 24 24" fill="none" xmlns="http://www.w3.org/2000/svg">
  <path fill-rule="evenodd" clip-rule="evenodd" d="M7.4747 9.00622C7.05173 8.58325 7.05173 7.89748 7.4747 7.47452C7.89767 7.05155 8.58344 7.05155 9.0064 7.47452L12.0002 10.4683L14.994 7.47452C15.4169 7.05155 16.1027 7.05155 16.5257 7.47452C16.9486 7.89748 16.9486 8.58325 16.5257 9.00622L13.5319 12L16.5257 14.9938C16.9486 15.4167 16.9486 16.1025 16.5257 16.5255C16.1027 16.9485 15.4169 16.9485 14.994 16.5255L12.0002 13.5317L9.0064 16.5255C8.58344 16.9485 7.89767 16.9485 7.4747 16.5255C7.05173 16.1025 7.05173 15.4167 7.4747 14.9938L10.4685 12L7.4747 9.00622Z" fill="#F9F9F9"/>
</svg>
