<svg width="24" height="24" viewBox="0 0 24 24" fill="none" xmlns="http://www.w3.org/2000/svg">
<path fill-rule="evenodd" clip-rule="evenodd" d="M20.9624 7.41499C22.269 6.17376 22.2761 4.14064 20.9603 2.90314C19.6825 1.69144 17.635 1.68565 16.362 2.90699L8.40599 10.465L8.40598 10.465C8.08805 10.767 7.87522 11.1703 7.81066 11.6146L7.32678 14.8522C7.28073 15.1603 7.3809 15.4723 7.59771 15.696C7.81451 15.9197 8.12319 16.0296 8.43258 15.9932L11.7484 15.6033L11.7484 15.6034L11.7601 15.6019C12.1759 15.548 12.6067 15.3674 12.9404 15.0361L20.9624 7.41499ZM17.7456 4.35109C18.2405 3.87539 19.0739 3.86966 19.5849 4.35518L19.5849 4.35519L19.5892 4.35923C20.0608 4.80192 20.0671 5.50689 19.5849 5.965L11.5533 13.5951L11.5392 13.6088C11.536 13.6103 11.5313 13.6121 11.5251 13.6139C11.5194 13.6156 11.513 13.617 11.5062 13.618L9.49817 13.8541L9.78873 11.91L17.7414 4.35518L17.7414 4.3552L17.7456 4.35109ZM4.05261 8C4.05261 7.5 4.50331 7 5.15788 7H9.3684C9.92069 7 10.3684 6.55228 10.3684 6C10.3684 5.44772 9.92069 5 9.3684 5H5.15788C3.49665 5 2.05261 6.3 2.05261 8V19C2.05261 20.7 3.49665 22 5.15788 22H16.7368C18.3981 22 19.8421 20.7 19.8421 19V13C19.8421 12.4477 19.3944 12 18.8421 12C18.2898 12 17.8421 12.4477 17.8421 13V19C17.8421 19.5 17.3914 20 16.7368 20H5.15788C4.50331 20 4.05261 19.5 4.05261 19V8Z" fill="#9B9B9B"/>
</svg>
