<svg width="32" height="32" viewBox="0 0 32 32" fill="none" xmlns="http://www.w3.org/2000/svg">
<path d="M10.1497 5.26315H21.8504C23.347 5.26315 24.5714 6.33684 24.5714 7.64912V26.7368L16.0136 22.8358L7.42859 26.7368V7.64912C7.42859 6.33684 8.63948 5.26315 10.1497 5.26315Z" fill="#9B9B9B"/>
<path fill-rule="evenodd" clip-rule="evenodd" d="M10.1497 6.26315C9.06767 6.26315 8.42859 7.00553 8.42859 7.64912V25.184L15.5999 21.9254C15.8632 21.8058 16.1653 21.806 16.4284 21.9259L23.5714 25.182V7.64912C23.5714 7.00855 22.9222 6.26315 21.8504 6.26315H10.1497ZM6.42859 7.64912C6.42859 5.66814 8.21128 4.26315 10.1497 4.26315H21.8504C23.7717 4.26315 25.5714 5.66513 25.5714 7.64912V26.7368C25.5714 27.077 25.3985 27.3939 25.1124 27.5779C24.8263 27.7619 24.4662 27.7879 24.1567 27.6468L16.013 23.9345L7.84228 27.6473C7.53276 27.7879 7.17298 27.7617 6.88715 27.5776C6.60132 27.3935 6.42859 27.0768 6.42859 26.7368V7.64912Z" fill="#9B9B9B"/>
</svg>
