<svg width="32" height="32" viewBox="0 0 32 32" fill="none" xmlns="http://www.w3.org/2000/svg">
<path fill-rule="evenodd" clip-rule="evenodd" d="M10.1498 6.26318C9.0678 6.26318 8.42871 7.00556 8.42871 7.64915V25.1841L15.6001 21.9254C15.8633 21.8058 16.1654 21.806 16.4285 21.9259L23.5716 25.182V7.64915C23.5716 7.00858 22.9223 6.26318 21.8505 6.26318H10.1498ZM6.42871 7.64915C6.42871 5.66817 8.2114 4.26318 10.1498 4.26318H21.8505C23.7718 4.26318 25.5716 5.66516 25.5716 7.64915V26.7369C25.5716 27.0771 25.3986 27.3939 25.1125 27.5779C24.8264 27.762 24.4663 27.7879 24.1568 27.6468L16.0131 23.9346L7.8424 27.6473C7.53288 27.7879 7.1731 27.7617 6.88727 27.5776C6.60144 27.3935 6.42871 27.0768 6.42871 26.7369V7.64915Z" fill="#9B9B9B"/>
</svg>
