<svg width="24" height="24" viewBox="0 0 24 24" fill="none" xmlns="http://www.w3.org/2000/svg">
<path fill-rule="evenodd" clip-rule="evenodd" d="M16.9137 13.6C15.5599 13.6 14.4624 14.6745 14.4624 16C14.4624 17.3255 15.5599 18.4 16.9137 18.4C18.2675 18.4 19.365 17.3255 19.365 16C19.365 14.6745 18.2675 13.6 16.9137 13.6ZM3.79442 16.6373H12.8797C13.1914 18.5435 14.8788 20 16.9137 20C19.1701 20 20.9993 18.2091 20.9993 16C20.9993 13.7909 19.1701 12 16.9137 12C14.98 12 13.3601 13.3152 12.9363 15.0817H3.79442C3.35567 15.0817 3 15.43 3 15.8595C3 16.2891 3.35567 16.6373 3.79442 16.6373ZM7.09073 10.4C8.44634 10.4 9.54528 9.32548 9.54528 8C9.54528 6.67452 8.44634 5.6 7.09073 5.6C5.73512 5.6 4.63618 6.67452 4.63618 8C4.63618 9.32548 5.73512 10.4 7.09073 10.4ZM20.1818 7.2H11.0998C10.7208 5.37421 9.06988 4 7.09073 4C4.83138 4 2.99982 5.79086 2.99982 8C2.99982 10.2091 4.83138 12 7.09073 12C9.06988 12 10.7208 10.6258 11.0998 8.8H20.1818C20.6337 8.8 21 8.44183 21 8C21 7.55817 20.6337 7.2 20.1818 7.2Z" fill="#F9F9F9"/>
</svg>
