<svg width="16" height="16" viewBox="0 0 16 16" fill="none" xmlns="http://www.w3.org/2000/svg">
<path d="M12.5 7.115C12.3011 7.115 12.1103 7.19402 11.9697 7.33467C11.829 7.47532 11.75 7.66609 11.75 7.865V13.25C11.75 13.4489 11.671 13.6397 11.5303 13.7803C11.3897 13.921 11.1989 14 11 14H2.75C2.55109 14 2.36032 13.921 2.21967 13.7803C2.07902 13.6397 2 13.4489 2 13.25V5C2 4.80109 2.07902 4.61032 2.21967 4.46967C2.36032 4.32902 2.55109 4.25 2.75 4.25H8.135C8.33391 4.25 8.52468 4.17098 8.66533 4.03033C8.80598 3.88968 8.885 3.69891 8.885 3.5C8.885 3.30109 8.80598 3.11032 8.66533 2.96967C8.52468 2.82902 8.33391 2.75 8.135 2.75H2.75C2.15326 2.75 1.58097 2.98705 1.15901 3.40901C0.737053 3.83097 0.5 4.40326 0.5 5V13.25C0.5 13.8467 0.737053 14.419 1.15901 14.841C1.58097 15.2629 2.15326 15.5 2.75 15.5H11C11.5967 15.5 12.169 15.2629 12.591 14.841C13.0129 14.419 13.25 13.8467 13.25 13.25V7.865C13.25 7.66609 13.171 7.47532 13.0303 7.33467C12.8897 7.19402 12.6989 7.115 12.5 7.115ZM15.44 0.965C15.3639 0.781738 15.2183 0.636106 15.035 0.56C14.9448 0.521569 14.848 0.501185 14.75 0.5H10.25C10.0511 0.5 9.86032 0.579018 9.71967 0.71967C9.57902 0.860322 9.5 1.05109 9.5 1.25C9.5 1.44891 9.57902 1.63968 9.71967 1.78033C9.86032 1.92098 10.0511 2 10.25 2H12.9425L5.2175 9.7175C5.1472 9.78722 5.09141 9.87017 5.05333 9.96157C5.01525 10.053 4.99565 10.151 4.99565 10.25C4.99565 10.349 5.01525 10.447 5.05333 10.5384C5.09141 10.6298 5.1472 10.7128 5.2175 10.7825C5.28722 10.8528 5.37017 10.9086 5.46157 10.9467C5.55296 10.9847 5.65099 11.0043 5.75 11.0043C5.84901 11.0043 5.94704 10.9847 6.03843 10.9467C6.12983 10.9086 6.21278 10.8528 6.2825 10.7825L14 3.0575V5.75C14 5.94891 14.079 6.13968 14.2197 6.28033C14.3603 6.42098 14.5511 6.5 14.75 6.5C14.9489 6.5 15.1397 6.42098 15.2803 6.28033C15.421 6.13968 15.5 5.94891 15.5 5.75V1.25C15.4988 1.15199 15.4784 1.05517 15.44 0.965Z" fill="#0066ff"/>
</svg>
