<svg width="24" height="24" viewBox="0 0 24 24" fill="none" xmlns="http://www.w3.org/2000/svg">
<path fill-rule="evenodd" clip-rule="evenodd" d="M21.8889 8.66667C21.8889 9.21895 21.4412 9.66667 20.8889 9.66667C20.3366 9.66667 19.8889 9.21895 19.8889 8.66667V5.52533L14.9293 10.4849C14.5388 10.8754 13.9057 10.8754 13.5151 10.4849C13.1246 10.0944 13.1246 9.4612 13.5151 9.07068L18.4747 4.11111H15.3334C14.7811 4.11111 14.3334 3.6634 14.3334 3.11111C14.3334 2.55883 14.7811 2.11111 15.3334 2.11111H20.8889C21.4412 2.11111 21.8889 2.55883 21.8889 3.11111V8.66667ZM10.4849 13.5151C10.0944 13.1246 9.4612 13.1246 9.07068 13.5151L4.11111 18.4747V15.3333C4.11111 14.7811 3.6634 14.3333 3.11111 14.3333C2.55883 14.3333 2.11111 14.7811 2.11111 15.3333V20.8889C2.11111 21.4412 2.55883 21.8889 3.11111 21.8889H8.66667C9.21895 21.8889 9.66667 21.4412 9.66667 20.8889C9.66667 20.3366 9.21895 19.8889 8.66667 19.8889H5.52533L10.4849 14.9293C10.8754 14.5388 10.8754 13.9056 10.4849 13.5151Z" fill="#9B9B9B"/>
</svg>
