<svg width="24" height="24" viewBox="0 0 24 24" fill="none" xmlns="http://www.w3.org/2000/svg">
<path fill-rule="evenodd" clip-rule="evenodd" d="M2.40385 21.5958C2.79438 21.9864 3.42754 21.9864 3.81807 21.5958L8.77763 16.6363V19.7776C8.77763 20.3299 9.22535 20.7776 9.77763 20.7776C10.3299 20.7776 10.7776 20.3299 10.7776 19.7776V14.2221C10.7776 13.6698 10.3299 13.2221 9.77763 13.2221H4.22208C3.66979 13.2221 3.22208 13.6698 3.22208 14.2221C3.22208 14.7743 3.66979 15.2221 4.22208 15.2221H7.36342L2.40385 20.1816C2.01333 20.5722 2.01333 21.2053 2.40385 21.5958ZM13.2221 4.22206C13.2221 3.66978 13.6698 3.22206 14.2221 3.22206C14.7743 3.22206 15.2221 3.66978 15.2221 4.22206V7.3634L20.1816 2.40384C20.5722 2.01332 21.2053 2.01332 21.5958 2.40384C21.9864 2.79436 21.9864 3.42753 21.5958 3.81805L16.6363 8.77762H19.7776C20.3299 8.77762 20.7776 9.22533 20.7776 9.77762C20.7776 10.3299 20.3299 10.7776 19.7776 10.7776H14.2221C13.6698 10.7776 13.2221 10.3299 13.2221 9.77762V4.22206Z" fill="#9B9B9B"/>
</svg>
