<svg width="28" height="24" viewBox="0 0 28 24" fill="none" xmlns="http://www.w3.org/2000/svg">
<g filter="url(#filter0_d_1_4910)">
<path fill-rule="evenodd" clip-rule="evenodd" d="M7.41412 10.5859C8.19515 11.3669 8.19515 12.6332 7.41412 13.4142C6.6331 14.1953 5.3668 14.1953 4.58577 13.4142C3.80474 12.6332 3.80474 11.3669 4.58577 10.5859C5.3668 9.80485 6.6331 9.80485 7.41412 10.5859ZM15.4141 13.4142C16.1952 12.6332 16.1952 11.3669 15.4141 10.5859C14.6331 9.80485 13.3668 9.80485 12.5858 10.5859C11.8047 11.3669 11.8047 12.6332 12.5858 13.4142C13.3668 14.1953 14.6331 14.1953 15.4141 13.4142ZM23.4141 13.4142C24.1952 12.6332 24.1952 11.3669 23.4141 10.5859C22.6331 9.80485 21.3668 9.80485 20.5858 10.5859C19.8047 11.3669 19.8047 12.6332 20.5858 13.4142C21.3668 14.1953 22.6331 14.1953 23.4141 13.4142Z" fill="#9B9B9B"/>
</g>
<defs>
<filter id="filter0_d_1_4910" x="-2" y="0" width="32" height="32" filterUnits="userSpaceOnUse" color-interpolation-filters="sRGB">
<feFlood flood-opacity="0" result="BackgroundImageFix"/>
<feColorMatrix in="SourceAlpha" type="matrix" values="0 0 0 0 0 0 0 0 0 0 0 0 0 0 0 0 0 0 127 0" result="hardAlpha"/>
<feOffset dy="4"/>
<feGaussianBlur stdDeviation="2"/>
<feComposite in2="hardAlpha" operator="out"/>
<feColorMatrix type="matrix" values="0 0 0 0 0 0 0 0 0 0 0 0 0 0 0 0 0 0 0.25 0"/>
<feBlend mode="normal" in2="BackgroundImageFix" result="effect1_dropShadow_1_4910"/>
<feBlend mode="normal" in="SourceGraphic" in2="effect1_dropShadow_1_4910" result="shape"/>
</filter>
</defs>
</svg>
