<svg width="24" height="24" viewBox="0 0 24 24" fill="none" xmlns="http://www.w3.org/2000/svg">
<path d="M5.06675 2.38221C5 2.53194 5 2.72796 5 3.12V20.88C5 21.272 5 21.4681 5.06675 21.6178C5.12546 21.7495 5.21914 21.8566 5.33437 21.9237C5.46536 22 5.63684 22 5.97981 22H9.26917C9.61213 22 9.78362 22 9.91461 21.9237C10.0298 21.8566 10.1235 21.7495 10.1822 21.6178C10.249 21.4681 10.249 21.272 10.249 20.88V3.12C10.249 2.72796 10.249 2.53194 10.1822 2.38221C10.1235 2.25049 10.0298 2.14341 9.91461 2.0763C9.78362 2 9.61213 2 9.26917 2H5.97981C5.63684 2 5.46536 2 5.33437 2.0763C5.21914 2.14341 5.12546 2.25049 5.06675 2.38221Z" fill="#9B9B9B"/>
<path d="M13.8178 2.38221C13.751 2.53194 13.751 2.72796 13.751 3.12V20.88C13.751 21.272 13.751 21.4681 13.8178 21.6178C13.8765 21.7495 13.9702 21.8566 14.0854 21.9237C14.2164 22 14.3879 22 14.7308 22H18.0202C18.3632 22 18.5346 22 18.6656 21.9237C18.7809 21.8566 18.8745 21.7495 18.9333 21.6178C19 21.4681 19 21.272 19 20.88V3.12C19 2.72796 19 2.53194 18.9333 2.38221C18.8745 2.25049 18.7809 2.14341 18.6656 2.0763C18.5346 2 18.3632 2 18.0202 2H14.7308C14.3879 2 14.2164 2 14.0854 2.0763C13.9702 2.14341 13.8765 2.25049 13.8178 2.38221Z" fill="#9B9B9B"/>
</svg>
