<svg width="24" height="24" viewBox="0 0 24 24" fill="none" xmlns="http://www.w3.org/2000/svg">
<path fill-rule="evenodd" clip-rule="evenodd" d="M3.5 5C2.94772 5 2.5 5.44772 2.5 6C2.5 6.55228 2.94772 7 3.5 7H4.5C5.05228 7 5.5 6.55228 5.5 6C5.5 5.44772 5.05228 5 4.5 5H3.5ZM8.5 5C7.94772 5 7.5 5.44772 7.5 6C7.5 6.55228 7.94772 7 8.5 7H20.5C21.0523 7 21.5 6.55228 21.5 6C21.5 5.44772 21.0523 5 20.5 5H8.5ZM2.5 12C2.5 11.4477 2.94772 11 3.5 11H4.5C5.05228 11 5.5 11.4477 5.5 12C5.5 12.5523 5.05228 13 4.5 13H3.5C2.94772 13 2.5 12.5523 2.5 12ZM3.5 17C2.94772 17 2.5 17.4477 2.5 18C2.5 18.5523 2.94772 19 3.5 19H4.5C5.05228 19 5.5 18.5523 5.5 18C5.5 17.4477 5.05228 17 4.5 17H3.5ZM7.5 12C7.5 11.4477 7.94772 11 8.5 11H20.5C21.0523 11 21.5 11.4477 21.5 12C21.5 12.5523 21.0523 13 20.5 13H8.5C7.94772 13 7.5 12.5523 7.5 12ZM8.5 17C7.94772 17 7.5 17.4477 7.5 18C7.5 18.5523 7.94772 19 8.5 19H20.5C21.0523 19 21.5 18.5523 21.5 18C21.5 17.4477 21.0523 17 20.5 17H8.5Z" fill="#9B9B9B"/>
</svg>
