<svg width="16" height="16" viewBox="0 0 16 16" fill="none" xmlns="http://www.w3.org/2000/svg">
<path d="M9.5 4.50049L4.5 9.50049C4.22386 9.77663 4.22386 10.2243 4.5 10.5005C4.77614 10.7766 5.22386 10.7766 5.5 10.5005L10.5 5.50049C10.7761 5.22435 10.7761 4.77663 10.5 4.50049C10.2239 4.22435 9.77614 4.22435 9.5 4.50049Z" fill="#808080"/>
<path d="M10.5 7.50049L7.5 10.5005C7.22386 10.7766 7.22386 11.2243 7.5 11.5005C7.77614 11.7766 8.22386 11.7766 8.5 11.5005L11.5 8.50049C11.7761 8.22435 11.7761 7.77663 11.5 7.50049C11.2239 7.22435 10.7761 7.22435 10.5 7.50049Z" fill="#808080"/>
</svg>
