<svg width="24" height="24" viewBox="0 0 24 24" fill="none" xmlns="http://www.w3.org/2000/svg">
<path fill-rule="evenodd" clip-rule="evenodd" d="M6.98828 19.5336C6.53848 19.9658 5.81698 19.9592 5.37578 19.5178L4.48245 18.624C4.04182 18.1831 4.03212 17.464 4.46697 17.0112L4.50448 16.9722C4.93645 16.5224 5.09434 15.6933 4.85409 15.1129L4.74577 14.8517C4.50683 14.2747 3.81128 13.7968 3.18389 13.7843L3.1296 13.7832C2.50617 13.7706 2.00053 13.256 2.00026 12.6318L2 11.3682C1.99974 10.7448 2.50148 10.2294 3.1288 10.2169L3.18309 10.2158C3.80679 10.2032 4.50473 9.7285 4.74524 9.1481L4.85356 8.88688C5.09249 8.30961 4.93853 7.47977 4.50395 7.02736L4.46644 6.98828C4.03421 6.53848 4.04077 5.81698 4.48218 5.37578L5.37598 4.48245C5.81687 4.04182 6.53601 4.03212 6.98875 4.46697L7.02783 4.50448C7.47763 4.93645 8.3067 5.09434 8.88708 4.85409L9.14831 4.74577C9.72532 4.50683 10.2032 3.81128 10.2157 3.18389L10.2168 3.1296C10.2294 2.50617 10.744 2.00053 11.3682 2.00026L12.6318 2C13.2552 1.99974 13.7706 2.50148 13.7831 3.1288L13.7842 3.18309C13.7968 3.80679 14.2715 4.50473 14.8519 4.74524L15.1131 4.85356C15.6904 5.09249 16.5202 4.93853 16.9726 4.50395L17.0117 4.46644C17.4615 4.03421 18.183 4.04077 18.6242 4.48218L19.5176 5.37598C19.9582 5.81687 19.9679 6.53601 19.533 6.98875L19.4955 7.02783C19.0636 7.47763 18.9057 8.3067 19.1459 8.88708L19.2542 9.14831C19.4932 9.72532 20.1887 10.2032 20.8161 10.2157L20.8704 10.2168C21.4938 10.2294 21.9995 10.744 21.9997 11.3682L22 12.6318C22.0003 13.2552 21.4985 13.7706 20.8712 13.7831L20.8169 13.7842C20.1932 13.7968 19.4953 14.2715 19.2548 14.8519L19.1464 15.1131C18.9075 15.6904 19.0615 16.5202 19.4961 16.9726L19.5336 17.0117C19.9658 17.4615 19.9592 18.183 19.5178 18.6242L18.624 19.5176C18.1831 19.9582 17.464 19.9679 17.0112 19.533L16.9722 19.4955C16.5224 19.0636 15.6933 18.9057 15.1129 19.1459L14.8517 19.2542C14.2747 19.4932 13.7968 20.1887 13.7843 20.8161L13.7832 20.8704C13.7706 21.4938 13.256 21.9995 12.6318 21.9997L11.3682 22C10.7448 22.0003 10.2294 21.4985 10.2169 20.8712L10.2158 20.8169C10.2032 20.1932 9.7285 19.4953 9.1481 19.2548L8.88688 19.1464C8.3096 18.9075 7.47977 19.0615 7.02736 19.4961L6.98828 19.5336ZM10.1296 16.5158C12.6236 17.549 15.4828 16.3645 16.516 13.8705C17.5491 11.3765 16.3646 8.51725 13.8707 7.48412C11.3767 6.451 8.51739 7.63546 7.48426 10.1294C6.45114 12.6234 7.6356 15.4827 10.1296 16.5158Z" fill="#9B9B9B"/>
</svg>
