<svg width="33" height="32" viewBox="0 0 33 32" fill="none" xmlns="http://www.w3.org/2000/svg">
<path fill-rule="evenodd" clip-rule="evenodd" d="M15.2816 7.47345V18.4002C15.2816 18.9525 15.7293 19.4002 16.2816 19.4002C16.8339 19.4002 17.2816 18.9525 17.2816 18.4002V7.47341L19.5332 9.53735C19.9403 9.91054 20.5729 9.88304 20.9461 9.47592C21.3193 9.0688 21.2918 8.43623 20.8846 8.06304L16.9574 4.46304C16.8982 4.40884 16.8342 4.36301 16.7668 4.32557C16.6231 4.24569 16.4577 4.2002 16.2816 4.2002C16.0188 4.2002 15.7797 4.30157 15.6012 4.46736L11.6786 8.06304C11.2715 8.43623 11.244 9.0688 11.6172 9.47592C11.9904 9.88304 12.623 9.91054 13.0301 9.53735L15.2816 7.47345ZM5.68164 16.182C5.68164 14.3222 7.34788 13.0002 9.13619 13.0002H11.5907C12.143 13.0002 12.5907 13.4479 12.5907 14.0002C12.5907 14.5525 12.143 15.0002 11.5907 15.0002H9.13619C8.22449 15.0002 7.68164 15.6418 7.68164 16.182V23.8184C7.68164 24.3586 8.22449 25.0002 9.13619 25.0002H23.8635C24.7752 25.0002 25.318 24.3586 25.318 23.8184V16.182C25.318 15.6418 24.7752 15.0002 23.8635 15.0002H21.4089C20.8566 15.0002 20.4089 14.5525 20.4089 14.0002C20.4089 13.4479 20.8566 13.0002 21.4089 13.0002H23.8635C25.6518 13.0002 27.318 14.3222 27.318 16.182V23.8184C27.318 25.6781 25.6518 27.0002 23.8635 27.0002H9.13619C7.34788 27.0002 5.68164 25.6781 5.68164 23.8184V16.182Z" fill="#9B9B9B"/>
</svg>
