<svg width="24" height="24" viewBox="0 0 24 24" fill="none" xmlns="http://www.w3.org/2000/svg">
<path fill-rule="evenodd" clip-rule="evenodd" d="M20.2529 6.74699C19.2635 5.75751 17.6566 5.75751 16.6672 6.74699C16.2766 7.13751 15.6435 7.13751 15.2529 6.74699C14.8624 6.35647 14.8624 5.7233 15.2529 5.33278C17.0235 3.56225 19.8966 3.56225 21.6672 5.33278C23.4377 7.1033 23.4377 9.97647 21.6672 11.747L15.7872 17.6269C14.0166 19.3974 11.1435 19.3974 9.37294 17.6269C7.60241 15.8563 7.60241 12.9832 9.37294 11.2127L10.253 10.3327C10.6435 9.94223 11.2767 9.94227 11.6672 10.3328C12.0577 10.7234 12.0577 11.3565 11.6671 11.747L10.7872 12.6269C9.79772 13.6164 9.79769 15.2232 10.7872 16.2127C11.7766 17.2021 13.3835 17.2021 14.3729 16.2127L20.2529 10.3328C21.2424 9.3433 21.2424 7.73646 20.2529 6.74699Z" fill="white"/>
<path fill-rule="evenodd" clip-rule="evenodd" d="M9.61711 8.79679L3.73712 14.6771C2.74765 15.6666 2.74763 17.2735 3.7371 18.263C4.72658 19.2524 6.33341 19.2524 7.32289 18.263C7.71341 17.8724 8.34658 17.8724 8.7371 18.263C9.12763 18.6535 9.12763 19.2866 8.7371 19.6772C6.96658 21.4477 4.09341 21.4477 2.32289 19.6772C0.552371 17.9066 0.552364 15.0335 2.32287 13.263L8.20287 7.3826C9.97339 5.61208 12.8466 5.61206 14.6171 7.38258C16.3876 9.15308 16.3876 12.0262 14.6172 13.7967L13.7072 14.7069C13.3167 15.0974 12.6836 15.0975 12.293 14.707C11.9024 14.3165 11.9024 13.6834 12.2928 13.2928L13.2028 12.3827C14.1923 11.3932 14.1924 9.78627 13.2029 8.79679C12.2134 7.80733 10.6066 7.80734 9.61711 8.79679Z" fill="white"/>
</svg>
