<svg width="24" height="24" viewBox="0 0 24 24" fill="none" xmlns="http://www.w3.org/2000/svg">
<path fill-rule="evenodd" clip-rule="evenodd" d="M21.75 4.125C21.75 3.57272 21.3023 3.125 20.75 3.125C20.1977 3.125 19.75 3.57272 19.75 4.125V19.875C19.75 20.4273 20.1977 20.875 20.75 20.875C21.3023 20.875 21.75 20.4273 21.75 19.875V4.125ZM6.20604 3.90569C4.48516 2.77018 2.40283 4.12961 2.40283 6.06037V17.9404C2.40283 19.8471 4.47791 21.2353 6.20604 20.095L6.20691 20.0944L15.186 14.1561C16.7165 13.1557 16.6975 10.854 15.1923 9.84876L15.1923 9.84875L15.1885 9.84626L6.20691 3.90627L6.20604 3.90569ZM4.40283 6.06037C4.40283 5.80904 4.52565 5.643 4.66588 5.5613C4.80285 5.48151 4.95585 5.47707 5.10423 5.57483L5.10453 5.57503L14.0815 11.5119L14.0828 11.5128C14.2328 11.6136 14.3275 11.7923 14.3275 12.006C14.3275 12.2202 14.233 12.39 14.091 12.4825L14.091 12.4825L14.0853 12.4863L5.10453 18.4257L5.10433 18.4258C4.96066 18.5205 4.80934 18.518 4.6686 18.4354C4.52295 18.3499 4.40283 18.1809 4.40283 17.9404V6.06037Z" fill="#9B9B9B"/>
</svg>
