<svg width="24" height="24" viewBox="0 0 24 24" fill="none" xmlns="http://www.w3.org/2000/svg">
<path fill-rule="evenodd" clip-rule="evenodd" d="M2.25 4.125C2.25 3.57272 2.69772 3.125 3.25 3.125C3.80228 3.125 4.25 3.57272 4.25 4.125V19.875C4.25 20.4273 3.80228 20.875 3.25 20.875C2.69772 20.875 2.25 20.4273 2.25 19.875V4.125ZM17.794 3.90569C19.5148 2.77018 21.5972 4.12961 21.5972 6.06037V17.9404C21.5972 19.8471 19.5221 21.2353 17.794 20.095L17.7931 20.0944L8.81398 14.1561C7.28354 13.1557 7.30251 10.854 8.8077 9.84876L8.8077 9.84875L8.81147 9.84626L17.7931 3.90627L17.794 3.90569ZM19.5972 6.06037C19.5972 5.80904 19.4744 5.643 19.3341 5.5613C19.1972 5.48151 19.0442 5.47707 18.8958 5.57483L18.8955 5.57503L9.91849 11.5119L9.91715 11.5128C9.76722 11.6136 9.67247 11.7923 9.67247 12.006C9.67247 12.2202 9.76699 12.39 9.90902 12.4825L9.90903 12.4825L9.91472 12.4863L18.8955 18.4257L18.8957 18.4258C19.0393 18.5205 19.1907 18.518 19.3314 18.4354C19.477 18.3499 19.5972 18.1809 19.5972 17.9404V6.06037Z" fill="#9B9B9B"/>
</svg>
