<svg width="24" height="24" viewBox="0 0 24 24" fill="none" xmlns="http://www.w3.org/2000/svg">
<path fill-rule="evenodd" clip-rule="evenodd" d="M7.56338 2.99723C7.56338 2.44647 8.0174 2 8.57746 2H15.4225C15.9826 2 16.4366 2.44647 16.4366 2.99723C16.4366 3.54798 15.9826 3.99446 15.4225 3.99446H8.57746C8.0174 3.99446 7.56338 3.54798 7.56338 2.99723ZM3 6.59834C3 6.04759 3.45402 5.60111 4.01408 5.60111H19.9859C20.546 5.60111 21 6.04759 21 6.59834C21 7.1491 20.546 7.59557 19.9859 7.59557H19.8592V18.7867C19.8592 20.5679 18.3665 22 16.5634 22H7.43662C5.63354 22 4.14085 20.5679 4.14085 18.7867V7.59557H4.01408C3.45402 7.59557 3 7.1491 3 6.59834ZM6.16901 7.59557V18.7867C6.16901 19.4431 6.72984 20.0055 7.43662 20.0055H16.5634C17.2702 20.0055 17.831 19.4431 17.831 18.7867V7.59557H6.16901Z" fill="#9B9B9B"/>
</svg>
