<svg width="30" height="29" viewBox="0 0 30 29" fill="none" xmlns="http://www.w3.org/2000/svg">
<g filter="url(#filter0_d_1_4898)">
<path fill-rule="evenodd" clip-rule="evenodd" d="M22.1431 4.18246C21.7247 3.8219 21.0933 3.86874 20.7328 4.28709C20.3722 4.70543 20.419 5.33686 20.8374 5.69742C22.4051 7.04865 23.4902 9.34082 23.4902 12.01C23.4902 14.6825 22.4129 16.9718 20.8498 18.3104C20.4303 18.6696 20.3815 19.3009 20.7407 19.7204C21.0999 20.1399 21.7312 20.1887 22.1507 19.8295C24.2076 18.0681 25.4902 15.1974 25.4902 12.01C25.4902 8.81908 24.1953 5.95124 22.1431 4.18246ZM12.2044 4.49665C13.4976 3.40242 15.5002 4.30986 15.5002 6.02005V17.99C15.5002 19.7002 13.4976 20.6076 12.2044 19.5134L12.2041 19.5132L8.50386 16.38H6.49023C5.38795 16.38 4.49023 15.4823 4.49023 14.38V9.63003C4.49023 8.52775 5.38795 7.63003 6.49023 7.63003H8.50386L12.2041 4.49687L12.2044 4.49665ZM13.4963 6.02342L9.51656 9.3932C9.33597 9.54611 9.107 9.63003 8.87036 9.63003H6.49023V14.38H8.87036C9.107 14.38 9.33597 14.4639 9.51656 14.6169L13.4963 17.9866L13.4978 17.9879L13.5002 17.9869V6.02313L13.4978 6.02217L13.4963 6.02342ZM17.6839 7.49717C17.9781 7.02974 18.5955 6.88927 19.0629 7.18343C20.5611 8.12625 21.4902 9.97597 21.4902 12.0098C21.4902 14.0419 20.5619 15.8957 19.0576 16.8294C18.5884 17.1207 17.9719 16.9764 17.6806 16.5071C17.3894 16.0379 17.5337 15.4214 18.0029 15.1301C18.8186 14.6238 19.4902 13.4777 19.4902 12.0098C19.4902 10.5436 18.8195 9.39332 17.9977 8.87614C17.5302 8.58198 17.3898 7.9646 17.6839 7.49717Z" fill="#9B9B9B"/>
</g>
<defs>
<filter id="filter0_d_1_4898" x="-1" y="0" width="32" height="32" filterUnits="userSpaceOnUse" color-interpolation-filters="sRGB">
<feFlood flood-opacity="0" result="BackgroundImageFix"/>
<feColorMatrix in="SourceAlpha" type="matrix" values="0 0 0 0 0 0 0 0 0 0 0 0 0 0 0 0 0 0 127 0" result="hardAlpha"/>
<feOffset dy="4"/>
<feGaussianBlur stdDeviation="2"/>
<feComposite in2="hardAlpha" operator="out"/>
<feColorMatrix type="matrix" values="0 0 0 0 0 0 0 0 0 0 0 0 0 0 0 0 0 0 0.25 0"/>
<feBlend mode="normal" in2="BackgroundImageFix" result="effect1_dropShadow_1_4898"/>
<feBlend mode="normal" in="SourceGraphic" in2="effect1_dropShadow_1_4898" result="shape"/>
</filter>
</defs>
</svg>
