<svg width="29" height="28" viewBox="0 0 29 28" fill="none" xmlns="http://www.w3.org/2000/svg">
<g filter="url(#filter0_d_1_4897)">
<path fill-rule="evenodd" clip-rule="evenodd" d="M13.4976 6.02217C13.4971 6.02255 13.4966 6.02297 13.496 6.02343L9.51632 9.3932C9.33571 9.54613 9.10671 9.63005 8.87006 9.63003L6.49023 9.62989V14.3799L8.87018 14.38C9.10679 14.38 9.33574 14.464 9.51632 14.6169L13.496 17.9866C13.4966 17.9871 13.4971 17.9875 13.4976 17.9879C13.4983 17.9876 13.4991 17.9873 13.5 17.9869V6.02313C13.4991 6.02275 13.4983 6.02244 13.4976 6.02217ZM12.2042 4.49665C13.4973 3.40243 15.5 4.30987 15.5 6.02005V17.99C15.5 19.7002 13.4973 20.6076 12.2042 19.5134L8.50359 16.38L6.49023 16.3799C6.49021 16.3799 6.49025 16.3799 6.49023 16.3799C5.38798 16.3799 4.49023 15.4822 4.49023 14.3799V9.62989C4.49023 8.5276 5.38795 7.62989 6.49023 7.62989L8.50364 7.63001L12.2042 4.49665ZM18.1132 8.73284C18.5037 8.34232 19.1369 8.34232 19.5274 8.73284L21.3203 10.5257L23.1132 8.73284C23.5037 8.34232 24.1369 8.34232 24.5274 8.73284C24.9179 9.12336 24.9179 9.75653 24.5274 10.1471L22.7345 11.9399L24.5274 13.7328C24.9179 14.1234 24.9179 14.7565 24.5274 15.1471C24.1369 15.5376 23.5037 15.5376 23.1132 15.1471L21.3203 13.3542L19.5274 15.1471C19.1369 15.5376 18.5037 15.5376 18.1132 15.1471C17.7227 14.7565 17.7227 14.1234 18.1132 13.7328L19.9061 11.9399L18.1132 10.1471C17.7227 9.75653 17.7227 9.12336 18.1132 8.73284Z" fill="#9B9B9B"/>
</g>
<defs>
<filter id="filter0_d_1_4897" x="-1" y="0" width="32" height="32" filterUnits="userSpaceOnUse" color-interpolation-filters="sRGB">
<feFlood flood-opacity="0" result="BackgroundImageFix"/>
<feColorMatrix in="SourceAlpha" type="matrix" values="0 0 0 0 0 0 0 0 0 0 0 0 0 0 0 0 0 0 127 0" result="hardAlpha"/>
<feOffset dy="4"/>
<feGaussianBlur stdDeviation="2"/>
<feComposite in2="hardAlpha" operator="out"/>
<feColorMatrix type="matrix" values="0 0 0 0 0 0 0 0 0 0 0 0 0 0 0 0 0 0 0.25 0"/>
<feBlend mode="normal" in2="BackgroundImageFix" result="effect1_dropShadow_1_4897"/>
<feBlend mode="normal" in="SourceGraphic" in2="effect1_dropShadow_1_4897" result="shape"/>
</filter>
</defs>
</svg>
