<svg width="24" height="25" viewBox="0 0 24 25" fill="none" xmlns="http://www.w3.org/2000/svg">
  <path fill-rule="evenodd" clip-rule="evenodd" d="M5.55438 5.54803L15.7612 12.2204C15.807 12.2518 15.8443 12.293 15.87 12.3407C15.8957 12.3884 15.9091 12.4412 15.9091 12.4948C15.9091 12.5484 15.8957 12.6012 15.87 12.6488C15.8443 12.6965 15.807 12.7378 15.7612 12.7692L5.55438 19.4416C5.49479 19.4808 5.42366 19.5012 5.3511 19.4999C5.2947 19.5011 5.23913 19.4869 5.19095 19.4591C5.13368 19.432 5.0855 19.3904 5.05178 19.3388C5.01805 19.2873 5.00012 19.2278 5 19.1672V5.8224C5.00343 5.76476 5.0229 5.70901 5.05644 5.66082C5.08999 5.61262 5.1364 5.57371 5.19095 5.54803C5.24577 5.51661 5.30861 5.5 5.37267 5.5C5.43673 5.5 5.49957 5.51661 5.55438 5.54803ZM17.8571 5.5C17.2654 5.5 16.7857 5.9766 16.7857 6.56452V18.2742C16.7857 18.8621 17.2654 19.3387 17.8571 19.3387H18.9286C19.5203 19.3387 20 18.8621 20 18.2742V6.56452C20 5.9766 19.5203 5.5 18.9286 5.5H17.8571Z" fill="black"/>
</svg>
