<svg width="45" height="14" viewBox="0 0 45 14" fill="none" xmlns="http://www.w3.org/2000/svg">
<path fill-rule="evenodd" clip-rule="evenodd" d="M4.77112 2.01303C5.16343 2.01068 6.32933 1.90568 6.82318 3.57243C7.15585 4.69518 7.68577 6.53429 8.41294 9.08976H8.70908C9.4889 6.3956 10.0246 4.55649 10.3162 3.57243C10.8152 1.88831 12.0627 2.01306 12.5617 2.01306L16.4116 2.01307V13.989H12.4876V6.93138H12.2245L10.0371 13.989H7.08488L4.89749 6.92615H4.63437V13.989H0.710449V2.01307L4.77112 2.01303ZM22.0462 2.01307V9.07594H22.3593L25.02 3.26819C25.5365 2.11243 26.6373 2.01307 26.6373 2.01307H30.4345V13.989H26.4287V6.92615H26.1156L23.507 12.7339C22.9905 13.8844 21.8375 13.989 21.8375 13.989H18.0404V2.01307H22.0462ZM44.2806 7.70412C43.7218 9.28756 41.967 10.4216 40.0243 10.4216H35.8233V13.989H32.014V7.70412H44.2806Z" fill="#0F754E"/>
<path fill-rule="evenodd" clip-rule="evenodd" d="M40.2087 2.01318H31.8149C32.0147 4.67944 34.3108 6.96192 36.6878 6.96192H44.546C44.9995 4.74595 43.4384 2.01318 40.2087 2.01318Z" fill="url(#paint0_linear_4490_43958)"/>
<defs>
<linearGradient id="paint0_linear_4490_43958" x1="1312.63" y1="313.31" x2="31.8149" y2="313.31" gradientUnits="userSpaceOnUse">
<stop stop-color="#1F5CD7"/>
<stop offset="1" stop-color="#02AEFF"/>
</linearGradient>
</defs>
</svg>
