<svg width="127" height="101" viewBox="0 0 127 101" fill="none" xmlns="http://www.w3.org/2000/svg">
<path fill-rule="evenodd" clip-rule="evenodd" d="M23.6573 99.0833C11.4015 99.0833 1.46631 89.3738 1.46631 77.3966C1.46631 65.4195 11.4015 55.71 23.6573 55.71C24.1784 55.71 24.6954 55.7276 25.2076 55.7621C24.8517 53.7812 24.666 51.7413 24.666 49.6579C24.666 30.7172 40.0204 15.3628 58.9611 15.3628C74.0823 15.3628 86.9178 25.149 91.4796 38.7334C92.5604 38.6204 93.658 38.5624 94.7693 38.5624C111.76 38.5624 125.534 52.1105 125.534 68.8229C125.534 84.7001 113.102 97.7996 97.291 99.0613V99.0833H40.3084H23.6573ZM35.7574 99.0833H28.7323H35.7574Z" fill="#22242B"/>
<path d="M35.7574 99.0833H28.7323M23.6573 99.0833C11.4015 99.0833 1.46631 89.3738 1.46631 77.3966C1.46631 65.4195 11.4015 55.71 23.6573 55.71C24.1784 55.71 24.6954 55.7276 25.2076 55.7621C24.8517 53.7812 24.666 51.7413 24.666 49.6579C24.666 30.7173 40.0204 15.3628 58.9611 15.3628C74.0823 15.3628 86.9178 25.149 91.4796 38.7334C92.5604 38.6204 93.6579 38.5624 94.7693 38.5624C111.76 38.5624 125.534 52.1105 125.534 68.8229C125.534 84.7001 113.102 97.7996 97.291 99.0613V99.0833H40.3084H23.6573Z" stroke="#4d94ff" stroke-width="2.91667" stroke-linecap="round"/>
<path fill-rule="evenodd" clip-rule="evenodd" d="M48.4832 22.7691C48.4832 55.2719 77.7556 82.0547 115.447 85.6706C110.724 91.4789 103.429 95.4192 95.1191 96.0383V96.0572H27.4328C19.2204 96.0572 5.50098 92.5971 5.50098 77.4453C5.50098 62.2936 16.1669 58.8335 27.4328 58.8335C27.9118 58.8335 28.3871 58.8486 28.8579 58.8782C28.5307 57.1782 28.4732 55.4259 28.36 53.6395C27.5949 41.5724 32.8594 26.3644 48.5014 21.4148C48.4889 21.866 48.4832 22.317 48.4832 22.7691ZM59.0784 73.622C56.0133 73.622 53.5285 76.0774 53.5285 79.1062C53.5285 82.135 56.0133 84.5903 59.0784 84.5903C62.1435 84.5903 64.6282 82.135 64.6282 79.1062C64.6282 76.0774 62.1435 73.622 59.0784 73.622Z" fill="#252F44" fill-opacity="0.5"/>
<path d="M59.4657 84.9617C62.5296 84.9617 65.0135 82.4779 65.0135 79.414C65.0135 76.35 62.5296 73.8662 59.4657 73.8662C56.4018 73.8662 53.918 76.35 53.918 79.414C53.918 82.4779 56.4018 84.9617 59.4657 84.9617Z" stroke="#4d94ff" stroke-width="2.91667"/>
<path d="M43.8311 67.8143L50.8918 62.2734L43.8311 56.9988" stroke="#4d94ff" stroke-width="2.91667" stroke-linecap="round" stroke-linejoin="round"/>
<path d="M75.1001 67.8143L68.0393 62.2734L75.1001 56.9988" stroke="#4d94ff" stroke-width="2.91667" stroke-linecap="round" stroke-linejoin="round"/>
<path d="M69.048 25.4497C75.6134 27.1872 80.7973 32.3217 82.605 38.8583" stroke="#4d94ff" stroke-width="2.91667" stroke-linecap="round"/>
<path d="M90.2301 8.30208C91.9014 8.30208 93.2562 6.94728 93.2562 5.27604C93.2562 3.6048 91.9014 2.25 90.2301 2.25C88.5589 2.25 87.2041 3.6048 87.2041 5.27604C87.2041 6.94728 88.5589 8.30208 90.2301 8.30208Z" stroke="#4d94ff" stroke-width="2.91667"/>
<path d="M121.499 24.441C123.17 24.441 124.525 23.0862 124.525 21.415C124.525 19.7437 123.17 18.3889 121.499 18.3889C119.828 18.3889 118.473 19.7437 118.473 21.415C118.473 23.0862 119.828 24.441 121.499 24.441Z" fill="#4d94ff"/>
<path d="M98.0547 16.1267L106.485 24.5575M106.614 16.1267L98.1829 24.5575L106.614 16.1267Z" stroke="#4d94ff" stroke-width="2.91667" stroke-linecap="round" stroke-linejoin="round"/>
<path d="M2.88232 34.1204L8.93441 40.1724M8.93441 34.1204L2.88232 40.1724L8.93441 34.1204Z" stroke="#4d94ff" stroke-width="2.91667" stroke-linecap="round" stroke-linejoin="round"/>
<path d="M16.5964 27.4669C18.2676 27.4669 19.6224 26.1121 19.6224 24.4408C19.6224 22.7696 18.2676 21.4148 16.5964 21.4148C14.9251 21.4148 13.5703 22.7696 13.5703 24.4408C13.5703 26.1121 14.9251 27.4669 16.5964 27.4669Z" fill="#4d94ff"/>
</svg>
