<svg width="127" height="101" viewBox="0 0 127 101" fill="none" xmlns="http://www.w3.org/2000/svg">
<path fill-rule="evenodd" clip-rule="evenodd" d="M23.6573 99.0838C11.4015 99.0838 1.46631 89.3743 1.46631 77.3971C1.46631 65.4199 11.4015 55.7105 23.6573 55.7105C24.1784 55.7105 24.6954 55.7281 25.2076 55.7626C24.8517 53.7817 24.666 51.7418 24.666 49.6584C24.666 30.7177 40.0204 15.3633 58.9611 15.3633C74.0823 15.3633 86.9178 25.1495 91.4796 38.7339C92.5604 38.6209 93.658 38.5629 94.7693 38.5629C111.76 38.5629 125.534 52.111 125.534 68.8234C125.534 84.7006 113.102 97.8001 97.291 99.0618V99.0838H40.3084H23.6573ZM35.7574 99.0838H28.7323H35.7574Z" fill="white"/>
<path d="M35.7574 99.0838H28.7323M23.6573 99.0838C11.4015 99.0838 1.46631 89.3743 1.46631 77.3971C1.46631 65.4199 11.4015 55.7105 23.6573 55.7105C24.1784 55.7105 24.6954 55.7281 25.2076 55.7626C24.8517 53.7817 24.666 51.7418 24.666 49.6584C24.666 30.7177 40.0204 15.3633 58.9611 15.3633C74.0823 15.3633 86.9178 25.1495 91.4796 38.7339C92.5604 38.6209 93.6579 38.5629 94.7693 38.5629C111.76 38.5629 125.534 52.111 125.534 68.8234C125.534 84.7006 113.102 97.8001 97.291 99.0618V99.0838H40.3084H23.6573Z" stroke="#0066FF" stroke-width="2.91667" stroke-linecap="round"/>
<path fill-rule="evenodd" clip-rule="evenodd" d="M48.4832 22.7693C48.4832 55.2721 77.7556 82.0549 115.447 85.6709C110.724 91.4791 103.429 95.4194 95.1191 96.0385V96.0574H27.4328C19.2204 96.0574 5.50098 92.5973 5.50098 77.4456C5.50098 62.2938 16.1669 58.8337 27.4328 58.8337C27.9118 58.8337 28.3871 58.8488 28.8579 58.8785C28.5307 57.1784 28.4732 55.4261 28.36 53.6397C27.5949 41.5727 32.8594 26.3646 48.5014 21.415C48.4889 21.8663 48.4832 22.3172 48.4832 22.7693ZM59.0784 73.6223C56.0133 73.6223 53.5285 76.0776 53.5285 79.1064C53.5285 82.1352 56.0133 84.5905 59.0784 84.5905C62.1435 84.5905 64.6282 82.1352 64.6282 79.1064C64.6282 76.0776 62.1435 73.6223 59.0784 73.6223Z" fill="#F3F8FF"/>
<path d="M59.4657 84.9617C62.5296 84.9617 65.0135 82.4779 65.0135 79.414C65.0135 76.35 62.5296 73.8662 59.4657 73.8662C56.4018 73.8662 53.918 76.35 53.918 79.414C53.918 82.4779 56.4018 84.9617 59.4657 84.9617Z" stroke="#0066FF" stroke-width="2.91667"/>
<path d="M43.8311 67.8145L50.8918 62.2737L43.8311 56.999" stroke="#0066FF" stroke-width="2.91667" stroke-linecap="round" stroke-linejoin="round"/>
<path d="M75.1001 67.8145L68.0393 62.2737L75.1001 56.999" stroke="#0066FF" stroke-width="2.91667" stroke-linecap="round" stroke-linejoin="round"/>
<path d="M69.048 25.4492C75.6134 27.1867 80.7973 32.3212 82.605 38.8578" stroke="#0066FF" stroke-width="2.91667" stroke-linecap="round"/>
<path d="M90.2301 8.30208C91.9014 8.30208 93.2562 6.94728 93.2562 5.27604C93.2562 3.6048 91.9014 2.25 90.2301 2.25C88.5589 2.25 87.2041 3.6048 87.2041 5.27604C87.2041 6.94728 88.5589 8.30208 90.2301 8.30208Z" stroke="#0066FF" stroke-width="2.91667"/>
<path d="M121.499 24.4408C123.17 24.4408 124.525 23.0859 124.525 21.4147C124.525 19.7435 123.17 18.3887 121.499 18.3887C119.828 18.3887 118.473 19.7435 118.473 21.4147C118.473 23.0859 119.828 24.4408 121.499 24.4408Z" fill="#0066FF"/>
<path d="M98.0547 16.127L106.485 24.5577M106.614 16.127L98.1829 24.5577L106.614 16.127Z" stroke="#0066FF" stroke-width="2.91667" stroke-linecap="round" stroke-linejoin="round"/>
<path d="M2.88232 34.1201L8.93441 40.1722M8.93441 34.1201L2.88232 40.1722L8.93441 34.1201Z" stroke="#0066FF" stroke-width="2.91667" stroke-linecap="round" stroke-linejoin="round"/>
<path d="M16.5964 27.4671C18.2676 27.4671 19.6224 26.1123 19.6224 24.4411C19.6224 22.7698 18.2676 21.415 16.5964 21.415C14.9251 21.415 13.5703 22.7698 13.5703 24.4411C13.5703 26.1123 14.9251 27.4671 16.5964 27.4671Z" fill="#0066FF"/>
</svg>
