<svg width="1400" height="179" viewBox="0 0 1400 179" fill="none" xmlns="http://www.w3.org/2000/svg">
<path d="M-13.9725 182V3.19998H61.6275C73.9475 3.19998 84.5075 5.27999 93.3075 9.43999C102.108 13.6 108.828 19.6 113.468 27.44C118.108 35.12 120.428 44.48 120.428 55.52C120.428 63.36 118.268 70.88 113.948 78.08C109.628 85.12 102.508 91.04 92.5875 95.84V77.6C102.028 81.28 109.308 85.68 114.428 90.8C119.548 95.92 123.068 101.52 124.988 107.6C126.908 113.52 127.868 119.76 127.868 126.32C127.868 143.92 122.028 157.6 110.348 167.36C98.6675 177.12 82.4275 182 61.6275 182H-13.9725ZM23.2275 149.6H65.9475C73.4675 149.6 79.4675 147.44 83.9475 143.12C88.4275 138.8 90.6675 133.2 90.6675 126.32C90.6675 119.28 88.4275 113.6 83.9475 109.28C79.4675 104.96 73.4675 102.8 65.9475 102.8H23.2275V149.6ZM23.2275 70.4H64.2675C70.0275 70.4 74.5875 68.8 77.9475 65.6C81.4675 62.24 83.2275 57.84 83.2275 52.4C83.2275 46.96 81.4675 42.64 77.9475 39.44C74.5875 36.08 70.0275 34.4 64.2675 34.4H23.2275V70.4ZM151.731 182V3.19998H188.931V182H151.731ZM252.797 182V35.6H207.437V3.19998H334.637V35.6H289.997V182H252.797ZM430.753 184.88C417.953 184.88 406.033 182.56 394.993 177.92C384.113 173.28 374.593 166.8 366.433 158.48C358.273 150.16 351.873 140.4 347.233 129.2C342.753 118 340.513 105.76 340.513 92.48C340.513 79.2 342.753 66.96 347.233 55.76C351.713 44.4 358.033 34.64 366.193 26.48C374.353 18.16 383.873 11.76 394.753 7.27999C405.793 2.63999 417.793 0.319993 430.753 0.319993C443.713 0.319993 455.313 2.47999 465.553 6.8C475.953 11.12 484.753 16.88 491.953 24.08C499.153 31.28 504.273 39.28 507.313 48.08L474.433 63.92C471.393 55.28 466.033 48.16 458.353 42.56C450.833 36.8 441.633 33.92 430.753 33.92C420.193 33.92 410.913 36.4 402.913 41.36C394.913 46.32 388.673 53.2 384.193 62C379.873 70.64 377.713 80.8 377.713 92.48C377.713 104.16 379.873 114.4 384.193 123.2C388.673 132 394.913 138.88 402.913 143.84C410.913 148.8 420.193 151.28 430.753 151.28C441.633 151.28 450.833 148.48 458.353 142.88C466.033 137.12 471.393 129.92 474.433 121.28L507.313 137.12C504.273 145.92 499.153 153.92 491.953 161.12C484.753 168.32 475.953 174.08 465.553 178.4C455.313 182.72 443.713 184.88 430.753 184.88ZM620.704 184.88C607.264 184.88 594.784 182.56 583.264 177.92C571.744 173.28 561.664 166.8 553.024 158.48C544.544 150 537.904 140.16 533.104 128.96C528.304 117.76 525.904 105.6 525.904 92.48C525.904 79.36 528.224 67.2 532.864 56C537.664 44.8 544.304 35.04 552.784 26.72C561.424 18.4 571.504 11.92 583.024 7.27999C594.544 2.63999 607.104 0.319993 620.704 0.319993C634.304 0.319993 646.864 2.63999 658.384 7.27999C669.904 11.92 679.904 18.4 688.384 26.72C697.024 35.04 703.664 44.8 708.304 56C713.104 67.2 715.504 79.36 715.504 92.48C715.504 105.6 713.104 117.76 708.304 128.96C703.504 140.16 696.784 150 688.144 158.48C679.664 166.8 669.664 173.28 658.144 177.92C646.624 182.56 634.144 184.88 620.704 184.88ZM620.704 151.28C628.864 151.28 636.384 149.84 643.264 146.96C650.304 144.08 656.464 140.08 661.744 134.96C667.024 129.68 671.104 123.44 673.984 116.24C676.864 109.04 678.304 101.12 678.304 92.48C678.304 83.84 676.864 76 673.984 68.96C671.104 61.76 667.024 55.52 661.744 50.24C656.464 44.96 650.304 40.96 643.264 38.24C636.384 35.36 628.864 33.92 620.704 33.92C612.544 33.92 604.944 35.36 597.904 38.24C591.024 40.96 584.944 44.96 579.664 50.24C574.384 55.52 570.304 61.76 567.424 68.96C564.544 76 563.104 83.84 563.104 92.48C563.104 101.12 564.544 109.04 567.424 116.24C570.304 123.44 574.384 129.68 579.664 134.96C584.944 140.08 591.024 144.08 597.904 146.96C604.944 149.84 612.544 151.28 620.704 151.28ZM741.887 182V3.19998H779.087V182H741.887ZM810.793 182V3.19998H839.353L935.353 129.68L919.993 133.28V3.19998H957.193V182H928.393L834.073 54.56L847.993 50.96V182H810.793ZM1032.04 182V3.19998H1152.28V35.6H1069.24V76.16H1147.48V108.56H1069.24V149.6H1152.28V182H1032.04ZM1205.53 182V35.6H1160.17V3.19998H1287.37V35.6H1242.73V182H1205.53ZM1305.79 182V3.19998H1428.19V35.6H1342.99V80.96H1416.19V113.36H1342.99V182H1305.79Z" fill="#074DFF"/>
</svg>
