<svg width="190" height="32" viewBox="0 0 190 32" fill="none" xmlns="http://www.w3.org/2000/svg">
<g clip-path="url(#clip0_4937_19929)">
<path d="M31.5197 19.8708C29.3827 28.4423 20.7012 33.6588 12.1287 31.5213C3.55968 29.3843 -1.65682 20.7023 0.481183 12.1313C2.61718 3.5588 11.2987 -1.6582 19.8687 0.478798C28.4407 2.6158 33.6567 11.2988 31.5197 19.8708Z" fill="#F7931A"/>
<path d="M23.0547 13.7207C23.3732 11.5917 21.7522 10.4472 19.5357 9.6837L20.2547 6.7997L18.4992 6.3622L17.7992 9.1702C17.3377 9.0552 16.8637 8.9467 16.3927 8.8392L17.0977 6.0127L15.3432 5.5752L14.6237 8.4582C14.2417 8.3712 13.8667 8.2852 13.5027 8.1947L13.5047 8.1857L11.0837 7.5812L10.6167 9.4562C10.6167 9.4562 11.9192 9.7547 11.8917 9.7732C12.6027 9.9507 12.7312 10.4212 12.7097 10.7942L11.8907 14.0797C11.9397 14.0922 12.0032 14.1102 12.0732 14.1382C12.0147 14.1237 11.9522 14.1077 11.8877 14.0922L10.7397 18.6947C10.6527 18.9107 10.4322 19.2347 9.93522 19.1117C9.95272 19.1372 8.65922 18.7932 8.65922 18.7932L7.78772 20.8027L10.0722 21.3722C10.4972 21.4787 10.9137 21.5902 11.3237 21.6952L10.5972 24.6122L12.3507 25.0497L13.0702 22.1637C13.5492 22.2937 14.0142 22.4137 14.4692 22.5267L13.7522 25.3992L15.5077 25.8367L16.2342 22.9252C19.2277 23.4917 21.4787 23.2632 22.4262 20.5557C23.1897 18.3757 22.3882 17.1182 20.8132 16.2982C21.9602 16.0337 22.8242 15.2792 23.0547 13.7207ZM19.0437 19.3452C18.5012 21.5252 14.8307 20.3467 13.6407 20.0512L14.6047 16.1867C15.7947 16.4837 19.6107 17.0717 19.0437 19.3452ZM19.5867 13.6892C19.0917 15.6722 16.0367 14.6647 15.0457 14.4177L15.9197 10.9127C16.9107 11.1597 20.1022 11.6207 19.5867 13.6892Z" fill="white"/>
</g>
<path d="M47.7226 22.3576C46.8693 22.3576 45.9946 22.322 45.0986 22.2509C44.2026 22.1798 43.392 22.066 42.6666 21.9096L46.08 7.61622C46.8906 7.45977 47.7368 7.35311 48.6186 7.29622C49.5146 7.23933 50.3324 7.21089 51.072 7.21089C51.9253 7.21089 52.6577 7.30333 53.2693 7.48822C53.8951 7.65889 54.4 7.89355 54.784 8.19222C55.1822 8.49089 55.4737 8.84644 55.6586 9.25889C55.8577 9.65711 55.9573 10.0838 55.9573 10.5389C55.9573 10.8518 55.9217 11.1789 55.8506 11.5202C55.7937 11.8616 55.6657 12.2029 55.4666 12.5442C55.2817 12.8713 55.0186 13.1842 54.6773 13.4829C54.3502 13.7816 53.9164 14.0518 53.376 14.2936C54.016 14.578 54.4853 14.9691 54.784 15.4669C55.0826 15.9504 55.232 16.4909 55.232 17.0882C55.232 17.7709 55.0968 18.4322 54.8266 19.0722C54.5564 19.698 54.1226 20.2598 53.5253 20.7576C52.928 21.2411 52.1529 21.6322 51.2 21.9309C50.2471 22.2153 49.088 22.3576 47.7226 22.3576ZM47.424 15.7016L46.5066 19.5416C46.7342 19.5842 47.0186 19.6198 47.36 19.6482C47.7155 19.6624 48.0426 19.6696 48.3413 19.6696C48.768 19.6696 49.1875 19.6411 49.6 19.5842C50.0266 19.5131 50.4035 19.3922 50.7306 19.2216C51.072 19.0509 51.3493 18.8162 51.5626 18.5176C51.776 18.2189 51.8826 17.8349 51.8826 17.3656C51.8826 17.1664 51.84 16.9673 51.7546 16.7682C51.6835 16.5691 51.5626 16.3913 51.392 16.2349C51.2213 16.0784 50.9937 15.9504 50.7093 15.8509C50.4391 15.7513 50.112 15.7016 49.728 15.7016H47.424ZM48.0426 13.2056H50.1333C50.9866 13.2056 51.6195 13.0207 52.032 12.6509C52.4586 12.2811 52.672 11.8402 52.672 11.3282C52.672 11.058 52.608 10.8304 52.48 10.6456C52.3662 10.4464 52.2097 10.29 52.0106 10.1762C51.8115 10.0624 51.584 9.98422 51.328 9.94155C51.072 9.88466 50.8088 9.85622 50.5386 9.85622C50.24 9.85622 49.92 9.87044 49.5786 9.89889C49.2373 9.91311 48.9813 9.93444 48.8106 9.96289L48.0426 13.2056Z" fill="#22242B"/>
<path d="M59.759 22.1656H56.6016L59.2683 10.9442H62.447L59.759 22.1656ZM61.295 9.57889C60.8541 9.57889 60.4558 9.45089 60.1003 9.19489C59.7447 8.92466 59.567 8.51933 59.567 7.97889C59.567 7.68022 59.6238 7.40289 59.7376 7.14688C59.8656 6.87666 60.0292 6.64911 60.2283 6.46422C60.4274 6.26511 60.655 6.10866 60.911 5.99489C61.1812 5.88111 61.4656 5.82422 61.7643 5.82422C62.2052 5.82422 62.6034 5.95933 62.959 6.22955C63.3145 6.48555 63.4923 6.88377 63.4923 7.42422C63.4923 7.72289 63.4283 8.00733 63.3003 8.27755C63.1865 8.53355 63.0301 8.76111 62.831 8.96022C62.6318 9.14511 62.3972 9.29444 62.127 9.40822C61.871 9.522 61.5936 9.57889 61.295 9.57889Z" fill="#22242B"/>
<path d="M65.694 8.14955L69.0006 7.63755L68.19 10.9442H71.7313L71.0913 13.5469H67.5713L66.6326 17.4722C66.5473 17.7993 66.4904 18.1051 66.462 18.3896C66.4477 18.674 66.4833 18.9229 66.5686 19.1362C66.6682 19.3353 66.8317 19.4918 67.0593 19.6056C67.2868 19.7193 67.5997 19.7762 67.998 19.7762C68.3393 19.7762 68.6664 19.7478 68.9793 19.6909C69.3064 19.6198 69.6335 19.5273 69.9606 19.4136L70.1953 21.8456C69.7686 22.002 69.3064 22.1371 68.8086 22.2509C68.3109 22.3647 67.7206 22.4216 67.038 22.4216C66.0566 22.4216 65.2957 22.2793 64.7553 21.9949C64.2148 21.6962 63.8308 21.298 63.6033 20.8002C63.3757 20.2882 63.2762 19.7051 63.3046 19.0509C63.3331 18.3967 63.4326 17.7069 63.6033 16.9816L65.694 8.14955Z" fill="#22242B"/>
<path d="M71.8458 17.6856C71.8458 16.7184 72.0022 15.8082 72.3151 14.9549C72.628 14.1016 73.076 13.3549 73.6591 12.7149C74.2422 12.0749 74.9462 11.57 75.7711 11.2002C76.6102 10.8304 77.5418 10.6456 78.5658 10.6456C79.2058 10.6456 79.7747 10.7096 80.2725 10.8376C80.7845 10.9513 81.2467 11.1078 81.6591 11.3069L80.5711 13.7816C80.2867 13.6678 79.988 13.5682 79.6751 13.4829C79.3765 13.3833 79.0067 13.3336 78.5658 13.3336C77.4991 13.3336 76.66 13.6962 76.0485 14.4216C75.4369 15.1327 75.1311 16.1069 75.1311 17.3442C75.1311 18.0696 75.2876 18.6598 75.6005 19.1149C75.9133 19.5558 76.4893 19.7762 77.3285 19.7762C77.7409 19.7762 78.1391 19.7336 78.5231 19.6482C78.9071 19.5629 79.2485 19.4562 79.5471 19.3282L79.7818 21.8669C79.3836 22.0233 78.9427 22.1584 78.4591 22.2722C77.9898 22.4002 77.4138 22.4642 76.7311 22.4642C75.8493 22.4642 75.1027 22.3362 74.4911 22.0802C73.8796 21.8242 73.3747 21.4829 72.9765 21.0562C72.5782 20.6153 72.2867 20.1033 72.1018 19.5202C71.9311 18.9371 71.8458 18.3256 71.8458 17.6856Z" fill="#22242B"/>
<path d="M85.9915 22.4642C85.2377 22.4642 84.5835 22.3504 84.0288 22.1229C83.4741 21.8953 83.0119 21.5753 82.6421 21.1629C82.2866 20.7504 82.0163 20.2669 81.8315 19.7122C81.6466 19.1433 81.5541 18.5176 81.5541 17.8349C81.5541 16.9816 81.6892 16.1282 81.9595 15.2749C82.2439 14.4216 82.6563 13.6536 83.1968 12.9709C83.7372 12.2882 84.3986 11.7336 85.1808 11.3069C85.963 10.866 86.859 10.6456 87.8688 10.6456C88.6084 10.6456 89.2555 10.7593 89.8101 10.9869C90.379 11.2144 90.8412 11.5344 91.1968 11.9469C91.5666 12.3593 91.8439 12.85 92.0288 13.4189C92.2137 13.9736 92.3061 14.5922 92.3061 15.2749C92.3061 16.1282 92.171 16.9816 91.9008 17.8349C91.6306 18.6882 91.2323 19.4562 90.7061 20.1389C90.1799 20.8216 89.5186 21.3833 88.7221 21.8242C87.9399 22.2509 87.0297 22.4642 85.9915 22.4642ZM87.5701 13.3336C87.1008 13.3336 86.6884 13.4687 86.3328 13.7389C85.9772 14.0091 85.6786 14.3504 85.4368 14.7629C85.195 15.1753 85.0101 15.6304 84.8821 16.1282C84.7683 16.6118 84.7115 17.074 84.7115 17.5149C84.7115 18.2402 84.8252 18.802 85.0528 19.2002C85.2803 19.5842 85.6928 19.7762 86.2901 19.7762C86.7595 19.7762 87.1719 19.6411 87.5275 19.3709C87.883 19.1007 88.1817 18.7593 88.4235 18.3469C88.6652 17.9344 88.843 17.4864 88.9568 17.0029C89.0848 16.5051 89.1488 16.0358 89.1488 15.5949C89.1488 14.8696 89.035 14.3149 88.8075 13.9309C88.5799 13.5327 88.1675 13.3336 87.5701 13.3336Z" fill="#22242B"/>
<path d="M96.3215 22.1656H93.1641L95.8308 10.9442H99.0095L96.3215 22.1656ZM97.8575 9.57889C97.4166 9.57889 97.0183 9.45089 96.6628 9.19489C96.3072 8.92466 96.1295 8.51933 96.1295 7.97889C96.1295 7.68022 96.1863 7.40289 96.3001 7.14688C96.4281 6.87666 96.5917 6.64911 96.7908 6.46422C96.9899 6.26511 97.2175 6.10866 97.4735 5.99489C97.7437 5.88111 98.0281 5.82422 98.3268 5.82422C98.7677 5.82422 99.1659 5.95933 99.5215 6.22955C99.877 6.48555 100.055 6.88377 100.055 7.42422C100.055 7.72289 99.9908 8.00733 99.8628 8.27755C99.749 8.53355 99.5926 8.76111 99.3935 8.96022C99.1943 9.14511 98.9597 9.29444 98.6895 9.40822C98.4335 9.522 98.1561 9.57889 97.8575 9.57889Z" fill="#22242B"/>
<path d="M101.787 11.4562C102.029 11.3851 102.292 11.3069 102.576 11.2216C102.875 11.122 103.202 11.0367 103.558 10.9656C103.928 10.8802 104.333 10.8162 104.774 10.7736C105.229 10.7167 105.741 10.6882 106.31 10.6882C107.988 10.6882 109.14 11.1718 109.766 12.1389C110.392 13.106 110.498 14.4287 110.086 16.1069L108.635 22.1656H105.456L106.864 16.2349C106.95 15.8651 107.014 15.5096 107.056 15.1682C107.113 14.8127 107.113 14.5069 107.056 14.2509C107 13.9807 106.864 13.7673 106.651 13.6109C106.452 13.4402 106.139 13.3549 105.712 13.3549C105.3 13.3549 104.88 13.3976 104.454 13.4829L102.384 22.1656H99.2058L101.787 11.4562Z" fill="#22242B"/>
<path d="M111.417 22.1656L114.958 7.38155H124.622L123.939 10.1122H117.603L116.921 13.0989H122.51L121.849 15.7869H116.259L115.406 19.4136H122.233L121.55 22.1656H111.417Z" fill="#22242B"/>
<path d="M138.249 7.38155L137.566 10.1762H133.235L130.355 22.1656H127.027L129.907 10.1762H125.577L126.259 7.38155H138.249Z" fill="#22242B"/>
<path d="M136.75 22.1656L140.291 7.38155H149.87L149.187 10.1336H142.937L142.19 13.2909H147.715L147.054 16.0429H141.529L140.057 22.1656H136.75Z" fill="#22242B"/>
<path d="M149.563 18.5176C150.061 18.5176 150.474 18.6598 150.801 18.9442C151.142 19.2144 151.313 19.6482 151.313 20.2456C151.313 20.5727 151.249 20.8713 151.121 21.1416C151.007 21.4118 150.85 21.6464 150.651 21.8456C150.452 22.0304 150.225 22.1727 149.969 22.2722C149.713 22.386 149.45 22.4429 149.179 22.4429C148.682 22.4429 148.262 22.3078 147.921 22.0376C147.594 21.7531 147.43 21.3122 147.43 20.7149C147.43 20.3878 147.487 20.0891 147.601 19.8189C147.729 19.5487 147.892 19.3211 148.091 19.1362C148.29 18.9371 148.518 18.7878 148.774 18.6882C149.03 18.5744 149.293 18.5176 149.563 18.5176Z" fill="#22242B"/>
<path d="M157.679 22.4642C156.925 22.4642 156.271 22.3504 155.716 22.1229C155.162 21.8953 154.699 21.5753 154.33 21.1629C153.974 20.7504 153.704 20.2669 153.519 19.7122C153.334 19.1433 153.242 18.5176 153.242 17.8349C153.242 16.9816 153.377 16.1282 153.647 15.2749C153.931 14.4216 154.344 13.6536 154.884 12.9709C155.425 12.2882 156.086 11.7336 156.868 11.3069C157.651 10.866 158.547 10.6456 159.556 10.6456C160.296 10.6456 160.943 10.7593 161.498 10.9869C162.067 11.2144 162.529 11.5344 162.884 11.9469C163.254 12.3593 163.531 12.85 163.716 13.4189C163.901 13.9736 163.994 14.5922 163.994 15.2749C163.994 16.1282 163.859 16.9816 163.588 17.8349C163.318 18.6882 162.92 19.4562 162.394 20.1389C161.867 20.8216 161.206 21.3833 160.41 21.8242C159.627 22.2509 158.717 22.4642 157.679 22.4642ZM159.258 13.3336C158.788 13.3336 158.376 13.4687 158.02 13.7389C157.665 14.0091 157.366 14.3504 157.124 14.7629C156.883 15.1753 156.698 15.6304 156.57 16.1282C156.456 16.6118 156.399 17.074 156.399 17.5149C156.399 18.2402 156.513 18.802 156.74 19.2002C156.968 19.5842 157.38 19.7762 157.978 19.7762C158.447 19.7762 158.859 19.6411 159.215 19.3709C159.571 19.1007 159.869 18.7593 160.111 18.3469C160.353 17.9344 160.531 17.4864 160.644 17.0029C160.772 16.5051 160.836 16.0358 160.836 15.5949C160.836 14.8696 160.723 14.3149 160.495 13.9309C160.267 13.5327 159.855 13.3336 159.258 13.3336Z" fill="#22242B"/>
<path d="M173.428 13.6749C173.143 13.6038 172.859 13.5398 172.574 13.4829C172.304 13.4118 171.899 13.3762 171.358 13.3762C171.159 13.3762 170.939 13.3976 170.697 13.4402C170.455 13.4687 170.256 13.5042 170.1 13.5469L168.03 22.1656H164.852L167.412 11.5416C168.023 11.3424 168.706 11.1576 169.46 10.9869C170.228 10.802 171.088 10.7096 172.041 10.7096C172.397 10.7096 172.788 10.7451 173.214 10.8162C173.655 10.8731 174.039 10.9727 174.366 11.1149L173.428 13.6749Z" fill="#22242B"/>
<path d="M183.287 20.7576C183.074 21.682 182.789 22.4784 182.434 23.1469C182.092 23.8296 181.659 24.3913 181.132 24.8322C180.62 25.2873 180.002 25.6216 179.276 25.8349C178.551 26.0624 177.705 26.1762 176.738 26.1762C175.842 26.1762 175.088 26.0909 174.476 25.9202C173.865 25.7638 173.31 25.5647 172.812 25.3229L173.879 22.8056C174.32 23.0047 174.775 23.1753 175.244 23.3176C175.728 23.4598 176.318 23.5309 177.015 23.5309C177.925 23.5309 178.608 23.3247 179.063 22.9122C179.532 22.514 179.838 21.9949 179.98 21.3549L180.066 20.9496C179.781 21.0918 179.475 21.2056 179.148 21.2909C178.835 21.3762 178.501 21.4189 178.146 21.4189C177.477 21.4189 176.901 21.3193 176.418 21.1202C175.934 20.9069 175.536 20.6153 175.223 20.2456C174.924 19.8758 174.697 19.442 174.54 18.9442C174.398 18.4322 174.327 17.8776 174.327 17.2802C174.327 16.1993 174.526 15.2464 174.924 14.4216C175.323 13.5824 175.849 12.8856 176.503 12.3309C177.171 11.7762 177.932 11.3567 178.786 11.0722C179.653 10.7878 180.556 10.6456 181.495 10.6456C182.178 10.6456 182.853 10.7167 183.522 10.8589C184.19 11.0011 184.844 11.2216 185.484 11.5202L183.287 20.7576ZM181.879 13.3976C181.637 13.3407 181.339 13.3122 180.983 13.3122C180.443 13.3122 179.959 13.4118 179.532 13.6109C179.106 13.7958 178.736 14.0518 178.423 14.3789C178.124 14.706 177.89 15.1042 177.719 15.5736C177.563 16.0287 177.484 16.5193 177.484 17.0456C177.484 17.3016 177.506 17.5433 177.548 17.7709C177.591 17.9842 177.669 18.1762 177.783 18.3469C177.897 18.5033 178.053 18.6313 178.252 18.7309C178.451 18.8304 178.7 18.8802 178.999 18.8802C179.198 18.8802 179.461 18.8447 179.788 18.7736C180.13 18.7024 180.435 18.5389 180.706 18.2829L181.879 13.3976Z" fill="#22242B"/>
<defs>
<clipPath id="clip0_4937_19929">
<rect width="32" height="32" fill="white"/>
</clipPath>
</defs>
</svg>
