<svg width="143" height="24" viewBox="0 0 143 24" fill="none" xmlns="http://www.w3.org/2000/svg">
<g clip-path="url(#clip0_4937_20926)">
<path d="M24.1398 14.9031C22.537 21.3317 16.0259 25.2441 9.59651 23.641C3.16976 22.0382 -0.742612 15.5267 0.860888 9.09847C2.46289 2.6691 8.97401 -1.24365 15.4015 0.359098C21.8305 1.96185 25.7425 8.4741 24.1398 14.9031Z" fill="#F7931A"/>
<path d="M17.7911 10.2908C18.0299 8.69402 16.8142 7.83564 15.1518 7.26302L15.6911 5.10002L14.3744 4.77189L13.8494 6.87789C13.5033 6.79164 13.1478 6.71027 12.7946 6.62964L13.3233 4.50977L12.0074 4.18164L11.4678 6.34389C11.1813 6.27864 10.9001 6.21414 10.6271 6.14627L10.6286 6.13952L8.81282 5.68614L8.46257 7.09239C8.46257 7.09239 9.43945 7.31627 9.41882 7.33014C9.95207 7.46327 10.0484 7.81614 10.0323 8.09589L9.41807 10.56C9.45482 10.5694 9.50244 10.5829 9.55494 10.6039C9.51107 10.593 9.46419 10.581 9.41582 10.5694L8.55482 14.0213C8.48957 14.1833 8.3242 14.4263 7.95145 14.334C7.96457 14.3531 6.99445 14.0951 6.99445 14.0951L6.34082 15.6023L8.0542 16.0294C8.37295 16.1093 8.68532 16.1929 8.99282 16.2716L8.44794 18.4594L9.76307 18.7875L10.3027 16.623C10.6619 16.7205 11.0107 16.8105 11.3519 16.8953L10.8142 19.0496L12.1308 19.3778L12.6757 17.1941C14.9208 17.619 16.6091 17.4476 17.3197 15.417C17.8923 13.782 17.2912 12.8389 16.1099 12.2239C16.9702 12.0255 17.6182 11.4596 17.7911 10.2908ZM14.7828 14.5091C14.3759 16.1441 11.6231 15.2603 10.7306 15.0386L11.4536 12.1403C12.3461 12.363 15.2081 12.804 14.7828 14.5091ZM15.1901 10.2671C14.8188 11.7544 12.5276 10.9988 11.7843 10.8135L12.4398 8.18477C13.1831 8.37002 15.5767 8.71577 15.1901 10.2671Z" fill="white"/>
</g>
<path d="M36.292 16.7682C35.652 16.7682 34.996 16.7415 34.324 16.6882C33.652 16.6348 33.044 16.5495 32.5 16.4322L35.06 5.71216C35.668 5.59483 36.3027 5.51483 36.964 5.47216C37.636 5.4295 38.2493 5.40816 38.804 5.40816C39.444 5.40816 39.9933 5.4775 40.452 5.61616C40.9213 5.74416 41.3 5.92016 41.588 6.14416C41.8867 6.36816 42.1053 6.63483 42.244 6.94416C42.3933 7.24283 42.468 7.56283 42.468 7.90416C42.468 8.13883 42.4413 8.38416 42.388 8.64016C42.3453 8.89616 42.2493 9.15216 42.1 9.40816C41.9613 9.6535 41.764 9.88816 41.508 10.1122C41.2627 10.3362 40.9373 10.5388 40.532 10.7202C41.012 10.9335 41.364 11.2268 41.588 11.6002C41.812 11.9628 41.924 12.3682 41.924 12.8162C41.924 13.3282 41.8227 13.8242 41.62 14.3042C41.4173 14.7735 41.092 15.1948 40.644 15.5682C40.196 15.9308 39.6147 16.2242 38.9 16.4482C38.1853 16.6615 37.316 16.7682 36.292 16.7682ZM36.068 11.7762L35.38 14.6562C35.5507 14.6882 35.764 14.7148 36.02 14.7362C36.2867 14.7468 36.532 14.7522 36.756 14.7522C37.076 14.7522 37.3907 14.7308 37.7 14.6882C38.02 14.6348 38.3027 14.5442 38.548 14.4162C38.804 14.2882 39.012 14.1122 39.172 13.8882C39.332 13.6642 39.412 13.3762 39.412 13.0242C39.412 12.8748 39.38 12.7255 39.316 12.5762C39.2627 12.4268 39.172 12.2935 39.044 12.1762C38.916 12.0588 38.7453 11.9628 38.532 11.8882C38.3293 11.8135 38.084 11.7762 37.796 11.7762H36.068ZM36.532 9.90416H38.1C38.74 9.90416 39.2147 9.7655 39.524 9.48816C39.844 9.21083 40.004 8.88016 40.004 8.49616C40.004 8.2935 39.956 8.12283 39.86 7.98416C39.7747 7.83483 39.6573 7.7175 39.508 7.63216C39.3587 7.54683 39.188 7.48816 38.996 7.45616C38.804 7.4135 38.6067 7.39216 38.404 7.39216C38.18 7.39216 37.94 7.40283 37.684 7.42416C37.428 7.43483 37.236 7.45083 37.108 7.47216L36.532 9.90416Z" fill="white"/>
<path d="M45.3193 16.6242H42.9513L44.9513 8.20816H47.3352L45.3193 16.6242ZM46.4713 7.18416C46.1406 7.18416 45.8419 7.08816 45.5753 6.89616C45.3086 6.6935 45.1753 6.3895 45.1753 5.98416C45.1753 5.76016 45.2179 5.55216 45.3033 5.36016C45.3993 5.1575 45.5219 4.98683 45.6713 4.84816C45.8206 4.69883 45.9913 4.5815 46.1833 4.49616C46.3859 4.41083 46.5992 4.36816 46.8232 4.36816C47.1539 4.36816 47.4526 4.4695 47.7193 4.67216C47.9859 4.86416 48.1193 5.16283 48.1193 5.56816C48.1193 5.79216 48.0712 6.0055 47.9753 6.20816C47.8899 6.40016 47.7726 6.57083 47.6233 6.72016C47.4739 6.85883 47.2979 6.97083 47.0953 7.05616C46.9032 7.1415 46.6953 7.18416 46.4713 7.18416Z" fill="white"/>
<path d="M49.7705 6.11216L52.2505 5.72816L51.6425 8.20816H54.2985L53.8185 10.1602H51.1785L50.4745 13.1042C50.4105 13.3495 50.3678 13.5788 50.3465 13.7922C50.3358 14.0055 50.3625 14.1922 50.4265 14.3522C50.5012 14.5015 50.6238 14.6188 50.7945 14.7042C50.9652 14.7895 51.1998 14.8322 51.4985 14.8322C51.7545 14.8322 51.9998 14.8108 52.2345 14.7682C52.4798 14.7148 52.7252 14.6455 52.9705 14.5602L53.1465 16.3842C52.8265 16.5015 52.4798 16.6028 52.1065 16.6882C51.7332 16.7735 51.2905 16.8162 50.7785 16.8162C50.0425 16.8162 49.4718 16.7095 49.0665 16.4962C48.6612 16.2722 48.3732 15.9735 48.2025 15.6002C48.0318 15.2162 47.9572 14.7788 47.9785 14.2882C47.9998 13.7975 48.0745 13.2802 48.2025 12.7362L49.7705 6.11216Z" fill="white"/>
<path d="M54.3844 13.2642C54.3844 12.5388 54.5017 11.8562 54.7364 11.2162C54.971 10.5762 55.307 10.0162 55.7444 9.53616C56.1817 9.05616 56.7097 8.6775 57.3284 8.40016C57.9577 8.12283 58.6564 7.98416 59.4244 7.98416C59.9044 7.98416 60.331 8.03216 60.7044 8.12816C61.0884 8.2135 61.435 8.33083 61.7444 8.48016L60.9284 10.3362C60.715 10.2508 60.491 10.1762 60.2564 10.1122C60.0324 10.0375 59.755 10.0002 59.4244 10.0002C58.6244 10.0002 57.995 10.2722 57.5364 10.8162C57.0777 11.3495 56.8484 12.0802 56.8484 13.0082C56.8484 13.5522 56.9657 13.9948 57.2004 14.3362C57.435 14.6668 57.867 14.8322 58.4964 14.8322C58.8057 14.8322 59.1044 14.8002 59.3924 14.7362C59.6804 14.6722 59.9364 14.5922 60.1604 14.4962L60.3364 16.4002C60.0377 16.5175 59.707 16.6188 59.3444 16.7042C58.9924 16.8002 58.5604 16.8482 58.0484 16.8482C57.387 16.8482 56.827 16.7522 56.3684 16.5602C55.9097 16.3682 55.531 16.1122 55.2324 15.7922C54.9337 15.4615 54.715 15.0775 54.5764 14.6402C54.4484 14.2028 54.3844 13.7442 54.3844 13.2642Z" fill="white"/>
<path d="M64.9936 16.8482C64.4283 16.8482 63.9376 16.7628 63.5216 16.5922C63.1056 16.4215 62.759 16.1815 62.4816 15.8722C62.215 15.5628 62.0123 15.2002 61.8736 14.7842C61.735 14.3575 61.6656 13.8882 61.6656 13.3762C61.6656 12.7362 61.767 12.0962 61.9696 11.4562C62.183 10.8162 62.4923 10.2402 62.8976 9.72816C63.303 9.21616 63.799 8.80016 64.3856 8.48016C64.9723 8.1495 65.6443 7.98416 66.4016 7.98416C66.9563 7.98416 67.4416 8.0695 67.8576 8.24016C68.2843 8.41083 68.631 8.65083 68.8976 8.96016C69.175 9.2695 69.383 9.6375 69.5216 10.0642C69.6603 10.4802 69.7296 10.9442 69.7296 11.4562C69.7296 12.0962 69.6283 12.7362 69.4256 13.3762C69.223 14.0162 68.9243 14.5922 68.5296 15.1042C68.135 15.6162 67.639 16.0375 67.0416 16.3682C66.455 16.6882 65.7723 16.8482 64.9936 16.8482ZM66.1776 10.0002C65.8256 10.0002 65.5163 10.1015 65.2496 10.3042C64.983 10.5068 64.759 10.7628 64.5776 11.0722C64.3963 11.3815 64.2576 11.7228 64.1616 12.0962C64.0763 12.4588 64.0336 12.8055 64.0336 13.1362C64.0336 13.6802 64.119 14.1015 64.2896 14.4002C64.4603 14.6882 64.7696 14.8322 65.2176 14.8322C65.5696 14.8322 65.879 14.7308 66.1456 14.5282C66.4123 14.3255 66.6363 14.0695 66.8176 13.7602C66.999 13.4508 67.1323 13.1148 67.2176 12.7522C67.3136 12.3788 67.3616 12.0268 67.3616 11.6962C67.3616 11.1522 67.2763 10.7362 67.1056 10.4482C66.935 10.1495 66.6256 10.0002 66.1776 10.0002Z" fill="white"/>
<path d="M72.7411 16.6242H70.3731L72.3731 8.20816H74.7571L72.7411 16.6242ZM73.8931 7.18416C73.5625 7.18416 73.2638 7.08816 72.9971 6.89616C72.7305 6.6935 72.5971 6.3895 72.5971 5.98416C72.5971 5.76016 72.6398 5.55216 72.7251 5.36016C72.8211 5.1575 72.9438 4.98683 73.0931 4.84816C73.2425 4.69883 73.4131 4.5815 73.6051 4.49616C73.8078 4.41083 74.0211 4.36816 74.2451 4.36816C74.5758 4.36816 74.8745 4.4695 75.1411 4.67216C75.4078 4.86416 75.5411 5.16283 75.5411 5.56816C75.5411 5.79216 75.4931 6.0055 75.3971 6.20816C75.3118 6.40016 75.1945 6.57083 75.0451 6.72016C74.8958 6.85883 74.7198 6.97083 74.5171 7.05616C74.3251 7.1415 74.1171 7.18416 73.8931 7.18416Z" fill="white"/>
<path d="M76.8404 8.59216C77.0217 8.53883 77.219 8.48016 77.4324 8.41616C77.6564 8.3415 77.9017 8.2775 78.1684 8.22416C78.4457 8.16016 78.7497 8.11216 79.0804 8.08016C79.4217 8.0375 79.8057 8.01616 80.2324 8.01616C81.491 8.01616 82.355 8.37883 82.8244 9.10416C83.2937 9.8295 83.3737 10.8215 83.0644 12.0802L81.9764 16.6242H79.5924L80.6484 12.1762C80.7124 11.8988 80.7604 11.6322 80.7924 11.3762C80.835 11.1095 80.835 10.8802 80.7924 10.6882C80.7497 10.4855 80.6484 10.3255 80.4884 10.2082C80.339 10.0802 80.1044 10.0162 79.7844 10.0162C79.475 10.0162 79.1604 10.0482 78.8404 10.1122L77.2884 16.6242H74.9044L76.8404 8.59216Z" fill="white"/>
<path d="M84.0625 16.6242L86.7185 5.53616H93.9665L93.4545 7.58416H88.7025L88.1905 9.82416H92.3825L91.8865 11.8402H87.6945L87.0545 14.5602H92.1745L91.6625 16.6242H84.0625Z" fill="white"/>
<path d="M104.187 5.53616L103.674 7.63216H100.426L98.2665 16.6242H95.7705L97.9305 7.63216H94.6825L95.1945 5.53616H104.187Z" fill="white"/>
<path d="M103.062 16.6242L105.718 5.53616H112.903L112.391 7.60016H107.702L107.143 9.96816H111.286L110.79 12.0322H106.646L105.543 16.6242H103.062Z" fill="white"/>
<path d="M112.673 13.8882C113.046 13.8882 113.355 13.9948 113.601 14.2082C113.856 14.4108 113.984 14.7362 113.984 15.1842C113.984 15.4295 113.937 15.6535 113.84 15.8562C113.755 16.0588 113.638 16.2348 113.489 16.3842C113.339 16.5228 113.169 16.6295 112.977 16.7042C112.785 16.7895 112.587 16.8322 112.384 16.8322C112.011 16.8322 111.696 16.7308 111.44 16.5282C111.195 16.3148 111.073 15.9842 111.073 15.5362C111.073 15.2908 111.115 15.0668 111.201 14.8642C111.297 14.6615 111.419 14.4908 111.568 14.3522C111.718 14.2028 111.888 14.0908 112.08 14.0162C112.272 13.9308 112.47 13.8882 112.673 13.8882Z" fill="white"/>
<path d="M118.759 16.8482C118.194 16.8482 117.703 16.7628 117.287 16.5922C116.871 16.4215 116.525 16.1815 116.247 15.8722C115.981 15.5628 115.778 15.2002 115.639 14.7842C115.501 14.3575 115.431 13.8882 115.431 13.3762C115.431 12.7362 115.533 12.0962 115.735 11.4562C115.949 10.8162 116.258 10.2402 116.663 9.72816C117.069 9.21616 117.565 8.80016 118.151 8.48016C118.738 8.1495 119.41 7.98416 120.167 7.98416C120.722 7.98416 121.207 8.0695 121.623 8.24016C122.05 8.41083 122.397 8.65083 122.663 8.96016C122.941 9.2695 123.149 9.6375 123.287 10.0642C123.426 10.4802 123.495 10.9442 123.495 11.4562C123.495 12.0962 123.394 12.7362 123.191 13.3762C122.989 14.0162 122.69 14.5922 122.295 15.1042C121.901 15.6162 121.405 16.0375 120.807 16.3682C120.221 16.6882 119.538 16.8482 118.759 16.8482ZM119.943 10.0002C119.591 10.0002 119.282 10.1015 119.015 10.3042C118.749 10.5068 118.525 10.7628 118.343 11.0722C118.162 11.3815 118.023 11.7228 117.927 12.0962C117.842 12.4588 117.799 12.8055 117.799 13.1362C117.799 13.6802 117.885 14.1015 118.055 14.4002C118.226 14.6882 118.535 14.8322 118.983 14.8322C119.335 14.8322 119.645 14.7308 119.911 14.5282C120.178 14.3255 120.402 14.0695 120.583 13.7602C120.765 13.4508 120.898 13.1148 120.983 12.7522C121.079 12.3788 121.127 12.0268 121.127 11.6962C121.127 11.1522 121.042 10.7362 120.871 10.4482C120.701 10.1495 120.391 10.0002 119.943 10.0002Z" fill="white"/>
<path d="M130.571 10.2562C130.357 10.2028 130.144 10.1548 129.931 10.1122C129.728 10.0588 129.424 10.0322 129.019 10.0322C128.869 10.0322 128.704 10.0482 128.523 10.0802C128.341 10.1015 128.192 10.1282 128.075 10.1602L126.523 16.6242H124.139L126.059 8.65616C126.517 8.50683 127.029 8.36816 127.595 8.24016C128.171 8.1015 128.816 8.03216 129.531 8.03216C129.797 8.03216 130.091 8.05883 130.411 8.11216C130.741 8.15483 131.029 8.2295 131.275 8.33616L130.571 10.2562Z" fill="white"/>
<path d="M137.965 15.5682C137.805 16.2615 137.592 16.8588 137.325 17.3602C137.069 17.8722 136.744 18.2935 136.349 18.6242C135.965 18.9655 135.501 19.2162 134.957 19.3762C134.413 19.5468 133.779 19.6322 133.053 19.6322C132.381 19.6322 131.816 19.5682 131.357 19.4402C130.899 19.3228 130.483 19.1735 130.109 18.9922L130.909 17.1042C131.24 17.2535 131.581 17.3815 131.933 17.4882C132.296 17.5948 132.739 17.6482 133.261 17.6482C133.944 17.6482 134.456 17.4935 134.797 17.1842C135.149 16.8855 135.379 16.4962 135.485 16.0162L135.549 15.7122C135.336 15.8188 135.107 15.9042 134.861 15.9682C134.627 16.0322 134.376 16.0642 134.109 16.0642C133.608 16.0642 133.176 15.9895 132.813 15.8402C132.451 15.6802 132.152 15.4615 131.917 15.1842C131.693 14.9068 131.523 14.5815 131.405 14.2082C131.299 13.8242 131.245 13.4082 131.245 12.9602C131.245 12.1495 131.395 11.4348 131.693 10.8162C131.992 10.1868 132.387 9.66416 132.877 9.24816C133.379 8.83216 133.949 8.5175 134.589 8.30416C135.24 8.09083 135.917 7.98416 136.621 7.98416C137.133 7.98416 137.64 8.0375 138.141 8.14416C138.643 8.25083 139.133 8.41616 139.613 8.64016L137.965 15.5682ZM136.909 10.0482C136.728 10.0055 136.504 9.98416 136.237 9.98416C135.832 9.98416 135.469 10.0588 135.149 10.2082C134.829 10.3468 134.552 10.5388 134.317 10.7842C134.093 11.0295 133.917 11.3282 133.789 11.6802C133.672 12.0215 133.613 12.3895 133.613 12.7842C133.613 12.9762 133.629 13.1575 133.661 13.3282C133.693 13.4882 133.752 13.6322 133.837 13.7602C133.923 13.8775 134.04 13.9735 134.189 14.0482C134.339 14.1228 134.525 14.1602 134.749 14.1602C134.899 14.1602 135.096 14.1335 135.341 14.0802C135.597 14.0268 135.827 13.9042 136.029 13.7122L136.909 10.0482Z" fill="white"/>
<defs>
<clipPath id="clip0_4937_20926">
<rect width="24" height="24" fill="white" transform="translate(0.5)"/>
</clipPath>
</defs>
</svg>
