<svg width="220" height="97" viewBox="0 0 220 97" fill="none" xmlns="http://www.w3.org/2000/svg">
<path d="M40.4777 21.0851H41.8208L40.9635 23.9119H39.6204L40.4777 21.0851ZM53.7566 22.8569L53.4994 21.0875H52.0134L52.5849 23.9143H54.2424L56.5262 21.0875H55.1545L53.7566 22.8569ZM30.6828 0.4666C28.3704 -0.247832 25.4865 -0.133524 23.2861 0.752372C20.5164 1.78115 17.9469 4.265 16.8609 7.00604C15.7178 9.68992 15.7178 13.0311 16.8323 15.6864C17.7754 18.1417 19.8592 20.3421 22.2287 21.54C22.5145 21.6829 22.8288 21.8257 23.1432 21.9401L25.5984 14.3147H31.0805L29.8803 13.5431H25.7723L27.3726 8.37536L24.6601 12.7453L25.4889 13.3169H24.3172L23.2884 14.9743L18.8899 17.2867L18.8042 17.3153C18.7756 17.3153 18.8042 17.2867 18.8042 17.2867L24.3148 12.6024L17.2896 13.4312V13.374L24.0862 11.376L17.261 9.37795C17.2324 9.37795 17.2324 9.34937 17.261 9.3208L24.2863 10.0638L18.7756 5.55097L18.8042 5.5224L25.0007 8.92072L21.7167 2.66705C21.7167 2.66705 21.7453 2.63847 21.7453 2.66705L26.0866 8.29201L25.5722 0.980989C25.5722 0.952411 25.6008 0.980989 25.6294 0.980989L27.456 8.00624L29.5397 1.18103H29.5969L28.711 8.20628L33.281 2.86709C33.3095 2.86709 33.3095 2.86709 33.3095 2.89567L29.8255 9.0636L36.1363 5.86533C36.1363 5.83675 36.1935 5.86533 36.1935 5.86533L30.5685 10.121L37.7652 9.66372V9.6923L30.7685 11.4331L37.508 13.8027L37.5652 13.8312C37.5652 13.8312 37.5652 13.8598 37.5366 13.8598L30.3685 12.7739L35.9077 17.5439C35.9077 17.5725 35.9077 17.6011 35.8791 17.6011L31.6521 15.2601L34.6789 20.285V20.3135C36.4483 18.9132 37.7343 16.9438 38.363 14.8886C39.3632 11.8046 38.9059 8.34917 37.277 5.63671C35.8243 3.12429 33.3095 1.23819 30.6828 0.4666ZM58.2123 23.9119H61.2962L61.4677 23.3403H59.6697L59.8412 22.7688H61.4987L61.6701 22.2258H60.0126L60.1841 21.6543H61.9535L62.125 21.0827H59.041L58.2123 23.9119ZM47.703 22.9712L47.1886 21.0875H45.2191L44.3618 23.9143H45.5335L46.1336 21.9162L46.6766 23.9143H48.5603L49.4176 21.0875H48.2459L47.703 22.9712ZM100.79 19.3157L104.017 7.86336H98.592L95.3651 19.3157H100.79ZM93.6219 19.3157L98.0204 3.63868H92.5955L88.197 19.3157H93.6219ZM105.189 3.6363H99.7637L98.8754 6.7798H104.3L105.189 3.6363ZM63.18 3.6363H57.755L56.8691 6.77742H62.2941L63.18 3.6363ZM58.7838 19.3157L62.0107 7.86336H56.5857L53.3589 19.3157H58.7838ZM47.703 13.4335H53.4422L54.4139 10.0067H48.6746L49.4176 7.32277H55.1569L56.2428 3.6101H44.9905L40.592 19.2871H46.0741L47.703 13.4335ZM98.1919 21.771H99.2493L98.592 23.9119H99.9351L100.592 21.771H101.65L101.85 21.0851H98.3943L98.1919 21.771ZM121.38 7.86336L118.439 14.2028L118.525 7.89193V7.86336H114.069H113.04H111.128L111.842 5.32236H106.417L103.448 15.7745C103.276 16.3746 103.219 16.889 103.219 17.3748C103.219 18.5465 103.819 19.3443 105.417 19.3443H110.244L111.045 16.5175H109.873C109.13 16.5175 108.93 16.346 108.93 15.8317C108.93 15.5459 109.016 15.1458 109.13 14.8029L110.359 10.4615H113.243L114.071 19.3419C113.986 19.8277 113.814 20.1706 113.586 20.3993C113.5 20.4564 113.414 20.5136 113.328 20.5707C112.871 20.7708 111.842 20.7422 111.473 20.7136H111.416V20.7422H111.387L110.53 23.8547H114.243C116.441 23.8547 117.498 22.7402 119.07 20.3135L126.976 7.89193H121.38V7.86336ZM106.101 21.028C104.815 21.028 104.074 21.3137 103.903 21.9139C103.845 22.0853 103.845 22.2854 103.988 22.3997C104.331 22.7426 105.815 22.8569 105.929 23.0284C105.958 23.0569 105.958 23.1141 105.958 23.1713C105.901 23.3999 105.558 23.457 105.301 23.457C105.129 23.457 104.9 23.4285 104.815 23.3427C104.758 23.257 104.758 23.1427 104.786 23.0855H103.529C103.414 23.5142 103.357 23.9714 105.1 23.9714C106.558 23.9714 107.241 23.5999 107.413 23.0569C107.499 22.7712 107.413 22.6283 107.327 22.5426C107.013 22.1996 105.558 22.0853 105.386 21.9139C105.358 21.8853 105.358 21.8281 105.358 21.771C105.415 21.6281 105.586 21.5424 105.872 21.5424C106.044 21.5424 106.301 21.5709 106.386 21.6281C106.472 21.6852 106.501 21.771 106.472 21.8567H107.672C107.758 21.3709 107.444 21.028 106.101 21.028ZM123.435 18.1155C123.435 18.7727 122.892 19.3157 122.235 19.3157C121.578 19.3157 121.035 18.7727 121.035 18.1155C121.035 17.4582 121.578 16.9152 122.235 16.9152C122.892 16.9152 123.435 17.4582 123.435 18.1155ZM123.207 18.1155C123.207 17.5725 122.778 17.1438 122.235 17.1438C121.692 17.1438 121.263 17.5725 121.263 18.1155C121.263 18.6584 121.692 19.0871 122.235 19.0871C122.778 19.1157 123.207 18.6584 123.207 18.1155ZM94.2506 22.9712L93.7362 21.0875H91.7668L90.9094 23.9143H92.0811L92.7098 21.9162L93.2528 23.9143H95.1651L96.0224 21.0875H94.8507L94.2506 22.9712ZM67.8928 18.0297C66.8069 18.9442 65.7233 19.5729 63.9801 19.5729C62.2107 19.5729 61.0962 18.7442 61.0962 16.9462C61.0962 14.9767 61.8678 12.0333 63.0371 9.97807C63.8658 8.4349 65.378 7.63712 67.1784 7.63712C68.7216 7.63712 69.8337 8.32297 70.2909 9.15171L71.8055 3.61248H77.2304L72.8319 19.2895H67.5213L67.8928 18.0297ZM68.5501 15.4887L69.636 11.7189C69.436 11.4331 69.1217 11.2617 68.7787 11.2617C68.2929 11.2617 67.8071 11.4046 67.5499 12.0904C67.1498 13.062 66.7783 14.0027 66.7783 14.9458C66.7783 15.3744 67.0927 15.7745 67.6071 15.7745C68.0357 15.7745 68.2929 15.6316 68.5501 15.4887ZM122.406 18.2012L122.721 18.7156H122.492L122.178 18.2012H122.006V18.7156H121.778V17.4868H122.235C122.521 17.4868 122.664 17.6296 122.664 17.8583C122.721 18.0869 122.578 18.2012 122.406 18.2012ZM122.178 18.0297C122.321 18.0297 122.464 18.0297 122.464 17.8583C122.464 17.6868 122.321 17.6868 122.178 17.6868H122.006V18.0297H122.178ZM67.0355 21.0565C65.7495 21.0565 65.0089 21.3423 64.8374 21.9424C64.7803 22.1139 64.7803 22.3139 64.9232 22.4282C65.2661 22.7712 66.7497 22.8855 66.864 23.0569C66.8926 23.0855 66.8926 23.1427 66.8926 23.1998C66.8355 23.4285 66.4925 23.4856 66.2353 23.4856C66.0639 23.4856 65.8353 23.457 65.7495 23.3713C65.6924 23.2856 65.6924 23.1713 65.721 23.1141H64.4636C64.3492 23.5428 64.2921 24 66.0353 24C67.4927 24 68.1762 23.6285 68.3477 23.0855C68.4334 22.7998 68.3477 22.6569 68.262 22.5711C67.9476 22.2282 66.4925 22.1139 66.3211 21.9424C66.2925 21.9139 66.2925 21.8567 66.2925 21.7995C66.3497 21.6567 66.5211 21.5709 66.8069 21.5709C66.9784 21.5709 67.2355 21.5995 67.3213 21.6567C67.407 21.7138 67.4356 21.7995 67.407 21.8853H68.6073C68.7216 21.3709 68.4072 21.0565 67.0355 21.0565ZM85.8822 21.0851L85.0249 23.9119H88.1089L88.2803 23.3403H86.4824L86.6538 22.7688H88.3113L88.4828 22.2258H86.8253L86.9967 21.6543H88.7662L88.9376 21.0827H85.8822V21.0851ZM71.234 21.771H72.2913L71.6341 23.8833H72.9772L73.6345 21.771H74.6918L74.8919 21.0851H71.4364L71.234 21.771ZM79.8572 22.9712L79.7429 21.0875H77.6877L76.8304 23.9143H77.9735L78.6022 21.8019L78.7736 23.9143H80.0882L81.6028 21.8019L80.9455 23.9143H82.2029L83.0602 21.0875H81.005L79.8572 22.9712ZM81.0003 19.6015C77.7734 19.6015 75.2896 19.1442 75.2896 16.0603C75.2896 14.348 76.1469 11.5474 77.2876 10.0352C78.6593 8.23724 81.0289 7.57996 83.2269 7.57996C86.5967 7.57996 88.7662 8.26582 88.7662 11.1212C88.7662 11.807 88.4804 13.3478 88.166 14.2909H80.6835C80.5407 14.891 80.3978 15.3196 80.3978 15.8055C80.3978 16.0341 80.4263 16.6342 81.1979 16.6342C81.9695 16.6342 82.2839 16.3484 82.5982 15.2339H87.9088C87.2539 18.487 83.3698 19.6015 81.0003 19.6015ZM81.3146 12.0904H83.5413C83.5984 11.8618 83.6842 11.4903 83.6842 11.2902C83.6842 10.6615 83.3127 10.4615 82.7411 10.4615C82.0576 10.4615 81.6004 10.9187 81.3146 12.0904Z" fill="white"/>
<path d="M33.9563 59.6185V40H38.425V59.6185H33.9563ZM120.822 52.2888C120.822 47.5477 117.144 44.6049 112.839 44.6049C108.506 44.6049 104.855 47.5749 104.855 52.2888C104.855 57.0299 108.534 60 112.839 60C117.144 60 120.822 57.0027 120.822 52.2888ZM116.408 52.2888C116.408 54.7684 114.746 56.1581 112.812 56.1581C110.877 56.1581 109.215 54.7684 109.215 52.2888C109.215 49.782 110.877 48.4469 112.812 48.4469C114.746 48.4469 116.408 49.782 116.408 52.2888ZM32.158 53.9782C32.158 51.7711 31.0136 50.0817 28.9699 49.3188C30.9046 48.2561 31.5857 46.8665 31.5857 45.2316C31.5857 42.3706 29.5149 40 24.8828 40.0273H16V59.6457H25.2643C29.9237 59.6185 32.158 57.3024 32.158 53.9782ZM26.8446 45.8038C26.8446 47.139 25.9999 47.9019 24.3651 47.9019H20.6594V43.8147H24.3651C25.8637 43.8147 26.8446 44.4687 26.8446 45.8038ZM27.2533 53.6785C27.2533 54.9591 26.3541 55.8038 24.692 55.8038H20.6594V51.5531H24.692C26.2997 51.5531 27.2533 52.3706 27.2533 53.6785ZM71.0679 48.6104C69.8418 46.049 67.5529 44.6321 64.0925 44.6321C60.0053 44.6321 56.3541 47.1935 56.3541 52.2888C56.3541 57.2479 59.5693 60 64.0379 60C67.1714 60 69.8145 58.7465 71.0679 56.049L67.4712 54.1962C66.8173 55.3951 65.8091 56.1581 64.2015 56.1581C62.1306 56.1581 60.7955 54.6866 60.7955 52.2888C60.7955 49.891 62.3213 48.4469 64.1742 48.4469C65.6184 48.4469 66.7083 49.1009 67.3894 50.5177L71.0679 48.6104ZM136.926 48.6104C135.7 46.049 133.411 44.6321 129.951 44.6321C125.863 44.6321 122.212 47.1935 122.212 52.2888C122.212 57.2479 125.427 60 129.896 60C133.03 60 135.673 58.7465 136.926 56.049L133.329 54.1962C132.675 55.3951 131.667 56.1581 130.06 56.1581C127.989 56.1581 126.654 54.6866 126.654 52.2888C126.654 49.891 128.179 48.4469 130.032 48.4469C131.476 48.4469 132.566 49.1009 133.248 50.5177L136.926 48.6104ZM99.4602 59.6185L95.7272 53.0245H92.8662V59.6185H88.2613V40H96.5719C101.068 40 104.201 42.1526 104.201 46.376C104.201 49.0735 102.866 50.9809 100.496 52.1526L104.801 59.6185H99.4602ZM92.8934 49.1281H96.3266C98.4521 49.1281 99.4875 47.9292 99.4875 46.5123C99.4875 44.8229 98.5065 43.8965 96.3266 43.8965H92.8934V49.1281ZM55.6184 59.3732V56.2943C55.4277 56.3487 55.1552 56.4032 54.8554 56.4032C54.2832 56.4032 53.9835 56.1035 53.9835 55.5858V50.4904C53.9835 46.6757 51.4222 44.6594 47.1988 44.6594C44.4468 44.6594 42.1035 45.6675 40.632 46.9754L43.1116 49.7548C44.0925 48.8828 45.4004 48.3379 46.6811 48.3379C48.6429 48.3379 49.5694 49.3188 49.5694 50.9265V51.3896C48.6429 51.1716 47.4713 50.9537 46.0544 50.9537C42.4849 50.9537 40.1688 52.6703 40.1688 55.5041C40.1688 58.4196 42.1035 59.9455 45.1007 59.9455C47.1443 59.9455 48.9699 59.1008 49.9235 58.0109C50.4958 59.455 51.7491 59.8365 52.9753 59.8365C53.82 59.8637 54.801 59.7275 55.6184 59.3732ZM49.5966 54.7684C49.5966 56.1035 48.3159 56.9755 46.8446 56.9755C45.4549 56.9755 44.7737 56.267 44.7737 55.2861C44.7737 54.2507 45.5367 53.4877 47.0898 53.4877C48.0435 53.4877 48.8882 53.6512 49.5966 53.8147V54.7684ZM152.893 59.6185L147.634 50.4904L152.566 45.1226H147.607L142.403 50.8991V40.0273H137.961V59.6457H142.403V56.1035L144.528 53.842L147.852 59.6457H152.893V59.6185ZM87.0897 59.6185L81.8309 50.4904L86.7627 45.1226H81.7491L76.5993 50.8991V40.0273H72.1579V59.6457H76.5993V56.1035L78.7246 53.842L82.0488 59.6457H87.0897V59.6185ZM155.618 56.8937C156.545 56.8937 157.089 57.4659 157.089 58.3378C157.089 59.2098 156.545 59.7819 155.618 59.7819C154.692 59.7819 154.147 59.2098 154.147 58.3378C154.147 57.4659 154.692 56.8937 155.618 56.8937ZM155.618 59.5913C156.354 59.5913 156.844 59.1553 156.844 58.3378C156.844 57.5204 156.327 57.0845 155.618 57.0845C154.882 57.0845 154.392 57.5204 154.392 58.3378C154.365 59.1826 154.882 59.5913 155.618 59.5913ZM155.046 57.6022H155.645C155.999 57.6022 156.19 57.7929 156.19 58.0653C156.19 58.3106 156.081 58.4468 155.891 58.5286L156.163 59.0463H155.891L155.645 58.5831H155.318V59.0463H155.046V57.6022ZM155.318 57.8201V58.3378H155.618C155.809 58.3378 155.918 58.2834 155.918 58.0926C155.918 57.9291 155.836 57.8474 155.645 57.8474H155.318V57.8201Z" fill="white"/>
<path d="M17.088 92V80.8H19.136V92H17.088ZM21.2588 92V84.064H23.0668L23.2268 85.408C23.4721 84.9387 23.8241 84.5653 24.2828 84.288C24.7521 84.0107 25.3014 83.872 25.9308 83.872C26.9121 83.872 27.6748 84.1813 28.2188 84.8C28.7627 85.4187 29.0347 86.3253 29.0347 87.52V92H26.9868V87.712C26.9868 87.0293 26.8481 86.5067 26.5708 86.144C26.2934 85.7813 25.8614 85.6 25.2748 85.6C24.6988 85.6 24.2241 85.8027 23.8508 86.208C23.4881 86.6133 23.3068 87.1787 23.3068 87.904V92H21.2588ZM34.2731 92.192C33.5691 92.192 32.9505 92.08 32.4171 91.856C31.8838 91.6213 31.4571 91.3013 31.1371 90.896C30.8171 90.4907 30.6251 90.0213 30.5611 89.488H32.6251C32.6891 89.7973 32.8598 90.064 33.1371 90.288C33.4251 90.5013 33.7931 90.608 34.2411 90.608C34.6891 90.608 35.0145 90.5173 35.2171 90.336C35.4305 90.1547 35.5371 89.9467 35.5371 89.712C35.5371 89.3707 35.3878 89.1413 35.0891 89.024C34.7905 88.896 34.3745 88.7733 33.8411 88.656C33.4998 88.5813 33.1531 88.4907 32.8011 88.384C32.4491 88.2773 32.1238 88.144 31.8251 87.984C31.5371 87.8133 31.3025 87.6 31.1211 87.344C30.9398 87.0773 30.8491 86.752 30.8491 86.368C30.8491 85.664 31.1265 85.072 31.6811 84.592C32.2465 84.112 33.0358 83.872 34.0491 83.872C34.9878 83.872 35.7345 84.0907 36.2891 84.528C36.8545 84.9653 37.1905 85.568 37.2971 86.336H35.3611C35.2438 85.7493 34.8011 85.456 34.0331 85.456C33.6491 85.456 33.3505 85.5307 33.1371 85.68C32.9345 85.8293 32.8331 86.016 32.8331 86.24C32.8331 86.4747 32.9878 86.6613 33.2971 86.8C33.6065 86.9387 34.0171 87.0667 34.5291 87.184C35.0838 87.312 35.5905 87.456 36.0491 87.616C36.5185 87.7653 36.8918 87.9947 37.1691 88.304C37.4465 88.6027 37.5851 89.0347 37.5851 89.6C37.5958 90.0907 37.4678 90.5333 37.2011 90.928C36.9345 91.3227 36.5505 91.632 36.0491 91.856C35.5478 92.08 34.9558 92.192 34.2731 92.192ZM42.6854 92C41.8534 92 41.1867 91.7973 40.6854 91.392C40.184 90.9867 39.9334 90.2667 39.9334 89.232V85.776H38.5734V84.064H39.9334L40.1734 81.936H41.9814V84.064H44.1254V85.776H41.9814V89.248C41.9814 89.632 42.0614 89.8987 42.2214 90.048C42.392 90.1867 42.68 90.256 43.0854 90.256H44.0774V92H42.6854ZM46.9878 82.832C46.6144 82.832 46.3051 82.72 46.0598 82.496C45.8251 82.272 45.7078 81.9893 45.7078 81.648C45.7078 81.3067 45.8251 81.0293 46.0598 80.816C46.3051 80.592 46.6144 80.48 46.9878 80.48C47.3611 80.48 47.6651 80.592 47.8998 80.816C48.1451 81.0293 48.2678 81.3067 48.2678 81.648C48.2678 81.9893 48.1451 82.272 47.8998 82.496C47.6651 82.72 47.3611 82.832 46.9878 82.832ZM45.9638 92V84.064H48.0118V92H45.9638ZM53.6854 92C52.8534 92 52.1867 91.7973 51.6854 91.392C51.184 90.9867 50.9334 90.2667 50.9334 89.232V85.776H49.5734V84.064H50.9334L51.1734 81.936H52.9814V84.064H55.1254V85.776H52.9814V89.248C52.9814 89.632 53.0614 89.8987 53.2214 90.048C53.392 90.1867 53.68 90.256 54.0854 90.256H55.0774V92H53.6854ZM59.8598 92.192C58.8678 92.192 58.0998 91.8827 57.5558 91.264C57.0224 90.6453 56.7558 89.7387 56.7558 88.544V84.064H58.7878V88.352C58.7878 89.0347 58.9264 89.5573 59.2038 89.92C59.4811 90.2827 59.9184 90.464 60.5158 90.464C61.0811 90.464 61.5451 90.2613 61.9078 89.856C62.2811 89.4507 62.4678 88.8853 62.4678 88.16V84.064H64.5158V92H62.7078L62.5478 90.656C62.3024 91.1253 61.9451 91.4987 61.4758 91.776C61.0171 92.0533 60.4784 92.192 59.8598 92.192ZM70.1541 92C69.3221 92 68.6555 91.7973 68.1541 91.392C67.6528 90.9867 67.4021 90.2667 67.4021 89.232V85.776H66.0421V84.064H67.4021L67.6421 81.936H69.4501V84.064H71.5941V85.776H69.4501V89.248C69.4501 89.632 69.5301 89.8987 69.6901 90.048C69.8608 90.1867 70.1488 90.256 70.5541 90.256H71.5461V92H70.1541ZM74.4565 82.832C74.0832 82.832 73.7738 82.72 73.5285 82.496C73.2938 82.272 73.1765 81.9893 73.1765 81.648C73.1765 81.3067 73.2938 81.0293 73.5285 80.816C73.7738 80.592 74.0832 80.48 74.4565 80.48C74.8298 80.48 75.1338 80.592 75.3685 80.816C75.6138 81.0293 75.7365 81.3067 75.7365 81.648C75.7365 81.9893 75.6138 82.272 75.3685 82.496C75.1338 82.72 74.8298 82.832 74.4565 82.832ZM73.4325 92V84.064H75.4805V92H73.4325ZM81.4261 92.192C80.6581 92.192 79.9648 92.016 79.3461 91.664C78.7381 91.312 78.2528 90.8267 77.8901 90.208C77.5381 89.5787 77.3621 88.8533 77.3621 88.032C77.3621 87.2107 77.5435 86.4907 77.9061 85.872C78.2688 85.2427 78.7541 84.752 79.3621 84.4C79.9808 84.048 80.6741 83.872 81.4421 83.872C82.1995 83.872 82.8821 84.048 83.4901 84.4C84.1088 84.752 84.5941 85.2427 84.9461 85.872C85.3088 86.4907 85.4901 87.2107 85.4901 88.032C85.4901 88.8533 85.3088 89.5787 84.9461 90.208C84.5941 90.8267 84.1088 91.312 83.4901 91.664C82.8715 92.016 82.1835 92.192 81.4261 92.192ZM81.4261 90.416C81.9595 90.416 82.4235 90.2187 82.8181 89.824C83.2128 89.4187 83.4101 88.8213 83.4101 88.032C83.4101 87.2427 83.2128 86.6507 82.8181 86.256C82.4235 85.8507 81.9648 85.648 81.4421 85.648C80.8981 85.648 80.4288 85.8507 80.0341 86.256C79.6501 86.6507 79.4581 87.2427 79.4581 88.032C79.4581 88.8213 79.6501 89.4187 80.0341 89.824C80.4288 90.2187 80.8928 90.416 81.4261 90.416ZM87.3213 92V84.064H89.1293L89.2893 85.408C89.5346 84.9387 89.8866 84.5653 90.3453 84.288C90.8146 84.0107 91.3639 83.872 91.9933 83.872C92.9746 83.872 93.7373 84.1813 94.2812 84.8C94.8252 85.4187 95.0972 86.3253 95.0972 87.52V92H93.0493V87.712C93.0493 87.0293 92.9106 86.5067 92.6333 86.144C92.3559 85.7813 91.9239 85.6 91.3373 85.6C90.7613 85.6 90.2866 85.8027 89.9133 86.208C89.5506 86.6133 89.3693 87.1787 89.3693 87.904V92H87.3213ZM99.7916 92.192C99.109 92.192 98.549 92.0853 98.1116 91.872C97.6743 91.648 97.349 91.3547 97.1356 90.992C96.9223 90.6293 96.8156 90.2293 96.8156 89.792C96.8156 89.056 97.1036 88.4587 97.6796 88C98.2556 87.5413 99.1196 87.312 100.272 87.312H102.288V87.12C102.288 86.576 102.133 86.176 101.824 85.92C101.514 85.664 101.13 85.536 100.672 85.536C100.256 85.536 99.893 85.6373 99.5836 85.84C99.2743 86.032 99.0823 86.32 99.0076 86.704H97.0076C97.061 86.128 97.253 85.6267 97.5836 85.2C97.925 84.7733 98.3623 84.448 98.8956 84.224C99.429 83.9893 100.026 83.872 100.688 83.872C101.818 83.872 102.709 84.1547 103.36 84.72C104.01 85.2853 104.336 86.0853 104.336 87.12V92H102.592L102.4 90.72C102.165 91.1467 101.834 91.4987 101.408 91.776C100.992 92.0533 100.453 92.192 99.7916 92.192ZM100.256 90.592C100.842 90.592 101.296 90.4 101.616 90.016C101.946 89.632 102.154 89.1573 102.24 88.592H100.496C99.9516 88.592 99.5623 88.6933 99.3276 88.896C99.093 89.088 98.9756 89.328 98.9756 89.616C98.9756 89.9253 99.093 90.1653 99.3276 90.336C99.5623 90.5067 99.8716 90.592 100.256 90.592ZM106.29 92V80.48H108.338V92H106.29ZM114.291 92V80.8H121.603V82.448H116.339V85.52H121.123V87.12H116.339V90.352H121.603V92H114.291ZM126.149 92V82.448H122.885V80.8H131.477V82.448H128.197V92H126.149ZM132.994 92V80.8H140.226V82.448H135.042V85.584H139.234V87.2H135.042V92H132.994ZM144.726 92.192C144.022 92.192 143.404 92.08 142.87 91.856C142.337 91.6213 141.91 91.3013 141.59 90.896C141.27 90.4907 141.078 90.0213 141.014 89.488H143.078C143.142 89.7973 143.313 90.064 143.59 90.288C143.878 90.5013 144.246 90.608 144.694 90.608C145.142 90.608 145.468 90.5173 145.67 90.336C145.884 90.1547 145.99 89.9467 145.99 89.712C145.99 89.3707 145.841 89.1413 145.542 89.024C145.244 88.896 144.828 88.7733 144.294 88.656C143.953 88.5813 143.606 88.4907 143.254 88.384C142.902 88.2773 142.577 88.144 142.278 87.984C141.99 87.8133 141.756 87.6 141.574 87.344C141.393 87.0773 141.302 86.752 141.302 86.368C141.302 85.664 141.58 85.072 142.134 84.592C142.7 84.112 143.489 83.872 144.502 83.872C145.441 83.872 146.188 84.0907 146.742 84.528C147.308 84.9653 147.644 85.568 147.75 86.336H145.814C145.697 85.7493 145.254 85.456 144.486 85.456C144.102 85.456 143.804 85.5307 143.59 85.68C143.388 85.8293 143.286 86.016 143.286 86.24C143.286 86.4747 143.441 86.6613 143.75 86.8C144.06 86.9387 144.47 87.0667 144.982 87.184C145.537 87.312 146.044 87.456 146.502 87.616C146.972 87.7653 147.345 87.9947 147.622 88.304C147.9 88.6027 148.038 89.0347 148.038 89.6C148.049 90.0907 147.921 90.5333 147.654 90.928C147.388 91.3227 147.004 91.632 146.502 91.856C146.001 92.08 145.409 92.192 144.726 92.192Z" fill="white" fill-opacity="0.6"/>
</svg>
