<svg width="220" height="101" viewBox="0 0 220 101" fill="none" xmlns="http://www.w3.org/2000/svg">
<path d="M23.3389 10.085L27.9998 5.42436L32.6631 10.0875L35.3751 7.37547L27.9998 0L20.627 7.37301L23.3389 10.085Z" fill="white"/>
<path d="M21.4239 11.9995L18.7119 9.2876L15.9998 11.9997L18.7118 14.7116L21.4239 11.9995Z" fill="white"/>
<path d="M23.339 13.9151L27.9998 18.5758L32.6629 13.9128L35.3765 16.6233L35.3751 16.6248L27.9998 24.0001L20.6268 16.6273L20.623 16.6235L23.339 13.9151Z" fill="white"/>
<path d="M37.2879 14.7131L40 12.001L37.2881 9.28903L34.576 12.0011L37.2879 14.7131Z" fill="white"/>
<path d="M30.7512 11.9986H30.7524L28.0004 9.24658L25.9666 11.2803H25.9664L25.7329 11.5141L25.2509 11.9961L25.2471 11.9999L25.2509 12.0039L28.0004 14.7534L30.7524 12.0014L30.7537 11.9999L30.7512 11.9986Z" fill="white"/>
<path d="M44.2285 5.81543H50.127C51.5909 5.81543 52.6979 6.19113 53.4482 6.94254C54.0288 7.52448 54.319 8.24574 54.319 9.10614V9.14253C54.319 9.5061 54.2741 9.8274 54.1837 10.1061C54.0934 10.3851 53.9729 10.6362 53.8222 10.8605C53.6719 11.0849 53.4971 11.2819 53.2984 11.4513C53.0996 11.6212 52.886 11.7668 52.6572 11.8877C53.393 12.1667 53.9723 12.5453 54.3946 13.0241C54.8168 13.5031 55.0281 14.1667 55.0281 15.015V15.0512C55.0281 15.6332 54.9163 16.1421 54.6924 16.5787C54.4686 17.0148 54.1478 17.3786 53.7303 17.6696C53.3127 17.9605 52.8105 18.1785 52.2237 18.3241C51.6368 18.4695 50.9864 18.5421 50.2727 18.5421H44.2285V5.81543ZM49.5373 10.9606C50.1556 10.9606 50.6465 10.8548 51.0099 10.6425C51.3735 10.4304 51.5553 10.0879 51.5553 9.61529V9.57889C51.5553 9.15486 51.3976 8.83071 51.0825 8.60628C50.7673 8.38203 50.3127 8.26981 49.719 8.26981H46.9555V10.9606H49.5373ZM50.2828 16.0879C50.9009 16.0879 51.3854 15.9761 51.7372 15.7516C52.0887 15.5274 52.2646 15.1788 52.2646 14.706V14.6698C52.2646 14.2456 52.1008 13.9093 51.7736 13.6606C51.4463 13.4125 50.9191 13.2881 50.1918 13.2881H46.9555V16.0881L50.2828 16.0879Z" fill="white"/>
<path d="M58.541 5.81543H61.3412V18.5425H58.541V5.81543Z" fill="white"/>
<path d="M65.582 5.81543H68.1634L74.1271 13.6517V5.81543H76.8906V18.5425H74.509L68.3454 10.4518V18.5425H65.582V5.81543Z" fill="white"/>
<path d="M85.367 5.72461H87.9486L93.4033 18.5425H90.4759L89.3122 15.6881H83.9305L82.767 18.5425H79.9121L85.367 5.72461ZM88.3123 13.2151L86.6213 9.08811L84.9308 13.2151H88.3123Z" fill="white"/>
<path d="M96.4258 5.81543H99.0077L104.971 13.6517V5.81543H107.735V18.5425H105.353L99.1893 10.4518V18.5425H96.4258V5.81543Z" fill="white"/>
<path d="M117.811 18.7604C116.878 18.7604 116.011 18.5905 115.211 18.2514C114.411 17.9123 113.72 17.4485 113.139 16.8605C112.557 16.2726 112.102 15.5787 111.775 14.7787C111.448 13.9786 111.284 13.1241 111.284 12.215V12.1788C111.284 11.2697 111.448 10.4184 111.775 9.62431C112.102 8.83044 112.557 8.13344 113.139 7.53349C113.72 6.93354 114.417 6.4606 115.229 6.11523C116.041 5.76985 116.939 5.59717 117.92 5.59717C118.514 5.59717 119.056 5.64588 119.547 5.74256C120.038 5.8398 120.483 5.97287 120.884 6.14252C121.284 6.31237 121.653 6.51842 121.993 6.76067C122.332 7.0033 122.647 7.26982 122.938 7.56079L121.157 9.61521C120.659 9.16691 120.153 8.81509 119.638 8.5607C119.123 8.30632 118.544 8.17893 117.902 8.17893C117.369 8.17893 116.875 8.28205 116.42 8.4881C115.966 8.69415 115.575 8.97886 115.247 9.34244C114.92 9.70601 114.666 10.1274 114.484 10.606C114.302 11.085 114.212 11.597 114.212 12.1424V12.1786C114.212 12.7239 114.302 13.2393 114.484 13.7239C114.666 14.2089 114.917 14.633 115.239 14.9965C115.559 15.3601 115.947 15.6482 116.402 15.8604C116.857 16.0727 117.357 16.1784 117.902 16.1784C118.63 16.1784 119.244 16.0452 119.747 15.7785C120.25 15.5121 120.75 15.1484 121.247 14.6876L123.029 16.4876C122.702 16.8392 122.362 17.1545 122.011 17.4329C121.659 17.7119 121.275 17.9512 120.856 18.1513C120.438 18.3511 119.98 18.503 119.484 18.6057C118.986 18.7086 118.429 18.7604 117.811 18.7604Z" fill="white"/>
<path d="M126.325 5.81543H135.907V8.3064H129.089V10.8882H135.089V13.3789H129.089V16.0517H135.998V18.5425H126.325V5.81543Z" fill="white"/>
<path d="M43.116 46.7003C38.2353 46.7003 34.4217 50.4054 34.4217 55.3654C34.4217 60.3254 38.1389 63.9988 43.116 63.9988C48.0931 63.9988 51.875 60.262 51.875 55.3337C51.875 50.4371 48.1577 46.7003 43.116 46.7003ZM43.1489 60.4242C40.3695 60.4242 38.3328 58.2656 38.3328 55.3666C38.3328 52.4348 40.3366 50.2774 43.116 50.2774C45.9284 50.2774 47.9638 52.4677 47.9638 55.3666C47.9638 58.2656 45.9284 60.4242 43.1489 60.4242ZM52.9409 50.47H55.3654V63.678H59.2437V47.0223H52.9409V50.47ZM24.6614 50.2761C26.6981 50.2761 28.314 51.5323 28.9275 53.4007H33.0326C32.2886 49.4066 28.9921 46.7003 24.6943 46.7003C19.8136 46.7003 16 50.4054 16 55.3666C16 60.3279 19.7173 64 24.6943 64C28.8958 64 32.2569 61.2938 33.0009 57.2667H28.9275C28.3458 59.1351 26.7298 60.4242 24.6931 60.4242C21.8808 60.4242 19.91 58.2656 19.91 55.3666C19.9112 52.4348 21.8503 50.2761 24.6614 50.2761ZM126.63 53.7556L123.786 53.3373C122.429 53.1446 121.459 52.6933 121.459 51.6299C121.459 50.47 122.72 49.8907 124.432 49.8907C126.307 49.8907 127.503 50.6957 127.762 52.0165H131.511C131.09 48.6663 128.505 46.7016 124.53 46.7016C120.425 46.7016 117.71 48.7956 117.71 51.7591C117.71 54.5934 119.488 56.2374 123.075 56.7521L125.919 57.1704C127.309 57.3631 128.085 57.9119 128.085 58.9424C128.085 60.2632 126.728 60.8108 124.853 60.8108C122.558 60.8108 121.265 59.8766 121.071 58.4595H117.258C117.614 61.7133 120.166 64 124.82 64C129.055 64 131.866 62.067 131.866 58.7485C131.866 55.7849 129.83 54.2385 126.63 53.7556ZM57.3045 40.161C55.8825 40.161 54.8154 41.1915 54.8154 42.6087C54.8154 44.0258 55.8813 45.0564 57.3045 45.0564C58.7266 45.0564 59.7937 44.0258 59.7937 42.6087C59.7937 41.1915 58.7266 40.161 57.3045 40.161ZM114.22 52.725C114.22 49.1175 112.022 46.7016 107.368 46.7016C102.973 46.7016 100.517 48.9248 100.031 52.3397H103.878C104.072 51.0189 105.106 49.9237 107.303 49.9237C109.275 49.9237 110.245 50.7932 110.245 51.8567C110.245 53.2421 108.467 53.5958 106.269 53.8214C103.296 54.1434 99.6116 55.1739 99.6116 59.04C99.6116 62.0365 101.842 63.9683 105.397 63.9683C108.177 63.9683 109.922 62.8085 110.795 60.9718C110.924 62.6146 112.152 63.678 113.866 63.678H116.128V60.2315H114.221V52.725H114.22ZM110.406 56.9131C110.406 59.1363 108.467 60.7791 106.107 60.7791C104.652 60.7791 103.424 60.1669 103.424 58.879C103.424 57.2362 105.396 56.785 107.206 56.5923C108.951 56.4313 109.921 56.0447 110.406 55.3032V56.9131ZM89.8184 46.7003C87.6524 46.7003 85.8426 47.6028 84.5498 49.1163V40H80.6716V63.678H84.4852V61.4877C85.7779 63.0658 87.6207 64 89.8184 64C94.4723 64 97.9956 60.3279 97.9956 55.3666C97.9956 50.4054 94.4077 46.7003 89.8184 46.7003ZM89.2367 60.4242C86.4572 60.4242 84.4206 58.2656 84.4206 55.3666C84.4206 52.4677 86.489 50.2774 89.2684 50.2774C92.0807 50.2774 94.0515 52.436 94.0515 55.3666C94.0515 58.2656 92.0161 60.4242 89.2367 60.4242ZM71.3955 46.7003C68.8746 46.7003 67.2258 47.7309 66.2562 49.181V47.0223H62.4097V63.6768H66.2879V54.6251C66.2879 52.0799 67.9039 50.2761 70.2954 50.2761C72.5261 50.2761 73.9151 51.8543 73.9151 54.1422V63.678H77.7934V53.8531C77.7946 49.6639 75.6299 46.7003 71.3955 46.7003ZM150.353 54.819C150.353 50.0517 146.863 46.7016 142.176 46.7016C137.199 46.7016 133.546 50.4383 133.546 55.3666C133.546 60.5535 137.457 64 142.241 64C146.281 64 149.448 61.6157 150.256 58.2339H146.215C145.633 59.7156 144.211 60.5535 142.304 60.5535C139.815 60.5535 137.94 59.0071 137.521 56.3008H150.352V54.819H150.353ZM137.748 53.53C138.362 51.2103 140.108 50.0834 142.111 50.0834C144.309 50.0834 145.99 51.3396 146.377 53.53H137.748Z" fill="white"/>
<path d="M20.912 96.192C20.0907 96.192 19.3653 96.0533 18.736 95.776C18.1067 95.488 17.6107 95.0827 17.248 94.56C16.8853 94.0267 16.6987 93.3813 16.688 92.624H18.848C18.8693 93.1467 19.056 93.5893 19.408 93.952C19.7707 94.304 20.2667 94.48 20.896 94.48C21.44 94.48 21.872 94.352 22.192 94.096C22.512 93.8293 22.672 93.4773 22.672 93.04C22.672 92.5813 22.528 92.224 22.24 91.968C21.9627 91.712 21.5893 91.504 21.12 91.344C20.6507 91.184 20.1493 91.0133 19.616 90.832C18.752 90.5333 18.0907 90.1493 17.632 89.68C17.184 89.2107 16.96 88.5867 16.96 87.808C16.9493 87.1467 17.104 86.5813 17.424 86.112C17.7547 85.632 18.2027 85.264 18.768 85.008C19.3333 84.7413 19.984 84.608 20.72 84.608C21.4667 84.608 22.1227 84.7413 22.688 85.008C23.264 85.2747 23.712 85.648 24.032 86.128C24.3627 86.608 24.5387 87.1787 24.56 87.84H22.368C22.3573 87.4453 22.2027 87.0987 21.904 86.8C21.616 86.4907 21.2107 86.336 20.688 86.336C20.24 86.3253 19.8613 86.4373 19.552 86.672C19.2533 86.896 19.104 87.2267 19.104 87.664C19.104 88.0373 19.2213 88.336 19.456 88.56C19.6907 88.7733 20.0107 88.9547 20.416 89.104C20.8213 89.2533 21.2853 89.4133 21.808 89.584C22.3627 89.776 22.8693 90 23.328 90.256C23.7867 90.512 24.1547 90.8533 24.432 91.28C24.7093 91.696 24.848 92.2347 24.848 92.896C24.848 93.4827 24.6987 94.0267 24.4 94.528C24.1013 95.0293 23.6587 95.4347 23.072 95.744C22.4853 96.0427 21.7653 96.192 20.912 96.192ZM26.5869 99.52V88.064H28.4109L28.6349 89.2C28.8909 88.848 29.2269 88.5387 29.6429 88.272C30.0695 88.0053 30.6189 87.872 31.2909 87.872C32.0375 87.872 32.7042 88.0533 33.2909 88.416C33.8775 88.7787 34.3415 89.2747 34.6829 89.904C35.0242 90.5333 35.1949 91.248 35.1949 92.048C35.1949 92.848 35.0242 93.5627 34.6829 94.192C34.3415 94.8107 33.8775 95.3013 33.2909 95.664C32.7042 96.016 32.0375 96.192 31.2909 96.192C30.6935 96.192 30.1709 96.08 29.7229 95.856C29.2749 95.632 28.9122 95.3173 28.6349 94.912V99.52H26.5869ZM30.8589 94.4C31.5095 94.4 32.0482 94.1813 32.4749 93.744C32.9015 93.3067 33.1149 92.7413 33.1149 92.048C33.1149 91.3547 32.9015 90.784 32.4749 90.336C32.0482 89.888 31.5095 89.664 30.8589 89.664C30.1975 89.664 29.6535 89.888 29.2269 90.336C28.8109 90.7733 28.6029 91.3387 28.6029 92.032C28.6029 92.7253 28.8109 93.296 29.2269 93.744C29.6535 94.1813 30.1975 94.4 30.8589 94.4ZM40.8324 96.192C40.0644 96.192 39.371 96.016 38.7524 95.664C38.1444 95.312 37.659 94.8267 37.2964 94.208C36.9444 93.5787 36.7684 92.8533 36.7684 92.032C36.7684 91.2107 36.9497 90.4907 37.3124 89.872C37.675 89.2427 38.1604 88.752 38.7684 88.4C39.387 88.048 40.0804 87.872 40.8484 87.872C41.6057 87.872 42.2884 88.048 42.8964 88.4C43.515 88.752 44.0004 89.2427 44.3524 89.872C44.715 90.4907 44.8964 91.2107 44.8964 92.032C44.8964 92.8533 44.715 93.5787 44.3524 94.208C44.0004 94.8267 43.515 95.312 42.8964 95.664C42.2777 96.016 41.5897 96.192 40.8324 96.192ZM40.8324 94.416C41.3657 94.416 41.8297 94.2187 42.2244 93.824C42.619 93.4187 42.8164 92.8213 42.8164 92.032C42.8164 91.2427 42.619 90.6507 42.2244 90.256C41.8297 89.8507 41.371 89.648 40.8484 89.648C40.3044 89.648 39.835 89.8507 39.4404 90.256C39.0564 90.6507 38.8644 91.2427 38.8644 92.032C38.8644 92.8213 39.0564 93.4187 39.4404 93.824C39.835 94.2187 40.299 94.416 40.8324 94.416ZM49.951 96C49.119 96 48.4523 95.7973 47.951 95.392C47.4497 94.9867 47.199 94.2667 47.199 93.232V89.776H45.839V88.064H47.199L47.439 85.936H49.247V88.064H51.391V89.776H49.247V93.248C49.247 93.632 49.327 93.8987 49.487 94.048C49.6577 94.1867 49.9457 94.256 50.351 94.256H51.343V96H49.951ZM57.0099 96V84.8H61.5059C62.6685 84.8 63.5539 85.072 64.1619 85.616C64.7805 86.1493 65.0899 86.8373 65.0899 87.68C65.0899 88.384 64.8979 88.9493 64.5139 89.376C64.1405 89.792 63.6819 90.0747 63.1379 90.224C63.7779 90.352 64.3059 90.672 64.7219 91.184C65.1379 91.6853 65.3459 92.272 65.3459 92.944C65.3459 93.8293 65.0259 94.56 64.3859 95.136C63.7459 95.712 62.8392 96 61.6659 96H57.0099ZM59.0579 89.504H61.2019C61.7779 89.504 62.2205 89.3707 62.5299 89.104C62.8392 88.8373 62.9939 88.4587 62.9939 87.968C62.9939 87.4987 62.8392 87.1307 62.5299 86.864C62.2312 86.5867 61.7779 86.448 61.1699 86.448H59.0579V89.504ZM59.0579 94.336H61.3459C61.9539 94.336 62.4232 94.1973 62.7539 93.92C63.0952 93.632 63.2659 93.232 63.2659 92.72C63.2659 92.1973 63.0899 91.7867 62.7379 91.488C62.3859 91.1893 61.9112 91.04 61.3139 91.04H59.0579V94.336ZM68.1596 86.832C67.7863 86.832 67.477 86.72 67.2316 86.496C66.997 86.272 66.8796 85.9893 66.8796 85.648C66.8796 85.3067 66.997 85.0293 67.2316 84.816C67.477 84.592 67.7863 84.48 68.1596 84.48C68.533 84.48 68.837 84.592 69.0716 84.816C69.317 85.0293 69.4396 85.3067 69.4396 85.648C69.4396 85.9893 69.317 86.272 69.0716 86.496C68.837 86.72 68.533 86.832 68.1596 86.832ZM67.1356 96V88.064H69.1836V96H67.1356ZM74.8573 96C74.0253 96 73.3586 95.7973 72.8573 95.392C72.3559 94.9867 72.1053 94.2667 72.1053 93.232V89.776H70.7453V88.064H72.1053L72.3453 85.936H74.1533V88.064H76.2973V89.776H74.1533V93.248C74.1533 93.632 74.2333 93.8987 74.3932 94.048C74.5639 94.1867 74.8519 94.256 75.2573 94.256H76.2493V96H74.8573ZM81.7405 96.192C80.9298 96.192 80.2152 96.016 79.5965 95.664C78.9778 95.312 78.4872 94.8213 78.1245 94.192C77.7725 93.5627 77.5965 92.8427 77.5965 92.032C77.5965 91.2213 77.7725 90.5013 78.1245 89.872C78.4872 89.2427 78.9778 88.752 79.5965 88.4C80.2152 88.048 80.9298 87.872 81.7405 87.872C82.7538 87.872 83.6072 88.1387 84.3005 88.672C84.9938 89.1947 85.4365 89.92 85.6285 90.848H83.4685C83.3618 90.464 83.1485 90.1653 82.8285 89.952C82.5192 89.728 82.1512 89.616 81.7245 89.616C81.1592 89.616 80.6792 89.8293 80.2845 90.256C79.8898 90.6827 79.6925 91.2747 79.6925 92.032C79.6925 92.7893 79.8898 93.3813 80.2845 93.808C80.6792 94.2347 81.1592 94.448 81.7245 94.448C82.1512 94.448 82.5192 94.3413 82.8285 94.128C83.1485 93.9147 83.3618 93.6107 83.4685 93.216H85.6285C85.4365 94.112 84.9938 94.832 84.3005 95.376C83.6072 95.92 82.7538 96.192 81.7405 96.192ZM91.2543 96.192C90.4863 96.192 89.7929 96.016 89.1743 95.664C88.5663 95.312 88.0809 94.8267 87.7183 94.208C87.3663 93.5787 87.1903 92.8533 87.1903 92.032C87.1903 91.2107 87.3716 90.4907 87.7343 89.872C88.0969 89.2427 88.5823 88.752 89.1903 88.4C89.8089 88.048 90.5023 87.872 91.2703 87.872C92.0276 87.872 92.7103 88.048 93.3183 88.4C93.9369 88.752 94.4223 89.2427 94.7743 89.872C95.1369 90.4907 95.3183 91.2107 95.3183 92.032C95.3183 92.8533 95.1369 93.5787 94.7743 94.208C94.4223 94.8267 93.9369 95.312 93.3183 95.664C92.6996 96.016 92.0116 96.192 91.2543 96.192ZM91.2543 94.416C91.7876 94.416 92.2516 94.2187 92.6463 93.824C93.0409 93.4187 93.2383 92.8213 93.2383 92.032C93.2383 91.2427 93.0409 90.6507 92.6463 90.256C92.2516 89.8507 91.7929 89.648 91.2703 89.648C90.7263 89.648 90.2569 89.8507 89.8623 90.256C89.4783 90.6507 89.2863 91.2427 89.2863 92.032C89.2863 92.8213 89.4783 93.4187 89.8623 93.824C90.2569 94.2187 90.7209 94.416 91.2543 94.416ZM98.2534 86.832C97.88 86.832 97.5707 86.72 97.3254 86.496C97.0907 86.272 96.9734 85.9893 96.9734 85.648C96.9734 85.3067 97.0907 85.0293 97.3254 84.816C97.5707 84.592 97.88 84.48 98.2534 84.48C98.6267 84.48 98.9307 84.592 99.1654 84.816C99.4107 85.0293 99.5334 85.3067 99.5334 85.648C99.5334 85.9893 99.4107 86.272 99.1654 86.496C98.9307 86.72 98.6267 86.832 98.2534 86.832ZM97.2294 96V88.064H99.2774V96H97.2294ZM101.415 96V88.064H103.223L103.383 89.408C103.628 88.9387 103.98 88.5653 104.439 88.288C104.908 88.0107 105.458 87.872 106.087 87.872C107.068 87.872 107.831 88.1813 108.375 88.8C108.919 89.4187 109.191 90.3253 109.191 91.52V96H107.143V91.712C107.143 91.0293 107.004 90.5067 106.727 90.144C106.45 89.7813 106.018 89.6 105.431 89.6C104.855 89.6 104.38 89.8027 104.007 90.208C103.644 90.6133 103.463 91.1787 103.463 91.904V96H101.415Z" fill="white" fill-opacity="0.6"/>
</svg>
