<svg width="247" height="71" viewBox="0 0 247 71" fill="none" xmlns="http://www.w3.org/2000/svg">
<path d="M39.6381 19.9029C38.0353 26.3315 31.5243 30.2438 25.095 28.6407C18.6683 27.038 14.7559 20.5266 16.3594 14.0984C17.9614 7.66907 24.4725 3.75636 30.8999 5.35909C37.3288 6.96183 41.2408 13.474 39.6381 19.9029Z" fill="#F7931A"/>
<path d="M33.289 15.2905C33.5279 13.6937 32.3121 12.8354 30.6498 12.2627L31.189 10.0998L29.8724 9.77164L29.3474 11.8776C29.0013 11.7914 28.6458 11.71 28.2925 11.6294L28.8213 9.50952L27.5054 9.1814L26.9658 11.3436C26.6793 11.2784 26.3981 11.2139 26.1251 11.146L26.1266 11.1393L24.3108 10.6859L23.9606 12.0921C23.9606 12.0921 24.9375 12.316 24.9168 12.3299C25.4501 12.463 25.5465 12.8159 25.5303 13.0956L24.9161 15.5597C24.9528 15.5691 25.0005 15.5826 25.053 15.6036C25.0091 15.5927 24.9622 15.5807 24.9138 15.5691L24.0528 19.0209C23.9876 19.1829 23.8222 19.4259 23.4495 19.3337C23.4626 19.3528 22.4925 19.0948 22.4925 19.0948L21.8389 20.6019L23.5522 21.029C23.871 21.1089 24.1833 21.1925 24.4908 21.2713L23.946 23.459L25.2611 23.7871L25.8007 21.6226C26.1599 21.7201 26.5087 21.8102 26.8499 21.8949L26.3122 24.0493L27.6288 24.3774L28.1737 22.1938C30.4188 22.6186 32.107 22.4473 32.8176 20.4167C33.3903 18.7817 32.7891 17.8386 31.6079 17.2236C32.4681 17.0252 33.1161 16.4593 33.289 15.2905ZM30.2808 19.5088C29.8739 21.1438 27.1211 20.2599 26.2286 20.0383L26.9516 17.1399C27.8441 17.3627 30.706 17.8037 30.2808 19.5088ZM30.688 15.2668C30.3168 16.7541 28.0256 15.9985 27.2823 15.8132L27.9378 13.1845C28.6811 13.3697 31.0746 13.7155 30.688 15.2668Z" fill="white"/>
<path d="M58.5671 11.89C59.5271 11.89 60.3571 12.06 61.0571 12.4C61.7571 12.74 62.3371 13.2 62.7971 13.78C63.2571 14.36 63.5971 15.04 63.8171 15.82C64.0371 16.6 64.1471 17.44 64.1471 18.34C64.1471 19.72 63.8871 21.03 63.3671 22.27C62.8671 23.49 62.1771 24.56 61.2971 25.48C60.4171 26.38 59.3771 27.1 58.1771 27.64C56.9771 28.16 55.6771 28.42 54.2771 28.42C54.0971 28.42 53.7771 28.41 53.3171 28.39C52.8771 28.39 52.3671 28.35 51.7871 28.27C51.2071 28.19 50.5871 28.07 49.9271 27.91C49.2871 27.75 48.6771 27.53 48.0971 27.25L53.2871 5.44L57.9371 4.72L56.0771 12.46C56.4771 12.28 56.8771 12.14 57.2771 12.04C57.6771 11.94 58.1071 11.89 58.5671 11.89ZM54.6671 24.73C55.3671 24.73 56.0271 24.56 56.6471 24.22C57.2671 23.88 57.7971 23.43 58.2371 22.87C58.6971 22.29 59.0571 21.64 59.3171 20.92C59.5771 20.2 59.7071 19.45 59.7071 18.67C59.7071 17.71 59.5471 16.96 59.2271 16.42C58.9071 15.88 58.3171 15.61 57.4571 15.61C57.1771 15.61 56.8071 15.66 56.3471 15.76C55.9071 15.86 55.5071 16.07 55.1471 16.39L53.1671 24.61C53.2871 24.63 53.3871 24.65 53.4671 24.67C53.5671 24.69 53.6671 24.71 53.7671 24.73C53.8671 24.73 53.9871 24.73 54.1271 24.73C54.2671 24.73 54.4471 24.73 54.6671 24.73ZM69.7929 28H65.3529L69.1029 12.22H73.5729L69.7929 28ZM71.9529 10.3C71.3329 10.3 70.7729 10.12 70.2729 9.76C69.7729 9.38 69.5229 8.81 69.5229 8.05C69.5229 7.63 69.6029 7.24 69.7629 6.88C69.9429 6.5 70.1729 6.18 70.4529 5.92C70.7329 5.64 71.0529 5.42 71.4129 5.26C71.7929 5.1 72.1929 5.02 72.6129 5.02C73.2329 5.02 73.7929 5.21 74.2929 5.59C74.7929 5.95 75.0429 6.51 75.0429 7.27C75.0429 7.69 74.9529 8.09 74.7729 8.47C74.6129 8.83 74.3929 9.15 74.1129 9.43C73.8329 9.69 73.5029 9.9 73.1229 10.06C72.7629 10.22 72.3729 10.3 71.9529 10.3ZM78.139 8.29L82.789 7.57L81.649 12.22H86.629L85.729 15.88H80.779L79.459 21.4C79.339 21.86 79.259 22.29 79.219 22.69C79.199 23.09 79.249 23.44 79.369 23.74C79.509 24.02 79.739 24.24 80.059 24.4C80.379 24.56 80.819 24.64 81.379 24.64C81.859 24.64 82.319 24.6 82.759 24.52C83.219 24.42 83.679 24.29 84.139 24.13L84.469 27.55C83.869 27.77 83.219 27.96 82.519 28.12C81.819 28.28 80.989 28.36 80.029 28.36C78.649 28.36 77.579 28.16 76.819 27.76C76.059 27.34 75.519 26.78 75.199 26.08C74.879 25.36 74.739 24.54 74.779 23.62C74.819 22.7 74.959 21.73 75.199 20.71L78.139 8.29ZM86.79 21.7C86.79 20.34 87.01 19.06 87.45 17.86C87.89 16.66 88.52 15.61 89.34 14.71C90.16 13.81 91.15 13.1 92.31 12.58C93.49 12.06 94.8 11.8 96.24 11.8C97.14 11.8 97.94 11.89 98.64 12.07C99.36 12.23 100.01 12.45 100.59 12.73L99.06 16.21C98.66 16.05 98.24 15.91 97.8 15.79C97.38 15.65 96.86 15.58 96.24 15.58C94.74 15.58 93.56 16.09 92.7 17.11C91.84 18.11 91.41 19.48 91.41 21.22C91.41 22.24 91.63 23.07 92.07 23.71C92.51 24.33 93.32 24.64 94.5 24.64C95.08 24.64 95.64 24.58 96.18 24.46C96.72 24.34 97.2 24.19 97.62 24.01L97.95 27.58C97.39 27.8 96.77 27.99 96.09 28.15C95.43 28.33 94.62 28.42 93.66 28.42C92.42 28.42 91.37 28.24 90.51 27.88C89.65 27.52 88.94 27.04 88.38 26.44C87.82 25.82 87.41 25.1 87.15 24.28C86.91 23.46 86.79 22.6 86.79 21.7ZM106.682 28.42C105.622 28.42 104.702 28.26 103.922 27.94C103.142 27.62 102.492 27.17 101.972 26.59C101.472 26.01 101.092 25.33 100.832 24.55C100.572 23.75 100.442 22.87 100.442 21.91C100.442 20.71 100.632 19.51 101.012 18.31C101.412 17.11 101.992 16.03 102.752 15.07C103.512 14.11 104.442 13.33 105.542 12.73C106.642 12.11 107.902 11.8 109.322 11.8C110.362 11.8 111.272 11.96 112.052 12.28C112.852 12.6 113.502 13.05 114.002 13.63C114.522 14.21 114.912 14.9 115.172 15.7C115.432 16.48 115.562 17.35 115.562 18.31C115.562 19.51 115.372 20.71 114.992 21.91C114.612 23.11 114.052 24.19 113.312 25.15C112.572 26.11 111.642 26.9 110.522 27.52C109.422 28.12 108.142 28.42 106.682 28.42ZM108.902 15.58C108.242 15.58 107.662 15.77 107.162 16.15C106.662 16.53 106.242 17.01 105.902 17.59C105.562 18.17 105.302 18.81 105.122 19.51C104.962 20.19 104.882 20.84 104.882 21.46C104.882 22.48 105.042 23.27 105.362 23.83C105.682 24.37 106.262 24.64 107.102 24.64C107.762 24.64 108.342 24.45 108.842 24.07C109.342 23.69 109.762 23.21 110.102 22.63C110.442 22.05 110.692 21.42 110.852 20.74C111.032 20.04 111.122 19.38 111.122 18.76C111.122 17.74 110.962 16.96 110.642 16.42C110.322 15.86 109.742 15.58 108.902 15.58ZM121.209 28H116.769L120.519 12.22H124.989L121.209 28ZM123.369 10.3C122.749 10.3 122.189 10.12 121.689 9.76C121.189 9.38 120.939 8.81 120.939 8.05C120.939 7.63 121.019 7.24 121.179 6.88C121.359 6.5 121.589 6.18 121.869 5.92C122.149 5.64 122.469 5.42 122.829 5.26C123.209 5.1 123.609 5.02 124.029 5.02C124.649 5.02 125.209 5.21 125.709 5.59C126.209 5.95 126.459 6.51 126.459 7.27C126.459 7.69 126.369 8.09 126.189 8.47C126.029 8.83 125.809 9.15 125.529 9.43C125.249 9.69 124.919 9.9 124.539 10.06C124.179 10.22 123.789 10.3 123.369 10.3ZM128.895 12.94C129.235 12.84 129.605 12.73 130.005 12.61C130.425 12.47 130.885 12.35 131.385 12.25C131.905 12.13 132.475 12.04 133.095 11.98C133.735 11.9 134.455 11.86 135.255 11.86C137.615 11.86 139.235 12.54 140.115 13.9C140.995 15.26 141.145 17.12 140.565 19.48L138.525 28H134.055L136.035 19.66C136.155 19.14 136.245 18.64 136.305 18.16C136.385 17.66 136.385 17.23 136.305 16.87C136.225 16.49 136.035 16.19 135.735 15.97C135.455 15.73 135.015 15.61 134.415 15.61C133.835 15.61 133.245 15.67 132.645 15.79L129.735 28H125.265L128.895 12.94ZM142.437 28L147.417 7.21H161.007L160.047 11.05H151.137L150.177 15.25H158.037L157.107 19.03H149.247L148.047 24.13H157.647L156.687 28H142.437ZM180.169 7.21L179.209 11.14H173.119L169.069 28H164.389L168.439 11.14H162.349L163.309 7.21H180.169ZM178.062 28L183.042 7.21H196.512L195.552 11.08H186.762L185.712 15.52H193.482L192.552 19.39H184.782L182.712 28H178.062ZM196.08 22.87C196.78 22.87 197.36 23.07 197.82 23.47C198.3 23.85 198.54 24.46 198.54 25.3C198.54 25.76 198.45 26.18 198.27 26.56C198.11 26.94 197.89 27.27 197.61 27.55C197.33 27.81 197.01 28.01 196.65 28.15C196.29 28.31 195.92 28.39 195.54 28.39C194.84 28.39 194.25 28.2 193.77 27.82C193.31 27.42 193.08 26.8 193.08 25.96C193.08 25.5 193.16 25.08 193.32 24.7C193.5 24.32 193.73 24 194.01 23.74C194.29 23.46 194.61 23.25 194.97 23.11C195.33 22.95 195.7 22.87 196.08 22.87ZM207.493 28.42C206.433 28.42 205.513 28.26 204.733 27.94C203.953 27.62 203.303 27.17 202.783 26.59C202.283 26.01 201.903 25.33 201.643 24.55C201.383 23.75 201.253 22.87 201.253 21.91C201.253 20.71 201.443 19.51 201.823 18.31C202.223 17.11 202.803 16.03 203.563 15.07C204.323 14.11 205.253 13.33 206.353 12.73C207.453 12.11 208.713 11.8 210.133 11.8C211.173 11.8 212.083 11.96 212.863 12.28C213.663 12.6 214.313 13.05 214.813 13.63C215.333 14.21 215.723 14.9 215.983 15.7C216.243 16.48 216.373 17.35 216.373 18.31C216.373 19.51 216.183 20.71 215.803 21.91C215.423 23.11 214.863 24.19 214.123 25.15C213.383 26.11 212.453 26.9 211.333 27.52C210.233 28.12 208.953 28.42 207.493 28.42ZM209.713 15.58C209.053 15.58 208.473 15.77 207.973 16.15C207.473 16.53 207.053 17.01 206.713 17.59C206.373 18.17 206.113 18.81 205.933 19.51C205.773 20.19 205.693 20.84 205.693 21.46C205.693 22.48 205.853 23.27 206.173 23.83C206.493 24.37 207.073 24.64 207.913 24.64C208.573 24.64 209.153 24.45 209.653 24.07C210.153 23.69 210.573 23.21 210.913 22.63C211.253 22.05 211.503 21.42 211.663 20.74C211.843 20.04 211.933 19.38 211.933 18.76C211.933 17.74 211.773 16.96 211.453 16.42C211.133 15.86 210.553 15.58 209.713 15.58ZM229.639 16.06C229.239 15.96 228.839 15.87 228.439 15.79C228.059 15.69 227.489 15.64 226.729 15.64C226.449 15.64 226.139 15.67 225.799 15.73C225.459 15.77 225.179 15.82 224.959 15.88L222.049 28H217.579L221.179 13.06C222.039 12.78 222.999 12.52 224.059 12.28C225.139 12.02 226.349 11.89 227.689 11.89C228.189 11.89 228.739 11.94 229.339 12.04C229.959 12.12 230.499 12.26 230.959 12.46L229.639 16.06ZM243.504 26.02C243.204 27.32 242.804 28.44 242.304 29.38C241.824 30.34 241.214 31.13 240.474 31.75C239.754 32.39 238.884 32.86 237.864 33.16C236.844 33.48 235.654 33.64 234.294 33.64C233.034 33.64 231.974 33.52 231.114 33.28C230.254 33.06 229.474 32.78 228.774 32.44L230.274 28.9C230.894 29.18 231.534 29.42 232.194 29.62C232.874 29.82 233.704 29.92 234.684 29.92C235.964 29.92 236.924 29.63 237.564 29.05C238.224 28.49 238.654 27.76 238.854 26.86L238.974 26.29C238.574 26.49 238.144 26.65 237.684 26.77C237.244 26.89 236.774 26.95 236.274 26.95C235.334 26.95 234.524 26.81 233.844 26.53C233.164 26.23 232.604 25.82 232.164 25.3C231.744 24.78 231.424 24.17 231.204 23.47C231.004 22.75 230.904 21.97 230.904 21.13C230.904 19.61 231.184 18.27 231.744 17.11C232.304 15.93 233.044 14.95 233.964 14.17C234.904 13.39 235.974 12.8 237.174 12.4C238.394 12 239.664 11.8 240.984 11.8C241.944 11.8 242.894 11.9 243.834 12.1C244.774 12.3 245.694 12.61 246.594 13.03L243.504 26.02ZM241.524 15.67C241.184 15.59 240.764 15.55 240.264 15.55C239.504 15.55 238.824 15.69 238.224 15.97C237.624 16.23 237.104 16.59 236.664 17.05C236.244 17.51 235.914 18.07 235.674 18.73C235.454 19.37 235.344 20.06 235.344 20.8C235.344 21.16 235.374 21.5 235.434 21.82C235.494 22.12 235.604 22.39 235.764 22.63C235.924 22.85 236.144 23.03 236.424 23.17C236.704 23.31 237.054 23.38 237.474 23.38C237.754 23.38 238.124 23.33 238.584 23.23C239.064 23.13 239.494 22.9 239.874 22.54L241.524 15.67Z" fill="white"/>
<path d="M17.088 66V54.8H21.584C22.7467 54.8 23.632 55.072 24.24 55.616C24.8587 56.1493 25.168 56.8373 25.168 57.68C25.168 58.384 24.976 58.9493 24.592 59.376C24.2187 59.792 23.76 60.0747 23.216 60.224C23.856 60.352 24.384 60.672 24.8 61.184C25.216 61.6853 25.424 62.272 25.424 62.944C25.424 63.8293 25.104 64.56 24.464 65.136C23.824 65.712 22.9173 66 21.744 66H17.088ZM19.136 59.504H21.28C21.856 59.504 22.2987 59.3707 22.608 59.104C22.9173 58.8373 23.072 58.4587 23.072 57.968C23.072 57.4987 22.9173 57.1307 22.608 56.864C22.3093 56.5867 21.856 56.448 21.248 56.448H19.136V59.504ZM19.136 64.336H21.424C22.032 64.336 22.5013 64.1973 22.832 63.92C23.1733 63.632 23.344 63.232 23.344 62.72C23.344 62.1973 23.168 61.7867 22.816 61.488C22.464 61.1893 21.9893 61.04 21.392 61.04H19.136V64.336ZM28.2378 56.832C27.8644 56.832 27.5551 56.72 27.3098 56.496C27.0751 56.272 26.9578 55.9893 26.9578 55.648C26.9578 55.3067 27.0751 55.0293 27.3098 54.816C27.5551 54.592 27.8644 54.48 28.2378 54.48C28.6111 54.48 28.9151 54.592 29.1498 54.816C29.3951 55.0293 29.5178 55.3067 29.5178 55.648C29.5178 55.9893 29.3951 56.272 29.1498 56.496C28.9151 56.72 28.6111 56.832 28.2378 56.832ZM27.2138 66V58.064H29.2618V66H27.2138ZM34.9354 66C34.1034 66 33.4367 65.7973 32.9354 65.392C32.434 64.9867 32.1834 64.2667 32.1834 63.232V59.776H30.8234V58.064H32.1834L32.4234 55.936H34.2314V58.064H36.3754V59.776H34.2314V63.248C34.2314 63.632 34.3114 63.8987 34.4714 64.048C34.642 64.1867 34.93 64.256 35.3354 64.256H36.3274V66H34.9354ZM41.8186 66.192C41.008 66.192 40.2933 66.016 39.6746 65.664C39.056 65.312 38.5653 64.8213 38.2026 64.192C37.8506 63.5627 37.6746 62.8427 37.6746 62.032C37.6746 61.2213 37.8506 60.5013 38.2026 59.872C38.5653 59.2427 39.056 58.752 39.6746 58.4C40.2933 58.048 41.008 57.872 41.8186 57.872C42.832 57.872 43.6853 58.1387 44.3786 58.672C45.072 59.1947 45.5146 59.92 45.7066 60.848H43.5466C43.44 60.464 43.2266 60.1653 42.9066 59.952C42.5973 59.728 42.2293 59.616 41.8026 59.616C41.2373 59.616 40.7573 59.8293 40.3626 60.256C39.968 60.6827 39.7706 61.2747 39.7706 62.032C39.7706 62.7893 39.968 63.3813 40.3626 63.808C40.7573 64.2347 41.2373 64.448 41.8026 64.448C42.2293 64.448 42.5973 64.3413 42.9066 64.128C43.2266 63.9147 43.44 63.6107 43.5466 63.216H45.7066C45.5146 64.112 45.072 64.832 44.3786 65.376C43.6853 65.92 42.832 66.192 41.8186 66.192ZM51.3324 66.192C50.5644 66.192 49.871 66.016 49.2524 65.664C48.6444 65.312 48.159 64.8267 47.7964 64.208C47.4444 63.5787 47.2684 62.8533 47.2684 62.032C47.2684 61.2107 47.4497 60.4907 47.8124 59.872C48.175 59.2427 48.6604 58.752 49.2684 58.4C49.887 58.048 50.5804 57.872 51.3484 57.872C52.1057 57.872 52.7884 58.048 53.3964 58.4C54.015 58.752 54.5004 59.2427 54.8524 59.872C55.215 60.4907 55.3964 61.2107 55.3964 62.032C55.3964 62.8533 55.215 63.5787 54.8524 64.208C54.5004 64.8267 54.015 65.312 53.3964 65.664C52.7777 66.016 52.0897 66.192 51.3324 66.192ZM51.3324 64.416C51.8657 64.416 52.3297 64.2187 52.7244 63.824C53.119 63.4187 53.3164 62.8213 53.3164 62.032C53.3164 61.2427 53.119 60.6507 52.7244 60.256C52.3297 59.8507 51.871 59.648 51.3484 59.648C50.8044 59.648 50.335 59.8507 49.9404 60.256C49.5564 60.6507 49.3644 61.2427 49.3644 62.032C49.3644 62.8213 49.5564 63.4187 49.9404 63.824C50.335 64.2187 50.799 64.416 51.3324 64.416ZM58.3315 56.832C57.9582 56.832 57.6488 56.72 57.4035 56.496C57.1688 56.272 57.0515 55.9893 57.0515 55.648C57.0515 55.3067 57.1688 55.0293 57.4035 54.816C57.6488 54.592 57.9582 54.48 58.3315 54.48C58.7048 54.48 59.0088 54.592 59.2435 54.816C59.4888 55.0293 59.6115 55.3067 59.6115 55.648C59.6115 55.9893 59.4888 56.272 59.2435 56.496C59.0088 56.72 58.7048 56.832 58.3315 56.832ZM57.3075 66V58.064H59.3555V66H57.3075ZM61.4931 66V58.064H63.3011L63.4611 59.408C63.7065 58.9387 64.0585 58.5653 64.5171 58.288C64.9865 58.0107 65.5358 57.872 66.1651 57.872C67.1465 57.872 67.9091 58.1813 68.4531 58.8C68.9971 59.4187 69.2691 60.3253 69.2691 61.52V66H67.2211V61.712C67.2211 61.0293 67.0825 60.5067 66.8051 60.144C66.5278 59.7813 66.0958 59.6 65.5091 59.6C64.9331 59.6 64.4585 59.8027 64.0851 60.208C63.7225 60.6133 63.5411 61.1787 63.5411 61.904V66H61.4931ZM71.2755 66V54.8H78.5875V56.448H73.3235V59.52H78.1075V61.12H73.3235V64.352H78.5875V66H71.2755ZM83.1335 66V56.448H79.8695V54.8H88.4615V56.448H85.1815V66H83.1335ZM89.9786 66V54.8H97.2106V56.448H92.0266V59.584H96.2186V61.2H92.0266V66H89.9786ZM98.67 66.112C98.2967 66.112 97.9873 65.9947 97.742 65.76C97.5073 65.5253 97.39 65.2427 97.39 64.912C97.39 64.5707 97.5073 64.2827 97.742 64.048C97.9873 63.8133 98.2967 63.696 98.67 63.696C99.0433 63.696 99.3473 63.8133 99.582 64.048C99.8273 64.2827 99.95 64.5707 99.95 64.912C99.95 65.2427 99.8273 65.5253 99.582 65.76C99.3473 65.9947 99.0433 66.112 98.67 66.112ZM105.442 66.192C104.674 66.192 103.98 66.016 103.362 65.664C102.754 65.312 102.268 64.8267 101.906 64.208C101.554 63.5787 101.378 62.8533 101.378 62.032C101.378 61.2107 101.559 60.4907 101.922 59.872C102.284 59.2427 102.77 58.752 103.378 58.4C103.996 58.048 104.69 57.872 105.458 57.872C106.215 57.872 106.898 58.048 107.506 58.4C108.124 58.752 108.61 59.2427 108.962 59.872C109.324 60.4907 109.506 61.2107 109.506 62.032C109.506 62.8533 109.324 63.5787 108.962 64.208C108.61 64.8267 108.124 65.312 107.506 65.664C106.887 66.016 106.199 66.192 105.442 66.192ZM105.442 64.416C105.975 64.416 106.439 64.2187 106.834 63.824C107.228 63.4187 107.426 62.8213 107.426 62.032C107.426 61.2427 107.228 60.6507 106.834 60.256C106.439 59.8507 105.98 59.648 105.458 59.648C104.914 59.648 104.444 59.8507 104.05 60.256C103.666 60.6507 103.474 61.2427 103.474 62.032C103.474 62.8213 103.666 63.4187 104.05 63.824C104.444 64.2187 104.908 64.416 105.442 64.416ZM111.337 66V58.064H113.161L113.353 59.552C113.641 59.04 114.03 58.6347 114.521 58.336C115.022 58.0267 115.609 57.872 116.281 57.872V60.032H115.705C115.257 60.032 114.857 60.1013 114.505 60.24C114.153 60.3787 113.876 60.6187 113.673 60.96C113.481 61.3013 113.385 61.776 113.385 62.384V66H111.337ZM120.853 63.632C120.469 63.632 120.112 63.5893 119.781 63.504L119.189 64.096C119.37 64.192 119.616 64.272 119.925 64.336C120.234 64.4 120.736 64.464 121.429 64.528C122.485 64.624 123.253 64.8747 123.733 65.28C124.213 65.6853 124.453 66.2453 124.453 66.96C124.453 67.4293 124.325 67.872 124.069 68.288C123.813 68.7147 123.418 69.056 122.885 69.312C122.352 69.5787 121.669 69.712 120.837 69.712C119.706 69.712 118.794 69.4987 118.101 69.072C117.408 68.656 117.061 68.0267 117.061 67.184C117.061 66.4693 117.408 65.8507 118.101 65.328C117.888 65.232 117.701 65.1307 117.541 65.024C117.392 64.9173 117.258 64.8053 117.141 64.688V64.32L118.533 62.848C117.914 62.304 117.605 61.6053 117.605 60.752C117.605 60.2187 117.733 59.7333 117.989 59.296C118.256 58.8587 118.629 58.512 119.109 58.256C119.589 58 120.17 57.872 120.853 57.872C121.301 57.872 121.717 57.936 122.101 58.064H125.109V59.312L123.749 59.408C123.962 59.8133 124.069 60.2613 124.069 60.752C124.069 61.2853 123.941 61.7707 123.685 62.208C123.429 62.6453 123.056 62.992 122.565 63.248C122.085 63.504 121.514 63.632 120.853 63.632ZM120.853 62.064C121.269 62.064 121.61 61.952 121.877 61.728C122.154 61.504 122.293 61.184 122.293 60.768C122.293 60.352 122.154 60.032 121.877 59.808C121.61 59.584 121.269 59.472 120.853 59.472C120.416 59.472 120.064 59.584 119.797 59.808C119.53 60.032 119.397 60.352 119.397 60.768C119.397 61.184 119.53 61.504 119.797 61.728C120.064 61.952 120.416 62.064 120.853 62.064ZM118.933 66.976C118.933 67.3707 119.114 67.664 119.477 67.856C119.85 68.0587 120.304 68.16 120.837 68.16C121.349 68.16 121.765 68.0533 122.085 67.84C122.405 67.6373 122.565 67.36 122.565 67.008C122.565 66.72 122.458 66.48 122.245 66.288C122.042 66.096 121.632 65.9787 121.013 65.936C120.576 65.904 120.17 65.856 119.797 65.792C119.488 65.9627 119.264 66.1493 119.125 66.352C118.997 66.5547 118.933 66.7627 118.933 66.976Z" fill="white" fill-opacity="0.6"/>
</svg>
