<svg width="220" height="97" viewBox="0 0 220 97" fill="none" xmlns="http://www.w3.org/2000/svg">
<g clip-path="url(#clip0_7818_90336)">
<path d="M23.3661 0.000976562L23.2051 0.547904V16.4171L23.3661 16.5777L30.7322 12.2235L23.3661 0.000976562Z" fill="#C0CCF7"/>
<path d="M23.3663 0.000976562L16 12.2235L23.3663 16.5777V8.87526V0.000976562Z" fill="white"/>
<path d="M23.3661 17.9725L23.2754 18.0832V23.736L23.3661 24.001L30.7368 13.6206L23.3661 17.9725Z" fill="white"/>
<path d="M23.3663 24.0007V17.9723L16 13.6204L23.3663 24.0007Z" fill="white"/>
<path d="M23.3672 16.5779L30.7333 12.2238L23.3672 8.87549V16.5779Z" fill="#8198EE"/>
<path d="M16 12.2238L23.3663 16.5779V8.87549L16 12.2238Z" fill="#C0CCF7"/>
</g>
<path d="M42.2853 15.1114C42.1354 13.3368 40.7682 11.712 38.8859 11.712C36.9989 11.712 35.6691 13.3368 35.4818 15.1114H42.2853ZM43.0532 15.4485C43.0485 15.6592 42.8753 15.8278 42.6645 15.8278H35.4818C35.6644 17.6024 36.9989 19.2272 38.8859 19.2272C40.1735 19.2272 41.1287 18.7402 41.8451 17.7101C41.9107 17.5977 42.0277 17.5322 42.1589 17.5275C42.3508 17.5228 42.51 17.6727 42.5147 17.8646V17.8834C42.5147 17.9489 42.496 18.0145 42.4585 18.066C41.7328 19.3208 40.2906 19.9389 38.8859 19.9389C36.4698 19.9389 34.7373 17.771 34.7373 15.4673C34.7373 13.1589 36.4604 10.9956 38.8859 10.9956C41.3113 10.9956 43.0438 13.1401 43.0532 15.4485Z" fill="white"/>
<path d="M51.7855 11.1688C51.9822 11.1735 52.1367 11.3327 52.1414 11.5247C52.146 11.7167 51.9962 11.8759 51.8042 11.8806H49.8564V19.4519C49.8564 19.6486 49.6972 19.8078 49.5005 19.8078C49.3038 19.8031 49.1493 19.6439 49.1446 19.4519V11.8852H47.2904C47.0985 11.8899 46.9393 11.7401 46.9346 11.5481V11.5294C46.9346 11.3327 47.0938 11.1735 47.2904 11.1735H49.1446V8.41093C49.1446 8.22364 49.2851 8.05975 49.4677 8.03166C49.6644 8.00356 49.8423 8.14404 49.8657 8.33601C49.8657 8.35474 49.8704 8.36879 49.8657 8.38752V11.1735L51.7855 11.1688Z" fill="white"/>
<path d="M63.5375 14.8301V19.4141C63.5328 19.6108 63.3736 19.7653 63.1817 19.77C62.9897 19.7746 62.8305 19.6248 62.8258 19.4328V14.8301C62.8258 13.2802 61.9502 11.7444 60.2271 11.7444C58.017 11.7444 57.0618 13.6735 57.1929 15.6542C57.1929 15.7103 57.2163 15.9351 57.2163 15.9679V19.4C57.2163 19.5873 57.0805 19.7512 56.8932 19.7793C56.6966 19.8074 56.5187 19.6669 56.4952 19.475C56.4952 19.4562 56.4906 19.4375 56.4952 19.4235V4.35562C56.4952 4.15896 56.6544 3.99976 56.8511 3.99976C57.0478 4.00444 57.2023 4.16364 57.207 4.35562V12.8682C57.825 11.7631 58.9301 11.0139 60.2177 11.0139C62.3341 11.0186 63.5375 12.8682 63.5375 14.8301Z" fill="white"/>
<path d="M75.6605 15.1114C75.5106 13.3368 74.1434 11.712 72.2611 11.712C70.3741 11.712 69.0443 13.3368 68.8617 15.1114H75.6605ZM76.4377 15.4485C76.4331 15.6592 76.2598 15.8278 76.0491 15.8278H68.8664C69.049 17.6024 70.3835 19.2272 72.2658 19.2272C73.5534 19.2272 74.5086 18.7402 75.225 17.7101C75.2952 17.5977 75.4123 17.5322 75.5387 17.5275C75.7307 17.5228 75.8899 17.6727 75.8946 17.8646V17.8834C75.8946 17.9489 75.8759 18.0145 75.8384 18.066C75.1126 19.3208 73.6705 19.9389 72.2658 19.9389C69.8497 19.9389 68.1172 17.771 68.1172 15.4673C68.1172 13.1589 69.8403 10.9956 72.2658 10.9956C74.6725 10.9956 76.4284 13.1401 76.4377 15.4485Z" fill="white"/>
<path d="M85.2685 11.5063C85.2826 11.7077 85.1327 11.8809 84.9314 11.895C82.8196 12.2087 81.8644 13.9318 81.8644 15.9358V19.3727C81.8644 19.56 81.7286 19.7239 81.5414 19.752C81.3447 19.7801 81.1668 19.6396 81.1434 19.4476C81.1387 19.4289 81.1387 19.4101 81.1387 19.3961V11.5625C81.1387 11.3752 81.2791 11.2113 81.4618 11.1832C81.6537 11.1551 81.8317 11.2956 81.8598 11.4876C81.8598 11.5063 81.8644 11.5204 81.8598 11.5391V13.1311C82.4544 12.1244 83.6391 11.1692 84.8705 11.1692C85.0625 11.1692 85.2685 11.3003 85.2685 11.5063Z" fill="white"/>
<path d="M96.3056 15.1114C96.1511 13.3368 94.7885 11.712 92.9015 11.712C91.0192 11.712 89.6847 13.3368 89.5021 15.1114H96.3056ZM97.0735 15.4485C97.0688 15.6592 96.8956 15.8278 96.6849 15.8278H89.5021C89.6847 17.6024 91.0192 19.2272 92.9015 19.2272C94.1892 19.2272 95.1444 18.7402 95.8608 17.7101C95.9263 17.5977 96.0434 17.5322 96.1745 17.5275C96.3665 17.5228 96.5257 17.6727 96.5303 17.8646V17.8834C96.5303 17.9489 96.5116 18.0145 96.4741 18.066C95.7484 19.3208 94.3062 19.9389 92.9015 19.9389C90.4854 19.9389 88.7529 17.771 88.7529 15.4673C88.7529 13.1589 90.476 10.9956 92.9015 10.9956C95.3316 10.9956 97.0641 13.1401 97.0735 15.4485Z" fill="white"/>
<path d="M108.685 11.5903V19.4566C108.68 19.6533 108.521 19.8078 108.329 19.8125C108.137 19.8172 107.978 19.6673 107.973 19.4754V17.963C107.379 19.1429 106.325 19.9998 104.986 19.9998C102.851 19.9998 101.671 18.1503 101.671 16.1883V11.5856C101.671 11.3889 101.83 11.2297 102.027 11.2297C102.223 11.2344 102.378 11.3936 102.383 11.5856V16.1883C102.383 17.7382 103.258 19.274 104.981 19.274C107.397 19.274 107.969 17.0124 107.969 14.5074V11.5715C107.973 11.3702 108.137 11.211 108.339 11.2157C108.381 11.2157 108.418 11.225 108.456 11.2391C108.596 11.3 108.685 11.4404 108.685 11.5903Z" fill="white"/>
<path d="M126.871 14.7975V19.4002C126.866 19.5969 126.707 19.7514 126.515 19.7561C126.323 19.7608 126.164 19.6109 126.159 19.419V14.7975C126.159 13.2476 125.284 11.7305 123.561 11.7305C121.393 11.7305 120.573 14.0483 120.573 15.8463V19.4002C120.569 19.5969 120.409 19.7514 120.217 19.7561C120.025 19.7608 119.866 19.6109 119.862 19.419V14.7975C119.862 13.2476 118.986 11.7305 117.263 11.7305C115.076 11.7305 114.177 13.4536 114.252 15.748C114.252 15.8042 114.276 15.8978 114.252 15.9306V19.3862C114.252 19.5735 114.116 19.7374 113.929 19.7655C113.732 19.7935 113.554 19.6531 113.531 19.4611C113.526 19.4424 113.526 19.4236 113.526 19.4096V11.562C113.526 11.3747 113.667 11.2108 113.849 11.1827C114.046 11.1546 114.224 11.2951 114.247 11.487C114.247 11.5058 114.252 11.5198 114.247 11.5385V12.8496C114.866 11.7446 115.971 11.0188 117.258 11.0188C118.719 11.0188 119.857 11.9506 120.325 13.3038C120.92 11.96 122.081 11.0188 123.565 11.0188C125.672 11.0188 126.871 12.8496 126.871 14.7975Z" fill="white"/>
<path d="M52.2612 50.9534H56.2955C56.8627 50.9534 57.3224 51.418 57.3224 51.9852C57.3224 52.5574 56.8627 53.017 56.2955 53.017H51.4299C51.3517 53.017 51.2784 53.0464 51.2246 53.0953L49.7576 54.3618C49.5326 54.5574 49.6695 54.9241 49.9629 54.9241H56.051C56.051 54.9241 56.0559 54.9241 56.0559 54.9192C56.0559 54.9143 56.0608 54.9143 56.0608 54.9143C56.139 54.9192 56.2124 54.9241 56.2906 54.9241C57.9043 54.9241 59.2148 53.6087 59.2148 51.9852C59.2148 50.4449 58.0363 49.1784 56.5302 49.0561C56.5302 49.0561 56.5253 49.0561 56.5253 49.0512C56.5253 49.0463 56.5253 49.0463 56.5204 49.0463H52.1781C51.6109 49.0463 51.1512 48.5818 51.1512 48.0146C51.1512 47.4424 51.6109 46.9828 52.1781 46.9828H57.0339C57.1121 46.9828 57.1904 46.9534 57.249 46.8996L58.6133 45.6331C58.8285 45.4327 58.6867 45.0757 58.3982 45.0757H52.2612C52.2368 45.0757 52.2075 45.0757 52.183 45.0757C50.5693 45.0757 49.2588 46.3911 49.2588 48.0146C49.2588 49.638 50.5693 50.9534 52.183 50.9534C52.2075 50.9534 52.2319 50.9534 52.2612 50.9534Z" fill="white"/>
<path d="M75.7427 45.0708C75.5666 45.0708 75.4248 45.2126 75.4248 45.3935V54.6063C75.4248 54.7823 75.5666 54.929 75.7427 54.929H83.1265C83.2146 54.929 83.2977 54.8899 83.3613 54.8263L84.2855 53.8337C84.4762 53.6283 84.3344 53.2909 84.0507 53.2909H77.6057C77.4297 53.2909 77.2879 53.1491 77.2879 52.9681V45.3887C77.2879 45.2126 77.1461 45.0659 76.97 45.0659H75.7427V45.0708Z" fill="white"/>
<path fill-rule="evenodd" clip-rule="evenodd" d="M63.9186 45.071C63.9186 45.0759 63.9186 45.0759 63.9186 45.071C62.9748 45.1151 62.2169 45.873 62.1729 46.8168V53.0124C62.1729 53.0368 62.1729 53.0662 62.1729 53.0906C62.1729 54.0735 62.9455 54.8755 63.9186 54.9146H70.6179C71.5861 54.8706 72.3636 54.0686 72.3636 53.0906C72.3636 53.0662 72.3636 53.0368 72.3636 53.0124V46.8217C72.3245 45.8779 71.5665 45.1151 70.6228 45.0759H63.9186V45.071ZM65.1704 46.8217C65.1655 46.8217 65.1655 46.8217 65.1704 46.8217C64.5787 46.8461 64.1044 47.3253 64.0799 47.9219V51.8192C64.0799 51.8339 64.0799 51.8535 64.0799 51.8681C64.0799 52.4843 64.5641 52.9928 65.1704 53.0173H69.3709C69.9773 52.9928 70.4614 52.4843 70.4614 51.8681C70.4614 51.8535 70.4614 51.8339 70.4614 51.8192V47.9219C70.4369 47.3253 69.9626 46.851 69.3709 46.8217H65.1704Z" fill="white"/>
<path fill-rule="evenodd" clip-rule="evenodd" d="M95.0188 54.6065C95.0188 54.7825 95.1606 54.9292 95.3366 54.9292H96.5885C96.7645 54.9292 96.9063 54.7874 96.9063 54.6065V46.983C96.9063 46.9586 96.9063 46.9292 96.9063 46.9048C96.9063 45.9219 96.1386 45.1199 95.1802 45.0808H88.7498C88.7254 45.0808 88.696 45.0808 88.6716 45.0808C87.674 45.0808 86.8672 45.8974 86.8672 46.9097C86.8672 46.9341 86.8672 46.9635 86.8672 46.9879V54.6114C86.8672 54.7874 87.009 54.9341 87.185 54.9341H88.4369C88.6129 54.9341 88.7547 54.7923 88.7547 54.6114V51.4378C88.7547 51.2617 88.8965 51.115 89.0726 51.115H94.7156C94.8917 51.115 95.0335 51.2569 95.0335 51.4378V54.6065H95.0188ZM88.7449 49.3595V47.7752C88.7449 47.1591 89.2388 46.6603 89.8452 46.6603H93.9234C94.5298 46.6603 95.0237 47.1591 95.0237 47.7752V49.3595C95.0237 49.5356 94.8819 49.6823 94.7058 49.6823H89.0628C88.8867 49.6823 88.7449 49.5405 88.7449 49.3595Z" fill="white"/>
<path fill-rule="evenodd" clip-rule="evenodd" d="M121.449 54.929C121.273 54.929 121.131 54.7872 121.131 54.6063V51.4327C121.131 51.2566 120.989 51.1099 120.813 51.1099H115.107C114.931 51.1099 114.789 51.2517 114.789 51.4327V54.6063C114.789 54.7823 114.647 54.929 114.471 54.929H113.209C113.033 54.929 112.892 54.7872 112.892 54.6063V46.9828C112.892 46.9583 112.892 46.929 112.892 46.9045C112.892 45.8972 113.708 45.0757 114.716 45.0757C114.74 45.0757 114.769 45.0757 114.794 45.0757H121.293C122.261 45.1197 123.038 45.9217 123.038 46.8996C123.038 46.9241 123.038 46.9534 123.038 46.9779V54.6014C123.038 54.7774 122.897 54.9241 122.72 54.9241H121.449V54.929ZM114.789 47.775V49.3593C114.789 49.5353 114.931 49.682 115.107 49.682H120.813C120.989 49.682 121.131 49.5402 121.131 49.3593V47.775C121.131 47.1588 120.632 46.66 120.021 46.66H115.899C115.283 46.66 114.789 47.1588 114.789 47.775Z" fill="white"/>
<path d="M101.621 45.071C101.714 45.071 101.802 45.1102 101.86 45.1835L107.474 51.8779C107.665 52.1028 108.032 51.9659 108.032 51.6676V45.3938C108.032 45.2177 108.173 45.071 108.349 45.071H109.601C109.777 45.071 109.919 45.2129 109.919 45.3938V54.6065C109.919 54.7825 109.777 54.9292 109.601 54.9292H108.046C108.041 54.9292 108.036 54.9244 108.036 54.9195C108.036 54.9146 108.036 54.9146 108.032 54.9097L102.32 48.2642C102.129 48.0393 101.763 48.1811 101.763 48.4745V54.6114C101.763 54.7874 101.621 54.9341 101.445 54.9341H100.183C100.007 54.9341 99.8652 54.7923 99.8652 54.6114V45.3938C99.8652 45.2177 100.007 45.071 100.183 45.071H101.621Z" fill="white"/>
<path d="M20.1484 55.2665C20.3049 55.11 20.5152 55.022 20.7352 55.022H41.102C41.4737 55.022 41.6595 55.4719 41.3954 55.731L37.371 59.7555C37.2145 59.912 37.0042 60 36.7842 60H16.4174C16.0457 60 15.8599 59.5501 16.124 59.2909L20.1484 55.2665Z" fill="white"/>
<path d="M20.1484 40.2445C20.3049 40.088 20.5152 40 20.7352 40H41.102C41.4737 40 41.6595 40.4499 41.3954 40.709L37.371 44.7286C37.2145 44.8851 37.0042 44.9731 36.7842 44.9731H16.4174C16.0457 44.9731 15.8599 44.5232 16.124 44.2641L20.1484 40.2445Z" fill="white"/>
<path d="M37.371 47.7067C37.2145 47.5502 37.0042 47.4622 36.7842 47.4622H16.4174C16.0457 47.4622 15.8599 47.912 16.124 48.1712L20.1484 52.1908C20.3049 52.3472 20.5152 52.4353 20.7352 52.4353H41.102C41.4737 52.4353 41.6595 51.9854 41.3954 51.7262L37.371 47.7067Z" fill="white"/>
<path d="M17.088 92V80.8H20.912C22.224 80.8 23.3013 81.0347 24.144 81.504C24.9973 81.9627 25.6267 82.6133 26.032 83.456C26.448 84.288 26.656 85.2693 26.656 86.4C26.656 87.5307 26.448 88.5173 26.032 89.36C25.6267 90.192 24.9973 90.8427 24.144 91.312C23.3013 91.7707 22.224 92 20.912 92H17.088ZM19.136 90.24H20.816C21.7547 90.24 22.496 90.0907 23.04 89.792C23.584 89.4827 23.9733 89.0453 24.208 88.48C24.4427 87.904 24.56 87.2107 24.56 86.4C24.56 85.6 24.4427 84.912 24.208 84.336C23.9733 83.76 23.584 83.3173 23.04 83.008C22.496 82.6987 21.7547 82.544 20.816 82.544H19.136V90.24ZM32.271 92.192C31.471 92.192 30.7617 92.0213 30.143 91.68C29.5243 91.3387 29.039 90.8587 28.687 90.24C28.335 89.6213 28.159 88.9067 28.159 88.096C28.159 87.2747 28.3297 86.544 28.671 85.904C29.023 85.264 29.503 84.768 30.111 84.416C30.7297 84.0533 31.455 83.872 32.287 83.872C33.0657 83.872 33.7537 84.0427 34.351 84.384C34.9483 84.7253 35.4123 85.1947 35.743 85.792C36.0843 86.3787 36.255 87.0347 36.255 87.76C36.255 87.8773 36.2497 88 36.239 88.128C36.239 88.256 36.2337 88.3893 36.223 88.528H30.191C30.2337 89.1467 30.447 89.632 30.831 89.984C31.2257 90.336 31.7003 90.512 32.255 90.512C32.671 90.512 33.0177 90.4213 33.295 90.24C33.583 90.048 33.7963 89.8027 33.935 89.504H36.015C35.8657 90.0053 35.615 90.464 35.263 90.88C34.9217 91.2853 34.495 91.6053 33.983 91.84C33.4817 92.0747 32.911 92.192 32.271 92.192ZM32.287 85.536C31.7857 85.536 31.343 85.68 30.959 85.968C30.575 86.2453 30.3297 86.672 30.223 87.248H34.175C34.143 86.7253 33.951 86.3093 33.599 86C33.247 85.6907 32.8097 85.536 32.287 85.536ZM38.0255 92V80.8H45.2575V82.448H40.0735V85.584H44.2655V87.2H40.0735V92H38.0255ZM47.894 82.832C47.5207 82.832 47.2113 82.72 46.966 82.496C46.7313 82.272 46.614 81.9893 46.614 81.648C46.614 81.3067 46.7313 81.0293 46.966 80.816C47.2113 80.592 47.5207 80.48 47.894 80.48C48.2673 80.48 48.5713 80.592 48.806 80.816C49.0513 81.0293 49.174 81.3067 49.174 81.648C49.174 81.9893 49.0513 82.272 48.806 82.496C48.5713 82.72 48.2673 82.832 47.894 82.832ZM46.87 92V84.064H48.918V92H46.87Z" fill="white" fill-opacity="0.6"/>
<defs>
<clipPath id="clip0_7818_90336">
<rect width="14.737" height="24" fill="white" transform="translate(16)"/>
</clipPath>
</defs>
</svg>
