<svg xmlns="http://www.w3.org/2000/svg" width="25" height="24" fill="none" viewBox="0 0 25 24">
  <path fill="#9B9B9B" fill-rule="evenodd" d="M10.747 7.333c.863-1.33 2.26-2.16 3.804-2.16 2.211 0 4.154 1.726 4.581 4.152l.09.512.501.166c1.645.547 2.828 2.076 2.828 3.876 0 2.26-1.864 4.09-4.162 4.09h-.06v1.745h.06c3.281 0 5.94-2.613 5.94-5.835 0-2.388-1.46-4.44-3.55-5.343-.72-2.89-3.188-5.107-6.228-5.107-1.976 0-3.72.944-4.89 2.395a4.78 4.78 0 0 0-5.885 3.58C1.76 10.184.33 12.114.33 14.375c0 2.948 2.432 5.34 5.434 5.34h1.423v-1.746H5.763c-2.019 0-3.657-1.608-3.657-3.594 0-1.658 1.143-3.054 2.697-3.469l.593-.158.059-.6C5.607 8.593 6.903 7.41 8.44 7.41c.425 0 .828.089 1.193.25l.702.309.412-.637Z" clip-rule="evenodd"/>
  <path fill="#9B9B9B" fill-rule="evenodd" d="M13.678 12.71c0-.392-.418-.71-.935-.71-.516 0-.935.318-.935.71v6.4l-1.226-1.228a.923.923 0 0 0-1.308 0 .928.928 0 0 0 0 1.31l2.815 2.822a.924.924 0 0 0 1.308 0l2.815-2.821a.928.928 0 0 0 0-1.311.924.924 0 0 0-1.308 0l-1.226 1.229v-6.4Z" clip-rule="evenodd"/>
</svg>
