<svg width="24" height="24" viewBox="0 0 24 24" fill="none" xmlns="http://www.w3.org/2000/svg">
<path fill-rule="evenodd" clip-rule="evenodd" d="M12 4C9.12708 4 6.67647 5.73299 5.59171 8.18979C2.96095 8.81911 1 11.1673 1 14C1 17.3123 3.68772 20 7 20H18C20.7623 20 23 17.7623 23 15C23 12.5594 21.2531 10.5283 18.941 10.0883C18.4934 6.65583 15.5534 4 12 4ZM7.26591 9.39446C7.9431 7.42141 9.80495 6 12 6C14.7577 6 17 8.24228 17 11C17 11.5523 17.4477 12 18 12C19.6577 12 21 13.3423 21 15C21 16.6577 19.6577 18 18 18H7C4.79228 18 3 16.2077 3 14C3 11.9823 4.49832 10.3253 6.45409 10.0608C6.82895 10.0101 7.14311 9.75224 7.26591 9.39446ZM15.5134 12.2167C15.8154 11.9331 15.8303 11.4585 15.5467 11.1565C15.2632 10.8546 14.7886 10.8396 14.4866 11.1232L11.4545 13.9705L9.84428 12.454C9.54274 12.17 9.06808 12.1843 8.78409 12.4858C8.50011 12.7873 8.51434 13.262 8.81588 13.546L10.9395 15.546C11.228 15.8177 11.6782 15.818 11.9671 15.5467L15.5134 12.2167Z" fill="#9B9B9B"/>
</svg>
