<svg xmlns="http://www.w3.org/2000/svg" width="24" height="24" fill="none" viewBox="0 0 24 24">
  <path fill="#9B9B9B" fill-rule="evenodd" d="M2.043 12c0-5.68 4.605-10.286 10.286-10.286 5.68 0 10.285 4.605 10.285 10.286 0 5.68-4.605 10.286-10.285 10.286C6.648 22.286 2.043 17.68 2.043 12Zm10.286-8.416a8.416 8.416 0 1 0 0 16.832 8.416 8.416 0 0 0 0-16.832Z" clip-rule="evenodd" opacity=".4"/>
  <path fill="#9B9B9B" fill-rule="evenodd" d="M12.329 1.714c5.68 0 10.285 4.605 10.285 10.286 0 5.68-4.605 10.286-10.285 10.286C6.648 22.286 2.043 17.68 2.043 12h1.87a8.416 8.416 0 1 0 8.416-8.416v-1.87Z" clip-rule="evenodd"/>
  <path fill="#9B9B9B" fill-rule="evenodd" d="M12.329 7.325c.516 0 .935.318.935.71v7.93c0 .392-.419.71-.935.71-.517 0-.935-.318-.935-.71v-7.93c0-.392.418-.71.935-.71Z" clip-rule="evenodd"/>
  <path fill="#9B9B9B" fill-rule="evenodd" d="M8.86 13.207a.924.924 0 0 1 1.308 0l2.16 2.165 2.162-2.165a.924.924 0 0 1 1.308 0 .929.929 0 0 1 0 1.31l-2.815 2.822a.924.924 0 0 1-1.308 0l-2.816-2.821a.928.928 0 0 1 0-1.312Z" clip-rule="evenodd"/>
</svg>
