<svg width="24" height="24" viewBox="0 0 24 24" fill="none" xmlns="http://www.w3.org/2000/svg">
<path opacity="0.4" fill-rule="evenodd" clip-rule="evenodd" d="M2.04297 12C2.04297 6.31937 6.64804 1.71429 12.3287 1.71429C18.0093 1.71429 22.6144 6.31937 22.6144 12C22.6144 17.6807 18.0093 22.2857 12.3287 22.2857C6.64804 22.2857 2.04297 17.6807 2.04297 12ZM12.3287 3.58442C7.68088 3.58442 3.9131 7.35221 3.9131 12C3.9131 16.6478 7.68088 20.4156 12.3287 20.4156C16.9765 20.4156 20.7443 16.6478 20.7443 12C20.7443 7.35221 16.9765 3.58442 12.3287 3.58442Z" fill="#9B9B9B"/>
<path fill-rule="evenodd" clip-rule="evenodd" d="M12.3287 1.71429C18.0093 1.71429 22.6144 6.31937 22.6144 12C22.6144 17.6807 18.0093 22.2857 12.3287 22.2857C6.64802 22.2857 2.04295 17.6807 2.04295 12L3.91308 12C3.91308 16.6478 7.68087 20.4156 12.3287 20.4156C16.9765 20.4156 20.7442 16.6478 20.7442 12C20.7442 7.35221 16.9765 3.58442 12.3287 3.58442L12.3287 1.71429Z" fill="#9B9B9B"/>
</svg>
