<svg width="24" height="24" viewBox="0 0 24 24" fill="none" xmlns="http://www.w3.org/2000/svg">
<path fill-rule="evenodd" clip-rule="evenodd" d="M7.39017 3.25C7.40701 3.25 7.42391 3.25 7.44086 3.25C7.45782 3.25 7.47471 3.25 7.49155 3.25C8.25928 3.24997 8.90987 3.24994 9.42858 3.31968C9.98024 3.39385 10.4936 3.55905 10.9082 3.97358C11.3227 4.3881 11.4879 4.90148 11.562 5.45315C11.6318 5.97186 11.6318 6.62244 11.6317 7.39016V7.49156C11.6318 8.25929 11.6318 8.90987 11.562 9.42858C11.4879 9.98024 11.3227 10.4936 10.9082 10.9082C10.4936 11.3227 9.98024 11.4879 9.42858 11.562C8.90987 11.6318 8.25928 11.6318 7.49155 11.6317H7.39018C6.62244 11.6318 5.97186 11.6318 5.45315 11.562C4.90148 11.4879 4.3881 11.3227 3.97358 10.9082C3.55905 10.4936 3.39385 9.98024 3.31968 9.42858C3.24994 8.90987 3.24997 8.25928 3.25 7.49155C3.25 7.47471 3.25 7.45782 3.25 7.44086C3.25 7.42391 3.25 7.40701 3.25 7.39017C3.24997 6.62244 3.24994 5.97186 3.31968 5.45315C3.39385 4.90148 3.55905 4.3881 3.97358 3.97358C4.3881 3.55905 4.90148 3.39385 5.45315 3.31968C5.97186 3.24994 6.62244 3.24997 7.39017 3.25ZM5.65302 4.8063C5.26769 4.85811 5.12361 4.94486 5.03424 5.03424C4.94486 5.12361 4.85811 5.26769 4.8063 5.65302C4.7516 6.05993 4.75 6.60864 4.75 7.44086C4.75 8.27308 4.7516 8.8218 4.8063 9.22871C4.85811 9.61404 4.94486 9.75812 5.03424 9.84749C5.12361 9.93686 5.26769 10.0236 5.65302 10.0754C6.05993 10.1301 6.60864 10.1317 7.44086 10.1317C8.27308 10.1317 8.8218 10.1301 9.22871 10.0754C9.61404 10.0236 9.75812 9.93686 9.84749 9.84749C9.93687 9.75812 10.0236 9.61404 10.0754 9.22871C10.1301 8.8218 10.1317 8.27308 10.1317 7.44086C10.1317 6.60864 10.1301 6.05993 10.0754 5.65302C10.0236 5.26769 9.93687 5.12361 9.84749 5.03424C9.75812 4.94486 9.61404 4.85811 9.22871 4.8063C8.8218 4.7516 8.27308 4.75 7.44086 4.75C6.60864 4.75 6.05993 4.7516 5.65302 4.8063ZM16.5084 3.25H16.6098C17.3776 3.24997 18.0281 3.24994 18.5469 3.31968C19.0985 3.39385 19.6119 3.55905 20.0264 3.97358C20.441 4.3881 20.6062 4.90148 20.6803 5.45315C20.7501 5.97186 20.75 6.62245 20.75 7.39018V7.49155C20.75 8.25928 20.7501 8.90987 20.6803 9.42858C20.6062 9.98024 20.441 10.4936 20.0264 10.9082C19.6119 11.3227 19.0985 11.4879 18.5469 11.562C18.0281 11.6318 17.3776 11.6318 16.6098 11.6317H16.5085C15.7407 11.6318 15.0901 11.6318 14.5714 11.562C14.0198 11.4879 13.5064 11.3227 13.0919 10.9082C12.6773 10.4936 12.5121 9.98024 12.438 9.42858C12.3682 8.90987 12.3682 8.25928 12.3683 7.49155V7.39018C12.3682 6.62244 12.3682 5.97186 12.438 5.45315C12.5121 4.90148 12.6773 4.3881 13.0919 3.97358C13.5064 3.55905 14.0198 3.39385 14.5714 3.31968C15.0901 3.24994 15.7407 3.24997 16.5084 3.25ZM14.7713 4.8063C14.386 4.85811 14.2419 4.94486 14.1525 5.03424C14.0631 5.12361 13.9764 5.26769 13.9246 5.65302C13.8699 6.05993 13.8683 6.60864 13.8683 7.44086C13.8683 8.27308 13.8699 8.8218 13.9246 9.22871C13.9764 9.61404 14.0631 9.75812 14.1525 9.84749C14.2419 9.93686 14.386 10.0236 14.7713 10.0754C15.1782 10.1301 15.7269 10.1317 16.5591 10.1317C17.3914 10.1317 17.9401 10.1301 18.347 10.0754C18.7323 10.0236 18.8764 9.93686 18.9658 9.84749C19.0551 9.75812 19.1419 9.61404 19.1937 9.22871C19.2484 8.8218 19.25 8.27308 19.25 7.44086C19.25 6.60864 19.2484 6.05993 19.1937 5.65302C19.1419 5.26769 19.0551 5.12361 18.9658 5.03424C18.8764 4.94486 18.7323 4.85811 18.347 4.8063C17.9401 4.7516 17.3914 4.75 16.5591 4.75C15.7269 4.75 15.1782 4.7516 14.7713 4.8063ZM7.39021 12.3683H7.49152C8.25926 12.3682 8.90986 12.3682 9.42858 12.438C9.98024 12.5121 10.4936 12.6773 10.9082 13.0919C11.3227 13.5064 11.4879 14.0198 11.562 14.5714C11.6318 15.0901 11.6318 15.7407 11.6317 16.5084V16.6098C11.6318 17.3776 11.6318 18.0281 11.562 18.5469C11.4879 19.0985 11.3227 19.6119 10.9082 20.0264C10.4936 20.441 9.98024 20.6062 9.42858 20.6803C8.90987 20.7501 8.25928 20.75 7.49155 20.75H7.39018C6.62244 20.75 5.97186 20.7501 5.45315 20.6803C4.90148 20.6062 4.3881 20.441 3.97358 20.0264C3.55905 19.6119 3.39385 19.0985 3.31968 18.5469C3.24994 18.0281 3.24997 17.3776 3.25 16.6098V16.5084C3.24997 15.7407 3.24994 15.0901 3.31968 14.5714C3.39385 14.0198 3.55905 13.5064 3.97358 13.0919C4.3881 12.6773 4.90148 12.5121 5.45315 12.438C5.97187 12.3682 6.62246 12.3682 7.39021 12.3683ZM5.65302 13.9246C5.26769 13.9764 5.12361 14.0631 5.03424 14.1525C4.94486 14.2419 4.85811 14.386 4.8063 14.7713C4.7516 15.1782 4.75 15.7269 4.75 16.5591C4.75 17.3914 4.7516 17.9401 4.8063 18.347C4.85811 18.7323 4.94486 18.8764 5.03424 18.9658C5.12361 19.0551 5.26769 19.1419 5.65302 19.1937C6.05993 19.2484 6.60864 19.25 7.44086 19.25C8.27308 19.25 8.8218 19.2484 9.22871 19.1937C9.61404 19.1419 9.75812 19.0551 9.84749 18.9658C9.93686 18.8764 10.0236 18.7323 10.0754 18.347C10.1301 17.9401 10.1317 17.3914 10.1317 16.5591C10.1317 15.7269 10.1301 15.1782 10.0754 14.7713C10.0236 14.386 9.93687 14.2419 9.84749 14.1525C9.75812 14.0631 9.61404 13.9764 9.22871 13.9246C8.8218 13.8699 8.27308 13.8683 7.44086 13.8683C6.60864 13.8683 6.05993 13.8699 5.65302 13.9246ZM16.4963 12.3683H16.5976C17.3653 12.3682 18.0159 12.3682 18.5346 12.438C19.0863 12.5121 19.5997 12.6773 20.0142 13.0919C20.4287 13.5064 20.5939 14.0198 20.6681 14.5714C20.7378 15.0901 20.7378 15.7407 20.7378 16.5085V16.6098C20.7378 17.3776 20.7378 18.0281 20.6681 18.5469C20.5939 19.0985 20.4287 19.6119 20.0142 20.0264C19.5997 20.441 19.0863 20.6062 18.5346 20.6803C18.0159 20.7501 17.3653 20.75 16.5976 20.75H16.4962C15.7285 20.75 15.0779 20.7501 14.5592 20.6803C14.0075 20.6062 13.4942 20.441 13.0796 20.0264C12.6651 19.6119 12.4999 19.0985 12.4257 18.5469C12.356 18.0281 12.356 17.3776 12.3561 16.6098V16.5085C12.356 15.7407 12.356 15.0901 12.4257 14.5714C12.4999 14.0198 12.6651 13.5064 13.0796 13.0919C13.4942 12.6773 14.0075 12.5121 14.5592 12.438C15.0779 12.3682 15.7285 12.3682 16.4963 12.3683ZM14.7591 13.9246C14.3737 13.9764 14.2297 14.0631 14.1403 14.1525C14.0509 14.2419 13.9642 14.386 13.9124 14.7713C13.8576 15.1782 13.8561 15.7269 13.8561 16.5591C13.8561 17.3914 13.8576 17.9401 13.9124 18.347C13.9642 18.7323 14.0509 18.8764 14.1403 18.9658C14.2297 19.0551 14.3737 19.1419 14.7591 19.1937C15.166 19.2484 15.7147 19.25 16.5469 19.25C17.3791 19.25 17.9279 19.2484 18.3348 19.1937C18.7201 19.1419 18.8642 19.0551 18.9535 18.9658C19.0429 18.8764 19.1297 18.7323 19.1815 18.347C19.2362 17.9401 19.2378 17.3914 19.2378 16.5591C19.2378 15.7269 19.2362 15.1782 19.1815 14.7713C19.1297 14.386 19.0429 14.2419 18.9535 14.1525C18.8642 14.0631 18.7201 13.9764 18.3348 13.9246C17.9279 13.8699 17.3791 13.8683 16.5469 13.8683C15.7147 13.8683 15.166 13.8699 14.7591 13.9246Z" fill="#9B9B9B"/>
</svg>
