<svg width="24" height="24" viewBox="0 0 24 24" fill="none" xmlns="http://www.w3.org/2000/svg">
<mask id="path-1-inside-1_1_4887" fill="white">
<path d="M21.117 12.7906C21.584 12.8311 21.9335 13.2435 21.8535 13.7054C21.5662 15.3656 20.863 16.9312 19.8037 18.2532C18.5669 19.7966 16.9002 20.9387 15.0144 21.5349C13.1286 22.131 11.1083 22.1546 9.2091 21.6026C7.30988 21.0507 5.61699 19.9479 4.34451 18.4338C3.07203 16.9197 2.27711 15.0622 2.06028 13.0963C1.84345 11.1304 2.21444 9.14439 3.12634 7.38935C4.03824 5.6343 5.45009 4.18908 7.18336 3.23644C8.66795 2.42048 10.3312 1.99728 12.0161 2.00001C12.4849 2.00077 12.8311 2.41599 12.7906 2.88303C12.7501 3.35006 12.338 3.69128 11.8693 3.69866C10.5198 3.7199 9.19127 4.07 8.00105 4.72417C6.56203 5.51509 5.38985 6.71496 4.63276 8.17207C3.87567 9.62917 3.56766 11.2781 3.74768 12.9102C3.9277 14.5424 4.58767 16.0845 5.64413 17.3416C6.70059 18.5986 8.10609 19.5142 9.6829 19.9725C11.2597 20.4308 12.937 20.4112 14.5027 19.9162C16.0683 19.4212 17.4521 18.4731 18.4789 17.1917C19.3282 16.1318 19.9017 14.8833 20.1549 13.5577C20.2429 13.0972 20.6499 12.7501 21.117 12.7906Z"/>
</mask>
<path d="M21.117 12.7906C21.584 12.8311 21.9335 13.2435 21.8535 13.7054C21.5662 15.3656 20.863 16.9312 19.8037 18.2532C18.5669 19.7966 16.9002 20.9387 15.0144 21.5349C13.1286 22.131 11.1083 22.1546 9.2091 21.6026C7.30988 21.0507 5.61699 19.9479 4.34451 18.4338C3.07203 16.9197 2.27711 15.0622 2.06028 13.0963C1.84345 11.1304 2.21444 9.14439 3.12634 7.38935C4.03824 5.6343 5.45009 4.18908 7.18336 3.23644C8.66795 2.42048 10.3312 1.99728 12.0161 2.00001C12.4849 2.00077 12.8311 2.41599 12.7906 2.88303C12.7501 3.35006 12.338 3.69128 11.8693 3.69866C10.5198 3.7199 9.19127 4.07 8.00105 4.72417C6.56203 5.51509 5.38985 6.71496 4.63276 8.17207C3.87567 9.62917 3.56766 11.2781 3.74768 12.9102C3.9277 14.5424 4.58767 16.0845 5.64413 17.3416C6.70059 18.5986 8.10609 19.5142 9.6829 19.9725C11.2597 20.4308 12.937 20.4112 14.5027 19.9162C16.0683 19.4212 17.4521 18.4731 18.4789 17.1917C19.3282 16.1318 19.9017 14.8833 20.1549 13.5577C20.2429 13.0972 20.6499 12.7501 21.117 12.7906Z" stroke="#9B9B9B" stroke-width="3" mask="url(#path-1-inside-1_1_4887)"/>
</svg>
