<svg width="24" height="24" viewBox="0 0 24 24" fill="none" xmlns="http://www.w3.org/2000/svg">
<path fill-rule="evenodd" clip-rule="evenodd" d="M2.17647 5.33334C2.17647 3.70182 3.34798 2.11111 5.1016 2.11111H13.7647C14.317 2.11111 14.7647 2.55883 14.7647 3.11111C14.7647 3.6634 14.317 4.11111 13.7647 4.11111H5.1016C4.71833 4.11111 4.17647 4.5204 4.17647 5.33334V18.6667C4.17647 19.4796 4.71833 19.8889 5.1016 19.8889H13.7647C14.317 19.8889 14.7647 20.3366 14.7647 20.8889C14.7647 21.4412 14.317 21.8889 13.7647 21.8889H5.1016C3.34798 21.8889 2.17647 20.2982 2.17647 18.6667V5.33334ZM8.05882 12.0001C8.05874 11.4479 8.50638 11.0001 9.05867 11L18.3087 10.9987L16.6075 9.39205C16.206 9.01284 16.1879 8.37993 16.5671 7.97842C16.9463 7.5769 17.5792 7.55881 17.9808 7.93803L21.5102 11.2714C21.5379 11.2976 21.564 11.3252 21.5884 11.3541C21.728 11.5197 21.8148 11.7313 21.8229 11.9629C21.8233 11.9747 21.8235 11.9865 21.8235 11.9984C21.8235 12.0102 21.8233 12.022 21.8229 12.0337C21.8134 12.3068 21.6945 12.552 21.5086 12.7269L17.9808 16.0587C17.5792 16.4379 16.9463 16.4198 16.5671 16.0183C16.1879 15.6168 16.206 14.9839 16.6075 14.6047L18.3079 12.9987L9.05898 13C8.50669 13.0001 8.05891 12.5524 8.05882 12.0001Z" fill="#9B9B9B"/>
</svg>
