<svg width="24" height="24" viewBox="0 0 24 24" fill="none" xmlns="http://www.w3.org/2000/svg">
<path fill-rule="evenodd" clip-rule="evenodd" d="M9 7C9 5.34309 10.3431 4 12 4C13.6569 4 15 5.34309 15 7C15 8.65691 13.6569 10 12 10C10.3431 10 9 8.65691 9 7ZM12 2C9.23858 2 7 4.2385 7 7C7 9.7615 9.23858 12 12 12C14.7614 12 17 9.7615 17 7C17 4.2385 14.7614 2 12 2ZM5 21C5 18.1233 7.04642 16 9.33333 16H14.6667C16.9536 16 19 18.1233 19 21C19 21.5523 19.4477 22 20 22C20.5523 22 21 21.5523 21 21C21 17.2467 18.2731 14 14.6667 14H9.33333C5.72691 14 3 17.2467 3 21C3 21.5523 3.44772 22 4 22C4.55228 22 5 21.5523 5 21Z" fill="#9B9B9B"/>
</svg>
