<svg width="18" height="18" viewBox="0 0 18 18" fill="none" xmlns="http://www.w3.org/2000/svg">
<g clip-path="url(#clip0_5367_23526)">
<path d="M9 17.25C4.425 17.25 0.75 13.575 0.75 9C0.75 4.425 4.425 0.75 9 0.75C13.575 0.75 17.25 4.425 17.25 9C17.25 13.575 13.575 17.25 9 17.25ZM9 2.25C5.25 2.25 2.25 5.25 2.25 9C2.25 12.75 5.25 15.75 9 15.75C12.75 15.75 15.75 12.75 15.75 9C15.75 5.25 12.75 2.25 9 2.25ZM9 12.75C8.55 12.75 8.25 12.45 8.25 12L8.25 9C8.25 8.55 8.55 8.25 9 8.25C9.45 8.25 9.75 8.55 9.75 9V12C9.75 12.45 9.45 12.75 9 12.75ZM9 6.75C8.55 6.75 8.25 6.45 8.25 6C8.25 5.55 8.55 5.25 9 5.25C9.45 5.25 9.75 5.55 9.75 6C9.75 6.45 9.45 6.75 9 6.75Z" fill="white"/>
</g>
<defs>
<clipPath id="clip0_5367_23526">
<rect width="18" height="18" fill="white"/>
</clipPath>
</defs>
</svg>
