<svg width="24" height="24" viewBox="0 0 24 24" fill="none" xmlns="http://www.w3.org/2000/svg">
<path d="M12 23C10.6 23 9.09999 22.7 7.69999 22.1C2.09999 19.7 -0.500012 13.3 1.89999 7.7C2.99999 5.1 4.99999 3 7.59999 1.9C8.09999 1.7 8.69999 1.9 8.89999 2.4C9.09999 2.9 8.89999 3.5 8.39999 3.7C6.29999 4.7 4.59999 6.4 3.69999 8.5C1.79999 13.1 3.89999 18.4 8.49999 20.3C13.1 22.2 18.4 20.1 20.3 15.5C20.5 15 21.1 14.8 21.6 15C22.1 15.2 22.3 15.8 22.1 16.3C20.4 20.5 16.3 23 12 23ZM22 13H12C11.4 13 11 12.6 11 12V2C11 1.4 11.4 1 12 1C18.1 1 23 5.9 23 12C23 12.6 22.6 13 22 13ZM13 11H20.9C20.4 6.8 17.1 3.5 13 3.1V11Z" fill="#22242B"/>
</svg>
