<svg width="51" height="25" viewBox="0 0 51 25" fill="none" xmlns="http://www.w3.org/2000/svg">
<path d="M9.59582 7.03235C9.09403 7.64029 8.24484 8.09383 7.56935 8.09383C7.49215 8.09383 7.41495 8.08419 7.3667 8.07454C7.35705 8.03594 7.33775 7.92014 7.33775 7.80434C7.33775 7.03235 7.7334 6.26036 8.15799 5.77786C8.69839 5.14097 9.60547 4.66813 10.3582 4.63918C10.3775 4.72602 10.3871 4.83217 10.3871 4.93832C10.3871 5.71031 10.059 6.47265 9.59582 7.03235ZM10.1266 8.25788C10.5512 8.25788 12.0855 8.29648 13.0891 9.74397C13.0022 9.81151 11.4776 10.6704 11.4776 12.5907C11.4776 14.8102 13.4172 15.6014 13.4751 15.6207C13.4654 15.669 13.1663 16.6919 12.4522 17.7437C11.8153 18.6605 11.1398 19.5868 10.1266 19.5868C9.10368 19.5868 8.84313 18.9886 7.6755 18.9886C6.52716 18.9886 6.12187 19.6061 5.19548 19.6061C4.25944 19.6061 3.6129 18.7473 2.86985 17.7051C2.00136 16.4699 1.30657 14.5593 1.30657 12.7451C1.30657 9.84046 3.19795 8.29648 5.06038 8.29648C6.04467 8.29648 6.86491 8.94302 7.49215 8.94302C8.08079 8.94302 8.99753 8.25788 10.1266 8.25788ZM19.035 19.5V5.57521H24.5934C27.4208 5.57521 29.3315 7.43764 29.3315 10.2265V10.2458C29.3315 13.0249 27.4208 14.897 24.5934 14.897H21.5247V19.5H19.035ZM23.9854 7.61134H21.5247V12.8898H23.9854C25.7706 12.8898 26.8128 11.9248 26.8128 10.2554V10.2361C26.8128 8.56668 25.7706 7.61134 23.9854 7.61134ZM33.2694 19.6737C31.2622 19.6737 29.8051 18.4385 29.8051 16.5182V16.4989C29.8051 14.6172 31.2429 13.5171 33.8098 13.3627L36.5214 13.1986V12.2915C36.5214 11.2397 35.8363 10.6607 34.5432 10.6607C33.4431 10.6607 32.729 11.0563 32.4878 11.7511L32.4781 11.7897H30.2104L30.2201 11.7029C30.4516 9.92731 32.15 8.75003 34.659 8.75003C37.3706 8.75003 38.8953 10.0624 38.8953 12.2915V19.5H36.5214V18.0525H36.3574C35.7784 19.0754 34.659 19.6737 33.2694 19.6737ZM32.179 16.4024C32.179 17.2998 32.9413 17.8306 34.0028 17.8306C35.4503 17.8306 36.5214 16.8849 36.5214 15.6304V14.7812L34.1476 14.9356C32.8062 15.0225 32.179 15.5146 32.179 16.3831V16.4024ZM41.5305 23.2056C41.241 23.2056 40.9033 23.1959 40.6138 23.167V21.3238C40.8068 21.3431 41.077 21.3528 41.3279 21.3528C42.3122 21.3528 42.9008 20.9475 43.1614 19.9921L43.2868 19.5096L39.5137 8.95267H42.1385L44.5992 17.1937H44.7825L47.2336 8.95267H49.7619L45.9791 19.7219C45.072 22.366 43.8658 23.2056 41.5305 23.2056Z" fill="#22242B"/>
</svg>
