<svg width="24" height="24" viewBox="0 0 24 24" fill="none" xmlns="http://www.w3.org/2000/svg">
<path d="M5.87109 20.1484V3.94141H12.7031C13.7266 3.94141 14.6094 4.10938 15.3516 4.44531C16.1016 4.77344 16.6797 5.24219 17.0859 5.85156C17.4922 6.45312 17.6953 7.17188 17.6953 8.00781V8.03125C17.6953 8.61719 17.5664 9.16016 17.3086 9.66016C17.0508 10.1602 16.6992 10.5781 16.2539 10.9141C15.8086 11.2422 15.3008 11.4531 14.7305 11.5469V11.6523C15.4648 11.7148 16.1094 11.9219 16.6641 12.2734C17.2266 12.6172 17.668 13.0703 17.9883 13.6328C18.3086 14.1953 18.4688 14.8242 18.4688 15.5195V15.543C18.4688 16.4883 18.2422 17.3086 17.7891 18.0039C17.3359 18.6914 16.6875 19.2227 15.8438 19.5977C15 19.9648 13.9961 20.1484 12.832 20.1484H5.87109ZM9.23438 17.5938H12.0234C13.0234 17.5938 13.7617 17.3984 14.2383 17.0078C14.7148 16.6172 14.9531 16.0391 14.9531 15.2734V15.25C14.9531 14.5 14.7109 13.9375 14.2266 13.5625C13.7422 13.1875 12.9805 13 11.9414 13H9.23438V17.5938ZM9.23438 10.7031H11.5547C12.4688 10.7031 13.1719 10.5156 13.6641 10.1406C14.1641 9.76562 14.4141 9.23828 14.4141 8.55859V8.53516C14.4141 7.89453 14.1953 7.39453 13.7578 7.03516C13.3203 6.67578 12.6992 6.49609 11.8945 6.49609H9.23438V10.7031ZM8.97656 22.1992V18.8828H10.1719V22.1992H8.97656ZM11.9062 22.1992V18.8828H13.1016V22.1992H11.9062ZM8.97656 5.24219V1.89062H10.1719V5.24219H8.97656ZM11.9062 5.24219V1.89062H13.1016V5.24219H11.9062Z" fill="#22242B"/>
</svg>
