<svg width="8" height="16" viewBox="0 0 8 16" fill="none" xmlns="http://www.w3.org/2000/svg">
  <path
    d="M4.168 2.86V0.459999H5.192V2.86H4.168ZM2.024 2.86V0.459999H3.048V2.86H2.024ZM4.168 15.068V12.668H5.192V15.068H4.168ZM2.024 15.068V12.668H3.048V15.068H2.024ZM0.552 13.5V2.076H3.176C4.072 2.076 4.81867 2.16667 5.416 2.348C6.024 2.52933 6.47733 2.828 6.776 3.244C7.08533 3.66 7.24 4.21467 7.24 4.908C7.24 5.356 7.16533 5.756 7.016 6.108C6.87733 6.44933 6.664 6.73733 6.376 6.972C6.09867 7.196 5.752 7.35067 5.336 7.436V7.516C5.76267 7.59067 6.14133 7.72933 6.472 7.932C6.81333 8.13467 7.08 8.42267 7.272 8.796C7.47467 9.16933 7.576 9.65467 7.576 10.252C7.576 10.9453 7.42667 11.5373 7.128 12.028C6.84 12.508 6.424 12.876 5.88 13.132C5.336 13.3773 4.68533 13.5 3.928 13.5H0.552ZM3.464 6.94C4.33867 6.94 4.936 6.78533 5.256 6.476C5.58667 6.156 5.752 5.68667 5.752 5.068C5.752 4.43867 5.54933 3.99067 5.144 3.724C4.74933 3.44667 4.11467 3.308 3.24 3.308H1.992V6.94H3.464ZM1.992 8.14V12.284H3.656C4.54133 12.284 5.16 12.0867 5.512 11.692C5.864 11.2973 6.04 10.78 6.04 10.14C6.04 9.73467 5.96 9.38267 5.8 9.084C5.65067 8.78533 5.39467 8.556 5.032 8.396C4.66933 8.22533 4.17333 8.14 3.544 8.14H1.992Z"
    fill="#22242B"/>
</svg>

