<svg width="24" height="24" viewBox="0 0 24 24" fill="none" xmlns="http://www.w3.org/2000/svg">
<path d="M7 14.5H10C10.2652 14.5 10.5196 14.3946 10.7071 14.2071C10.8946 14.0196 11 13.7652 11 13.5C11 13.2348 10.8946 12.9804 10.7071 12.7929C10.5196 12.6054 10.2652 12.5 10 12.5H7C6.73478 12.5 6.48043 12.6054 6.29289 12.7929C6.10536 12.9804 6 13.2348 6 13.5C6 13.7652 6.10536 14.0196 6.29289 14.2071C6.48043 14.3946 6.73478 14.5 7 14.5ZM19 4.5H5C4.20435 4.5 3.44129 4.81607 2.87868 5.37868C2.31607 5.94129 2 6.70435 2 7.5V16.5C2 17.2956 2.31607 18.0587 2.87868 18.6213C3.44129 19.1839 4.20435 19.5 5 19.5H19C19.7956 19.5 20.5587 19.1839 21.1213 18.6213C21.6839 18.0587 22 17.2956 22 16.5V7.5C22 6.70435 21.6839 5.94129 21.1213 5.37868C20.5587 4.81607 19.7956 4.5 19 4.5ZM20 16.5C20 16.7652 19.8946 17.0196 19.7071 17.2071C19.5196 17.3946 19.2652 17.5 19 17.5H5C4.73478 17.5 4.48043 17.3946 4.29289 17.2071C4.10536 17.0196 4 16.7652 4 16.5V10.5H20V16.5ZM20 8.5H4V7.5C4 7.23478 4.10536 6.98043 4.29289 6.79289C4.48043 6.60536 4.73478 6.5 5 6.5H19C19.2652 6.5 19.5196 6.60536 19.7071 6.79289C19.8946 6.98043 20 7.23478 20 7.5V8.5Z" fill="#22242B"/>
</svg>
