<svg width="14" height="15" viewBox="0 0 14 15" fill="none" xmlns="http://www.w3.org/2000/svg">
<path d="M10.5003 6.81166C10.3456 6.81166 10.1972 6.87312 10.0878 6.98251C9.97845 7.09191 9.91699 7.24028 9.91699 7.39499V11.5833C9.91699 11.738 9.85554 11.8864 9.74614 11.9958C9.63674 12.1052 9.48837 12.1667 9.33366 12.1667H2.91699C2.76228 12.1667 2.61391 12.1052 2.50451 11.9958C2.39512 11.8864 2.33366 11.738 2.33366 11.5833V5.16666C2.33366 5.01195 2.39512 4.86357 2.50451 4.75418C2.61391 4.64478 2.76228 4.58332 2.91699 4.58332H7.10533C7.26004 4.58332 7.40841 4.52187 7.51781 4.41247C7.6272 4.30307 7.68866 4.1547 7.68866 3.99999C7.68866 3.84528 7.6272 3.69691 7.51781 3.58751C7.40841 3.47811 7.26004 3.41666 7.10533 3.41666H2.91699C2.45286 3.41666 2.00774 3.60103 1.67956 3.92922C1.35137 4.25741 1.16699 4.70253 1.16699 5.16666V11.5833C1.16699 12.0475 1.35137 12.4926 1.67956 12.8208C2.00774 13.1489 2.45286 13.3333 2.91699 13.3333H9.33366C9.79779 13.3333 10.2429 13.1489 10.5711 12.8208C10.8993 12.4926 11.0837 12.0475 11.0837 11.5833V7.39499C11.0837 7.24028 11.0222 7.09191 10.9128 6.98251C10.8034 6.87312 10.655 6.81166 10.5003 6.81166ZM12.787 2.02832C12.7278 1.88579 12.6145 1.77252 12.472 1.71332C12.4019 1.68343 12.3266 1.66758 12.2503 1.66666H8.75033C8.59562 1.66666 8.44724 1.72811 8.33785 1.83751C8.22845 1.94691 8.16699 2.09528 8.16699 2.24999C8.16699 2.4047 8.22845 2.55307 8.33785 2.66247C8.44724 2.77187 8.59562 2.83332 8.75033 2.83332H10.8445L4.83616 8.83582C4.78148 8.89005 4.73809 8.95457 4.70847 9.02565C4.67886 9.09674 4.66361 9.17298 4.66361 9.24999C4.66361 9.327 4.67886 9.40324 4.70847 9.47433C4.73809 9.54541 4.78148 9.60993 4.83616 9.66416C4.89039 9.71883 4.9549 9.76223 5.02599 9.79184C5.09707 9.82146 5.17332 9.83671 5.25033 9.83671C5.32733 9.83671 5.40358 9.82146 5.47466 9.79184C5.54575 9.76223 5.61026 9.71883 5.66449 9.66416L11.667 3.65582V5.74999C11.667 5.9047 11.7285 6.05307 11.8378 6.16247C11.9472 6.27187 12.0956 6.33332 12.2503 6.33332C12.405 6.33332 12.5534 6.27187 12.6628 6.16247C12.7722 6.05307 12.8337 5.9047 12.8337 5.74999V2.24999C12.8327 2.17376 12.8169 2.09845 12.787 2.02832Z" fill="#4D94FF"/>
</svg>
