<svg width="24" height="24" viewBox="0 0 24 24" fill="none" xmlns="http://www.w3.org/2000/svg">
  <path
    d="M16.7177 4.91241L15.5753 6.02507C14.4452 5.69022 13.2415 5.51048 11.9998 5.51048C7.38967 5.51048 3.30031 7.98757 1.57391 11.6769C2.38612 13.4125 3.72133 14.8799 5.38771 15.9473L4.3454 16.9624C2.47469 15.7024 0.990102 13.9815 0.116868 11.9489L0 11.6769L0.116868 11.4048C1.99561 7.0318 6.70412 4.10101 11.9998 4.10101C13.6526 4.10101 15.2478 4.38653 16.7177 4.91241ZM19.4374 6.25006C21.4077 7.52083 22.9726 9.29425 23.8823 11.404L24 11.6769L23.8823 11.9497C21.9961 16.3242 17.2931 19.2528 11.9998 19.2528C10.2484 19.2528 8.5611 18.9321 7.01922 18.3448L8.14943 17.2441C9.35834 17.6331 10.657 17.8433 11.9998 17.8433C16.6075 17.8433 20.6921 15.3683 22.4252 11.6769C21.5746 9.86522 20.1577 8.34657 18.3906 7.26966L19.4374 6.25006Z"
    fill="white"
  />
  <path
    d="M15.3636 10.2389L16.437 9.19875C16.8569 9.86015 17.0958 10.6299 17.0958 11.4592C17.0958 14.0102 14.8331 15.999 12.005 15.999C11.232 15.999 10.5016 15.8507 9.84812 15.5834L10.9948 14.4723C11.3138 14.5487 11.6524 14.5895 12.005 14.5895C14.0598 14.5895 15.6414 13.1995 15.6414 11.4592C15.6414 11.0252 15.543 10.6131 15.3636 10.2389ZM13.0822 8.463C12.7436 8.37569 12.3822 8.32882 12.005 8.32882C9.94745 8.32882 8.36861 9.71737 8.36861 11.4592C8.36861 11.9149 8.47671 12.3465 8.6732 12.7353L7.60485 13.7706C7.16517 13.098 6.91406 12.3099 6.91406 11.4592C6.91406 8.90683 9.17389 6.91937 12.005 6.91937C12.8009 6.91937 13.552 7.07686 14.2205 7.36004L13.0822 8.463Z"
    fill="white"
  />
  <path
    d="M21.129 2.90397L20.8719 2.65481C20.6588 2.4484 20.3135 2.4484 20.1005 2.65481L2.87279 19.3486C2.65978 19.5549 2.65978 19.8896 2.87279 20.096L3.12992 20.3452C3.34293 20.5516 3.6883 20.5516 3.90131 20.3452L21.129 3.65144C21.342 3.44504 21.342 3.11038 21.129 2.90397Z"
    fill="white"
  />
</svg>
