<svg width="25" height="24" viewBox="0 0 25 24" fill="none" xmlns="http://www.w3.org/2000/svg">
<path d="M21.6998 2H3.8998C3.60807 2 3.32828 2.11589 3.12199 2.32218C2.9157 2.52847 2.7998 2.80826 2.7998 3.1V20.9C2.7998 21.0445 2.82826 21.1875 2.88354 21.321C2.93882 21.4544 3.01984 21.5757 3.12199 21.6778C3.22413 21.78 3.34539 21.861 3.47885 21.9163C3.61231 21.9715 3.75535 22 3.8998 22H13.4798V14.25H10.8798V11.25H13.4798V9C13.4259 8.47176 13.4883 7.93813 13.6625 7.43654C13.8367 6.93495 14.1186 6.47755 14.4883 6.09641C14.858 5.71528 15.3066 5.41964 15.8026 5.23024C16.2987 5.04083 16.8302 4.96225 17.3598 5C18.1381 4.99521 18.9161 5.03528 19.6898 5.12V7.82H18.0998C16.8398 7.82 16.5998 8.42 16.5998 9.29V11.22H19.5998L19.2098 14.22H16.5998V22H21.6998C21.8443 22 21.9873 21.9715 22.1208 21.9163C22.2542 21.861 22.3755 21.78 22.4776 21.6778C22.5798 21.5757 22.6608 21.4544 22.7161 21.321C22.7714 21.1875 22.7998 21.0445 22.7998 20.9V3.1C22.7998 2.95555 22.7714 2.81251 22.7161 2.67905C22.6608 2.54559 22.5798 2.42433 22.4776 2.32218C22.3755 2.22004 22.2542 2.13901 22.1208 2.08373C21.9873 2.02845 21.8443 2 21.6998 2Z" fill="white"/>
</svg>
