<svg width="24" height="25" viewBox="0 0 24 25" fill="none" xmlns="http://www.w3.org/2000/svg">
<path d="M17 23.291H7C3.7 23.291 1 20.591 1 17.291V7.29102C1 3.99102 3.7 1.29102 7 1.29102H17C20.3 1.29102 23 3.99102 23 7.29102V17.291C23 20.591 20.3 23.291 17 23.291ZM7 3.29102C4.8 3.29102 3 5.09102 3 7.29102V17.291C3 19.491 4.8 21.291 7 21.291H17C19.2 21.291 21 19.491 21 17.291V7.29102C21 5.09102 19.2 3.29102 17 3.29102H7ZM12 17.291C10.9 17.291 9.9 16.991 9 16.291C7.9 15.491 7.2 14.291 7 12.991C6.7 10.291 8.6 7.69102 11.3 7.29102C11.8 7.19102 12.3 7.19102 12.8 7.29102C15 7.59102 16.7 9.29102 17 11.491C17.2 12.791 16.9 14.091 16.1 15.191C15.3 16.291 14.1 16.991 12.8 17.191C12.5 17.191 12.3 17.291 12 17.291ZM12 9.29102H11.6C10 9.49102 8.8 11.091 9.1 12.691C9.3 14.291 10.9 15.491 12.5 15.191C13.3 15.091 14 14.691 14.5 13.991C15 13.291 15.2 12.591 15.1 11.791C14.9 10.491 13.9 9.49102 12.6 9.29102H12ZM17.5 7.79102C16.9 7.79102 16.5 7.39102 16.5 6.79102C16.5 6.19102 16.9 5.79102 17.5 5.79102C18.1 5.79102 18.5 6.19102 18.5 6.79102C18.5 7.39102 18.1 7.79102 17.5 7.79102Z" fill="#3F424E"/>
</svg>
