<svg width="18" height="18" viewBox="0 0 18 18" fill="none" xmlns="http://www.w3.org/2000/svg">
<path d="M7.46326 13.1625L6.13576 14.4525C5.78766 14.8006 5.31554 14.9962 4.82326 14.9962C4.33097 14.9962 3.85885 14.8006 3.51076 14.4525C3.16266 14.1044 2.9671 13.6323 2.9671 13.14C2.9671 12.6477 3.16266 12.1756 3.51076 11.8275L6.91576 8.41501C7.24997 8.07972 7.70027 7.88572 8.17352 7.87315C8.64676 7.86059 9.10673 8.03042 9.45826 8.34751L9.54826 8.42251C9.69048 8.56175 9.88219 8.63879 10.0812 8.63668C10.2802 8.63457 10.4703 8.55348 10.6095 8.41126C10.7487 8.26904 10.8258 8.07733 10.8237 7.8783C10.8216 7.67928 10.7405 7.48925 10.5983 7.35001C10.5559 7.29528 10.5109 7.24271 10.4633 7.19251C9.82302 6.63549 8.99501 6.34265 8.14693 6.37328C7.29886 6.40392 6.49413 6.75575 5.89576 7.35751L2.44576 10.77C1.85952 11.4081 1.54247 12.248 1.56081 13.1143C1.57915 13.9806 1.93147 14.8064 2.54418 15.4191C3.15689 16.0318 3.98263 16.3841 4.84894 16.4025C5.71526 16.4208 6.55516 16.1037 7.19326 15.5175L8.49076 14.25C8.61887 14.1102 8.68929 13.9272 8.68786 13.7376C8.68643 13.548 8.61325 13.366 8.48304 13.2281C8.35283 13.0903 8.17526 13.0069 7.98606 12.9948C7.79685 12.9826 7.61006 13.0425 7.46326 13.1625ZM15.4808 2.48251C14.8498 1.85552 13.9965 1.5036 13.107 1.5036C12.2175 1.5036 11.3642 1.85552 10.7333 2.48251L9.43576 3.75001C9.30764 3.88977 9.23722 4.07287 9.23865 4.26246C9.24008 4.45205 9.31326 4.63406 9.44347 4.77187C9.57368 4.90969 9.75125 4.99307 9.94046 5.00525C10.1297 5.01743 10.3165 4.95749 10.4633 4.83751L11.7608 3.54751C12.1089 3.19941 12.581 3.00385 13.0733 3.00385C13.5655 3.00385 14.0377 3.19941 14.3858 3.54751C14.7339 3.89561 14.9294 4.36773 14.9294 4.86001C14.9294 5.35229 14.7339 5.82441 14.3858 6.17251L10.9808 9.58501C10.6465 9.9203 10.1962 10.1143 9.723 10.1269C9.24975 10.1394 8.78979 9.9696 8.43826 9.65251L8.34826 9.57751C8.20603 9.43827 8.01432 9.36123 7.8153 9.36334C7.61628 9.36545 7.42625 9.44654 7.28701 9.58876C7.14777 9.73098 7.07073 9.92269 7.07284 10.1217C7.07495 10.3207 7.15603 10.5108 7.29826 10.65C7.35273 10.7057 7.41033 10.7583 7.47076 10.8075C8.11176 11.3628 8.93943 11.6546 9.78698 11.624C10.6345 11.5934 11.439 11.2427 12.0383 10.6425L15.4508 7.23001C16.0818 6.60307 16.4391 5.75193 16.4447 4.86245C16.4503 3.97296 16.1038 3.11738 15.4808 2.48251Z" fill="#4D94FF"/>
</svg>
