<svg width="24" height="25" viewBox="0 0 24 25" fill="none" xmlns="http://www.w3.org/2000/svg">
<path d="M20.4701 2.29116H3.53006C3.33964 2.28851 3.15056 2.3234 2.97362 2.39384C2.79669 2.46428 2.63536 2.56888 2.49886 2.70167C2.36235 2.83446 2.25334 2.99284 2.17805 3.16777C2.10276 3.34269 2.06267 3.53073 2.06006 3.72116V20.8612C2.06267 21.0516 2.10276 21.2396 2.17805 21.4145C2.25334 21.5895 2.36235 21.7479 2.49886 21.8806C2.63536 22.0134 2.79669 22.118 2.97362 22.1885C3.15056 22.2589 3.33964 22.2938 3.53006 22.2912H20.4701C20.6605 22.2938 20.8496 22.2589 21.0265 22.1885C21.2034 22.118 21.3648 22.0134 21.5013 21.8806C21.6378 21.7479 21.7468 21.5895 21.8221 21.4145C21.8974 21.2396 21.9375 21.0516 21.9401 20.8612V3.72116C21.9375 3.53073 21.8974 3.34269 21.8221 3.16777C21.7468 2.99284 21.6378 2.83446 21.5013 2.70167C21.3648 2.56888 21.2034 2.46428 21.0265 2.39384C20.8496 2.3234 20.6605 2.28851 20.4701 2.29116ZM8.09006 19.0312H5.09006V10.0312H8.09006V19.0312ZM6.59006 8.77115C6.17632 8.77115 5.77953 8.6068 5.48697 8.31424C5.19442 8.02169 5.03006 7.62489 5.03006 7.21116C5.03006 6.79742 5.19442 6.40063 5.48697 6.10807C5.77953 5.81551 6.17632 5.65116 6.59006 5.65116C6.80975 5.62624 7.03224 5.64801 7.24293 5.71504C7.45363 5.78207 7.6478 5.89285 7.81272 6.04012C7.97763 6.18739 8.10958 6.36783 8.19993 6.56964C8.29028 6.77144 8.33698 6.99005 8.33698 7.21116C8.33698 7.43226 8.29028 7.65087 8.19993 7.85267C8.10958 8.05448 7.97763 8.23492 7.81272 8.38219C7.6478 8.52947 7.45363 8.64024 7.24293 8.70727C7.03224 8.7743 6.80975 8.79607 6.59006 8.77115ZM18.9101 19.0312H15.9101V14.2012C15.9101 12.9912 15.4801 12.2012 14.3901 12.2012C14.0527 12.2036 13.7242 12.3094 13.4489 12.5043C13.1735 12.6992 12.9645 12.9738 12.8501 13.2912C12.7718 13.5262 12.7379 13.7737 12.7501 14.0212V19.0212H9.75006C9.75006 19.0212 9.75006 10.8412 9.75006 10.0212H12.7501V11.2912C13.0226 10.8183 13.419 10.4287 13.8965 10.1644C14.374 9.90004 14.9146 9.77101 15.4601 9.79116C17.4601 9.79116 18.9101 11.0812 18.9101 13.8512V19.0312Z" fill="#3F424E"/>
</svg>
