<svg width="24" height="24" viewBox="0 0 24 24" fill="none" xmlns="http://www.w3.org/2000/svg">
<path d="M9 22H5C3.3 22 2 20.7 2 19V5C2 3.3 3.3 2 5 2H9C9.6 2 10 2.4 10 3C10 3.6 9.6 4 9 4H5C4.4 4 4 4.4 4 5V19C4 19.6 4.4 20 5 20H9C9.6 20 10 20.4 10 21C10 21.6 9.6 22 9 22ZM16 18C15.7 18 15.5 17.9 15.3 17.7C14.9 17.3 14.9 16.7 15.3 16.3L18.6 13H9C8.4 13 8 12.6 8 12C8 11.4 8.4 11 9 11H18.6L15.3 7.7C14.9 7.3 14.9 6.7 15.3 6.3C15.7 5.9 16.3 5.9 16.7 6.3L21.7 11.3C21.8 11.4 21.9 11.5 21.9 11.6C21.9 11.7 22 11.8 22 12C22 12.1 22 12.3 21.9 12.4C21.9 12.5 21.8 12.6 21.7 12.7L16.7 17.7C16.5 17.9 16.3 18 16 18Z" fill="#22242B"/>
</svg>
