<svg width="18" height="14" viewBox="0 0 18 14" fill="none" xmlns="http://www.w3.org/2000/svg">
<path d="M15 13.75L3 13.75C1.725 13.75 0.75 12.775 0.75 11.5L0.75 2.5C0.75 1.3 1.8 0.25 3 0.25L15 0.25C16.2 0.25 17.25 1.225 17.25 2.5L17.25 11.5C17.25 12.775 16.275 13.75 15 13.75ZM2.25 3.925L2.25 11.5C2.25 11.95 2.55 12.25 3 12.25L15 12.25C15.45 12.25 15.75 11.95 15.75 11.5L15.75 3.925L9.45 8.35C9.225 8.5 8.85 8.5 8.625 8.35L2.25 3.925ZM2.325 2.2L9 6.85L15.675 2.2C15.525 1.9 15.3 1.75 15 1.75L3 1.75C2.7 1.75 2.475 1.9 2.325 2.2Z" fill="white"/>
</svg>
