<svg width="24" height="14" viewBox="0 0 24 14" fill="none" xmlns="http://www.w3.org/2000/svg">
<path d="M6.76884 0.15625C10.5072 0.15625 13.5374 3.20768 13.5374 6.97154C13.5374 10.7354 10.5069 13.7866 6.76884 13.7866C3.03073 13.7866 0 10.7354 0 6.97154C0 3.20768 3.0305 0.15625 6.76884 0.15625ZM17.5782 0.555472C19.4474 0.555472 20.9626 3.42775 20.9626 6.97154H20.9628C20.9628 10.5144 19.4476 13.3876 17.5784 13.3876C15.7092 13.3876 14.194 10.5144 14.194 6.97154C14.194 3.42867 15.709 0.555472 17.5782 0.555472ZM22.8097 1.22375C23.4669 1.22375 24 3.79708 24 6.97154C24 10.1451 23.4672 12.7193 22.8097 12.7193C22.1522 12.7193 21.6196 10.1458 21.6196 6.97154C21.6196 3.79731 22.1524 1.22375 22.8097 1.22375Z" fill="white"/>
</svg>
