<svg width="24" height="24" viewBox="0 0 24 24" fill="none" xmlns="http://www.w3.org/2000/svg">
<path d="M21.9988 10.7234V21.2097C21.9988 21.6039 21.6794 21.9233 21.2852 21.9233H12.713C12.3188 21.9233 11.9994 21.6039 11.9994 21.2097V19.2571C12.0392 16.8621 12.2923 14.5696 12.8238 13.527C13.1433 12.9002 13.6676 12.5579 14.2714 12.3759C15.4117 12.0336 17.4125 12.2674 18.2623 12.2276C18.2623 12.2276 20.8284 12.3301 20.8284 10.8764C20.8284 9.70727 19.6822 9.79887 19.6822 9.79887C18.4178 9.83142 17.4559 9.74584 16.8316 9.49995C15.7865 9.08894 15.7528 8.33561 15.748 8.08369C15.6973 5.17283 11.4052 4.82448 7.62406 5.54527C3.49099 6.33235 7.66986 12.2565 7.66986 20.1659V21.2218C7.66263 21.6099 7.34804 21.9233 6.95872 21.9233H2.71355C2.31941 21.9233 2 21.6039 2 21.2097V3.07435C2 2.68021 2.31941 2.3608 2.71355 2.3608H6.70439C7.09854 2.3608 7.41795 2.68021 7.41795 3.07435C7.41795 3.66014 8.07606 3.98678 8.55216 3.64567C9.98771 2.61753 11.8294 2.07031 13.8906 2.07031C18.5082 2.07031 22 4.76181 22 10.7246L21.9988 10.7234ZM14.3341 8.59475C14.3341 7.75102 13.6507 7.0676 12.807 7.0676C11.9632 7.0676 11.2798 7.75223 11.2798 8.59475C11.2798 9.43727 11.9632 10.1231 12.807 10.1231C13.6507 10.1231 14.3341 9.43848 14.3341 8.59475Z" fill="white"/>
</svg>
