<svg width="24" height="24" viewBox="0 0 24 24" fill="none" xmlns="http://www.w3.org/2000/svg">
<g id="Piechart">
<path id="Vector" d="M11.9997 23C10.5997 23 9.09971 22.7 7.69971 22.1C2.09971 19.7 -0.500286 13.3 1.89971 7.7C2.99971 5.1 4.99971 3 7.59971 1.9C8.09971 1.7 8.69971 1.9 8.89971 2.4C9.09971 2.9 8.89971 3.5 8.39971 3.7C6.29971 4.7 4.59971 6.4 3.69971 8.5C1.79971 13.1 3.89971 18.4 8.49971 20.3C13.0997 22.2 18.3997 20.1 20.2997 15.5C20.4997 15 21.0997 14.8 21.5997 15C22.0997 15.2 22.2997 15.8 22.0997 16.3C20.3997 20.5 16.2997 23 11.9997 23ZM21.9997 13H11.9997C11.3997 13 10.9997 12.6 10.9997 12V2C10.9997 1.4 11.3997 1 11.9997 1C18.0997 1 22.9997 5.9 22.9997 12C22.9997 12.6 22.5997 13 21.9997 13ZM12.9997 11H20.8997C20.3997 6.8 17.0997 3.5 12.9997 3.1V11Z" fill="#888CA0"/>
</g>
</svg>
