<svg width="24" height="25" viewBox="0 0 24 25" fill="none" xmlns="http://www.w3.org/2000/svg">
<path d="M11.9941 2.29102C10.0163 2.29102 8.08293 2.87751 6.43844 3.97632C4.79395 5.07513 3.51223 6.63692 2.75535 8.46418C1.99847 10.2914 1.80044 12.3021 2.18629 14.2419C2.57214 16.1817 3.52455 17.9636 4.92308 19.3621C6.3216 20.7606 8.10343 21.713 10.0432 22.0989C11.9831 22.4847 13.9937 22.2867 15.821 21.5298C17.6482 20.7729 19.21 19.4912 20.3088 17.8467C21.4077 16.2022 21.9941 14.2688 21.9941 12.291C21.9943 10.9778 21.7357 9.67736 21.2332 8.46405C20.7307 7.25075 19.9941 6.14831 19.0655 5.2197C18.1368 4.2911 17.0344 3.55451 15.8211 3.052C14.6078 2.54949 13.3074 2.29091 11.9941 2.29102ZM15.1737 17.4435C15.1362 17.5368 15.0793 17.6211 15.0066 17.6906C14.934 17.7601 14.8473 17.8133 14.7524 17.8466C14.6575 17.8799 14.5566 17.8925 14.4565 17.8836C14.3563 17.8747 14.2592 17.8445 14.1717 17.795L11.457 15.6856L9.71466 17.293C9.67424 17.3229 9.62695 17.3421 9.57714 17.3489C9.52734 17.3557 9.47662 17.3499 9.42967 17.332L9.76366 14.3435L9.77436 14.352L9.78118 14.293C9.78118 14.293 14.6662 9.84547 14.8652 9.65598C15.0667 9.46698 15.0002 9.42598 15.0002 9.42598C15.0117 9.19545 14.6387 9.42598 14.6387 9.42598L8.16614 13.59L5.47066 12.672C5.47066 12.672 5.05666 12.5235 5.01766 12.197C4.97666 11.873 5.48415 11.697 5.48415 11.697L16.2011 7.43951C16.2011 7.43951 17.0821 7.04699 17.0821 7.69702L15.1737 17.4435Z" fill="#3F424E"/>
</svg>
