<svg width="24" height="25" viewBox="0 0 24 25" fill="none" xmlns="http://www.w3.org/2000/svg">
<path d="M22.2647 2.7188C21.98 2.48193 21.6364 2.32669 21.2704 2.2696C20.9045 2.21251 20.5299 2.2557 20.1866 2.39458L2.26566 9.62994C1.88241 9.78762 1.55618 10.0581 1.33026 10.4056C1.10434 10.753 0.989427 11.1609 1.00076 11.5752C1.0121 11.9894 1.14916 12.3904 1.39374 12.725C1.63832 13.0596 1.97886 13.3118 2.37016 13.4483L5.99516 14.709L8.01566 21.3907C8.04312 21.4799 8.08297 21.5649 8.13404 21.6431C8.14179 21.6551 8.15272 21.664 8.16096 21.6757C8.21996 21.758 8.29127 21.8308 8.37239 21.8914C8.39546 21.909 8.41755 21.9255 8.44221 21.9411C8.53714 22.0041 8.64228 22.0501 8.75294 22.0772L8.76478 22.0782L8.77149 22.0811C8.83802 22.0946 8.90574 22.1015 8.97364 22.1016C8.98017 22.1016 8.98597 22.0985 8.99244 22.0983C9.0949 22.0966 9.19647 22.0789 9.29353 22.046C9.31611 22.0383 9.33546 22.0255 9.35737 22.0162C9.42975 21.9862 9.49832 21.9477 9.56166 21.9016C9.61238 21.8589 9.66312 21.8162 9.71388 21.7735L12.416 18.7901L16.4463 21.9121C16.8011 22.1884 17.2379 22.3385 17.6875 22.3389C18.1587 22.3383 18.6154 22.1757 18.9809 21.8784C19.3465 21.5812 19.5987 21.1672 19.6954 20.7061L22.958 4.6895C23.032 4.32902 23.0065 3.95522 22.8844 3.60809C22.7623 3.26096 22.5481 2.95357 22.2647 2.7188ZM9.37016 15.0274C9.2315 15.1655 9.13672 15.3415 9.0977 15.5333L8.78819 17.0373L8.00413 14.4442L12.0694 12.3272L9.37016 15.0274ZM17.6719 20.3311L12.9092 16.6416C12.71 16.4876 12.46 16.4144 12.2092 16.4365C11.9583 16.4586 11.725 16.5743 11.5557 16.7608L10.6903 17.716L10.9961 16.2295L18.0791 9.14651C18.2482 8.97767 18.3512 8.75386 18.3695 8.51563C18.3878 8.27739 18.3201 8.04049 18.1788 7.84782C18.0375 7.65515 17.8319 7.51947 17.5992 7.46534C17.3664 7.41121 17.122 7.44222 16.9102 7.55276L6.74491 12.8454L3.02055 11.4825L20.999 4.29007L17.6719 20.3311Z" fill="#3F424E"/>
</svg>
