<svg width="25" height="24" viewBox="0 0 25 24" fill="none" xmlns="http://www.w3.org/2000/svg">
<path d="M22.3999 5.80021C21.6482 6.1263 20.8533 6.34187 20.0399 6.44021C20.8981 5.92753 21.5412 5.12099 21.8499 4.17021C21.0435 4.65027 20.1607 4.98851 19.2399 5.17021C18.6244 4.50278 17.8049 4.05851 16.9097 3.90706C16.0146 3.75562 15.0944 3.90557 14.2937 4.3334C13.4929 4.76123 12.8568 5.44274 12.4851 6.27105C12.1135 7.09935 12.0272 8.0276 12.2399 8.91021C10.6093 8.82774 9.01434 8.40316 7.55856 7.66407C6.10277 6.92498 4.81875 5.8879 3.7899 4.62021C3.42904 5.25038 3.23942 5.96403 3.2399 6.69021C3.23862 7.36459 3.40412 8.02883 3.72166 8.62377C4.0392 9.21872 4.49892 9.72592 5.0599 10.1002C4.40788 10.0825 3.76979 9.90751 3.1999 9.59021V9.64021C3.20479 10.5851 3.5359 11.4993 4.13722 12.2282C4.73854 12.957 5.57316 13.4559 6.4999 13.6402C6.14316 13.7488 5.77278 13.806 5.3999 13.8102C5.14179 13.8072 4.88432 13.7838 4.6299 13.7402C4.89381 14.553 5.40453 15.2634 6.09098 15.7724C6.77743 16.2814 7.60548 16.5638 8.4599 16.5802C7.01711 17.7155 5.23579 18.3351 3.3999 18.3402C3.06564 18.3413 2.73164 18.3213 2.3999 18.2802C4.27433 19.4905 6.45872 20.1329 8.6899 20.1302C10.2296 20.1462 11.757 19.8552 13.183 19.2743C14.609 18.6934 15.9049 17.8341 16.9951 16.7467C18.0853 15.6593 18.9479 14.3656 19.5325 12.9411C20.1171 11.5166 20.4119 9.98994 20.3999 8.45021C20.3999 8.28021 20.3999 8.10021 20.3999 7.92021C21.1846 7.33502 21.8614 6.61763 22.3999 5.80021Z" fill="white"/>
</svg>
