<svg width="24" height="25" viewBox="0 0 24 25" fill="none" xmlns="http://www.w3.org/2000/svg">
<path d="M21.4161 6.347C21.3655 5.8528 21.2027 5.40634 20.8882 5.01603C20.6102 4.67066 20.2536 4.42356 19.9166 4.14557C19.7482 4.00798 19.3017 3.63453 19.2455 3.42393C19.1782 3.16841 19.282 2.90727 19.5151 2.82303C19.8661 2.7051 20.453 2.70791 20.7927 2.73037C21.0819 2.75283 21.3796 2.65175 21.3908 2.53381C21.4021 2.41588 21.2308 2.24179 21.0033 2.18844C20.8236 2.14632 20.5484 2.08174 20.3828 1.97223C20.0879 1.77286 19.7875 1.40783 19.3775 1.3264C18.7935 1.21127 18.3863 1.43029 18.1954 1.93291C17.8921 2.65175 18.0887 3.57275 18.7261 4.24666C19.0125 4.54992 19.3466 4.81106 19.6667 5.08343C19.9026 5.2856 20.1104 5.50742 20.3098 5.75452C20.8433 6.42001 20.2789 7.64146 20.1441 7.78186C19.6724 8.27044 19.2624 8.36029 18.4481 8.3266C17.6478 8.2929 15.5728 7.22027 14.4748 7.18657C11.7567 7.10234 9.86981 8.35749 9.2324 8.68321C8.2777 9.17179 6.91865 9.20268 6.87653 9.21672C6.26159 9.26445 4.98678 9.31219 4.35499 9.53121C3.46487 9.7783 2.98472 10.1855 2.65899 11.0952C2.55791 11.4883 2.53825 11.8449 2.68146 12.0612C2.99314 12.5329 3.83272 12.926 4.2146 13.1422C4.41115 13.2545 4.79865 13.1141 4.87447 13.0608C5.30127 12.7716 5.67754 12.5441 6.18297 12.4711C6.28967 12.4543 7.00289 12.3279 7.36231 12.5919C7.62345 12.7828 7.84808 12.8979 8.14292 13.0327C8.68204 13.277 9.86981 13.5859 9.89227 13.5915C10.0523 13.6336 10.2573 13.715 10.2573 13.8582C10.2573 14.0604 8.37036 15.6385 8.26647 15.6778C7.79192 15.8715 7.51675 16.1832 7.4297 16.6325C7.40162 16.7785 7.33704 16.9301 7.25561 17.0509C6.94954 17.4945 5.5933 19.4208 5.23388 19.9487C5.0626 20.1958 4.8857 20.3193 4.64141 20.3586C4.29041 20.4148 4.02646 20.4232 3.87764 20.6731C3.78498 20.8332 3.84395 21.1449 3.90572 21.347C3.97592 21.5773 3.78498 21.8637 3.77094 21.8974C3.60246 22.2259 3.53227 22.5404 3.55754 22.8577C3.56596 22.9869 3.57438 23.2873 3.78779 23.2957C4.00119 23.307 4.05735 23.1694 4.08262 23.1188C4.11351 23.0571 4.23145 22.8015 4.26514 22.7398C4.40273 22.4842 4.92782 21.9339 4.98678 21.8693C5.17492 21.6615 7.98286 17.795 7.98286 17.795C8.1373 17.5928 8.29736 17.385 8.55849 17.2839C8.92072 17.1435 9.1622 16.8543 9.2324 16.4724C9.24925 16.3882 10.3696 15.529 10.847 15.1667C11.0211 15.0348 12.0769 14.6108 12.0937 14.6164C12.0937 14.6248 11.1278 16.0793 10.8273 16.8515C10.7796 16.9751 10.701 17.3963 10.788 17.6097C10.9228 17.9382 11.212 18.0814 11.5405 17.9831C11.6416 17.9522 11.7315 17.9017 11.8185 17.8539C11.8578 17.8315 11.8971 17.8118 11.9365 17.7922C11.9758 17.7725 12.0123 17.7529 12.0516 17.7332C12.1414 17.6855 12.2285 17.6405 12.3155 17.6125C12.6384 17.5058 12.9642 17.4047 13.2899 17.3036L13.9498 17.0986C14.4103 16.9554 14.8708 16.8122 15.3313 16.6718C15.4324 16.6409 15.5306 16.6044 15.657 16.6072C15.7272 16.6072 15.803 16.6353 15.8283 16.7392C15.8283 16.7448 15.8816 17.0593 16.0754 17.1857C16.1736 17.2502 16.3842 17.3008 16.5415 17.2952C16.6791 17.2895 16.8532 17.3289 16.943 17.4075L17.0582 17.5058C17.1424 17.576 17.2463 17.6153 17.3165 17.6349C17.3895 17.6546 17.5243 17.6546 17.6029 17.5732C17.6871 17.4833 17.6562 17.3373 17.645 17.2924C17.6282 17.2306 17.5945 17.1828 17.5692 17.1407L17.499 17.0312C17.4316 16.9245 17.367 16.8178 17.2968 16.7111C17.1031 16.4163 16.9121 16.1243 16.7156 15.8322C16.5106 15.529 16.1933 15.4082 15.7777 15.4728C15.6177 15.4981 12.1049 16.5876 12.0797 16.5932C12.2678 16.2478 13.3938 14.6922 13.7083 14.4956C13.9413 14.3581 14.0396 14.2261 14.4636 14.1531C15.292 14.0127 17.089 13.5971 17.5355 13.2742C18.4032 12.6452 18.4734 11.216 18.4593 10.9296C18.4425 10.6432 18.5351 10.4466 18.785 10.3146C18.9086 10.25 20.2452 9.51155 20.8994 8.42207C21.2925 7.78467 21.4947 7.10234 21.4161 6.347Z" fill="#3F424E"/>
</svg>
