<svg width="25" height="24" viewBox="0 0 25 24" fill="none" xmlns="http://www.w3.org/2000/svg">
<path d="M15.2731 2H9.1377C3.53351 2 2.2002 3.33331 2.2002 8.92706V15.0625C2.2002 20.6666 3.52314 22 9.12726 22H15.2627C20.8669 22 22.2002 20.6771 22.2002 15.0729V8.9375C22.2002 3.33331 20.8773 2 15.2731 2ZM18.346 16.2708H16.8877C16.3356 16.2708 16.1689 15.8229 15.1794 14.8333C14.3148 14 13.9502 13.8958 13.7314 13.8958C13.4294 13.8958 13.346 13.9791 13.346 14.3958V15.7083C13.346 16.0625 13.2314 16.2708 12.3044 16.2708C11.4048 16.2104 10.5324 15.9371 9.75908 15.4735C8.98577 15.0098 8.33365 14.3691 7.85645 13.6041C6.72355 12.194 5.9353 10.5391 5.55439 8.77081C5.55439 8.55206 5.6377 8.35413 6.05439 8.35413H7.5127C7.8877 8.35413 8.02314 8.52081 8.16895 8.90625C8.87726 10.9896 10.0856 12.8021 10.5752 12.8021C10.7627 12.8021 10.846 12.7188 10.846 12.25V10.1041C10.7835 9.125 10.2627 9.04163 10.2627 8.6875C10.2696 8.59407 10.3126 8.50699 10.3826 8.44475C10.4526 8.3825 10.5441 8.35 10.6377 8.35413H12.9294C13.2419 8.35413 13.346 8.51038 13.346 8.88538V11.7812C13.346 12.0938 13.4814 12.1979 13.5752 12.1979C13.7627 12.1979 13.9085 12.0938 14.2523 11.75C14.9909 10.8492 15.5945 9.84559 16.0439 8.77081C16.0898 8.64149 16.1768 8.53074 16.2915 8.4555C16.4063 8.38025 16.5425 8.34465 16.6794 8.35413H18.1377C18.5752 8.35413 18.6689 8.57288 18.5752 8.88538C18.0446 10.0737 17.388 11.2017 16.6169 12.25C16.4606 12.4896 16.3981 12.6146 16.6169 12.8958C16.7627 13.1146 17.2731 13.5416 17.6169 13.9479C18.1169 14.4466 18.532 15.0237 18.846 15.6562C18.971 16.0625 18.7627 16.2708 18.346 16.2708Z" fill="white"/>
</svg>
