<svg width="107" height="110" viewBox="0 0 107 110" fill="none" xmlns="http://www.w3.org/2000/svg">
<path d="M96.3211 1.33398V6.96505" stroke="#0066FF" stroke-width="2.34628" stroke-linecap="round" stroke-linejoin="round"/>
<path d="M96.3211 14.4727V20.1037" stroke="#0066FF" stroke-width="2.34628" stroke-linecap="round" stroke-linejoin="round"/>
<path d="M86.936 10.7182H92.5671" stroke="#0066FF" stroke-width="2.34628" stroke-linecap="round" stroke-linejoin="round"/>
<path d="M100.075 10.7182H105.706" stroke="#0066FF" stroke-width="2.34628" stroke-linecap="round" stroke-linejoin="round"/>
<path fill-rule="evenodd" clip-rule="evenodd" d="M85.2577 82.1651C86.5628 80.5667 87.736 78.8951 88.777 77.1651C91.0667 73.36 92.7171 69.2719 93.7257 65.0571C94.7458 60.7945 95.1096 56.4022 94.8144 52.042C94.5568 48.2372 93.7975 44.4568 92.5348 40.8082C91.2821 37.1883 89.5338 33.6982 87.2885 30.4425C85.9505 28.5025 84.436 26.6458 82.7446 24.8946C80.2614 22.3234 77.5377 20.1253 74.6436 18.3016C71.534 16.3421 68.2279 14.8148 64.8122 13.7214C60.5345 12.3521 56.0851 11.6632 51.635 11.6582C48.1725 11.6543 44.7096 12.0644 41.3269 12.89C37.5187 13.8194 33.8121 15.2755 30.322 17.2604C27.2541 19.0053 24.3535 21.1588 21.6985 23.7224C18.3618 26.9442 15.6591 30.5759 13.5928 34.4627C11.5697 38.268 10.1566 42.3177 9.35568 46.4664C8.53055 50.7406 8.35527 55.1199 8.83235 59.4451C9.45069 65.0511 11.1649 70.5664 13.9805 75.6445C15.7821 78.8939 18.0346 81.9642 20.7395 84.7649C25.0336 89.2109 30.0468 92.5415 35.4162 94.7497C41.9458 97.4351 49.0022 98.4605 55.9322 97.8134C61.7485 97.2703 67.4758 95.5492 72.7281 92.6425" fill="white"/>
<path d="M85.2577 82.1651C86.5628 80.5667 87.736 78.8951 88.777 77.1651C91.0667 73.36 92.7171 69.2719 93.7257 65.0571C94.7459 60.7945 95.1096 56.4022 94.8144 52.042C94.5568 48.2372 93.7975 44.4568 92.5348 40.8082C91.2821 37.1883 89.5338 33.6982 87.2885 30.4425C85.9505 28.5025 84.436 26.6458 82.7446 24.8946C80.2614 22.3234 77.5377 20.1253 74.6436 18.3016C71.534 16.3421 68.2279 14.8148 64.8122 13.7214C60.5345 12.3521 56.0851 11.6632 51.635 11.6582C48.1725 11.6543 44.7096 12.0644 41.3269 12.89C37.5187 13.8194 33.8121 15.2755 30.322 17.2604C27.2541 19.0053 24.3535 21.1588 21.6985 23.7224C18.3618 26.9442 15.6591 30.5759 13.5928 34.4627C11.5697 38.268 10.1566 42.3177 9.35568 46.4663C8.53055 50.7406 8.35527 55.1199 8.83235 59.4451C9.45069 65.0511 11.1649 70.5664 13.9805 75.6445C15.7821 78.8939 18.0346 81.9642 20.7395 84.7649C25.0336 89.2109 30.0468 92.5415 35.4162 94.7497C41.9458 97.4351 49.0022 98.4605 55.9322 97.8134C61.7485 97.2703 67.4758 95.5492 72.7281 92.6425" stroke="#0066FF" stroke-width="2.34628" stroke-linecap="round" stroke-linejoin="round"/>
<path fill-rule="evenodd" clip-rule="evenodd" d="M75.8631 90.8482C78.5904 89.0931 81.0153 86.9034 82.5929 85.1356L75.8631 90.8482Z" fill="white"/>
<path d="M75.8631 90.8482C78.5904 89.0931 81.0153 86.9034 82.5929 85.1356" stroke="#0066FF" stroke-width="2.34628" stroke-linecap="round"/>
<path d="M91.1594 57.2857C90.891 57.2904 90.6219 57.2928 90.3523 57.2928C66.6516 57.2928 47.2452 38.815 45.619 15.4121C26.7542 18.3878 12.3245 34.7948 12.3245 54.5888C12.3245 76.4915 29.9924 94.2471 51.7868 94.2471C72.6794 94.2471 89.7799 77.9306 91.1594 57.2857Z" fill="#F3F8FF"/>
<path fill-rule="evenodd" clip-rule="evenodd" d="M36.7477 53.3016C35.5996 52.2414 33.8187 52.3228 32.77 53.4834C31.7212 54.6439 31.8018 56.4442 32.9498 57.5044L46.2007 69.7406C47.808 71.2248 50.3012 71.1109 51.7694 69.4861C51.8308 69.417 51.8308 69.4171 51.8901 69.3461L70.8 46.3554C71.7942 45.1467 71.6308 43.3522 70.4351 42.3472C69.2395 41.3422 67.4643 41.5074 66.4701 42.7161L48.6917 64.3311L36.7477 53.3016Z" fill="white" stroke="#0066FF" stroke-width="2.34628" stroke-linecap="round"/>
<path fill-rule="evenodd" clip-rule="evenodd" d="M38.4376 19.5537C36.6073 20.2404 34.8195 21.0747 33.0923 22.0572C30.4084 23.5838 27.8709 25.468 25.5481 27.7111C24.596 28.6306 23.7028 29.5882 22.8688 30.5793M20.2879 34.03C19.6247 35.0322 19.0144 36.0596 18.457 37.1082C18.0453 37.8826 17.6625 38.6686 17.3086 39.4646" fill="white"/>
<path d="M38.8497 20.6521C39.4563 20.4245 39.7636 19.7483 39.536 19.1417C39.3084 18.535 38.6321 18.2278 38.0255 18.4553L38.8497 20.6521ZM33.0923 22.0572L33.6723 23.0769L33.0923 22.0572ZM25.5481 27.7111L24.7332 26.8672L25.5481 27.7111ZM21.9712 29.8239C21.554 30.3197 21.6177 31.0597 22.1134 31.4769C22.6091 31.8941 23.3492 31.8304 23.7664 31.3347L21.9712 29.8239ZM21.2663 34.6774C21.6238 34.1371 21.4757 33.4093 20.9353 33.0517C20.395 32.6941 19.6672 32.8423 19.3096 33.3826L21.2663 34.6774ZM18.457 37.1082L19.4929 37.6588L18.457 37.1082ZM16.2366 38.988C15.9734 39.58 16.2399 40.2733 16.832 40.5366C17.424 40.7998 18.1173 40.5333 18.3805 39.9412L16.2366 38.988ZM38.0255 18.4553C36.1378 19.1635 34.2938 20.0241 32.5123 21.0375L33.6723 23.0769C35.3452 22.1254 37.0768 21.3172 38.8497 20.6521L38.0255 18.4553ZM32.5123 21.0375C29.7437 22.6122 27.1272 24.5553 24.7332 26.8672L26.363 28.555C28.6146 26.3807 31.073 24.5554 33.6723 23.0769L32.5123 21.0375ZM24.7332 26.8672C23.7519 27.8148 22.8312 28.802 21.9712 29.8239L23.7664 31.3347C24.5744 30.3744 25.44 29.4463 26.363 28.555L24.7332 26.8672ZM19.3096 33.3826C18.6256 34.4163 17.996 35.4759 17.4211 36.5575L19.4929 37.6588C20.0327 36.6432 20.6239 35.6481 21.2663 34.6774L19.3096 33.3826ZM17.4211 36.5575C16.9965 37.3563 16.6016 38.167 16.2366 38.988L18.3805 39.9412C18.7233 39.1702 19.0941 38.4089 19.4929 37.6588L17.4211 36.5575Z" fill="#0066FF"/>
<path d="M7.96012 94.668V98.0013" stroke="#0066FF" stroke-width="2.08333" stroke-linecap="round" stroke-linejoin="round"/>
<path d="M7.96012 104.668V108.001" stroke="#0066FF" stroke-width="2.08333" stroke-linecap="round" stroke-linejoin="round"/>
<path d="M1.29346 101.335H4.62679" stroke="#0066FF" stroke-width="2.08333" stroke-linecap="round" stroke-linejoin="round"/>
<path d="M11.2935 101.335H14.6268" stroke="#0066FF" stroke-width="2.08333" stroke-linecap="round" stroke-linejoin="round"/>
</svg>
