<svg width="107" height="110" viewBox="0 0 107 110" fill="none" xmlns="http://www.w3.org/2000/svg">
<path d="M96.3208 1.33398V6.96505" stroke="#0066FF" stroke-width="2.34628" stroke-linecap="round" stroke-linejoin="round"/>
<path d="M96.3208 14.4727V20.1037" stroke="#0066FF" stroke-width="2.34628" stroke-linecap="round" stroke-linejoin="round"/>
<path d="M86.9355 10.7182H92.5666" stroke="#0066FF" stroke-width="2.34628" stroke-linecap="round" stroke-linejoin="round"/>
<path d="M100.074 10.7182H105.705" stroke="#0066FF" stroke-width="2.34628" stroke-linecap="round" stroke-linejoin="round"/>
<path fill-rule="evenodd" clip-rule="evenodd" d="M85.2574 82.1651C86.5625 80.5667 87.7357 78.8951 88.7768 77.1651C91.0664 73.36 92.7168 69.2719 93.7255 65.0571C94.7456 60.7945 95.1093 56.4022 94.8141 52.042C94.5566 48.2372 93.7973 44.4568 92.5346 40.8082C91.2818 37.1883 89.5336 33.6982 87.2882 30.4425C85.9502 28.5025 84.4357 26.6458 82.7444 24.8946C80.2612 22.3234 77.5374 20.1253 74.6434 18.3016C71.5338 16.3421 68.2276 14.8148 64.812 13.7214C60.5343 12.3521 56.0848 11.6632 51.6347 11.6582C48.1722 11.6543 44.7094 12.0644 41.3267 12.89C37.5185 13.8194 33.8118 15.2755 30.3218 17.2604C27.2539 19.0053 24.3533 21.1588 21.6982 23.7224C18.3616 26.9442 15.6589 30.5759 13.5925 34.4627C11.5694 38.268 10.1563 42.3177 9.35543 46.4664C8.53031 50.7406 8.35503 55.1199 8.8321 59.4451C9.45045 65.0511 11.1647 70.5664 13.9803 75.6445C15.7819 78.8939 18.0344 81.9642 20.7393 84.7649C25.0333 89.2109 30.0466 92.5415 35.4159 94.7497C41.9456 97.4351 49.0019 98.4605 55.932 97.8134C61.7482 97.2703 67.4755 95.5492 72.7279 92.6425" fill="white"/>
<path d="M85.2574 82.1651C86.5625 80.5667 87.7357 78.8951 88.7768 77.1651C91.0664 73.36 92.7168 69.2719 93.7255 65.0571C94.7456 60.7945 95.1093 56.4022 94.8141 52.042C94.5566 48.2372 93.7973 44.4568 92.5346 40.8082C91.2818 37.1883 89.5336 33.6982 87.2882 30.4425C85.9502 28.5025 84.4357 26.6458 82.7444 24.8946C80.2612 22.3234 77.5374 20.1253 74.6434 18.3016C71.5338 16.3421 68.2276 14.8148 64.812 13.7214C60.5343 12.3521 56.0848 11.6632 51.6347 11.6582C48.1722 11.6543 44.7094 12.0644 41.3267 12.89C37.5185 13.8194 33.8118 15.2755 30.3218 17.2604C27.2539 19.0053 24.3533 21.1588 21.6982 23.7224C18.3616 26.9442 15.6589 30.5759 13.5925 34.4627C11.5694 38.268 10.1563 42.3177 9.35543 46.4663C8.53031 50.7406 8.35503 55.1199 8.8321 59.4451C9.45045 65.0511 11.1647 70.5664 13.9803 75.6445C15.7819 78.8939 18.0344 81.9642 20.7393 84.7649C25.0333 89.2109 30.0466 92.5415 35.4159 94.7497C41.9456 97.4351 49.0019 98.4605 55.932 97.8134C61.7482 97.2703 67.4755 95.5492 72.7279 92.6425" stroke="#0066FF" stroke-width="2.34628" stroke-linecap="round" stroke-linejoin="round"/>
<path fill-rule="evenodd" clip-rule="evenodd" d="M75.8626 90.8482C78.5899 89.0931 81.0148 86.9034 82.5924 85.1356L75.8626 90.8482Z" fill="white"/>
<path d="M75.8626 90.8482C78.5899 89.0931 81.0148 86.9034 82.5924 85.1356" stroke="#0066FF" stroke-width="2.34628" stroke-linecap="round"/>
<path d="M91.1592 57.2857C90.8907 57.2904 90.6217 57.2928 90.3521 57.2928C66.6513 57.2928 47.245 38.815 45.6188 15.4121C26.754 18.3878 12.3242 34.7948 12.3242 54.5888C12.3242 76.4915 29.9921 94.2471 51.7866 94.2471C72.6792 94.2471 89.7796 77.9306 91.1592 57.2857Z" fill="#F3F8FF"/>
<path fill-rule="evenodd" clip-rule="evenodd" d="M36.7477 53.3016C35.5996 52.2414 33.8187 52.3228 32.77 53.4834C31.7212 54.6439 31.8018 56.4442 32.9498 57.5044L46.2007 69.7406C47.808 71.2248 50.3012 71.1109 51.7694 69.4861C51.8308 69.417 51.8308 69.4171 51.8901 69.3461L70.8 46.3554C71.7942 45.1467 71.6308 43.3522 70.4351 42.3472C69.2395 41.3422 67.4643 41.5074 66.4701 42.7161L48.6917 64.3311L36.7477 53.3016Z" fill="white" stroke="#0066FF" stroke-width="2.34628" stroke-linecap="round"/>
<path fill-rule="evenodd" clip-rule="evenodd" d="M38.4364 19.5537C36.6061 20.2404 34.8183 21.0747 33.0911 22.0572C30.4071 23.5838 27.8696 25.468 25.5469 27.7111C24.5947 28.6306 23.7016 29.5882 22.8675 30.5793M20.2867 34.03C19.6235 35.0322 19.0132 36.0596 18.4558 37.1082C18.0441 37.8826 17.6613 38.6686 17.3074 39.4646" fill="white"/>
<path d="M38.8484 20.6521C39.4551 20.4245 39.7623 19.7483 39.5348 19.1417C39.3072 18.535 38.6309 18.2278 38.0243 18.4553L38.8484 20.6521ZM33.0911 22.0572L33.6711 23.0769L33.0911 22.0572ZM25.5469 27.7111L24.7319 26.8672L25.5469 27.7111ZM21.9699 29.8239C21.5528 30.3197 21.6164 31.0597 22.1122 31.4769C22.6079 31.8941 23.348 31.8304 23.7651 31.3347L21.9699 29.8239ZM21.265 34.6774C21.6226 34.1371 21.4744 33.4093 20.9341 33.0517C20.3938 32.6941 19.6659 32.8423 19.3084 33.3826L21.265 34.6774ZM18.4558 37.1082L19.4916 37.6588L18.4558 37.1082ZM16.2354 38.988C15.9722 39.58 16.2387 40.2733 16.8307 40.5366C17.4228 40.7998 18.1161 40.5333 18.3793 39.9412L16.2354 38.988ZM38.0243 18.4553C36.1366 19.1635 34.2926 20.0241 32.5111 21.0375L33.6711 23.0769C35.344 22.1254 37.0756 21.3172 38.8484 20.6521L38.0243 18.4553ZM32.5111 21.0375C29.7425 22.6122 27.1259 24.5553 24.7319 26.8672L26.3618 28.555C28.6133 26.3807 31.0718 24.5554 33.6711 23.0769L32.5111 21.0375ZM24.7319 26.8672C23.7507 27.8148 22.83 28.802 21.9699 29.8239L23.7651 31.3347C24.5732 30.3744 25.4388 29.4463 26.3618 28.555L24.7319 26.8672ZM19.3084 33.3826C18.6244 34.4163 17.9948 35.4759 17.4199 36.5575L19.4916 37.6588C20.0315 36.6432 20.6227 35.6481 21.265 34.6774L19.3084 33.3826ZM17.4199 36.5575C16.9953 37.3563 16.6004 38.167 16.2354 38.988L18.3793 39.9412C18.7221 39.1702 19.0929 38.4089 19.4916 37.6588L17.4199 36.5575Z" fill="#0066FF"/>
<path d="M7.95964 94.668V98.0013" stroke="#0066FF" stroke-width="2.08333" stroke-linecap="round" stroke-linejoin="round"/>
<path d="M7.95964 104.668V108.001" stroke="#0066FF" stroke-width="2.08333" stroke-linecap="round" stroke-linejoin="round"/>
<path d="M1.29297 101.335H4.6263" stroke="#0066FF" stroke-width="2.08333" stroke-linecap="round" stroke-linejoin="round"/>
<path d="M11.293 101.335H14.6263" stroke="#0066FF" stroke-width="2.08333" stroke-linecap="round" stroke-linejoin="round"/>
</svg>
