<svg width="107" height="110" viewBox="0 0 107 110" fill="none" xmlns="http://www.w3.org/2000/svg">
<path d="M96.3211 1.33331V6.96438" stroke="#0066ff" stroke-width="2.34628" stroke-linecap="round" stroke-linejoin="round"/>
<path d="M96.3211 14.4725V20.1035" stroke="#0066ff" stroke-width="2.34628" stroke-linecap="round" stroke-linejoin="round"/>
<path d="M86.936 10.7184H92.5671" stroke="#0066ff" stroke-width="2.34628" stroke-linecap="round" stroke-linejoin="round"/>
<path d="M100.075 10.7184H105.706" stroke="#0066ff" stroke-width="2.34628" stroke-linecap="round" stroke-linejoin="round"/>
<path fill-rule="evenodd" clip-rule="evenodd" d="M85.2577 82.1638C86.5628 80.5654 87.736 78.8938 88.777 77.1638C91.0667 73.3587 92.7171 69.2706 93.7257 65.0558C94.7458 60.7932 95.1096 56.4009 94.8144 52.0407C94.5568 48.2359 93.7975 44.4555 92.5348 40.8069C91.2821 37.187 89.5338 33.6969 87.2885 30.4412C85.9505 28.5013 84.436 26.6445 82.7446 24.8933C80.2614 22.3222 77.5377 20.1241 74.6436 18.3003C71.534 16.3408 68.2279 14.8135 64.8122 13.7201C60.5345 12.3508 56.0851 11.662 51.635 11.6569C48.1725 11.6531 44.7096 12.0631 41.3269 12.8887C37.5187 13.8181 33.8121 15.2742 30.322 17.2591C27.2541 19.004 24.3535 21.1575 21.6985 23.7212C18.3618 26.9429 15.6591 30.5746 13.5928 34.4614C11.5697 38.2667 10.1566 42.3164 9.35568 46.4651C8.53055 50.7393 8.35527 55.1186 8.83235 59.4438C9.45069 65.0498 11.1649 70.5651 13.9805 75.6432C15.7821 78.8926 18.0346 81.9629 20.7395 84.7636C25.0336 89.2097 30.0468 92.5403 35.4162 94.7484C41.9458 97.4338 49.0022 98.4592 55.9322 97.8121C61.7485 97.269 67.4758 95.5479 72.7281 92.6412" fill="#22242B"/>
<path d="M85.2577 82.1638C86.5628 80.5654 87.736 78.8938 88.777 77.1638C91.0667 73.3587 92.7171 69.2706 93.7257 65.0558C94.7459 60.7932 95.1096 56.4009 94.8144 52.0407C94.5568 48.2359 93.7975 44.4555 92.5348 40.8069C91.2821 37.187 89.5338 33.6969 87.2885 30.4412C85.9505 28.5013 84.436 26.6445 82.7446 24.8933C80.2614 22.3222 77.5377 20.1241 74.6436 18.3003C71.534 16.3408 68.2279 14.8135 64.8122 13.7201C60.5345 12.3508 56.0851 11.662 51.635 11.6569C48.1725 11.6531 44.7096 12.0631 41.3269 12.8887C37.5187 13.8181 33.8121 15.2742 30.322 17.2591C27.2541 19.004 24.3535 21.1575 21.6985 23.7212C18.3618 26.9429 15.6591 30.5746 13.5928 34.4614C11.5697 38.2667 10.1566 42.3164 9.35568 46.4651C8.53055 50.7393 8.35527 55.1186 8.83235 59.4438C9.45069 65.0498 11.1649 70.5651 13.9805 75.6432C15.7821 78.8926 18.0346 81.9629 20.7395 84.7636C25.0336 89.2097 30.0468 92.5403 35.4162 94.7484C41.9458 97.4338 49.0022 98.4592 55.9322 97.8121C61.7485 97.269 67.4758 95.5479 72.7281 92.6412" stroke="#0066ff" stroke-width="2.34628" stroke-linecap="round" stroke-linejoin="round"/>
<path fill-rule="evenodd" clip-rule="evenodd" d="M75.8631 90.8469C78.5904 89.0918 81.0153 86.902 82.5929 85.1342L75.8631 90.8469Z" fill="#22242B"/>
<path d="M75.8631 90.8469C78.5904 89.0918 81.0153 86.902 82.5929 85.1342" stroke="#0066ff" stroke-width="2.34628" stroke-linecap="round"/>
<path d="M91.1594 57.2845C90.891 57.2893 90.6219 57.2917 90.3523 57.2917C66.6516 57.2917 47.2452 38.8139 45.619 15.4109C26.7542 18.3866 12.3245 34.7936 12.3245 54.5876C12.3245 76.4903 29.9924 94.2459 51.7868 94.2459C72.6794 94.2459 89.7799 77.9294 91.1594 57.2845Z" fill="#252F44" fill-opacity="0.5"/>
<path fill-rule="evenodd" clip-rule="evenodd" d="M36.7477 53.3014C35.5996 52.2413 33.8187 52.3227 32.77 53.4832C31.7212 54.6438 31.8018 56.4441 32.9498 57.5042L46.2007 69.7405C47.808 71.2247 50.3012 71.1107 51.7694 69.4859C51.8308 69.4169 51.8308 69.4169 51.8901 69.346L70.8 46.3552C71.7942 45.1466 71.6308 43.352 70.4351 42.3471C69.2395 41.3421 67.4643 41.5072 66.4701 42.7159L48.6917 64.331L36.7477 53.3014Z" fill="#22242B" stroke="#0066ff" stroke-width="2.34628" stroke-linecap="round"/>
<path fill-rule="evenodd" clip-rule="evenodd" d="M38.4376 19.5527C36.6073 20.2393 34.8195 21.0737 33.0923 22.0561C30.4084 23.5828 27.8709 25.467 25.5481 27.71C24.596 28.6295 23.7028 29.5872 22.8688 30.5783M20.2879 34.029C19.6247 35.0312 19.0144 36.0585 18.457 37.1071C18.0453 37.8816 17.6625 38.6676 17.3086 39.4636" fill="#22242B"/>
<path d="M38.8497 20.6511C39.4563 20.4235 39.7636 19.7472 39.536 19.1406C39.3084 18.534 38.6321 18.2267 38.0255 18.4543L38.8497 20.6511ZM33.0923 22.0561L33.6723 23.0759L33.0923 22.0561ZM25.5481 27.71L24.7332 26.8662L25.5481 27.71ZM21.9712 29.8229C21.554 30.3186 21.6177 31.0587 22.1134 31.4759C22.6091 31.893 23.3492 31.8294 23.7664 31.3336L21.9712 29.8229ZM21.2663 34.6764C21.6238 34.1361 21.4757 33.4082 20.9353 33.0507C20.395 32.6931 19.6672 32.8413 19.3096 33.3816L21.2663 34.6764ZM18.457 37.1071L19.4929 37.6578L18.457 37.1071ZM16.2366 38.987C15.9734 39.579 16.2399 40.2723 16.832 40.5355C17.424 40.7988 18.1173 40.5322 18.3805 39.9402L16.2366 38.987ZM38.0255 18.4543C36.1378 19.1625 34.2938 20.0231 32.5123 21.0364L33.6723 23.0759C35.3452 22.1243 37.0768 21.3162 38.8497 20.6511L38.0255 18.4543ZM32.5123 21.0364C29.7437 22.6112 27.1272 24.5543 24.7332 26.8662L26.363 28.5539C28.6146 26.3797 31.073 24.5544 33.6723 23.0759L32.5123 21.0364ZM24.7332 26.8662C23.7519 27.8137 22.8312 28.8009 21.9712 29.8229L23.7664 31.3336C24.5744 30.3734 25.44 29.4453 26.363 28.5539L24.7332 26.8662ZM19.3096 33.3816C18.6256 34.4152 17.996 35.4749 17.4211 36.5565L19.4929 37.6578C20.0327 36.6422 20.6239 35.6471 21.2663 34.6764L19.3096 33.3816ZM17.4211 36.5565C16.9965 37.3553 16.6016 38.166 16.2366 38.987L18.3805 39.9402C18.7233 39.1692 19.0941 38.4079 19.4929 37.6578L17.4211 36.5565Z" fill="#0066ff"/>
<path d="M7.96012 94.6666V98" stroke="#0066ff" stroke-width="2.08333" stroke-linecap="round" stroke-linejoin="round"/>
<path d="M7.96012 104.667V108" stroke="#0066ff" stroke-width="2.08333" stroke-linecap="round" stroke-linejoin="round"/>
<path d="M1.29346 101.333H4.62679" stroke="#0066ff" stroke-width="2.08333" stroke-linecap="round" stroke-linejoin="round"/>
<path d="M11.2935 101.333H14.6268" stroke="#0066ff" stroke-width="2.08333" stroke-linecap="round" stroke-linejoin="round"/>
</svg>
