<svg width="156" height="24" viewBox="0 0 156 24" fill="none" xmlns="http://www.w3.org/2000/svg">
<g opacity="0.3" clip-path="url(#clip0_2_5)">
<path d="M5.31554 23.4227H0V11.2167L5.31554 19.6955V23.4227Z" fill="#C2C2C2"/>
<path d="M5.31554 17.2805L0 8.65735V0.585609H6.22982L15.4544 15.5479V0.585609H20.6715V23.4227H14.5685L5.31554 8.46048V17.2805Z" fill="white"/>
<path d="M22.4434 23.4227V0.585609H37.7994V5.2121H27.7589V9.64171H37.2088V13.9729H27.7589V18.7962H38.39V23.4227H22.4434Z" fill="white"/>
<path d="M44.6156 23.4227L38.7713 0.585609H44.0249L47.4474 14.2454L50.3992 0.585609H56.5022L59.8986 14.2454L62.999 0.585609H68.3145L62.4827 23.4227H56.9703L53.5752 8.6547L50.0536 23.4227H44.6156Z" fill="white"/>
<path d="M70.6332 17.0615L67.0404 20.7409C67.0404 20.7409 69.8202 24 75.6079 24C80.9632 24 84.3145 20.9558 84.3145 16.4321C84.3145 8.75056 73.6634 10.7061 73.6634 6.79708C73.6634 5.63533 74.6718 4.51971 76.7992 4.51971C79.0709 4.51971 80.986 6.46423 80.986 6.46423L84.4196 2.82044C84.4196 2.82044 81.8077 0 76.9744 0C71.5105 0 68.1627 3.13066 68.1627 7.12993C68.1627 15.1952 78.7262 12.7463 78.7262 16.9927C78.7262 18.6468 77.3426 19.5153 75.6079 19.5153C72.5772 19.5153 70.6332 17.0615 70.6332 17.0615Z" fill="white"/>
<path d="M85.8361 23.4227V0.585609H93.5871L98.9287 15.4253L103.997 0.585609H111.823V23.4227H106.508V7.27925L100.601 23.4227H96.7384L90.9547 7.10583V23.4227H85.8361Z" fill="white"/>
<path d="M121.378 0.585655L111.823 23.4228H117.729L119.431 18.8947H128.29L130.045 23.4228H138.454L143.261 15.3991L148.301 23.4228H155.026L146.796 11.3744L154.046 0.585655H147.654L143.428 7.6865L139.188 0.585655H132.495L139.888 11.3744L134.536 19.5596L126.7 0.585655H121.378ZM123.924 6.7452L126.877 14.5635H120.971L123.924 6.7452Z" fill="white"/>
</g>
<defs>
<clipPath id="clip0_2_5">
<rect width="155.026" height="24" fill="white"/>
</clipPath>
</defs>
</svg>
