<svg width="246" height="24" viewBox="0 0 246 24" fill="none" xmlns="http://www.w3.org/2000/svg">
<g opacity="0.3">
<path d="M0.789363 16.5598C1.37159 18.105 2.05458 19.3366 2.83835 20.2547C4.20434 21.8558 5.90063 22.6564 7.92722 22.6564C9.02449 22.6564 9.97061 22.3093 10.7656 21.6151C11.5717 20.9209 11.9748 19.9524 11.9748 18.7096C11.9748 17.5899 11.5717 16.6158 10.7656 15.7873C10.2393 15.261 9.13086 14.4717 7.44017 13.4192L4.50105 11.5885C3.61652 11.0287 2.91113 10.4633 2.38488 9.89223C1.41078 8.80616 0.923723 7.60812 0.923723 6.29811C0.923723 4.56263 1.50035 3.11826 2.6536 1.96501C3.80686 0.811756 5.3352 0.235129 7.23863 0.235129C8.02239 0.235129 8.96291 0.431071 10.0602 0.822953C11.1686 1.20364 11.8013 1.39398 11.958 1.39398C12.3835 1.39398 12.6746 1.29321 12.8314 1.09167C12.9993 0.890133 13.1281 0.604619 13.2176 0.235129H13.923L14.6788 7.55773H13.8558C13.296 5.35199 12.3947 3.81246 11.1519 2.93912C9.92022 2.06578 8.69979 1.62911 7.49055 1.62911C6.55003 1.62911 5.72708 1.90903 5.02169 2.46886C4.3275 3.01749 3.98041 3.78446 3.98041 4.76977C3.98041 5.6543 4.24913 6.41008 4.78656 7.03709C5.324 7.6753 6.15815 8.3415 7.28901 9.03569L10.3121 10.8999C12.2043 12.0644 13.5367 13.1337 14.3093 14.1078C15.0707 15.0931 15.4514 16.2575 15.4514 17.6011C15.4514 19.4038 14.7684 20.9097 13.4024 22.119C12.0476 23.3282 10.3121 23.9328 8.19594 23.9328C7.13226 23.9328 6.01819 23.7313 4.85374 23.3282C3.70049 22.9251 3.03989 22.7236 2.87194 22.7236C2.46886 22.7236 2.19454 22.8467 2.04899 23.0931C1.91463 23.3394 1.82505 23.6025 1.78027 23.8824H1.02449L0 16.5598H0.789363Z" fill="white"/>
<path d="M26.8128 7.9944V9.20364H23.3866L23.3531 18.8775C23.3531 19.7285 23.4258 20.3723 23.5714 20.809C23.8401 21.5815 24.3664 21.9678 25.1501 21.9678C25.5532 21.9678 25.9003 21.8726 26.1914 21.6823C26.4937 21.492 26.8352 21.1896 27.2159 20.7754L27.6526 21.1449L27.2831 21.6487C26.7009 22.4325 26.085 22.9867 25.4356 23.3114C24.7862 23.6361 24.1592 23.7985 23.5546 23.7985C22.2334 23.7985 21.3377 23.2106 20.8674 22.035C20.6099 21.3968 20.4811 20.5122 20.4811 19.3814V9.20364H18.6505C18.5945 9.17005 18.5497 9.13646 18.5161 9.10287C18.4937 9.06928 18.4825 9.02449 18.4825 8.96851C18.4825 8.85654 18.5049 8.77257 18.5497 8.71658C18.6057 8.64941 18.768 8.50385 19.0368 8.27992C19.8093 7.64171 20.3636 7.12666 20.6995 6.73478C21.0465 6.3317 21.8527 5.27922 23.1179 3.57733C23.2635 3.57733 23.3475 3.58852 23.3699 3.61092C23.4034 3.63331 23.4202 3.71728 23.4202 3.86284V7.9944H26.8128Z" fill="white"/>
<path d="M28.1309 22.9251C29.161 22.8355 29.844 22.6564 30.1799 22.3877C30.5158 22.1078 30.6837 21.5199 30.6837 20.6242V13.0497C30.6837 11.9412 30.5774 11.1519 30.3646 10.6816C30.1631 10.2001 29.788 9.95941 29.2394 9.95941C29.1274 9.95941 28.9762 9.97621 28.7859 10.0098C28.6067 10.0322 28.4164 10.0658 28.2149 10.1106V9.55633C28.8531 9.3324 29.5081 9.10287 30.1799 8.86774C30.8517 8.63261 31.3163 8.46466 31.5739 8.36389C32.1337 8.15115 32.7103 7.91043 33.3037 7.64171C33.3821 7.64171 33.4269 7.6697 33.4381 7.72568C33.4605 7.78167 33.4717 7.89923 33.4717 8.07838V10.8328C34.1883 9.83625 34.8769 9.05808 35.5375 8.49825C36.2093 7.93842 36.9035 7.6585 37.62 7.6585C38.1911 7.6585 38.6557 7.83205 39.014 8.17915C39.3723 8.51505 39.5515 8.94052 39.5515 9.45556C39.5515 9.91463 39.4115 10.3009 39.1316 10.6144C38.8629 10.9279 38.5214 11.0847 38.1071 11.0847C37.6816 11.0847 37.2506 10.8887 36.8139 10.4969C36.3884 10.105 36.0525 9.90903 35.8062 9.90903C35.4143 9.90903 34.9328 10.2281 34.3618 10.8663C33.7908 11.4934 33.5053 12.1428 33.5053 12.8146V20.3891C33.5053 21.352 33.7292 22.0238 34.1771 22.4045C34.6249 22.774 35.3695 22.9475 36.4108 22.9251V23.4794H28.1309V22.9251Z" fill="white"/>
<path d="M47.6547 7.72568C49.2334 7.72568 50.6162 8.27432 51.803 9.37159C52.9899 10.4577 53.5833 12.0028 53.5833 14.007H42.9185C43.0305 16.6046 43.6183 18.4969 44.682 19.6837C45.7457 20.8705 47.0053 21.464 48.4609 21.464C49.6365 21.464 50.6274 21.1561 51.4336 20.5402C52.2397 19.9244 52.9843 19.0511 53.6673 17.9202L54.2551 18.1218C53.7961 19.5437 52.9339 20.8593 51.6687 22.0686C50.4147 23.2778 48.8751 23.8824 47.0501 23.8824C44.9451 23.8824 43.316 23.0875 42.1627 21.4976C41.0207 19.9076 40.4497 18.077 40.4497 16.0056C40.4497 13.7551 41.1159 11.8125 42.4483 10.1777C43.7807 8.54304 45.5161 7.72568 47.6547 7.72568ZM46.6806 8.95171C45.4042 8.95171 44.4301 9.51714 43.7583 10.648C43.4 11.2526 43.1424 12.014 42.9857 12.9321H50.0732C49.95 11.8125 49.7373 10.9783 49.435 10.4297C48.8863 9.44437 47.9682 8.95171 46.6806 8.95171Z" fill="white"/>
<path d="M63.2821 7.72568C64.8608 7.72568 66.2436 8.27432 67.4304 9.37159C68.6173 10.4577 69.2107 12.0028 69.2107 14.007H58.5459C58.6579 16.6046 59.2457 18.4969 60.3094 19.6837C61.373 20.8705 62.6327 21.464 64.0882 21.464C65.2639 21.464 66.2548 21.1561 67.0609 20.5402C67.8671 19.9244 68.6117 19.0511 69.2947 17.9202L69.8825 18.1218C69.4234 19.5437 68.5613 20.8593 67.2961 22.0686C66.042 23.2778 64.5025 23.8824 62.6775 23.8824C60.5725 23.8824 58.9434 23.0875 57.7901 21.4976C56.6481 19.9076 56.077 18.077 56.077 16.0056C56.077 13.7551 56.7432 11.8125 58.0756 10.1777C59.408 8.54304 61.1435 7.72568 63.2821 7.72568ZM62.308 8.95171C61.0315 8.95171 60.0574 9.51714 59.3856 10.648C59.0273 11.2526 58.7698 12.014 58.6131 12.9321H65.7005C65.5774 11.8125 65.3646 10.9783 65.0623 10.4297C64.5137 9.44437 63.5956 8.95171 62.308 8.95171Z" fill="white"/>
<path d="M79.7828 7.9944V9.20364H76.3566L76.323 18.8775C76.323 19.7285 76.3958 20.3723 76.5414 20.809C76.8101 21.5815 77.3363 21.9678 78.1201 21.9678C78.5232 21.9678 78.8703 21.8726 79.1614 21.6823C79.4637 21.492 79.8052 21.1896 80.1859 20.7754L80.6225 21.1449L80.253 21.6487C79.6708 22.4325 79.055 22.9867 78.4056 23.3114C77.7562 23.6361 77.1292 23.7985 76.5246 23.7985C75.2034 23.7985 74.3076 23.2106 73.8374 22.035C73.5798 21.3968 73.4511 20.5122 73.4511 19.3814V9.20364H71.6204C71.5644 9.17005 71.5197 9.13646 71.4861 9.10287C71.4637 9.06928 71.4525 9.02449 71.4525 8.96851C71.4525 8.85654 71.4749 8.77257 71.5197 8.71658C71.5756 8.64941 71.738 8.50385 72.0067 8.27992C72.7793 7.64171 73.3335 7.12666 73.6694 6.73478C74.0165 6.3317 74.8227 5.27922 76.0879 3.57733C76.2334 3.57733 76.3174 3.58852 76.3398 3.61092C76.3734 3.63331 76.3902 3.71728 76.3902 3.86284V7.9944H79.7828Z" fill="white"/>
<path d="M81.5039 22.8579C82.9035 22.7572 83.8104 22.55 84.2247 22.2365C84.639 21.9118 84.8461 21.0833 84.8461 19.7509V4.45066C84.8461 3.18544 84.639 2.37369 84.2247 2.0154C83.8104 1.64591 82.9035 1.42757 81.5039 1.36039V0.722183H91.6817V1.36039C90.2821 1.42757 89.3752 1.64591 88.9609 2.0154C88.5466 2.37369 88.3395 3.18544 88.3395 4.45066V19.7509C88.3395 21.0833 88.5466 21.9118 88.9609 22.2365C89.3752 22.55 90.2821 22.7572 91.6817 22.8579V23.4794H81.5039V22.8579Z" fill="white"/>
<path d="M93.3692 23.0091C94.1642 22.9083 94.7184 22.7124 95.0319 22.4213C95.3566 22.119 95.519 21.4528 95.519 20.4227V11.9076C95.519 11.191 95.4518 10.6872 95.3175 10.3961C95.1047 9.97061 94.6681 9.75787 94.0074 9.75787C93.9067 9.75787 93.8003 9.76347 93.6883 9.77467C93.5876 9.78586 93.4588 9.80266 93.3021 9.82505V9.23723C93.7611 9.10287 94.8472 8.75577 96.5603 8.19594L98.139 7.6753C98.2174 7.6753 98.2622 7.70329 98.2734 7.75927C98.2958 7.81526 98.307 7.89363 98.307 7.9944V10.4633C99.337 9.50035 100.143 8.83975 100.725 8.48146C101.599 7.93282 102.506 7.6585 103.446 7.6585C104.208 7.6585 104.902 7.87684 105.529 8.31351C106.738 9.16445 107.343 10.6816 107.343 12.8649V20.7082C107.343 21.5143 107.505 22.0966 107.83 22.4549C108.154 22.8132 108.697 22.9979 109.459 23.0091V23.4794H102.287V23.0091C103.105 22.8971 103.676 22.6732 104 22.3373C104.325 21.9902 104.488 21.2456 104.488 20.1036V12.9321C104.488 11.9692 104.308 11.1742 103.95 10.5472C103.592 9.90903 102.931 9.58992 101.968 9.58992C101.308 9.58992 100.636 9.81386 99.9529 10.2617C99.5722 10.5192 99.0795 10.9447 98.4749 11.5381V20.9433C98.4749 21.7495 98.6541 22.2925 99.0123 22.5724C99.3706 22.8411 99.9361 22.9867 100.709 23.0091V23.4794H93.3692V23.0091Z" fill="white"/>
<path d="M112.07 18.1889H112.624C112.882 19.4654 113.229 20.4451 113.666 21.1281C114.449 22.3821 115.597 23.0091 117.109 23.0091C117.948 23.0091 118.609 22.7796 119.09 22.3205C119.583 21.8502 119.829 21.2456 119.829 20.5066C119.829 20.0364 119.689 19.5829 119.409 19.1463C119.13 18.7096 118.637 18.2841 117.932 17.8698L116.05 16.795C114.673 16.056 113.66 15.3114 113.011 14.5612C112.361 13.8111 112.037 12.9265 112.037 11.9076C112.037 10.6536 112.484 9.62351 113.38 8.81735C114.276 8.0112 115.401 7.60812 116.756 7.60812C117.349 7.60812 117.999 7.72008 118.704 7.94402C119.421 8.16795 119.824 8.27992 119.913 8.27992C120.115 8.27992 120.26 8.25192 120.35 8.19594C120.44 8.13996 120.518 8.05038 120.585 7.92722H120.988L121.106 12.613H120.585C120.361 11.5269 120.059 10.6816 119.678 10.077C118.984 8.95731 117.982 8.39748 116.672 8.39748C115.888 8.39748 115.272 8.63821 114.824 9.11966C114.377 9.60112 114.153 10.1665 114.153 10.816C114.153 11.846 114.925 12.7642 116.47 13.5703L118.687 14.7628C121.072 16.0616 122.265 17.5731 122.265 19.2974C122.265 20.6186 121.766 21.6991 120.77 22.5388C119.785 23.3786 118.491 23.7985 116.89 23.7985C116.218 23.7985 115.457 23.6865 114.606 23.4626C113.755 23.2386 113.251 23.1267 113.095 23.1267C112.96 23.1267 112.843 23.177 112.742 23.2778C112.641 23.3674 112.563 23.4794 112.507 23.6137H112.07V18.1889Z" fill="white"/>
<path d="M126.858 1.79706C126.858 1.31561 127.026 0.90133 127.362 0.554234C127.697 0.207138 128.112 0.0335899 128.604 0.0335899C129.086 0.0335899 129.495 0.207138 129.83 0.554234C130.178 0.890133 130.351 1.30441 130.351 1.79706C130.351 2.27852 130.178 2.69279 129.83 3.03989C129.495 3.37579 129.086 3.54374 128.604 3.54374C128.112 3.54374 127.697 3.37579 127.362 3.03989C127.026 2.69279 126.858 2.27852 126.858 1.79706ZM124.708 23.0091C125.906 22.8971 126.662 22.6956 126.975 22.4045C127.289 22.1022 127.446 21.296 127.446 19.986V11.9748C127.446 11.247 127.395 10.7432 127.294 10.4633C127.126 10.0042 126.774 9.77467 126.236 9.77467C126.113 9.77467 125.99 9.78586 125.867 9.80826C125.755 9.83065 125.419 9.92022 124.859 10.077V9.55633L125.581 9.3212C127.541 8.683 128.907 8.20154 129.679 7.87684C129.993 7.74248 130.194 7.6753 130.284 7.6753C130.306 7.75367 130.317 7.83765 130.317 7.92722V19.986C130.317 21.2624 130.469 22.063 130.771 22.3877C131.084 22.7124 131.784 22.9195 132.87 23.0091V23.4794H124.708V23.0091Z" fill="white"/>
<path d="M142.099 7.60812C142.916 7.60812 143.666 7.78726 144.349 8.14556C144.797 8.38069 145.228 8.70539 145.643 9.11966V3.77887C145.643 3.09587 145.564 2.62561 145.407 2.36809C145.262 2.11057 144.904 1.98181 144.333 1.98181C144.198 1.98181 144.081 1.9874 143.98 1.9986C143.879 2.0098 143.655 2.03219 143.308 2.06578V1.51155L144.685 1.15885C145.189 1.02449 145.693 0.884535 146.197 0.738978C146.701 0.593422 147.143 0.453464 147.524 0.319104C147.703 0.263121 147.999 0.156753 148.414 0L148.514 0.0335899L148.481 1.79706C148.47 2.43527 148.458 3.09587 148.447 3.77887C148.436 4.45066 148.431 5.11686 148.431 5.77747L148.397 19.499C148.397 20.2267 148.486 20.7362 148.666 21.0273C148.845 21.3184 149.321 21.464 150.093 21.464C150.216 21.464 150.34 21.464 150.463 21.464C150.586 21.4528 150.709 21.436 150.832 21.4136V21.9678C150.765 21.9902 149.953 22.2701 148.397 22.8076L145.76 23.7985L145.643 23.6473V21.5815C145.016 22.2645 144.472 22.7516 144.013 23.0427C143.196 23.5465 142.25 23.7985 141.175 23.7985C139.272 23.7985 137.727 23.0651 136.54 21.5983C135.364 20.1204 134.776 18.4129 134.776 16.4759C134.776 14.0462 135.482 11.9636 136.892 10.2281C138.314 8.48146 140.05 7.60812 142.099 7.60812ZM142.72 21.9846C143.594 21.9846 144.299 21.7271 144.836 21.212C145.374 20.697 145.643 20.2099 145.643 19.7509V12.5458C145.643 11.0903 145.251 10.0658 144.467 9.47236C143.694 8.86774 142.939 8.56543 142.2 8.56543C140.789 8.56543 139.692 9.19244 138.908 10.4465C138.124 11.6893 137.732 13.2232 137.732 15.0483C137.732 16.8509 138.146 18.4577 138.975 19.8684C139.815 21.2792 141.063 21.9846 142.72 21.9846Z" fill="white"/>
<path d="M159.372 7.72568C160.951 7.72568 162.334 8.27432 163.52 9.37159C164.707 10.4577 165.301 12.0028 165.301 14.007H154.636C154.748 16.6046 155.336 18.4969 156.399 19.6837C157.463 20.8705 158.723 21.464 160.178 21.464C161.354 21.464 162.345 21.1561 163.151 20.5402C163.957 19.9244 164.702 19.0511 165.385 17.9202L165.973 18.1218C165.513 19.5437 164.651 20.8593 163.386 22.0686C162.132 23.2778 160.593 23.8824 158.767 23.8824C156.662 23.8824 155.033 23.0875 153.88 21.4976C152.738 19.9076 152.167 18.077 152.167 16.0056C152.167 13.7551 152.833 11.8125 154.166 10.1777C155.498 8.54304 157.234 7.72568 159.372 7.72568ZM158.398 8.95171C157.122 8.95171 156.147 9.51714 155.476 10.648C155.117 11.2526 154.86 12.014 154.703 12.9321H161.791C161.667 11.8125 161.455 10.9783 161.152 10.4297C160.604 9.44437 159.686 8.95171 158.398 8.95171Z" fill="white"/>
<path d="M167.274 22.9251C168.304 22.8355 168.987 22.6564 169.323 22.3877C169.659 22.1078 169.827 21.5199 169.827 20.6242V13.0497C169.827 11.9412 169.72 11.1519 169.508 10.6816C169.306 10.2001 168.931 9.95941 168.382 9.95941C168.27 9.95941 168.119 9.97621 167.929 10.0098C167.75 10.0322 167.559 10.0658 167.358 10.1106V9.55633C167.996 9.3324 168.651 9.10287 169.323 8.86774C169.995 8.63261 170.459 8.46466 170.717 8.36389C171.277 8.15115 171.853 7.91043 172.447 7.64171C172.525 7.64171 172.57 7.6697 172.581 7.72568C172.603 7.78167 172.615 7.89923 172.615 8.07838V10.8328C173.331 9.83625 174.02 9.05808 174.68 8.49825C175.352 7.93842 176.046 7.6585 176.763 7.6585C177.334 7.6585 177.799 7.83205 178.157 8.17915C178.515 8.51505 178.694 8.94052 178.694 9.45556C178.694 9.91463 178.554 10.3009 178.274 10.6144C178.006 10.9279 177.664 11.0847 177.25 11.0847C176.825 11.0847 176.393 10.8887 175.957 10.4969C175.531 10.105 175.195 9.90903 174.949 9.90903C174.557 9.90903 174.076 10.2281 173.505 10.8663C172.934 11.4934 172.648 12.1428 172.648 12.8146V20.3891C172.648 21.352 172.872 22.0238 173.32 22.4045C173.768 22.774 174.512 22.9475 175.554 22.9251V23.4794H167.274V22.9251Z" fill="white"/>
<path d="M182.649 23.8824C182.112 23.8824 181.658 23.6977 181.289 23.3282C180.919 22.9475 180.735 22.4941 180.735 21.9678C180.735 21.4416 180.919 20.9937 181.289 20.6242C181.67 20.2547 182.123 20.07 182.649 20.07C183.175 20.07 183.623 20.2547 183.993 20.6242C184.362 20.9937 184.547 21.4416 184.547 21.9678C184.547 22.4941 184.362 22.9475 183.993 23.3282C183.635 23.6977 183.187 23.8824 182.649 23.8824Z" fill="white"/>
<path d="M194.531 7.64171C195.931 7.64171 197.135 8.0056 198.142 8.73338C199.161 9.44996 199.671 10.2393 199.671 11.1015C199.671 11.471 199.542 11.8181 199.284 12.1428C199.027 12.4563 198.629 12.613 198.092 12.613C197.7 12.613 197.353 12.4787 197.051 12.2099C196.759 11.9412 196.547 11.5493 196.412 11.0343L196.211 10.2281C196.065 9.63471 195.813 9.21484 195.455 8.96851C195.086 8.73338 194.599 8.61582 193.994 8.61582C192.717 8.61582 191.637 9.17565 190.752 10.2953C189.879 11.4038 189.442 12.8817 189.442 14.7292C189.442 16.4199 189.924 17.937 190.887 19.2806C191.861 20.6242 193.171 21.296 194.817 21.296C195.981 21.296 197.017 20.9153 197.924 20.154C198.439 19.7173 199.021 19.0231 199.671 18.0714L200.141 18.3569C199.503 19.7005 198.831 20.7642 198.125 21.5479C196.771 23.0483 195.203 23.7985 193.423 23.7985C191.676 23.7985 190.131 23.1099 188.787 21.7327C187.444 20.3555 186.772 18.4857 186.772 16.1232C186.772 13.8055 187.505 11.8125 188.972 10.1442C190.439 8.47586 192.292 7.64171 194.531 7.64171Z" fill="white"/>
<path d="M202.483 15.6865C202.483 13.4584 203.189 11.5773 204.6 10.0434C206.022 8.49825 207.847 7.72568 210.075 7.72568C212.292 7.72568 214.128 8.45346 215.583 9.90903C217.039 11.3646 217.767 13.3016 217.767 15.7201C217.767 17.9482 217.061 19.8852 215.651 21.5311C214.24 23.177 212.415 24 210.176 24C208.026 24 206.206 23.2106 204.717 21.6319C203.228 20.0532 202.483 18.0714 202.483 15.6865ZM209.604 8.73338C208.72 8.73338 207.953 9.02449 207.304 9.60672C206.184 10.6256 205.624 12.3835 205.624 14.8803C205.624 16.8733 206.072 18.732 206.968 20.4563C207.875 22.1805 209.129 23.0427 210.73 23.0427C211.984 23.0427 212.947 22.4661 213.618 21.3128C214.301 20.1596 214.643 18.648 214.643 16.7782C214.643 14.8411 214.212 13.0161 213.35 11.303C212.488 9.58992 211.239 8.73338 209.604 8.73338Z" fill="white"/>
<path d="M219.706 23.0427C220.58 22.9643 221.162 22.8188 221.453 22.606C221.901 22.2813 222.125 21.6319 222.125 20.6578V11.9748C222.125 11.1463 222.013 10.6032 221.789 10.3457C221.576 10.0882 221.218 9.95941 220.714 9.95941C220.479 9.95941 220.3 9.97061 220.177 9.993C220.065 10.0154 219.93 10.0546 219.773 10.1106V9.52274L220.983 9.11966C221.419 8.97411 222.136 8.71099 223.132 8.3303C224.129 7.94962 224.655 7.75927 224.711 7.75927C224.767 7.75927 224.801 7.78726 224.812 7.84325C224.823 7.89923 224.829 8.0056 224.829 8.16235V10.4297C225.937 9.42197 226.895 8.72778 227.701 8.3471C228.507 7.95521 229.335 7.75927 230.186 7.75927C231.34 7.75927 232.258 8.15115 232.941 8.93492C233.299 9.36039 233.596 9.93702 233.831 10.6648C234.659 9.82505 235.382 9.20364 235.997 8.80056C237.061 8.10637 238.147 7.75927 239.256 7.75927C241.058 7.75927 242.262 8.49265 242.867 9.95941C243.214 10.788 243.387 12.098 243.387 13.8894V20.8593C243.387 21.6543 243.561 22.1973 243.908 22.4885C244.266 22.7684 244.904 22.9531 245.822 23.0427V23.4794H238.248V23.0091C239.222 22.9195 239.86 22.7236 240.163 22.4213C240.476 22.119 240.633 21.5031 240.633 20.5738V13.3352C240.633 12.2491 240.515 11.4486 240.28 10.9335C239.866 10.0154 239.054 9.55633 237.845 9.55633C237.117 9.55633 236.395 9.79706 235.678 10.2785C235.264 10.5584 234.755 11.0063 234.15 11.6221V20.2211C234.15 21.1281 234.307 21.8167 234.62 22.2869C234.945 22.7572 235.622 23.0091 236.652 23.0427V23.4794H228.944V23.0427C230.007 22.9083 230.685 22.6508 230.976 22.2701C231.267 21.8894 231.412 20.9545 231.412 19.4654V14.7628C231.412 13.0385 231.3 11.8516 231.076 11.2022C230.707 10.105 229.923 9.55633 228.725 9.55633C228.042 9.55633 227.37 9.74668 226.71 10.1274C226.049 10.4969 225.467 10.9839 224.963 11.5885V20.7754C224.963 21.6263 225.109 22.2141 225.4 22.5388C225.702 22.8635 226.352 23.0315 227.348 23.0427V23.4794H219.706V23.0427Z" fill="white"/>
</g>
</svg>
